<?xml version="1.0" encoding="utf-8"?>
<!-- Generator: Adobe Illustrator 25.4.1, SVG Export Plug-In . SVG Version: 6.00 Build 0)  -->
<svg version="1.1" id="图层_4" xmlns="http://www.w3.org/2000/svg" xmlns:xlink="http://www.w3.org/1999/xlink" x="0px" y="0px"
	 viewBox="0 0 1125 150" style="enable-background:new 0 0 1125 150;" xml:space="preserve">
<style type="text/css">
	.st0{fill:url(#SVGID_1_);}
	.st1{fill:url(#SVGID_00000001630927061988139670000007511060333682508966_);}
	.st2{fill:url(#SVGID_00000005973645592830861860000007216071915447182519_);}
	.st3{fill:url(#SVGID_00000073723849198378927230000016518360597406849426_);}
	.st4{fill:url(#SVGID_00000106113085758823346540000014281333624003554966_);}
	.st5{fill:url(#SVGID_00000060741554636347520730000005706802451556364672_);}
	.st6{fill:url(#SVGID_00000034077447801037784010000013498167533070788771_);}
	.st7{fill:url(#SVGID_00000165940786114273061260000005901172120686160548_);}
	.st8{fill:url(#SVGID_00000001644656399673456130000018284314358313173390_);}
	.st9{fill:url(#SVGID_00000052095865922070349850000012135130054502581908_);}
	.st10{fill:url(#SVGID_00000076602375098937493990000017601451476957614737_);}
	.st11{fill:url(#SVGID_00000059274990529656412100000006247585929460314288_);}
	.st12{fill:url(#SVGID_00000078726421675289250060000011541984014192582050_);}
	.st13{fill:url(#SVGID_00000080169065590389879380000009356233243032021407_);}
	.st14{fill:url(#SVGID_00000177478338887108523160000001198050286514553002_);}
	.st15{fill:url(#SVGID_00000070811111119614665820000002864291921050682303_);}
	.st16{fill:url(#SVGID_00000135658239521703487130000013926850346809432975_);}
	.st17{fill:url(#SVGID_00000140698321505897105330000013274320913525434547_);}
	.st18{fill:url(#SVGID_00000037672689185283145840000010335475870995273138_);}
	.st19{fill:url(#SVGID_00000150078512216925880030000010560321232756213931_);}
	.st20{fill:url(#SVGID_00000100381686140431698240000006285499070731505329_);}
	.st21{fill:url(#SVGID_00000026150064568608826580000008080728563874693029_);}
	.st22{fill:url(#SVGID_00000168835693987206709390000012717876089085014152_);}
	.st23{fill:url(#SVGID_00000135665007660595250030000005196526986655311504_);}
	.st24{fill:url(#SVGID_00000023995248143139894290000001536169888615136160_);}
	.st25{fill:url(#SVGID_00000065074321552250389450000003667905157727194289_);}
	.st26{fill:url(#SVGID_00000119089535874963384270000011888295689055698328_);}
	.st27{fill:url(#SVGID_00000038403516419906089860000001532212983417069956_);}
	.st28{fill:url(#SVGID_00000056387837253174385650000011314976444355988909_);}
	.st29{fill:url(#SVGID_00000020367032118013642800000001890987469770216068_);}
	.st30{fill:url(#SVGID_00000159440508294639940180000017952622326822650795_);}
	.st31{fill:url(#SVGID_00000044897007352361053110000005094659556297333899_);}
	.st32{fill:url(#SVGID_00000090294890112750653970000014847714095397803178_);}
	.st33{fill:url(#SVGID_00000142882212454775009110000013329837893744796553_);}
	.st34{fill:url(#SVGID_00000160872802274165219470000006817268245467327163_);}
	.st35{fill:url(#SVGID_00000051366981380565626870000006023044416525225916_);}
	.st36{fill:url(#SVGID_00000049904158599086693430000010953895522428067492_);}
	.st37{fill:url(#SVGID_00000066474854101471106530000007309521055964267181_);}
	.st38{fill:url(#SVGID_00000022530928351690697020000008071334173377714094_);}
	.st39{fill:url(#SVGID_00000179632515976124973380000016099902109329567892_);}
	.st40{fill:url(#SVGID_00000157285679577023702640000009111583852407296698_);}
	.st41{fill:url(#SVGID_00000049195330933792768290000010373124574764800412_);}
	.st42{fill:url(#SVGID_00000075857297993934018610000010455291193115884416_);}
	.st43{fill:url(#SVGID_00000143592632642114917100000007532596221537658788_);}
	.st44{fill:url(#SVGID_00000147213384396577204500000011654349423624249008_);}
	.st45{fill:url(#SVGID_00000092439094012000985060000017998336976431285376_);}
	.st46{fill:url(#SVGID_00000153697702930119813330000008789953527222596760_);}
	.st47{fill:url(#SVGID_00000109003749796074911600000012722866726595205553_);}
	.st48{fill:url(#SVGID_00000155127281986383157530000006706816991844918918_);}
	.st49{fill:url(#SVGID_00000043433383536832345300000004455442223624769685_);}
	.st50{fill:url(#SVGID_00000168811078240174566760000017093632210825401007_);}
	.st51{fill:url(#SVGID_00000150798648418672799490000007215172742674766468_);}
	.st52{fill:url(#SVGID_00000151510591674293238600000008586494429918593685_);}
	.st53{fill:url(#SVGID_00000140733434189163012890000012519819860947527048_);}
	.st54{fill:url(#SVGID_00000161615191632390100980000016956852810728673177_);}
	.st55{fill:url(#SVGID_00000170256475224564101100000016588441613517854872_);}
	.st56{fill:url(#SVGID_00000066494106605624843630000008676310739360581770_);}
	.st57{fill:url(#SVGID_00000089552196388062803900000002047780059020164535_);}
	.st58{fill:url(#SVGID_00000100349084831935407740000004755654206395633799_);}
	.st59{fill:url(#SVGID_00000045621170752622018540000009637534796067471273_);}
	.st60{fill:url(#SVGID_00000054957325275519128960000003763664751486244016_);}
	.st61{fill:url(#SVGID_00000038395593126398742120000016190731304034905744_);}
	.st62{fill:url(#SVGID_00000008124762976832174760000002042847690048228541_);}
	.st63{fill:url(#SVGID_00000119831046918801469370000012585901808005283985_);}
	.st64{fill:url(#SVGID_00000080920238792503664560000013936760160797691549_);}
	.st65{fill:url(#SVGID_00000109030666665242909660000014465092109550191800_);}
	.st66{fill:url(#SVGID_00000182521667497247900700000015345257859066655647_);}
	.st67{fill:url(#SVGID_00000021806861770290794890000017174225558065077385_);}
	.st68{fill:url(#SVGID_00000100361454517071111570000002647315913626363063_);}
	.st69{fill:url(#SVGID_00000067236897652138314290000000368523407700812711_);}
	.st70{fill:url(#SVGID_00000126319392984006717380000010821179173170500001_);}
	.st71{fill:url(#SVGID_00000081626802657099682400000007077172352112171949_);}
	.st72{fill:url(#SVGID_00000052812061299586681360000009261337552830096559_);}
	.st73{fill:url(#SVGID_00000160187551612921817320000000342783997482467217_);}
	.st74{fill:url(#SVGID_00000121273203007022778340000007518308895078111932_);}
	.st75{fill:url(#SVGID_00000144330928039856203990000007536727319125889209_);}
	.st76{fill:url(#SVGID_00000006685330801844985270000015484042739089020297_);}
	.st77{fill:url(#SVGID_00000156580813731781578380000010456728457387311494_);}
	.st78{fill:url(#SVGID_00000039123222066016188030000002818086148373121429_);}
	.st79{fill:url(#SVGID_00000030453457640049415690000007172553948366871169_);}
	.st80{fill:url(#SVGID_00000090271833665580410610000006004152232373724809_);}
	.st81{fill:url(#SVGID_00000024689096150718590810000007608243733758686881_);}
	.st82{fill:url(#SVGID_00000145048568088263632420000017840637379571446403_);}
	.st83{fill:url(#SVGID_00000134952570125448200070000010672765601777712514_);}
	.st84{fill:url(#SVGID_00000033358725939626309250000017352734277706095031_);}
	.st85{fill:url(#SVGID_00000155848523787688880820000007066107004918640268_);}
	.st86{fill:url(#SVGID_00000149364259019811335960000000703559468710913424_);}
	.st87{fill:url(#SVGID_00000127017410417450858880000015184421683941345463_);}
	.st88{fill:url(#SVGID_00000089571929246989670050000010705961742704807818_);}
	.st89{fill:url(#SVGID_00000003810140087612494680000010910039511894414504_);}
	.st90{fill:url(#SVGID_00000043428498254994432190000011894626832775652011_);}
	.st91{fill:url(#SVGID_00000160162673318337699910000009841788731033351597_);}
	.st92{fill:url(#SVGID_00000059283683346145950440000005375165931391860360_);}
	.st93{fill:url(#SVGID_00000155830430190020650570000001406348593884759693_);}
	.st94{fill:url(#SVGID_00000026879406228212299190000008177581071261265827_);}
	.st95{fill:url(#SVGID_00000070090743172471346170000011765456275437715338_);}
	.st96{fill:url(#SVGID_00000145780664845110482430000001523085332752692129_);}
	.st97{fill:url(#SVGID_00000003068819776413935960000015683276206138314146_);}
	.st98{fill:url(#SVGID_00000012468946341796107890000013135723731823758238_);}
	.st99{fill:url(#SVGID_00000116914248967771339930000002322716406759125918_);}
	.st100{fill:url(#SVGID_00000139993912928692685720000009562944731907141788_);}
	.st101{fill:url(#SVGID_00000026135218242007760620000010738787589396459164_);}
	.st102{fill:url(#SVGID_00000152949767165807733970000009203470058642276260_);}
	.st103{fill:url(#SVGID_00000074438990841972707510000013093442846092366493_);}
	.st104{fill:url(#SVGID_00000121242919338339681400000010858560265032516524_);}
	.st105{fill:url(#SVGID_00000137121220701009933320000017688379425079037058_);}
	.st106{fill:url(#SVGID_00000151503097726978152530000005767425481126726322_);}
	.st107{fill:url(#SVGID_00000078734221615185679670000007312676006196643973_);}
	.st108{fill:#FFFFFF;}
	.st109{fill:url(#SVGID_00000039118844496115717520000007834763802617485714_);}
	.st110{fill:url(#SVGID_00000176033804166371547240000000532141472048526977_);}
	.st111{fill:url(#SVGID_00000158029799229089802840000003420877684697372587_);}
	.st112{fill:url(#SVGID_00000173858290429540687720000013060525359732407961_);}
	.st113{fill:url(#SVGID_00000168824666627014943290000013434729414945845642_);}
	.st114{fill:url(#SVGID_00000142885618874942785160000002935404457439929732_);}
	.st115{fill:url(#SVGID_00000124876060748549810460000007787088066045891460_);}
	.st116{fill:url(#SVGID_00000017507500130754715750000002931412803144879292_);}
	.st117{fill:url(#SVGID_00000183228744254378237480000011465525653541936779_);}
	.st118{fill:url(#SVGID_00000150069741994254624400000004402180237275765938_);}
	.st119{fill:url(#SVGID_00000109716482099919141820000010099741444147529117_);}
	.st120{fill:url(#SVGID_00000034782724670108850310000009810349561243556019_);}
	.st121{fill:url(#SVGID_00000043455720644858258450000014518914503221243276_);}
	.st122{fill:url(#SVGID_00000177448567178484629640000004414903043071528634_);}
	.st123{fill:url(#SVGID_00000010279885176088363370000005782015718012994221_);}
	.st124{fill:url(#SVGID_00000069380491642341767880000002857225368288719766_);}
	.st125{fill:url(#SVGID_00000039843828596889467290000009455656194940757889_);}
	.st126{fill:url(#SVGID_00000075868742731178693650000014984034123548451995_);}
	.st127{fill:url(#SVGID_00000026161498628761684060000004897110553432021376_);}
	.st128{fill:url(#SVGID_00000127756793722966774110000007199907126017446845_);}
	.st129{fill:url(#SVGID_00000041268482729064142930000012840406324576415891_);}
	.st130{fill:url(#SVGID_00000083794877565989284940000006978299575610816388_);}
	.st131{fill:url(#SVGID_00000000911802320057639860000011733766752954369941_);}
	.st132{fill:url(#SVGID_00000125564064971337306880000016204485925879132306_);}
	.st133{fill:url(#SVGID_00000101815846566927498470000008928677589564507562_);}
	.st134{fill:url(#SVGID_00000164485077853231573880000009637142690668545168_);}
	.st135{fill:url(#SVGID_00000097489494329678689300000015957921395780251062_);}
	.st136{fill:url(#SVGID_00000171687409921340536710000000793293626650909880_);}
	.st137{fill:url(#SVGID_00000034077637241017465090000011332968667423485571_);}
	.st138{fill:url(#SVGID_00000100350228427644048830000009108797714715076002_);}
	.st139{fill:url(#SVGID_00000016071119126415093380000012909677867408080537_);}
	.st140{fill:url(#SVGID_00000098923505697648074170000006600412750681915294_);}
	.st141{fill:url(#SVGID_00000102525847074665869920000008437730671766992279_);}
	.st142{fill:url(#SVGID_00000083055758195034638100000003025099914595437454_);}
	.st143{fill:url(#SVGID_00000034052404012091398380000011033454374516796316_);}
	.st144{fill:url(#SVGID_00000036229658709480170780000005811999316092406711_);}
	.st145{fill:url(#SVGID_00000111165906416512853250000000733020520351872941_);}
	.st146{fill:url(#SVGID_00000044876088788383406960000002891610649460472240_);}
	.st147{fill:url(#SVGID_00000157270255400470429570000009640142544452512910_);}
	.st148{fill:url(#SVGID_00000164514780548153067970000016022950996702820274_);}
	.st149{fill:#1A1A1A;}
	.st150{fill:url(#SVGID_00000008867794344137629780000016949190635279237261_);}
	.st151{fill:url(#SVGID_00000000219468068710731740000013050098320191504305_);}
	.st152{fill:url(#SVGID_00000039812833679670257610000004332880147340735872_);}
	.st153{fill:url(#SVGID_00000130646424708928160580000005643572326425905055_);}
	.st154{fill:url(#SVGID_00000152256573015080750270000000494490589788452254_);}
	.st155{fill:url(#SVGID_00000079478782781883927730000012918605641539142576_);}
	.st156{fill:url(#SVGID_00000161610460009484703880000006769835183090243739_);}
	.st157{fill:url(#SVGID_00000144336309043097472350000011482818654247944323_);}
	.st158{fill:url(#SVGID_00000158722472132347229890000015870513246972849570_);}
	.st159{fill:url(#SVGID_00000079472320398756104260000005896609676585327767_);}
	.st160{fill:url(#SVGID_00000031199955985407800180000010037978931306908321_);}
	.st161{fill:url(#SVGID_00000154421254003935090230000012936499846553812128_);}
	.st162{fill:url(#SVGID_00000135684382925692487980000005274887987381036430_);}
	.st163{fill:url(#SVGID_00000088845611004739945410000011575443932397053596_);}
	.st164{fill:url(#SVGID_00000158743839951699677240000018236184388518798748_);}
	.st165{fill:url(#SVGID_00000101089125797861278710000015844060890012808359_);}
	.st166{fill:url(#SVGID_00000003814035966608651770000007169672700131298467_);}
	.st167{fill:url(#SVGID_00000065056205934980568270000001731702263767188635_);}
	.st168{fill:url(#SVGID_00000119800608790152446580000010900486500471152052_);}
	.st169{fill:url(#SVGID_00000044160121335698364490000009670493640571194793_);}
	.st170{fill:url(#SVGID_00000093138288824254764130000007603666287477260674_);}
	.st171{fill:url(#SVGID_00000079451998506772147060000018276336142760358287_);}
	.st172{fill:url(#SVGID_00000176749036631119944410000014460011773997009544_);}
	.st173{fill:url(#SVGID_00000097484356783069429770000008521127726002951049_);}
	.st174{fill:url(#SVGID_00000026137455122719492980000006660257166143374735_);}
	.st175{fill:url(#SVGID_00000058565397738799363470000016607671785932785286_);}
	.st176{fill:url(#SVGID_00000021090935198136365880000009814995589532398728_);}
	.st177{fill:url(#SVGID_00000023967203535825947960000014244427616048181652_);}
	.st178{fill:url(#SVGID_00000181803058140400940470000003261177843278307228_);}
	.st179{fill:url(#SVGID_00000077326091350062444290000009597155643023147448_);}
	.st180{fill:url(#SVGID_00000101783013967552600510000005665559737244885414_);}
	.st181{fill:url(#SVGID_00000088120480061224725220000017297367575741240737_);}
	.st182{fill:url(#SVGID_00000047745284854897352870000014162293898025052816_);}
	.st183{fill:url(#SVGID_00000113342888289305779970000000332844726713296008_);}
	.st184{fill:url(#SVGID_00000149353954704261968500000003979775970924166047_);}
	.st185{fill:url(#SVGID_00000052082648791474718530000017403472197581153198_);}
	.st186{fill:url(#SVGID_00000052076598993839955880000012472335018293673649_);}
	.st187{fill:url(#SVGID_00000181790915080730422320000010925443437072306055_);}
	.st188{fill:url(#SVGID_00000075867670463864578500000013080425468902547131_);}
	.st189{fill:url(#SVGID_00000135693380454695388620000012430211097122818216_);}
	.st190{fill:url(#SVGID_00000005267986482774837320000018188147694894900917_);}
	.st191{fill:url(#SVGID_00000148634756715776750520000000984661134580876430_);}
</style>
<g>
	<path class="st108" d="M204.72,60.19c-1.51,0.62-2.8,2.41-6.55,2.41c-6.1,0-18.14-4.14-18.14-12.77
		c0-11.37,20.38-16.41,24.64-17.86L204.72,60.19z M199.79,59.12V35.21c-5.71,2.35-13.38,7.67-13.38,13.5
		C186.4,54.53,193.69,57.56,199.79,59.12z"/>
	<path class="st108" d="M211.94,57.61c-4.2-5.43-1.57-10.98,1.57-14.28c3.3-3.7,7.56-5.21,12.71-2.41c4.54,2.52,6.89,8.9,2.07,15.23
		C222.97,63.16,214.85,61.42,211.94,57.61z M223.65,44.79c-3.25-2.46-7-2.74-8.68-1.01c-2.3,2.41-1.46,7.73,0.62,10.42
		c2.46,3.19,8.12,4.7,10.08,2.8C228.96,53.75,226.61,47.14,223.65,44.79z"/>
	<path class="st108" d="M258.14,52.01c0,5.88-3.53,8.51-7.11,8.51c-8.18,0-8.96-7.06-8.96-4.65v2.91l-3.08,1.68
		c-0.17,0.11-1.29,0.84-1.46,1.01c-0.45,0.39-0.5,0.39-0.45,0.11c0.06-0.17,0.11-1.29,0.11-1.85V46.52c0-1.34-0.39-1.9-1.79-2.18
		c-0.56-0.11-1.57-0.17-2.07-0.17s-0.5-0.28-0.28-0.39c2.58-1.06,4.42-2.35,7-3.86c1.23-0.73,2.02,0.9,2.02,2.3v7.45
		c0,3.98,1.9,6.38,6.72,6.38c2.3,0,5.49-1.06,5.49-5.82c0-4.03-1.46-5.26-3.86-6.61c-0.78-0.45-1.79-0.39-2.24-0.28
		c-0.67,0.17-0.95,0.11-0.9-0.11c0.06-0.11,0.22-0.34,0.5-0.62l2.74-2.52h3.86c0.67,0,5.15-0.17,5.88-0.28
		c1.9-0.34,2.13-0.28,1.51,0.17c-0.39,0.28-2.52,2.41-3.3,3.14l-0.11,0.11h-4.54C251.03,43.22,258.14,44.17,258.14,52.01z"/>
	<path class="st108" d="M275.22,39.75c5.38,0,8.79,2.35,8.79,4.65v23.97l-3.08,1.68c-0.17,0.11-1.29,0.84-1.46,1.01
		c-0.45,0.39-0.5,0.39-0.45,0.11c0.06-0.17,0.11-1.29,0.11-1.85V46.86c0-2.46-2.63-4.2-6.33-4.2c-2.41,0-6.05,1.29-9.8,4.2
		c-0.56,0.45-1.23,0.06-0.84-0.45C263.68,44.45,267.1,39.75,275.22,39.75z"/>
	<path class="st108" d="M290.4,44c-0.56-0.11-1.57-0.17-2.07-0.17s-0.5-0.28-0.28-0.39c2.58-1.06,4.42-2.35,7-3.86
		c1.23-0.73,2.02,0.9,2.02,2.3v2.86c2.3-2.46,5.38-4.93,9.46-4.93c2.91,0,5.32,1.12,6.16,2.13c-0.28,0.17-2.74,2.46-3.14,3.08
		c-1.12-1.12-3.14-2.07-5.94-2.07c-2.74,0-4.31,1.68-6.55,3.92v5.26c2.74-1.51,6.89-4.26,8.62-4.26c3.75,0,7,2.41,7,6.5
		c0,4.54-5.66,6.27-9.18,6.27c-2.97,0-5.15-1.74-6.44-2.3v0.45c0,3.98-8.12,11.26-9.24,11.82c-0.34,0.17-0.62,0-0.28-0.34
		c1.01-0.9,4.65-7.17,4.65-10.75v-0.17v-4.37v-8.79C292.19,44.84,291.8,44.28,290.4,44z M305.01,58.51c2.24,0,2.74-0.17,2.74-2.69
		c0-3.08-2.63-5.15-4.42-5.15c-1.57,0-3.81,2.02-5.77,2.91C299.52,55.93,302.6,58.51,305.01,58.51z"/>
	<path class="st108" d="M317.17,44.45c-0.56-0.11-1.57-0.17-2.07-0.17s-0.5-0.28-0.28-0.39c2.58-1.06,4.42-2.35,7-3.86
		c1.23-0.73,2.02,0.9,2.02,2.3V58.4l-3.08,1.68c-0.17,0.11-1.29,0.84-1.46,1.01c-0.45,0.39-0.5,0.39-0.45,0.11
		c0.06-0.17,0.11-1.29,0.11-1.85V46.64C318.96,45.29,318.56,44.73,317.17,44.45z"/>
	<path class="st108" d="M353.28,52.01c0,5.88-3.53,8.51-7.11,8.51c-8.18,0-8.96-7.06-8.96-4.65v2.91l-3.08,1.68
		c-0.17,0.11-1.29,0.84-1.46,1.01c-0.45,0.39-0.5,0.39-0.45,0.11c0.06-0.17,0.11-1.29,0.11-1.85V46.52c0-1.34-0.39-1.9-1.79-2.18
		c-0.56-0.11-1.57-0.17-2.07-0.17s-0.5-0.28-0.28-0.39c2.58-1.06,4.42-2.35,7-3.86c1.23-0.73,2.02,0.9,2.02,2.3v7.45
		c0,3.98,1.9,6.38,6.72,6.38c2.3,0,5.49-1.06,5.49-5.82c0-4.03-1.46-5.26-3.86-6.61c-0.78-0.45-1.79-0.39-2.24-0.28
		c-0.67,0.17-0.95,0.11-0.9-0.11c0.06-0.11,0.22-0.34,0.5-0.62l2.74-2.52h3.86c0.67,0,5.15-0.17,5.88-0.28
		c1.9-0.34,2.13-0.28,1.51,0.17c-0.39,0.28-2.52,2.41-3.3,3.14l-0.11,0.11h-4.54C346.17,43.22,353.28,44.17,353.28,52.01z"/>
	<path class="st108" d="M358.04,54.36V43c0-1.9,1.46-3.25,5.1-3.25c2.18,0,3.81,1.29,5.38,3.7c0.62-1.18,2.07-3.7,5.21-3.7
		c2.86,0,3.86,0.84,7.62,6.72c3.42,5.26,6.33,11.59,8.4,11.59c1.57,0,2.46-1.68,3.02-2.18c0.34-0.34,0.73,0,0.56,0.34
		c-0.5,0.84-2.86,4.59-5.21,4.59c-2.86,0-4.26-0.95-6.16-3.86c-0.62,1.18-1.9,3.86-5.04,3.86c-2.46,0-4.42-1.68-6.05-3.98
		c-1.01,1.68-1.85,3.98-6.1,3.98C360.68,60.8,358.04,58.12,358.04,54.36z M366.56,58c1.57,0,3.02-1.06,3.86-1.79
		c-1.29-1.85-2.35-3.98-3.36-5.88c-1.46-2.74-2.52-8.18-4.03-8.18c-0.17,0-0.34,0-0.5,0.06v11.48C362.52,56.55,363.76,58,366.56,58z
		 M371.26,48.09c2.02,3.64,5.71,9.97,7.9,9.97c0.9,0,1.79-1.12,2.35-1.74c-1.12-1.74-2.41-4.03-4.26-7.11
		c-2.86-4.98-4.14-6.66-5.82-6.66c-1.06,0-1.74,1.34-2.3,1.85C369.81,45.46,370.48,46.69,371.26,48.09z"/>
	<path class="st108" d="M401.39,39.8c7.62,0,11.42,4.98,11.42,9.97c0,7.73-9.13,10.81-13.66,11.14c-0.67,0.06-0.56-0.39,0-0.62
		c4.42-1.9,7.5-3.75,7.9-8.23h-6.94c-0.67,0-5.15,0.17-5.88,0.28c-1.9,0.34-2.13,0.28-1.51-0.17c0.39-0.28,2.52-2.41,3.3-3.14
		l0.11-0.11h10.86c-0.67-5.15-3.7-7.34-6.66-7.34c-4.03,0-6.61,2.52-6.61,4.37c0,0.45-0.11,0.62-0.28,0.67
		c-1.62,0.56-2.58,1.06-3.47,1.79c-0.28,0.22-0.67,0.45-0.45-0.22C390.13,46.52,393.1,39.8,401.39,39.8z"/>
	<path class="st108" d="M440.03,52.01c0,5.88-3.53,8.51-7.11,8.51c-8.18,0-8.96-7.06-8.96-4.65v2.91l-3.08,1.68
		c-0.17,0.11-1.29,0.84-1.46,1.01c-0.45,0.39-0.5,0.39-0.45,0.11c0.06-0.17,0.11-1.29,0.11-1.85V46.52c0-1.34-0.39-1.9-1.79-2.18
		c-0.56-0.11-1.57-0.17-2.07-0.17s-0.5-0.28-0.28-0.39c2.58-1.06,4.42-2.35,7-3.86c1.23-0.73,2.02,0.9,2.02,2.3v7.45
		c0,3.98,1.9,6.38,6.72,6.38c2.3,0,5.49-1.06,5.49-5.82c0-4.03-1.46-5.26-3.86-6.61c-0.78-0.45-1.79-0.39-2.24-0.28
		c-0.67,0.17-0.95,0.11-0.9-0.11c0.06-0.11,0.22-0.34,0.5-0.62l2.74-2.52h3.86c0.67,0,5.15-0.17,5.88-0.28
		c1.9-0.34,2.13-0.28,1.51,0.17c-0.39,0.28-2.52,2.41-3.3,3.14l-0.11,0.11h-4.54C432.92,43.22,440.03,44.17,440.03,52.01z"/>
	<path class="st108" d="M457.11,39.75c5.38,0,8.79,2.35,8.79,4.65v23.97l-3.08,1.68c-0.17,0.11-1.29,0.84-1.46,1.01
		c-0.45,0.39-0.5,0.39-0.45,0.11c0.06-0.17,0.11-1.29,0.11-1.85V46.86c0-2.46-2.63-4.2-6.33-4.2c-2.41,0-6.05,1.29-9.8,4.2
		c-0.56,0.45-1.23,0.06-0.84-0.45C445.57,44.45,448.99,39.75,457.11,39.75z"/>
	<path class="st108" d="M505.44,31.46c4.31,0,8.85,3.75,8.85,8.34c0,7.22-7.11,13.27-16.91,13.27V35.44l-0.62,0.5
		c-2.69,2.46-6.38,7.62-6.38,12.88c0,4.26,2.13,9.63,8.29,9.63c3.75,0,7.39-1.23,11.59-4.98c0.95-0.84,1.29-1.62,1.46-1.62
		c0.22,0,0.5,0.45-0.39,1.46c-1.62,1.9-9.41,8.85-16.86,8.85c-4.48,0-9.52-1.96-9.52-9.02C484.94,42.32,496.14,31.46,505.44,31.46z
		 M508.8,40.98c0-3.92-2.3-7.67-5.88-7.67h-0.67v17.81C506.78,49.77,508.8,45.74,508.8,40.98z"/>
	<path class="st108" d="M517.87,44c-0.56-0.11-1.57-0.17-2.07-0.17s-0.5-0.28-0.28-0.39c2.58-1.06,4.42-2.35,7-3.86
		c1.23-0.73,2.02,0.9,2.02,2.3v2.86c2.3-2.46,5.38-4.93,9.46-4.93c2.91,0,5.32,1.12,6.16,2.13c-0.28,0.17-2.74,2.46-3.14,3.08
		c-1.12-1.12-3.14-2.07-5.94-2.07c-2.74,0-4.31,1.68-6.55,3.92v5.26c2.74-1.51,6.89-4.26,8.62-4.26c3.75,0,7,2.41,7,6.5
		c0,4.54-5.66,6.27-9.18,6.27c-2.97,0-5.15-1.74-6.44-2.3v0.45c0,3.98-8.12,11.26-9.24,11.82c-0.34,0.17-0.62,0-0.28-0.34
		c1.01-0.9,4.65-7.17,4.65-10.75v-0.17v-4.37v-8.79C519.66,44.84,519.27,44.28,517.87,44z M532.48,58.51c2.24,0,2.74-0.17,2.74-2.69
		c0-3.08-2.63-5.15-4.42-5.15c-1.57,0-3.81,2.02-5.77,2.91C527,55.93,530.08,58.51,532.48,58.51z"/>
	<path class="st108" d="M544.92,44.12c-0.56-0.11-1.57-0.17-2.07-0.17s-0.5-0.28-0.28-0.39c2.58-1.06,4.42-2.35,7-3.86
		c1.23-0.73,2.02,0.9,2.02,2.3v17.25c6.16-5.49,13.38-10.47,11.65-14.22c-0.78-1.68-2.18-2.86-3.58-2.86
		c-1.29,0-2.74,1.46-3.58,1.74c-0.45,0.17-0.67-0.34-0.5-0.5c2.07-1.74,4.59-3.25,6.5-4.03c1.29-0.56,4.31,0.28,6.16,3.64
		c3.86,7.06-17.86,13.38-17.86,24.25c0,0.34-0.17,0.34-0.45,0.45c-2.18,0.78-4.31,1.85-5.99,3.53c-0.28,0.22-0.28,0-0.28-0.39
		c0-2.24,1.23-4.48,3.08-6.72v-0.73V46.3C546.71,44.96,546.32,44.4,544.92,44.12z"/>
	<path class="st108" d="M606.63,53.58c0-4.59-1.74-7.39-4.93-7.39c-2.46,0-7.28,3.14-9.58,4.59v9.41l-3.08,1.68
		c-0.17,0.11-1.29,0.84-1.46,1.01c-0.45,0.39-0.5,0.39-0.45,0.11c0.06-0.17,0.11-1.29,0.11-1.85V39.97c0-3.19,6.38-7.78,12.54-7.78
		c4.98,0,10.02,2.35,12.26,3.92c1.06,0.73,0.5,0.78,0.22,1.01c-1.01,0.73-2.58,2.35-3.3,3.36c-0.45,0.62-0.56,0.78-0.95,0.22
		c-1.57-2.18-5.66-5.77-9.74-5.77c-4.03,0-6.16,1.57-6.16,4.76v8.74c2.52-0.95,7.56-5.04,10.47-5.04c5.26,0,9.97,3.53,9.97,8.62
		c0,6.38-8.18,9.86-12.26,11.09c-0.78,0.22-0.95-0.06-0.56-0.28C602.09,61.53,606.63,58.96,606.63,53.58z"/>
	<path class="st108" d="M631.32,39.47c5.15,0,8.96,3.53,10.14,4.98c0.22,0.28-0.28,0.56-0.45,0.73c-0.95,0.78-2.13,2.07-2.91,3.14
		c-0.17,0.22-0.34,0.28-0.5,0c-1.12-2.24-4.37-7.06-7.95-7.06c-3.3,0-5.15,2.69-5.15,6.33v12.6c0,7.28-8.01,10.98-11.42,10.98
		c-0.95,0-0.73-0.39-0.28-0.5c3.42-0.95,6.83-4.82,6.83-9.02v-14C619.62,43,624.49,39.47,631.32,39.47z M619.62,59.18h-0.06H619.62z
		"/>
	<path class="st108" d="M656.8,32.41c5.82,0,10.25,2.02,10.25,4.31v23.46l-3.08,1.68c-0.17,0.11-1.29,0.84-1.46,1.01
		c-0.45,0.39-0.5,0.39-0.45,0.11c0.06-0.17,0.11-1.29,0.11-1.85v-21c0-3.42-4.59-4.82-7.5-4.82c-2.97,0-7.06,1.34-10.7,4.2
		c-0.5,0.39-1.01,0-0.67-0.5C644.6,37.12,648.46,32.41,656.8,32.41z"/>
	<path class="st108" d="M689.4,44.45v15.62c0,0,4.93-4.42,6.72-4.42c2.52,0,6.55,1.34,6.55,6.1c0,3.64-4.82,8.62-8.23,8.62
		c-2.07,0-4.03-0.67-5.43-1.9l-2.69,1.46c-0.17,0.11-1.29,0.84-1.46,1.01c-0.45,0.39-0.5,0.39-0.45,0.11
		c0.06-0.17,0.11-1.29,0.11-1.85V47.14c0-6.22-6.89-4.82-10.53-1.79c-1.06,0.9-0.84,0-0.45-0.5C680.6,36,689.4,40.59,689.4,44.45z
		 M695.22,68.64c1.68,0,2.86-1.23,2.86-3.3c0-5.88-3.64-6.83-4.54-6.16l-4.14,2.97v0.45C689.4,65.34,694.21,68.64,695.22,68.64z"/>
	<path class="st108" d="M732.85,27.65c-2.13,2.18-3.58,8.12-3.58,18.87c0,14.67,2.69,17.3,3.86,18.98c1.23,1.74,0.11,1.34-1.62-0.11
		c-4.14-3.53-6.78-9.07-6.78-18.48c0-13.66,5.54-18.98,7.78-19.99C733.47,26.48,733.64,26.87,732.85,27.65z"/>
	<path class="st108" d="M739.35,59.01c-0.28-0.28,0.11-0.39,0.67-0.73c0.34-0.22,2.24-1.62,2.74-2.13c0.17-0.17,0.5-0.73,1.12-0.22
		c2.3,1.85,5.49,4.31,9.97,4.31c4.93,0,8.06-4.14,8.4-11.93h-13.16c-0.67,0-5.15,0.17-5.88,0.28c-1.9,0.34-2.13,0.28-1.51-0.17
		c0.39-0.28,2.52-2.41,3.3-3.14l0.11-0.11h14.11l2.8-0.11c-0.84-4.09-3.81-9.91-8.18-9.91c-4.59,0-8.18,3.7-12.77,3.7
		c-4.37,0-4.26-3.08-4.26-5.04c0-0.34,0.11-0.5,0.28-0.56c1.62-0.73,5.32-3.42,5.66-3.53c0.17-0.06,0.5-0.22,0.56,0
		c0.06,0.22-1.85,1.18-1.85,3.02c0,2.02,1.06,2.8,2.58,2.8c3.53,0,7.28-2.8,12.26-2.8c6.05,0,12.38,6.5,12.38,14.06
		c0,9.52-7.78,15.46-16.69,15.46C747.19,62.26,742.37,61.48,739.35,59.01z"/>
	<path class="st108" d="M795.07,39.52c0.9-0.34,1.85,0.34,1.85,1.96c0,2.97-5.1,5.71-10.19,8.4c2.35,3.81,4.65,7.22,6.61,7.22
		c2.18,0,2.58-0.62,3.02-1.01c0.17-0.17,0.5,0.17,0.39,0.34c-0.5,0.84-3.58,4.26-5.82,4.26c-2.8,0-5.77-4.2-8.46-8.51
		c-2.86,1.62-5.15,3.25-5.66,4.93c-0.34,1.06,0.06,2.07,0.9,2.58c0.22,0.17,0.22,0.34,0,0.34c-1.18,0-3.92,0.84-4.82,1.18
		c-0.67-0.28-1.4-0.84-1.4-2.24c0-3.3,4.93-5.94,9.97-8.46c-2.41-3.92-4.54-7.45-6.1-7.45c-1.18,0-2.69,0.95-3.25,1.57
		c-0.34,0.34-0.78,0.22-0.56-0.22c0.39-1.06,3.81-4.7,6.1-4.7c2.58,0,5.38,4.26,8.06,8.57c3.25-1.85,5.88-3.7,6.1-5.82
		c0.11-1.12-0.67-1.18-1.06-1.18c-0.5,0-0.45-0.28,0.11-0.39C791.76,40.7,794.34,39.69,795.07,39.52z"/>
	<path class="st108" d="M811.48,39.75c5.38,0,8.79,2.35,8.79,4.65v23.97l-3.08,1.68c-0.17,0.11-1.29,0.84-1.46,1.01
		c-0.45,0.39-0.5,0.39-0.45,0.11c0.06-0.17,0.11-1.29,0.11-1.85V46.86c0-2.46-2.63-4.2-6.33-4.2c-2.41,0-6.05,1.29-9.8,4.2
		c-0.56,0.45-1.23,0.06-0.84-0.45C799.94,44.45,803.35,39.75,811.48,39.75z"/>
	<path class="st108" d="M826.99,44.17c-0.56-0.11-1.57-0.17-2.07-0.17s-0.5-0.28-0.28-0.39c2.58-1.06,4.42-2.35,7-3.86
		c1.23-0.73,2.02,0.9,2.02,2.3v2.18c2.24-2.52,6.44-4.7,8.9-4.7c2.69,0,7.11,2.52,7.11,6.55c0,3.08-2.52,5.43-5.66,6.33V62.6
		c0,5.04,1.4,6.89,3.7,6.89c1.62,0,3.19-0.95,4.31-2.3c0.28-0.34,0.62,0.06,0.45,0.45c-0.84,1.79-3.64,4.7-6.33,4.7
		c-4.42,0-7-2.86-7-8.51v-11.2l-0.9-0.22c-0.73-0.22-0.95-0.73,0-0.9c1.23-0.22,5.71-0.5,5.71-4.65c0-2.58-1.57-4.82-4.42-4.82
		c-1.85,0-4.65,2.35-5.88,3.86V58.4l-3.08,1.68c-0.17,0.11-1.29,0.84-1.46,1.01c-0.45,0.39-0.5,0.39-0.45,0.11
		c0.06-0.17,0.11-1.29,0.11-1.85V46.36C828.78,45.01,828.39,44.45,826.99,44.17z"/>
	<path class="st108" d="M863.89,39.8c7.62,0,11.42,4.98,11.42,9.97c0,7.73-9.13,10.81-13.66,11.14c-0.67,0.06-0.56-0.39,0-0.62
		c4.42-1.9,7.5-3.75,7.9-8.23h-6.94c-0.67,0-5.15,0.17-5.88,0.28c-1.9,0.34-2.13,0.28-1.51-0.17c0.39-0.28,2.52-2.41,3.3-3.14
		l0.11-0.11h10.86c-0.67-5.15-3.7-7.34-6.66-7.34c-4.03,0-6.61,2.52-6.61,4.37c0,0.45-0.11,0.62-0.28,0.67
		c-1.62,0.56-2.58,1.06-3.47,1.79c-0.28,0.22-0.67,0.45-0.45-0.22C852.64,46.52,855.6,39.8,863.89,39.8z"/>
	<path class="st108" d="M878.11,54.36V43c0-1.9,1.46-3.25,5.1-3.25c2.18,0,3.81,1.29,5.38,3.7c0.62-1.18,2.07-3.7,5.21-3.7
		c2.86,0,3.86,0.84,7.62,6.72c3.42,5.26,6.33,11.59,8.4,11.59c1.57,0,2.46-1.68,3.02-2.18c0.34-0.34,0.73,0,0.56,0.34
		c-0.5,0.84-2.86,4.59-5.21,4.59c-2.86,0-4.26-0.95-6.16-3.86c-0.62,1.18-1.9,3.86-5.04,3.86c-2.46,0-4.42-1.68-6.05-3.98
		c-1.01,1.68-1.85,3.98-6.1,3.98C880.75,60.8,878.11,58.12,878.11,54.36z M886.63,58c1.57,0,3.02-1.06,3.86-1.79
		c-1.29-1.85-2.35-3.98-3.36-5.88c-1.46-2.74-2.52-8.18-4.03-8.18c-0.17,0-0.34,0-0.5,0.06v11.48C882.6,56.55,883.83,58,886.63,58z
		 M891.33,48.09c2.02,3.64,5.71,9.97,7.9,9.97c0.9,0,1.79-1.12,2.35-1.74c-1.12-1.74-2.41-4.03-4.26-7.11
		c-2.86-4.98-4.14-6.66-5.82-6.66c-1.06,0-1.74,1.34-2.3,1.85C889.88,45.46,890.55,46.69,891.33,48.09z"/>
	<path class="st108" d="M921.46,39.8c7.62,0,11.42,4.98,11.42,9.97c0,7.73-9.13,10.81-13.66,11.14c-0.67,0.06-0.56-0.39,0-0.62
		c4.42-1.9,7.5-3.75,7.9-8.23h-6.94c-0.67,0-5.15,0.17-5.88,0.28c-1.9,0.34-2.13,0.28-1.51-0.17c0.39-0.28,2.52-2.41,3.3-3.14
		l0.11-0.11h10.86c-0.67-5.15-3.7-7.34-6.66-7.34c-4.03,0-6.61,2.52-6.61,4.37c0,0.45-0.11,0.62-0.28,0.67
		c-1.62,0.56-2.58,1.06-3.47,1.79c-0.28,0.22-0.67,0.45-0.45-0.22C910.2,46.52,913.17,39.8,921.46,39.8z"/>
	<path class="st108" d="M936.86,69.15c2.13-2.18,3.58-8.12,3.58-18.87c0-14.67-2.69-17.3-3.86-18.98c-1.23-1.74-0.11-1.34,1.62,0.11
		c4.14,3.53,6.78,9.07,6.78,18.48c0,13.66-5.54,18.98-7.78,19.99C936.24,70.32,936.07,69.93,936.86,69.15z"/>
	<path class="st108" d="M148.52,116.19c-1.51,0.62-2.8,2.41-6.55,2.41c-6.1,0-18.14-4.14-18.14-12.77
		c0-11.37,20.38-16.41,24.64-17.86L148.52,116.19z M143.6,115.12V91.21c-5.71,2.35-13.38,7.67-13.38,13.5
		C130.21,110.53,137.49,113.56,143.6,115.12z"/>
	<path class="st108" d="M155.86,113.72c-5.43-7-2.24-15.85,2.3-20.55c4.82-5.38,11.42-7.28,18.37-3.47
		c7.11,3.92,9.52,13.22,2.97,22.57C172.99,121.51,159.67,118.6,155.86,113.72z M173.55,94.85c-4.42-3.42-11.48-3.81-13.89-1.23
		c-3.7,3.98-2.52,11.65,0.9,16.13c4.31,5.6,12.77,6.22,15.51,3.53C181.45,108.01,178.76,98.88,173.55,94.85z"/>
	<path class="st108" d="M206.93,92.16c0.5,0.22,8.51,2.8,8.51,13.27c0,3.53-0.95,9.74-8.96,9.74c-10.81,0-11.48-10.36-11.48-5.82
		v6.83l-3.08,1.68c-0.17,0.11-1.29,0.84-1.46,1.01c-0.45,0.39-0.5,0.39-0.45,0.11c0.06-0.17,0.11-1.29,0.11-1.85v-22.4
		c0-1.34-0.39-1.9-1.79-2.18c-0.56-0.11-1.57-0.17-2.07-0.17s-0.5-0.28-0.28-0.39c2.58-1.06,4.42-2.35,7-3.86
		c1.23-0.73,2.02,0.9,2.02,2.3v9.3c0,6.38,3.75,10.14,9.02,10.14c2.8,0,6.94-1.62,6.94-7.39c0-4.54-3.14-7.78-5.15-9.07
		c-0.95-0.62-2.24-0.67-2.8-0.5c-1.29,0.39-1.57,0.06-0.5-0.95l0.34-0.34l3.19-3.14h5.54c0.67,0,5.15-0.17,5.88-0.28
		c1.9-0.34,2.13-0.28,1.51,0.17c-0.39,0.28-2.52,2.41-3.3,3.14l-0.11,0.11h-7.9C206.2,91.6,206.43,91.94,206.93,92.16z M202.84,91.6
		h-0.06H202.84z"/>
	<path class="st108" d="M233.14,88.41c5.82,0,10.25,2.02,10.25,4.31v23.46l-3.08,1.68c-0.17,0.11-1.29,0.84-1.46,1.01
		c-0.45,0.39-0.5,0.39-0.45,0.11c0.06-0.17,0.11-1.29,0.11-1.85v-21c0-3.42-4.59-4.82-7.5-4.82c-2.97,0-7.06,1.34-10.7,4.2
		c-0.5,0.39-1.01,0-0.67-0.5C220.93,93.12,224.79,88.41,233.14,88.41z"/>
	<path class="st108" d="M250.11,92.56c-0.56-0.11-1.57-0.17-2.07-0.17s-0.5-0.28-0.28-0.39c2.58-1.06,4.42-2.35,7-3.86
		c1.23-0.73,2.02,0.9,2.02,2.3v5.6c3.08-3.47,7.9-7.9,13.61-7.9c3.47,0,6.16,1.29,7.67,2.52c0.34,0.28,0,0.28-0.22,0.39
		c-1.01,0.56-2.46,2.13-3.42,3.42c-0.06,0.11-0.22,0.28-0.45,0.11c-1.51-1.34-3.98-2.52-7.28-2.52c-3.86,0-6.55,2.3-9.91,5.54v7.17
		c3.19-1.4,9.8-5.77,12.32-5.77c4.7,0,9.41,4.48,9.41,9.24c0,5.04-7.73,9.46-12.15,9.46c-4.48,0-7.95-4.26-9.35-4.26h-0.22v2.74
		l-3.08,1.68c-0.17,0.11-1.29,0.84-1.46,1.01c-0.45,0.39-0.5,0.39-0.45,0.11c0.06-0.17,0.11-1.29,0.11-1.85v-22.4
		C251.9,93.4,251.51,92.84,250.11,92.56z M267.52,114.45c4.87,0,6.16-2.24,4.2-6.89c-1.01-2.35-3.3-5.04-5.66-5.04
		c-1.85,0-6.1,2.91-8.96,4.14C259.68,109.69,263.77,114.45,267.52,114.45z"/>
	<path class="st108" d="M283.54,92.56c-0.56-0.11-1.57-0.17-2.07-0.17s-0.5-0.28-0.28-0.39c2.58-1.06,4.42-2.35,7-3.86
		c1.23-0.73,2.02,0.9,2.02,2.3v25.76l-3.08,1.68c-0.17,0.11-1.29,0.84-1.46,1.01c-0.45,0.39-0.5,0.39-0.45,0.11
		c0.06-0.17,0.11-1.29,0.11-1.85v-22.4C285.33,93.4,284.94,92.84,283.54,92.56z"/>
	<path class="st108" d="M315.51,92.16c0.5,0.22,8.51,2.8,8.51,13.27c0,3.53-0.95,9.74-8.96,9.74c-10.81,0-11.48-10.36-11.48-5.82
		v6.83l-3.08,1.68c-0.17,0.11-1.29,0.84-1.46,1.01c-0.45,0.39-0.5,0.39-0.45,0.11c0.06-0.17,0.11-1.29,0.11-1.85v-22.4
		c0-1.34-0.39-1.9-1.79-2.18c-0.56-0.11-1.57-0.17-2.07-0.17s-0.5-0.28-0.28-0.39c2.58-1.06,4.42-2.35,7-3.86
		c1.23-0.73,2.02,0.9,2.02,2.3v9.3c0,6.38,3.75,10.14,9.02,10.14c2.8,0,6.94-1.62,6.94-7.39c0-4.54-3.14-7.78-5.15-9.07
		c-0.95-0.62-2.24-0.67-2.8-0.5c-1.29,0.39-1.57,0.06-0.5-0.95l0.34-0.34l3.19-3.14h5.54c0.67,0,5.15-0.17,5.88-0.28
		c1.9-0.34,2.13-0.28,1.51,0.17c-0.39,0.28-2.52,2.41-3.3,3.14l-0.11,0.11h-7.9C314.78,91.6,315.01,91.94,315.51,92.16z
		 M311.43,91.6h-0.06H311.43z"/>
	<path class="st108" d="M330.63,108.96V92.11c0-1.34,2.35-4.76,5.94-4.76c2.02,0,3.36,1.46,5.1,4.26c0.78-1.57,1.62-4.26,5.21-4.26
		c3.81,0,5.77,3.98,9.3,10.86c3.53,6.89,7.28,15.62,10.75,15.62c1.79,0,2.8-0.62,3.42-1.12c0.39-0.34,0.67-0.22,0.45,0.28
		c-0.56,1.29-2.74,5.1-5.94,5.1c-2.02,0-3.86-1.34-5.54-3.58c-1.06,1.57-2.86,3.58-5.15,3.58c-2.52,0-4.82-2.58-6.83-5.77
		c-1.57,2.52-4.59,5.77-8.85,5.77C333.71,118.09,330.63,114.56,330.63,108.96z M341.05,113.89c2.91,0,4.87-1.23,5.88-2.13
		c-1.34-2.13-2.52-4.42-3.53-6.33c-4.14-7.73-6.5-12.15-8.23-13.61v16.24C335.17,112.21,337.75,113.89,341.05,113.89z M346.2,99.67
		c3.08,5.43,7.5,14.17,10.02,14.17c0.95,0,1.74-0.17,2.3-0.45c-2.13-3.08-4.2-7.5-6.55-12.43c-2.58-5.38-5.38-9.69-7.34-9.69
		c-1.23,0-1.9,0.39-2.52,1.06C343.23,94.24,344.52,96.7,346.2,99.67z"/>
	<path class="st108" d="M373.36,115.01c-0.28-0.28,0.11-0.39,0.67-0.73c0.34-0.22,2.24-1.62,2.74-2.13c0.17-0.17,0.5-0.73,1.12-0.22
		c2.3,1.85,5.49,4.31,9.97,4.31c4.93,0,8.06-4.14,8.4-11.93H383.1c-0.67,0-5.15,0.17-5.88,0.28c-1.9,0.34-2.13,0.28-1.51-0.17
		c0.39-0.28,2.52-2.41,3.3-3.14l0.11-0.11h14.11l2.8-0.11c-0.84-4.09-3.81-9.91-8.18-9.91c-4.59,0-8.18,3.7-12.77,3.7
		c-4.37,0-4.26-3.08-4.26-5.04c0-0.34,0.11-0.5,0.28-0.56c1.62-0.73,5.32-3.42,5.66-3.53c0.17-0.06,0.5-0.22,0.56,0
		c0.06,0.22-1.85,1.18-1.85,3.02c0,2.02,1.06,2.8,2.58,2.8c3.53,0,7.28-2.8,12.26-2.8c6.05,0,12.38,6.5,12.38,14.06
		c0,9.52-7.78,15.46-16.69,15.46C381.2,118.26,376.38,117.48,373.36,115.01z"/>
	<path class="st108" d="M426.34,92.16c0.5,0.22,8.51,2.8,8.51,13.27c0,3.53-0.95,9.74-8.96,9.74c-10.81,0-11.48-10.36-11.48-5.82
		v6.83l-3.08,1.68c-0.17,0.11-1.29,0.84-1.46,1.01c-0.45,0.39-0.5,0.39-0.45,0.11c0.06-0.17,0.11-1.29,0.11-1.85v-22.4
		c0-1.34-0.39-1.9-1.79-2.18c-0.56-0.11-1.57-0.17-2.07-0.17s-0.5-0.28-0.28-0.39c2.58-1.06,4.42-2.35,7-3.86
		c1.23-0.73,2.02,0.9,2.02,2.3v9.3c0,6.38,3.75,10.14,9.02,10.14c2.8,0,6.94-1.62,6.94-7.39c0-4.54-3.14-7.78-5.15-9.07
		c-0.95-0.62-2.24-0.67-2.8-0.5c-1.29,0.39-1.57,0.06-0.5-0.95l0.34-0.34l3.19-3.14h5.54c0.67,0,5.15-0.17,5.88-0.28
		c1.9-0.34,2.13-0.28,1.51,0.17c-0.39,0.28-2.52,2.41-3.3,3.14l-0.11,0.11h-7.9C425.61,91.6,425.83,91.94,426.34,92.16z
		 M422.25,91.6h-0.06H422.25z"/>
	<path class="st108" d="M452.55,88.41c5.82,0,10.25,2.02,10.25,4.31v23.46l-3.08,1.68c-0.17,0.11-1.29,0.84-1.46,1.01
		c-0.45,0.39-0.5,0.39-0.45,0.11c0.06-0.17,0.11-1.29,0.11-1.85v-21c0-3.42-4.59-4.82-7.5-4.82c-2.97,0-7.06,1.34-10.7,4.2
		c-0.5,0.39-1.01,0-0.67-0.5C440.34,93.12,444.2,88.41,452.55,88.41z"/>
	<path class="st108" d="M502.33,87.46c4.31,0,8.85,3.75,8.85,8.34c0,7.22-7.11,13.27-16.91,13.27V91.44l-0.62,0.5
		c-2.69,2.46-6.38,7.62-6.38,12.88c0,4.26,2.13,9.63,8.29,9.63c3.75,0,7.39-1.23,11.59-4.98c0.95-0.84,1.29-1.62,1.46-1.62
		c0.22,0,0.5,0.45-0.39,1.46c-1.62,1.9-9.41,8.85-16.86,8.85c-4.48,0-9.52-1.96-9.52-9.02C481.83,98.32,493.03,87.46,502.33,87.46z
		 M505.69,96.98c0-3.92-2.3-7.67-5.88-7.67h-0.67v17.81C503.67,105.77,505.69,101.74,505.69,96.98z"/>
	<path class="st108" d="M516.22,92.56c-0.56-0.11-1.57-0.17-2.07-0.17s-0.5-0.28-0.28-0.39c2.58-1.06,4.42-2.35,7-3.86
		c1.23-0.73,2.02,0.9,2.02,2.3v5.6c3.08-3.47,7.9-7.9,13.61-7.9c3.47,0,6.16,1.29,7.67,2.52c0.34,0.28,0,0.28-0.22,0.39
		c-1.01,0.56-2.46,2.13-3.42,3.42c-0.06,0.11-0.22,0.28-0.45,0.11c-1.51-1.34-3.98-2.52-7.28-2.52c-3.86,0-6.55,2.3-9.91,5.54v7.17
		c3.19-1.4,9.8-5.77,12.32-5.77c4.7,0,9.41,4.48,9.41,9.24c0,5.04-7.73,9.46-12.15,9.46c-4.48,0-7.95-4.26-9.35-4.26h-0.22v2.74
		l-3.08,1.68c-0.17,0.11-1.29,0.84-1.46,1.01c-0.45,0.39-0.5,0.39-0.45,0.11c0.06-0.17,0.11-1.29,0.11-1.85v-22.4
		C518.01,93.4,517.62,92.84,516.22,92.56z M533.63,114.45c4.87,0,6.16-2.24,4.2-6.89c-1.01-2.35-3.3-5.04-5.66-5.04
		c-1.85,0-6.1,2.91-8.96,4.14C525.79,109.69,529.88,114.45,533.63,114.45z"/>
	<path class="st108" d="M549.65,92.56c-0.56-0.11-1.57-0.17-2.07-0.17s-0.5-0.28-0.28-0.39c2.58-1.06,4.42-2.35,7-3.86
		c1.23-0.73,2.02,0.9,2.02,2.3v19.32c4.48-4.14,9.69-7.78,11.14-8.74c3.75-2.52,4.98-4.87,3.75-7.22c-0.9-1.74-2.46-2.91-4.03-2.91
		c-1.4,0-4.03,1.57-4.42,1.57c-0.28,0-0.34-0.22-0.11-0.34c2.41-1.29,5.32-3.08,7.22-4.26c1.34-0.84,5.04,0.28,6.89,3.86
		c2.69,5.21-6.44,9.8-10.53,12.71c-5.71,4.09-8.9,7.45-9.35,11.54c-0.06,0.39-0.22,0.39-0.5,0.5c-2.46,0.9-4.87,2.24-6.78,3.98
		c-0.28,0.22-0.28,0-0.28-0.39c0-1.51,0.84-3.25,2.13-5.04V94.74C551.44,93.4,551.05,92.84,549.65,92.56z"/>
	<path class="st108" d="M615.22,109.58c0-4.59-1.74-7.39-4.93-7.39c-2.46,0-7.28,3.14-9.58,4.59v9.41l-3.08,1.68
		c-0.17,0.11-1.29,0.84-1.46,1.01c-0.45,0.39-0.5,0.39-0.45,0.11c0.06-0.17,0.11-1.29,0.11-1.85V95.97c0-3.19,6.38-7.78,12.54-7.78
		c4.98,0,10.02,2.35,12.26,3.92c1.06,0.73,0.5,0.78,0.22,1.01c-1.01,0.73-2.58,2.35-3.3,3.36c-0.45,0.62-0.56,0.78-0.95,0.22
		c-1.57-2.18-5.66-5.77-9.74-5.77c-4.03,0-6.16,1.57-6.16,4.76v8.74c2.52-0.95,7.56-5.04,10.47-5.04c5.26,0,9.97,3.53,9.97,8.62
		c0,6.38-8.18,9.86-12.26,11.09c-0.78,0.22-0.95-0.06-0.56-0.28C610.69,117.53,615.22,114.96,615.22,109.58z"/>
	<path class="st108" d="M668.2,88.41c5.82,0,10.25,2.02,10.25,4.31v23.46l-3.08,1.68c-0.17,0.11-1.29,0.84-1.46,1.01
		c-0.45,0.39-0.5,0.39-0.45,0.11c0.06-0.17,0.11-1.29,0.11-1.85v-21c0-3.42-4.59-4.82-7.5-4.82c-2.97,0-7.06,1.34-10.7,4.2
		c-0.5,0.39-1.01,0-0.67-0.5C655.99,93.12,659.85,88.41,668.2,88.41z"/>
	<path class="st108" d="M750.74,115.01c-0.28-0.28,0.11-0.39,0.67-0.73c0.34-0.22,2.24-1.62,2.74-2.13c0.17-0.17,0.5-0.73,1.12-0.22
		c2.3,1.85,5.49,4.31,9.97,4.31c4.93,0,8.06-4.14,8.4-11.93h-13.16c-0.67,0-5.15,0.17-5.88,0.28c-1.9,0.34-2.13,0.28-1.51-0.17
		c0.39-0.28,2.52-2.41,3.3-3.14l0.11-0.11h14.11l2.8-0.11c-0.84-4.09-3.81-9.91-8.18-9.91c-4.59,0-8.18,3.7-12.77,3.7
		c-4.37,0-4.26-3.08-4.26-5.04c0-0.34,0.11-0.5,0.28-0.56c1.62-0.73,5.32-3.42,5.66-3.53c0.17-0.06,0.5-0.22,0.56,0
		c0.06,0.22-1.85,1.18-1.85,3.02c0,2.02,1.06,2.8,2.58,2.8c3.53,0,7.28-2.8,12.26-2.8c6.05,0,12.38,6.5,12.38,14.06
		c0,9.52-7.78,15.46-16.69,15.46C758.58,118.26,753.77,117.48,750.74,115.01z"/>
	<path class="st108" d="M816.15,87.85c1.29-0.39,2.46,0.06,2.46,2.46c0,3.36-4.82,6.89-14.67,12.21
		c4.82,5.94,9.13,11.76,11.59,11.76c1.34,0,2.13-0.56,2.69-1.12c0.34-0.28,0.62-0.17,0.45,0.17c-0.73,1.29-2.91,4.76-5.49,4.76
		c-2.91,0-5.71-3.81-13.55-13.1c-5.43,3.42-7.78,6.27-8.79,8.23c-0.95,1.9,0,2.63,1.4,3.42c0.39,0.22,0.39,0.45,0,0.45
		c-1.68,0-5.54,1.23-6.83,1.74c-0.9-0.45-1.96-1.23-1.96-3.25c0-2.74,6.72-6.94,15.18-11.76l-2.18-2.58c-1.68-1.9-7-9.58-10.02-9.58
		c-1.23,0-1.9,0.78-2.35,1.46c-0.34,0.56-0.62,0.39-0.34-0.34c0.62-1.51,3.25-4.65,5.71-4.65c3.42,0,8.18,6.61,12.54,11.93
		l1.01,1.23c8.12-5.1,8.51-7.9,8.62-9.24c0.11-1.62-1.06-1.96-1.68-1.96c-0.73,0-0.62-0.39,0.17-0.56
		C811.33,89.25,815.03,88.19,816.15,87.85z"/>
	<path class="st108" d="M834.85,88.41c5.82,0,10.25,2.02,10.25,4.31v23.46l-3.08,1.68c-0.17,0.11-1.29,0.84-1.46,1.01
		c-0.45,0.39-0.5,0.39-0.45,0.11c0.06-0.17,0.11-1.29,0.11-1.85v-21c0-3.42-4.59-4.82-7.5-4.82c-2.97,0-7.06,1.34-10.7,4.2
		c-0.5,0.39-1.01,0-0.67-0.5C822.65,93.12,826.51,88.41,834.85,88.41z"/>
	<path class="st108" d="M851.82,92.56c-0.56-0.11-1.57-0.17-2.07-0.17s-0.5-0.28-0.28-0.39c2.58-1.06,4.42-2.35,7-3.86
		c1.23-0.73,2.02,0.9,2.02,2.3v0.17l0.5,0.06c0.9,0,6.83-3.02,9.91-3.02c3.08,0,8.12,2.13,8.12,6.78c0,4.09-2.91,7.11-7.17,7.78
		v12.43c2.52-0.73,5.38-1.85,6.94-2.35c0.62-0.22,0.62,0,0.28,0.39c-1.62,1.85-9.74,5.49-12.1,5.49v-16.18l-1.01-0.28
		c-0.5-0.17-0.5-0.34-0.11-0.45c1.46-0.39,7.34-2.13,7.34-6.05s-2.52-5.26-5.15-5.26c-2.13,0-6.16,3.36-7.56,5.21v21.06l-3.08,1.68
		c-0.17,0.11-1.29,0.84-1.46,1.01c-0.45,0.39-0.5,0.39-0.45,0.11c0.06-0.17,0.11-1.29,0.11-1.85v-22.4
		C853.61,93.4,853.22,92.84,851.82,92.56z"/>
	<path class="st108" d="M883.18,115.01c-0.28-0.28,0.11-0.39,0.67-0.73c0.34-0.22,2.24-1.62,2.74-2.13c0.17-0.17,0.5-0.73,1.12-0.22
		c2.3,1.85,5.49,4.31,9.97,4.31c4.93,0,8.06-4.14,8.4-11.93h-13.16c-0.67,0-5.15,0.17-5.88,0.28c-1.9,0.34-2.13,0.28-1.51-0.17
		c0.39-0.28,2.52-2.41,3.3-3.14l0.11-0.11h14.11l2.8-0.11c-0.84-4.09-3.81-9.91-8.18-9.91c-4.59,0-8.18,3.7-12.77,3.7
		c-4.37,0-4.26-3.08-4.26-5.04c0-0.34,0.11-0.5,0.28-0.56c1.62-0.73,5.32-3.42,5.66-3.53c0.17-0.06,0.5-0.22,0.56,0
		c0.06,0.22-1.85,1.18-1.85,3.02c0,2.02,1.06,2.8,2.58,2.8c3.53,0,7.28-2.8,12.26-2.8c6.05,0,12.38,6.5,12.38,14.06
		c0,9.52-7.78,15.46-16.69,15.46C891.02,118.26,886.21,117.48,883.18,115.01z"/>
	<path class="st108" d="M917.01,108.96V92.11c0-1.34,2.35-4.76,5.94-4.76c2.02,0,3.36,1.46,5.1,4.26c0.78-1.57,1.62-4.26,5.21-4.26
		c3.81,0,5.77,3.98,9.3,10.86c3.53,6.89,7.28,15.62,10.75,15.62c1.79,0,2.8-0.62,3.42-1.12c0.39-0.34,0.67-0.22,0.45,0.28
		c-0.56,1.29-2.74,5.1-5.94,5.1c-2.02,0-3.86-1.34-5.54-3.58c-1.06,1.57-2.86,3.58-5.15,3.58c-2.52,0-4.82-2.58-6.83-5.77
		c-1.57,2.52-4.59,5.77-8.85,5.77C920.09,118.09,917.01,114.56,917.01,108.96z M927.42,113.89c2.91,0,4.87-1.23,5.88-2.13
		c-1.34-2.13-2.52-4.42-3.53-6.33c-4.14-7.73-6.5-12.15-8.23-13.61v16.24C921.54,112.21,924.12,113.89,927.42,113.89z M932.57,99.67
		c3.08,5.43,7.5,14.17,10.02,14.17c0.95,0,1.74-0.17,2.3-0.45c-2.13-3.08-4.2-7.5-6.55-12.43c-2.58-5.38-5.38-9.69-7.34-9.69
		c-1.23,0-1.9,0.39-2.52,1.06C929.61,94.24,930.89,96.7,932.57,99.67z"/>
	<path class="st108" d="M959.73,115.01c-0.28-0.28,0.11-0.39,0.67-0.73c0.34-0.22,2.24-1.62,2.74-2.13c0.17-0.17,0.5-0.73,1.12-0.22
		c2.3,1.85,5.49,4.31,9.97,4.31c4.93,0,8.06-4.14,8.4-11.93h-13.16c-0.67,0-5.15,0.17-5.88,0.28c-1.9,0.34-2.13,0.28-1.51-0.17
		c0.39-0.28,2.52-2.41,3.3-3.14l0.11-0.11h14.11l2.8-0.11c-0.84-4.09-3.81-9.91-8.18-9.91c-4.59,0-8.18,3.7-12.77,3.7
		c-4.37,0-4.26-3.08-4.26-5.04c0-0.34,0.11-0.5,0.28-0.56c1.62-0.73,5.32-3.42,5.66-3.53c0.17-0.06,0.5-0.22,0.56,0
		c0.06,0.22-1.85,1.18-1.85,3.02c0,2.02,1.06,2.8,2.58,2.8c3.53,0,7.28-2.8,12.26-2.8c6.05,0,12.38,6.5,12.38,14.06
		c0,9.52-7.78,15.46-16.69,15.46C967.57,118.26,962.76,117.48,959.73,115.01z"/>
	<g>
		<path class="st108" d="M641.49,87.74c5.99,0,9.8,3.47,11.42,5.21c0.22,0.22,0.06,0.34-0.11,0.45c-1.29,0.73-2.86,2.58-3.7,3.75
			c-0.22,0.34-0.39,0.45-0.56,0.06c-1.06-2.35-4.26-6.94-9.58-6.94c-2.63,0-6.1,1.62-6.1,5.26v18.98c0,6.72-9.46,7.84-12.88,7.84
			c-0.95,0-0.73-0.39-0.28-0.5c3.42-0.95,8.29-4.37,8.29-7.34V95.58C627.99,90.32,633.42,87.74,641.49,87.74z M627.99,112.94h-0.06
			H627.99z"/>
		<path class="st108" d="M700.9,93.45v14.67c0,0,4.93-4.42,6.72-4.42c2.52,0,6.55,1.34,6.55,6.1c0,3.64-4.82,8.62-8.23,8.62
			c-2.13,0-4.14-0.73-5.54-1.96l-2.58,1.4c-0.17,0.11-1.29,0.84-1.46,1.01c-0.45,0.39-0.5,0.39-0.45,0.11
			c0.06-0.17,0.11-1.29,0.11-1.85v-21c0-6.22-7-5.94-11.65-1.79c-1.06,0.95-0.84,0-0.45-0.5C690.15,85,700.9,89.31,700.9,93.45z
			 M706.73,116.69c1.68,0,2.86-1.23,2.86-3.3c0-5.88-3.64-6.83-4.54-6.16l-4.14,2.97v0.45C700.9,113.39,705.72,116.69,706.73,116.69
			z"/>
		<path class="st108" d="M744.25,83.65c-2.13,2.18-3.58,8.12-3.58,18.87c0,14.67,2.69,17.3,3.86,18.98
			c1.23,1.74,0.11,1.34-1.62-0.11c-4.14-3.53-6.78-9.07-6.78-18.48c0-13.66,5.54-18.98,7.78-19.99
			C744.86,82.48,745.03,82.87,744.25,83.65z"/>
		<path class="st108" d="M993.05,122.35c2.13-2.18,3.58-8.12,3.58-18.87c0-14.67-2.69-17.3-3.86-18.98
			c-1.23-1.74-0.11-1.34,1.62,0.11c4.14,3.53,6.78,9.07,6.78,18.48c0,13.66-5.54,18.98-7.78,19.99
			C992.44,123.52,992.27,123.13,993.05,122.35z"/>
	</g>
</g>
<g>
	<g>
		<g>
			<g>
				<path class="st108" d="M954.98,49.88c0-11.66-3.37-20.2-10.35-26.14c-2-1.67-4.76-3.6-8.42-3.6c-3.82,0-7.27,2.1-9.01,5.47
					c-0.54,1.05-1.13,2.64-1.15,4.59c-1.44-0.26-2.97-0.41-4.59-0.41c-6.59,0-11.68,2.48-15.34,5.95c-2.81-3.4-6.4-6-12.32-6
					c-1.19,0-3.13,0.16-5.3,0.96c-1.92-0.73-3.74-0.96-5.29-0.96c-3.72,0-6.7,0.89-9,2.32c-2.9-1.42-6.35-2.26-10.32-2.26
					c-4.51,0-8.31,1.17-11.44,3.01c-2.98-2.09-6.51-3.29-9.9-3.29c-1.88,0-3.84,0.39-5.74,1.06c-1.4-0.65-2.95-1.01-4.59-1.01
					c-1.98,0-3.94,0.54-5.65,1.56c-0.68,0.4-1.32,0.79-1.93,1.16c-0.41,0.25-0.78,0.48-1.14,0.69c-3.21-2.03-7.37-3.22-12.03-3.22
					c-3.76,0-6.92,0.68-9.58,1.7c-1.81-1.27-4-2.01-6.38-2.01c-1.11,0-2.2,0.16-3.27,0.49c-0.66,0.18-1.35,0.42-2.18,0.71
					c-0.48,0.17-1,0.36-1.39,0.47c-1.15,0.25-2.21,0.68-3.17,1.24c-2.22-1.61-4.8-2.66-7.86-2.66c-1.75,0-3.43,0.39-5.01,1.03
					c-4.15-4.84-10.03-7.97-16.33-7.97c-1.93,0-3.69,0.24-5.28,0.58c-1.88-2.3-4.73-3.72-7.87-3.72c-1.02,0-1.89,0.15-2.57,0.33
					c-1.89-2.01-4.56-3.2-7.45-3.2c-1.61,0-3.22,0.37-4.81,1.11c-6.29,2.88-13.6,12.2-13.6,29.08c0,11.66,3.37,20.2,10.35,26.14
					c2,1.67,4.76,3.6,8.42,3.6c0.82,0,1.63-0.12,2.4-0.3c-5.1,4.4-9.78,13.05-9.78,26.56c0,11.66,3.37,20.2,10.35,26.14
					c2,1.67,4.76,3.6,8.42,3.6c3.81,0,7.25-2.09,9-5.45c2.84,0.68,6,1.05,9.5,1.05c5.05,0,9.69-1.21,13.64-3.36
					c1.08,1.14,2.38,2.1,3.9,2.86l3.98,1.99l4.14-1.62c0.83-0.32,2.82-0.91,3.63-1.06c3.57-0.15,6.75-2.1,8.48-5.04
					c3.87,3.96,7.26,6.06,12.03,6.06c5.57,0,10.61-3.5,14.2-9.85l0.12-0.22l0.11-0.22c1.62-3.23,1.46-6.97-0.41-9.99
					c-0.64-1.03-1.45-1.92-2.37-2.64c1.2-0.39,2.34-0.98,3.37-1.78c0.72-0.56,1.41-0.98,2.03-1.28v15.03c0,0.13-0.01,0.3-0.02,0.46
					c-0.41,2.86,0.36,5.71,2.16,7.91l3.03,3.68l4.74,0c3.34,0,5.58-1.59,6.62-2.45l2.02,2.45h4.74c1.81,0,3.31-0.47,4.46-1.04h7
					c3.32,0,8.81-1.93,13.31-4.35c4.37,2.95,10.25,4.46,17.55,4.46c6.37,0,12.08-1.93,16.58-5.22c3.14,3.17,7.45,5.06,12.43,5.06
					c2.94,0,5.78-0.7,8.39-2.02c2.05,1.2,4.47,2.02,7.29,2.02c1.33,0,3.2-0.2,5.27-1.04c2,0.79,3.87,1.04,5.42,1.04
					c2.86,0,5.4-0.85,7.57-2.19c3.77,1.56,8.31,2.36,13.6,2.36c3.84,0,7.44-0.7,10.68-1.98c0.08,0.25,0.16,0.49,0.26,0.71
					c1.58,3.81,5.28,6.27,9.43,6.27c1.61,0,3.22-0.37,4.81-1.11c6.29-2.88,13.6-12.2,13.6-29.07c0-11.66-3.37-20.2-10.35-26.14
					c-2-1.68-4.76-3.6-8.43-3.6c-3.82,0-7.27,2.1-9.02,5.48c-0.15,0.28-0.3,0.61-0.44,0.97c-2-0.67-4.1-1.04-6.24-1.04
					c-1.93,0-3.69,0.24-5.28,0.58c-1.88-2.3-4.73-3.72-7.87-3.72c-1.82,0-3.22,0.49-3.77,0.7c-1.29,0.46-2.14,1.03-3.62,2.02
					c-0.67,0.45-2.23,1.5-2.85,1.83c-2.75,1.26-4.79,3.67-5.65,6.56c-1.9-3.07-4.12-5.76-7.04-7.46c0.25-0.1,0.5-0.19,0.75-0.3
					C947.67,76.08,954.98,66.76,954.98,49.88z M801.38,83.95c-3.48-3.42-7.25-5.82-11.94-5.82c-4.08,0-7.57,1.89-10.2,4.29
					c-3.41-2.31-7.38-3.68-11.53-3.68c-1.93,0-3.7,0.24-5.28,0.58c-1.88-2.3-4.74-3.72-7.87-3.72c-1.02,0-1.89,0.15-2.57,0.33
					c-1.89-2.01-4.56-3.2-7.45-3.2c-1.17,0-2.35,0.2-3.52,0.59c0.57-0.63,1.08-1.34,1.48-2.12c2.84,0.68,6,1.05,9.5,1.05
					c5.24,0,10.03-1.3,14.07-3.59c0.89,0.71,1.88,1.3,2.98,1.76l3.67,1.48l3.67-1.34c0.44-0.16,1.45-0.45,1.96-0.56
					c1.81-0.11,3.52-0.7,4.97-1.65c2.17,1.42,4.69,2.34,7.6,2.34c7.45,0,12.81-6.86,14.1-8.67l0.01,0.01
					c0.13-0.2,0.24-0.41,0.36-0.62v7.9c0,0.12-0.01,0.3-0.01,0.45c-0.42,2.86,0.36,5.71,2.16,7.91l1.48,1.8
					c-0.49,0.13-0.89,0.24-1.11,0.29C805.14,80.39,802.87,81.91,801.38,83.95z M824.28,80.42c-0.73-0.61-1.52-1.11-2.35-1.52
					c0.02-0.02,0.04-0.03,0.06-0.05c0.11-0.08,0.23-0.16,0.34-0.23l7.93-4.33v-3.03c0.01,0,0.02,0,0.02,0
					c1.04,3.03,2.73,5.39,4.79,7.15c-0.08,0-0.15-0.01-0.23-0.01C831.08,78.41,827.51,79.11,824.28,80.42z M922.94,77.35
					c-4.63,0-8.67,2.02-11.52,4.91c-3.36-2.21-7.23-3.51-11.27-3.51c-1.93,0-3.7,0.24-5.28,0.58c-1.88-2.3-4.74-3.72-7.87-3.72
					c-1.82,0-3.22,0.49-3.77,0.7c-1.29,0.46-2.14,1.03-3.62,2.02c-0.48,0.32-1.39,0.93-2.1,1.38c-2.7-1.35-5.69-2.09-8.61-2.09
					c-2.34,0-4.73,0.57-7.15,1.38c-1.42-0.68-3.01-1.06-4.69-1.06c-0.08,0-0.16,0.01-0.23,0.02c2.2-1.95,3.82-4.22,4.7-6.09
					l0.14-0.3c0.09-0.22,0.16-0.44,0.24-0.66c0.18-0.01,0.35-0.01,0.5-0.03c4.08-0.3,8.25-1.53,11.9-3.59
					c2.84,2.21,6.47,3.5,10.54,3.5c2.52,0,4.63-0.44,6.39-1.12c2.11,0.85,4.1,1.12,5.76,1.12c1.6,0,3.44-0.24,5.33-0.96
					c1.67,0.6,3.61,0.96,5.88,0.96c1.95,0,3.82-0.44,5.59-1.3c1.56,0.91,3.38,1.42,5.33,1.42c0.29,0,0.61-0.01,0.85-0.03
					c2.15-0.16,4.32-0.58,6.43-1.23c-0.04,1.53,0.26,2.95,0.75,4.14c0.64,1.55,1.63,2.87,2.86,3.89c-0.69,0.14-1.39,0.32-2.1,0.58
					C926.45,77.7,924.8,77.35,922.94,77.35z"/>
				<path class="st108" d="M261.64,79.96c-1.79-1.27-3.95-2.01-6.3-2.01c-1.97,0-3.94,0.54-5.65,1.56c-0.68,0.4-1.32,0.79-1.93,1.16
					c-0.52,0.32-0.98,0.59-1.42,0.85c-3.44-1.98-7.98-3.11-13.2-3.11c-2.95,0-5.78,0.43-8.42,1.24c-1.64-1.07-3.59-1.68-5.67-1.68
					c-0.93,0-1.81,0.11-2.94,0.3c-1,0.07-3.94,0.19-4.52,0.19h-9.63l-1.75,1.72c-1.85-1.42-4.13-2.24-6.61-2.24
					c-1.97,0-3.94,0.54-5.65,1.56c-0.68,0.4-1.32,0.79-1.93,1.16c-1.01,0.61-1.83,1.11-2.63,1.52c-0.65-0.45-1.33-0.87-2.03-1.26
					c-3.91-2.14-7.97-3.23-12.08-3.23c-3.75,0-7.42,0.94-10.8,2.7l-0.01-6.42l-13.21,4.52c-0.36,0.12-0.85,0.27-1.44,0.45
					c-8.2,2.53-29.96,9.26-29.96,26.87c0,14.86,16.35,22.77,28.14,22.77c5.68,0,9.1-2.23,10.74-3.3l0.05-0.03l1.09-0.45
					c3.88,2.2,8.67,3.49,13.52,3.49c5.17,0,9.99-1.45,14-4.13c0.27,0.47,0.57,0.92,0.92,1.35l3.03,3.67l4.73,0
					c3.41,0,5.68-1.66,6.69-2.51c0.11-0.08,0.23-0.16,0.34-0.23l3.58-1.95c2.06,0.5,4.05,0.68,5.83,0.68
					c11.34,0,18.96-7.93,18.96-19.74c0-0.44-0.03-0.87-0.05-1.31c0.38-0.23,0.74-0.47,1.09-0.74c0.72-0.56,1.41-0.98,2.03-1.28
					v15.03c0,0.12-0.01,0.3-0.02,0.46c-0.42,2.87,0.36,5.73,2.17,7.93l3.03,3.67l4.73,0c3.34,0,5.58-1.59,6.62-2.46l2.03,2.46h4.73
					c3.41,0,5.68-1.66,6.69-2.51c0.11-0.08,0.23-0.16,0.34-0.23l0.41-0.22c2.02,0.85,4.4,1.47,7.1,1.47c3.22,0,7.04-1.04,10.59-2.92
					c0.17,0.25,0.35,0.5,0.54,0.74l3.03,3.67h4.73c3.34,0,5.59-1.59,6.63-2.46l2.03,2.46l4.73,0c3.41,0,5.68-1.66,6.69-2.51
					c0.11-0.08,0.23-0.16,0.34-0.23l3.58-1.95c2.06,0.5,4.05,0.68,5.83,0.68c3.98,0,7.48-0.99,10.38-2.77
					c3.18,3.56,7.73,5.68,13.03,5.68c2.94,0,5.78-0.7,8.39-2.02c2.05,1.2,4.47,2.02,7.29,2.02c1.33,0,3.2-0.2,5.27-1.04
					c2,0.79,3.87,1.04,5.42,1.04c2.86,0,5.4-0.86,7.57-2.19c3.77,1.56,8.31,2.36,13.6,2.36c5.56,0,10.61-1.47,14.79-4.03
					c0.26,0.45,0.55,0.88,0.88,1.29l3.03,3.67l4.73,0c3.41,0,5.68-1.66,6.69-2.51c0.11-0.08,0.23-0.16,0.34-0.23l3.58-1.95
					c2.06,0.5,4.05,0.68,5.83,0.68c11.34,0,18.96-7.93,18.96-19.74c0-0.44-0.03-0.87-0.05-1.31c0.38-0.23,0.74-0.47,1.09-0.74
					c0.72-0.56,1.41-0.98,2.03-1.28v15.03c0,0.12-0.01,0.3-0.02,0.46c-0.42,2.87,0.36,5.73,2.17,7.93l3.03,3.67l4.73,0
					c3.41,0,5.68-1.66,6.69-2.51c0.11-0.08,0.23-0.16,0.34-0.23l7.93-4.33v-6.66c2.44,7.7,9.39,12.69,18.56,12.69
					c6.65,0,12.63-2.95,17.02-5.96c0.38,1.2,0.97,2.34,1.79,3.33l3.03,3.67h4.73c3.41,0,5.68-1.66,6.69-2.51
					c0.11-0.08,0.23-0.16,0.34-0.23l0.41-0.22c2.02,0.85,4.4,1.47,7.1,1.47c2.57,0,5.53-0.67,8.43-1.89
					c1.8,2.87,4.95,4.73,8.53,4.73c1.63,0,4.07-0.4,6.43-2.29l0.25-0.2l0.23-0.21c0.82-0.75,2.08-1.47,3.46-1.97l0.19-0.07
					c3.7-1.38,6.24-4.52,6.79-8.42l0.02-0.15c0.21-0.38,1.16-1.73,5.23-4.64c0.56-0.4,1.23-0.83,1.95-1.29
					c2.6-1.69,5.83-3.79,8.44-6.54c1.49-1.58,2.63-3.27,3.44-5.02v17.42c0,0.12-0.01,0.29-0.01,0.45c-0.42,2.88,0.36,5.75,2.18,7.95
					l3.03,3.65l4.72,0c3.01,0,5.13-1.29,6.28-2.18c1.77,1.37,3.99,2.18,6.37,2.18c1.06,0,2.15-0.16,3.24-0.47l0.12-0.03
					c1.82,2.15,4.61,3.67,8.22,3.67c13.47,0,22.88-7.34,22.88-17.84v-8.97c1.7,1.22,3.75,1.92,5.91,1.92h0
					c1.14,0,3.49-0.23,5.77-1.8c0.14,0.01,0.28,0.03,0.42,0.03c2.35,0,4.67-0.81,6.58-2.29c0.72-0.56,1.41-0.98,2.03-1.28v15.03
					c0,0.12-0.01,0.29-0.01,0.45c-0.42,2.88,0.36,5.75,2.18,7.95l3.03,3.65l4.72,0c3.41,0,5.68-1.66,6.69-2.51
					c0.11-0.08,0.23-0.16,0.34-0.23l6.2-3.38c0.37,0.87,0.85,1.69,1.46,2.44l3.03,3.68l4.74,0c2.17,0,3.88-0.67,5.1-1.38
					c1.57,0.41,3.22,0.63,4.9,0.63c9.03,0,18.23-9.4,18.23-18.62c0-9.04-6.37-14.48-13.27-15.79v-0.56
					c0-6.41-4.91-11.86-11.73-13.91c7.25-2.48,13.5-10.19,13.5-17.79c0-9.04-6.37-14.48-13.27-15.79v-1.51
					c0-8.1-7.51-14.69-16.74-14.69c-2.41,0-4.77,0.45-7.02,1.32c-2.85-5.29-9.81-8.67-18.83-8.67c-7.67,0-14.5,2.85-19.32,7.96
					c-1.86-0.55-3.91-0.9-6.16-0.9c-3.71,0-7.14,0.71-10.13,1.98c-0.74-1.22-1.83-2.45-3.44-3.56c-3.78-2.64-10.74-5.7-17.96-5.7
					c-10.03,0-21.62,7.19-22.49,16.65c-0.12-0.24-0.23-0.47-0.33-0.66c-3.05-5.54-8.43-8.98-14.04-8.98c-1.68,0-3.27,0.32-4.75,0.94
					c-0.72,0.3-1.47,0.65-2.23,1.05c-1.69-1.06-3.67-1.67-5.79-1.67c-1.98,0-3.94,0.54-5.65,1.56c-0.49,0.29-0.95,0.57-1.4,0.84
					c-2.66-1.33-5.82-2.1-9.1-2.1c-1.98,0-3.92,0.29-5.8,0.86c-1.52-0.81-3.25-1.26-5.09-1.26c-0.74,0-1.46,0.1-2.18,0.25
					c-3.47-4.86-9.24-8.19-15.49-8.19c-13.1,0-25.99,11.37-29.54,24.61V44.4c0-8.35-8.08-14.65-18.79-14.65
					c-3.13,0-5.84,0.47-8.2,1.21c-1.53-0.87-3.3-1.37-5.16-1.37c-0.93,0-1.81,0.11-2.94,0.3c-1,0.07-3.94,0.19-4.53,0.19h-7.76
					l-0.96,0.88c-1.51-0.79-3.21-1.23-5.03-1.23c-1.97,0-3.94,0.54-5.65,1.56c-0.68,0.4-1.32,0.79-1.93,1.16
					c-0.45,0.27-0.85,0.52-1.24,0.75c-3.27-2.1-7.39-3.39-12.32-3.39c-6.59,0-11.68,2.48-15.34,5.95c-2.81-3.4-6.4-6-12.32-6
					c-1.19,0-3.13,0.16-5.3,0.96c-1.91-0.73-3.74-0.96-5.29-0.96c-1.15,0-2.22,0.1-3.23,0.26c-0.93-0.27-1.9-0.42-2.91-0.42
					c-0.93,0-1.81,0.11-2.94,0.3c-1,0.07-3.94,0.19-4.53,0.19h-7.76l-0.96,0.88c-1.51-0.79-3.21-1.23-5.03-1.23
					c-1.97,0-3.94,0.54-5.65,1.56c-0.42,0.25-0.82,0.49-1.22,0.73c-1.84-1.37-4.07-2.17-6.51-2.17c-1.97,0-3.94,0.54-5.65,1.56
					c-0.33,0.2-0.66,0.39-0.97,0.58c-2.69-1.38-5.92-2.18-9.26-2.18c-1.98,0-3.92,0.29-5.8,0.86c-1.52-0.81-3.25-1.26-5.09-1.26
					c-1.97,0-3.94,0.54-5.65,1.56c-0.68,0.4-1.32,0.79-1.93,1.16c-0.4,0.24-0.77,0.47-1.12,0.68c-3.17-1.92-7.2-3.04-11.71-3.04
					c-3.13,0-5.84,0.47-8.2,1.21c-1.53-0.87-3.3-1.37-5.16-1.37c-0.93,0-1.81,0.11-2.94,0.3c-1,0.07-3.94,0.19-4.53,0.19h-7.76
					l-0.96,0.88c-1.51-0.79-3.21-1.23-5.03-1.23c-1.97,0-3.94,0.54-5.65,1.56c-0.68,0.4-1.32,0.79-1.93,1.16
					c-0.28,0.17-0.54,0.33-0.8,0.48c-0.42-0.27-0.83-0.55-1.27-0.79c-3.25-1.77-6.59-2.66-9.93-2.66c-1.81,0-4.02,0.28-6.4,1.15
					l-0.02-12.64l-13.21,4.52c-0.36,0.12-0.85,0.27-1.44,0.45c-8.2,2.53-29.96,9.26-29.96,26.87c0,14.86,16.35,22.77,28.14,22.77
					c5.68,0,9.1-2.23,10.74-3.3l0.05-0.03l1.22-0.5c2.76,1.4,5.9,2.17,9.16,2.17c3.56,0,7.02-0.95,10.1-2.71l2.94,3.56l4.73,0
					c3.4,0,5.66-1.65,6.68-2.5c2.75,1,5.35,1.24,7.24,1.24c7.61,0,15.29-5.11,16.82-14.91c0.45-0.26,0.88-0.54,1.29-0.86v14.55
					c0,0.12-0.01,0.3-0.01,0.45c-0.42,2.87,0.36,5.73,2.17,7.93l0.41,0.49c-0.44-0.03-0.88-0.06-1.32-0.06
					C267.42,78.13,264.5,78.74,261.64,79.96z M513.87,80.67c-0.23,0.14-0.44,0.27-0.66,0.4c-0.46-0.33-0.93-0.63-1.41-0.92
					c0.7,0.23,1.42,0.39,2.17,0.47C513.94,80.63,513.9,80.65,513.87,80.67z M547.18,80.74c-0.02-0.01-0.04-0.02-0.05-0.03
					c0.08-0.03,0.15-0.05,0.23-0.08c-0.02,0.01-0.04,0.02-0.05,0.03C547.26,80.69,547.22,80.72,547.18,80.74z M683.29,81.25
					c-0.41,0.22-0.8,0.46-1.2,0.71c-0.39-0.25-0.8-0.49-1.22-0.71L683.29,81.25z M634.49,60.19v-2.24c1.06,0.37,2.18,0.56,3.34,0.56
					h0c3.26,0,6.27-1.53,8.32-4.26c0.37-0.51,0.98-1.15,1.21-1.34l0.38-0.31l0.04-0.04c0.54-0.46,1.22-1.12,1.86-2.04
					c0.85-1.22,1.41-2.56,1.69-3.93c0.29-0.18,0.58-0.34,0.85-0.48v15.03c0,0.13-0.01,0.3-0.02,0.46c-0.41,2.86,0.36,5.71,2.16,7.91
					l3.03,3.68l4.74,0c3.4,0,5.67-1.65,6.69-2.51c0.11-0.08,0.23-0.16,0.34-0.23l5.4-2.95v1.7c0,0.13-0.01,0.3-0.02,0.46
					c-0.41,2.86,0.36,5.71,2.16,7.91l2.29,2.78c-3.05-1.24-6.68-1.94-10.76-1.94c-4.86,0-9.38,1.15-13.28,3.29
					c-4.05-2.58-8.66-3.96-13.44-3.96c-7.85,0-13.41,1.97-17.14,4.9c-1.54-0.88-3.38-1.75-5.4-2.48
					C626.65,77.63,634.49,70.49,634.49,60.19z M560.34,67.58c0.77-1.55,4.67-4.56,6.79-6.2c2.73-2.11,5.56-4.29,7.69-6.86
					c1.06-1.27,1.84-2.52,2.43-3.73v10.34c0,0.12-0.01,0.3-0.01,0.45c-0.42,2.86,0.36,5.72,2.16,7.92l3.03,3.68l4.74,0
					c3,0,5.12-1.29,6.28-2.18c1.77,1.37,3.99,2.18,6.37,2.18c0.91,0,1.84-0.12,2.78-0.35c0.39,2.02,1.44,4.01,3.07,5.53
					c-7.79,0.95-15.85,5.84-18.72,12.47c-0.26-1.25-0.68-2.49-1.3-3.69c-2.99-5.8-8.75-9.55-14.67-9.55c-2.33,0-4.54,0.62-6.37,1.76
					c-0.62,0.38-1.46,0.9-2.38,1.46c-1.97-1.79-4.52-2.85-7.35-2.85c-1.66,0-3.3,0.4-4.8,1.12c0.02-0.02,0.04-0.03,0.06-0.05
					l0.43-0.35l0.39-0.39c0.21-0.21,0.79-0.64,2.3-1.19l0.22-0.08C557.56,75.52,560.21,71.85,560.34,67.58z M529.55,70.58
					c0.46,0.04,0.93,0.06,1.42,0.06c0.89,0,1.78-0.05,2.67-0.16c0,0.12-0.01,0.23-0.01,0.35c0,0.34,0,1.05,0.14,1.92
					c0.33,2.1,1.28,3.95,2.63,5.39c-2.93,0.01-5.81,0.62-8.65,1.83c-1.65-1.17-3.61-1.88-5.74-1.99
					C524.04,76.4,527.01,73.78,529.55,70.58z M467.97,78.63l7.93-4.33V59.46c2.44,7.7,9.39,12.69,18.56,12.69
					c3.75,0,7.28-0.94,10.44-2.3c-0.11,1.53,0.12,3.09,0.73,4.56c0.76,1.83,2.01,3.34,3.56,4.43c-2.15-0.87-4.47-1.37-6.86-1.37
					c-13.1,0-25.99,11.37-29.54,24.61v-9.35c0-5.23-3.21-9.47-8.48-11.94c1.57-0.56,2.69-1.4,3.32-1.93
					C467.74,78.78,467.86,78.7,467.97,78.63z M302.08,70.58c0.46,0.04,0.93,0.06,1.42,0.06c2.93,0,5.91-0.57,8.63-1.67l2.01,2.43
					h4.73c3.16,0,5.32-1.41,6.43-2.3l2.22,2.69l4.73,0c3.4,0,5.66-1.65,6.68-2.5c2.75,1,5.35,1.24,7.24,1.24
					c3.12,0,6.25-0.86,8.97-2.55c2.69,1.8,5.98,2.83,9.62,2.83c2.52,0,4.63-0.44,6.39-1.12c2.11,0.85,4.1,1.12,5.76,1.12
					c1.6,0,3.44-0.24,5.33-0.96c1.68,0.6,3.61,0.96,5.87,0.96c1.95,0,3.82-0.44,5.59-1.3c1.56,0.91,3.38,1.42,5.33,1.42
					c0.29,0,0.61-0.01,0.85-0.03c3.78-0.28,7.63-1.35,11.08-3.14c0.09,0.12,0.18,0.25,0.27,0.37l3.03,3.67l4.73,0
					c3.4,0,5.66-1.65,6.68-2.5c2.75,1,5.35,1.24,7.24,1.24c7.61,0,15.29-5.11,16.82-14.91c0.45-0.26,0.88-0.54,1.29-0.86v14.55
					c0,0.12-0.01,0.3-0.01,0.45c-0.42,2.87,0.36,5.73,2.17,7.93l0.62,0.76c-0.42-0.02-0.83-0.04-1.26-0.04
					c-2.95,0-5.78,0.43-8.42,1.24c-1.64-1.07-3.59-1.68-5.67-1.68c-0.93,0-1.81,0.11-2.94,0.3c-1,0.07-3.94,0.19-4.52,0.19h-9.63
					l-1.75,1.72c-1.85-1.42-4.13-2.24-6.61-2.24c-1.97,0-3.94,0.54-5.65,1.56c-0.68,0.4-1.32,0.79-1.93,1.16
					c-1.32,0.8-2.32,1.4-3.37,1.88c-3.45-2.39-7.48-3.8-11.7-3.8c-1.93,0-3.7,0.24-5.28,0.58c-1.88-2.3-4.74-3.72-7.87-3.72
					c-1.82,0-3.22,0.49-3.77,0.7c-1.29,0.46-2.14,1.03-3.62,2.02c-0.67,0.45-2.23,1.5-2.85,1.83c-2.75,1.26-4.79,3.67-5.65,6.56
					c-3.24-5.23-7.36-9.38-14.42-9.38c-1.63,0-3.48,0.23-5.35,0.92c-1.45-0.57-3.1-0.92-4.96-0.92c-2.06,0-4,0.42-5.77,1.11
					c-1-0.32-2.07-0.49-3.17-0.49c-0.93,0-1.81,0.11-2.94,0.3c-1,0.07-3.94,0.19-4.52,0.19h-9.63l-1.75,1.72
					c-1.85-1.42-4.13-2.24-6.61-2.24c-1.97,0-3.94,0.54-5.65,1.56c-0.4,0.23-0.77,0.46-1.14,0.68c-0.65-0.5-1.35-0.93-2.1-1.27
					C295.11,77.63,298.93,74.55,302.08,70.58z"/>
			</g>
		</g>
	</g>
</g>
<g>
	<path class="st149" d="M204.72,60.19c-1.51,0.62-2.8,2.41-6.55,2.41c-6.1,0-18.14-4.14-18.14-12.77
		c0-11.37,20.38-16.41,24.64-17.86L204.72,60.19z M199.79,59.12V35.21c-5.71,2.35-13.38,7.67-13.38,13.5
		C186.4,54.53,193.69,57.56,199.79,59.12z"/>
	<path class="st149" d="M211.94,57.61c-4.2-5.43-1.57-10.98,1.57-14.28c3.3-3.7,7.56-5.21,12.71-2.41c4.54,2.52,6.89,8.9,2.07,15.23
		C222.97,63.16,214.85,61.42,211.94,57.61z M223.65,44.79c-3.25-2.46-7-2.74-8.68-1.01c-2.3,2.41-1.46,7.73,0.62,10.42
		c2.46,3.19,8.12,4.7,10.08,2.8C228.96,53.75,226.61,47.14,223.65,44.79z"/>
	<path class="st149" d="M258.14,52.01c0,5.88-3.53,8.51-7.11,8.51c-8.18,0-8.96-7.06-8.96-4.65v2.91l-3.08,1.68
		c-0.17,0.11-1.29,0.84-1.46,1.01c-0.45,0.39-0.5,0.39-0.45,0.11c0.06-0.17,0.11-1.29,0.11-1.85V46.52c0-1.34-0.39-1.9-1.79-2.18
		c-0.56-0.11-1.57-0.17-2.07-0.17s-0.5-0.28-0.28-0.39c2.58-1.06,4.42-2.35,7-3.86c1.23-0.73,2.02,0.9,2.02,2.3v7.45
		c0,3.98,1.9,6.38,6.72,6.38c2.3,0,5.49-1.06,5.49-5.82c0-4.03-1.46-5.26-3.86-6.61c-0.78-0.45-1.79-0.39-2.24-0.28
		c-0.67,0.17-0.95,0.11-0.9-0.11c0.06-0.11,0.22-0.34,0.5-0.62l2.74-2.52h3.86c0.67,0,5.15-0.17,5.88-0.28
		c1.9-0.34,2.13-0.28,1.51,0.17c-0.39,0.28-2.52,2.41-3.3,3.14l-0.11,0.11h-4.54C251.03,43.22,258.14,44.17,258.14,52.01z"/>
	<path class="st149" d="M275.22,39.75c5.38,0,8.79,2.35,8.79,4.65v23.97l-3.08,1.68c-0.17,0.11-1.29,0.84-1.46,1.01
		c-0.45,0.39-0.5,0.39-0.45,0.11c0.06-0.17,0.11-1.29,0.11-1.85V46.86c0-2.46-2.63-4.2-6.33-4.2c-2.41,0-6.05,1.29-9.8,4.2
		c-0.56,0.45-1.23,0.06-0.84-0.45C263.68,44.45,267.1,39.75,275.22,39.75z"/>
	<path class="st149" d="M290.4,44c-0.56-0.11-1.57-0.17-2.07-0.17s-0.5-0.28-0.28-0.39c2.58-1.06,4.42-2.35,7-3.86
		c1.23-0.73,2.02,0.9,2.02,2.3v2.86c2.3-2.46,5.38-4.93,9.46-4.93c2.91,0,5.32,1.12,6.16,2.13c-0.28,0.17-2.74,2.46-3.14,3.08
		c-1.12-1.12-3.14-2.07-5.94-2.07c-2.74,0-4.31,1.68-6.55,3.92v5.26c2.74-1.51,6.89-4.26,8.62-4.26c3.75,0,7,2.41,7,6.5
		c0,4.54-5.66,6.27-9.18,6.27c-2.97,0-5.15-1.74-6.44-2.3v0.45c0,3.98-8.12,11.26-9.24,11.82c-0.34,0.17-0.62,0-0.28-0.34
		c1.01-0.9,4.65-7.17,4.65-10.75v-0.17v-4.37v-8.79C292.19,44.84,291.8,44.28,290.4,44z M305.01,58.51c2.24,0,2.74-0.17,2.74-2.69
		c0-3.08-2.63-5.15-4.42-5.15c-1.57,0-3.81,2.02-5.77,2.91C299.52,55.93,302.6,58.51,305.01,58.51z"/>
	<path class="st149" d="M317.17,44.45c-0.56-0.11-1.57-0.17-2.07-0.17s-0.5-0.28-0.28-0.39c2.58-1.06,4.42-2.35,7-3.86
		c1.23-0.73,2.02,0.9,2.02,2.3V58.4l-3.08,1.68c-0.17,0.11-1.29,0.84-1.46,1.01c-0.45,0.39-0.5,0.39-0.45,0.11
		c0.06-0.17,0.11-1.29,0.11-1.85V46.64C318.96,45.29,318.56,44.73,317.17,44.45z"/>
	<path class="st149" d="M353.28,52.01c0,5.88-3.53,8.51-7.11,8.51c-8.18,0-8.96-7.06-8.96-4.65v2.91l-3.08,1.68
		c-0.17,0.11-1.29,0.84-1.46,1.01c-0.45,0.39-0.5,0.39-0.45,0.11c0.06-0.17,0.11-1.29,0.11-1.85V46.52c0-1.34-0.39-1.9-1.79-2.18
		c-0.56-0.11-1.57-0.17-2.07-0.17s-0.5-0.28-0.28-0.39c2.58-1.06,4.42-2.35,7-3.86c1.23-0.73,2.02,0.9,2.02,2.3v7.45
		c0,3.98,1.9,6.38,6.72,6.38c2.3,0,5.49-1.06,5.49-5.82c0-4.03-1.46-5.26-3.86-6.61c-0.78-0.45-1.79-0.39-2.24-0.28
		c-0.67,0.17-0.95,0.11-0.9-0.11c0.06-0.11,0.22-0.34,0.5-0.62l2.74-2.52h3.86c0.67,0,5.15-0.17,5.88-0.28
		c1.9-0.34,2.13-0.28,1.51,0.17c-0.39,0.28-2.52,2.41-3.3,3.14l-0.11,0.11h-4.54C346.17,43.22,353.28,44.17,353.28,52.01z"/>
	<path class="st149" d="M358.04,54.36V43c0-1.9,1.46-3.25,5.1-3.25c2.18,0,3.81,1.29,5.38,3.7c0.62-1.18,2.07-3.7,5.21-3.7
		c2.86,0,3.86,0.84,7.62,6.72c3.42,5.26,6.33,11.59,8.4,11.59c1.57,0,2.46-1.68,3.02-2.18c0.34-0.34,0.73,0,0.56,0.34
		c-0.5,0.84-2.86,4.59-5.21,4.59c-2.86,0-4.26-0.95-6.16-3.86c-0.62,1.18-1.9,3.86-5.04,3.86c-2.46,0-4.42-1.68-6.05-3.98
		c-1.01,1.68-1.85,3.98-6.1,3.98C360.68,60.8,358.04,58.12,358.04,54.36z M366.56,58c1.57,0,3.02-1.06,3.86-1.79
		c-1.29-1.85-2.35-3.98-3.36-5.88c-1.46-2.74-2.52-8.18-4.03-8.18c-0.17,0-0.34,0-0.5,0.06v11.48C362.52,56.55,363.76,58,366.56,58z
		 M371.26,48.09c2.02,3.64,5.71,9.97,7.9,9.97c0.9,0,1.79-1.12,2.35-1.74c-1.12-1.74-2.41-4.03-4.26-7.11
		c-2.86-4.98-4.14-6.66-5.82-6.66c-1.06,0-1.74,1.34-2.3,1.85C369.81,45.46,370.48,46.69,371.26,48.09z"/>
	<path class="st149" d="M401.39,39.8c7.62,0,11.42,4.98,11.42,9.97c0,7.73-9.13,10.81-13.66,11.14c-0.67,0.06-0.56-0.39,0-0.62
		c4.42-1.9,7.5-3.75,7.9-8.23h-6.94c-0.67,0-5.15,0.17-5.88,0.28c-1.9,0.34-2.13,0.28-1.51-0.17c0.39-0.28,2.52-2.41,3.3-3.14
		l0.11-0.11h10.86c-0.67-5.15-3.7-7.34-6.66-7.34c-4.03,0-6.61,2.52-6.61,4.37c0,0.45-0.11,0.62-0.28,0.67
		c-1.62,0.56-2.58,1.06-3.47,1.79c-0.28,0.22-0.67,0.45-0.45-0.22C390.13,46.52,393.1,39.8,401.39,39.8z"/>
	<path class="st149" d="M440.03,52.01c0,5.88-3.53,8.51-7.11,8.51c-8.18,0-8.96-7.06-8.96-4.65v2.91l-3.08,1.68
		c-0.17,0.11-1.29,0.84-1.46,1.01c-0.45,0.39-0.5,0.39-0.45,0.11c0.06-0.17,0.11-1.29,0.11-1.85V46.52c0-1.34-0.39-1.9-1.79-2.18
		c-0.56-0.11-1.57-0.17-2.07-0.17s-0.5-0.28-0.28-0.39c2.58-1.06,4.42-2.35,7-3.86c1.23-0.73,2.02,0.9,2.02,2.3v7.45
		c0,3.98,1.9,6.38,6.72,6.38c2.3,0,5.49-1.06,5.49-5.82c0-4.03-1.46-5.26-3.86-6.61c-0.78-0.45-1.79-0.39-2.24-0.28
		c-0.67,0.17-0.95,0.11-0.9-0.11c0.06-0.11,0.22-0.34,0.5-0.62l2.74-2.52h3.86c0.67,0,5.15-0.17,5.88-0.28
		c1.9-0.34,2.13-0.28,1.51,0.17c-0.39,0.28-2.52,2.41-3.3,3.14l-0.11,0.11h-4.54C432.92,43.22,440.03,44.17,440.03,52.01z"/>
	<path class="st149" d="M457.11,39.75c5.38,0,8.79,2.35,8.79,4.65v23.97l-3.08,1.68c-0.17,0.11-1.29,0.84-1.46,1.01
		c-0.45,0.39-0.5,0.39-0.45,0.11c0.06-0.17,0.11-1.29,0.11-1.85V46.86c0-2.46-2.63-4.2-6.33-4.2c-2.41,0-6.05,1.29-9.8,4.2
		c-0.56,0.45-1.23,0.06-0.84-0.45C445.57,44.45,448.99,39.75,457.11,39.75z"/>
	<path class="st149" d="M505.44,31.46c4.31,0,8.85,3.75,8.85,8.34c0,7.22-7.11,13.27-16.91,13.27V35.44l-0.62,0.5
		c-2.69,2.46-6.38,7.62-6.38,12.88c0,4.26,2.13,9.63,8.29,9.63c3.75,0,7.39-1.23,11.59-4.98c0.95-0.84,1.29-1.62,1.46-1.62
		c0.22,0,0.5,0.45-0.39,1.46c-1.62,1.9-9.41,8.85-16.86,8.85c-4.48,0-9.52-1.96-9.52-9.02C484.94,42.32,496.14,31.46,505.44,31.46z
		 M508.8,40.98c0-3.92-2.3-7.67-5.88-7.67h-0.67v17.81C506.78,49.77,508.8,45.74,508.8,40.98z"/>
	<path class="st149" d="M517.87,44c-0.56-0.11-1.57-0.17-2.07-0.17s-0.5-0.28-0.28-0.39c2.58-1.06,4.42-2.35,7-3.86
		c1.23-0.73,2.02,0.9,2.02,2.3v2.86c2.3-2.46,5.38-4.93,9.46-4.93c2.91,0,5.32,1.12,6.16,2.13c-0.28,0.17-2.74,2.46-3.14,3.08
		c-1.12-1.12-3.14-2.07-5.94-2.07c-2.74,0-4.31,1.68-6.55,3.92v5.26c2.74-1.51,6.89-4.26,8.62-4.26c3.75,0,7,2.41,7,6.5
		c0,4.54-5.66,6.27-9.18,6.27c-2.97,0-5.15-1.74-6.44-2.3v0.45c0,3.98-8.12,11.26-9.24,11.82c-0.34,0.17-0.62,0-0.28-0.34
		c1.01-0.9,4.65-7.17,4.65-10.75v-0.17v-4.37v-8.79C519.66,44.84,519.27,44.28,517.87,44z M532.48,58.51c2.24,0,2.74-0.17,2.74-2.69
		c0-3.08-2.63-5.15-4.42-5.15c-1.57,0-3.81,2.02-5.77,2.91C527,55.93,530.08,58.51,532.48,58.51z"/>
	<path class="st149" d="M544.92,44.12c-0.56-0.11-1.57-0.17-2.07-0.17s-0.5-0.28-0.28-0.39c2.58-1.06,4.42-2.35,7-3.86
		c1.23-0.73,2.02,0.9,2.02,2.3v17.25c6.16-5.49,13.38-10.47,11.65-14.22c-0.78-1.68-2.18-2.86-3.58-2.86
		c-1.29,0-2.74,1.46-3.58,1.74c-0.45,0.17-0.67-0.34-0.5-0.5c2.07-1.74,4.59-3.25,6.5-4.03c1.29-0.56,4.31,0.28,6.16,3.64
		c3.86,7.06-17.86,13.38-17.86,24.25c0,0.34-0.17,0.34-0.45,0.45c-2.18,0.78-4.31,1.85-5.99,3.53c-0.28,0.22-0.28,0-0.28-0.39
		c0-2.24,1.23-4.48,3.08-6.72v-0.73V46.3C546.71,44.96,546.32,44.4,544.92,44.12z"/>
	<path class="st149" d="M606.63,53.58c0-4.59-1.74-7.39-4.93-7.39c-2.46,0-7.28,3.14-9.58,4.59v9.41l-3.08,1.68
		c-0.17,0.11-1.29,0.84-1.46,1.01c-0.45,0.39-0.5,0.39-0.45,0.11c0.06-0.17,0.11-1.29,0.11-1.85V39.97c0-3.19,6.38-7.78,12.54-7.78
		c4.98,0,10.02,2.35,12.26,3.92c1.06,0.73,0.5,0.78,0.22,1.01c-1.01,0.73-2.58,2.35-3.3,3.36c-0.45,0.62-0.56,0.78-0.95,0.22
		c-1.57-2.18-5.66-5.77-9.74-5.77c-4.03,0-6.16,1.57-6.16,4.76v8.74c2.52-0.95,7.56-5.04,10.47-5.04c5.26,0,9.97,3.53,9.97,8.62
		c0,6.38-8.18,9.86-12.26,11.09c-0.78,0.22-0.95-0.06-0.56-0.28C602.09,61.53,606.63,58.96,606.63,53.58z"/>
	<path class="st149" d="M631.32,39.47c5.15,0,8.96,3.53,10.14,4.98c0.22,0.28-0.28,0.56-0.45,0.73c-0.95,0.78-2.13,2.07-2.91,3.14
		c-0.17,0.22-0.34,0.28-0.5,0c-1.12-2.24-4.37-7.06-7.95-7.06c-3.3,0-5.15,2.69-5.15,6.33v12.6c0,7.28-8.01,10.98-11.42,10.98
		c-0.95,0-0.73-0.39-0.28-0.5c3.42-0.95,6.83-4.82,6.83-9.02v-14C619.62,43,624.49,39.47,631.32,39.47z M619.62,59.18h-0.06H619.62z
		"/>
	<path class="st149" d="M656.8,32.41c5.82,0,10.25,2.02,10.25,4.31v23.46l-3.08,1.68c-0.17,0.11-1.29,0.84-1.46,1.01
		c-0.45,0.39-0.5,0.39-0.45,0.11c0.06-0.17,0.11-1.29,0.11-1.85v-21c0-3.42-4.59-4.82-7.5-4.82c-2.97,0-7.06,1.34-10.7,4.2
		c-0.5,0.39-1.01,0-0.67-0.5C644.6,37.12,648.46,32.41,656.8,32.41z"/>
	<path class="st149" d="M689.4,44.45v15.62c0,0,4.93-4.42,6.72-4.42c2.52,0,6.55,1.34,6.55,6.1c0,3.64-4.82,8.62-8.23,8.62
		c-2.07,0-4.03-0.67-5.43-1.9l-2.69,1.46c-0.17,0.11-1.29,0.84-1.46,1.01c-0.45,0.39-0.5,0.39-0.45,0.11
		c0.06-0.17,0.11-1.29,0.11-1.85V47.14c0-6.22-6.89-4.82-10.53-1.79c-1.06,0.9-0.84,0-0.45-0.5C680.6,36,689.4,40.59,689.4,44.45z
		 M695.22,68.64c1.68,0,2.86-1.23,2.86-3.3c0-5.88-3.64-6.83-4.54-6.16l-4.14,2.97v0.45C689.4,65.34,694.21,68.64,695.22,68.64z"/>
	<path class="st149" d="M732.85,27.65c-2.13,2.18-3.58,8.12-3.58,18.87c0,14.67,2.69,17.3,3.86,18.98c1.23,1.74,0.11,1.34-1.62-0.11
		c-4.14-3.53-6.78-9.07-6.78-18.48c0-13.66,5.54-18.98,7.78-19.99C733.47,26.48,733.64,26.87,732.85,27.65z"/>
	<path class="st149" d="M739.35,59.01c-0.28-0.28,0.11-0.39,0.67-0.73c0.34-0.22,2.24-1.62,2.74-2.13c0.17-0.17,0.5-0.73,1.12-0.22
		c2.3,1.85,5.49,4.31,9.97,4.31c4.93,0,8.06-4.14,8.4-11.93h-13.16c-0.67,0-5.15,0.17-5.88,0.28c-1.9,0.34-2.13,0.28-1.51-0.17
		c0.39-0.28,2.52-2.41,3.3-3.14l0.11-0.11h14.11l2.8-0.11c-0.84-4.09-3.81-9.91-8.18-9.91c-4.59,0-8.18,3.7-12.77,3.7
		c-4.37,0-4.26-3.08-4.26-5.04c0-0.34,0.11-0.5,0.28-0.56c1.62-0.73,5.32-3.42,5.66-3.53c0.17-0.06,0.5-0.22,0.56,0
		c0.06,0.22-1.85,1.18-1.85,3.02c0,2.02,1.06,2.8,2.58,2.8c3.53,0,7.28-2.8,12.26-2.8c6.05,0,12.38,6.5,12.38,14.06
		c0,9.52-7.78,15.46-16.69,15.46C747.19,62.26,742.37,61.48,739.35,59.01z"/>
	<path class="st149" d="M795.07,39.52c0.9-0.34,1.85,0.34,1.85,1.96c0,2.97-5.1,5.71-10.19,8.4c2.35,3.81,4.65,7.22,6.61,7.22
		c2.18,0,2.58-0.62,3.02-1.01c0.17-0.17,0.5,0.17,0.39,0.34c-0.5,0.84-3.58,4.26-5.82,4.26c-2.8,0-5.77-4.2-8.46-8.51
		c-2.86,1.62-5.15,3.25-5.66,4.93c-0.34,1.06,0.06,2.07,0.9,2.58c0.22,0.17,0.22,0.34,0,0.34c-1.18,0-3.92,0.84-4.82,1.18
		c-0.67-0.28-1.4-0.84-1.4-2.24c0-3.3,4.93-5.94,9.97-8.46c-2.41-3.92-4.54-7.45-6.1-7.45c-1.18,0-2.69,0.95-3.25,1.57
		c-0.34,0.34-0.78,0.22-0.56-0.22c0.39-1.06,3.81-4.7,6.1-4.7c2.58,0,5.38,4.26,8.06,8.57c3.25-1.85,5.88-3.7,6.1-5.82
		c0.11-1.12-0.67-1.18-1.06-1.18c-0.5,0-0.45-0.28,0.11-0.39C791.76,40.7,794.34,39.69,795.07,39.52z"/>
	<path class="st149" d="M811.48,39.75c5.38,0,8.79,2.35,8.79,4.65v23.97l-3.08,1.68c-0.17,0.11-1.29,0.84-1.46,1.01
		c-0.45,0.39-0.5,0.39-0.45,0.11c0.06-0.17,0.11-1.29,0.11-1.85V46.86c0-2.46-2.63-4.2-6.33-4.2c-2.41,0-6.05,1.29-9.8,4.2
		c-0.56,0.45-1.23,0.06-0.84-0.45C799.94,44.45,803.35,39.75,811.48,39.75z"/>
	<path class="st149" d="M826.99,44.17c-0.56-0.11-1.57-0.17-2.07-0.17s-0.5-0.28-0.28-0.39c2.58-1.06,4.42-2.35,7-3.86
		c1.23-0.73,2.02,0.9,2.02,2.3v2.18c2.24-2.52,6.44-4.7,8.9-4.7c2.69,0,7.11,2.52,7.11,6.55c0,3.08-2.52,5.43-5.66,6.33V62.6
		c0,5.04,1.4,6.89,3.7,6.89c1.62,0,3.19-0.95,4.31-2.3c0.28-0.34,0.62,0.06,0.45,0.45c-0.84,1.79-3.64,4.7-6.33,4.7
		c-4.42,0-7-2.86-7-8.51v-11.2l-0.9-0.22c-0.73-0.22-0.95-0.73,0-0.9c1.23-0.22,5.71-0.5,5.71-4.65c0-2.58-1.57-4.82-4.42-4.82
		c-1.85,0-4.65,2.35-5.88,3.86V58.4l-3.08,1.68c-0.17,0.11-1.29,0.84-1.46,1.01c-0.45,0.39-0.5,0.39-0.45,0.11
		c0.06-0.17,0.11-1.29,0.11-1.85V46.36C828.78,45.01,828.39,44.45,826.99,44.17z"/>
	<path class="st149" d="M863.89,39.8c7.62,0,11.42,4.98,11.42,9.97c0,7.73-9.13,10.81-13.66,11.14c-0.67,0.06-0.56-0.39,0-0.62
		c4.42-1.9,7.5-3.75,7.9-8.23h-6.94c-0.67,0-5.15,0.17-5.88,0.28c-1.9,0.34-2.13,0.28-1.51-0.17c0.39-0.28,2.52-2.41,3.3-3.14
		l0.11-0.11h10.86c-0.67-5.15-3.7-7.34-6.66-7.34c-4.03,0-6.61,2.52-6.61,4.37c0,0.45-0.11,0.62-0.28,0.67
		c-1.62,0.56-2.58,1.06-3.47,1.79c-0.28,0.22-0.67,0.45-0.45-0.22C852.64,46.52,855.6,39.8,863.89,39.8z"/>
	<path class="st149" d="M878.11,54.36V43c0-1.9,1.46-3.25,5.1-3.25c2.18,0,3.81,1.29,5.38,3.7c0.62-1.18,2.07-3.7,5.21-3.7
		c2.86,0,3.86,0.84,7.62,6.72c3.42,5.26,6.33,11.59,8.4,11.59c1.57,0,2.46-1.68,3.02-2.18c0.34-0.34,0.73,0,0.56,0.34
		c-0.5,0.84-2.86,4.59-5.21,4.59c-2.86,0-4.26-0.95-6.16-3.86c-0.62,1.18-1.9,3.86-5.04,3.86c-2.46,0-4.42-1.68-6.05-3.98
		c-1.01,1.68-1.85,3.98-6.1,3.98C880.75,60.8,878.11,58.12,878.11,54.36z M886.63,58c1.57,0,3.02-1.06,3.86-1.79
		c-1.29-1.85-2.35-3.98-3.36-5.88c-1.46-2.74-2.52-8.18-4.03-8.18c-0.17,0-0.34,0-0.5,0.06v11.48C882.6,56.55,883.83,58,886.63,58z
		 M891.33,48.09c2.02,3.64,5.71,9.97,7.9,9.97c0.9,0,1.79-1.12,2.35-1.74c-1.12-1.74-2.41-4.03-4.26-7.11
		c-2.86-4.98-4.14-6.66-5.82-6.66c-1.06,0-1.74,1.34-2.3,1.85C889.88,45.46,890.55,46.69,891.33,48.09z"/>
	<path class="st149" d="M921.46,39.8c7.62,0,11.42,4.98,11.42,9.97c0,7.73-9.13,10.81-13.66,11.14c-0.67,0.06-0.56-0.39,0-0.62
		c4.42-1.9,7.5-3.75,7.9-8.23h-6.94c-0.67,0-5.15,0.17-5.88,0.28c-1.9,0.34-2.13,0.28-1.51-0.17c0.39-0.28,2.52-2.41,3.3-3.14
		l0.11-0.11h10.86c-0.67-5.15-3.7-7.34-6.66-7.34c-4.03,0-6.61,2.52-6.61,4.37c0,0.45-0.11,0.62-0.28,0.67
		c-1.62,0.56-2.58,1.06-3.47,1.79c-0.28,0.22-0.67,0.45-0.45-0.22C910.2,46.52,913.17,39.8,921.46,39.8z"/>
	<path class="st149" d="M936.86,69.15c2.13-2.18,3.58-8.12,3.58-18.87c0-14.67-2.69-17.3-3.86-18.98c-1.23-1.74-0.11-1.34,1.62,0.11
		c4.14,3.53,6.78,9.07,6.78,18.48c0,13.66-5.54,18.98-7.78,19.99C936.24,70.32,936.07,69.93,936.86,69.15z"/>
	<path class="st149" d="M148.52,116.19c-1.51,0.62-2.8,2.41-6.55,2.41c-6.1,0-18.14-4.14-18.14-12.77
		c0-11.37,20.38-16.41,24.64-17.86L148.52,116.19z M143.6,115.12V91.21c-5.71,2.35-13.38,7.67-13.38,13.5
		C130.21,110.53,137.49,113.56,143.6,115.12z"/>
	<path class="st149" d="M155.86,113.72c-5.43-7-2.24-15.85,2.3-20.55c4.82-5.38,11.42-7.28,18.37-3.47
		c7.11,3.92,9.52,13.22,2.97,22.57C172.99,121.51,159.67,118.6,155.86,113.72z M173.55,94.85c-4.42-3.42-11.48-3.81-13.89-1.23
		c-3.7,3.98-2.52,11.65,0.9,16.13c4.31,5.6,12.77,6.22,15.51,3.53C181.45,108.01,178.76,98.88,173.55,94.85z"/>
	<path class="st149" d="M206.93,92.16c0.5,0.22,8.51,2.8,8.51,13.27c0,3.53-0.95,9.74-8.96,9.74c-10.81,0-11.48-10.36-11.48-5.82
		v6.83l-3.08,1.68c-0.17,0.11-1.29,0.84-1.46,1.01c-0.45,0.39-0.5,0.39-0.45,0.11c0.06-0.17,0.11-1.29,0.11-1.85v-22.4
		c0-1.34-0.39-1.9-1.79-2.18c-0.56-0.11-1.57-0.17-2.07-0.17s-0.5-0.28-0.28-0.39c2.58-1.06,4.42-2.35,7-3.86
		c1.23-0.73,2.02,0.9,2.02,2.3v9.3c0,6.38,3.75,10.14,9.02,10.14c2.8,0,6.94-1.62,6.94-7.39c0-4.54-3.14-7.78-5.15-9.07
		c-0.95-0.62-2.24-0.67-2.8-0.5c-1.29,0.39-1.57,0.06-0.5-0.95l0.34-0.34l3.19-3.14h5.54c0.67,0,5.15-0.17,5.88-0.28
		c1.9-0.34,2.13-0.28,1.51,0.17c-0.39,0.28-2.52,2.41-3.3,3.14l-0.11,0.11h-7.9C206.2,91.6,206.43,91.94,206.93,92.16z M202.84,91.6
		h-0.06H202.84z"/>
	<path class="st149" d="M233.14,88.41c5.82,0,10.25,2.02,10.25,4.31v23.46l-3.08,1.68c-0.17,0.11-1.29,0.84-1.46,1.01
		c-0.45,0.39-0.5,0.39-0.45,0.11c0.06-0.17,0.11-1.29,0.11-1.85v-21c0-3.42-4.59-4.82-7.5-4.82c-2.97,0-7.06,1.34-10.7,4.2
		c-0.5,0.39-1.01,0-0.67-0.5C220.93,93.12,224.79,88.41,233.14,88.41z"/>
	<path class="st149" d="M250.11,92.56c-0.56-0.11-1.57-0.17-2.07-0.17s-0.5-0.28-0.28-0.39c2.58-1.06,4.42-2.35,7-3.86
		c1.23-0.73,2.02,0.9,2.02,2.3v5.6c3.08-3.47,7.9-7.9,13.61-7.9c3.47,0,6.16,1.29,7.67,2.52c0.34,0.28,0,0.28-0.22,0.39
		c-1.01,0.56-2.46,2.13-3.42,3.42c-0.06,0.11-0.22,0.28-0.45,0.11c-1.51-1.34-3.98-2.52-7.28-2.52c-3.86,0-6.55,2.3-9.91,5.54v7.17
		c3.19-1.4,9.8-5.77,12.32-5.77c4.7,0,9.41,4.48,9.41,9.24c0,5.04-7.73,9.46-12.15,9.46c-4.48,0-7.95-4.26-9.35-4.26h-0.22v2.74
		l-3.08,1.68c-0.17,0.11-1.29,0.84-1.46,1.01c-0.45,0.39-0.5,0.39-0.45,0.11c0.06-0.17,0.11-1.29,0.11-1.85v-22.4
		C251.9,93.4,251.51,92.84,250.11,92.56z M267.52,114.45c4.87,0,6.16-2.24,4.2-6.89c-1.01-2.35-3.3-5.04-5.66-5.04
		c-1.85,0-6.1,2.91-8.96,4.14C259.68,109.69,263.77,114.45,267.52,114.45z"/>
	<path class="st149" d="M283.54,92.56c-0.56-0.11-1.57-0.17-2.07-0.17s-0.5-0.28-0.28-0.39c2.58-1.06,4.42-2.35,7-3.86
		c1.23-0.73,2.02,0.9,2.02,2.3v25.76l-3.08,1.68c-0.17,0.11-1.29,0.84-1.46,1.01c-0.45,0.39-0.5,0.39-0.45,0.11
		c0.06-0.17,0.11-1.29,0.11-1.85v-22.4C285.33,93.4,284.94,92.84,283.54,92.56z"/>
	<path class="st149" d="M315.51,92.16c0.5,0.22,8.51,2.8,8.51,13.27c0,3.53-0.95,9.74-8.96,9.74c-10.81,0-11.48-10.36-11.48-5.82
		v6.83l-3.08,1.68c-0.17,0.11-1.29,0.84-1.46,1.01c-0.45,0.39-0.5,0.39-0.45,0.11c0.06-0.17,0.11-1.29,0.11-1.85v-22.4
		c0-1.34-0.39-1.9-1.79-2.18c-0.56-0.11-1.57-0.17-2.07-0.17s-0.5-0.28-0.28-0.39c2.58-1.06,4.42-2.35,7-3.86
		c1.23-0.73,2.02,0.9,2.02,2.3v9.3c0,6.38,3.75,10.14,9.02,10.14c2.8,0,6.94-1.62,6.94-7.39c0-4.54-3.14-7.78-5.15-9.07
		c-0.95-0.62-2.24-0.67-2.8-0.5c-1.29,0.39-1.57,0.06-0.5-0.95l0.34-0.34l3.19-3.14h5.54c0.67,0,5.15-0.17,5.88-0.28
		c1.9-0.34,2.13-0.28,1.51,0.17c-0.39,0.28-2.52,2.41-3.3,3.14l-0.11,0.11h-7.9C314.78,91.6,315.01,91.94,315.51,92.16z
		 M311.43,91.6h-0.06H311.43z"/>
	<path class="st149" d="M330.63,108.96V92.11c0-1.34,2.35-4.76,5.94-4.76c2.02,0,3.36,1.46,5.1,4.26c0.78-1.57,1.62-4.26,5.21-4.26
		c3.81,0,5.77,3.98,9.3,10.86c3.53,6.89,7.28,15.62,10.75,15.62c1.79,0,2.8-0.62,3.42-1.12c0.39-0.34,0.67-0.22,0.45,0.28
		c-0.56,1.29-2.74,5.1-5.94,5.1c-2.02,0-3.86-1.34-5.54-3.58c-1.06,1.57-2.86,3.58-5.15,3.58c-2.52,0-4.82-2.58-6.83-5.77
		c-1.57,2.52-4.59,5.77-8.85,5.77C333.71,118.09,330.63,114.56,330.63,108.96z M341.05,113.89c2.91,0,4.87-1.23,5.88-2.13
		c-1.34-2.13-2.52-4.42-3.53-6.33c-4.14-7.73-6.5-12.15-8.23-13.61v16.24C335.17,112.21,337.75,113.89,341.05,113.89z M346.2,99.67
		c3.08,5.43,7.5,14.17,10.02,14.17c0.95,0,1.74-0.17,2.3-0.45c-2.13-3.08-4.2-7.5-6.55-12.43c-2.58-5.38-5.38-9.69-7.34-9.69
		c-1.23,0-1.9,0.39-2.52,1.06C343.23,94.24,344.52,96.7,346.2,99.67z"/>
	<path class="st149" d="M373.36,115.01c-0.28-0.28,0.11-0.39,0.67-0.73c0.34-0.22,2.24-1.62,2.74-2.13c0.17-0.17,0.5-0.73,1.12-0.22
		c2.3,1.85,5.49,4.31,9.97,4.31c4.93,0,8.06-4.14,8.4-11.93H383.1c-0.67,0-5.15,0.17-5.88,0.28c-1.9,0.34-2.13,0.28-1.51-0.17
		c0.39-0.28,2.52-2.41,3.3-3.14l0.11-0.11h14.11l2.8-0.11c-0.84-4.09-3.81-9.91-8.18-9.91c-4.59,0-8.18,3.7-12.77,3.7
		c-4.37,0-4.26-3.08-4.26-5.04c0-0.34,0.11-0.5,0.28-0.56c1.62-0.73,5.32-3.42,5.66-3.53c0.17-0.06,0.5-0.22,0.56,0
		c0.06,0.22-1.85,1.18-1.85,3.02c0,2.02,1.06,2.8,2.58,2.8c3.53,0,7.28-2.8,12.26-2.8c6.05,0,12.38,6.5,12.38,14.06
		c0,9.52-7.78,15.46-16.69,15.46C381.2,118.26,376.38,117.48,373.36,115.01z"/>
	<path class="st149" d="M426.34,92.16c0.5,0.22,8.51,2.8,8.51,13.27c0,3.53-0.95,9.74-8.96,9.74c-10.81,0-11.48-10.36-11.48-5.82
		v6.83l-3.08,1.68c-0.17,0.11-1.29,0.84-1.46,1.01c-0.45,0.39-0.5,0.39-0.45,0.11c0.06-0.17,0.11-1.29,0.11-1.85v-22.4
		c0-1.34-0.39-1.9-1.79-2.18c-0.56-0.11-1.57-0.17-2.07-0.17s-0.5-0.28-0.28-0.39c2.58-1.06,4.42-2.35,7-3.86
		c1.23-0.73,2.02,0.9,2.02,2.3v9.3c0,6.38,3.75,10.14,9.02,10.14c2.8,0,6.94-1.62,6.94-7.39c0-4.54-3.14-7.78-5.15-9.07
		c-0.95-0.62-2.24-0.67-2.8-0.5c-1.29,0.39-1.57,0.06-0.5-0.95l0.34-0.34l3.19-3.14h5.54c0.67,0,5.15-0.17,5.88-0.28
		c1.9-0.34,2.13-0.28,1.51,0.17c-0.39,0.28-2.52,2.41-3.3,3.14l-0.11,0.11h-7.9C425.61,91.6,425.83,91.94,426.34,92.16z
		 M422.25,91.6h-0.06H422.25z"/>
	<path class="st149" d="M452.55,88.41c5.82,0,10.25,2.02,10.25,4.31v23.46l-3.08,1.68c-0.17,0.11-1.29,0.84-1.46,1.01
		c-0.45,0.39-0.5,0.39-0.45,0.11c0.06-0.17,0.11-1.29,0.11-1.85v-21c0-3.42-4.59-4.82-7.5-4.82c-2.97,0-7.06,1.34-10.7,4.2
		c-0.5,0.39-1.01,0-0.67-0.5C440.34,93.12,444.2,88.41,452.55,88.41z"/>
	<path class="st149" d="M502.33,87.46c4.31,0,8.85,3.75,8.85,8.34c0,7.22-7.11,13.27-16.91,13.27V91.44l-0.62,0.5
		c-2.69,2.46-6.38,7.62-6.38,12.88c0,4.26,2.13,9.63,8.29,9.63c3.75,0,7.39-1.23,11.59-4.98c0.95-0.84,1.29-1.62,1.46-1.62
		c0.22,0,0.5,0.45-0.39,1.46c-1.62,1.9-9.41,8.85-16.86,8.85c-4.48,0-9.52-1.96-9.52-9.02C481.83,98.32,493.03,87.46,502.33,87.46z
		 M505.69,96.98c0-3.92-2.3-7.67-5.88-7.67h-0.67v17.81C503.67,105.77,505.69,101.74,505.69,96.98z"/>
	<path class="st149" d="M516.22,92.56c-0.56-0.11-1.57-0.17-2.07-0.17s-0.5-0.28-0.28-0.39c2.58-1.06,4.42-2.35,7-3.86
		c1.23-0.73,2.02,0.9,2.02,2.3v5.6c3.08-3.47,7.9-7.9,13.61-7.9c3.47,0,6.16,1.29,7.67,2.52c0.34,0.28,0,0.28-0.22,0.39
		c-1.01,0.56-2.46,2.13-3.42,3.42c-0.06,0.11-0.22,0.28-0.45,0.11c-1.51-1.34-3.98-2.52-7.28-2.52c-3.86,0-6.55,2.3-9.91,5.54v7.17
		c3.19-1.4,9.8-5.77,12.32-5.77c4.7,0,9.41,4.48,9.41,9.24c0,5.04-7.73,9.46-12.15,9.46c-4.48,0-7.95-4.26-9.35-4.26h-0.22v2.74
		l-3.08,1.68c-0.17,0.11-1.29,0.84-1.46,1.01c-0.45,0.39-0.5,0.39-0.45,0.11c0.06-0.17,0.11-1.29,0.11-1.85v-22.4
		C518.01,93.4,517.62,92.84,516.22,92.56z M533.63,114.45c4.87,0,6.16-2.24,4.2-6.89c-1.01-2.35-3.3-5.04-5.66-5.04
		c-1.85,0-6.1,2.91-8.96,4.14C525.79,109.69,529.88,114.45,533.63,114.45z"/>
	<path class="st149" d="M549.65,92.56c-0.56-0.11-1.57-0.17-2.07-0.17s-0.5-0.28-0.28-0.39c2.58-1.06,4.42-2.35,7-3.86
		c1.23-0.73,2.02,0.9,2.02,2.3v19.32c4.48-4.14,9.69-7.78,11.14-8.74c3.75-2.52,4.98-4.87,3.75-7.22c-0.9-1.74-2.46-2.91-4.03-2.91
		c-1.4,0-4.03,1.57-4.42,1.57c-0.28,0-0.34-0.22-0.11-0.34c2.41-1.29,5.32-3.08,7.22-4.26c1.34-0.84,5.04,0.28,6.89,3.86
		c2.69,5.21-6.44,9.8-10.53,12.71c-5.71,4.09-8.9,7.45-9.35,11.54c-0.06,0.39-0.22,0.39-0.5,0.5c-2.46,0.9-4.87,2.24-6.78,3.98
		c-0.28,0.22-0.28,0-0.28-0.39c0-1.51,0.84-3.25,2.13-5.04V94.74C551.44,93.4,551.05,92.84,549.65,92.56z"/>
	<path class="st149" d="M615.22,109.58c0-4.59-1.74-7.39-4.93-7.39c-2.46,0-7.28,3.14-9.58,4.59v9.41l-3.08,1.68
		c-0.17,0.11-1.29,0.84-1.46,1.01c-0.45,0.39-0.5,0.39-0.45,0.11c0.06-0.17,0.11-1.29,0.11-1.85V95.97c0-3.19,6.38-7.78,12.54-7.78
		c4.98,0,10.02,2.35,12.26,3.92c1.06,0.73,0.5,0.78,0.22,1.01c-1.01,0.73-2.58,2.35-3.3,3.36c-0.45,0.62-0.56,0.78-0.95,0.22
		c-1.57-2.18-5.66-5.77-9.74-5.77c-4.03,0-6.16,1.57-6.16,4.76v8.74c2.52-0.95,7.56-5.04,10.47-5.04c5.26,0,9.97,3.53,9.97,8.62
		c0,6.38-8.18,9.86-12.26,11.09c-0.78,0.22-0.95-0.06-0.56-0.28C610.69,117.53,615.22,114.96,615.22,109.58z"/>
	<path class="st149" d="M668.2,88.41c5.82,0,10.25,2.02,10.25,4.31v23.46l-3.08,1.68c-0.17,0.11-1.29,0.84-1.46,1.01
		c-0.45,0.39-0.5,0.39-0.45,0.11c0.06-0.17,0.11-1.29,0.11-1.85v-21c0-3.42-4.59-4.82-7.5-4.82c-2.97,0-7.06,1.34-10.7,4.2
		c-0.5,0.39-1.01,0-0.67-0.5C655.99,93.12,659.85,88.41,668.2,88.41z"/>
	<path class="st149" d="M750.74,115.01c-0.28-0.28,0.11-0.39,0.67-0.73c0.34-0.22,2.24-1.62,2.74-2.13c0.17-0.17,0.5-0.73,1.12-0.22
		c2.3,1.85,5.49,4.31,9.97,4.31c4.93,0,8.06-4.14,8.4-11.93h-13.16c-0.67,0-5.15,0.17-5.88,0.28c-1.9,0.34-2.13,0.28-1.51-0.17
		c0.39-0.28,2.52-2.41,3.3-3.14l0.11-0.11h14.11l2.8-0.11c-0.84-4.09-3.81-9.91-8.18-9.91c-4.59,0-8.18,3.7-12.77,3.7
		c-4.37,0-4.26-3.08-4.26-5.04c0-0.34,0.11-0.5,0.28-0.56c1.62-0.73,5.32-3.42,5.66-3.53c0.17-0.06,0.5-0.22,0.56,0
		c0.06,0.22-1.85,1.18-1.85,3.02c0,2.02,1.06,2.8,2.58,2.8c3.53,0,7.28-2.8,12.26-2.8c6.05,0,12.38,6.5,12.38,14.06
		c0,9.52-7.78,15.46-16.69,15.46C758.58,118.26,753.77,117.48,750.74,115.01z"/>
	<path class="st149" d="M816.15,87.85c1.29-0.39,2.46,0.06,2.46,2.46c0,3.36-4.82,6.89-14.67,12.21
		c4.82,5.94,9.13,11.76,11.59,11.76c1.34,0,2.13-0.56,2.69-1.12c0.34-0.28,0.62-0.17,0.45,0.17c-0.73,1.29-2.91,4.76-5.49,4.76
		c-2.91,0-5.71-3.81-13.55-13.1c-5.43,3.42-7.78,6.27-8.79,8.23c-0.95,1.9,0,2.63,1.4,3.42c0.39,0.22,0.39,0.45,0,0.45
		c-1.68,0-5.54,1.23-6.83,1.74c-0.9-0.45-1.96-1.23-1.96-3.25c0-2.74,6.72-6.94,15.18-11.76l-2.18-2.58c-1.68-1.9-7-9.58-10.02-9.58
		c-1.23,0-1.9,0.78-2.35,1.46c-0.34,0.56-0.62,0.39-0.34-0.34c0.62-1.51,3.25-4.65,5.71-4.65c3.42,0,8.18,6.61,12.54,11.93
		l1.01,1.23c8.12-5.1,8.51-7.9,8.62-9.24c0.11-1.62-1.06-1.96-1.68-1.96c-0.73,0-0.62-0.39,0.17-0.56
		C811.33,89.25,815.03,88.19,816.15,87.85z"/>
	<path class="st149" d="M834.85,88.41c5.82,0,10.25,2.02,10.25,4.31v23.46l-3.08,1.68c-0.17,0.11-1.29,0.84-1.46,1.01
		c-0.45,0.39-0.5,0.39-0.45,0.11c0.06-0.17,0.11-1.29,0.11-1.85v-21c0-3.42-4.59-4.82-7.5-4.82c-2.97,0-7.06,1.34-10.7,4.2
		c-0.5,0.39-1.01,0-0.67-0.5C822.65,93.12,826.51,88.41,834.85,88.41z"/>
	<path class="st149" d="M851.82,92.56c-0.56-0.11-1.57-0.17-2.07-0.17s-0.5-0.28-0.28-0.39c2.58-1.06,4.42-2.35,7-3.86
		c1.23-0.73,2.02,0.9,2.02,2.3v0.17l0.5,0.06c0.9,0,6.83-3.02,9.91-3.02c3.08,0,8.12,2.13,8.12,6.78c0,4.09-2.91,7.11-7.17,7.78
		v12.43c2.52-0.73,5.38-1.85,6.94-2.35c0.62-0.22,0.62,0,0.28,0.39c-1.62,1.85-9.74,5.49-12.1,5.49v-16.18l-1.01-0.28
		c-0.5-0.17-0.5-0.34-0.11-0.45c1.46-0.39,7.34-2.13,7.34-6.05s-2.52-5.26-5.15-5.26c-2.13,0-6.16,3.36-7.56,5.21v21.06l-3.08,1.68
		c-0.17,0.11-1.29,0.84-1.46,1.01c-0.45,0.39-0.5,0.39-0.45,0.11c0.06-0.17,0.11-1.29,0.11-1.85v-22.4
		C853.61,93.4,853.22,92.84,851.82,92.56z"/>
	<path class="st149" d="M883.18,115.01c-0.28-0.28,0.11-0.39,0.67-0.73c0.34-0.22,2.24-1.62,2.74-2.13c0.17-0.17,0.5-0.73,1.12-0.22
		c2.3,1.85,5.49,4.31,9.97,4.31c4.93,0,8.06-4.14,8.4-11.93h-13.16c-0.67,0-5.15,0.17-5.88,0.28c-1.9,0.34-2.13,0.28-1.51-0.17
		c0.39-0.28,2.52-2.41,3.3-3.14l0.11-0.11h14.11l2.8-0.11c-0.84-4.09-3.81-9.91-8.18-9.91c-4.59,0-8.18,3.7-12.77,3.7
		c-4.37,0-4.26-3.08-4.26-5.04c0-0.34,0.11-0.5,0.28-0.56c1.62-0.73,5.32-3.42,5.66-3.53c0.17-0.06,0.5-0.22,0.56,0
		c0.06,0.22-1.85,1.18-1.85,3.02c0,2.02,1.06,2.8,2.58,2.8c3.53,0,7.28-2.8,12.26-2.8c6.05,0,12.38,6.5,12.38,14.06
		c0,9.52-7.78,15.46-16.69,15.46C891.02,118.26,886.21,117.48,883.18,115.01z"/>
	<path class="st149" d="M917.01,108.96V92.11c0-1.34,2.35-4.76,5.94-4.76c2.02,0,3.36,1.46,5.1,4.26c0.78-1.57,1.62-4.26,5.21-4.26
		c3.81,0,5.77,3.98,9.3,10.86c3.53,6.89,7.28,15.62,10.75,15.62c1.79,0,2.8-0.62,3.42-1.12c0.39-0.34,0.67-0.22,0.45,0.28
		c-0.56,1.29-2.74,5.1-5.94,5.1c-2.02,0-3.86-1.34-5.54-3.58c-1.06,1.57-2.86,3.58-5.15,3.58c-2.52,0-4.82-2.58-6.83-5.77
		c-1.57,2.52-4.59,5.77-8.85,5.77C920.09,118.09,917.01,114.56,917.01,108.96z M927.42,113.89c2.91,0,4.87-1.23,5.88-2.13
		c-1.34-2.13-2.52-4.42-3.53-6.33c-4.14-7.73-6.5-12.15-8.23-13.61v16.24C921.54,112.21,924.12,113.89,927.42,113.89z M932.57,99.67
		c3.08,5.43,7.5,14.17,10.02,14.17c0.95,0,1.74-0.17,2.3-0.45c-2.13-3.08-4.2-7.5-6.55-12.43c-2.58-5.38-5.38-9.69-7.34-9.69
		c-1.23,0-1.9,0.39-2.52,1.06C929.61,94.24,930.89,96.7,932.57,99.67z"/>
	<path class="st149" d="M959.73,115.01c-0.28-0.28,0.11-0.39,0.67-0.73c0.34-0.22,2.24-1.62,2.74-2.13c0.17-0.17,0.5-0.73,1.12-0.22
		c2.3,1.85,5.49,4.31,9.97,4.31c4.93,0,8.06-4.14,8.4-11.93h-13.16c-0.67,0-5.15,0.17-5.88,0.28c-1.9,0.34-2.13,0.28-1.51-0.17
		c0.39-0.28,2.52-2.41,3.3-3.14l0.11-0.11h14.11l2.8-0.11c-0.84-4.09-3.81-9.91-8.18-9.91c-4.59,0-8.18,3.7-12.77,3.7
		c-4.37,0-4.26-3.08-4.26-5.04c0-0.34,0.11-0.5,0.28-0.56c1.62-0.73,5.32-3.42,5.66-3.53c0.17-0.06,0.5-0.22,0.56,0
		c0.06,0.22-1.85,1.18-1.85,3.02c0,2.02,1.06,2.8,2.58,2.8c3.53,0,7.28-2.8,12.26-2.8c6.05,0,12.38,6.5,12.38,14.06
		c0,9.52-7.78,15.46-16.69,15.46C967.57,118.26,962.76,117.48,959.73,115.01z"/>
	<g>
		<linearGradient id="SVGID_1_" gradientUnits="userSpaceOnUse" x1="612.6997" y1="105.0441" x2="1009.907" y2="105.0441">
			<stop  offset="0" style="stop-color:#4C5FBF"/>
			<stop  offset="0.3" style="stop-color:#4889D1"/>
			<stop  offset="0.5" style="stop-color:#47AADD"/>
			<stop  offset="1" style="stop-color:#FE9934"/>
		</linearGradient>
		<path class="st0" d="M641.49,87.74c5.99,0,9.8,3.47,11.42,5.21c0.22,0.22,0.06,0.34-0.11,0.45c-1.29,0.73-2.86,2.58-3.7,3.75
			c-0.22,0.34-0.39,0.45-0.56,0.06c-1.06-2.35-4.26-6.94-9.58-6.94c-2.63,0-6.1,1.62-6.1,5.26v18.98c0,6.72-9.46,7.84-12.88,7.84
			c-0.95,0-0.73-0.39-0.28-0.5c3.42-0.95,8.29-4.37,8.29-7.34V95.58C627.99,90.32,633.42,87.74,641.49,87.74z M627.99,112.94h-0.06
			H627.99z"/>
		
			<linearGradient id="SVGID_00000108990510245611240130000000608273616539452065_" gradientUnits="userSpaceOnUse" x1="612.6997" y1="103.928" x2="1009.907" y2="103.928">
			<stop  offset="0" style="stop-color:#4C5FBF"/>
			<stop  offset="0.3" style="stop-color:#4889D1"/>
			<stop  offset="0.5" style="stop-color:#47AADD"/>
			<stop  offset="1" style="stop-color:#FE9934"/>
		</linearGradient>
		<path style="fill:url(#SVGID_00000108990510245611240130000000608273616539452065_);" d="M700.9,93.45v14.67
			c0,0,4.93-4.42,6.72-4.42c2.52,0,6.55,1.34,6.55,6.1c0,3.64-4.82,8.62-8.23,8.62c-2.13,0-4.14-0.73-5.54-1.96l-2.58,1.4
			c-0.17,0.11-1.29,0.84-1.46,1.01c-0.45,0.39-0.5,0.39-0.45,0.11c0.06-0.17,0.11-1.29,0.11-1.85v-21c0-6.22-7-5.94-11.65-1.79
			c-1.06,0.95-0.84,0-0.45-0.5C690.15,85,700.9,89.31,700.9,93.45z M706.73,116.69c1.68,0,2.86-1.23,2.86-3.3
			c0-5.88-3.64-6.83-4.54-6.16l-4.14,2.97v0.45C700.9,113.39,705.72,116.69,706.73,116.69z"/>
		
			<linearGradient id="SVGID_00000168075289797402237090000006450924938210825365_" gradientUnits="userSpaceOnUse" x1="612.6997" y1="102.6958" x2="1009.907" y2="102.6958">
			<stop  offset="0" style="stop-color:#4C5FBF"/>
			<stop  offset="0.3" style="stop-color:#4889D1"/>
			<stop  offset="0.5" style="stop-color:#47AADD"/>
			<stop  offset="1" style="stop-color:#FE9934"/>
		</linearGradient>
		<path style="fill:url(#SVGID_00000168075289797402237090000006450924938210825365_);" d="M744.25,83.65
			c-2.13,2.18-3.58,8.12-3.58,18.87c0,14.67,2.69,17.3,3.86,18.98c1.23,1.74,0.11,1.34-1.62-0.11c-4.14-3.53-6.78-9.07-6.78-18.48
			c0-13.66,5.54-18.98,7.78-19.99C744.86,82.48,745.03,82.87,744.25,83.65z"/>
		
			<linearGradient id="SVGID_00000157308086073421867090000004983881382243028138_" gradientUnits="userSpaceOnUse" x1="612.6997" y1="103.3042" x2="1009.907" y2="103.3042">
			<stop  offset="0" style="stop-color:#4C5FBF"/>
			<stop  offset="0.3" style="stop-color:#4889D1"/>
			<stop  offset="0.5" style="stop-color:#47AADD"/>
			<stop  offset="1" style="stop-color:#FE9934"/>
		</linearGradient>
		<path style="fill:url(#SVGID_00000157308086073421867090000004983881382243028138_);" d="M993.05,122.35
			c2.13-2.18,3.58-8.12,3.58-18.87c0-14.67-2.69-17.3-3.86-18.98c-1.23-1.74-0.11-1.34,1.62,0.11c4.14,3.53,6.78,9.07,6.78,18.48
			c0,13.66-5.54,18.98-7.78,19.99C992.44,123.52,992.27,123.13,993.05,122.35z"/>
	</g>
</g>
</svg>
