<?xml version="1.0" encoding="utf-8"?>
<!-- Generator: Adobe Illustrator 25.4.1, SVG Export Plug-In . SVG Version: 6.00 Build 0)  -->
<svg version="1.1" id="图层_4" xmlns="http://www.w3.org/2000/svg" xmlns:xlink="http://www.w3.org/1999/xlink" x="0px" y="0px"
	 viewBox="0 0 1125 150" style="enable-background:new 0 0 1125 150;" xml:space="preserve">
<style type="text/css">
	.st0{fill:url(#SVGID_1_);}
	.st1{fill:url(#SVGID_00000051350298956578662620000007774794029049879949_);}
	.st2{fill:url(#SVGID_00000055704032596875980670000011040600547682104448_);}
	.st3{fill:url(#SVGID_00000093177792109726990640000000359221394074302085_);}
	.st4{fill:url(#SVGID_00000013181208733704096620000014044139644851009950_);}
	.st5{fill:url(#SVGID_00000158735423783743773050000000947460484909590945_);}
	.st6{fill:url(#SVGID_00000144303042060962846070000008577119001690856078_);}
	.st7{fill:url(#SVGID_00000011013780198058158080000008018266730491119257_);}
	.st8{fill:url(#SVGID_00000067948340154103268240000006019159928624530049_);}
	.st9{fill:url(#SVGID_00000087412960068029576050000000740750702041442178_);}
	.st10{fill:url(#SVGID_00000118398695165216875590000011674425789839292831_);}
	.st11{fill:url(#SVGID_00000145035662194721709840000014960310746886284193_);}
	.st12{fill:url(#SVGID_00000176756907684112990620000008618051185030041506_);}
	.st13{fill:url(#SVGID_00000048480361039446494690000007099810893180901006_);}
	.st14{fill:url(#SVGID_00000122694067376553651050000016421917586239153337_);}
	.st15{fill:url(#SVGID_00000127025664246563596930000008017631410309515149_);}
	.st16{fill:url(#SVGID_00000172420540379703007090000005973722520016802946_);}
	.st17{fill:url(#SVGID_00000096054009228437521180000017822048819916270766_);}
	.st18{fill:url(#SVGID_00000172413100478746470630000009837370326834748561_);}
	.st19{fill:url(#SVGID_00000168081268551518029810000003692836888086138770_);}
	.st20{fill:url(#SVGID_00000127034194323798275730000007563727866165402541_);}
	.st21{fill:url(#SVGID_00000090252599507266706620000002215663805378596778_);}
	.st22{fill:url(#SVGID_00000039820515462824958750000005815435528540917679_);}
	.st23{fill:url(#SVGID_00000152958842893925791980000004905373513801694391_);}
	.st24{fill:url(#SVGID_00000181058986286823919140000005417556309755473569_);}
	.st25{fill:url(#SVGID_00000031930272764275603280000012071749300222539946_);}
	.st26{fill:url(#SVGID_00000149361829389949762640000009565334941486488968_);}
	.st27{fill:url(#SVGID_00000090270681813179566830000011061893054719209141_);}
	.st28{fill:url(#SVGID_00000038400519821754162770000014315351143088567202_);}
	.st29{fill:url(#SVGID_00000041271377378983775660000006895989422299157153_);}
	.st30{fill:url(#SVGID_00000159429574694079700400000007491518793804558001_);}
	.st31{fill:url(#SVGID_00000115497438277637964360000014457067753832474498_);}
	.st32{fill:url(#SVGID_00000035488797991413168050000013797231103827587252_);}
	.st33{fill:url(#SVGID_00000016041412837601477370000005364560681333653429_);}
	.st34{fill:url(#SVGID_00000022537981703588219990000005680764739436463490_);}
	.st35{fill:url(#SVGID_00000034769845856834084080000016276259561102920578_);}
	.st36{fill:url(#SVGID_00000103985350850822373640000000263767433616885681_);}
	.st37{fill:url(#SVGID_00000178166827035046462890000015715184255075804062_);}
	.st38{fill:url(#SVGID_00000011711766085838739290000003846892605057484220_);}
	.st39{fill:url(#SVGID_00000062906617337942383050000011041219301627828914_);}
	.st40{fill:url(#SVGID_00000060022685699651550270000014379402972642067379_);}
	.st41{fill:url(#SVGID_00000031179653940432183740000002421423260252587663_);}
	.st42{fill:url(#SVGID_00000078730221987257334940000011137589125306260103_);}
	.st43{fill:url(#SVGID_00000025406293319972018600000016900925562207921033_);}
	.st44{fill:url(#SVGID_00000075143736823035633830000018431131274039831430_);}
	.st45{fill:url(#SVGID_00000021798062510251644750000003479802473331248540_);}
	.st46{fill:url(#SVGID_00000132780709325117997080000017834783823964657063_);}
	.st47{fill:url(#SVGID_00000026854346101974674240000014762383526689774241_);}
	.st48{fill:url(#SVGID_00000180335181542409485240000004874641398274099338_);}
	.st49{fill:url(#SVGID_00000024722075821422357350000012024434450791818429_);}
	.st50{fill:url(#SVGID_00000069393362699552244080000002092576715718802066_);}
	.st51{fill:url(#SVGID_00000155119318748302249540000014491195019857357983_);}
	.st52{fill:url(#SVGID_00000073002042357742239940000015014558572387375787_);}
	.st53{fill:url(#SVGID_00000167395971150297206270000017620959129578711710_);}
	.st54{fill:url(#SVGID_00000025428990357402757150000006690873295798448310_);}
	.st55{fill:url(#SVGID_00000003065536443985126110000017540200798492215435_);}
	.st56{fill:url(#SVGID_00000148645417848404269790000011756105844142288284_);}
	.st57{fill:url(#SVGID_00000142863490531713700570000017039870482938889912_);}
	.st58{fill:url(#SVGID_00000067227215867751738450000011300034032056294325_);}
	.st59{fill:url(#SVGID_00000093863266740215779710000010093421403041276318_);}
	.st60{fill:url(#SVGID_00000026144555562612901010000003407367429604674723_);}
	.st61{fill:url(#SVGID_00000049906841657114171680000002630002434107533464_);}
	.st62{fill:url(#SVGID_00000096049566081499464600000001396735466000654517_);}
	.st63{fill:url(#SVGID_00000042720192716989714610000015680853510648903829_);}
	.st64{fill:url(#SVGID_00000061446218130356587900000004784125185853186688_);}
	.st65{fill:url(#SVGID_00000072255670800734347960000018321645235263287947_);}
	.st66{fill:url(#SVGID_00000176033222188889739110000003668326877497722546_);}
	.st67{fill:url(#SVGID_00000026848754099478728340000003200096093487033785_);}
	.st68{fill:url(#SVGID_00000058552327024088505700000015686486910224561075_);}
	.st69{fill:url(#SVGID_00000099623068357552961730000004112700570712759960_);}
	.st70{fill:url(#SVGID_00000075148520889773957370000001288092483950734996_);}
	.st71{fill:url(#SVGID_00000119818691218733550610000014379344065996633242_);}
	.st72{fill:url(#SVGID_00000180360925246446131250000009117585746547633584_);}
	.st73{fill:url(#SVGID_00000120528122616982151980000000322771452871575708_);}
	.st74{fill:url(#SVGID_00000011742077052025547910000010844492764182566789_);}
	.st75{fill:url(#SVGID_00000147937151702040610690000015777026211212133508_);}
	.st76{fill:url(#SVGID_00000012443504374665858470000002088654080723434144_);}
	.st77{fill:url(#SVGID_00000178177160891457779680000010485716209984470937_);}
	.st78{fill:url(#SVGID_00000019647902035097631010000016593892105450941360_);}
	.st79{fill:url(#SVGID_00000039849722144426917220000017005824209520888501_);}
	.st80{fill:url(#SVGID_00000025408021734406829670000009588489862834697123_);}
	.st81{fill:url(#SVGID_00000018951521763524482180000011404777600234292920_);}
	.st82{fill:url(#SVGID_00000085934155865868082960000000426814447574082215_);}
	.st83{fill:url(#SVGID_00000049938635054329382800000010595605142509884054_);}
	.st84{fill:url(#SVGID_00000114055583976001923930000010206541579436614806_);}
	.st85{fill:url(#SVGID_00000011007861604070329390000010568238886223319684_);}
	.st86{fill:url(#SVGID_00000170244070232843289280000006989321823821395872_);}
	.st87{fill:url(#SVGID_00000095296457053686392540000002471874323548345496_);}
	.st88{fill:url(#SVGID_00000161616084001888853420000016100368007091396237_);}
	.st89{fill:url(#SVGID_00000031888643498907046590000007434799923766369718_);}
	.st90{fill:url(#SVGID_00000017505735002926009730000006111605222398036099_);}
	.st91{fill:url(#SVGID_00000165210306916109101650000017028643878363324298_);}
	.st92{fill:url(#SVGID_00000048495242821874657990000017774309456553598369_);}
	.st93{fill:url(#SVGID_00000145736907499719698730000011357513250854159279_);}
	.st94{fill:url(#SVGID_00000152955515382964256950000002193392615772151439_);}
	.st95{fill:url(#SVGID_00000077289383226903364070000012664547429162938815_);}
	.st96{fill:url(#SVGID_00000066505546651037077720000018297813942289874847_);}
	.st97{fill:url(#SVGID_00000056418848790907531020000015043426688382985373_);}
	.st98{fill:url(#SVGID_00000147932017184984234030000008359566149456583816_);}
	.st99{fill:url(#SVGID_00000016768421282295849320000018422120143149917607_);}
	.st100{fill:url(#SVGID_00000008133915698978123000000000644234833164237456_);}
	.st101{fill:url(#SVGID_00000180354550110335091070000007119138145953175183_);}
	.st102{fill:url(#SVGID_00000134959635433817042520000005468329275161738399_);}
	.st103{fill:url(#SVGID_00000163044058107864468900000011405481492121771954_);}
	.st104{fill:url(#SVGID_00000008848010342055488600000017528522397537353621_);}
	.st105{fill:url(#SVGID_00000069377168803822433540000008846675036690655420_);}
	.st106{fill:url(#SVGID_00000098181866164360323200000018029849681790855827_);}
	.st107{fill:url(#SVGID_00000177463742478357149870000010469941299390004151_);}
	.st108{fill:#FFFFFF;}
	.st109{fill:url(#SVGID_00000028298724913416207310000008833819568150639237_);}
	.st110{fill:url(#SVGID_00000130616690173753822650000012065696021519431846_);}
	.st111{fill:url(#SVGID_00000168808012499482461740000000204817965470059174_);}
	.st112{fill:url(#SVGID_00000015355773284924241190000002436395293514256543_);}
	.st113{fill:url(#SVGID_00000062907955330454513930000017040974171776296093_);}
	.st114{fill:url(#SVGID_00000170959941230936948560000014094444162712602550_);}
	.st115{fill:url(#SVGID_00000041282184215730101720000006802968090161452203_);}
	.st116{fill:url(#SVGID_00000126293573797859598380000016028381602670080669_);}
	.st117{fill:url(#SVGID_00000051360504020347612390000011347910823593992377_);}
	.st118{fill:url(#SVGID_00000073718652049192645020000003846115812705717175_);}
	.st119{fill:url(#SVGID_00000143574802509606302440000007103993176614796187_);}
	.st120{fill:url(#SVGID_00000179629398109642431230000012813769690539818125_);}
	.st121{fill:url(#SVGID_00000168798874242898473160000015724792055254812556_);}
	.st122{fill:url(#SVGID_00000183968688969854405820000007072309532349256120_);}
	.st123{fill:url(#SVGID_00000021822221972490008680000005486569552045639306_);}
	.st124{fill:url(#SVGID_00000003803777199245650880000017655511666898749576_);}
	.st125{fill:url(#SVGID_00000132064878911548552100000010223581898169129890_);}
	.st126{fill:url(#SVGID_00000067223627531196254290000009195133128944490393_);}
	.st127{fill:url(#SVGID_00000098927753999662355080000001364314039272237463_);}
	.st128{fill:url(#SVGID_00000005259802711341591970000010802140029603533977_);}
	.st129{fill:url(#SVGID_00000173121103278430482990000006137613677099251120_);}
	.st130{fill:url(#SVGID_00000067232298840450016780000008820534847888725168_);}
	.st131{fill:url(#SVGID_00000131346815909760904400000008197827634325908368_);}
	.st132{fill:url(#SVGID_00000080178640637976628920000007716986761799563171_);}
	.st133{fill:url(#SVGID_00000163778292428068595990000013597048563019088007_);}
	.st134{fill:url(#SVGID_00000006665612138444324780000002727572222572289679_);}
	.st135{fill:url(#SVGID_00000149364597984409249590000003471403810075920571_);}
	.st136{fill:url(#SVGID_00000068656360718977269960000015389139765739902121_);}
	.st137{fill:url(#SVGID_00000026143271690198510990000017383256164581409699_);}
	.st138{fill:url(#SVGID_00000006668949092716512590000005242606852405602987_);}
	.st139{fill:url(#SVGID_00000134928550843166833580000007066092716640485250_);}
	.st140{fill:url(#SVGID_00000090992200191246058960000007448269492844903597_);}
	.st141{fill:url(#SVGID_00000118368865650433287310000003804922967003536061_);}
	.st142{fill:url(#SVGID_00000046328380471046612820000015661299095320914864_);}
	.st143{fill:url(#SVGID_00000075884285115797875000000009321623931010854018_);}
	.st144{fill:url(#SVGID_00000102521342952964320210000000464416488633902241_);}
	.st145{fill:url(#SVGID_00000174603066985090278160000015508719144289440902_);}
	.st146{fill:url(#SVGID_00000172426033470268668450000004485725133410772868_);}
	.st147{fill:url(#SVGID_00000027587268625226089980000006921623230830184837_);}
	.st148{fill:url(#SVGID_00000051366239017085909880000017805632657491097473_);}
	.st149{fill:#1A1A1A;}
	.st150{fill:url(#SVGID_00000158734234917419847020000017559129261309401231_);}
	.st151{fill:url(#SVGID_00000026871732238336013100000005306247350748297875_);}
	.st152{fill:url(#SVGID_00000003783898408694932130000001236361740498462649_);}
	.st153{fill:url(#SVGID_00000094594806579158391460000000593894545781647801_);}
	.st154{fill:url(#SVGID_00000126299504335627191440000014690251132463216271_);}
	.st155{fill:url(#SVGID_00000045602109788113532050000004769998623565873071_);}
	.st156{fill:url(#SVGID_00000144340294463685017160000003035760420024652179_);}
	.st157{fill:url(#SVGID_00000178904249128749803290000005872000995452960396_);}
	.st158{fill:url(#SVGID_00000181068518446134148950000010837611238894791563_);}
	.st159{fill:url(#SVGID_00000147921174091468564140000012580492940671092405_);}
	.st160{fill:url(#SVGID_00000057110597446517584580000001388481760562036653_);}
	.st161{fill:url(#SVGID_00000090994370897971957040000018260043130609083048_);}
	.st162{fill:url(#SVGID_00000054230243526539640700000018230975504849467010_);}
	.st163{fill:url(#SVGID_00000116949870553107127960000005208102079517326727_);}
	.st164{fill:url(#SVGID_00000063611633010634411960000007399678261655840646_);}
	.st165{fill:url(#SVGID_00000157283320105457939370000012266470542560466573_);}
	.st166{fill:url(#SVGID_00000028313405935103167760000001195792585537636013_);}
	.st167{fill:url(#SVGID_00000101074899790854421050000008628627392611569036_);}
	.st168{fill:url(#SVGID_00000129191289436376349400000016338700485427819156_);}
	.st169{fill:url(#SVGID_00000143616309754014039440000010124636301059248536_);}
	.st170{fill:url(#SVGID_00000091708764292946001020000014925678952289728702_);}
	.st171{fill:url(#SVGID_00000018926453935848814530000017724616426225790108_);}
	.st172{fill:url(#SVGID_00000181075125407624649900000006162950359183143348_);}
	.st173{fill:url(#SVGID_00000016759917828563540200000000668869870653281208_);}
	.st174{fill:url(#SVGID_00000155855522995294723280000004800478996805531532_);}
	.st175{fill:url(#SVGID_00000152971969822770331210000012645270124329960359_);}
	.st176{fill:url(#SVGID_00000026146313111167912200000013499543617824609726_);}
	.st177{fill:url(#SVGID_00000056411308559339053210000015707374908364805767_);}
	.st178{fill:url(#SVGID_00000071523707671795167730000000312179954588585615_);}
	.st179{fill:url(#SVGID_00000113330382036842059300000012298212892198280585_);}
	.st180{fill:url(#SVGID_00000173139618721808896920000007572494305647790012_);}
	.st181{fill:url(#SVGID_00000008859282681181827670000018138826033536257445_);}
	.st182{fill:url(#SVGID_00000033336347363546435340000010127429456731104918_);}
	.st183{fill:url(#SVGID_00000071521637592253588590000013841490624483266216_);}
	.st184{fill:url(#SVGID_00000121995586975573041230000016511374617926568108_);}
	.st185{fill:url(#SVGID_00000110432770029166946150000007645593738271049117_);}
	.st186{fill:url(#SVGID_00000077284620780993924860000004224700782993992847_);}
	.st187{fill:url(#SVGID_00000091008814638020766130000007553240620864158875_);}
	.st188{fill:url(#SVGID_00000041998796008988215280000010955581193472835246_);}
	.st189{fill:url(#SVGID_00000042005319420046536310000011651877939054797204_);}
	.st190{fill:url(#SVGID_00000068639277016819200810000018013950094236667825_);}
	.st191{fill:url(#SVGID_00000111874497750832481910000008588007701217545128_);}
</style>
<g>
	<g>
		<path class="st108" d="M142.06,43.17c0,7.86-7.68,11.04-13.68,11.34v5.58l-3.3,1.8c-0.18,0.12-1.38,0.9-1.56,1.08
			c-0.48,0.42-0.54,0.42-0.48,0.12c0.06-0.18,0.12-1.38,0.12-1.98V45.39l-3.72,0.24c-2.04,0.36-2.28,0.3-1.62-0.18
			c0.42-0.3,2.7-2.58,3.54-3.36l0.12-0.12h4.74c0.72,0,5.52-0.18,6.3-0.3c2.04-0.36,2.28-0.3,1.62,0.18
			c-0.42,0.3-2.7,2.58-3.54,3.36l-0.12,0.12h-2.1v8.16c4.62-1.62,8.1-3.72,8.1-9c0-10.44-10.14-11.76-12.3-9
			c-0.18,0.18-2.04-1.44-2.22-1.62c-0.54-0.54,0.6-1.62,7.32-1.62C137.44,32.25,142.06,37.83,142.06,43.17z"/>
		<path class="st108" d="M161.44,24.57c6.24,0,10.98,2.16,10.98,4.62v21.96c0,5.82,4.74,6.9,7.2,7.44c0.42,0.12,0.3,0.42-0.06,0.42
			c-5.4,0-12.36-0.66-12.36-8.94v-8.58c-7.98,4.38-12.12,7.74-13.02,11.64c-0.48,2.1,0,2.82,1.5,3.66c0.42,0.24,0.42,0.48,0,0.48
			c-1.8,0-5.28,1.32-6.66,1.86c-0.96-0.48-2.1-1.32-2.1-3.48c0-4.8,7.32-9.36,20.28-16.5v-6.3c0-3.66-4.92-5.16-8.04-5.16
			c-3.18,0-7.56,1.44-11.46,4.5c-0.54,0.42-1.08,0-0.72-0.54C148.36,29.61,152.5,24.57,161.44,24.57z"/>
		<path class="st108" d="M186.46,48.15c0.3,0,0.96,0.72,1.86,1.44c1.02,0.72,2.04,0.9,2.04,1.74c0,2.52-2.16,5.76-6.78,8.1
			c-0.72,0.36-0.78-0.18-0.24-0.78c1.68-1.86,3.06-2.94,2.76-4.32c-0.66-0.78-3.66-1.92-3.66-3.18
			C182.44,50.49,185.92,48.15,186.46,48.15z"/>
		<path class="st108" d="M214.12,29.97v15.72c0,0,5.28-4.74,7.2-4.74c2.7,0,7.02,1.44,7.02,6.54c0,3.9-5.16,9.24-8.82,9.24
			c-2.28,0-4.44-0.78-5.94-2.1l-2.76,1.5c-0.18,0.12-1.38,0.9-1.56,1.08c-0.48,0.42-0.54,0.42-0.48,0.12
			c0.06-0.18,0.12-1.38,0.12-1.98v-22.5c0-6.66-7.5-6.36-12.48-1.92c-1.14,1.02-0.9,0-0.48-0.54
			C202.6,20.91,214.12,25.53,214.12,29.97z M220.36,54.87c1.8,0,3.06-1.32,3.06-3.54c0-6.3-3.9-7.32-4.86-6.6l-4.44,3.18v0.48
			C214.12,51.33,219.28,54.87,220.36,54.87z"/>
		<path class="st108" d="M251.32,29.97v15.72c0,0,5.28-4.74,7.2-4.74c2.7,0,7.02,1.44,7.02,6.54c0,3.9-5.16,9.24-8.82,9.24
			c-2.28,0-4.44-0.78-5.94-2.1l-2.76,1.5c-0.18,0.12-1.38,0.9-1.56,1.08c-0.48,0.42-0.54,0.42-0.48,0.12
			c0.06-0.18,0.12-1.38,0.12-1.98V40.59c0-6.66-7.5-6.36-12.48-1.92c-1.14,1.02-0.9,0-0.48-0.54c3.78-5.34,9.06-6.18,12.96-5.16
			v-0.12c0-6.66-7.5-6.36-12.48-1.92c-1.14,1.02-0.9,0-0.48-0.54C239.8,20.91,251.32,25.53,251.32,29.97z M257.56,54.87
			c1.8,0,3.06-1.32,3.06-3.54c0-6.3-3.9-7.32-4.86-6.6l-4.44,3.18v0.48C251.32,51.33,256.48,54.87,257.56,54.87z"/>
		<path class="st108" d="M288.64,29.97v15.72c0,0,5.28-4.74,7.2-4.74c2.7,0,7.02,1.44,7.02,6.54c0,3.9-5.16,9.24-8.82,9.24
			c-2.28,0-4.44-0.78-5.94-2.1l-2.76,1.5c-0.18,0.12-1.38,0.9-1.56,1.08c-0.48,0.42-0.54,0.42-0.48,0.12
			c0.06-0.18,0.12-1.38,0.12-1.98v-6.78c0-6.66-7.5-6.36-12.48-1.92c-1.14,1.02-0.9,0-0.48-0.54c3.78-5.34,9.06-6.18,12.96-5.16
			v-0.36c0-6.66-7.5-6.36-12.48-1.92c-1.14,1.02-0.9,0-0.48-0.54c3.78-5.34,9.06-6.18,12.96-5.16v-0.12c0-6.66-7.5-6.36-12.48-1.92
			c-1.14,1.02-0.9,0-0.48-0.54C277.12,20.91,288.64,25.53,288.64,29.97z M294.88,54.87c1.8,0,3.06-1.32,3.06-3.54
			c0-6.3-3.9-7.32-4.86-6.6l-4.44,3.18v0.48C288.64,51.33,293.8,54.87,294.88,54.87z M288.64,47.91v0.48V47.91z"/>
		<path class="st108" d="M310.06,48.15c0.3,0,0.96,0.72,1.86,1.44c1.02,0.72,2.04,0.9,2.04,1.74c0,2.52-2.16,5.76-6.78,8.1
			c-0.72,0.36-0.78-0.18-0.24-0.78c1.68-1.86,3.06-2.94,2.76-4.32c-0.66-0.78-3.66-1.92-3.66-3.18
			C306.04,50.49,309.52,48.15,310.06,48.15z"/>
		<path class="st108" d="M341.92,23.85c6.42,0,10.5,3.72,12.24,5.58c0.24,0.24,0.06,0.36-0.12,0.48c-1.38,0.78-3.06,2.76-3.96,4.02
			c-0.24,0.36-0.42,0.48-0.6,0.06c-1.14-2.52-4.56-7.44-10.26-7.44c-2.82,0-6.54,1.74-6.54,5.64v20.34c0,7.2-10.14,8.4-13.8,8.4
			c-1.02,0-0.78-0.42-0.3-0.54c3.66-1.02,8.88-4.68,8.88-7.86V32.25C327.46,26.61,333.28,23.85,341.92,23.85z M327.46,50.85h-0.06
			H327.46z"/>
		<path class="st108" d="M373.12,23.85c6.42,0,10.5,3.72,12.24,5.58c0.24,0.24,0.06,0.36-0.12,0.48c-1.38,0.78-3.06,2.76-3.96,4.02
			c-0.24,0.36-0.42,0.48-0.6,0.06c-1.14-2.52-4.56-7.44-10.26-7.44c-2.82,0-6.54,1.74-6.54,5.64v11.16c3.9-2.22,7.2-4.98,7.2-6.12
			c0-0.3-1.38-0.84,0-1.2c1.56-0.42,3.78-1.08,5.1-1.38c1.8-0.42,0.6,2.88-1.86,5.1c-3.06,2.7-6.84,4.5-10.44,5.4v7.38v0.06
			c3.9-2.22,7.2-4.98,7.2-6.12c0-0.3-1.38-0.84,0-1.2c1.56-0.42,3.78-1.08,5.1-1.38c1.8-0.42,0.6,2.88-1.86,5.1
			c-3.12,2.76-7.02,4.62-10.68,5.46c-1.62,5.52-10.26,6.48-13.56,6.48c-1.02,0-0.78-0.42-0.3-0.54c3.66-1.02,8.88-4.68,8.88-7.86
			V32.25C358.66,26.61,364.48,23.85,373.12,23.85z M358.66,50.85h-0.06H358.66z"/>
		<path class="st108" d="M388.72,51.69c-5.82-7.5-2.4-16.98,2.46-22.02c5.16-5.76,12.24-7.8,19.68-3.72
			c7.62,4.2,10.2,14.16,3.18,24.18C407.08,60.03,392.8,56.91,388.72,51.69z M407.68,31.47c-4.74-3.66-12.3-4.08-14.88-1.32
			c-3.66,3.9-2.88,11.16,0.12,16.08c3.78-2.28,6.54-5.04,6.54-6.18c0-0.3-1.38-0.84,0-1.2c2.7-0.54,4.32-0.78,6.72-1.38
			c1.8-0.42,0.66,2.76-1.68,5.1c-2.58,2.52-6.78,4.26-10.5,5.16c4.68,5.7,13.5,6.3,16.38,3.48
			C416.14,45.57,413.26,35.79,407.68,31.47z"/>
		<path class="st108" d="M424.66,48.15c0.3,0,0.96,0.72,1.86,1.44c1.02,0.72,2.04,0.9,2.04,1.74c0,2.52-2.16,5.76-6.78,8.1
			c-0.72,0.36-0.78-0.18-0.24-0.78c1.68-1.86,3.06-2.94,2.76-4.32c-0.66-0.78-3.66-1.92-3.66-3.18
			C420.64,50.49,424.12,48.15,424.66,48.15z"/>
		<path class="st108" d="M452.44,29.97v15.72c0,0,5.28-4.74,7.2-4.74c2.7,0,7.02,1.44,7.02,6.54c0,3.9-5.16,9.24-8.82,9.24
			c-2.28,0-4.44-0.78-5.94-2.1l-2.76,1.5c-0.18,0.12-1.38,0.9-1.56,1.08c-0.48,0.42-0.54,0.42-0.48,0.12
			c0.06-0.18,0.12-1.38,0.12-1.98v-6.78c0-6.66-7.5-6.36-12.48-1.92c-1.14,1.02-0.9,0-0.48-0.54c3.78-5.34,9.06-6.18,12.96-5.16
			v-0.36c0-6.66-7.5-6.36-12.48-1.92c-1.14,1.02-0.9,0-0.48-0.54c3.78-5.34,9.06-6.18,12.96-5.16v-0.12c0-6.66-7.5-6.36-12.48-1.92
			c-1.14,1.02-0.9,0-0.48-0.54C440.92,20.91,452.44,25.53,452.44,29.97z M458.68,54.87c1.8,0,3.06-1.32,3.06-3.54
			c0-6.3-3.9-7.32-4.86-6.6l-4.44,3.18v0.48C452.44,51.33,457.6,54.87,458.68,54.87z M452.44,47.91v0.48V47.91z"/>
		<path class="st108" d="M489.52,29.97v15.72c0,0,5.28-4.74,7.2-4.74c2.7,0,7.02,1.44,7.02,6.54c0,3.9-5.16,9.24-8.82,9.24
			c-2.28,0-4.44-0.78-5.94-2.1l-2.76,1.5c-0.18,0.12-1.38,0.9-1.56,1.08c-0.48,0.42-0.54,0.42-0.48,0.12
			c0.06-0.18,0.12-1.38,0.12-1.98v-22.5c0-6.66-7.5-6.36-12.48-1.92c-1.14,1.02-0.9,0-0.48-0.54
			C478,20.91,489.52,25.53,489.52,29.97z M495.76,54.87c1.8,0,3.06-1.32,3.06-3.54c0-6.3-3.9-7.32-4.86-6.6l-4.44,3.18v0.48
			C489.52,51.33,494.68,54.87,495.76,54.87z"/>
		<path class="st108" d="M535.96,52.77c2.04-0.36,2.28-0.3,1.62,0.18c-0.42,0.3-2.7,2.58-3.54,3.36l-0.12,0.12h-25.5h-0.06h-0.06
			h0.06l0.06-0.06h-0.36l16.74-25.92c2.28-3.48,5.04-4.86,8.58-4.86c2.52,0,5.58,2.64,5.58,6.3c0,5.34-4.02,8.46-6.36,10.62
			c-0.3,0.24-0.66,0.06-0.18-0.72c1.5-2.16,2.94-5.94,0.96-9.06c-1.32-2.1-2.7-2.64-3.96-2.64c-0.9,0-1.74,0.36-3.06,2.4
			L513.1,53.07h16.56C530.38,53.07,535.18,52.89,535.96,52.77z"/>
		<path class="st108" d="M142.66,103.17c0,7.86-7.68,11.04-13.68,11.34v5.58l-3.3,1.8c-0.18,0.12-1.38,0.9-1.56,1.08
			c-0.48,0.42-0.54,0.42-0.48,0.12c0.06-0.18,0.12-1.38,0.12-1.98v-15.72l-3.72,0.24c-2.04,0.36-2.28,0.3-1.62-0.18
			c0.42-0.3,2.7-2.58,3.54-3.36l0.12-0.12h4.74c0.72,0,5.52-0.18,6.3-0.3c2.04-0.36,2.28-0.3,1.62,0.18
			c-0.42,0.3-2.7,2.58-3.54,3.36l-0.12,0.12h-2.1v8.16c4.62-1.62,8.1-3.72,8.1-9c0-10.44-10.14-11.76-12.3-9
			c-0.18,0.18-2.04-1.44-2.22-1.62c-0.54-0.54,0.6-1.62,7.32-1.62C138.04,92.25,142.66,97.83,142.66,103.17z"/>
		<path class="st108" d="M185.26,108.15c0.3,0,0.96,0.72,1.86,1.44c1.02,0.72,2.04,0.9,2.04,1.74c0,2.52-2.16,5.76-6.78,8.1
			c-0.72,0.36-0.78-0.18-0.24-0.78c1.68-1.86,3.06-2.94,2.76-4.32c-0.66-0.78-3.66-1.92-3.66-3.18
			C181.24,110.49,184.72,108.15,185.26,108.15z"/>
		<path class="st108" d="M305.26,108.15c0.3,0,0.96,0.72,1.86,1.44c1.02,0.72,2.04,0.9,2.04,1.74c0,2.52-2.16,5.76-6.78,8.1
			c-0.72,0.36-0.78-0.18-0.24-0.78c1.68-1.86,3.06-2.94,2.76-4.32c-0.66-0.78-3.66-1.92-3.66-3.18
			C301.24,110.49,304.72,108.15,305.26,108.15z"/>
		<path class="st108" d="M425.26,108.15c0.3,0,0.96,0.72,1.86,1.44c1.02,0.72,2.04,0.9,2.04,1.74c0,2.52-2.16,5.76-6.78,8.1
			c-0.72,0.36-0.78-0.18-0.24-0.78c1.68-1.86,3.06-2.94,2.76-4.32c-0.66-0.78-3.66-1.92-3.66-3.18
			C421.24,110.49,424.72,108.15,425.26,108.15z"/>
		<g>
			<path class="st108" d="M162.64,84.57c6.24,0,10.98,2.16,10.98,4.62v21.96c0,5.82,4.74,6.9,7.2,7.44c0.42,0.12,0.3,0.42-0.06,0.42
				c-5.4,0-12.36-0.66-12.36-8.94v-8.58c-7.98,4.38-12.12,7.74-13.02,11.64c-0.48,2.1,0,2.82,1.5,3.66c0.42,0.24,0.42,0.48,0,0.48
				c-1.8,0-5.28,1.32-6.66,1.86c-0.96-0.48-2.1-1.32-2.1-3.48c0-4.8,7.32-9.36,20.28-16.5v-6.3c0-3.66-4.92-5.16-8.04-5.16
				c-3.18,0-7.56,1.44-11.46,4.5c-0.54,0.42-1.08,0-0.72-0.54C149.56,89.61,153.7,84.57,162.64,84.57z"/>
			<path class="st108" d="M212.32,89.97v15.72c0,0,5.28-4.74,7.2-4.74c2.7,0,7.02,1.44,7.02,6.54c0,3.9-5.16,9.24-8.82,9.24
				c-2.28,0-4.44-0.78-5.94-2.1l-2.76,1.5c-0.18,0.12-1.38,0.9-1.56,1.08c-0.48,0.42-0.54,0.42-0.48,0.12
				c0.06-0.18,0.12-1.38,0.12-1.98v-22.5c0-6.66-7.5-6.36-12.48-1.92c-1.14,1.02-0.9,0-0.48-0.54
				C200.8,80.91,212.32,85.53,212.32,89.97z M218.56,114.87c1.8,0,3.06-1.32,3.06-3.54c0-6.3-3.9-7.32-4.86-6.6l-4.44,3.18v0.48
				C212.32,111.33,217.48,114.87,218.56,114.87z"/>
			<path class="st108" d="M248.32,89.97v15.72c0,0,5.28-4.74,7.2-4.74c2.7,0,7.02,1.44,7.02,6.54c0,3.9-5.16,9.24-8.82,9.24
				c-2.28,0-4.44-0.78-5.94-2.1l-2.76,1.5c-0.18,0.12-1.38,0.9-1.56,1.08c-0.48,0.42-0.54,0.42-0.48,0.12
				c0.06-0.18,0.12-1.38,0.12-1.98v-14.76c0-6.66-7.5-6.36-12.48-1.92c-1.14,1.02-0.9,0-0.48-0.54c3.78-5.34,9.06-6.18,12.96-5.16
				v-0.12c0-6.66-7.5-6.36-12.48-1.92c-1.14,1.02-0.9,0-0.48-0.54C236.8,80.91,248.32,85.53,248.32,89.97z M254.56,114.87
				c1.8,0,3.06-1.32,3.06-3.54c0-6.3-3.9-7.32-4.86-6.6l-4.44,3.18v0.48C248.32,111.33,253.48,114.87,254.56,114.87z"/>
			<path class="st108" d="M284.32,89.97v15.72c0,0,5.28-4.74,7.2-4.74c2.7,0,7.02,1.44,7.02,6.54c0,3.9-5.16,9.24-8.82,9.24
				c-2.28,0-4.44-0.78-5.94-2.1l-2.76,1.5c-0.18,0.12-1.38,0.9-1.56,1.08c-0.48,0.42-0.54,0.42-0.48,0.12
				c0.06-0.18,0.12-1.38,0.12-1.98v-6.78c0-6.66-7.5-6.36-12.48-1.92c-1.14,1.02-0.9,0-0.48-0.54c3.78-5.34,9.06-6.18,12.96-5.16
				v-0.36c0-6.66-7.5-6.36-12.48-1.92c-1.14,1.02-0.9,0-0.48-0.54c3.78-5.34,9.06-6.18,12.96-5.16v-0.12c0-6.66-7.5-6.36-12.48-1.92
				c-1.14,1.02-0.9,0-0.48-0.54C272.8,80.91,284.32,85.53,284.32,89.97z M290.56,114.87c1.8,0,3.06-1.32,3.06-3.54
				c0-6.3-3.9-7.32-4.86-6.6l-4.44,3.18v0.48C284.32,111.33,289.48,114.87,290.56,114.87z M284.32,107.91v0.48V107.91z"/>
			<path class="st108" d="M336.1,83.85c6.42,0,10.5,3.72,12.24,5.58c0.24,0.24,0.06,0.36-0.12,0.48c-1.38,0.78-3.06,2.76-3.96,4.02
				c-0.24,0.36-0.42,0.48-0.6,0.06c-1.14-2.52-4.56-7.44-10.26-7.44c-2.82,0-6.54,1.74-6.54,5.64v20.34c0,7.2-10.14,8.4-13.8,8.4
				c-1.02,0-0.78-0.42-0.3-0.54c3.66-1.02,8.88-4.68,8.88-7.86V92.25C321.64,86.61,327.46,83.85,336.1,83.85z M321.64,110.85h-0.06
				H321.64z"/>
			<path class="st108" d="M372.1,83.85c6.42,0,10.5,3.72,12.24,5.58c0.24,0.24,0.06,0.36-0.12,0.48c-1.38,0.78-3.06,2.76-3.96,4.02
				c-0.24,0.36-0.42,0.48-0.6,0.06c-1.14-2.52-4.56-7.44-10.26-7.44c-2.82,0-6.54,1.74-6.54,5.64v11.16c3.9-2.22,7.2-4.98,7.2-6.12
				c0-0.3-1.38-0.84,0-1.2c1.56-0.42,3.78-1.08,5.1-1.38c1.8-0.42,0.6,2.88-1.86,5.1c-3.06,2.7-6.84,4.5-10.44,5.4v7.38v0.06
				c3.9-2.22,7.2-4.98,7.2-6.12c0-0.3-1.38-0.84,0-1.2c1.56-0.42,3.78-1.08,5.1-1.38c1.8-0.42,0.6,2.88-1.86,5.1
				c-3.12,2.76-7.02,4.62-10.68,5.46c-1.62,5.52-10.26,6.48-13.56,6.48c-1.02,0-0.78-0.42-0.3-0.54c3.66-1.02,8.88-4.68,8.88-7.86
				V92.25C357.64,86.61,363.46,83.85,372.1,83.85z M357.64,110.85h-0.06H357.64z"/>
			<path class="st108" d="M389.32,111.69c-5.82-7.5-2.4-16.98,2.46-22.02c5.16-5.76,12.24-7.8,19.68-3.72
				c7.62,4.2,10.2,14.16,3.18,24.18C407.68,120.03,393.4,116.91,389.32,111.69z M408.28,91.47c-4.74-3.66-12.3-4.08-14.88-1.32
				c-3.66,3.9-2.88,11.16,0.12,16.08c3.78-2.28,6.54-5.04,6.54-6.18c0-0.3-1.38-0.84,0-1.2c2.7-0.54,4.32-0.78,6.72-1.38
				c1.8-0.42,0.66,2.76-1.68,5.1c-2.58,2.52-6.78,4.26-10.5,5.16c4.68,5.7,13.5,6.3,16.38,3.48
				C416.74,105.57,413.86,95.79,408.28,91.47z"/>
			<path class="st108" d="M452.32,89.97v15.72c0,0,5.28-4.74,7.2-4.74c2.7,0,7.02,1.44,7.02,6.54c0,3.9-5.16,9.24-8.82,9.24
				c-2.28,0-4.44-0.78-5.94-2.1l-2.76,1.5c-0.18,0.12-1.38,0.9-1.56,1.08c-0.48,0.42-0.54,0.42-0.48,0.12
				c0.06-0.18,0.12-1.38,0.12-1.98v-6.78c0-6.66-7.5-6.36-12.48-1.92c-1.14,1.02-0.9,0-0.48-0.54c3.78-5.34,9.06-6.18,12.96-5.16
				v-0.36c0-6.66-7.5-6.36-12.48-1.92c-1.14,1.02-0.9,0-0.48-0.54c3.78-5.34,9.06-6.18,12.96-5.16v-0.12c0-6.66-7.5-6.36-12.48-1.92
				c-1.14,1.02-0.9,0-0.48-0.54C440.8,80.91,452.32,85.53,452.32,89.97z M458.56,114.87c1.8,0,3.06-1.32,3.06-3.54
				c0-6.3-3.9-7.32-4.86-6.6l-4.44,3.18v0.48C452.32,111.33,457.48,114.87,458.56,114.87z M452.32,107.91v0.48V107.91z"/>
			<path class="st108" d="M488.32,89.97v15.72c0,0,5.28-4.74,7.2-4.74c2.7,0,7.02,1.44,7.02,6.54c0,3.9-5.16,9.24-8.82,9.24
				c-2.28,0-4.44-0.78-5.94-2.1l-2.76,1.5c-0.18,0.12-1.38,0.9-1.56,1.08c-0.48,0.42-0.54,0.42-0.48,0.12
				c0.06-0.18,0.12-1.38,0.12-1.98v-22.5c0-6.66-7.5-6.36-12.48-1.92c-1.14,1.02-0.9,0-0.48-0.54
				C476.8,80.91,488.32,85.53,488.32,89.97z M494.56,114.87c1.8,0,3.06-1.32,3.06-3.54c0-6.3-3.9-7.32-4.86-6.6l-4.44,3.18v0.48
				C488.32,111.33,493.48,114.87,494.56,114.87z"/>
			<path class="st108" d="M534.16,112.77c2.04-0.36,2.28-0.3,1.62,0.18c-0.42,0.3-2.7,2.58-3.54,3.36l-0.12,0.12h-25.5h-0.06h-0.06
				h0.06l0.06-0.06h-0.36L523,90.45c2.28-3.48,5.04-4.86,8.58-4.86c2.52,0,5.58,2.64,5.58,6.3c0,5.34-4.02,8.46-6.36,10.62
				c-0.3,0.24-0.66,0.06-0.18-0.72c1.5-2.16,2.94-5.94,0.96-9.06c-1.32-2.1-2.7-2.64-3.96-2.64c-0.9,0-1.74,0.36-3.06,2.4
				l-13.26,20.58h16.56C528.58,113.07,533.38,112.89,534.16,112.77z"/>
		</g>
	</g>
	<g>
		<path class="st108" d="M630.46,43.17c0,7.86-7.68,11.04-13.68,11.34v5.58l-3.3,1.8c-0.18,0.12-1.38,0.9-1.56,1.08
			c-0.48,0.42-0.54,0.42-0.48,0.12c0.06-0.18,0.12-1.38,0.12-1.98V45.39l-3.72,0.24c-2.04,0.36-2.28,0.3-1.62-0.18
			c0.42-0.3,2.7-2.58,3.54-3.36l0.12-0.12h4.74c0.72,0,5.52-0.18,6.3-0.3c2.04-0.36,2.28-0.3,1.62,0.18
			c-0.42,0.3-2.7,2.58-3.54,3.36l-0.12,0.12h-2.1v8.16c4.62-1.62,8.1-3.72,8.1-9c0-10.44-10.14-11.76-12.3-9
			c-0.18,0.18-2.04-1.44-2.22-1.62c-0.54-0.54,0.6-1.62,7.32-1.62C625.84,32.25,630.46,37.83,630.46,43.17z"/>
		<path class="st108" d="M670.66,48.15c0.3,0,0.96,0.72,1.86,1.44c1.02,0.72,2.04,0.9,2.04,1.74c0,2.52-2.16,5.76-6.78,8.1
			c-0.72,0.36-0.78-0.18-0.24-0.78c1.68-1.86,3.06-2.94,2.76-4.32c-0.66-0.78-3.66-1.92-3.66-3.18
			C666.64,50.49,670.12,48.15,670.66,48.15z"/>
		<path class="st108" d="M794.26,48.15c0.3,0,0.96,0.72,1.86,1.44c1.02,0.72,2.04,0.9,2.04,1.74c0,2.52-2.16,5.76-6.78,8.1
			c-0.72,0.36-0.78-0.18-0.24-0.78c1.68-1.86,3.06-2.94,2.76-4.32c-0.66-0.78-3.66-1.92-3.66-3.18
			C790.24,50.49,793.72,48.15,794.26,48.15z"/>
		<path class="st108" d="M898.66,48.15c0.3,0,0.96,0.72,1.86,1.44c1.02,0.72,2.04,0.9,2.04,1.74c0,2.52-2.16,5.76-6.78,8.1
			c-0.72,0.36-0.78-0.18-0.24-0.78c1.68-1.86,3.06-2.94,2.76-4.32c-0.66-0.78-3.66-1.92-3.66-3.18
			C894.64,50.49,898.12,48.15,898.66,48.15z"/>
		<path class="st108" d="M641.86,103.17c0,7.86-7.68,11.04-13.68,11.34v5.58l-3.3,1.8c-0.18,0.12-1.38,0.9-1.56,1.08
			c-0.48,0.42-0.54,0.42-0.48,0.12c0.06-0.18,0.12-1.38,0.12-1.98v-15.72l-3.72,0.24c-2.04,0.36-2.28,0.3-1.62-0.18
			c0.42-0.3,2.7-2.58,3.54-3.36l0.12-0.12h4.74c0.72,0,5.52-0.18,6.3-0.3c2.04-0.36,2.28-0.3,1.62,0.18
			c-0.42,0.3-2.7,2.58-3.54,3.36l-0.12,0.12h-2.1v8.16c4.62-1.62,8.1-3.72,8.1-9c0-10.44-10.14-11.76-12.3-9
			c-0.18,0.18-2.04-1.44-2.22-1.62c-0.54-0.54,0.6-1.62,7.32-1.62C637.24,92.25,641.86,97.83,641.86,103.17z"/>
		<path class="st108" d="M681.46,108.15c0.3,0,0.96,0.72,1.86,1.44c1.02,0.72,2.04,0.9,2.04,1.74c0,2.52-2.16,5.76-6.78,8.1
			c-0.72,0.36-0.78-0.18-0.24-0.78c1.68-1.86,3.06-2.94,2.76-4.32c-0.66-0.78-3.66-1.92-3.66-3.18
			C677.44,110.49,680.92,108.15,681.46,108.15z"/>
		<path class="st108" d="M792.46,108.15c0.3,0,0.96,0.72,1.86,1.44c1.02,0.72,2.04,0.9,2.04,1.74c0,2.52-2.16,5.76-6.78,8.1
			c-0.72,0.36-0.78-0.18-0.24-0.78c1.68-1.86,3.06-2.94,2.76-4.32c-0.66-0.78-3.66-1.92-3.66-3.18
			C788.44,110.49,791.92,108.15,792.46,108.15z"/>
		<path class="st108" d="M903.46,108.15c0.3,0,0.96,0.72,1.86,1.44c1.02,0.72,2.04,0.9,2.04,1.74c0,2.52-2.16,5.76-6.78,8.1
			c-0.72,0.36-0.78-0.18-0.24-0.78c1.68-1.86,3.06-2.94,2.76-4.32c-0.66-0.78-3.66-1.92-3.66-3.18
			C899.44,110.49,902.92,108.15,903.46,108.15z"/>
		<g>
			<path class="st108" d="M645.58,35.37c-2.58,0-6.48,1.38-10.5,4.5c-0.6,0.48-1.32,0.06-0.9-0.48c1.62-2.1,5.28-7.14,13.98-7.14
				c5.76,0,9.42,2.52,9.42,4.98v17.52c0,5.82,4.74,6.9,7.2,7.44c0.42,0.12,0.3,0.42-0.06,0.42c-5.4,0-12.36-0.66-12.36-8.94v-6.18
				c-5.76,3.06-10.38,5.7-11.34,9.9c-0.42,1.92,0,2.58,1.38,3.36c0.42,0.24,0.42,0.36,0,0.42c-1.44,0.18-4.38,1.26-5.64,1.74
				c-0.9-0.42-1.92-1.2-1.92-3.24c0-3.72,6.3-7.98,17.52-14.28v-5.52C652.36,37.23,649.54,35.37,645.58,35.37z"/>
			<path class="st108" d="M698.2,37.47v16.74c0,0,5.28-4.74,7.2-4.74c2.7,0,7.02,1.44,7.02,6.54c0,3.9-5.16,9.24-8.82,9.24
				c-2.22,0-4.32-0.72-5.82-2.04l-2.88,1.56c-0.18,0.12-1.38,0.9-1.56,1.08c-0.48,0.42-0.54,0.42-0.48,0.12
				c0.06-0.18,0.12-1.38,0.12-1.98V40.35c0-6.66-7.38-5.16-11.28-1.92c-1.14,0.96-0.9,0-0.48-0.54
				C688.78,28.41,698.2,33.33,698.2,37.47z M704.44,63.39c1.8,0,3.06-1.32,3.06-3.54c0-6.3-3.9-7.32-4.86-6.6l-4.44,3.18v0.48
				C698.2,59.85,703.36,63.39,704.44,63.39z"/>
			<path class="st108" d="M742.6,49.47c2.7,0,7.02,1.44,7.02,6.54c0,3.9-5.16,9.24-8.82,9.24c-2.22,0-4.32-0.72-5.82-2.04
				l-2.88,1.56c-0.18,0.12-1.38,0.9-1.56,1.08c-0.48,0.42-0.54,0.42-0.48,0.12c0.06-0.18,0.12-1.38,0.12-1.98v-15
				c0-6.66-7.38-5.16-11.28-1.92c-1.14,0.96-0.9,0-0.48-0.54c3.96-4.98,8.4-6,11.76-5.22v-0.96c0-6.66-7.38-5.16-11.28-1.92
				c-1.14,0.96-0.9,0-0.48-0.54c7.56-9.48,16.98-4.56,16.98-0.42v16.74C735.4,54.21,740.68,49.47,742.6,49.47z M741.64,63.39
				c1.8,0,3.06-1.32,3.06-3.54c0-6.3-3.9-7.32-4.86-6.6l-4.44,3.18v0.48C735.4,59.85,740.56,63.39,741.64,63.39z"/>
			<path class="st108" d="M779.8,49.47c2.7,0,7.02,1.44,7.02,6.54c0,3.9-5.16,9.24-8.82,9.24c-2.22,0-4.32-0.72-5.82-2.04
				l-2.88,1.56c-0.18,0.12-1.38,0.9-1.56,1.08c-0.48,0.42-0.54,0.42-0.48,0.12c0.06-0.18,0.12-1.38,0.12-1.98v-6.54
				c0-6.66-7.38-5.16-11.28-1.92c-1.14,0.96-0.9,0-0.48-0.54c3.96-4.98,8.4-6,11.76-5.22v-0.78c0-6.66-7.38-5.16-11.28-1.92
				c-1.14,0.96-0.9,0-0.48-0.54c3.96-4.98,8.4-6,11.76-5.22v-0.96c0-6.66-7.38-5.16-11.28-1.92c-1.14,0.96-0.9,0-0.48-0.54
				c7.56-9.48,16.98-4.56,16.98-0.42v16.74C772.6,54.21,777.88,49.47,779.8,49.47z M778.84,63.39c1.8,0,3.06-1.32,3.06-3.54
				c0-6.3-3.9-7.32-4.86-6.6l-4.44,3.18v0.48C772.6,59.85,777.76,63.39,778.84,63.39z"/>
			<path class="st108" d="M822.64,32.13c5.52,0,9.6,3.78,10.86,5.34c0.24,0.3-0.3,0.6-0.48,0.78c-1.02,0.84-2.28,2.22-3.12,3.36
				c-0.18,0.24-0.36,0.3-0.54,0c-1.2-2.4-4.68-7.56-8.52-7.56c-3.54,0-5.52,2.88-5.52,6.78v13.5c0,7.8-8.58,11.76-12.24,11.76
				c-1.02,0-0.78-0.42-0.3-0.54c3.66-1.02,7.32-5.16,7.32-9.66v-15C810.1,35.91,815.32,32.13,822.64,32.13z M810.1,53.25h-0.06
				H810.1z"/>
			<path class="st108" d="M855.64,32.13c5.52,0,9.6,3.78,10.86,5.34c0.24,0.3-0.3,0.6-0.48,0.78c-1.02,0.84-2.28,2.22-3.12,3.36
				c-0.18,0.24-0.36,0.3-0.54,0c-1.2-2.4-4.68-7.56-8.52-7.56c-3.54,0-5.52,2.88-5.52,6.78v7.98c3-1.68,5.28-3.9,5.28-4.8
				c0-0.24-1.02-0.66,0-0.9c1.98-0.42,3.18-0.6,4.98-1.02c1.32-0.3,0.48,2.04-1.26,3.78c-2.16,2.16-5.94,3.48-9,4.08v4.38
				c0,1.08-0.18,2.16-0.48,3.06c3.24-1.68,5.76-4.08,5.76-5.04c0-0.24-1.02-0.66,0-0.9c1.98-0.42,3.18-0.6,4.98-1.02
				c1.32-0.3,0.48,2.04-1.26,3.78c-2.4,2.34-6.72,3.78-9.9,4.2c-2.22,5.1-8.4,7.68-11.34,7.68c-1.02,0-0.78-0.42-0.3-0.54
				c3.66-1.02,7.32-5.16,7.32-9.66v-15C843.1,35.91,848.32,32.13,855.64,32.13z M843.1,53.25h-0.06H843.1z"/>
			<path class="st108" d="M871.66,51.57c-4.5-5.82-1.68-11.76,1.68-15.3c3.54-3.96,8.1-5.58,13.62-2.58
				c4.86,2.7,7.38,9.54,2.22,16.32C883.48,57.51,874.78,55.65,871.66,51.57z M884.2,37.83c-3.48-2.64-7.5-2.94-9.3-1.08
				c-2.34,2.46-1.62,7.8,0.36,10.8c2.52-1.62,4.26-3.42,4.26-4.2c0-0.24-1.02-0.66,0-0.9c1.98-0.42,3.18-0.6,4.98-1.02
				c1.32-0.3,0.48,2.04-1.26,3.78c-1.68,1.68-4.38,2.88-6.9,3.6c2.94,2.76,8.1,3.96,10.02,2.1C889.9,47.43,887.38,40.35,884.2,37.83
				z"/>
			<path class="st108" d="M933.4,49.47c2.7,0,7.02,1.44,7.02,6.54c0,3.9-5.16,9.24-8.82,9.24c-2.22,0-4.32-0.72-5.82-2.04
				l-2.88,1.56c-0.18,0.12-1.38,0.9-1.56,1.08c-0.48,0.42-0.54,0.42-0.48,0.12c0.06-0.18,0.12-1.38,0.12-1.98v-6.54
				c0-6.66-7.38-5.16-11.28-1.92c-1.14,0.96-0.9,0-0.48-0.54c3.96-4.98,8.4-6,11.76-5.22v-0.78c0-6.66-7.38-5.16-11.28-1.92
				c-1.14,0.96-0.9,0-0.48-0.54c3.96-4.98,8.4-6,11.76-5.22v-0.96c0-6.66-7.38-5.16-11.28-1.92c-1.14,0.96-0.9,0-0.48-0.54
				c7.56-9.48,16.98-4.56,16.98-0.42v16.74C926.2,54.21,931.48,49.47,933.4,49.47z M932.44,63.39c1.8,0,3.06-1.32,3.06-3.54
				c0-6.3-3.9-7.32-4.86-6.6l-4.44,3.18v0.48C926.2,59.85,931.36,63.39,932.44,63.39z"/>
			<path class="st108" d="M963.4,37.47v16.74c0,0,5.28-4.74,7.2-4.74c2.7,0,7.02,1.44,7.02,6.54c0,3.9-5.16,9.24-8.82,9.24
				c-2.22,0-4.32-0.72-5.82-2.04l-2.88,1.56c-0.18,0.12-1.38,0.9-1.56,1.08c-0.48,0.42-0.54,0.42-0.48,0.12
				c0.06-0.18,0.12-1.38,0.12-1.98V40.35c0-6.66-7.38-5.16-11.28-1.92c-1.14,0.96-0.9,0-0.48-0.54
				C953.98,28.41,963.4,33.33,963.4,37.47z M969.64,63.39c1.8,0,3.06-1.32,3.06-3.54c0-6.3-3.9-7.32-4.86-6.6l-4.44,3.18v0.48
				C963.4,59.85,968.56,63.39,969.64,63.39z"/>
			<path class="st108" d="M982.06,57.15h0.06H982.06z M1002.34,45.39c7.56-3.12,6.3-13.56-0.36-13.62c-2.82,0-4.74,2.04-7.14,5.7
				l-12.72,19.68h19.38l0.12-0.12c0.84-0.78,3.12-3.06,3.54-3.36c0.66-0.48,0.42-0.54-1.62-0.18c-0.78,0.12-5.58,0.3-6.3,0.3h-10.08
				l9.48-14.7c2.04-3.18,2.7-3.72,4.02-3.72c3.84,0,3.9,6.06,1.56,9.48C1001.8,45.45,1002.16,45.45,1002.34,45.39z"/>
			<path class="st108" d="M656.98,95.37c-2.58,0-6.48,1.38-10.5,4.5c-0.6,0.48-1.32,0.06-0.9-0.48c1.62-2.1,5.28-7.14,13.98-7.14
				c5.76,0,9.42,2.52,9.42,4.98v17.52c0,5.82,4.74,6.9,7.2,7.44c0.42,0.12,0.3,0.42-0.06,0.42c-5.4,0-12.36-0.66-12.36-8.94v-6.18
				c-5.76,3.06-10.38,5.7-11.34,9.9c-0.42,1.92,0,2.58,1.38,3.36c0.42,0.24,0.42,0.36,0,0.42c-1.44,0.18-4.38,1.26-5.64,1.74
				c-0.9-0.42-1.92-1.2-1.92-3.24c0-3.72,6.3-7.98,17.52-14.28v-5.52C663.76,97.23,660.94,95.37,656.98,95.37z"/>
			<path class="st108" d="M706.66,97.47v16.74c0,0,5.28-4.74,7.2-4.74c2.7,0,7.02,1.44,7.02,6.54c0,3.9-5.16,9.24-8.82,9.24
				c-2.22,0-4.32-0.72-5.82-2.04l-2.88,1.56c-0.18,0.12-1.38,0.9-1.56,1.08c-0.48,0.42-0.54,0.42-0.48,0.12
				c0.06-0.18,0.12-1.38,0.12-1.98v-23.64c0-6.66-7.38-5.16-11.28-1.92c-1.14,0.96-0.9,0-0.48-0.54
				C697.24,88.41,706.66,93.33,706.66,97.47z M712.9,123.39c1.8,0,3.06-1.32,3.06-3.54c0-6.3-3.9-7.32-4.86-6.6l-4.44,3.18v0.48
				C706.66,119.85,711.82,123.39,712.9,123.39z"/>
			<path class="st108" d="M746.86,109.47c2.7,0,7.02,1.44,7.02,6.54c0,3.9-5.16,9.24-8.82,9.24c-2.22,0-4.32-0.72-5.82-2.04
				l-2.88,1.56c-0.18,0.12-1.38,0.9-1.56,1.08c-0.48,0.42-0.54,0.42-0.48,0.12c0.06-0.18,0.12-1.38,0.12-1.98v-15
				c0-6.66-7.38-5.16-11.28-1.92c-1.14,0.96-0.9,0-0.48-0.54c3.96-4.98,8.4-6,11.76-5.22v-0.96c0-6.66-7.38-5.16-11.28-1.92
				c-1.14,0.96-0.9,0-0.48-0.54c7.56-9.48,16.98-4.56,16.98-0.42v16.74C739.66,114.21,744.94,109.47,746.86,109.47z M745.9,123.39
				c1.8,0,3.06-1.32,3.06-3.54c0-6.3-3.9-7.32-4.86-6.6l-4.44,3.18v0.48C739.66,119.85,744.82,123.39,745.9,123.39z"/>
			<path class="st108" d="M779.86,109.47c2.7,0,7.02,1.44,7.02,6.54c0,3.9-5.16,9.24-8.82,9.24c-2.22,0-4.32-0.72-5.82-2.04
				l-2.88,1.56c-0.18,0.12-1.38,0.9-1.56,1.08c-0.48,0.42-0.54,0.42-0.48,0.12c0.06-0.18,0.12-1.38,0.12-1.98v-6.54
				c0-6.66-7.38-5.16-11.28-1.92c-1.14,0.96-0.9,0-0.48-0.54c3.96-4.98,8.4-6,11.76-5.22v-0.78c0-6.66-7.38-5.16-11.28-1.92
				c-1.14,0.96-0.9,0-0.48-0.54c3.96-4.98,8.4-6,11.76-5.22v-0.96c0-6.66-7.38-5.16-11.28-1.92c-1.14,0.96-0.9,0-0.48-0.54
				c7.56-9.48,16.98-4.56,16.98-0.42v16.74C772.66,114.21,777.94,109.47,779.86,109.47z M778.9,123.39c1.8,0,3.06-1.32,3.06-3.54
				c0-6.3-3.9-7.32-4.86-6.6l-4.44,3.18v0.48C772.66,119.85,777.82,123.39,778.9,123.39z"/>
			<path class="st108" d="M820.84,92.13c5.52,0,9.6,3.78,10.86,5.34c0.24,0.3-0.3,0.6-0.48,0.78c-1.02,0.84-2.28,2.22-3.12,3.36
				c-0.18,0.24-0.36,0.3-0.54,0c-1.2-2.4-4.68-7.56-8.52-7.56c-3.54,0-5.52,2.88-5.52,6.78v13.5c0,7.8-8.58,11.76-12.24,11.76
				c-1.02,0-0.78-0.42-0.3-0.54c3.66-1.02,7.32-5.16,7.32-9.66v-15C808.3,95.91,813.52,92.13,820.84,92.13z M808.3,113.25h-0.06
				H808.3z"/>
			<path class="st108" d="M853.84,92.13c5.52,0,9.6,3.78,10.86,5.34c0.24,0.3-0.3,0.6-0.48,0.78c-1.02,0.84-2.28,2.22-3.12,3.36
				c-0.18,0.24-0.36,0.3-0.54,0c-1.2-2.4-4.68-7.56-8.52-7.56c-3.54,0-5.52,2.88-5.52,6.78v7.98c3-1.68,5.28-3.9,5.28-4.8
				c0-0.24-1.02-0.66,0-0.9c1.98-0.42,3.18-0.6,4.98-1.02c1.32-0.3,0.48,2.04-1.26,3.78c-2.16,2.16-5.94,3.48-9,4.08v4.38
				c0,1.08-0.18,2.16-0.48,3.06c3.24-1.68,5.76-4.08,5.76-5.04c0-0.24-1.02-0.66,0-0.9c1.98-0.42,3.18-0.6,4.98-1.02
				c1.32-0.3,0.48,2.04-1.26,3.78c-2.4,2.34-6.72,3.78-9.9,4.2c-2.22,5.1-8.4,7.68-11.34,7.68c-1.02,0-0.78-0.42-0.3-0.54
				c3.66-1.02,7.32-5.16,7.32-9.66v-15C841.3,95.91,846.52,92.13,853.84,92.13z M841.3,113.25h-0.06H841.3z"/>
			<path class="st108" d="M873.34,111.57c-4.5-5.82-1.68-11.76,1.68-15.3c3.54-3.96,8.1-5.58,13.62-2.58
				c4.86,2.7,7.38,9.54,2.22,16.32C885.16,117.51,876.46,115.65,873.34,111.57z M885.88,97.83c-3.48-2.64-7.5-2.94-9.3-1.08
				c-2.34,2.46-1.62,7.8,0.36,10.8c2.52-1.62,4.26-3.42,4.26-4.2c0-0.24-1.02-0.66,0-0.9c1.98-0.42,3.18-0.6,4.98-1.02
				c1.32-0.3,0.48,2.04-1.26,3.78c-1.68,1.68-4.38,2.88-6.9,3.6c2.94,2.76,8.1,3.96,10.02,2.1
				C891.58,107.43,889.06,100.35,885.88,97.83z"/>
			<path class="st108" d="M935.86,109.47c2.7,0,7.02,1.44,7.02,6.54c0,3.9-5.16,9.24-8.82,9.24c-2.22,0-4.32-0.72-5.82-2.04
				l-2.88,1.56c-0.18,0.12-1.38,0.9-1.56,1.08c-0.48,0.42-0.54,0.42-0.48,0.12c0.06-0.18,0.12-1.38,0.12-1.98v-6.54
				c0-6.66-7.38-5.16-11.28-1.92c-1.14,0.96-0.9,0-0.48-0.54c3.96-4.98,8.4-6,11.76-5.22v-0.78c0-6.66-7.38-5.16-11.28-1.92
				c-1.14,0.96-0.9,0-0.48-0.54c3.96-4.98,8.4-6,11.76-5.22v-0.96c0-6.66-7.38-5.16-11.28-1.92c-1.14,0.96-0.9,0-0.48-0.54
				c7.56-9.48,16.98-4.56,16.98-0.42v16.74C928.66,114.21,933.94,109.47,935.86,109.47z M934.9,123.39c1.8,0,3.06-1.32,3.06-3.54
				c0-6.3-3.9-7.32-4.86-6.6l-4.44,3.18v0.48C928.66,119.85,933.82,123.39,934.9,123.39z"/>
			<path class="st108" d="M961.66,97.47v16.74c0,0,5.28-4.74,7.2-4.74c2.7,0,7.02,1.44,7.02,6.54c0,3.9-5.16,9.24-8.82,9.24
				c-2.22,0-4.32-0.72-5.82-2.04l-2.88,1.56c-0.18,0.12-1.38,0.9-1.56,1.08c-0.48,0.42-0.54,0.42-0.48,0.12
				c0.06-0.18,0.12-1.38,0.12-1.98v-23.64c0-6.66-7.38-5.16-11.28-1.92c-1.14,0.96-0.9,0-0.48-0.54
				C952.24,88.41,961.66,93.33,961.66,97.47z M967.9,123.39c1.8,0,3.06-1.32,3.06-3.54c0-6.3-3.9-7.32-4.86-6.6l-4.44,3.18v0.48
				C961.66,119.85,966.82,123.39,967.9,123.39z"/>
			<g>
				<path class="st108" d="M113.16,54.82v6.29c0,0.15-0.01,0.36-0.02,0.55c-0.43,2.88,0.35,5.76,2.16,7.97l3.03,3.67h4.73
					c3.43,0,5.72-1.69,6.74-2.54c0.14-0.1,0.3-0.2,0.44-0.29l8.14-4.44V62.5c0.07-0.03,0.13-0.06,0.2-0.09
					c1.3,2.39,3.32,4.34,5.97,5.66l3.97,1.98l4.14-1.62c2.14-0.83,3.19-1.11,3.53-1.19c2.7-0.13,5.17-1.29,6.95-3.12
					c3.33,2.83,8.48,4.88,16.41,4.88c0.13,0,0.25-0.01,0.38-0.02c1.04,0.35,2.13,0.55,3.26,0.55c1.67,0,3.3-0.39,4.9-1.19
					c5.04-2.55,8.74-6.18,10.69-10.28c0.13,2.12,0.9,4.15,2.26,5.8l3.03,3.67h4.73c2.32,0,4.12-0.77,5.36-1.54
					c1.71,0.48,3.52,0.73,5.36,0.73c6.46,0,13.18-4.94,16.58-11.14c0,0.1-0.01,0.21-0.01,0.31c-0.43,2.88,0.35,5.76,2.16,7.97
					l3.03,3.67H246c2.32,0,4.12-0.77,5.36-1.54c1.71,0.48,3.52,0.73,5.36,0.73c6.03,0,12.29-4.3,15.85-9.91
					c0.25-0.06,0.5-0.13,0.75-0.2c-0.21,2.64,0.58,5.23,2.24,7.25l3.03,3.67h4.73c2.32,0,4.12-0.77,5.36-1.54
					c1.71,0.48,3.52,0.73,5.36,0.73c1.63,0,3.28-0.32,4.89-0.89c1.91,2.3,4.78,3.71,7.87,3.71c1.67,0,3.3-0.39,4.9-1.19c0,0,0,0,0,0
					c1.79,1.55,4.2,2.58,7.18,2.58c9.25,0,16.65-3.3,20.62-8.65c0.7,4.35,4.48,8.65,10.58,8.65c7.29,0,15.63-2.23,20.29-8.1
					c3.6-1.37,6.99-3.35,9.89-5.77c0.19,0.26,0.38,0.53,0.58,0.79c4.15,5.31,12.09,8.75,20.21,8.75c4.06,0,7.9-0.87,11.34-2.48
					c1.76,3.31,5.2,5.43,9,5.43c1.67,0,3.3-0.39,4.9-1.19c5.14-2.6,8.88-6.32,10.8-10.52c0.08,2.21,0.85,4.33,2.26,6.04l3.03,3.67
					h4.73c2.32,0,4.12-0.77,5.36-1.54c1.71,0.48,3.52,0.73,5.36,0.73c6.38,0,13.02-4.82,16.45-10.9c0,0.02,0,0.05,0,0.07
					c-0.43,2.88,0.35,5.76,2.16,7.97l3.03,3.67h4.73c1.88,0,3.42-0.51,4.59-1.11h2.72c1.11,0.19,2.25,0.3,3.41,0.3
					c0.93,0,1.86-0.11,2.79-0.3h40.35L541,63.5c0.35-0.33,0.84-0.81,1.36-1.31c0.55-0.54,1.14-1.11,1.51-1.45
					c4.21-3.33,4.56-8.08,3.55-11.21c-0.6-1.85-1.71-3.44-3.15-4.62c2.43-3.06,4.69-7.32,4.69-13c0-8.83-7.13-16.3-15.58-16.3
					c-7.06,0-12.92,3.24-16.98,9.43l-7.14,11.05c-2.63-2.68-6.13-4.34-9.74-4.91v-1.2c0-8.34-8.17-15.12-18.2-15.12
					c-7.11,0-13.68,3.52-18.06,9.65c-0.51,0.7-0.92,1.44-1.26,2.2c-1.81-6.77-9.08-11.85-17.76-11.85c-7.11,0-13.69,3.52-18.06,9.65
					c-0.45,0.61-0.81,1.25-1.13,1.9c-2.15-3.82-5.35-7-9.38-9.22c-4.08-2.24-8.32-3.37-12.6-3.37c-5.23,0-10.3,1.75-14.72,4.99
					c-4.51-3.22-9.76-4.95-15.22-4.95c-7.52,0-13.02,1.72-16.87,4.34c-4.3-2.83-9.22-4.34-14.33-4.34
					c-18.05,0-24.46,9.91-24.46,18.4v8.92c-1.26-1.1-3.65-3.01-7.38-3.02c-2.68-3.9-6.98-6.28-11.44-6.98v-1.2
					c0-8.34-8.17-15.12-18.2-15.12c-7.11,0-13.69,3.52-18.06,9.65c-0.58,0.79-1.06,1.63-1.42,2.5c-1.67-6.92-9.03-12.15-17.85-12.15
					c-7.11,0-13.68,3.52-18.06,9.65c-0.55,0.74-0.99,1.53-1.34,2.34c-1.74-6.84-9.06-11.99-17.8-11.99
					c-7.11,0-13.68,3.52-18.06,9.65c-2.49,3.38-2.97,7.64-1.23,11.2c0.5,1.02,1.17,1.92,1.94,2.69c-0.65-0.14-1.34-0.23-2.1-0.23
					c-1.15,0-2.56,0.32-4.04,0.91v-9.87c0-8.61-8.63-14.62-20.98-14.62c-8.81,0-16.55,3.59-21.6,9.94
					c-3.03-1.42-6.57-2.26-10.56-2.26c-4.74,0-13.57,0-16.65,7.41c-0.97,2.34-1.03,4.89-0.26,7.21c-0.32,0.31-0.62,0.6-0.84,0.8
					c-4.22,3.33-4.57,8.09-3.55,11.22C108.85,51.54,110.74,53.64,113.16,54.82z M342.68,41.4c1.62,1.56,3.72,2.56,5.98,2.8v5.77
					c-0.53,0.34-1.13,0.66-1.53,0.78c-1.73,0.47-3.24,1.33-4.47,2.45c0.01-0.22,0.02-0.45,0.02-0.67V41.4z M195.72,41.37
					c1.09,0,2.15-0.17,3.18-0.5v5.03c-0.92-1.57-2.4-3.15-4.74-4.46c-0.02-0.02-0.05-0.04-0.07-0.06c-0.07-0.06-0.15-0.13-0.22-0.19
					C194.47,41.29,195.09,41.37,195.72,41.37z"/>
				<path class="st108" d="M472.98,117.71c0.05,2.25,0.82,4.41,2.25,6.15l3.03,3.68H483c1.88,0,3.42-0.51,4.59-1.11h2.72
					c1.11,0.19,2.25,0.3,3.41,0.3c0.93,0,1.86-0.11,2.79-0.3h39.75l2.94-2.94c0.35-0.33,0.84-0.81,1.36-1.31
					c0.55-0.54,1.14-1.11,1.51-1.45c4.21-3.33,4.56-8.08,3.55-11.21c-0.6-1.85-1.71-3.44-3.15-4.62c2.43-3.06,4.69-7.32,4.69-13
					c0-8.83-7.13-16.3-15.58-16.3c-7.06,0-12.92,3.24-16.98,9.43l-6.91,10.7c-2.58-2.47-5.92-4.01-9.37-4.56v-1.2
					c0-8.34-8.17-15.12-18.2-15.12c-7.11,0-13.69,3.52-18.06,9.65c-0.22,0.3-0.4,0.6-0.59,0.91c-2.33-6.12-9.23-10.56-17.35-10.56
					c-7.11,0-13.69,3.52-18.06,9.65c-0.29,0.4-0.56,0.81-0.8,1.23c-2.14-3.52-5.2-6.45-8.99-8.54c-4.08-2.24-8.32-3.37-12.6-3.37
					c-5.55,0-10.92,1.97-15.53,5.61c-4.68-3.61-10.24-5.57-16.04-5.57c-9.17,0-15.33,2.56-19.18,6.19
					c-4.84-4.01-10.69-6.19-16.82-6.19c-18.05,0-24.46,9.91-24.46,18.4v8.1c-1.3-0.97-3.23-2.03-5.85-2.16
					c-2.68-3.92-6.99-6.31-11.46-7.01v-1.2c0-8.34-8.17-15.12-18.2-15.12c-7.11,0-13.69,3.52-18.06,9.65
					c-0.22,0.29-0.4,0.6-0.59,0.91c-2.34-6.11-9.23-10.56-17.35-10.56c-7.11,0-13.69,3.52-18.06,9.65c-0.22,0.29-0.4,0.6-0.59,0.91
					c-2.34-6.11-9.23-10.56-17.35-10.56c-7.11,0-13.69,3.52-18.06,9.65c-2.49,3.38-2.97,7.64-1.23,11.2
					c0.47,0.96,1.08,1.8,1.79,2.55c-0.43-0.06-0.88-0.09-1.35-0.09c-0.5,0-1.06,0.07-1.64,0.19v-9.15c0-8.61-8.63-14.62-20.98-14.62
					c-8.9,0-16.73,3.66-21.77,10.15c-3.12-1.55-6.81-2.47-10.99-2.47c-4.74,0-13.57,0-16.65,7.41c-0.97,2.34-1.03,4.89-0.26,7.21
					c-0.32,0.31-0.62,0.6-0.84,0.8c-4.22,3.33-4.57,8.09-3.55,11.22c0.86,2.65,2.76,4.75,5.18,5.93v6.29c0,0.15-0.01,0.36-0.02,0.55
					c-0.43,2.88,0.35,5.76,2.16,7.97l3.03,3.67h4.73c3.43,0,5.72-1.69,6.74-2.54c0.14-0.1,0.3-0.2,0.44-0.29l8.14-4.44v-3.53
					c0.23-0.09,0.45-0.2,0.68-0.3c1.29,2.49,3.36,4.51,6.09,5.87l3.97,1.98l4.14-1.62c2.14-0.83,3.19-1.11,3.53-1.19
					c2.7-0.13,5.17-1.29,6.95-3.12c3.02,2.57,7.55,4.48,14.28,4.82c1.07,0.37,2.2,0.59,3.37,0.59c1.67,0,3.3-0.39,4.9-1.19
					c4.64-2.35,8.14-5.61,10.19-9.31c0.27,1.76,1,3.42,2.14,4.82l3.03,3.68H207c2.32,0,4.12-0.77,5.36-1.54
					c1.71,0.48,3.52,0.73,5.36,0.73c5.71,0,11.62-3.85,15.26-9.02c0.05,2.25,0.82,4.41,2.25,6.15l3.03,3.68H243
					c2.32,0,4.12-0.77,5.36-1.54c1.71,0.48,3.52,0.73,5.36,0.73c5.71,0,11.62-3.85,15.26-9.01c0.06,2.24,0.83,4.4,2.26,6.14
					l3.03,3.68H279c2.32,0,4.12-0.77,5.36-1.54c1.71,0.48,3.52,0.73,5.36,0.73c1.5,0,3.02-0.27,4.51-0.76
					c1.91,2.23,4.73,3.57,7.77,3.57c1.44,0,2.84-0.31,4.23-0.9c1.75,1.39,4.05,2.29,6.83,2.29c14.01,0,23.8-7.57,23.8-18.4V101.4
					c1.88,1.8,4.38,2.86,7.04,2.86c0,0,0,0,0,0c0.8,0,2.19-0.11,3.73-0.72v6.43c-0.53,0.34-1.14,0.66-1.53,0.78
					c-5.1,1.39-8.32,6.06-7.68,11.2c0.55,4.46,4.39,8.98,10.63,8.98c7.29,0,15.63-2.23,20.29-8.1c3.89-1.48,7.54-3.66,10.58-6.35
					l0.08-0.07c0.08-0.08,0.17-0.16,0.25-0.24c0.37,0.56,0.76,1.12,1.19,1.67c4.15,5.31,12.09,8.75,20.21,8.75
					c4.06,0,7.9-0.87,11.34-2.48c1.76,3.31,5.2,5.43,9,5.43c1.67,0,3.3-0.39,4.9-1.19c4.65-2.35,8.15-5.62,10.2-9.32
					c0.27,1.76,0.99,3.43,2.13,4.83l3.03,3.68H447c2.32,0,4.12-0.77,5.36-1.54c1.71,0.48,3.52,0.73,5.36,0.73
					C463.43,126.73,469.34,122.88,472.98,117.71z M192.97,101.44c-0.02-0.02-0.05-0.04-0.07-0.06c-0.03-0.03-0.07-0.06-0.1-0.08
					c0.37,0.04,0.75,0.08,1.13,0.08c1.09,0,2.15-0.17,3.18-0.5V105C196.18,103.73,194.86,102.49,192.97,101.44z"/>
				<path class="st108" d="M1001.98,21.77c-8.8,0-13.5,7.16-15.54,10.27l-6.48,10.03c-2.01-1.22-4.26-2.03-6.56-2.39v-2.22
					c0-8.29-7.73-15.03-17.22-15.03c-6.59,0-12.84,3.27-17.57,9.21l-0.06,0.08c-1.3,1.66-2.09,3.56-2.35,5.49
					c-0.15-8.17-7.81-14.78-17.21-14.78c-6.59,0-12.84,3.27-17.58,9.21l-0.07,0.09c-0.5,0.64-0.9,1.32-1.25,2.02
					c-1.76-3.69-4.64-6.81-8.35-8.86c-3.38-1.83-6.84-2.76-10.3-2.76c-3.26,0-7.76,0.84-12.27,4.38c-3.2-2.24-7.76-4.39-13.52-4.39
					c-6.97,0-13.01,2.38-17.08,6.26c-3.09-2.72-8.53-6.26-15.92-6.26c-12.48,0-21.98,7.61-22.51,17.85
					c-1.37-0.92-3.3-1.83-5.87-1.83c-2.04,0-4.89,1-7.48,2.72c-1.35-0.56-2.75-0.96-4.18-1.18v-2.22c0-8.29-7.73-15.03-17.22-15.03
					c-6.59,0-12.84,3.27-17.57,9.21l-0.06,0.08c-1.29,1.66-2.08,3.54-2.36,5.46c-0.17-8.16-7.82-14.75-17.21-14.75
					c-6.59,0-12.84,3.27-17.58,9.21l-0.07,0.09c-1.29,1.65-2.08,3.54-2.35,5.45c-0.17-8.16-7.82-14.75-17.21-14.75
					c-6.59,0-12.84,3.27-17.58,9.21l-0.07,0.09c-1.51,1.93-2.31,4.18-2.42,6.42c-0.09,0-0.16-0.02-0.25-0.02
					c-0.9,0-1.96,0.19-3.08,0.56v-1.48c0-8.54-8.35-14.98-19.42-14.98c-7.09,0-12.18,2.29-15.72,4.85
					c-3.76-2.96-8.75-4.85-14.76-4.85c-4.74,0-13.57,0-16.65,7.41c-0.97,2.34-1.03,4.89-0.26,7.21c-0.32,0.31-0.62,0.6-0.84,0.8
					c-4.22,3.33-4.57,8.09-3.55,11.22c0.86,2.65,2.76,4.75,5.18,5.93v6.29c0,0.15-0.01,0.36-0.02,0.55
					c-0.43,2.88,0.35,5.76,2.16,7.97l3.03,3.67h4.73c3.43,0,5.72-1.69,6.74-2.54c0.14-0.1,0.3-0.2,0.44-0.29l7.78-4.24
					c1.32,2.48,3.41,4.49,6.11,5.75l3.83,1.79l3.95-1.5c2.03-0.77,3.18-1.11,3.53-1.19c2.13-0.31,4.02-1.2,5.5-2.52
					c3.33,2.4,8.22,4.06,15.37,4.06c3.78,0,7.07-1.95,8.87-4.96c4.38-2.49,7.61-5.83,9.39-9.56v5.9c0,0.15-0.01,0.36-0.02,0.55
					c-0.43,2.88,0.35,5.77,2.17,7.98l3.03,3.67l4.73,0c2.41,0,4.25-0.83,5.49-1.62c1.67,0.46,3.43,0.69,5.22,0.69
					c6.46,0,13.19-4.94,16.58-11.14c0,0.13-0.01,0.29-0.02,0.43c-0.43,2.88,0.35,5.77,2.17,7.98l3.03,3.67l4.73,0
					c2.41,0,4.25-0.83,5.49-1.62c1.67,0.46,3.43,0.69,5.22,0.69c5.83,0,11.86-4.02,15.48-9.35c0.33-0.03,0.65-0.07,0.97-0.13
					c-0.08,2.46,0.72,4.85,2.28,6.74l3.03,3.67l4.73,0c2.41,0,4.25-0.83,5.49-1.62c1.67,0.46,3.43,0.69,5.22,0.69
					c4.41,0,8.95-2.31,12.46-5.74c0.18,0.01,0.35,0.04,0.53,0.04c0.67,0,1.34-0.08,2.01-0.21c1.36,3.62,4.87,6.76,10.08,6.76
					c9.29,0,22.24-8.28,22.24-21.76l0-3.46c1.32,0.61,2.78,0.94,4.29,0.94c0,0,0,0,0,0c1.21,0,2.38-0.21,3.48-0.62v4.44
					c-0.07,0.12-0.2,0.27-0.31,0.37c-4.9,1.5-7.97,6.07-7.35,11.09c0.55,4.47,4.38,9,10.64,9c4.88,0,12.58-2.77,17.53-8.82
					c3.29-0.97,7.45-2.73,10.69-5.9l0.09-0.09c0.47-0.47,0.91-0.96,1.32-1.45c3.59,3.36,8.59,5.31,13.87,5.31
					c2.34,0,4.61-0.38,6.76-1.11c1.74,3.36,5.22,5.52,9.05,5.52c1.67,0,3.3-0.39,4.9-1.19c1.82-0.92,3.46-1.99,4.91-3.16
					c1.18,0.47,2.46,0.75,3.79,0.75c0,0,0,0,0,0c0.62,0,1.24-0.06,1.84-0.17c-0.08,2.46,0.72,4.85,2.28,6.74l3.03,3.67l4.73,0
					c2.41,0,4.25-0.83,5.49-1.62c1.67,0.46,3.43,0.69,5.22,0.69c6.46,0,13.19-4.94,16.58-11.14c0,0.13-0.01,0.29-0.02,0.43
					c-0.43,2.88,0.35,5.77,2.17,7.98l3.03,3.67l4.73,0c2.41,0,4.25-0.83,5.49-1.62c1.67,0.46,3.43,0.69,5.22,0.69
					c5.36,0,10.9-3.4,14.57-8.1h22.27l2.93-2.93c0.35-0.33,0.85-0.81,1.37-1.32c0.55-0.53,1.13-1.11,1.5-1.45
					c4.22-3.34,4.57-8.09,3.55-11.22c-0.21-0.66-0.49-1.28-0.82-1.86c2.8-3.87,3.98-8.78,3.02-13.75
					C1015.74,27.12,1009.52,21.84,1001.98,21.77z"/>
				<path class="st108" d="M1015.39,94.62c-1.45-7.5-7.67-12.78-15.21-12.85c-8.8,0-13.5,7.16-15.54,10.27l-6.47,10.01
					c-2-1.21-4.24-2-6.51-2.36v-2.22c0-8.29-7.73-15.03-17.22-15.03c-6.47,0-12.59,3.16-17.3,8.88c-2.7-5.23-8.71-8.88-15.7-8.88
					c-6.59,0-12.84,3.27-17.58,9.21l-0.07,0.09c-0.7,0.9-1.24,1.87-1.65,2.88c-1.71-4.07-4.74-7.51-8.73-9.72
					c-3.37-1.83-6.84-2.76-10.3-2.76c-3.65,0-8.87,1.06-13.9,5.79c-3.16-2.64-8.39-5.8-15.37-5.8c-6.97,0-13.01,2.38-17.08,6.26
					c-3.09-2.72-8.53-6.26-15.92-6.26c-12.48,0-21.98,7.61-22.51,17.85c-1.37-0.92-3.3-1.83-5.87-1.83c-1.86,0-4.39,0.84-6.79,2.29
					c-0.98-0.33-1.99-0.59-3.01-0.75v-2.22c0-8.29-7.73-15.03-17.22-15.03c-6.47,0-12.59,3.16-17.3,8.88
					c-2.7-5.23-8.71-8.88-15.7-8.88c-6.47,0-12.59,3.16-17.3,8.88c-2.7-5.23-8.71-8.88-15.7-8.88c-6.59,0-12.84,3.27-17.58,9.21
					l-0.07,0.09c-1.57,2.01-2.38,4.36-2.43,6.69c-0.12,0.03-0.25,0.07-0.38,0.11v-1.31c0-8.54-8.35-14.98-19.42-14.98
					c-7.09,0-12.18,2.29-15.72,4.85c-3.76-2.96-8.75-4.85-14.76-4.85c-4.74,0-13.57,0-16.65,7.41c-0.97,2.34-1.03,4.89-0.26,7.21
					c-0.32,0.31-0.62,0.6-0.84,0.8c-4.22,3.33-4.57,8.09-3.55,11.22c0.86,2.65,2.76,4.75,5.18,5.93v6.29c0,0.15-0.01,0.36-0.02,0.55
					c-0.43,2.88,0.35,5.76,2.16,7.97l3.03,3.67h4.73c3.43,0,5.72-1.69,6.74-2.54c0.14-0.1,0.3-0.2,0.44-0.29l7.78-4.24
					c1.32,2.48,3.41,4.49,6.11,5.75l3.83,1.79l3.95-1.5c2.03-0.77,3.18-1.11,3.53-1.19c2.13-0.31,4.02-1.2,5.5-2.52
					c3.33,2.4,8.22,4.06,15.37,4.06c4,0,7.46-2.18,9.18-5.5c2.46-1.53,4.53-3.33,6.14-5.32v2.2c0,0.15-0.01,0.36-0.02,0.55
					c-0.43,2.88,0.35,5.77,2.17,7.98l3.03,3.67l4.73,0c2.41,0,4.25-0.83,5.49-1.62c1.67,0.46,3.43,0.69,5.22,0.69
					c4.53,0,9.2-2.43,12.75-6.02c0.38,1.19,0.97,2.31,1.78,3.29l3.03,3.67l4.73,0c2.41,0,4.25-0.83,5.49-1.62
					c1.67,0.46,3.43,0.69,5.22,0.69c4.53,0,9.19-2.43,12.74-6.02c0.38,1.19,0.98,2.3,1.79,3.29l3.03,3.67l4.73,0
					c2.41,0,4.25-0.83,5.49-1.62c1.67,0.46,3.43,0.69,5.22,0.69c4.44,0,9-2.34,12.52-5.8c0.21-0.03,0.41-0.07,0.62-0.11
					c1.36,3.62,4.87,6.76,10.08,6.76c9.29,0,22.24-8.28,22.24-21.76l0-3.46c1.32,0.61,2.78,0.94,4.29,0.94c0,0,0,0,0,0
					c1.21,0,2.38-0.21,3.48-0.62v4.44c-0.07,0.12-0.2,0.27-0.31,0.37c-4.9,1.5-7.97,6.07-7.35,11.09c0.55,4.47,4.38,9,10.64,9
					c4.88,0,12.58-2.77,17.53-8.82c3.29-0.97,7.45-2.73,10.69-5.9l0.09-0.09c1.15-1.15,2.08-2.37,2.82-3.61
					c3.59,4.68,9.51,7.47,15.84,7.47c3.32,0,6.49-0.76,9.38-2.19c0.07,0.19,0.14,0.38,0.22,0.57c1.63,3.67,5.3,6.04,9.33,6.04
					c1.67,0,3.3-0.39,4.9-1.19c1.55-0.79,2.97-1.68,4.26-2.65c0.68,0.14,1.38,0.24,2.1,0.24c0,0,0,0,0,0c0.62,0,1.24-0.06,1.84-0.17
					c-0.08,2.46,0.72,4.85,2.28,6.74l3.03,3.67l4.73,0c2.41,0,4.25-0.83,5.49-1.62c1.67,0.46,3.43,0.69,5.22,0.69
					c4.53,0,9.2-2.43,12.75-6.02c0.38,1.19,0.97,2.31,1.78,3.29l3.03,3.67l4.73,0c2.41,0,4.25-0.83,5.49-1.62
					c1.67,0.46,3.43,0.69,5.22,0.69c5.36,0,10.9-3.4,14.57-8.1h22.21l2.93-2.93c0.35-0.33,0.85-0.81,1.37-1.32
					c0.55-0.53,1.13-1.11,1.5-1.45c4.22-3.33,4.57-8.09,3.55-11.22c-0.21-0.66-0.49-1.28-0.83-1.87
					C1015.17,104.5,1016.35,99.59,1015.39,94.62z"/>
			</g>
			<path class="st108" d="M980.26,117.15h0.06H980.26z M1000.54,105.39c7.56-3.12,6.3-13.56-0.36-13.62c-2.82,0-4.74,2.04-7.14,5.7
				l-12.72,19.68h19.38l0.12-0.12c0.84-0.78,3.12-3.06,3.54-3.36c0.66-0.48,0.42-0.54-1.62-0.18c-0.78,0.12-5.58,0.3-6.3,0.3h-10.08
				l9.48-14.7c2.04-3.18,2.7-3.72,4.02-3.72c3.84,0,3.9,6.06,1.56,9.48C1000,105.45,1000.36,105.45,1000.54,105.39z"/>
		</g>
	</g>
</g>
<g>
	<g>
		<path class="st149" d="M142.06,43.17c0,7.86-7.68,11.04-13.68,11.34v5.58l-3.3,1.8c-0.18,0.12-1.38,0.9-1.56,1.08
			c-0.48,0.42-0.54,0.42-0.48,0.12c0.06-0.18,0.12-1.38,0.12-1.98V45.39l-3.72,0.24c-2.04,0.36-2.28,0.3-1.62-0.18
			c0.42-0.3,2.7-2.58,3.54-3.36l0.12-0.12h4.74c0.72,0,5.52-0.18,6.3-0.3c2.04-0.36,2.28-0.3,1.62,0.18
			c-0.42,0.3-2.7,2.58-3.54,3.36l-0.12,0.12h-2.1v8.16c4.62-1.62,8.1-3.72,8.1-9c0-10.44-10.14-11.76-12.3-9
			c-0.18,0.18-2.04-1.44-2.22-1.62c-0.54-0.54,0.6-1.62,7.32-1.62C137.44,32.25,142.06,37.83,142.06,43.17z"/>
		<path class="st149" d="M161.44,24.57c6.24,0,10.98,2.16,10.98,4.62v21.96c0,5.82,4.74,6.9,7.2,7.44c0.42,0.12,0.3,0.42-0.06,0.42
			c-5.4,0-12.36-0.66-12.36-8.94v-8.58c-7.98,4.38-12.12,7.74-13.02,11.64c-0.48,2.1,0,2.82,1.5,3.66c0.42,0.24,0.42,0.48,0,0.48
			c-1.8,0-5.28,1.32-6.66,1.86c-0.96-0.48-2.1-1.32-2.1-3.48c0-4.8,7.32-9.36,20.28-16.5v-6.3c0-3.66-4.92-5.16-8.04-5.16
			c-3.18,0-7.56,1.44-11.46,4.5c-0.54,0.42-1.08,0-0.72-0.54C148.36,29.61,152.5,24.57,161.44,24.57z"/>
		<path class="st149" d="M186.46,48.15c0.3,0,0.96,0.72,1.86,1.44c1.02,0.72,2.04,0.9,2.04,1.74c0,2.52-2.16,5.76-6.78,8.1
			c-0.72,0.36-0.78-0.18-0.24-0.78c1.68-1.86,3.06-2.94,2.76-4.32c-0.66-0.78-3.66-1.92-3.66-3.18
			C182.44,50.49,185.92,48.15,186.46,48.15z"/>
		<path class="st149" d="M214.12,29.97v15.72c0,0,5.28-4.74,7.2-4.74c2.7,0,7.02,1.44,7.02,6.54c0,3.9-5.16,9.24-8.82,9.24
			c-2.28,0-4.44-0.78-5.94-2.1l-2.76,1.5c-0.18,0.12-1.38,0.9-1.56,1.08c-0.48,0.42-0.54,0.42-0.48,0.12
			c0.06-0.18,0.12-1.38,0.12-1.98v-22.5c0-6.66-7.5-6.36-12.48-1.92c-1.14,1.02-0.9,0-0.48-0.54
			C202.6,20.91,214.12,25.53,214.12,29.97z M220.36,54.87c1.8,0,3.06-1.32,3.06-3.54c0-6.3-3.9-7.32-4.86-6.6l-4.44,3.18v0.48
			C214.12,51.33,219.28,54.87,220.36,54.87z"/>
		<path class="st149" d="M251.32,29.97v15.72c0,0,5.28-4.74,7.2-4.74c2.7,0,7.02,1.44,7.02,6.54c0,3.9-5.16,9.24-8.82,9.24
			c-2.28,0-4.44-0.78-5.94-2.1l-2.76,1.5c-0.18,0.12-1.38,0.9-1.56,1.08c-0.48,0.42-0.54,0.42-0.48,0.12
			c0.06-0.18,0.12-1.38,0.12-1.98V40.59c0-6.66-7.5-6.36-12.48-1.92c-1.14,1.02-0.9,0-0.48-0.54c3.78-5.34,9.06-6.18,12.96-5.16
			v-0.12c0-6.66-7.5-6.36-12.48-1.92c-1.14,1.02-0.9,0-0.48-0.54C239.8,20.91,251.32,25.53,251.32,29.97z M257.56,54.87
			c1.8,0,3.06-1.32,3.06-3.54c0-6.3-3.9-7.32-4.86-6.6l-4.44,3.18v0.48C251.32,51.33,256.48,54.87,257.56,54.87z"/>
		<path class="st149" d="M288.64,29.97v15.72c0,0,5.28-4.74,7.2-4.74c2.7,0,7.02,1.44,7.02,6.54c0,3.9-5.16,9.24-8.82,9.24
			c-2.28,0-4.44-0.78-5.94-2.1l-2.76,1.5c-0.18,0.12-1.38,0.9-1.56,1.08c-0.48,0.42-0.54,0.42-0.48,0.12
			c0.06-0.18,0.12-1.38,0.12-1.98v-6.78c0-6.66-7.5-6.36-12.48-1.92c-1.14,1.02-0.9,0-0.48-0.54c3.78-5.34,9.06-6.18,12.96-5.16
			v-0.36c0-6.66-7.5-6.36-12.48-1.92c-1.14,1.02-0.9,0-0.48-0.54c3.78-5.34,9.06-6.18,12.96-5.16v-0.12c0-6.66-7.5-6.36-12.48-1.92
			c-1.14,1.02-0.9,0-0.48-0.54C277.12,20.91,288.64,25.53,288.64,29.97z M294.88,54.87c1.8,0,3.06-1.32,3.06-3.54
			c0-6.3-3.9-7.32-4.86-6.6l-4.44,3.18v0.48C288.64,51.33,293.8,54.87,294.88,54.87z M288.64,47.91v0.48V47.91z"/>
		<path class="st149" d="M310.06,48.15c0.3,0,0.96,0.72,1.86,1.44c1.02,0.72,2.04,0.9,2.04,1.74c0,2.52-2.16,5.76-6.78,8.1
			c-0.72,0.36-0.78-0.18-0.24-0.78c1.68-1.86,3.06-2.94,2.76-4.32c-0.66-0.78-3.66-1.92-3.66-3.18
			C306.04,50.49,309.52,48.15,310.06,48.15z"/>
		<path class="st149" d="M341.92,23.85c6.42,0,10.5,3.72,12.24,5.58c0.24,0.24,0.06,0.36-0.12,0.48c-1.38,0.78-3.06,2.76-3.96,4.02
			c-0.24,0.36-0.42,0.48-0.6,0.06c-1.14-2.52-4.56-7.44-10.26-7.44c-2.82,0-6.54,1.74-6.54,5.64v20.34c0,7.2-10.14,8.4-13.8,8.4
			c-1.02,0-0.78-0.42-0.3-0.54c3.66-1.02,8.88-4.68,8.88-7.86V32.25C327.46,26.61,333.28,23.85,341.92,23.85z M327.46,50.85h-0.06
			H327.46z"/>
		<path class="st149" d="M373.12,23.85c6.42,0,10.5,3.72,12.24,5.58c0.24,0.24,0.06,0.36-0.12,0.48c-1.38,0.78-3.06,2.76-3.96,4.02
			c-0.24,0.36-0.42,0.48-0.6,0.06c-1.14-2.52-4.56-7.44-10.26-7.44c-2.82,0-6.54,1.74-6.54,5.64v11.16c3.9-2.22,7.2-4.98,7.2-6.12
			c0-0.3-1.38-0.84,0-1.2c1.56-0.42,3.78-1.08,5.1-1.38c1.8-0.42,0.6,2.88-1.86,5.1c-3.06,2.7-6.84,4.5-10.44,5.4v7.38v0.06
			c3.9-2.22,7.2-4.98,7.2-6.12c0-0.3-1.38-0.84,0-1.2c1.56-0.42,3.78-1.08,5.1-1.38c1.8-0.42,0.6,2.88-1.86,5.1
			c-3.12,2.76-7.02,4.62-10.68,5.46c-1.62,5.52-10.26,6.48-13.56,6.48c-1.02,0-0.78-0.42-0.3-0.54c3.66-1.02,8.88-4.68,8.88-7.86
			V32.25C358.66,26.61,364.48,23.85,373.12,23.85z M358.66,50.85h-0.06H358.66z"/>
		<path class="st149" d="M388.72,51.69c-5.82-7.5-2.4-16.98,2.46-22.02c5.16-5.76,12.24-7.8,19.68-3.72
			c7.62,4.2,10.2,14.16,3.18,24.18C407.08,60.03,392.8,56.91,388.72,51.69z M407.68,31.47c-4.74-3.66-12.3-4.08-14.88-1.32
			c-3.66,3.9-2.88,11.16,0.12,16.08c3.78-2.28,6.54-5.04,6.54-6.18c0-0.3-1.38-0.84,0-1.2c2.7-0.54,4.32-0.78,6.72-1.38
			c1.8-0.42,0.66,2.76-1.68,5.1c-2.58,2.52-6.78,4.26-10.5,5.16c4.68,5.7,13.5,6.3,16.38,3.48
			C416.14,45.57,413.26,35.79,407.68,31.47z"/>
		<path class="st149" d="M424.66,48.15c0.3,0,0.96,0.72,1.86,1.44c1.02,0.72,2.04,0.9,2.04,1.74c0,2.52-2.16,5.76-6.78,8.1
			c-0.72,0.36-0.78-0.18-0.24-0.78c1.68-1.86,3.06-2.94,2.76-4.32c-0.66-0.78-3.66-1.92-3.66-3.18
			C420.64,50.49,424.12,48.15,424.66,48.15z"/>
		<path class="st149" d="M452.44,29.97v15.72c0,0,5.28-4.74,7.2-4.74c2.7,0,7.02,1.44,7.02,6.54c0,3.9-5.16,9.24-8.82,9.24
			c-2.28,0-4.44-0.78-5.94-2.1l-2.76,1.5c-0.18,0.12-1.38,0.9-1.56,1.08c-0.48,0.42-0.54,0.42-0.48,0.12
			c0.06-0.18,0.12-1.38,0.12-1.98v-6.78c0-6.66-7.5-6.36-12.48-1.92c-1.14,1.02-0.9,0-0.48-0.54c3.78-5.34,9.06-6.18,12.96-5.16
			v-0.36c0-6.66-7.5-6.36-12.48-1.92c-1.14,1.02-0.9,0-0.48-0.54c3.78-5.34,9.06-6.18,12.96-5.16v-0.12c0-6.66-7.5-6.36-12.48-1.92
			c-1.14,1.02-0.9,0-0.48-0.54C440.92,20.91,452.44,25.53,452.44,29.97z M458.68,54.87c1.8,0,3.06-1.32,3.06-3.54
			c0-6.3-3.9-7.32-4.86-6.6l-4.44,3.18v0.48C452.44,51.33,457.6,54.87,458.68,54.87z M452.44,47.91v0.48V47.91z"/>
		<path class="st149" d="M489.52,29.97v15.72c0,0,5.28-4.74,7.2-4.74c2.7,0,7.02,1.44,7.02,6.54c0,3.9-5.16,9.24-8.82,9.24
			c-2.28,0-4.44-0.78-5.94-2.1l-2.76,1.5c-0.18,0.12-1.38,0.9-1.56,1.08c-0.48,0.42-0.54,0.42-0.48,0.12
			c0.06-0.18,0.12-1.38,0.12-1.98v-22.5c0-6.66-7.5-6.36-12.48-1.92c-1.14,1.02-0.9,0-0.48-0.54
			C478,20.91,489.52,25.53,489.52,29.97z M495.76,54.87c1.8,0,3.06-1.32,3.06-3.54c0-6.3-3.9-7.32-4.86-6.6l-4.44,3.18v0.48
			C489.52,51.33,494.68,54.87,495.76,54.87z"/>
		<path class="st149" d="M535.96,52.77c2.04-0.36,2.28-0.3,1.62,0.18c-0.42,0.3-2.7,2.58-3.54,3.36l-0.12,0.12h-25.5h-0.06h-0.06
			h0.06l0.06-0.06h-0.36l16.74-25.92c2.28-3.48,5.04-4.86,8.58-4.86c2.52,0,5.58,2.64,5.58,6.3c0,5.34-4.02,8.46-6.36,10.62
			c-0.3,0.24-0.66,0.06-0.18-0.72c1.5-2.16,2.94-5.94,0.96-9.06c-1.32-2.1-2.7-2.64-3.96-2.64c-0.9,0-1.74,0.36-3.06,2.4
			L513.1,53.07h16.56C530.38,53.07,535.18,52.89,535.96,52.77z"/>
		<path class="st149" d="M142.66,103.17c0,7.86-7.68,11.04-13.68,11.34v5.58l-3.3,1.8c-0.18,0.12-1.38,0.9-1.56,1.08
			c-0.48,0.42-0.54,0.42-0.48,0.12c0.06-0.18,0.12-1.38,0.12-1.98v-15.72l-3.72,0.24c-2.04,0.36-2.28,0.3-1.62-0.18
			c0.42-0.3,2.7-2.58,3.54-3.36l0.12-0.12h4.74c0.72,0,5.52-0.18,6.3-0.3c2.04-0.36,2.28-0.3,1.62,0.18
			c-0.42,0.3-2.7,2.58-3.54,3.36l-0.12,0.12h-2.1v8.16c4.62-1.62,8.1-3.72,8.1-9c0-10.44-10.14-11.76-12.3-9
			c-0.18,0.18-2.04-1.44-2.22-1.62c-0.54-0.54,0.6-1.62,7.32-1.62C138.04,92.25,142.66,97.83,142.66,103.17z"/>
		<path class="st149" d="M185.26,108.15c0.3,0,0.96,0.72,1.86,1.44c1.02,0.72,2.04,0.9,2.04,1.74c0,2.52-2.16,5.76-6.78,8.1
			c-0.72,0.36-0.78-0.18-0.24-0.78c1.68-1.86,3.06-2.94,2.76-4.32c-0.66-0.78-3.66-1.92-3.66-3.18
			C181.24,110.49,184.72,108.15,185.26,108.15z"/>
		<path class="st149" d="M305.26,108.15c0.3,0,0.96,0.72,1.86,1.44c1.02,0.72,2.04,0.9,2.04,1.74c0,2.52-2.16,5.76-6.78,8.1
			c-0.72,0.36-0.78-0.18-0.24-0.78c1.68-1.86,3.06-2.94,2.76-4.32c-0.66-0.78-3.66-1.92-3.66-3.18
			C301.24,110.49,304.72,108.15,305.26,108.15z"/>
		<path class="st149" d="M425.26,108.15c0.3,0,0.96,0.72,1.86,1.44c1.02,0.72,2.04,0.9,2.04,1.74c0,2.52-2.16,5.76-6.78,8.1
			c-0.72,0.36-0.78-0.18-0.24-0.78c1.68-1.86,3.06-2.94,2.76-4.32c-0.66-0.78-3.66-1.92-3.66-3.18
			C421.24,110.49,424.72,108.15,425.26,108.15z"/>
		<g>
			<linearGradient id="SVGID_1_" gradientUnits="userSpaceOnUse" x1="146.41" y1="101.853" x2="534.0175" y2="101.853">
				<stop  offset="0" style="stop-color:#4C5FBF"/>
				<stop  offset="0.3" style="stop-color:#4889D1"/>
				<stop  offset="0.5" style="stop-color:#47AADD"/>
				<stop  offset="1" style="stop-color:#FE9934"/>
			</linearGradient>
			<path class="st0" d="M162.64,84.57c6.24,0,10.98,2.16,10.98,4.62v21.96c0,5.82,4.74,6.9,7.2,7.44c0.42,0.12,0.3,0.42-0.06,0.42
				c-5.4,0-12.36-0.66-12.36-8.94v-8.58c-7.98,4.38-12.12,7.74-13.02,11.64c-0.48,2.1,0,2.82,1.5,3.66c0.42,0.24,0.42,0.48,0,0.48
				c-1.8,0-5.28,1.32-6.66,1.86c-0.96-0.48-2.1-1.32-2.1-3.48c0-4.8,7.32-9.36,20.28-16.5v-6.3c0-3.66-4.92-5.16-8.04-5.16
				c-3.18,0-7.56,1.44-11.46,4.5c-0.54,0.42-1.08,0-0.72-0.54C149.56,89.61,153.7,84.57,162.64,84.57z"/>
			
				<linearGradient id="SVGID_00000178203725747411073370000003048219550758884510_" gradientUnits="userSpaceOnUse" x1="146.41" y1="101.1978" x2="534.0175" y2="101.1978">
				<stop  offset="0" style="stop-color:#4C5FBF"/>
				<stop  offset="0.3" style="stop-color:#4889D1"/>
				<stop  offset="0.5" style="stop-color:#47AADD"/>
				<stop  offset="1" style="stop-color:#FE9934"/>
			</linearGradient>
			<path style="fill:url(#SVGID_00000178203725747411073370000003048219550758884510_);" d="M212.32,89.97v15.72
				c0,0,5.28-4.74,7.2-4.74c2.7,0,7.02,1.44,7.02,6.54c0,3.9-5.16,9.24-8.82,9.24c-2.28,0-4.44-0.78-5.94-2.1l-2.76,1.5
				c-0.18,0.12-1.38,0.9-1.56,1.08c-0.48,0.42-0.54,0.42-0.48,0.12c0.06-0.18,0.12-1.38,0.12-1.98v-22.5c0-6.66-7.5-6.36-12.48-1.92
				c-1.14,1.02-0.9,0-0.48-0.54C200.8,80.91,212.32,85.53,212.32,89.97z M218.56,114.87c1.8,0,3.06-1.32,3.06-3.54
				c0-6.3-3.9-7.32-4.86-6.6l-4.44,3.18v0.48C212.32,111.33,217.48,114.87,218.56,114.87z"/>
			
				<linearGradient id="SVGID_00000160190359820386026320000008911539998936799657_" gradientUnits="userSpaceOnUse" x1="146.41" y1="101.1978" x2="534.0175" y2="101.1978">
				<stop  offset="0" style="stop-color:#4C5FBF"/>
				<stop  offset="0.3" style="stop-color:#4889D1"/>
				<stop  offset="0.5" style="stop-color:#47AADD"/>
				<stop  offset="1" style="stop-color:#FE9934"/>
			</linearGradient>
			<path style="fill:url(#SVGID_00000160190359820386026320000008911539998936799657_);" d="M248.32,89.97v15.72
				c0,0,5.28-4.74,7.2-4.74c2.7,0,7.02,1.44,7.02,6.54c0,3.9-5.16,9.24-8.82,9.24c-2.28,0-4.44-0.78-5.94-2.1l-2.76,1.5
				c-0.18,0.12-1.38,0.9-1.56,1.08c-0.48,0.42-0.54,0.42-0.48,0.12c0.06-0.18,0.12-1.38,0.12-1.98v-14.76
				c0-6.66-7.5-6.36-12.48-1.92c-1.14,1.02-0.9,0-0.48-0.54c3.78-5.34,9.06-6.18,12.96-5.16v-0.12c0-6.66-7.5-6.36-12.48-1.92
				c-1.14,1.02-0.9,0-0.48-0.54C236.8,80.91,248.32,85.53,248.32,89.97z M254.56,114.87c1.8,0,3.06-1.32,3.06-3.54
				c0-6.3-3.9-7.32-4.86-6.6l-4.44,3.18v0.48C248.32,111.33,253.48,114.87,254.56,114.87z"/>
			
				<linearGradient id="SVGID_00000024721663349360924300000006285903418906994335_" gradientUnits="userSpaceOnUse" x1="146.41" y1="101.1978" x2="534.0175" y2="101.1978">
				<stop  offset="0" style="stop-color:#4C5FBF"/>
				<stop  offset="0.3" style="stop-color:#4889D1"/>
				<stop  offset="0.5" style="stop-color:#47AADD"/>
				<stop  offset="1" style="stop-color:#FE9934"/>
			</linearGradient>
			<path style="fill:url(#SVGID_00000024721663349360924300000006285903418906994335_);" d="M284.32,89.97v15.72
				c0,0,5.28-4.74,7.2-4.74c2.7,0,7.02,1.44,7.02,6.54c0,3.9-5.16,9.24-8.82,9.24c-2.28,0-4.44-0.78-5.94-2.1l-2.76,1.5
				c-0.18,0.12-1.38,0.9-1.56,1.08c-0.48,0.42-0.54,0.42-0.48,0.12c0.06-0.18,0.12-1.38,0.12-1.98v-6.78c0-6.66-7.5-6.36-12.48-1.92
				c-1.14,1.02-0.9,0-0.48-0.54c3.78-5.34,9.06-6.18,12.96-5.16v-0.36c0-6.66-7.5-6.36-12.48-1.92c-1.14,1.02-0.9,0-0.48-0.54
				c3.78-5.34,9.06-6.18,12.96-5.16v-0.12c0-6.66-7.5-6.36-12.48-1.92c-1.14,1.02-0.9,0-0.48-0.54
				C272.8,80.91,284.32,85.53,284.32,89.97z M290.56,114.87c1.8,0,3.06-1.32,3.06-3.54c0-6.3-3.9-7.32-4.86-6.6l-4.44,3.18v0.48
				C284.32,111.33,289.48,114.87,290.56,114.87z M284.32,107.91v0.48V107.91z"/>
			
				<linearGradient id="SVGID_00000142872043445891383150000017980052776668283581_" gradientUnits="userSpaceOnUse" x1="146.41" y1="102.3935" x2="534.0175" y2="102.3935">
				<stop  offset="0" style="stop-color:#4C5FBF"/>
				<stop  offset="0.3" style="stop-color:#4889D1"/>
				<stop  offset="0.5" style="stop-color:#47AADD"/>
				<stop  offset="1" style="stop-color:#FE9934"/>
			</linearGradient>
			<path style="fill:url(#SVGID_00000142872043445891383150000017980052776668283581_);" d="M336.1,83.85
				c6.42,0,10.5,3.72,12.24,5.58c0.24,0.24,0.06,0.36-0.12,0.48c-1.38,0.78-3.06,2.76-3.96,4.02c-0.24,0.36-0.42,0.48-0.6,0.06
				c-1.14-2.52-4.56-7.44-10.26-7.44c-2.82,0-6.54,1.74-6.54,5.64v20.34c0,7.2-10.14,8.4-13.8,8.4c-1.02,0-0.78-0.42-0.3-0.54
				c3.66-1.02,8.88-4.68,8.88-7.86V92.25C321.64,86.61,327.46,83.85,336.1,83.85z M321.64,110.85h-0.06H321.64z"/>
			
				<linearGradient id="SVGID_00000171678441166261808060000003364517911372834947_" gradientUnits="userSpaceOnUse" x1="146.41" y1="102.3935" x2="534.0175" y2="102.3935">
				<stop  offset="0" style="stop-color:#4C5FBF"/>
				<stop  offset="0.3" style="stop-color:#4889D1"/>
				<stop  offset="0.5" style="stop-color:#47AADD"/>
				<stop  offset="1" style="stop-color:#FE9934"/>
			</linearGradient>
			<path style="fill:url(#SVGID_00000171678441166261808060000003364517911372834947_);" d="M372.1,83.85
				c6.42,0,10.5,3.72,12.24,5.58c0.24,0.24,0.06,0.36-0.12,0.48c-1.38,0.78-3.06,2.76-3.96,4.02c-0.24,0.36-0.42,0.48-0.6,0.06
				c-1.14-2.52-4.56-7.44-10.26-7.44c-2.82,0-6.54,1.74-6.54,5.64v11.16c3.9-2.22,7.2-4.98,7.2-6.12c0-0.3-1.38-0.84,0-1.2
				c1.56-0.42,3.78-1.08,5.1-1.38c1.8-0.42,0.6,2.88-1.86,5.1c-3.06,2.7-6.84,4.5-10.44,5.4v7.38v0.06c3.9-2.22,7.2-4.98,7.2-6.12
				c0-0.3-1.38-0.84,0-1.2c1.56-0.42,3.78-1.08,5.1-1.38c1.8-0.42,0.6,2.88-1.86,5.1c-3.12,2.76-7.02,4.62-10.68,5.46
				c-1.62,5.52-10.26,6.48-13.56,6.48c-1.02,0-0.78-0.42-0.3-0.54c3.66-1.02,8.88-4.68,8.88-7.86V92.25
				C357.64,86.61,363.46,83.85,372.1,83.85z M357.64,110.85h-0.06H357.64z"/>
			
				<linearGradient id="SVGID_00000060029942529440190710000006149839518838878638_" gradientUnits="userSpaceOnUse" x1="146.41" y1="100.2067" x2="534.0175" y2="100.2067">
				<stop  offset="0" style="stop-color:#4C5FBF"/>
				<stop  offset="0.3" style="stop-color:#4889D1"/>
				<stop  offset="0.5" style="stop-color:#47AADD"/>
				<stop  offset="1" style="stop-color:#FE9934"/>
			</linearGradient>
			<path style="fill:url(#SVGID_00000060029942529440190710000006149839518838878638_);" d="M389.32,111.69
				c-5.82-7.5-2.4-16.98,2.46-22.02c5.16-5.76,12.24-7.8,19.68-3.72c7.62,4.2,10.2,14.16,3.18,24.18
				C407.68,120.03,393.4,116.91,389.32,111.69z M408.28,91.47c-4.74-3.66-12.3-4.08-14.88-1.32c-3.66,3.9-2.88,11.16,0.12,16.08
				c3.78-2.28,6.54-5.04,6.54-6.18c0-0.3-1.38-0.84,0-1.2c2.7-0.54,4.32-0.78,6.72-1.38c1.8-0.42,0.66,2.76-1.68,5.1
				c-2.58,2.52-6.78,4.26-10.5,5.16c4.68,5.7,13.5,6.3,16.38,3.48C416.74,105.57,413.86,95.79,408.28,91.47z"/>
			
				<linearGradient id="SVGID_00000176733401503418779040000013126961923967624094_" gradientUnits="userSpaceOnUse" x1="146.41" y1="101.1978" x2="534.0175" y2="101.1978">
				<stop  offset="0" style="stop-color:#4C5FBF"/>
				<stop  offset="0.3" style="stop-color:#4889D1"/>
				<stop  offset="0.5" style="stop-color:#47AADD"/>
				<stop  offset="1" style="stop-color:#FE9934"/>
			</linearGradient>
			<path style="fill:url(#SVGID_00000176733401503418779040000013126961923967624094_);" d="M452.32,89.97v15.72
				c0,0,5.28-4.74,7.2-4.74c2.7,0,7.02,1.44,7.02,6.54c0,3.9-5.16,9.24-8.82,9.24c-2.28,0-4.44-0.78-5.94-2.1l-2.76,1.5
				c-0.18,0.12-1.38,0.9-1.56,1.08c-0.48,0.42-0.54,0.42-0.48,0.12c0.06-0.18,0.12-1.38,0.12-1.98v-6.78c0-6.66-7.5-6.36-12.48-1.92
				c-1.14,1.02-0.9,0-0.48-0.54c3.78-5.34,9.06-6.18,12.96-5.16v-0.36c0-6.66-7.5-6.36-12.48-1.92c-1.14,1.02-0.9,0-0.48-0.54
				c3.78-5.34,9.06-6.18,12.96-5.16v-0.12c0-6.66-7.5-6.36-12.48-1.92c-1.14,1.02-0.9,0-0.48-0.54
				C440.8,80.91,452.32,85.53,452.32,89.97z M458.56,114.87c1.8,0,3.06-1.32,3.06-3.54c0-6.3-3.9-7.32-4.86-6.6l-4.44,3.18v0.48
				C452.32,111.33,457.48,114.87,458.56,114.87z M452.32,107.91v0.48V107.91z"/>
			
				<linearGradient id="SVGID_00000081607149138638768770000011899962869223462328_" gradientUnits="userSpaceOnUse" x1="146.41" y1="101.1978" x2="534.0175" y2="101.1978">
				<stop  offset="0" style="stop-color:#4C5FBF"/>
				<stop  offset="0.3" style="stop-color:#4889D1"/>
				<stop  offset="0.5" style="stop-color:#47AADD"/>
				<stop  offset="1" style="stop-color:#FE9934"/>
			</linearGradient>
			<path style="fill:url(#SVGID_00000081607149138638768770000011899962869223462328_);" d="M488.32,89.97v15.72
				c0,0,5.28-4.74,7.2-4.74c2.7,0,7.02,1.44,7.02,6.54c0,3.9-5.16,9.24-8.82,9.24c-2.28,0-4.44-0.78-5.94-2.1l-2.76,1.5
				c-0.18,0.12-1.38,0.9-1.56,1.08c-0.48,0.42-0.54,0.42-0.48,0.12c0.06-0.18,0.12-1.38,0.12-1.98v-22.5c0-6.66-7.5-6.36-12.48-1.92
				c-1.14,1.02-0.9,0-0.48-0.54C476.8,80.91,488.32,85.53,488.32,89.97z M494.56,114.87c1.8,0,3.06-1.32,3.06-3.54
				c0-6.3-3.9-7.32-4.86-6.6l-4.44,3.18v0.48C488.32,111.33,493.48,114.87,494.56,114.87z"/>
			
				<linearGradient id="SVGID_00000166642760468552703290000003832525576179336351_" gradientUnits="userSpaceOnUse" x1="146.41" y1="101.0137" x2="534.0175" y2="101.0137">
				<stop  offset="0" style="stop-color:#4C5FBF"/>
				<stop  offset="0.3" style="stop-color:#4889D1"/>
				<stop  offset="0.5" style="stop-color:#47AADD"/>
				<stop  offset="1" style="stop-color:#FE9934"/>
			</linearGradient>
			<path style="fill:url(#SVGID_00000166642760468552703290000003832525576179336351_);" d="M534.16,112.77
				c2.04-0.36,2.28-0.3,1.62,0.18c-0.42,0.3-2.7,2.58-3.54,3.36l-0.12,0.12h-25.5h-0.06h-0.06h0.06l0.06-0.06h-0.36L523,90.45
				c2.28-3.48,5.04-4.86,8.58-4.86c2.52,0,5.58,2.64,5.58,6.3c0,5.34-4.02,8.46-6.36,10.62c-0.3,0.24-0.66,0.06-0.18-0.72
				c1.5-2.16,2.94-5.94,0.96-9.06c-1.32-2.1-2.7-2.64-3.96-2.64c-0.9,0-1.74,0.36-3.06,2.4l-13.26,20.58h16.56
				C528.58,113.07,533.38,112.89,534.16,112.77z"/>
		</g>
	</g>
	<g>
		<path class="st149" d="M630.46,43.17c0,7.86-7.68,11.04-13.68,11.34v5.58l-3.3,1.8c-0.18,0.12-1.38,0.9-1.56,1.08
			c-0.48,0.42-0.54,0.42-0.48,0.12c0.06-0.18,0.12-1.38,0.12-1.98V45.39l-3.72,0.24c-2.04,0.36-2.28,0.3-1.62-0.18
			c0.42-0.3,2.7-2.58,3.54-3.36l0.12-0.12h4.74c0.72,0,5.52-0.18,6.3-0.3c2.04-0.36,2.28-0.3,1.62,0.18
			c-0.42,0.3-2.7,2.58-3.54,3.36l-0.12,0.12h-2.1v8.16c4.62-1.62,8.1-3.72,8.1-9c0-10.44-10.14-11.76-12.3-9
			c-0.18,0.18-2.04-1.44-2.22-1.62c-0.54-0.54,0.6-1.62,7.32-1.62C625.84,32.25,630.46,37.83,630.46,43.17z"/>
		<path class="st149" d="M670.66,48.15c0.3,0,0.96,0.72,1.86,1.44c1.02,0.72,2.04,0.9,2.04,1.74c0,2.52-2.16,5.76-6.78,8.1
			c-0.72,0.36-0.78-0.18-0.24-0.78c1.68-1.86,3.06-2.94,2.76-4.32c-0.66-0.78-3.66-1.92-3.66-3.18
			C666.64,50.49,670.12,48.15,670.66,48.15z"/>
		<path class="st149" d="M794.26,48.15c0.3,0,0.96,0.72,1.86,1.44c1.02,0.72,2.04,0.9,2.04,1.74c0,2.52-2.16,5.76-6.78,8.1
			c-0.72,0.36-0.78-0.18-0.24-0.78c1.68-1.86,3.06-2.94,2.76-4.32c-0.66-0.78-3.66-1.92-3.66-3.18
			C790.24,50.49,793.72,48.15,794.26,48.15z"/>
		<path class="st149" d="M898.66,48.15c0.3,0,0.96,0.72,1.86,1.44c1.02,0.72,2.04,0.9,2.04,1.74c0,2.52-2.16,5.76-6.78,8.1
			c-0.72,0.36-0.78-0.18-0.24-0.78c1.68-1.86,3.06-2.94,2.76-4.32c-0.66-0.78-3.66-1.92-3.66-3.18
			C894.64,50.49,898.12,48.15,898.66,48.15z"/>
		<path class="st149" d="M641.86,103.17c0,7.86-7.68,11.04-13.68,11.34v5.58l-3.3,1.8c-0.18,0.12-1.38,0.9-1.56,1.08
			c-0.48,0.42-0.54,0.42-0.48,0.12c0.06-0.18,0.12-1.38,0.12-1.98v-15.72l-3.72,0.24c-2.04,0.36-2.28,0.3-1.62-0.18
			c0.42-0.3,2.7-2.58,3.54-3.36l0.12-0.12h4.74c0.72,0,5.52-0.18,6.3-0.3c2.04-0.36,2.28-0.3,1.62,0.18
			c-0.42,0.3-2.7,2.58-3.54,3.36l-0.12,0.12h-2.1v8.16c4.62-1.62,8.1-3.72,8.1-9c0-10.44-10.14-11.76-12.3-9
			c-0.18,0.18-2.04-1.44-2.22-1.62c-0.54-0.54,0.6-1.62,7.32-1.62C637.24,92.25,641.86,97.83,641.86,103.17z"/>
		<path class="st149" d="M681.46,108.15c0.3,0,0.96,0.72,1.86,1.44c1.02,0.72,2.04,0.9,2.04,1.74c0,2.52-2.16,5.76-6.78,8.1
			c-0.72,0.36-0.78-0.18-0.24-0.78c1.68-1.86,3.06-2.94,2.76-4.32c-0.66-0.78-3.66-1.92-3.66-3.18
			C677.44,110.49,680.92,108.15,681.46,108.15z"/>
		<path class="st149" d="M792.46,108.15c0.3,0,0.96,0.72,1.86,1.44c1.02,0.72,2.04,0.9,2.04,1.74c0,2.52-2.16,5.76-6.78,8.1
			c-0.72,0.36-0.78-0.18-0.24-0.78c1.68-1.86,3.06-2.94,2.76-4.32c-0.66-0.78-3.66-1.92-3.66-3.18
			C788.44,110.49,791.92,108.15,792.46,108.15z"/>
		<path class="st149" d="M903.46,108.15c0.3,0,0.96,0.72,1.86,1.44c1.02,0.72,2.04,0.9,2.04,1.74c0,2.52-2.16,5.76-6.78,8.1
			c-0.72,0.36-0.78-0.18-0.24-0.78c1.68-1.86,3.06-2.94,2.76-4.32c-0.66-0.78-3.66-1.92-3.66-3.18
			C899.44,110.49,902.92,108.15,903.46,108.15z"/>
		<g>
			
				<linearGradient id="SVGID_00000153695006821014548800000012350123164066166919_" gradientUnits="userSpaceOnUse" x1="638.41" y1="47.583" x2="1016.4176" y2="47.583">
				<stop  offset="0" style="stop-color:#4C5FBF"/>
				<stop  offset="0.3" style="stop-color:#4889D1"/>
				<stop  offset="0.5" style="stop-color:#47AADD"/>
				<stop  offset="1" style="stop-color:#FE9934"/>
			</linearGradient>
			<path style="fill:url(#SVGID_00000153695006821014548800000012350123164066166919_);" d="M645.58,35.37
				c-2.58,0-6.48,1.38-10.5,4.5c-0.6,0.48-1.32,0.06-0.9-0.48c1.62-2.1,5.28-7.14,13.98-7.14c5.76,0,9.42,2.52,9.42,4.98v17.52
				c0,5.82,4.74,6.9,7.2,7.44c0.42,0.12,0.3,0.42-0.06,0.42c-5.4,0-12.36-0.66-12.36-8.94v-6.18c-5.76,3.06-10.38,5.7-11.34,9.9
				c-0.42,1.92,0,2.58,1.38,3.36c0.42,0.24,0.42,0.36,0,0.42c-1.44,0.18-4.38,1.26-5.64,1.74c-0.9-0.42-1.92-1.2-1.92-3.24
				c0-3.72,6.3-7.98,17.52-14.28v-5.52C652.36,37.23,649.54,35.37,645.58,35.37z"/>
			
				<linearGradient id="SVGID_00000055699932513609313270000002784440116574475150_" gradientUnits="userSpaceOnUse" x1="638.41" y1="49.3145" x2="1016.4176" y2="49.3145">
				<stop  offset="0" style="stop-color:#4C5FBF"/>
				<stop  offset="0.3" style="stop-color:#4889D1"/>
				<stop  offset="0.5" style="stop-color:#47AADD"/>
				<stop  offset="1" style="stop-color:#FE9934"/>
			</linearGradient>
			<path style="fill:url(#SVGID_00000055699932513609313270000002784440116574475150_);" d="M698.2,37.47v16.74
				c0,0,5.28-4.74,7.2-4.74c2.7,0,7.02,1.44,7.02,6.54c0,3.9-5.16,9.24-8.82,9.24c-2.22,0-4.32-0.72-5.82-2.04l-2.88,1.56
				c-0.18,0.12-1.38,0.9-1.56,1.08c-0.48,0.42-0.54,0.42-0.48,0.12c0.06-0.18,0.12-1.38,0.12-1.98V40.35
				c0-6.66-7.38-5.16-11.28-1.92c-1.14,0.96-0.9,0-0.48-0.54C688.78,28.41,698.2,33.33,698.2,37.47z M704.44,63.39
				c1.8,0,3.06-1.32,3.06-3.54c0-6.3-3.9-7.32-4.86-6.6l-4.44,3.18v0.48C698.2,59.85,703.36,63.39,704.44,63.39z"/>
			
				<linearGradient id="SVGID_00000005268921476652926770000006462699452995146644_" gradientUnits="userSpaceOnUse" x1="638.41" y1="49.3145" x2="1016.4176" y2="49.3145">
				<stop  offset="0" style="stop-color:#4C5FBF"/>
				<stop  offset="0.3" style="stop-color:#4889D1"/>
				<stop  offset="0.5" style="stop-color:#47AADD"/>
				<stop  offset="1" style="stop-color:#FE9934"/>
			</linearGradient>
			<path style="fill:url(#SVGID_00000005268921476652926770000006462699452995146644_);" d="M742.6,49.47c2.7,0,7.02,1.44,7.02,6.54
				c0,3.9-5.16,9.24-8.82,9.24c-2.22,0-4.32-0.72-5.82-2.04l-2.88,1.56c-0.18,0.12-1.38,0.9-1.56,1.08
				c-0.48,0.42-0.54,0.42-0.48,0.12c0.06-0.18,0.12-1.38,0.12-1.98v-15c0-6.66-7.38-5.16-11.28-1.92c-1.14,0.96-0.9,0-0.48-0.54
				c3.96-4.98,8.4-6,11.76-5.22v-0.96c0-6.66-7.38-5.16-11.28-1.92c-1.14,0.96-0.9,0-0.48-0.54c7.56-9.48,16.98-4.56,16.98-0.42
				v16.74C735.4,54.21,740.68,49.47,742.6,49.47z M741.64,63.39c1.8,0,3.06-1.32,3.06-3.54c0-6.3-3.9-7.32-4.86-6.6l-4.44,3.18v0.48
				C735.4,59.85,740.56,63.39,741.64,63.39z"/>
			
				<linearGradient id="SVGID_00000137121968423200342770000001267486315416814233_" gradientUnits="userSpaceOnUse" x1="638.41" y1="49.3145" x2="1016.4176" y2="49.3145">
				<stop  offset="0" style="stop-color:#4C5FBF"/>
				<stop  offset="0.3" style="stop-color:#4889D1"/>
				<stop  offset="0.5" style="stop-color:#47AADD"/>
				<stop  offset="1" style="stop-color:#FE9934"/>
			</linearGradient>
			<path style="fill:url(#SVGID_00000137121968423200342770000001267486315416814233_);" d="M779.8,49.47c2.7,0,7.02,1.44,7.02,6.54
				c0,3.9-5.16,9.24-8.82,9.24c-2.22,0-4.32-0.72-5.82-2.04l-2.88,1.56c-0.18,0.12-1.38,0.9-1.56,1.08
				c-0.48,0.42-0.54,0.42-0.48,0.12c0.06-0.18,0.12-1.38,0.12-1.98v-6.54c0-6.66-7.38-5.16-11.28-1.92c-1.14,0.96-0.9,0-0.48-0.54
				c3.96-4.98,8.4-6,11.76-5.22v-0.78c0-6.66-7.38-5.16-11.28-1.92c-1.14,0.96-0.9,0-0.48-0.54c3.96-4.98,8.4-6,11.76-5.22v-0.96
				c0-6.66-7.38-5.16-11.28-1.92c-1.14,0.96-0.9,0-0.48-0.54c7.56-9.48,16.98-4.56,16.98-0.42v16.74
				C772.6,54.21,777.88,49.47,779.8,49.47z M778.84,63.39c1.8,0,3.06-1.32,3.06-3.54c0-6.3-3.9-7.32-4.86-6.6l-4.44,3.18v0.48
				C772.6,59.85,777.76,63.39,778.84,63.39z"/>
			
				<linearGradient id="SVGID_00000038395640280543493400000012160969696072388487_" gradientUnits="userSpaceOnUse" x1="638.41" y1="49.1133" x2="1016.4176" y2="49.1133">
				<stop  offset="0" style="stop-color:#4C5FBF"/>
				<stop  offset="0.3" style="stop-color:#4889D1"/>
				<stop  offset="0.5" style="stop-color:#47AADD"/>
				<stop  offset="1" style="stop-color:#FE9934"/>
			</linearGradient>
			<path style="fill:url(#SVGID_00000038395640280543493400000012160969696072388487_);" d="M822.64,32.13
				c5.52,0,9.6,3.78,10.86,5.34c0.24,0.3-0.3,0.6-0.48,0.78c-1.02,0.84-2.28,2.22-3.12,3.36c-0.18,0.24-0.36,0.3-0.54,0
				c-1.2-2.4-4.68-7.56-8.52-7.56c-3.54,0-5.52,2.88-5.52,6.78v13.5c0,7.8-8.58,11.76-12.24,11.76c-1.02,0-0.78-0.42-0.3-0.54
				c3.66-1.02,7.32-5.16,7.32-9.66v-15C810.1,35.91,815.32,32.13,822.64,32.13z M810.1,53.25h-0.06H810.1z"/>
			
				<linearGradient id="SVGID_00000046307518822688973200000013190737750064592826_" gradientUnits="userSpaceOnUse" x1="638.41" y1="49.1133" x2="1016.4176" y2="49.1133">
				<stop  offset="0" style="stop-color:#4C5FBF"/>
				<stop  offset="0.3" style="stop-color:#4889D1"/>
				<stop  offset="0.5" style="stop-color:#47AADD"/>
				<stop  offset="1" style="stop-color:#FE9934"/>
			</linearGradient>
			<path style="fill:url(#SVGID_00000046307518822688973200000013190737750064592826_);" d="M855.64,32.13
				c5.52,0,9.6,3.78,10.86,5.34c0.24,0.3-0.3,0.6-0.48,0.78c-1.02,0.84-2.28,2.22-3.12,3.36c-0.18,0.24-0.36,0.3-0.54,0
				c-1.2-2.4-4.68-7.56-8.52-7.56c-3.54,0-5.52,2.88-5.52,6.78v7.98c3-1.68,5.28-3.9,5.28-4.8c0-0.24-1.02-0.66,0-0.9
				c1.98-0.42,3.18-0.6,4.98-1.02c1.32-0.3,0.48,2.04-1.26,3.78c-2.16,2.16-5.94,3.48-9,4.08v4.38c0,1.08-0.18,2.16-0.48,3.06
				c3.24-1.68,5.76-4.08,5.76-5.04c0-0.24-1.02-0.66,0-0.9c1.98-0.42,3.18-0.6,4.98-1.02c1.32-0.3,0.48,2.04-1.26,3.78
				c-2.4,2.34-6.72,3.78-9.9,4.2c-2.22,5.1-8.4,7.68-11.34,7.68c-1.02,0-0.78-0.42-0.3-0.54c3.66-1.02,7.32-5.16,7.32-9.66v-15
				C843.1,35.91,848.32,32.13,855.64,32.13z M843.1,53.25h-0.06H843.1z"/>
			
				<linearGradient id="SVGID_00000096032770845940833700000010665595390060098187_" gradientUnits="userSpaceOnUse" x1="638.41" y1="43.64" x2="1016.4176" y2="43.64">
				<stop  offset="0" style="stop-color:#4C5FBF"/>
				<stop  offset="0.3" style="stop-color:#4889D1"/>
				<stop  offset="0.5" style="stop-color:#47AADD"/>
				<stop  offset="1" style="stop-color:#FE9934"/>
			</linearGradient>
			<path style="fill:url(#SVGID_00000096032770845940833700000010665595390060098187_);" d="M871.66,51.57
				c-4.5-5.82-1.68-11.76,1.68-15.3c3.54-3.96,8.1-5.58,13.62-2.58c4.86,2.7,7.38,9.54,2.22,16.32
				C883.48,57.51,874.78,55.65,871.66,51.57z M884.2,37.83c-3.48-2.64-7.5-2.94-9.3-1.08c-2.34,2.46-1.62,7.8,0.36,10.8
				c2.52-1.62,4.26-3.42,4.26-4.2c0-0.24-1.02-0.66,0-0.9c1.98-0.42,3.18-0.6,4.98-1.02c1.32-0.3,0.48,2.04-1.26,3.78
				c-1.68,1.68-4.38,2.88-6.9,3.6c2.94,2.76,8.1,3.96,10.02,2.1C889.9,47.43,887.38,40.35,884.2,37.83z"/>
			
				<linearGradient id="SVGID_00000113321279131774978720000008354535284191777429_" gradientUnits="userSpaceOnUse" x1="638.41" y1="49.3145" x2="1016.4176" y2="49.3145">
				<stop  offset="0" style="stop-color:#4C5FBF"/>
				<stop  offset="0.3" style="stop-color:#4889D1"/>
				<stop  offset="0.5" style="stop-color:#47AADD"/>
				<stop  offset="1" style="stop-color:#FE9934"/>
			</linearGradient>
			<path style="fill:url(#SVGID_00000113321279131774978720000008354535284191777429_);" d="M933.4,49.47c2.7,0,7.02,1.44,7.02,6.54
				c0,3.9-5.16,9.24-8.82,9.24c-2.22,0-4.32-0.72-5.82-2.04l-2.88,1.56c-0.18,0.12-1.38,0.9-1.56,1.08
				c-0.48,0.42-0.54,0.42-0.48,0.12c0.06-0.18,0.12-1.38,0.12-1.98v-6.54c0-6.66-7.38-5.16-11.28-1.92c-1.14,0.96-0.9,0-0.48-0.54
				c3.96-4.98,8.4-6,11.76-5.22v-0.78c0-6.66-7.38-5.16-11.28-1.92c-1.14,0.96-0.9,0-0.48-0.54c3.96-4.98,8.4-6,11.76-5.22v-0.96
				c0-6.66-7.38-5.16-11.28-1.92c-1.14,0.96-0.9,0-0.48-0.54c7.56-9.48,16.98-4.56,16.98-0.42v16.74
				C926.2,54.21,931.48,49.47,933.4,49.47z M932.44,63.39c1.8,0,3.06-1.32,3.06-3.54c0-6.3-3.9-7.32-4.86-6.6l-4.44,3.18v0.48
				C926.2,59.85,931.36,63.39,932.44,63.39z"/>
			
				<linearGradient id="SVGID_00000145736885102259557930000009298455146955974577_" gradientUnits="userSpaceOnUse" x1="638.41" y1="49.3145" x2="1016.4176" y2="49.3145">
				<stop  offset="0" style="stop-color:#4C5FBF"/>
				<stop  offset="0.3" style="stop-color:#4889D1"/>
				<stop  offset="0.5" style="stop-color:#47AADD"/>
				<stop  offset="1" style="stop-color:#FE9934"/>
			</linearGradient>
			<path style="fill:url(#SVGID_00000145736885102259557930000009298455146955974577_);" d="M963.4,37.47v16.74
				c0,0,5.28-4.74,7.2-4.74c2.7,0,7.02,1.44,7.02,6.54c0,3.9-5.16,9.24-8.82,9.24c-2.22,0-4.32-0.72-5.82-2.04l-2.88,1.56
				c-0.18,0.12-1.38,0.9-1.56,1.08c-0.48,0.42-0.54,0.42-0.48,0.12c0.06-0.18,0.12-1.38,0.12-1.98V40.35
				c0-6.66-7.38-5.16-11.28-1.92c-1.14,0.96-0.9,0-0.48-0.54C953.98,28.41,963.4,33.33,963.4,37.47z M969.64,63.39
				c1.8,0,3.06-1.32,3.06-3.54c0-6.3-3.9-7.32-4.86-6.6l-4.44,3.18v0.48C963.4,59.85,968.56,63.39,969.64,63.39z"/>
			
				<linearGradient id="SVGID_00000083810927447711304240000002232663132196001166_" gradientUnits="userSpaceOnUse" x1="638.41" y1="44.4634" x2="1016.4176" y2="44.4634">
				<stop  offset="0" style="stop-color:#4C5FBF"/>
				<stop  offset="0.3" style="stop-color:#4889D1"/>
				<stop  offset="0.5" style="stop-color:#47AADD"/>
				<stop  offset="1" style="stop-color:#FE9934"/>
			</linearGradient>
			<path style="fill:url(#SVGID_00000083810927447711304240000002232663132196001166_);" d="M982.06,57.15h0.06H982.06z
				 M1002.34,45.39c7.56-3.12,6.3-13.56-0.36-13.62c-2.82,0-4.74,2.04-7.14,5.7l-12.72,19.68h19.38l0.12-0.12
				c0.84-0.78,3.12-3.06,3.54-3.36c0.66-0.48,0.42-0.54-1.62-0.18c-0.78,0.12-5.58,0.3-6.3,0.3h-10.08l9.48-14.7
				c2.04-3.18,2.7-3.72,4.02-3.72c3.84,0,3.9,6.06,1.56,9.48C1001.8,45.45,1002.16,45.45,1002.34,45.39z"/>
			
				<linearGradient id="SVGID_00000155826655276738522170000017993996069713829764_" gradientUnits="userSpaceOnUse" x1="638.41" y1="107.583" x2="1016.4176" y2="107.583">
				<stop  offset="0" style="stop-color:#4C5FBF"/>
				<stop  offset="0.3" style="stop-color:#4889D1"/>
				<stop  offset="0.5" style="stop-color:#47AADD"/>
				<stop  offset="1" style="stop-color:#FE9934"/>
			</linearGradient>
			<path style="fill:url(#SVGID_00000155826655276738522170000017993996069713829764_);" d="M656.98,95.37
				c-2.58,0-6.48,1.38-10.5,4.5c-0.6,0.48-1.32,0.06-0.9-0.48c1.62-2.1,5.28-7.14,13.98-7.14c5.76,0,9.42,2.52,9.42,4.98v17.52
				c0,5.82,4.74,6.9,7.2,7.44c0.42,0.12,0.3,0.42-0.06,0.42c-5.4,0-12.36-0.66-12.36-8.94v-6.18c-5.76,3.06-10.38,5.7-11.34,9.9
				c-0.42,1.92,0,2.58,1.38,3.36c0.42,0.24,0.42,0.36,0,0.42c-1.44,0.18-4.38,1.26-5.64,1.74c-0.9-0.42-1.92-1.2-1.92-3.24
				c0-3.72,6.3-7.98,17.52-14.28v-5.52C663.76,97.23,660.94,95.37,656.98,95.37z"/>
			
				<linearGradient id="SVGID_00000126313169432692492380000008983728640865315999_" gradientUnits="userSpaceOnUse" x1="638.41" y1="109.3145" x2="1016.4176" y2="109.3145">
				<stop  offset="0" style="stop-color:#4C5FBF"/>
				<stop  offset="0.3" style="stop-color:#4889D1"/>
				<stop  offset="0.5" style="stop-color:#47AADD"/>
				<stop  offset="1" style="stop-color:#FE9934"/>
			</linearGradient>
			<path style="fill:url(#SVGID_00000126313169432692492380000008983728640865315999_);" d="M706.66,97.47v16.74
				c0,0,5.28-4.74,7.2-4.74c2.7,0,7.02,1.44,7.02,6.54c0,3.9-5.16,9.24-8.82,9.24c-2.22,0-4.32-0.72-5.82-2.04l-2.88,1.56
				c-0.18,0.12-1.38,0.9-1.56,1.08c-0.48,0.42-0.54,0.42-0.48,0.12c0.06-0.18,0.12-1.38,0.12-1.98v-23.64
				c0-6.66-7.38-5.16-11.28-1.92c-1.14,0.96-0.9,0-0.48-0.54C697.24,88.41,706.66,93.33,706.66,97.47z M712.9,123.39
				c1.8,0,3.06-1.32,3.06-3.54c0-6.3-3.9-7.32-4.86-6.6l-4.44,3.18v0.48C706.66,119.85,711.82,123.39,712.9,123.39z"/>
			
				<linearGradient id="SVGID_00000095320870275066335710000015672974621658063270_" gradientUnits="userSpaceOnUse" x1="638.41" y1="109.3145" x2="1016.4176" y2="109.3145">
				<stop  offset="0" style="stop-color:#4C5FBF"/>
				<stop  offset="0.3" style="stop-color:#4889D1"/>
				<stop  offset="0.5" style="stop-color:#47AADD"/>
				<stop  offset="1" style="stop-color:#FE9934"/>
			</linearGradient>
			<path style="fill:url(#SVGID_00000095320870275066335710000015672974621658063270_);" d="M746.86,109.47
				c2.7,0,7.02,1.44,7.02,6.54c0,3.9-5.16,9.24-8.82,9.24c-2.22,0-4.32-0.72-5.82-2.04l-2.88,1.56c-0.18,0.12-1.38,0.9-1.56,1.08
				c-0.48,0.42-0.54,0.42-0.48,0.12c0.06-0.18,0.12-1.38,0.12-1.98v-15c0-6.66-7.38-5.16-11.28-1.92c-1.14,0.96-0.9,0-0.48-0.54
				c3.96-4.98,8.4-6,11.76-5.22v-0.96c0-6.66-7.38-5.16-11.28-1.92c-1.14,0.96-0.9,0-0.48-0.54c7.56-9.48,16.98-4.56,16.98-0.42
				v16.74C739.66,114.21,744.94,109.47,746.86,109.47z M745.9,123.39c1.8,0,3.06-1.32,3.06-3.54c0-6.3-3.9-7.32-4.86-6.6l-4.44,3.18
				v0.48C739.66,119.85,744.82,123.39,745.9,123.39z"/>
			
				<linearGradient id="SVGID_00000107572741807555819790000015764292185551135616_" gradientUnits="userSpaceOnUse" x1="638.41" y1="109.3145" x2="1016.4176" y2="109.3145">
				<stop  offset="0" style="stop-color:#4C5FBF"/>
				<stop  offset="0.3" style="stop-color:#4889D1"/>
				<stop  offset="0.5" style="stop-color:#47AADD"/>
				<stop  offset="1" style="stop-color:#FE9934"/>
			</linearGradient>
			<path style="fill:url(#SVGID_00000107572741807555819790000015764292185551135616_);" d="M779.86,109.47
				c2.7,0,7.02,1.44,7.02,6.54c0,3.9-5.16,9.24-8.82,9.24c-2.22,0-4.32-0.72-5.82-2.04l-2.88,1.56c-0.18,0.12-1.38,0.9-1.56,1.08
				c-0.48,0.42-0.54,0.42-0.48,0.12c0.06-0.18,0.12-1.38,0.12-1.98v-6.54c0-6.66-7.38-5.16-11.28-1.92c-1.14,0.96-0.9,0-0.48-0.54
				c3.96-4.98,8.4-6,11.76-5.22v-0.78c0-6.66-7.38-5.16-11.28-1.92c-1.14,0.96-0.9,0-0.48-0.54c3.96-4.98,8.4-6,11.76-5.22v-0.96
				c0-6.66-7.38-5.16-11.28-1.92c-1.14,0.96-0.9,0-0.48-0.54c7.56-9.48,16.98-4.56,16.98-0.42v16.74
				C772.66,114.21,777.94,109.47,779.86,109.47z M778.9,123.39c1.8,0,3.06-1.32,3.06-3.54c0-6.3-3.9-7.32-4.86-6.6l-4.44,3.18v0.48
				C772.66,119.85,777.82,123.39,778.9,123.39z"/>
			
				<linearGradient id="SVGID_00000155846666426042108900000001985209225636071092_" gradientUnits="userSpaceOnUse" x1="638.41" y1="109.1133" x2="1016.4176" y2="109.1133">
				<stop  offset="0" style="stop-color:#4C5FBF"/>
				<stop  offset="0.3" style="stop-color:#4889D1"/>
				<stop  offset="0.5" style="stop-color:#47AADD"/>
				<stop  offset="1" style="stop-color:#FE9934"/>
			</linearGradient>
			<path style="fill:url(#SVGID_00000155846666426042108900000001985209225636071092_);" d="M820.84,92.13
				c5.52,0,9.6,3.78,10.86,5.34c0.24,0.3-0.3,0.6-0.48,0.78c-1.02,0.84-2.28,2.22-3.12,3.36c-0.18,0.24-0.36,0.3-0.54,0
				c-1.2-2.4-4.68-7.56-8.52-7.56c-3.54,0-5.52,2.88-5.52,6.78v13.5c0,7.8-8.58,11.76-12.24,11.76c-1.02,0-0.78-0.42-0.3-0.54
				c3.66-1.02,7.32-5.16,7.32-9.66v-15C808.3,95.91,813.52,92.13,820.84,92.13z M808.3,113.25h-0.06H808.3z"/>
			
				<linearGradient id="SVGID_00000011006547322761219800000010507151360099022782_" gradientUnits="userSpaceOnUse" x1="638.41" y1="109.1133" x2="1016.4176" y2="109.1133">
				<stop  offset="0" style="stop-color:#4C5FBF"/>
				<stop  offset="0.3" style="stop-color:#4889D1"/>
				<stop  offset="0.5" style="stop-color:#47AADD"/>
				<stop  offset="1" style="stop-color:#FE9934"/>
			</linearGradient>
			<path style="fill:url(#SVGID_00000011006547322761219800000010507151360099022782_);" d="M853.84,92.13
				c5.52,0,9.6,3.78,10.86,5.34c0.24,0.3-0.3,0.6-0.48,0.78c-1.02,0.84-2.28,2.22-3.12,3.36c-0.18,0.24-0.36,0.3-0.54,0
				c-1.2-2.4-4.68-7.56-8.52-7.56c-3.54,0-5.52,2.88-5.52,6.78v7.98c3-1.68,5.28-3.9,5.28-4.8c0-0.24-1.02-0.66,0-0.9
				c1.98-0.42,3.18-0.6,4.98-1.02c1.32-0.3,0.48,2.04-1.26,3.78c-2.16,2.16-5.94,3.48-9,4.08v4.38c0,1.08-0.18,2.16-0.48,3.06
				c3.24-1.68,5.76-4.08,5.76-5.04c0-0.24-1.02-0.66,0-0.9c1.98-0.42,3.18-0.6,4.98-1.02c1.32-0.3,0.48,2.04-1.26,3.78
				c-2.4,2.34-6.72,3.78-9.9,4.2c-2.22,5.1-8.4,7.68-11.34,7.68c-1.02,0-0.78-0.42-0.3-0.54c3.66-1.02,7.32-5.16,7.32-9.66v-15
				C841.3,95.91,846.52,92.13,853.84,92.13z M841.3,113.25h-0.06H841.3z"/>
			
				<linearGradient id="SVGID_00000081634101229534676480000018251155839064000400_" gradientUnits="userSpaceOnUse" x1="638.41" y1="103.64" x2="1016.4176" y2="103.64">
				<stop  offset="0" style="stop-color:#4C5FBF"/>
				<stop  offset="0.3" style="stop-color:#4889D1"/>
				<stop  offset="0.5" style="stop-color:#47AADD"/>
				<stop  offset="1" style="stop-color:#FE9934"/>
			</linearGradient>
			<path style="fill:url(#SVGID_00000081634101229534676480000018251155839064000400_);" d="M873.34,111.57
				c-4.5-5.82-1.68-11.76,1.68-15.3c3.54-3.96,8.1-5.58,13.62-2.58c4.86,2.7,7.38,9.54,2.22,16.32
				C885.16,117.51,876.46,115.65,873.34,111.57z M885.88,97.83c-3.48-2.64-7.5-2.94-9.3-1.08c-2.34,2.46-1.62,7.8,0.36,10.8
				c2.52-1.62,4.26-3.42,4.26-4.2c0-0.24-1.02-0.66,0-0.9c1.98-0.42,3.18-0.6,4.98-1.02c1.32-0.3,0.48,2.04-1.26,3.78
				c-1.68,1.68-4.38,2.88-6.9,3.6c2.94,2.76,8.1,3.96,10.02,2.1C891.58,107.43,889.06,100.35,885.88,97.83z"/>
			
				<linearGradient id="SVGID_00000010312612619538068810000015731314269548761011_" gradientUnits="userSpaceOnUse" x1="638.41" y1="109.3145" x2="1016.4176" y2="109.3145">
				<stop  offset="0" style="stop-color:#4C5FBF"/>
				<stop  offset="0.3" style="stop-color:#4889D1"/>
				<stop  offset="0.5" style="stop-color:#47AADD"/>
				<stop  offset="1" style="stop-color:#FE9934"/>
			</linearGradient>
			<path style="fill:url(#SVGID_00000010312612619538068810000015731314269548761011_);" d="M935.86,109.47
				c2.7,0,7.02,1.44,7.02,6.54c0,3.9-5.16,9.24-8.82,9.24c-2.22,0-4.32-0.72-5.82-2.04l-2.88,1.56c-0.18,0.12-1.38,0.9-1.56,1.08
				c-0.48,0.42-0.54,0.42-0.48,0.12c0.06-0.18,0.12-1.38,0.12-1.98v-6.54c0-6.66-7.38-5.16-11.28-1.92c-1.14,0.96-0.9,0-0.48-0.54
				c3.96-4.98,8.4-6,11.76-5.22v-0.78c0-6.66-7.38-5.16-11.28-1.92c-1.14,0.96-0.9,0-0.48-0.54c3.96-4.98,8.4-6,11.76-5.22v-0.96
				c0-6.66-7.38-5.16-11.28-1.92c-1.14,0.96-0.9,0-0.48-0.54c7.56-9.48,16.98-4.56,16.98-0.42v16.74
				C928.66,114.21,933.94,109.47,935.86,109.47z M934.9,123.39c1.8,0,3.06-1.32,3.06-3.54c0-6.3-3.9-7.32-4.86-6.6l-4.44,3.18v0.48
				C928.66,119.85,933.82,123.39,934.9,123.39z"/>
			
				<linearGradient id="SVGID_00000027600995645264317740000010026983723569904310_" gradientUnits="userSpaceOnUse" x1="638.41" y1="109.3145" x2="1016.4176" y2="109.3145">
				<stop  offset="0" style="stop-color:#4C5FBF"/>
				<stop  offset="0.3" style="stop-color:#4889D1"/>
				<stop  offset="0.5" style="stop-color:#47AADD"/>
				<stop  offset="1" style="stop-color:#FE9934"/>
			</linearGradient>
			<path style="fill:url(#SVGID_00000027600995645264317740000010026983723569904310_);" d="M961.66,97.47v16.74
				c0,0,5.28-4.74,7.2-4.74c2.7,0,7.02,1.44,7.02,6.54c0,3.9-5.16,9.24-8.82,9.24c-2.22,0-4.32-0.72-5.82-2.04l-2.88,1.56
				c-0.18,0.12-1.38,0.9-1.56,1.08c-0.48,0.42-0.54,0.42-0.48,0.12c0.06-0.18,0.12-1.38,0.12-1.98v-23.64
				c0-6.66-7.38-5.16-11.28-1.92c-1.14,0.96-0.9,0-0.48-0.54C952.24,88.41,961.66,93.33,961.66,97.47z M967.9,123.39
				c1.8,0,3.06-1.32,3.06-3.54c0-6.3-3.9-7.32-4.86-6.6l-4.44,3.18v0.48C961.66,119.85,966.82,123.39,967.9,123.39z"/>
			
				<linearGradient id="SVGID_00000059300914336675643490000001391823129775899313_" gradientUnits="userSpaceOnUse" x1="638.41" y1="104.4634" x2="1016.4176" y2="104.4634">
				<stop  offset="0" style="stop-color:#4C5FBF"/>
				<stop  offset="0.3" style="stop-color:#4889D1"/>
				<stop  offset="0.5" style="stop-color:#47AADD"/>
				<stop  offset="1" style="stop-color:#FE9934"/>
			</linearGradient>
			<path style="fill:url(#SVGID_00000059300914336675643490000001391823129775899313_);" d="M980.26,117.15h0.06H980.26z
				 M1000.54,105.39c7.56-3.12,6.3-13.56-0.36-13.62c-2.82,0-4.74,2.04-7.14,5.7l-12.72,19.68h19.38l0.12-0.12
				c0.84-0.78,3.12-3.06,3.54-3.36c0.66-0.48,0.42-0.54-1.62-0.18c-0.78,0.12-5.58,0.3-6.3,0.3h-10.08l9.48-14.7
				c2.04-3.18,2.7-3.72,4.02-3.72c3.84,0,3.9,6.06,1.56,9.48C1000,105.45,1000.36,105.45,1000.54,105.39z"/>
		</g>
	</g>
</g>
</svg>
