<?xml version="1.0" encoding="utf-8"?>
<!-- Generator: Adobe Illustrator 25.4.1, SVG Export Plug-In . SVG Version: 6.00 Build 0)  -->
<svg version="1.1" xmlns="http://www.w3.org/2000/svg" xmlns:xlink="http://www.w3.org/1999/xlink" x="0px" y="0px"
	 viewBox="0 0 1125 150" style="enable-background:new 0 0 1125 150;" xml:space="preserve">
<style type="text/css">
	.st0{display:none;}
	.st1{display:inline;}
	.st2{fill:url(#SVGID_1_);}
	.st3{fill:url(#SVGID_00000074420597788520276540000004084293129342358674_);}
	.st4{fill:url(#SVGID_00000114064100315378334520000002912458587286335382_);}
	.st5{fill:url(#SVGID_00000042711646888848733040000005200457436627794877_);}
	.st6{fill:url(#SVGID_00000031898437386996448880000008160054690414820495_);}
	.st7{fill:url(#SVGID_00000065067714399515638830000009876096099051724430_);}
	.st8{fill:url(#SVGID_00000134943484994707868200000005463149876650570632_);}
	.st9{fill:url(#SVGID_00000013913946659346361460000012185377192348947842_);}
	.st10{fill:url(#SVGID_00000140001970631410362050000012318751617174728612_);}
	.st11{fill:url(#SVGID_00000021837280317511981060000006969106310683515317_);}
	.st12{fill:url(#SVGID_00000120550292065596328630000010401994301892491194_);}
	.st13{fill:url(#SVGID_00000072280737307260814500000000553215692654957195_);}
	.st14{fill:url(#SVGID_00000157267139028762144070000011926299566715452049_);}
	.st15{fill:url(#SVGID_00000092449721837013356790000013097341228585521802_);}
	.st16{fill:url(#SVGID_00000177466927644217356300000013172835362247220636_);}
	.st17{fill:url(#SVGID_00000005259266473582357740000005022770842298674849_);}
	.st18{fill:url(#SVGID_00000074430257759415657430000013344487071889958546_);}
	.st19{fill:url(#SVGID_00000130613337649134566070000004435480334735299236_);}
	.st20{fill:url(#SVGID_00000171701600021701619710000010313292231097357231_);}
	.st21{fill:url(#SVGID_00000044170362623175649680000011495761459159555746_);}
	.st22{fill:url(#SVGID_00000029020033568842086960000018007234125805516473_);}
	.st23{fill:url(#SVGID_00000179630475847217029150000017975811207319830148_);}
	.st24{fill:url(#SVGID_00000090284892757396151340000007451003114455921563_);}
	.st25{fill:url(#SVGID_00000074409035873501673870000013803758168051718038_);}
	.st26{fill:url(#SVGID_00000033356763658873609010000005989380010829866897_);}
	.st27{fill:url(#SVGID_00000072977430087401820950000010561508100789012644_);}
	.st28{fill:url(#SVGID_00000021087454028085710170000014311860475226407050_);}
	.st29{fill:url(#SVGID_00000041976482024659745000000001910734723752329871_);}
	.st30{fill:url(#SVGID_00000131331102344425284890000011475325241741934995_);}
	.st31{fill:url(#SVGID_00000134943393229393359750000009572203726226967224_);}
	.st32{fill:url(#SVGID_00000085242796627913375350000017405261301247053475_);}
	.st33{fill:url(#SVGID_00000152225386585049928490000004096858096040897952_);}
	.st34{fill:url(#SVGID_00000168797290170754043440000009068278065401887663_);}
	.st35{fill:url(#SVGID_00000062889860037401592040000001501385563636233372_);}
	.st36{fill:url(#SVGID_00000117635382492936210630000003446605014667284871_);}
	.st37{fill:url(#SVGID_00000146470698433776136870000017524783686922543011_);}
	.st38{fill:url(#SVGID_00000142136136535952588320000016012029388984899767_);}
	.st39{fill:url(#SVGID_00000165918858478178869610000012221852258417301378_);}
	.st40{fill:url(#SVGID_00000003801245800945207290000014202503852637482649_);}
	.st41{fill:url(#SVGID_00000013178829576256412490000014730224291668126081_);}
	.st42{fill:url(#SVGID_00000146496814502701343970000015176919557061747861_);}
	.st43{fill:url(#SVGID_00000129901332525211604160000003659751124782020273_);}
	.st44{fill:url(#SVGID_00000170958464710461393670000001214813496482581149_);}
	.st45{fill:url(#SVGID_00000165235082369721252980000004208204236206981782_);}
	.st46{fill:url(#SVGID_00000178893193578283068870000013239289017266961057_);}
	.st47{fill:url(#SVGID_00000178167197708826703810000015500208710358747068_);}
	.st48{fill:url(#SVGID_00000163065287924222433890000017732472853698579368_);}
	.st49{fill:url(#SVGID_00000023274752352215900270000001431125785795364539_);}
	.st50{fill:url(#SVGID_00000094606236963323159310000009523206925274337203_);}
	.st51{fill:url(#SVGID_00000096776967562734456800000002415468929016622730_);}
	.st52{fill:url(#SVGID_00000141439578176619790610000011687793293922111933_);}
	.st53{fill:url(#SVGID_00000007419502021862864110000001776664961618892726_);}
	.st54{fill:url(#SVGID_00000074399851027301001510000017132391534886082706_);}
	.st55{fill:url(#SVGID_00000180328489513138903210000014306333110423739579_);}
	.st56{fill:url(#SVGID_00000053502901098928400660000000155404214969237903_);}
	.st57{fill:url(#SVGID_00000151529234439633086190000011867906037760527009_);}
	.st58{fill:url(#SVGID_00000064321488201560706290000009648138670886890131_);}
	.st59{fill:url(#SVGID_00000023981287662755678120000015090381073502323641_);}
	.st60{fill:url(#SVGID_00000165939538947748171010000012090102991572364445_);}
	.st61{fill:url(#SVGID_00000067195546280534581660000017392454207123066030_);}
	.st62{fill:url(#SVGID_00000160149924744597484150000008281920647246127522_);}
	.st63{fill:url(#SVGID_00000070826087082033307320000009996250513439255176_);}
	.st64{fill:url(#SVGID_00000096777784144385881640000003508759423318500272_);}
	.st65{fill:url(#SVGID_00000072245385433994364410000005634522995479529904_);}
	.st66{fill:url(#SVGID_00000093871382728939371330000003792769424970968980_);}
	.st67{fill:url(#SVGID_00000023993636089057835930000002155344049552487322_);}
	.st68{fill:url(#SVGID_00000154390506732756862380000010818328550304379581_);}
	.st69{fill:url(#SVGID_00000062182769146793581350000007787592015039068547_);}
	.st70{fill:url(#SVGID_00000016785608546428698500000000864262196370117032_);}
	.st71{fill:url(#SVGID_00000132774161977960909080000002538864528384934056_);}
	.st72{fill:url(#SVGID_00000105397468877822479110000017069005061836762809_);}
	.st73{fill:url(#SVGID_00000071538696690030664010000016179210940362064774_);}
	.st74{fill:url(#SVGID_00000182504786834713386420000018302757288602021297_);}
	.st75{fill:url(#SVGID_00000149344987125293284150000004783105237875471754_);}
	.st76{fill:url(#SVGID_00000072264571407424116550000017411177534839772607_);}
	.st77{fill:url(#SVGID_00000062185211753124333690000007714108271547459764_);}
	.st78{fill:url(#SVGID_00000170276994619547661000000010971976458644270777_);}
	.st79{fill:url(#SVGID_00000049209718739190673000000016609585521509705627_);}
	.st80{fill:url(#SVGID_00000164475654265945071560000001008824831268436647_);}
	.st81{fill:url(#SVGID_00000158730428394984381300000011501442408325208738_);}
	.st82{fill:url(#SVGID_00000128481964084056594210000017641761723144058514_);}
	.st83{fill:url(#SVGID_00000160151812536080171860000005507026900258804136_);}
	.st84{fill:url(#SVGID_00000098925820808781860770000010163132410078235546_);}
	.st85{fill:url(#SVGID_00000034084896936810789620000004121115355362496143_);}
	.st86{fill:url(#SVGID_00000024723343479738751720000011549968732491291290_);}
	.st87{fill:url(#SVGID_00000183940194860762538930000018407576764224607635_);}
	.st88{fill:url(#SVGID_00000172422134539716773630000003963270867807918232_);}
	.st89{fill:url(#SVGID_00000181775263507403030830000004876321164407456665_);}
	.st90{fill:url(#SVGID_00000143612026932081960800000010387860713288439424_);}
	.st91{fill:url(#SVGID_00000050636715253198062520000008665904621743304342_);}
	.st92{fill:url(#SVGID_00000090986660641086638670000012868683839552823741_);}
	.st93{fill:url(#SVGID_00000033339855195921746020000000983313299016184705_);}
	.st94{fill:url(#SVGID_00000052819369359301580430000000840287937632552630_);}
	.st95{fill:url(#SVGID_00000007418215162315096260000001271601717474760892_);}
	.st96{fill:url(#SVGID_00000147901775357149377920000014414288381582348969_);}
	.st97{fill:url(#SVGID_00000124126044277076370820000015065594958576000182_);}
	.st98{fill:url(#SVGID_00000021825981914001813630000008669777477896798852_);}
	.st99{fill:url(#SVGID_00000103952745861479727150000006200068071421151880_);}
	.st100{fill:url(#SVGID_00000125592187992851473250000011514965297762609318_);}
	.st101{fill:url(#SVGID_00000181785159889652141510000015051860195364858762_);}
	.st102{fill:url(#SVGID_00000028310388686974612320000014887174893026831521_);}
	.st103{fill:url(#SVGID_00000040566662591912136780000003744538784049383080_);}
	.st104{fill:url(#SVGID_00000181084433853899289550000006299857677261720972_);}
	.st105{fill:url(#SVGID_00000018217987527144480440000014770745737145488528_);}
	.st106{fill:url(#SVGID_00000011030568965235127610000002806339083694004353_);}
	.st107{fill:url(#SVGID_00000146486447079912545270000002332268396393844609_);}
	.st108{fill:url(#SVGID_00000168093810641165160570000008575615454315435947_);}
	.st109{fill:url(#SVGID_00000001649288351871411930000002175160017494429329_);}
	.st110{fill:url(#SVGID_00000143619069762012017580000004111811324133013673_);}
	.st111{fill:url(#SVGID_00000165951072296584911900000001157679433627779492_);}
	.st112{fill:url(#SVGID_00000098926746627937410540000003883759583858632332_);}
	.st113{fill:url(#SVGID_00000158721107282936416620000017336675349496436140_);}
	.st114{fill:url(#SVGID_00000164501614619042776240000014491470081969240219_);}
	.st115{fill:url(#SVGID_00000074400225069282074970000013175030365462425496_);}
	.st116{fill:url(#SVGID_00000021821597871397901970000010274322623998673819_);}
	.st117{fill:url(#SVGID_00000047059983127399571770000015332135612918679989_);}
	.st118{fill:url(#SVGID_00000166635963125321557490000000727467826177980082_);}
	.st119{fill:url(#SVGID_00000096033219300180953280000006217099553088018566_);}
	.st120{fill:url(#SVGID_00000022535378832055126600000002439762108965286281_);}
	.st121{fill:url(#SVGID_00000168810334016325202530000006362865647035903151_);}
	.st122{fill:url(#SVGID_00000044875596448730672780000010985601710390489008_);}
	.st123{fill:#FFFFFF;}
	.st124{fill:url(#SVGID_00000111174681247801345550000004568999010600406430_);}
	.st125{fill:url(#SVGID_00000096781520642818920780000016589612054343706534_);}
	.st126{fill:url(#SVGID_00000153667791437424358790000007549979065257718189_);}
	.st127{fill:url(#SVGID_00000159468249357657852280000000919113267847674294_);}
	.st128{fill:url(#SVGID_00000075132326433761854380000002919388718911753611_);}
	.st129{fill:url(#SVGID_00000078045453684703527640000016913360956102687156_);}
	.st130{fill:url(#SVGID_00000112600320893143451900000015603775936784708754_);}
	.st131{fill:url(#SVGID_00000067946414428118339340000008640624050966694334_);}
	.st132{fill:url(#SVGID_00000171716354180364791410000017413441568893975724_);}
	.st133{fill:url(#SVGID_00000031922779084496459680000002620238420696030622_);}
	.st134{fill:url(#SVGID_00000011005594834794927040000000348937797324939416_);}
	.st135{fill:url(#SVGID_00000155139586658667960040000015635981734974834066_);}
	.st136{fill:url(#SVGID_00000118364323701340534370000015299444842902937259_);}
	.st137{fill:url(#SVGID_00000000911132264749228760000006687287672347278217_);}
	.st138{fill:url(#SVGID_00000145760332574030095580000017027712792620103315_);}
	.st139{fill:url(#SVGID_00000049194750046152120740000015417990632156936094_);}
	.st140{fill:url(#SVGID_00000174596131283130940470000004092619278147660467_);}
	.st141{fill:url(#SVGID_00000015317396229282406640000000193348664320811961_);}
	.st142{fill:url(#SVGID_00000051380027757769218350000001643958515319166384_);}
	.st143{fill:url(#SVGID_00000016077785127142951120000009831845167111116426_);}
	.st144{fill:url(#SVGID_00000070115096166177508720000008943042803387052706_);}
	.st145{fill:url(#SVGID_00000148634427325990663470000013894781488907974036_);}
	.st146{fill:url(#SVGID_00000165203408436760070340000007120628636199656102_);}
	.st147{fill:url(#SVGID_00000098905541857822353670000002710720576586871681_);}
	.st148{fill:url(#SVGID_00000165944606169271227390000018419762467370689667_);}
	.st149{fill:url(#SVGID_00000138547909709464785190000003048762120729703070_);}
	.st150{fill:url(#SVGID_00000175296649398904031370000010141500737397853365_);}
	.st151{fill:url(#SVGID_00000098217449449041223410000009831747808461103545_);}
	.st152{fill:url(#SVGID_00000084506798271850584900000014427703733829288846_);}
	.st153{fill:url(#SVGID_00000180353908986234621880000007187495439310901381_);}
	.st154{fill:url(#SVGID_00000168082726684283885300000016260127108568810127_);}
	.st155{fill:url(#SVGID_00000004533183814453632260000011930974112547199933_);}
	.st156{fill:url(#SVGID_00000113310870397722415390000015399116200744941705_);}
	.st157{fill:url(#SVGID_00000012467940214742982300000015824600292784035985_);}
	.st158{fill:url(#SVGID_00000105420743479057644400000005124243106665884310_);}
	.st159{fill:url(#SVGID_00000065759845783514419100000012250859638172523707_);}
	.st160{fill:url(#SVGID_00000088822384593247644520000017947701501013243060_);}
	.st161{fill:url(#SVGID_00000005235990562857179670000005342105476705811601_);}
	.st162{fill:url(#SVGID_00000012473581230569143860000007042763666504979624_);}
	.st163{fill:url(#SVGID_00000000185819847542058930000008362012837951186863_);}
	.st164{fill:url(#SVGID_00000103256713757636824560000017072003995472326820_);}
	.st165{fill:url(#SVGID_00000016775792882392513470000004392158456698139819_);}
	.st166{fill:url(#SVGID_00000016061280704956149380000013165352648520152245_);}
	.st167{fill:url(#SVGID_00000071555599962414392550000011182317764196150962_);}
	.st168{fill:url(#SVGID_00000013883571227417463690000017994903482878134685_);}
	.st169{fill:url(#SVGID_00000049925068369919731340000004573728853696854457_);}
	.st170{fill:url(#SVGID_00000147916366867263907980000009137426156186006408_);}
	.st171{fill:url(#SVGID_00000036238160344777065690000008845457865080209306_);}
	.st172{fill:url(#SVGID_00000047050361534544815030000008845549855677656220_);}
	.st173{fill:url(#SVGID_00000139996445654570389250000002887123631299569852_);}
	.st174{fill:url(#SVGID_00000064349914417271647610000018001306696157076630_);}
	.st175{fill:url(#SVGID_00000146496919622174713810000000509645260476516791_);}
	.st176{fill:url(#SVGID_00000000908961898587869010000003268227236740512443_);}
	.st177{fill:url(#SVGID_00000126321107780408540030000004547357847136410025_);}
	.st178{fill:url(#SVGID_00000017489453810958242440000003771773234384753032_);}
	.st179{fill:url(#SVGID_00000003817129349480709010000000091324128384934288_);}
	.st180{fill:url(#SVGID_00000122715128555787952180000015633844280441712299_);}
	.st181{fill:url(#SVGID_00000039848297178283486080000008725744276604820135_);}
	.st182{fill:url(#SVGID_00000061447096218799264690000013052648874000436868_);}
	.st183{fill:url(#SVGID_00000064315805248806960140000014584516458838592386_);}
	.st184{fill:url(#SVGID_00000123404941860131079500000016849558347194235577_);}
	.st185{fill:url(#SVGID_00000080177149270297597230000013349076530873594282_);}
	.st186{fill:url(#SVGID_00000122686100841948516990000015531101556814630307_);}
	.st187{fill:url(#SVGID_00000076600810250460537290000005819241247198664332_);}
	.st188{fill:url(#SVGID_00000057867475042372436200000017383473722503331208_);}
	.st189{fill:url(#SVGID_00000047061155757638493100000000532640072107769730_);}
	.st190{fill:url(#SVGID_00000157300903019557451150000018251315799308574892_);}
	.st191{fill:url(#SVGID_00000090277714097305423740000010269181880446104730_);}
	.st192{fill:url(#SVGID_00000065782293527582069620000007798888432462661285_);}
	.st193{fill:url(#SVGID_00000176746133802307370230000000424097523604460932_);}
	.st194{fill:url(#SVGID_00000139990211658561623960000002179328628623888556_);}
	.st195{fill:url(#SVGID_00000122719102993171982660000014127635368360807598_);}
	.st196{fill:url(#SVGID_00000131359995690775349470000001258935526716197776_);}
	.st197{fill:url(#SVGID_00000142880248588794565020000003734430101281029807_);}
	.st198{fill:url(#SVGID_00000044886737645072190040000014623113554532539553_);}
	.st199{fill:url(#SVGID_00000098908386759288703080000008777290434366130073_);}
	.st200{fill:url(#SVGID_00000046337899220622674340000003482738992884333236_);}
	.st201{fill:url(#SVGID_00000129177645445393824050000001303500453019952280_);}
	.st202{fill:url(#SVGID_00000075855018839383025830000017065126376507848346_);}
	.st203{fill:url(#SVGID_00000042718790023181054050000011540670752706534819_);}
	.st204{fill:url(#SVGID_00000051352545502276490680000001730381728020503976_);}
	.st205{fill:url(#SVGID_00000142147568047374178100000015784724893564328067_);}
	.st206{fill:url(#SVGID_00000152975782764849601980000014593878605974622871_);}
	.st207{fill:url(#SVGID_00000137112347495185100760000015182252763109343141_);}
	.st208{fill:url(#SVGID_00000075130574481297869010000011278588558380123826_);}
	.st209{fill:url(#SVGID_00000088123046078499032300000018018333077734481328_);}
	.st210{fill:url(#SVGID_00000138542808623808833310000007695371609436385943_);}
	.st211{fill:url(#SVGID_00000158739565803739193950000005720587565342636695_);}
	.st212{fill:url(#SVGID_00000005975320866166686760000015616877887803741337_);}
	.st213{fill:url(#SVGID_00000178169344065501355840000009940023206623086747_);}
	.st214{fill:url(#SVGID_00000106837409124296543790000017570120485356686738_);}
	.st215{fill:url(#SVGID_00000073705475811791509240000011567761465578561702_);}
	.st216{fill:url(#SVGID_00000016790118562587237970000004377820633625508527_);}
	.st217{fill:url(#SVGID_00000125591017370920486330000006550088810602170557_);}
	.st218{fill:url(#SVGID_00000152244368162547065470000001680158651997288330_);}
	.st219{fill:url(#SVGID_00000170271246953047162700000005454993657140790454_);}
	.st220{fill:url(#SVGID_00000059993275422653526860000005526760403791994794_);}
	.st221{fill:url(#SVGID_00000029028882868599769940000002555253130895239312_);}
	.st222{fill:url(#SVGID_00000021092822350579822560000011861657526119846294_);}
	.st223{fill:url(#SVGID_00000067195932747822832480000018106179660065677724_);}
	.st224{fill:url(#SVGID_00000183928545912694379210000009409037212219620266_);}
	.st225{fill:url(#SVGID_00000039823418545201859340000015956942162254665648_);}
	.st226{fill:url(#SVGID_00000013895497807749060110000001518797748238434213_);}
	.st227{fill:url(#SVGID_00000166639046202490811150000012991145308534043545_);}
	.st228{fill:url(#SVGID_00000113346802015280590840000000404153797867583163_);}
	.st229{fill:url(#SVGID_00000121993230705744345430000005247653108329306546_);}
	.st230{fill:url(#SVGID_00000106827224749562150920000004035906751466519953_);}
	.st231{fill:url(#SVGID_00000101099985523707099520000012412973995536409984_);}
	.st232{fill:url(#SVGID_00000023989648135464139870000012299282186046749070_);}
	.st233{fill:url(#SVGID_00000063613725891383329490000016410613974725464994_);}
	.st234{fill:url(#SVGID_00000028326451746194039090000003548315995673893768_);}
	.st235{fill:url(#SVGID_00000084492233652007528800000013355365322948364945_);}
	.st236{fill:url(#SVGID_00000183965887329545231960000010125609358583906972_);}
	.st237{fill:url(#SVGID_00000056423611429445713990000011909442992606779837_);}
	.st238{fill:url(#SVGID_00000167376808106071654150000011595220881967381422_);}
	.st239{fill:url(#SVGID_00000155139129481306309150000005528581031576680122_);}
	.st240{fill:url(#SVGID_00000152240616539612807370000003057782906218997125_);}
	.st241{fill:url(#SVGID_00000052078066050495472320000001705389306332052644_);}
	.st242{fill:url(#SVGID_00000034078003976099650000000012186072072541126059_);}
	.st243{fill:url(#SVGID_00000183927570354371615840000004959264231729390740_);}
	.st244{fill:url(#SVGID_00000023967886845142170210000006874661389900340643_);}
	.st245{fill:url(#SVGID_00000073696092786684740140000002313545703159506591_);}
	.st246{fill:url(#SVGID_00000062177094510408830070000013495949334339447425_);}
	.st247{fill:url(#SVGID_00000149342436790352110130000008182228373469842335_);}
	.st248{fill:url(#SVGID_00000110459462278891082740000004729584259158133636_);}
	.st249{fill:url(#SVGID_00000181773016906674986350000009222298852464407952_);}
	.st250{opacity:0.6;}
	.st251{fill:url(#SVGID_00000126323122137573164430000010508228318575505294_);}
	.st252{fill:url(#SVGID_00000121275423022948081410000012579722459440900539_);}
	.st253{fill:url(#SVGID_00000174588835283946614520000013440494663309550747_);}
	.st254{fill:url(#SVGID_00000100349569255854589800000001787099976454707621_);}
	.st255{fill:url(#SVGID_00000078006976359849660380000015911626110286177949_);}
	.st256{fill:url(#SVGID_00000036962732330989259930000003466967783510045837_);}
	.st257{fill:url(#SVGID_00000034067260456593387520000014974284241041683374_);}
	.st258{fill:url(#SVGID_00000133503785792417298150000003030002634882661539_);}
	.st259{fill:url(#SVGID_00000132052975652832426650000016242819302141585327_);}
	.st260{fill:url(#SVGID_00000001652373861916941470000013883077148575309449_);}
	.st261{fill:url(#SVGID_00000118365511206613826220000005603614332607688110_);}
	.st262{fill:url(#SVGID_00000006706972036417351200000003519371469288167828_);}
	.st263{fill:url(#SVGID_00000032608634203454442090000011778800072943792264_);}
	.st264{fill:url(#SVGID_00000114779744208768979620000010572030791297265555_);}
	.st265{fill:url(#SVGID_00000045590484305295076970000010900048505190948769_);}
	.st266{fill:url(#SVGID_00000005973940912176374890000005773431062047522234_);}
	.st267{fill:url(#SVGID_00000181776340849318969960000015357441794699298179_);}
	.st268{fill:url(#SVGID_00000183928238520663361940000001212685517814154933_);}
	.st269{fill:url(#SVGID_00000111176574467608904550000005290154276648612527_);}
	.st270{fill:url(#SVGID_00000065069458812890653460000008865387388190564496_);}
	.st271{fill:url(#SVGID_00000123405363734205824660000014022304383910622636_);}
	.st272{fill:url(#SVGID_00000096059075717896530440000008134669657100784010_);}
	.st273{fill:url(#SVGID_00000165230292639387535690000000951257729763562154_);}
	.st274{fill:url(#SVGID_00000023275138103318894290000017481126842719586469_);}
	.st275{fill:url(#SVGID_00000035509365762504867640000002648696888633158828_);}
	.st276{fill:url(#SVGID_00000124149114123616811020000009199358788482040751_);}
	.st277{fill:url(#SVGID_00000168820290430812114200000015827662603688556714_);}
	.st278{fill:url(#SVGID_00000011734440466315227500000007236967957323449742_);}
	.st279{fill:url(#SVGID_00000111187908225054473600000016817622020952066699_);}
	.st280{fill:url(#SVGID_00000173141243864118489070000015095852388724830367_);}
	.st281{fill:url(#SVGID_00000047739341224704788660000004631167007145106576_);}
	.st282{fill:url(#SVGID_00000094580464726267991790000017292180014643818134_);}
	.st283{fill:url(#SVGID_00000102539158018087284610000014313529743141446846_);}
	.st284{fill:url(#SVGID_00000081631087407048793910000009680201916023918009_);}
	.st285{fill:url(#SVGID_00000179634613219330393930000016445642484594298790_);}
	.st286{fill:url(#SVGID_00000172401644954416819200000007175680391317060765_);}
	.st287{fill:url(#SVGID_00000109729857036365867750000007129566284267576719_);}
	.st288{fill:url(#SVGID_00000134948386934517292430000001288710280093165196_);}
	.st289{fill:url(#SVGID_00000160875971359892270180000009655357316341998738_);}
	.st290{fill:url(#SVGID_00000066506163820430518230000004780101560651502500_);}
	.st291{fill:#1A1A1A;}
	.st292{fill:#231815;}
	.st293{fill:url(#SVGID_00000081620557759223226150000008438871810522539432_);}
	.st294{fill:url(#SVGID_00000000189153376280466750000018207841562222309767_);}
	.st295{fill:url(#SVGID_00000089543047948240900840000002249932922717881990_);}
	.st296{fill:url(#SVGID_00000017508735543290189620000016834611185088861100_);}
	.st297{fill:url(#SVGID_00000137811568104309824550000010401818838637065136_);}
	.st298{fill:url(#SVGID_00000070116833743164596670000009598091500628959617_);}
	.st299{fill:url(#SVGID_00000115500567001052334530000016225440151747893382_);}
	.st300{fill:url(#SVGID_00000116205688119704957820000004864469336282328245_);}
	.st301{fill:url(#SVGID_00000145778935528405133710000000221344106844842905_);}
	.st302{fill:url(#SVGID_00000179638544790409523560000011015032906883355577_);}
	.st303{fill:url(#SVGID_00000092416345484938271310000001801281426487263919_);}
	.st304{fill:url(#SVGID_00000047044910994204476210000007727628769219095483_);}
	.st305{fill:url(#SVGID_00000089565796834577185490000006075118194423338127_);}
	.st306{fill:url(#SVGID_00000067939193691826961880000001131308688361033383_);}
	.st307{fill:url(#SVGID_00000043447984757240808990000002043128228709382310_);}
	.st308{fill:url(#SVGID_00000083787848438980328150000018274468463901075840_);}
	.st309{fill:url(#SVGID_00000087393719764450203590000014393414641686554791_);}
	.st310{fill:url(#SVGID_00000055686887495190351220000004790900952607327634_);}
	.st311{fill:url(#SVGID_00000036248323261919745700000012418216545997825664_);}
	.st312{fill:url(#SVGID_00000095335895086430503210000007915440455226534812_);}
	.st313{fill:url(#SVGID_00000145060443768973619000000003013309943620954541_);}
	.st314{fill:url(#SVGID_00000028304569546928276380000016688832542827921844_);}
	.st315{fill:url(#SVGID_00000091702930991947194590000009754055935733234072_);}
	.st316{fill:url(#SVGID_00000011005600026714224530000003233050043875287977_);}
	.st317{fill:url(#SVGID_00000103950290916220870320000006339232601907397811_);}
	.st318{fill:url(#SVGID_00000172400227456195368660000017339079335299118486_);}
	.st319{fill:url(#SVGID_00000163064627313336875280000003638857506867638710_);}
	.st320{fill:url(#SVGID_00000112600367667751451100000013300620415909491365_);}
	.st321{fill:url(#SVGID_00000008854607662470231160000002901580144513851824_);}
	.st322{fill:url(#SVGID_00000070832365710879814460000003654067460404110231_);}
	.st323{fill:url(#SVGID_00000159456622052770315640000017676976258061345437_);}
	.st324{fill:url(#SVGID_00000147908731508952853520000014372865209327613107_);}
	.st325{fill:url(#SVGID_00000092445141324734802500000003207984162772620437_);}
	.st326{fill:url(#SVGID_00000128448000485099473020000013214251689328206224_);}
	.st327{fill:url(#SVGID_00000108996480788221747780000009794867950862770064_);}
	.st328{fill:url(#SVGID_00000150069727881238347040000006066647729248910521_);}
	.st329{fill:url(#SVGID_00000026863566654897483170000015899375210795370415_);}
	.st330{fill:url(#SVGID_00000130615947039570990120000010091362179888654733_);}
	.st331{fill:url(#SVGID_00000134950026735962454450000005380383555213780401_);}
	.st332{fill:url(#SVGID_00000109027911032933402380000001044687816748141205_);}
	.st333{fill:url(#SVGID_00000105399756631358377040000018093975293976677564_);}
	.st334{fill:url(#SVGID_00000106134245175245398040000010769025658972521135_);}
</style>
<g id="图层_1" class="st0">
	<g class="st1">
		<g>
			<g>
				<path d="M208.08,91.67c6.24,0,10.98,2.16,10.98,4.62v25.14l-3.3,1.8c-0.18,0.12-1.38,0.9-1.56,1.08
					c-0.48,0.42-0.54,0.42-0.48,0.12c0.06-0.18,0.12-1.38,0.12-1.98v-22.5c0-3.66-4.92-5.16-8.04-5.16c-3.18,0-7.56,1.44-11.46,4.5
					c-0.54,0.42-1.08,0-0.72-0.54C195,96.71,199.14,91.67,208.08,91.67z"/>
				<path d="M225.06,96.05c-0.6-0.12-1.68-0.18-2.22-0.18s-0.54-0.3-0.3-0.42c2.76-1.14,4.74-2.52,7.5-4.14
					c1.32-0.78,2.16,0.96,2.16,2.46v16.5c1.14-0.18,2.64-0.78,5.22-2.1c3-1.56,3.96-3.36,4.26-4.68c0.3-1.32-0.9-1.92-1.44-2.28
					c-0.36-0.18-0.42-0.54,0.24-0.54c1.5,0,3.66-0.18,5.58-0.72c0.6-0.12,0.72,0.06,0.72,1.14c0,4.2-2.7,4.92-6.06,6.9
					c5.7,0.24,9.66,2.1,9.66,6.42c0,4.92-7.2,9.06-11.82,10.5c-0.6,0.18-0.72-0.06-0.3-0.36c2.64-1.68,6.3-5.4,6.3-9
					c0-2.22-1.38-5.4-6.96-5.76c-2.28,1.26-4.26,2.16-5.4,2.76v8.82l-3.3,1.8c-0.18,0.12-1.38,0.9-1.56,1.08
					c-0.48,0.42-0.54,0.42-0.48,0.12c0.06-0.18,0.12-1.38,0.12-1.98v-24C226.98,96.95,226.56,96.35,225.06,96.05z"/>
				<path d="M265.26,99.59c8.16,0,12.24,5.34,12.24,10.68c0,8.28-9.78,11.58-14.64,11.94c-0.72,0.06-0.6-0.42,0-0.66
					c4.74-2.04,8.04-4.02,8.46-8.82h-7.44c-0.72,0-5.52,0.18-6.3,0.3c-2.04,0.36-2.28,0.3-1.62-0.18c0.42-0.3,2.7-2.58,3.54-3.36
					l0.12-0.12h11.64c-0.72-5.52-3.96-7.86-7.14-7.86c-4.32,0-7.08,2.7-7.08,4.68c0,0.48-0.12,0.66-0.3,0.72
					c-1.74,0.6-2.76,1.14-3.72,1.92c-0.3,0.24-0.72,0.48-0.48-0.24C253.2,106.79,256.38,99.59,265.26,99.59z"/>
				<path d="M297.9,96.05c-0.6-0.12-1.68-0.18-2.22-0.18s-0.54-0.3-0.3-0.42c2.76-1.14,4.74-2.52,7.5-4.14
					c1.32-0.78,2.16,0.96,2.16,2.46v11.76c4.26-1.92,7.5-3.96,8.88-5.22c3.66-3.36,3.42-4.8,3.24-5.52c-0.3-1.02-2.1-1.08-2.46-1.38
					c-0.42-0.36,1.26-0.54,2.46-0.78c1.32-0.3,3.06-0.6,4.38-0.6c1.08,0,2.16,0.9,2.16,2.04c0,2.7-3.06,4.32-6.66,6.48
					c6.9,0.36,10.02,3.78,10.02,8.82c0,6.84-6.84,11.28-14.22,15.42c-0.72,0.42-0.84-0.06-0.36-0.42c2.88-2.4,7.62-8.16,7.62-13.26
					c0-2.52-0.36-7.32-7.62-7.8c-2.64,1.5-5.94,3.06-7.44,4.56v13.5l-3.3,1.8c-0.18,0.12-1.38,0.9-1.56,1.08
					c-0.48,0.42-0.54,0.42-0.48,0.12c0.06-0.18,0.12-1.38,0.12-1.98v-24C299.82,96.95,299.4,96.35,297.9,96.05z"/>
				<path d="M331.8,118.67c-4.5-5.82-1.68-11.76,1.68-15.3c3.54-3.96,8.1-5.58,13.62-2.58c4.86,2.7,7.38,9.54,2.22,16.32
					C343.62,124.61,334.92,122.75,331.8,118.67z M335.7,115.01c2.64,3.42,8.7,5.04,10.8,3c3.54-3.48,1.02-10.56-2.16-13.08
					c-3.48-2.64-7.5-2.94-9.3-1.08C332.58,106.43,333.48,112.13,335.7,115.01z"/>
				<path d="M356.04,96.11c-0.6-0.12-1.68-0.18-2.22-0.18s-0.54-0.3-0.3-0.42c2.76-1.14,4.74-2.52,7.5-4.14
					c1.32-0.78,2.16,0.96,2.16,2.46v27.96h2.22c0.72,0,5.52-0.18,6.3-0.3c2.04-0.36,2.28-0.3,1.62,0.18
					c-0.42,0.3-2.7,2.58-3.54,3.36l-0.12,0.12h-11.64h-0.06c-0.06,0-0.06,0-0.06,0h0.06v-26.7
					C357.96,97.01,357.54,96.41,356.04,96.11z"/>
				<path d="M378.66,118.67c-4.5-5.82-1.68-11.76,1.68-15.3c3.54-3.96,8.1-5.58,13.62-2.58c4.86,2.7,7.38,9.54,2.22,16.32
					C390.48,124.61,381.78,122.75,378.66,118.67z M382.56,115.01c2.64,3.42,8.7,5.04,10.8,3c3.54-3.48,1.02-10.56-2.16-13.08
					c-3.48-2.64-7.5-2.94-9.3-1.08C379.44,106.43,380.34,112.13,382.56,115.01z"/>
				<path d="M425.16,119.45l-3.3,1.8c-0.18,0.12-1.38,0.9-1.56,1.08c-0.48,0.42-0.54,0.42-0.48,0.12c0.06-0.18,0.12-1.38,0.12-1.98
					v-17.94c-5.76,1.08-12.12,5.52-12.12,14.82c0,9.72,9.84,14.46,12.12,15.84c0.54,0.36,0.84,1.02-0.12,0.84
					c-4.2-0.78-17.82-3.78-17.82-14.94c0-12.96,16.68-19.8,23.16-19.8V119.45z"/>
				<path d="M431.16,96.05c-0.6-0.12-1.68-0.18-2.22-0.18s-0.54-0.3-0.3-0.42c2.76-1.14,4.74-2.52,7.5-4.14
					c1.32-0.78,2.16,0.96,2.16,2.46v16.5c1.14-0.18,2.64-0.78,5.22-2.1c3-1.56,3.96-3.36,4.26-4.68c0.3-1.32-0.9-1.92-1.44-2.28
					c-0.36-0.18-0.42-0.54,0.24-0.54c1.5,0,3.66-0.18,5.58-0.72c0.6-0.12,0.72,0.06,0.72,1.14c0,4.2-2.7,4.92-6.06,6.9
					c5.7,0.24,9.66,2.1,9.66,6.42c0,4.92-7.2,9.06-11.82,10.5c-0.6,0.18-0.72-0.06-0.3-0.36c2.64-1.68,6.3-5.4,6.3-9
					c0-2.22-1.38-5.4-6.96-5.76c-2.28,1.26-4.26,2.16-5.4,2.76v8.82l-3.3,1.8c-0.18,0.12-1.38,0.9-1.56,1.08
					c-0.48,0.42-0.54,0.42-0.48,0.12c0.06-0.18,0.12-1.38,0.12-1.98v-24C433.08,96.95,432.66,96.35,431.16,96.05z"/>
				<path d="M462.12,104.09c-0.6-0.12-1.68-0.18-2.22-0.18s-0.54-0.3-0.3-0.42c2.76-1.14,4.74-2.52,7.5-4.14
					c1.32-0.78,2.16,0.96,2.16,2.46v3.06c2.46-2.64,5.76-5.28,10.14-5.28c3.12,0,5.7,1.2,6.6,2.28c-0.3,0.18-2.94,2.64-3.36,3.3
					c-1.2-1.2-3.36-2.22-6.36-2.22c-2.94,0-4.62,1.8-7.02,4.2v5.64c2.94-1.62,7.38-4.56,9.24-4.56c4.02,0,7.5,2.58,7.5,6.96
					c0,4.86-6.06,6.72-9.84,6.72c-3.18,0-5.52-1.86-6.9-2.46v0.48c0,4.26-8.7,12.06-9.9,12.66c-0.36,0.18-0.66,0-0.3-0.36
					c1.08-0.96,4.98-7.68,4.98-11.52v-0.18c0-1.56,0-3.54,0-4.68v-9.42C464.04,104.99,463.62,104.39,462.12,104.09z M477.78,119.63
					c2.4,0,2.94-0.18,2.94-2.88c0-3.3-2.82-5.52-4.74-5.52c-1.68,0-4.08,2.16-6.18,3.12C471.9,116.87,475.2,119.63,477.78,119.63z"
					/>
				<path d="M490.8,104.27c-0.6-0.12-1.68-0.18-2.22-0.18s-0.54-0.3-0.3-0.42c2.76-1.14,4.74-2.52,7.5-4.14
					c1.32-0.78,2.16,0.96,2.16,2.46v2.34c2.4-2.7,6.9-5.04,9.54-5.04c2.88,0,7.62,2.7,7.62,7.02c0,3.3-2.7,5.82-6.06,6.78v10.92
					c0,5.4,1.5,7.38,3.96,7.38c1.74,0,3.42-1.02,4.62-2.46c0.3-0.36,0.66,0.06,0.48,0.48c-0.9,1.92-3.9,5.04-6.78,5.04
					c-4.74,0-7.5-3.06-7.5-9.12v-12c-0.3-0.06-0.66-0.12-0.96-0.24c-0.78-0.24-1.02-0.78,0-0.96c1.32-0.24,6.12-0.54,6.12-4.98
					c0-2.76-1.68-5.16-4.74-5.16c-1.98,0-4.98,2.52-6.3,4.14v13.38l-3.3,1.8c-0.18,0.12-1.38,0.9-1.56,1.08
					c-0.48,0.42-0.54,0.42-0.48,0.12c0.06-0.18,0.12-1.38,0.12-1.98v-13.92C492.72,105.17,492.3,104.57,490.8,104.27z"/>
				<path d="M532.26,99.53c5.76,0,9.42,2.52,9.42,4.98v25.68l-3.3,1.8c-0.18,0.12-1.38,0.9-1.56,1.08
					c-0.48,0.42-0.54,0.42-0.48,0.12c0.06-0.18,0.12-1.38,0.12-1.98v-24.06c0-2.64-2.82-4.5-6.78-4.5c-2.58,0-6.48,1.38-10.5,4.5
					c-0.6,0.48-1.32,0.06-0.9-0.48C519.9,104.57,523.56,99.53,532.26,99.53z"/>
				<path d="M564.18,115.79c0-2.7-1.8-4.26-4.86-4.26c-1.92,0-5.22,2.7-6.9,3.78v4.32l-3.3,1.8c-0.18,0.12-1.38,0.9-1.56,1.08
					c-0.48,0.42-0.54,0.42-0.48,0.12c0.06-0.18,0.12-1.38,0.12-1.98v-13.5c0-2.34,6.3-7.74,11.4-7.74c5.04,0,8.88,1.98,10.56,3.6
					c0.66,0.66,0.48,0.66,0.24,0.84c-0.9,0.72-1.92,1.8-2.58,2.7c-0.36,0.6-0.48,0.72-0.78,0.18c-1.38-1.98-3.42-4.8-7.8-4.8
					c-3.72,0-5.82,2.46-5.82,3.54v7.62c2.16-0.9,6.18-3.96,9.42-3.96c4.68,0,7.92,1.68,7.92,5.94c0,4.62-6.66,6.78-10.8,7.62
					c-0.48,0.12-0.72-0.06-0.36-0.24C560.58,121.43,564.18,119.45,564.18,115.79z"/>
				<path d="M609.66,107.33c2.04-0.36,2.28-0.3,1.62,0.18c-0.42,0.3-2.7,2.58-3.54,3.36l-0.12,0.12h-11.34
					c-0.72,0-5.52,0.18-6.3,0.3c-2.04,0.36-2.28,0.3-1.62-0.18c0.42-0.3,2.7-2.58,3.54-3.36l0.12-0.12h11.34
					C604.08,107.63,608.88,107.45,609.66,107.33z"/>
				<path d="M657.78,119.87c2.04-0.36,2.28-0.3,1.62,0.18c-0.42,0.3-2.7,2.58-3.54,3.36l-0.12,0.12h-25.5h-0.06
					c-0.06,0-0.06,0-0.06,0h0.06l0.06-0.06h-0.36l16.74-25.92c2.28-3.48,5.04-4.86,8.58-4.86c2.52,0,5.58,2.64,5.58,6.3
					c0,5.34-4.02,8.46-6.36,10.62c-0.3,0.24-0.66,0.06-0.18-0.72c1.5-2.16,2.94-5.94,0.96-9.06c-1.32-2.1-3.3-2.64-4.56-2.64
					c-0.9,0-1.74,0.36-3.06,2.4l-13.26,20.58h17.16C652.2,120.17,657,119.99,657.78,119.87z"/>
				<path d="M686.64,90.95c6.42,0,10.5,3.72,12.24,5.58c0.24,0.24,0.06,0.36-0.12,0.48c-1.38,0.78-3.06,2.76-3.96,4.02
					c-0.24,0.36-0.42,0.48-0.6,0.06c-1.14-2.52-4.56-7.44-10.26-7.44c-2.82,0-6.54,1.74-6.54,5.64v11.16c3.9-2.22,7.2-4.98,7.2-6.12
					c0-0.3-1.38-0.84,0-1.2c1.56-0.42,3.78-1.08,5.1-1.38c1.8-0.42,0.6,2.88-1.86,5.1c-3.06,2.7-6.84,4.5-10.44,5.4v7.38v0.06
					c3.9-2.22,7.2-4.98,7.2-6.12c0-0.3-1.38-0.84,0-1.2c1.56-0.42,3.78-1.08,5.1-1.38c1.8-0.42,0.6,2.88-1.86,5.1
					c-3.12,2.76-7.02,4.62-10.68,5.46c-1.62,5.52-10.26,6.48-13.56,6.48c-1.02,0-0.78-0.42-0.3-0.54c3.66-1.02,8.88-4.68,8.88-7.86
					V99.35C672.18,93.71,678,90.95,686.64,90.95z M672.18,117.95c-0.06,0-0.06,0-0.06,0H672.18z"/>
				<path d="M717.96,90.95c6.42,0,10.5,3.72,12.24,5.58c0.24,0.24,0.06,0.36-0.12,0.48c-1.38,0.78-3.06,2.76-3.96,4.02
					c-0.24,0.36-0.42,0.48-0.6,0.06c-1.14-2.52-4.56-7.44-10.26-7.44c-2.82,0-6.54,1.74-6.54,5.64v11.16c3.9-2.22,7.2-4.98,7.2-6.12
					c0-0.3-1.38-0.84,0-1.2c1.56-0.42,3.78-1.08,5.1-1.38c1.8-0.42,0.6,2.88-1.86,5.1c-3.06,2.7-6.84,4.5-10.44,5.4v7.38
					c0,7.2-10.14,8.4-13.8,8.4c-1.02,0-0.78-0.42-0.3-0.54c3.66-1.02,8.88-4.68,8.88-7.86V99.35
					C703.5,93.71,709.32,90.95,717.96,90.95z M703.5,117.95c-0.06,0-0.06,0-0.06,0H703.5z"/>
				<path d="M751.56,97.07v15.72c0,0,5.28-4.74,7.2-4.74c2.7,0,7.02,1.44,7.02,6.54c0,3.9-5.16,9.24-8.82,9.24
					c-2.28,0-4.44-0.78-5.94-2.1l-2.76,1.5c-0.18,0.12-1.38,0.9-1.56,1.08c-0.48,0.42-0.54,0.42-0.48,0.12
					c0.06-0.18,0.12-1.38,0.12-1.98v-6.78c0-6.66-7.5-6.36-12.48-1.92c-1.14,1.02-0.9,0-0.48-0.54c3.78-5.34,9.06-6.18,12.96-5.16
					v-0.36c0-6.66-7.5-6.36-12.48-1.92c-1.14,1.02-0.9,0-0.48-0.54c3.78-5.34,9.06-6.18,12.96-5.16v-0.12
					c0-6.66-7.5-6.36-12.48-1.92c-1.14,1.02-0.9,0-0.48-0.54C740.04,88.01,751.56,92.63,751.56,97.07z M757.8,121.97
					c1.8,0,3.06-1.32,3.06-3.54c0-6.3-3.9-7.32-4.86-6.6l-4.44,3.18v0.48C751.56,118.43,756.72,121.97,757.8,121.97z"/>
				<path d="M787.98,96.11c-0.6-0.12-1.68-0.18-2.22-0.18s-0.54-0.3-0.3-0.42c2.76-1.14,4.74-2.52,7.5-4.14
					c1.32-0.78,2.16,0.96,2.16,2.46v20.7c4.8-4.44,10.38-8.34,11.94-9.36c4.02-2.7,5.34-5.22,4.02-7.74
					c-0.96-1.86-2.64-3.12-4.32-3.12c-1.5,0-4.32,1.68-4.74,1.68c-0.3,0-0.36-0.24-0.12-0.36c2.58-1.38,5.7-3.3,7.74-4.56
					c1.44-0.9,5.4,0.3,7.38,4.14c2.88,5.58-6.9,10.5-11.28,13.62c-6.12,4.38-9.54,7.98-10.02,12.36c-0.06,0.42-0.24,0.42-0.54,0.54
					c-2.64,0.96-5.22,2.4-7.26,4.26c-0.3,0.24-0.3,0-0.3-0.42c0-1.62,0.9-3.48,2.28-5.4V98.45
					C789.9,97.01,789.48,96.41,787.98,96.11z"/>
				<path d="M820.8,104.09c-0.6-0.12-1.68-0.18-2.22-0.18s-0.54-0.3-0.3-0.42c2.76-1.14,4.74-2.52,7.5-4.14
					c1.32-0.78,2.16,0.96,2.16,2.46v3.06c2.46-2.64,5.76-5.28,10.14-5.28c3.12,0,5.7,1.2,6.6,2.28c-0.3,0.18-2.94,2.64-3.36,3.3
					c-1.2-1.2-3.36-2.22-6.36-2.22c-2.94,0-4.62,1.8-7.02,4.2v5.64c2.94-1.62,7.38-4.56,9.24-4.56c4.02,0,7.5,2.58,7.5,6.96
					c0,4.86-6.06,6.72-9.84,6.72c-3.18,0-5.52-1.86-6.9-2.46v0.48c0,4.26-8.7,12.06-9.9,12.66c-0.36,0.18-0.66,0-0.3-0.36
					c1.08-0.96,4.98-7.68,4.98-11.52v-0.18c0-1.56,0-3.54,0-4.68v-9.42C822.72,104.99,822.3,104.39,820.8,104.09z M836.46,119.63
					c2.4,0,2.94-0.18,2.94-2.88c0-3.3-2.82-5.52-4.74-5.52c-1.68,0-4.08,2.16-6.18,3.12C830.58,116.87,833.88,119.63,836.46,119.63z
					"/>
				<path d="M848.58,96.11c-0.6-0.12-1.68-0.18-2.22-0.18s-0.54-0.3-0.3-0.42c2.76-1.14,4.74-2.52,7.5-4.14
					c1.32-0.78,2.16,0.96,2.16,2.46v27.96h2.22c0.72,0,5.52-0.18,6.3-0.3c2.04-0.36,2.28-0.3,1.62,0.18
					c-0.42,0.3-2.7,2.58-3.54,3.36l-0.12,0.12h-11.64h-0.06c-0.06,0-0.06,0-0.06,0h0.06v-26.7
					C850.5,97.01,850.08,96.41,848.58,96.11z"/>
				<path d="M868.26,115.19v-12.18c0-2.04,1.56-3.48,5.46-3.48c2.34,0,4.08,1.38,5.76,3.96c0.66-1.26,2.22-3.96,5.58-3.96
					c3.06,0,4.14,0.9,8.16,7.2c3.66,5.64,6.78,12.42,9,12.42c1.68,0,2.64-1.8,3.24-2.34c0.36-0.36,0.78,0,0.6,0.36
					c-0.54,0.9-3.06,4.92-5.58,4.92c-3.06,0-4.56-1.02-6.6-4.14c-0.66,1.26-2.04,4.14-5.4,4.14c-2.64,0-4.74-1.8-6.48-4.26
					c-1.08,1.8-1.98,4.26-6.54,4.26C871.08,122.09,868.26,119.21,868.26,115.19z M877.38,119.09c1.68,0,3.24-1.14,4.14-1.92
					c-1.38-1.98-2.52-4.26-3.6-6.3c-1.56-2.94-2.7-8.76-4.32-8.76c-0.18,0-0.36,0-0.54,0.06v12.3
					C873.06,117.53,874.38,119.09,877.38,119.09z M882.42,108.47c2.16,3.9,6.12,10.68,8.46,10.68c0.96,0,1.92-1.2,2.52-1.86
					c-1.2-1.86-2.58-4.32-4.56-7.62c-3.06-5.34-4.44-7.14-6.24-7.14c-1.14,0-1.86,1.44-2.46,1.98
					C880.86,105.65,881.58,106.97,882.42,108.47z"/>
				<path d="M925.92,115.79c0-2.7-1.8-4.26-4.86-4.26c-1.92,0-5.22,2.7-6.9,3.78v4.32l-3.3,1.8c-0.18,0.12-1.38,0.9-1.56,1.08
					c-0.48,0.42-0.54,0.42-0.48,0.12c0.06-0.18,0.12-1.38,0.12-1.98v-13.5c0-2.34,6.3-7.74,11.4-7.74c5.04,0,8.88,1.98,10.56,3.6
					c0.66,0.66,0.48,0.66,0.24,0.84c-0.9,0.72-1.92,1.8-2.58,2.7c-0.36,0.6-0.48,0.72-0.78,0.18c-1.38-1.98-3.42-4.8-7.8-4.8
					c-3.72,0-5.82,2.46-5.82,3.54v7.62c2.16-0.9,6.18-3.96,9.42-3.96c4.68,0,7.92,1.68,7.92,5.94c0,4.62-6.66,6.78-10.8,7.62
					c-0.48,0.12-0.72-0.06-0.36-0.24C922.32,121.43,925.92,119.45,925.92,115.79z"/>
			</g>
		</g>
	</g>
</g>
<g id="图层_3">
	<g>
		<path class="st123" d="M113.16,54.82v6.29c0,0.15-0.01,0.36-0.02,0.55c-0.43,2.88,0.35,5.76,2.16,7.97
			c1.9,2.31,4.76,3.67,7.76,3.67c3.44,0,5.73-1.69,6.74-2.54c0.14-0.09,0.29-0.2,0.43-0.29l2.94-1.6c2.45-1.34,4.19-3.61,4.88-6.24
			c0.18-0.07,0.35-0.15,0.53-0.22c1.3,2.39,3.32,4.34,5.97,5.67c1.4,0.7,2.94,1.06,4.48,1.06c1.23,0,2.47-0.23,3.64-0.69
			c2.13-0.83,3.18-1.11,3.53-1.19c2.7-0.13,5.17-1.29,6.95-3.12c3.33,2.83,8.48,4.88,16.41,4.88c0.13,0,0.25-0.01,0.38-0.02
			c1.04,0.35,2.13,0.55,3.26,0.55c0,0,0,0,0,0c1.67,0,3.31-0.4,4.9-1.2c5.04-2.55,8.74-6.18,10.69-10.28
			c0.13,2.12,0.9,4.15,2.26,5.8c1.9,2.31,4.76,3.67,7.76,3.67c2.32,0,4.12-0.77,5.36-1.54c1.71,0.48,3.52,0.73,5.36,0.73
			c6.46,0,13.18-4.94,16.58-11.14c0,0.1-0.01,0.21-0.01,0.31c-0.43,2.88,0.35,5.76,2.16,7.97c1.9,2.31,4.76,3.67,7.76,3.67
			c2.32,0,4.12-0.77,5.36-1.54c1.71,0.48,3.52,0.73,5.36,0.73c6.03,0,12.29-4.3,15.85-9.91c0.25-0.06,0.5-0.13,0.75-0.2
			c-0.21,2.64,0.58,5.23,2.24,7.26c1.9,2.31,4.76,3.67,7.76,3.67c2.32,0,4.12-0.77,5.36-1.54c1.71,0.48,3.51,0.73,5.36,0.73
			c1.63,0,3.28-0.32,4.89-0.89c1.91,2.3,4.77,3.71,7.87,3.71c0,0,0,0,0,0c1.67,0,3.31-0.4,4.9-1.2c0,0,0,0,0,0
			c1.79,1.55,4.2,2.58,7.18,2.58c9.25,0,16.65-3.3,20.62-8.65c0.7,4.36,4.48,8.65,10.58,8.65c7.29,0,15.63-2.23,20.29-8.1
			c3.6-1.37,6.99-3.35,9.89-5.77c0.19,0.26,0.38,0.53,0.58,0.79c4.15,5.31,12.09,8.75,20.21,8.75c0,0,0,0,0,0
			c4.06,0,7.9-0.87,11.34-2.48c1.76,3.31,5.2,5.43,9,5.43c0,0,0,0,0,0c1.67,0,3.31-0.4,4.9-1.2c5.14-2.6,8.88-6.32,10.8-10.52
			c0.08,2.21,0.85,4.33,2.26,6.04c1.9,2.31,4.76,3.67,7.76,3.67c2.32,0,4.12-0.77,5.36-1.54c1.71,0.48,3.51,0.73,5.36,0.73
			c6.38,0,13.02-4.82,16.45-10.9c0,0.02,0,0.05,0,0.07c-0.43,2.88,0.35,5.76,2.16,7.97c1.9,2.31,4.76,3.67,7.76,3.67
			c2.32,0,4.12-0.77,5.36-1.54c1.71,0.48,3.52,0.73,5.36,0.73c2.55,0,5.14-0.77,7.55-2.08c1.23,0.83,2.64,1.39,4.13,1.61
			c0.6,0.11,1.21,0.17,1.83,0.17h25.5c2.65,0,5.2-1.05,7.07-2.93L541,63.5c0.35-0.33,0.84-0.8,1.36-1.31
			c0.55-0.54,1.14-1.11,1.51-1.46c4.22-3.33,4.57-8.09,3.55-11.22c-0.6-1.85-1.71-3.43-3.15-4.62c2.43-3.06,4.69-7.32,4.69-13
			c0-8.83-7.13-16.3-15.58-16.3c-7.06,0-12.92,3.24-16.98,9.44l-7.14,11.05c-2.63-2.68-6.13-4.34-9.74-4.91v-1.2
			c0-8.34-8.17-15.12-18.2-15.12c-7.11,0-13.68,3.52-18.06,9.65c-0.51,0.7-0.92,1.44-1.26,2.2c-1.81-6.77-9.08-11.85-17.76-11.85
			c-7.11,0-13.69,3.52-18.06,9.65c-0.45,0.61-0.81,1.25-1.13,1.9c-2.15-3.82-5.35-7-9.38-9.22c-4.08-2.24-8.32-3.37-12.6-3.37
			c-5.23,0-10.3,1.75-14.73,4.99c-4.51-3.22-9.76-4.95-15.22-4.95c-7.52,0-13.02,1.72-16.87,4.35c-4.3-2.83-9.22-4.35-14.33-4.35
			c-18.05,0-24.46,9.91-24.46,18.4v8.92c-1.26-1.09-3.65-3.01-7.38-3.02c-2.68-3.9-6.98-6.28-11.44-6.98v-1.2
			c0-8.34-8.17-15.12-18.2-15.12c-7.11,0-13.69,3.52-18.06,9.65c-0.58,0.79-1.06,1.63-1.42,2.5c-1.67-6.92-9.03-12.15-17.85-12.15
			c-7.11,0-13.68,3.52-18.06,9.65c-0.55,0.74-0.99,1.53-1.34,2.34c-1.74-6.84-9.06-11.99-17.8-11.99c-7.11,0-13.68,3.52-18.06,9.65
			c-2.49,3.38-2.97,7.64-1.23,11.2c0.5,1.02,1.17,1.92,1.94,2.69c-0.65-0.14-1.34-0.23-2.1-0.23c-1.15,0-2.56,0.32-4.04,0.91v-9.87
			c0-8.61-8.63-14.62-20.98-14.62c-8.81,0-16.55,3.59-21.6,9.94c-3.03-1.42-6.57-2.26-10.56-2.26c-4.74,0-13.57,0-16.65,7.41
			c-0.97,2.34-1.03,4.89-0.26,7.2c-0.32,0.31-0.62,0.6-0.84,0.8c-4.22,3.33-4.57,8.09-3.55,11.22
			C108.85,51.54,110.74,53.64,113.16,54.82z"/>
		<path class="st123" d="M472.98,117.71c0.05,2.25,0.82,4.41,2.25,6.16c1.9,2.32,4.77,3.68,7.77,3.68c2.32,0,4.12-0.77,5.36-1.54
			c1.71,0.48,3.51,0.73,5.36,0.73c2.43,0,4.9-0.71,7.22-1.91c1.16,0.73,2.47,1.24,3.85,1.44c0.6,0.11,1.21,0.17,1.83,0.17h25.5
			c2.65,0,5.2-1.05,7.07-2.93l0.01-0.01c0.35-0.33,0.84-0.8,1.36-1.31c0.55-0.54,1.14-1.11,1.51-1.46
			c4.22-3.33,4.57-8.09,3.55-11.22c-0.6-1.85-1.71-3.43-3.15-4.62c2.43-3.06,4.69-7.32,4.69-13c0-8.83-7.13-16.3-15.58-16.3
			c-7.06,0-12.92,3.24-16.98,9.44l-6.91,10.7c-2.58-2.47-5.92-4.01-9.37-4.56v-1.2c0-8.34-8.17-15.12-18.2-15.12
			c-7.11,0-13.68,3.52-18.06,9.65c-0.22,0.3-0.4,0.6-0.59,0.91c-2.33-6.12-9.23-10.57-17.35-10.57c-7.11,0-13.68,3.52-18.06,9.65
			c-0.29,0.4-0.56,0.81-0.8,1.23c-2.14-3.52-5.2-6.45-8.99-8.54c-4.08-2.24-8.32-3.37-12.6-3.37c-5.55,0-10.92,1.97-15.53,5.61
			c-4.68-3.61-10.24-5.57-16.04-5.57c-9.17,0-15.33,2.56-19.18,6.19c-4.84-4.01-10.69-6.19-16.82-6.19
			c-18.05,0-24.46,9.91-24.46,18.4v8.09c-1.3-0.97-3.23-2.03-5.85-2.16c-2.68-3.92-6.99-6.31-11.46-7.01v-1.2
			c0-8.34-8.17-15.12-18.2-15.12c-7.11,0-13.69,3.52-18.06,9.65c-0.22,0.29-0.4,0.6-0.59,0.91c-2.34-6.11-9.23-10.56-17.35-10.56
			c-7.11,0-13.69,3.52-18.06,9.65c-0.22,0.29-0.4,0.6-0.59,0.91c-2.34-6.11-9.23-10.56-17.35-10.56c-7.11,0-13.68,3.52-18.06,9.65
			c-2.49,3.38-2.97,7.64-1.23,11.2c0.47,0.96,1.08,1.8,1.79,2.55c-0.43-0.06-0.88-0.09-1.35-0.09c-0.5,0-1.06,0.07-1.64,0.19v-9.15
			c0-8.61-8.63-14.62-20.98-14.62c-8.9,0-16.73,3.66-21.77,10.15c-3.12-1.55-6.81-2.47-10.99-2.47c-4.75,0-13.58,0-16.65,7.42
			c-0.97,2.34-1.03,4.89-0.26,7.2c-0.32,0.31-0.62,0.6-0.84,0.8c-4.22,3.33-4.57,8.09-3.55,11.22c0.86,2.65,2.76,4.75,5.18,5.93
			v6.29c0,0.15-0.01,0.36-0.02,0.55c-0.43,2.88,0.35,5.76,2.16,7.97c1.9,2.31,4.76,3.67,7.76,3.67c0,0,0,0,0,0
			c3.44,0,5.73-1.69,6.74-2.54c0.14-0.09,0.29-0.2,0.43-0.29l2.94-1.6c2.45-1.34,4.19-3.61,4.88-6.24c0.34-0.13,0.68-0.28,1.01-0.43
			c1.29,2.48,3.36,4.51,6.08,5.87c1.4,0.7,2.94,1.06,4.48,1.06c1.23,0,2.47-0.23,3.64-0.69c2.13-0.83,3.18-1.11,3.53-1.19
			c2.7-0.13,5.17-1.29,6.95-3.12c3.02,2.57,7.55,4.48,14.28,4.82c1.07,0.37,2.2,0.59,3.37,0.59c0,0,0,0,0,0c1.67,0,3.31-0.4,4.9-1.2
			c4.64-2.35,8.14-5.61,10.19-9.31c0.27,1.76,1,3.43,2.14,4.82c1.9,2.32,4.77,3.68,7.77,3.68c2.32,0,4.12-0.77,5.36-1.54
			c1.71,0.48,3.51,0.73,5.36,0.73c5.71,0,11.62-3.85,15.26-9.02c0.05,2.25,0.82,4.41,2.25,6.16c1.9,2.32,4.77,3.68,7.77,3.68
			c2.32,0,4.12-0.77,5.36-1.54c1.71,0.48,3.51,0.73,5.36,0.73c5.71,0,11.62-3.85,15.26-9.01c0.06,2.24,0.83,4.4,2.26,6.15
			c1.9,2.32,4.77,3.68,7.77,3.68c2.32,0,4.12-0.77,5.36-1.54c1.71,0.48,3.51,0.73,5.36,0.73c1.5,0,3.02-0.27,4.5-0.76
			c1.91,2.23,4.73,3.58,7.77,3.58c0,0,0,0,0,0c1.44,0,2.85-0.31,4.23-0.9c1.75,1.39,4.05,2.29,6.83,2.29
			c14.01,0,23.8-7.57,23.8-18.4V101.4c1.88,1.8,4.38,2.86,7.04,2.86c0,0,0,0,0,0c0.8,0,2.19-0.11,3.74-0.72v6.43
			c-0.53,0.34-1.13,0.66-1.53,0.78c-5.09,1.39-8.32,6.05-7.68,11.19c0.55,4.47,4.38,8.99,10.64,8.99c7.29,0,15.63-2.23,20.29-8.1
			c3.89-1.48,7.56-3.68,10.65-6.41c0.09-0.08,0.17-0.16,0.25-0.24c0.37,0.56,0.76,1.12,1.19,1.67c4.15,5.31,12.09,8.75,20.21,8.75
			c0,0,0,0,0,0c4.06,0,7.9-0.87,11.34-2.48c1.76,3.31,5.2,5.43,9,5.43c0,0,0,0,0,0c1.67,0,3.31-0.4,4.9-1.2
			c4.65-2.35,8.15-5.62,10.2-9.32c0.27,1.77,0.99,3.43,2.14,4.83c1.9,2.32,4.77,3.68,7.77,3.68c2.32,0,4.12-0.77,5.36-1.54
			c1.71,0.48,3.51,0.73,5.36,0.73C463.43,126.73,469.34,122.88,472.98,117.71z"/>
		<path class="st123" d="M1001.98,21.77c-8.8,0-13.5,7.16-15.54,10.27l-6.48,10.03c-2.01-1.22-4.26-2.03-6.56-2.39v-2.22
			c0-8.29-7.73-15.03-17.22-15.03c-6.59,0-12.84,3.27-17.57,9.21c-0.02,0.03-0.05,0.06-0.07,0.09c-1.3,1.66-2.08,3.56-2.35,5.48
			c-0.15-8.17-7.81-14.79-17.21-14.79c-6.59,0-12.84,3.27-17.58,9.21c-0.03,0.03-0.05,0.06-0.08,0.1c-0.5,0.64-0.9,1.32-1.24,2.02
			c-1.76-3.69-4.64-6.81-8.35-8.86c-3.38-1.83-6.84-2.76-10.3-2.76c-3.26,0-7.76,0.84-12.27,4.38c-3.2-2.24-7.76-4.39-13.52-4.39
			c-6.97,0-13.01,2.38-17.08,6.26c-3.09-2.72-8.53-6.26-15.92-6.26c-12.48,0-21.98,7.61-22.51,17.85c-1.37-0.92-3.3-1.83-5.87-1.83
			c-2.04,0-4.89,1-7.48,2.72c-1.35-0.56-2.75-0.96-4.18-1.18v-2.22c0-8.29-7.73-15.03-17.22-15.03c-6.59,0-12.84,3.27-17.57,9.21
			c-0.02,0.03-0.05,0.06-0.07,0.09c-1.29,1.66-2.08,3.54-2.35,5.46c-0.17-8.16-7.82-14.76-17.21-14.76
			c-6.59,0-12.84,3.27-17.58,9.21c-0.03,0.03-0.05,0.06-0.08,0.1c-1.29,1.65-2.07,3.53-2.34,5.44c-0.17-8.16-7.82-14.76-17.21-14.76
			c-6.59,0-12.84,3.27-17.58,9.21c-0.03,0.03-0.05,0.06-0.08,0.1c-1.5,1.93-2.3,4.17-2.41,6.42c-0.09,0-0.16-0.02-0.25-0.02
			c-0.9,0-1.96,0.19-3.08,0.56v-1.48c0-8.54-8.35-14.98-19.42-14.98c-7.09,0-12.18,2.29-15.72,4.85c-3.76-2.96-8.75-4.85-14.76-4.85
			c-4.74,0-13.57,0-16.65,7.41c-0.97,2.34-1.03,4.89-0.26,7.2c-0.32,0.31-0.62,0.6-0.84,0.8c-4.22,3.33-4.57,8.09-3.55,11.22
			c0.86,2.65,2.76,4.75,5.18,5.93v6.29c0,0.15-0.01,0.36-0.02,0.55c-0.43,2.88,0.35,5.76,2.16,7.97c1.9,2.31,4.76,3.67,7.75,3.67
			c0,0,0,0,0,0c3.43,0,5.73-1.69,6.74-2.54c0.14-0.09,0.3-0.2,0.43-0.29l2.94-1.6c1.81-0.99,3.23-2.49,4.13-4.27
			c1.19,3.23,3.56,5.84,6.83,7.37c1.34,0.62,2.78,0.94,4.23,0.94c1.2,0,2.41-0.22,3.56-0.65c2.03-0.77,3.18-1.11,3.53-1.19
			c2.13-0.31,4.02-1.2,5.5-2.52c3.33,2.4,8.22,4.06,15.37,4.06c3.78,0,7.07-1.95,8.87-4.96c4.38-2.49,7.61-5.83,9.39-9.57v5.9
			c0,0.15-0.01,0.36-0.02,0.55c-0.43,2.88,0.35,5.76,2.16,7.97c1.9,2.31,4.76,3.67,7.76,3.67c2.41,0,4.26-0.83,5.49-1.62
			c1.67,0.46,3.43,0.69,5.22,0.69c6.46,0,13.19-4.94,16.58-11.14c0,0.13-0.01,0.29-0.02,0.43c-0.43,2.88,0.35,5.76,2.16,7.97
			c1.9,2.31,4.76,3.67,7.75,3.67c0,0,0,0,0,0c2.41,0,4.26-0.83,5.49-1.62c1.67,0.46,3.43,0.69,5.22,0.69
			c5.83,0,11.86-4.02,15.48-9.35c0.33-0.03,0.65-0.07,0.97-0.13c-0.08,2.46,0.72,4.84,2.27,6.74c1.9,2.31,4.76,3.67,7.76,3.67
			c2.41,0,4.26-0.83,5.49-1.62c1.67,0.46,3.43,0.69,5.22,0.69c4.41,0,8.95-2.31,12.46-5.74c0.18,0.01,0.35,0.04,0.53,0.04
			c0,0,0,0,0,0c0.68,0,1.34-0.08,2.01-0.21c1.36,3.63,4.87,6.76,10.08,6.76c9.29,0,22.24-8.28,22.24-21.76l0-3.46
			c1.32,0.61,2.78,0.94,4.29,0.94c0,0,0,0,0,0c1.21,0,2.38-0.21,3.48-0.62v4.44c-0.07,0.12-0.2,0.27-0.31,0.37
			c-4.82,1.48-7.95,6.14-7.35,11.08c0.55,4.48,4.38,9.01,10.64,9.01c4.88,0,12.58-2.77,17.52-8.82c3.29-0.97,7.45-2.73,10.7-5.9
			c0.03-0.03,0.06-0.06,0.09-0.09c0.47-0.47,0.91-0.96,1.31-1.45c3.59,3.36,8.59,5.31,13.87,5.31c0,0,0,0,0,0
			c2.34,0,4.61-0.38,6.76-1.11c1.74,3.36,5.22,5.52,9.05,5.52c0,0,0,0,0,0c1.67,0,3.3-0.4,4.9-1.2c1.82-0.92,3.46-1.99,4.91-3.16
			c1.18,0.47,2.46,0.75,3.79,0.75c0,0,0,0,0,0c0.63,0,1.24-0.06,1.85-0.17c-0.08,2.46,0.72,4.84,2.27,6.74
			c1.9,2.31,4.76,3.67,7.76,3.67c2.41,0,4.26-0.83,5.49-1.62c1.67,0.46,3.43,0.69,5.22,0.69c6.46,0,13.19-4.94,16.58-11.14
			c0,0.13-0.01,0.29-0.02,0.43c-0.43,2.88,0.35,5.76,2.16,7.97c1.9,2.31,4.76,3.67,7.76,3.67c2.41,0,4.26-0.83,5.49-1.62
			c1.67,0.46,3.43,0.69,5.22,0.69c5.36,0,10.9-3.4,14.57-8.1h18.13c2.65,0,5.2-1.05,7.07-2.93l0,0c0.35-0.33,0.85-0.81,1.37-1.32
			c0.55-0.53,1.13-1.11,1.5-1.45c4.22-3.34,4.57-8.09,3.55-11.22c-0.21-0.66-0.49-1.28-0.82-1.86c2.8-3.87,3.98-8.77,3.02-13.74
			C1015.74,27.13,1009.52,21.84,1001.98,21.77z"/>
		<path class="st123" d="M1015.39,94.63c-1.45-7.5-7.67-12.78-15.21-12.85c-8.8,0-13.5,7.16-15.54,10.27l-6.47,10.01
			c-2-1.21-4.24-2-6.51-2.36v-2.22c0-8.29-7.73-15.03-17.22-15.03c-6.47,0-12.59,3.16-17.3,8.88c-2.7-5.23-8.71-8.88-15.7-8.88
			c-6.59,0-12.84,3.27-17.58,9.21c-0.03,0.03-0.05,0.06-0.08,0.1c-0.7,0.9-1.24,1.87-1.64,2.87c-1.71-4.07-4.74-7.51-8.73-9.72
			c-3.37-1.83-6.84-2.76-10.3-2.76c-3.65,0-8.87,1.06-13.9,5.79c-3.16-2.64-8.39-5.8-15.37-5.8c-6.97,0-13.01,2.38-17.08,6.26
			c-3.09-2.72-8.53-6.26-15.92-6.26c-12.48,0-21.98,7.61-22.51,17.85c-1.37-0.92-3.3-1.83-5.87-1.83c-1.86,0-4.39,0.84-6.79,2.29
			c-0.98-0.33-1.99-0.59-3.01-0.75v-2.22c0-8.29-7.73-15.03-17.22-15.03c-6.47,0-12.59,3.16-17.3,8.88
			c-2.7-5.23-8.71-8.88-15.7-8.88c-6.47,0-12.59,3.16-17.3,8.88c-2.7-5.23-8.71-8.88-15.7-8.88c-6.59,0-12.84,3.27-17.58,9.21
			c-0.03,0.03-0.05,0.06-0.08,0.1c-1.56,2.01-2.37,4.35-2.43,6.68c-0.12,0.03-0.25,0.07-0.38,0.11v-1.31
			c0-8.54-8.35-14.98-19.42-14.98c-7.09,0-12.18,2.29-15.72,4.85c-3.76-2.96-8.75-4.85-14.76-4.85c-4.74,0-13.57,0-16.65,7.41
			c-0.97,2.34-1.03,4.89-0.26,7.2c-0.32,0.31-0.62,0.6-0.84,0.8c-4.22,3.33-4.57,8.09-3.55,11.22c0.86,2.65,2.76,4.75,5.18,5.93
			v6.29c0,0.15-0.01,0.36-0.02,0.55c-0.43,2.88,0.35,5.76,2.16,7.97c1.9,2.31,4.76,3.67,7.75,3.67c0,0,0,0,0,0
			c3.43,0,5.73-1.69,6.74-2.54c0.14-0.09,0.3-0.2,0.43-0.29l2.94-1.6c1.81-0.99,3.23-2.49,4.13-4.27c1.19,3.23,3.56,5.84,6.83,7.37
			c1.34,0.62,2.78,0.94,4.23,0.94c1.2,0,2.41-0.22,3.56-0.65c2.03-0.77,3.18-1.11,3.53-1.19c2.13-0.31,4.02-1.2,5.5-2.52
			c3.33,2.4,8.22,4.06,15.37,4.06c4,0,7.46-2.18,9.18-5.5c2.46-1.53,4.54-3.33,6.14-5.32v2.2c0,0.15-0.01,0.36-0.02,0.55
			c-0.43,2.88,0.35,5.76,2.16,7.97c1.9,2.31,4.76,3.67,7.76,3.67c2.41,0,4.26-0.83,5.49-1.62c1.67,0.46,3.43,0.69,5.22,0.69
			c4.53,0,9.2-2.43,12.75-6.02c0.38,1.19,0.97,2.31,1.78,3.29c1.9,2.31,4.76,3.67,7.76,3.67c2.41,0,4.26-0.83,5.49-1.62
			c1.67,0.46,3.43,0.69,5.22,0.69c4.53,0,9.19-2.43,12.74-6.02c0.38,1.19,0.98,2.3,1.78,3.28c1.9,2.31,4.76,3.67,7.76,3.67
			c2.41,0,4.26-0.83,5.49-1.62c1.67,0.46,3.43,0.69,5.22,0.69c4.44,0,9-2.33,12.52-5.8c0.21-0.03,0.41-0.07,0.62-0.11
			c1.36,3.63,4.87,6.76,10.08,6.76c9.29,0,22.24-8.28,22.24-21.76l0-3.46c1.32,0.61,2.78,0.94,4.29,0.94c0,0,0,0,0,0
			c1.21,0,2.38-0.21,3.49-0.62v4.44c-0.07,0.12-0.2,0.27-0.31,0.37c-4.82,1.48-7.95,6.14-7.35,11.08c0.55,4.48,4.38,9.01,10.64,9.01
			c4.88,0,12.58-2.77,17.52-8.82c3.29-0.97,7.45-2.73,10.7-5.9c0.03-0.03,0.06-0.06,0.09-0.09c1.15-1.15,2.07-2.36,2.82-3.61
			c3.59,4.68,9.51,7.47,15.84,7.47c0,0,0,0,0,0c3.32,0,6.49-0.76,9.38-2.19c0.07,0.19,0.14,0.38,0.22,0.57
			c1.63,3.67,5.3,6.04,9.33,6.04c0,0,0,0,0,0c1.67,0,3.3-0.4,4.9-1.2c1.55-0.79,2.97-1.68,4.26-2.65c0.68,0.14,1.38,0.24,2.1,0.24
			c0.63,0,1.24-0.06,1.85-0.17c-0.08,2.46,0.72,4.84,2.27,6.74c1.9,2.31,4.76,3.67,7.76,3.67c2.41,0,4.26-0.83,5.49-1.62
			c1.67,0.46,3.43,0.69,5.22,0.69c4.53,0,9.2-2.43,12.75-6.02c0.38,1.19,0.97,2.31,1.78,3.29c1.9,2.31,4.76,3.67,7.76,3.67
			c2.41,0,4.26-0.83,5.49-1.62c1.67,0.46,3.43,0.69,5.22,0.69c5.36,0,10.9-3.4,14.57-8.1h18.07c2.65,0,5.2-1.05,7.07-2.93l0,0
			c0.35-0.33,0.85-0.81,1.37-1.32c0.55-0.53,1.13-1.11,1.5-1.45c4.22-3.33,4.57-8.09,3.55-11.22c-0.21-0.66-0.49-1.28-0.83-1.86
			C1015.17,104.5,1016.35,99.59,1015.39,94.63z"/>
	</g>
	<g>
		<g>
			<path class="st291" d="M142.06,43.17c0,7.86-7.68,11.04-13.68,11.34v5.58l-3.3,1.8c-0.18,0.12-1.38,0.9-1.56,1.08
				c-0.48,0.42-0.54,0.42-0.48,0.12c0.06-0.18,0.12-1.38,0.12-1.98V45.39l-3.72,0.24c-2.04,0.36-2.28,0.3-1.62-0.18
				c0.42-0.3,2.7-2.58,3.54-3.36l0.12-0.12h4.74c0.72,0,5.52-0.18,6.3-0.3c2.04-0.36,2.28-0.3,1.62,0.18
				c-0.42,0.3-2.7,2.58-3.54,3.36l-0.12,0.12h-2.1v8.16c4.62-1.62,8.1-3.72,8.1-9c0-10.44-10.14-11.76-12.3-9
				c-0.18,0.18-2.04-1.44-2.22-1.62c-0.54-0.54,0.6-1.62,7.32-1.62C137.44,32.25,142.06,37.83,142.06,43.17z"/>
			<path class="st291" d="M161.44,24.57c6.24,0,10.98,2.16,10.98,4.62v21.96c0,5.82,4.74,6.9,7.2,7.44c0.42,0.12,0.3,0.42-0.06,0.42
				c-5.4,0-12.36-0.66-12.36-8.94v-8.58c-7.98,4.38-12.12,7.74-13.02,11.64c-0.48,2.1,0,2.82,1.5,3.66c0.42,0.24,0.42,0.48,0,0.48
				c-1.8,0-5.28,1.32-6.66,1.86c-0.96-0.48-2.1-1.32-2.1-3.48c0-4.8,7.32-9.36,20.28-16.5v-6.3c0-3.66-4.92-5.16-8.04-5.16
				c-3.18,0-7.56,1.44-11.46,4.5c-0.54,0.42-1.08,0-0.72-0.54C148.36,29.61,152.5,24.57,161.44,24.57z"/>
			<path class="st291" d="M186.46,48.15c0.3,0,0.96,0.72,1.86,1.44c1.02,0.72,2.04,0.9,2.04,1.74c0,2.52-2.16,5.76-6.78,8.1
				c-0.72,0.36-0.78-0.18-0.24-0.78c1.68-1.86,3.06-2.94,2.76-4.32c-0.66-0.78-3.66-1.92-3.66-3.18
				C182.44,50.49,185.92,48.15,186.46,48.15z"/>
			<path class="st291" d="M214.12,29.97v15.72c0,0,5.28-4.74,7.2-4.74c2.7,0,7.02,1.44,7.02,6.54c0,3.9-5.16,9.24-8.82,9.24
				c-2.28,0-4.44-0.78-5.94-2.1l-2.76,1.5c-0.18,0.12-1.38,0.9-1.56,1.08c-0.48,0.42-0.54,0.42-0.48,0.12
				c0.06-0.18,0.12-1.38,0.12-1.98v-22.5c0-6.66-7.5-6.36-12.48-1.92c-1.14,1.02-0.9,0-0.48-0.54
				C202.6,20.91,214.12,25.53,214.12,29.97z M220.36,54.87c1.8,0,3.06-1.32,3.06-3.54c0-6.3-3.9-7.32-4.86-6.6l-4.44,3.18v0.48
				C214.12,51.33,219.28,54.87,220.36,54.87z"/>
			<path class="st291" d="M251.32,29.97v15.72c0,0,5.28-4.74,7.2-4.74c2.7,0,7.02,1.44,7.02,6.54c0,3.9-5.16,9.24-8.82,9.24
				c-2.28,0-4.44-0.78-5.94-2.1l-2.76,1.5c-0.18,0.12-1.38,0.9-1.56,1.08c-0.48,0.42-0.54,0.42-0.48,0.12
				c0.06-0.18,0.12-1.38,0.12-1.98V40.59c0-6.66-7.5-6.36-12.48-1.92c-1.14,1.02-0.9,0-0.48-0.54c3.78-5.34,9.06-6.18,12.96-5.16
				v-0.12c0-6.66-7.5-6.36-12.48-1.92c-1.14,1.02-0.9,0-0.48-0.54C239.8,20.91,251.32,25.53,251.32,29.97z M257.56,54.87
				c1.8,0,3.06-1.32,3.06-3.54c0-6.3-3.9-7.32-4.86-6.6l-4.44,3.18v0.48C251.32,51.33,256.48,54.87,257.56,54.87z"/>
			<path class="st291" d="M288.64,29.97v15.72c0,0,5.28-4.74,7.2-4.74c2.7,0,7.02,1.44,7.02,6.54c0,3.9-5.16,9.24-8.82,9.24
				c-2.28,0-4.44-0.78-5.94-2.1l-2.76,1.5c-0.18,0.12-1.38,0.9-1.56,1.08c-0.48,0.42-0.54,0.42-0.48,0.12
				c0.06-0.18,0.12-1.38,0.12-1.98v-6.78c0-6.66-7.5-6.36-12.48-1.92c-1.14,1.02-0.9,0-0.48-0.54c3.78-5.34,9.06-6.18,12.96-5.16
				v-0.36c0-6.66-7.5-6.36-12.48-1.92c-1.14,1.02-0.9,0-0.48-0.54c3.78-5.34,9.06-6.18,12.96-5.16v-0.12c0-6.66-7.5-6.36-12.48-1.92
				c-1.14,1.02-0.9,0-0.48-0.54C277.12,20.91,288.64,25.53,288.64,29.97z M294.88,54.87c1.8,0,3.06-1.32,3.06-3.54
				c0-6.3-3.9-7.32-4.86-6.6l-4.44,3.18v0.48C288.64,51.33,293.8,54.87,294.88,54.87z M288.64,47.91v0.48V47.91z"/>
			<path class="st291" d="M310.06,48.15c0.3,0,0.96,0.72,1.86,1.44c1.02,0.72,2.04,0.9,2.04,1.74c0,2.52-2.16,5.76-6.78,8.1
				c-0.72,0.36-0.78-0.18-0.24-0.78c1.68-1.86,3.06-2.94,2.76-4.32c-0.66-0.78-3.66-1.92-3.66-3.18
				C306.04,50.49,309.52,48.15,310.06,48.15z"/>
			<path class="st291" d="M341.92,23.85c6.42,0,10.5,3.72,12.24,5.58c0.24,0.24,0.06,0.36-0.12,0.48c-1.38,0.78-3.06,2.76-3.96,4.02
				c-0.24,0.36-0.42,0.48-0.6,0.06c-1.14-2.52-4.56-7.44-10.26-7.44c-2.82,0-6.54,1.74-6.54,5.64v20.34c0,7.2-10.14,8.4-13.8,8.4
				c-1.02,0-0.78-0.42-0.3-0.54c3.66-1.02,8.88-4.68,8.88-7.86V32.25C327.46,26.61,333.28,23.85,341.92,23.85z M327.46,50.85h-0.06
				H327.46z"/>
			<path class="st291" d="M373.12,23.85c6.42,0,10.5,3.72,12.24,5.58c0.24,0.24,0.06,0.36-0.12,0.48c-1.38,0.78-3.06,2.76-3.96,4.02
				c-0.24,0.36-0.42,0.48-0.6,0.06c-1.14-2.52-4.56-7.44-10.26-7.44c-2.82,0-6.54,1.74-6.54,5.64v11.16c3.9-2.22,7.2-4.98,7.2-6.12
				c0-0.3-1.38-0.84,0-1.2c1.56-0.42,3.78-1.08,5.1-1.38c1.8-0.42,0.6,2.88-1.86,5.1c-3.06,2.7-6.84,4.5-10.44,5.4v7.38v0.06
				c3.9-2.22,7.2-4.98,7.2-6.12c0-0.3-1.38-0.84,0-1.2c1.56-0.42,3.78-1.08,5.1-1.38c1.8-0.42,0.6,2.88-1.86,5.1
				c-3.12,2.76-7.02,4.62-10.68,5.46c-1.62,5.52-10.26,6.48-13.56,6.48c-1.02,0-0.78-0.42-0.3-0.54c3.66-1.02,8.88-4.68,8.88-7.86
				V32.25C358.66,26.61,364.48,23.85,373.12,23.85z M358.66,50.85h-0.06H358.66z"/>
			<path class="st291" d="M388.72,51.69c-5.82-7.5-2.4-16.98,2.46-22.02c5.16-5.76,12.24-7.8,19.68-3.72
				c7.62,4.2,10.2,14.16,3.18,24.18C407.08,60.03,392.8,56.91,388.72,51.69z M407.68,31.47c-4.74-3.66-12.3-4.08-14.88-1.32
				c-3.66,3.9-2.88,11.16,0.12,16.08c3.78-2.28,6.54-5.04,6.54-6.18c0-0.3-1.38-0.84,0-1.2c2.7-0.54,4.32-0.78,6.72-1.38
				c1.8-0.42,0.66,2.76-1.68,5.1c-2.58,2.52-6.78,4.26-10.5,5.16c4.68,5.7,13.5,6.3,16.38,3.48
				C416.14,45.57,413.26,35.79,407.68,31.47z"/>
			<path class="st291" d="M424.66,48.15c0.3,0,0.96,0.72,1.86,1.44c1.02,0.72,2.04,0.9,2.04,1.74c0,2.52-2.16,5.76-6.78,8.1
				c-0.72,0.36-0.78-0.18-0.24-0.78c1.68-1.86,3.06-2.94,2.76-4.32c-0.66-0.78-3.66-1.92-3.66-3.18
				C420.64,50.49,424.12,48.15,424.66,48.15z"/>
			<path class="st291" d="M452.44,29.97v15.72c0,0,5.28-4.74,7.2-4.74c2.7,0,7.02,1.44,7.02,6.54c0,3.9-5.16,9.24-8.82,9.24
				c-2.28,0-4.44-0.78-5.94-2.1l-2.76,1.5c-0.18,0.12-1.38,0.9-1.56,1.08c-0.48,0.42-0.54,0.42-0.48,0.12
				c0.06-0.18,0.12-1.38,0.12-1.98v-6.78c0-6.66-7.5-6.36-12.48-1.92c-1.14,1.02-0.9,0-0.48-0.54c3.78-5.34,9.06-6.18,12.96-5.16
				v-0.36c0-6.66-7.5-6.36-12.48-1.92c-1.14,1.02-0.9,0-0.48-0.54c3.78-5.34,9.06-6.18,12.96-5.16v-0.12c0-6.66-7.5-6.36-12.48-1.92
				c-1.14,1.02-0.9,0-0.48-0.54C440.92,20.91,452.44,25.53,452.44,29.97z M458.68,54.87c1.8,0,3.06-1.32,3.06-3.54
				c0-6.3-3.9-7.32-4.86-6.6l-4.44,3.18v0.48C452.44,51.33,457.6,54.87,458.68,54.87z M452.44,47.91v0.48V47.91z"/>
			<path class="st291" d="M489.52,29.97v15.72c0,0,5.28-4.74,7.2-4.74c2.7,0,7.02,1.44,7.02,6.54c0,3.9-5.16,9.24-8.82,9.24
				c-2.28,0-4.44-0.78-5.94-2.1l-2.76,1.5c-0.18,0.12-1.38,0.9-1.56,1.08c-0.48,0.42-0.54,0.42-0.48,0.12
				c0.06-0.18,0.12-1.38,0.12-1.98v-22.5c0-6.66-7.5-6.36-12.48-1.92c-1.14,1.02-0.9,0-0.48-0.54
				C478,20.91,489.52,25.53,489.52,29.97z M495.76,54.87c1.8,0,3.06-1.32,3.06-3.54c0-6.3-3.9-7.32-4.86-6.6l-4.44,3.18v0.48
				C489.52,51.33,494.68,54.87,495.76,54.87z"/>
			<path class="st291" d="M535.96,52.77c2.04-0.36,2.28-0.3,1.62,0.18c-0.42,0.3-2.7,2.58-3.54,3.36l-0.12,0.12h-25.5h-0.06h-0.06
				h0.06l0.06-0.06h-0.36l16.74-25.92c2.28-3.48,5.04-4.86,8.58-4.86c2.52,0,5.58,2.64,5.58,6.3c0,5.34-4.02,8.46-6.36,10.62
				c-0.3,0.24-0.66,0.06-0.18-0.72c1.5-2.16,2.94-5.94,0.96-9.06c-1.32-2.1-2.7-2.64-3.96-2.64c-0.9,0-1.74,0.36-3.06,2.4
				L513.1,53.07h16.56C530.38,53.07,535.18,52.89,535.96,52.77z"/>
			<path class="st291" d="M142.66,103.17c0,7.86-7.68,11.04-13.68,11.34v5.58l-3.3,1.8c-0.18,0.12-1.38,0.9-1.56,1.08
				c-0.48,0.42-0.54,0.42-0.48,0.12c0.06-0.18,0.12-1.38,0.12-1.98v-15.72l-3.72,0.24c-2.04,0.36-2.28,0.3-1.62-0.18
				c0.42-0.3,2.7-2.58,3.54-3.36l0.12-0.12h4.74c0.72,0,5.52-0.18,6.3-0.3c2.04-0.36,2.28-0.3,1.62,0.18
				c-0.42,0.3-2.7,2.58-3.54,3.36l-0.12,0.12h-2.1v8.16c4.62-1.62,8.1-3.72,8.1-9c0-10.44-10.14-11.76-12.3-9
				c-0.18,0.18-2.04-1.44-2.22-1.62c-0.54-0.54,0.6-1.62,7.32-1.62C138.04,92.25,142.66,97.83,142.66,103.17z"/>
			<linearGradient id="SVGID_1_" gradientUnits="userSpaceOnUse" x1="141.1871" y1="101.8538" x2="547.9681" y2="101.8538">
				<stop  offset="0" style="stop-color:#4C5FBF"/>
				<stop  offset="0.3" style="stop-color:#4889D1"/>
				<stop  offset="0.5" style="stop-color:#47AADD"/>
				<stop  offset="1" style="stop-color:#FE9934"/>
			</linearGradient>
			<path class="st2" d="M162.64,84.57c6.24,0,10.98,2.16,10.98,4.62v21.96c0,5.82,4.74,6.9,7.2,7.44c0.42,0.12,0.3,0.42-0.06,0.42
				c-5.4,0-12.36-0.66-12.36-8.94v-8.58c-7.98,4.38-12.12,7.74-13.02,11.64c-0.48,2.1,0,2.82,1.5,3.66c0.42,0.24,0.42,0.48,0,0.48
				c-1.8,0-5.28,1.32-6.66,1.86c-0.96-0.48-2.1-1.32-2.1-3.48c0-4.8,7.32-9.36,20.28-16.5v-6.3c0-3.66-4.92-5.16-8.04-5.16
				c-3.18,0-7.56,1.44-11.46,4.5c-0.54,0.42-1.08,0-0.72-0.54C149.56,89.61,153.7,84.57,162.64,84.57z"/>
			<path class="st291" d="M185.26,108.15c0.3,0,0.96,0.72,1.86,1.44c1.02,0.72,2.04,0.9,2.04,1.74c0,2.52-2.16,5.76-6.78,8.1
				c-0.72,0.36-0.78-0.18-0.24-0.78c1.68-1.86,3.06-2.94,2.76-4.32c-0.66-0.78-3.66-1.92-3.66-3.18
				C181.24,110.49,184.72,108.15,185.26,108.15z"/>
			
				<linearGradient id="SVGID_00000068637300431624021010000006099335710983586493_" gradientUnits="userSpaceOnUse" x1="141.1871" y1="101.198" x2="547.9681" y2="101.198">
				<stop  offset="0" style="stop-color:#4C5FBF"/>
				<stop  offset="0.3" style="stop-color:#4889D1"/>
				<stop  offset="0.5" style="stop-color:#47AADD"/>
				<stop  offset="1" style="stop-color:#FE9934"/>
			</linearGradient>
			<path style="fill:url(#SVGID_00000068637300431624021010000006099335710983586493_);" d="M212.32,89.97v15.72
				c0,0,5.28-4.74,7.2-4.74c2.7,0,7.02,1.44,7.02,6.54c0,3.9-5.16,9.24-8.82,9.24c-2.28,0-4.44-0.78-5.94-2.1l-2.76,1.5
				c-0.18,0.12-1.38,0.9-1.56,1.08c-0.48,0.42-0.54,0.42-0.48,0.12c0.06-0.18,0.12-1.38,0.12-1.98v-22.5c0-6.66-7.5-6.36-12.48-1.92
				c-1.14,1.02-0.9,0-0.48-0.54C200.8,80.91,212.32,85.53,212.32,89.97z M218.56,114.87c1.8,0,3.06-1.32,3.06-3.54
				c0-6.3-3.9-7.32-4.86-6.6l-4.44,3.18v0.48C212.32,111.33,217.48,114.87,218.56,114.87z"/>
			
				<linearGradient id="SVGID_00000106126592325315872970000002264325734181064108_" gradientUnits="userSpaceOnUse" x1="141.1871" y1="101.198" x2="547.9681" y2="101.198">
				<stop  offset="0" style="stop-color:#4C5FBF"/>
				<stop  offset="0.3" style="stop-color:#4889D1"/>
				<stop  offset="0.5" style="stop-color:#47AADD"/>
				<stop  offset="1" style="stop-color:#FE9934"/>
			</linearGradient>
			<path style="fill:url(#SVGID_00000106126592325315872970000002264325734181064108_);" d="M248.32,89.97v15.72
				c0,0,5.28-4.74,7.2-4.74c2.7,0,7.02,1.44,7.02,6.54c0,3.9-5.16,9.24-8.82,9.24c-2.28,0-4.44-0.78-5.94-2.1l-2.76,1.5
				c-0.18,0.12-1.38,0.9-1.56,1.08c-0.48,0.42-0.54,0.42-0.48,0.12c0.06-0.18,0.12-1.38,0.12-1.98v-14.76
				c0-6.66-7.5-6.36-12.48-1.92c-1.14,1.02-0.9,0-0.48-0.54c3.78-5.34,9.06-6.18,12.96-5.16v-0.12c0-6.66-7.5-6.36-12.48-1.92
				c-1.14,1.02-0.9,0-0.48-0.54C236.8,80.91,248.32,85.53,248.32,89.97z M254.56,114.87c1.8,0,3.06-1.32,3.06-3.54
				c0-6.3-3.9-7.32-4.86-6.6l-4.44,3.18v0.48C248.32,111.33,253.48,114.87,254.56,114.87z"/>
			
				<linearGradient id="SVGID_00000156580180471476391860000006427674590370602905_" gradientUnits="userSpaceOnUse" x1="141.1871" y1="101.198" x2="547.9681" y2="101.198">
				<stop  offset="0" style="stop-color:#4C5FBF"/>
				<stop  offset="0.3" style="stop-color:#4889D1"/>
				<stop  offset="0.5" style="stop-color:#47AADD"/>
				<stop  offset="1" style="stop-color:#FE9934"/>
			</linearGradient>
			<path style="fill:url(#SVGID_00000156580180471476391860000006427674590370602905_);" d="M284.32,89.97v15.72
				c0,0,5.28-4.74,7.2-4.74c2.7,0,7.02,1.44,7.02,6.54c0,3.9-5.16,9.24-8.82,9.24c-2.28,0-4.44-0.78-5.94-2.1l-2.76,1.5
				c-0.18,0.12-1.38,0.9-1.56,1.08c-0.48,0.42-0.54,0.42-0.48,0.12c0.06-0.18,0.12-1.38,0.12-1.98v-6.78c0-6.66-7.5-6.36-12.48-1.92
				c-1.14,1.02-0.9,0-0.48-0.54c3.78-5.34,9.06-6.18,12.96-5.16v-0.36c0-6.66-7.5-6.36-12.48-1.92c-1.14,1.02-0.9,0-0.48-0.54
				c3.78-5.34,9.06-6.18,12.96-5.16v-0.12c0-6.66-7.5-6.36-12.48-1.92c-1.14,1.02-0.9,0-0.48-0.54
				C272.8,80.91,284.32,85.53,284.32,89.97z M290.56,114.87c1.8,0,3.06-1.32,3.06-3.54c0-6.3-3.9-7.32-4.86-6.6l-4.44,3.18v0.48
				C284.32,111.33,289.48,114.87,290.56,114.87z M284.32,107.91v0.48V107.91z"/>
			<path class="st291" d="M305.26,108.15c0.3,0,0.96,0.72,1.86,1.44c1.02,0.72,2.04,0.9,2.04,1.74c0,2.52-2.16,5.76-6.78,8.1
				c-0.72,0.36-0.78-0.18-0.24-0.78c1.68-1.86,3.06-2.94,2.76-4.32c-0.66-0.78-3.66-1.92-3.66-3.18
				C301.24,110.49,304.72,108.15,305.26,108.15z"/>
			
				<linearGradient id="SVGID_00000084502383684511370820000001445762957809900978_" gradientUnits="userSpaceOnUse" x1="141.1871" y1="102.3933" x2="547.9681" y2="102.3933">
				<stop  offset="0" style="stop-color:#4C5FBF"/>
				<stop  offset="0.3" style="stop-color:#4889D1"/>
				<stop  offset="0.5" style="stop-color:#47AADD"/>
				<stop  offset="1" style="stop-color:#FE9934"/>
			</linearGradient>
			<path style="fill:url(#SVGID_00000084502383684511370820000001445762957809900978_);" d="M336.1,83.85
				c6.42,0,10.5,3.72,12.24,5.58c0.24,0.24,0.06,0.36-0.12,0.48c-1.38,0.78-3.06,2.76-3.96,4.02c-0.24,0.36-0.42,0.48-0.6,0.06
				c-1.14-2.52-4.56-7.44-10.26-7.44c-2.82,0-6.54,1.74-6.54,5.64v20.34c0,7.2-10.14,8.4-13.8,8.4c-1.02,0-0.78-0.42-0.3-0.54
				c3.66-1.02,8.88-4.68,8.88-7.86V92.25C321.64,86.61,327.46,83.85,336.1,83.85z M321.64,110.85h-0.06H321.64z"/>
			
				<linearGradient id="SVGID_00000022543192211864423690000004686629403194420393_" gradientUnits="userSpaceOnUse" x1="141.1871" y1="102.3933" x2="547.9681" y2="102.3933">
				<stop  offset="0" style="stop-color:#4C5FBF"/>
				<stop  offset="0.3" style="stop-color:#4889D1"/>
				<stop  offset="0.5" style="stop-color:#47AADD"/>
				<stop  offset="1" style="stop-color:#FE9934"/>
			</linearGradient>
			<path style="fill:url(#SVGID_00000022543192211864423690000004686629403194420393_);" d="M372.1,83.85
				c6.42,0,10.5,3.72,12.24,5.58c0.24,0.24,0.06,0.36-0.12,0.48c-1.38,0.78-3.06,2.76-3.96,4.02c-0.24,0.36-0.42,0.48-0.6,0.06
				c-1.14-2.52-4.56-7.44-10.26-7.44c-2.82,0-6.54,1.74-6.54,5.64v11.16c3.9-2.22,7.2-4.98,7.2-6.12c0-0.3-1.38-0.84,0-1.2
				c1.56-0.42,3.78-1.08,5.1-1.38c1.8-0.42,0.6,2.88-1.86,5.1c-3.06,2.7-6.84,4.5-10.44,5.4v7.38v0.06c3.9-2.22,7.2-4.98,7.2-6.12
				c0-0.3-1.38-0.84,0-1.2c1.56-0.42,3.78-1.08,5.1-1.38c1.8-0.42,0.6,2.88-1.86,5.1c-3.12,2.76-7.02,4.62-10.68,5.46
				c-1.62,5.52-10.26,6.48-13.56,6.48c-1.02,0-0.78-0.42-0.3-0.54c3.66-1.02,8.88-4.68,8.88-7.86V92.25
				C357.64,86.61,363.46,83.85,372.1,83.85z M357.64,110.85h-0.06H357.64z"/>
			
				<linearGradient id="SVGID_00000170252193811658919710000003935465405253612461_" gradientUnits="userSpaceOnUse" x1="141.1871" y1="100.2066" x2="547.9681" y2="100.2066">
				<stop  offset="0" style="stop-color:#4C5FBF"/>
				<stop  offset="0.3" style="stop-color:#4889D1"/>
				<stop  offset="0.5" style="stop-color:#47AADD"/>
				<stop  offset="1" style="stop-color:#FE9934"/>
			</linearGradient>
			<path style="fill:url(#SVGID_00000170252193811658919710000003935465405253612461_);" d="M389.32,111.69
				c-5.82-7.5-2.4-16.98,2.46-22.02c5.16-5.76,12.24-7.8,19.68-3.72c7.62,4.2,10.2,14.16,3.18,24.18
				C407.68,120.03,393.4,116.91,389.32,111.69z M408.28,91.47c-4.74-3.66-12.3-4.08-14.88-1.32c-3.66,3.9-2.88,11.16,0.12,16.08
				c3.78-2.28,6.54-5.04,6.54-6.18c0-0.3-1.38-0.84,0-1.2c2.7-0.54,4.32-0.78,6.72-1.38c1.8-0.42,0.66,2.76-1.68,5.1
				c-2.58,2.52-6.78,4.26-10.5,5.16c4.68,5.7,13.5,6.3,16.38,3.48C416.74,105.57,413.86,95.79,408.28,91.47z"/>
			<path class="st291" d="M425.26,108.15c0.3,0,0.96,0.72,1.86,1.44c1.02,0.72,2.04,0.9,2.04,1.74c0,2.52-2.16,5.76-6.78,8.1
				c-0.72,0.36-0.78-0.18-0.24-0.78c1.68-1.86,3.06-2.94,2.76-4.32c-0.66-0.78-3.66-1.92-3.66-3.18
				C421.24,110.49,424.72,108.15,425.26,108.15z"/>
			
				<linearGradient id="SVGID_00000131357937343280631320000001765478484312687015_" gradientUnits="userSpaceOnUse" x1="141.1871" y1="101.198" x2="547.9681" y2="101.198">
				<stop  offset="0" style="stop-color:#4C5FBF"/>
				<stop  offset="0.3" style="stop-color:#4889D1"/>
				<stop  offset="0.5" style="stop-color:#47AADD"/>
				<stop  offset="1" style="stop-color:#FE9934"/>
			</linearGradient>
			<path style="fill:url(#SVGID_00000131357937343280631320000001765478484312687015_);" d="M452.32,89.97v15.72
				c0,0,5.28-4.74,7.2-4.74c2.7,0,7.02,1.44,7.02,6.54c0,3.9-5.16,9.24-8.82,9.24c-2.28,0-4.44-0.78-5.94-2.1l-2.76,1.5
				c-0.18,0.12-1.38,0.9-1.56,1.08c-0.48,0.42-0.54,0.42-0.48,0.12c0.06-0.18,0.12-1.38,0.12-1.98v-6.78c0-6.66-7.5-6.36-12.48-1.92
				c-1.14,1.02-0.9,0-0.48-0.54c3.78-5.34,9.06-6.18,12.96-5.16v-0.36c0-6.66-7.5-6.36-12.48-1.92c-1.14,1.02-0.9,0-0.48-0.54
				c3.78-5.34,9.06-6.18,12.96-5.16v-0.12c0-6.66-7.5-6.36-12.48-1.92c-1.14,1.02-0.9,0-0.48-0.54
				C440.8,80.91,452.32,85.53,452.32,89.97z M458.56,114.87c1.8,0,3.06-1.32,3.06-3.54c0-6.3-3.9-7.32-4.86-6.6l-4.44,3.18v0.48
				C452.32,111.33,457.48,114.87,458.56,114.87z M452.32,107.91v0.48V107.91z"/>
			
				<linearGradient id="SVGID_00000178171683767313721720000002969330602502901688_" gradientUnits="userSpaceOnUse" x1="141.1871" y1="101.198" x2="547.9681" y2="101.198">
				<stop  offset="0" style="stop-color:#4C5FBF"/>
				<stop  offset="0.3" style="stop-color:#4889D1"/>
				<stop  offset="0.5" style="stop-color:#47AADD"/>
				<stop  offset="1" style="stop-color:#FE9934"/>
			</linearGradient>
			<path style="fill:url(#SVGID_00000178171683767313721720000002969330602502901688_);" d="M488.32,89.97v15.72
				c0,0,5.28-4.74,7.2-4.74c2.7,0,7.02,1.44,7.02,6.54c0,3.9-5.16,9.24-8.82,9.24c-2.28,0-4.44-0.78-5.94-2.1l-2.76,1.5
				c-0.18,0.12-1.38,0.9-1.56,1.08c-0.48,0.42-0.54,0.42-0.48,0.12c0.06-0.18,0.12-1.38,0.12-1.98v-22.5c0-6.66-7.5-6.36-12.48-1.92
				c-1.14,1.02-0.9,0-0.48-0.54C476.8,80.91,488.32,85.53,488.32,89.97z M494.56,114.87c1.8,0,3.06-1.32,3.06-3.54
				c0-6.3-3.9-7.32-4.86-6.6l-4.44,3.18v0.48C488.32,111.33,493.48,114.87,494.56,114.87z"/>
			
				<linearGradient id="SVGID_00000037679621562144436870000012234950503126304659_" gradientUnits="userSpaceOnUse" x1="141.1871" y1="101.0134" x2="547.9681" y2="101.0134">
				<stop  offset="0" style="stop-color:#4C5FBF"/>
				<stop  offset="0.3" style="stop-color:#4889D1"/>
				<stop  offset="0.5" style="stop-color:#47AADD"/>
				<stop  offset="1" style="stop-color:#FE9934"/>
			</linearGradient>
			<path style="fill:url(#SVGID_00000037679621562144436870000012234950503126304659_);" d="M534.16,112.77
				c2.04-0.36,2.28-0.3,1.62,0.18c-0.42,0.3-2.7,2.58-3.54,3.36l-0.12,0.12h-25.5h-0.06h-0.06h0.06l0.06-0.06h-0.36L523,90.45
				c2.28-3.48,5.04-4.86,8.58-4.86c2.52,0,5.58,2.64,5.58,6.3c0,5.34-4.02,8.46-6.36,10.62c-0.3,0.24-0.66,0.06-0.18-0.72
				c1.5-2.16,2.94-5.94,0.96-9.06c-1.32-2.1-2.7-2.64-3.96-2.64c-0.9,0-1.74,0.36-3.06,2.4l-13.26,20.58h16.56
				C528.58,113.07,533.38,112.89,534.16,112.77z"/>
		</g>
		<g>
			<path class="st291" d="M630.46,43.17c0,7.86-7.68,11.04-13.68,11.34v5.58l-3.3,1.8c-0.18,0.12-1.38,0.9-1.56,1.08
				c-0.48,0.42-0.54,0.42-0.48,0.12c0.06-0.18,0.12-1.38,0.12-1.98V45.39l-3.72,0.24c-2.04,0.36-2.28,0.3-1.62-0.18
				c0.42-0.3,2.7-2.58,3.54-3.36l0.12-0.12h4.74c0.72,0,5.52-0.18,6.3-0.3c2.04-0.36,2.28-0.3,1.62,0.18
				c-0.42,0.3-2.7,2.58-3.54,3.36l-0.12,0.12h-2.1v8.16c4.62-1.62,8.1-3.72,8.1-9c0-10.44-10.14-11.76-12.3-9
				c-0.18,0.18-2.04-1.44-2.22-1.62c-0.54-0.54,0.6-1.62,7.32-1.62C625.84,32.25,630.46,37.83,630.46,43.17z"/>
			
				<linearGradient id="SVGID_00000024702414107700853770000003231249669962179217_" gradientUnits="userSpaceOnUse" x1="635.5872" y1="47.5833" x2="1017.2173" y2="47.5833">
				<stop  offset="0" style="stop-color:#4C5FBF"/>
				<stop  offset="0.3" style="stop-color:#4889D1"/>
				<stop  offset="0.5" style="stop-color:#47AADD"/>
				<stop  offset="1" style="stop-color:#FE9934"/>
			</linearGradient>
			<path style="fill:url(#SVGID_00000024702414107700853770000003231249669962179217_);" d="M645.58,35.37
				c-2.58,0-6.48,1.38-10.5,4.5c-0.6,0.48-1.32,0.06-0.9-0.48c1.62-2.1,5.28-7.14,13.98-7.14c5.76,0,9.42,2.52,9.42,4.98v17.52
				c0,5.82,4.74,6.9,7.2,7.44c0.42,0.12,0.3,0.42-0.06,0.42c-5.4,0-12.36-0.66-12.36-8.94v-6.18c-5.76,3.06-10.38,5.7-11.34,9.9
				c-0.42,1.92,0,2.58,1.38,3.36c0.42,0.24,0.42,0.36,0,0.42c-1.44,0.18-4.38,1.26-5.64,1.74c-0.9-0.42-1.92-1.2-1.92-3.24
				c0-3.72,6.3-7.98,17.52-14.28v-5.52C652.36,37.23,649.54,35.37,645.58,35.37z"/>
			<path class="st291" d="M670.66,48.15c0.3,0,0.96,0.72,1.86,1.44c1.02,0.72,2.04,0.9,2.04,1.74c0,2.52-2.16,5.76-6.78,8.1
				c-0.72,0.36-0.78-0.18-0.24-0.78c1.68-1.86,3.06-2.94,2.76-4.32c-0.66-0.78-3.66-1.92-3.66-3.18
				C666.64,50.49,670.12,48.15,670.66,48.15z"/>
			
				<linearGradient id="SVGID_00000120547496349538589740000005654166675355289533_" gradientUnits="userSpaceOnUse" x1="635.5872" y1="49.3147" x2="1017.2173" y2="49.3147">
				<stop  offset="0" style="stop-color:#4C5FBF"/>
				<stop  offset="0.3" style="stop-color:#4889D1"/>
				<stop  offset="0.5" style="stop-color:#47AADD"/>
				<stop  offset="1" style="stop-color:#FE9934"/>
			</linearGradient>
			<path style="fill:url(#SVGID_00000120547496349538589740000005654166675355289533_);" d="M698.2,37.47v16.74
				c0,0,5.28-4.74,7.2-4.74c2.7,0,7.02,1.44,7.02,6.54c0,3.9-5.16,9.24-8.82,9.24c-2.22,0-4.32-0.72-5.82-2.04l-2.88,1.56
				c-0.18,0.12-1.38,0.9-1.56,1.08c-0.48,0.42-0.54,0.42-0.48,0.12c0.06-0.18,0.12-1.38,0.12-1.98V40.35
				c0-6.66-7.38-5.16-11.28-1.92c-1.14,0.96-0.9,0-0.48-0.54C688.78,28.41,698.2,33.33,698.2,37.47z M704.44,63.39
				c1.8,0,3.06-1.32,3.06-3.54c0-6.3-3.9-7.32-4.86-6.6l-4.44,3.18v0.48C698.2,59.85,703.36,63.39,704.44,63.39z"/>
			
				<linearGradient id="SVGID_00000043447907772191241730000000752264088644507039_" gradientUnits="userSpaceOnUse" x1="635.5872" y1="49.3147" x2="1017.2173" y2="49.3147">
				<stop  offset="0" style="stop-color:#4C5FBF"/>
				<stop  offset="0.3" style="stop-color:#4889D1"/>
				<stop  offset="0.5" style="stop-color:#47AADD"/>
				<stop  offset="1" style="stop-color:#FE9934"/>
			</linearGradient>
			<path style="fill:url(#SVGID_00000043447907772191241730000000752264088644507039_);" d="M742.6,49.47c2.7,0,7.02,1.44,7.02,6.54
				c0,3.9-5.16,9.24-8.82,9.24c-2.22,0-4.32-0.72-5.82-2.04l-2.88,1.56c-0.18,0.12-1.38,0.9-1.56,1.08
				c-0.48,0.42-0.54,0.42-0.48,0.12c0.06-0.18,0.12-1.38,0.12-1.98v-15c0-6.66-7.38-5.16-11.28-1.92c-1.14,0.96-0.9,0-0.48-0.54
				c3.96-4.98,8.4-6,11.76-5.22v-0.96c0-6.66-7.38-5.16-11.28-1.92c-1.14,0.96-0.9,0-0.48-0.54c7.56-9.48,16.98-4.56,16.98-0.42
				v16.74C735.4,54.21,740.68,49.47,742.6,49.47z M741.64,63.39c1.8,0,3.06-1.32,3.06-3.54c0-6.3-3.9-7.32-4.86-6.6l-4.44,3.18v0.48
				C735.4,59.85,740.56,63.39,741.64,63.39z"/>
			
				<linearGradient id="SVGID_00000064326628974732421160000000986040796899919251_" gradientUnits="userSpaceOnUse" x1="635.5872" y1="49.3147" x2="1017.2173" y2="49.3147">
				<stop  offset="0" style="stop-color:#4C5FBF"/>
				<stop  offset="0.3" style="stop-color:#4889D1"/>
				<stop  offset="0.5" style="stop-color:#47AADD"/>
				<stop  offset="1" style="stop-color:#FE9934"/>
			</linearGradient>
			<path style="fill:url(#SVGID_00000064326628974732421160000000986040796899919251_);" d="M779.8,49.47c2.7,0,7.02,1.44,7.02,6.54
				c0,3.9-5.16,9.24-8.82,9.24c-2.22,0-4.32-0.72-5.82-2.04l-2.88,1.56c-0.18,0.12-1.38,0.9-1.56,1.08
				c-0.48,0.42-0.54,0.42-0.48,0.12c0.06-0.18,0.12-1.38,0.12-1.98v-6.54c0-6.66-7.38-5.16-11.28-1.92c-1.14,0.96-0.9,0-0.48-0.54
				c3.96-4.98,8.4-6,11.76-5.22v-0.78c0-6.66-7.38-5.16-11.28-1.92c-1.14,0.96-0.9,0-0.48-0.54c3.96-4.98,8.4-6,11.76-5.22v-0.96
				c0-6.66-7.38-5.16-11.28-1.92c-1.14,0.96-0.9,0-0.48-0.54c7.56-9.48,16.98-4.56,16.98-0.42v16.74
				C772.6,54.21,777.88,49.47,779.8,49.47z M778.84,63.39c1.8,0,3.06-1.32,3.06-3.54c0-6.3-3.9-7.32-4.86-6.6l-4.44,3.18v0.48
				C772.6,59.85,777.76,63.39,778.84,63.39z"/>
			<path class="st291" d="M794.26,48.15c0.3,0,0.96,0.72,1.86,1.44c1.02,0.72,2.04,0.9,2.04,1.74c0,2.52-2.16,5.76-6.78,8.1
				c-0.72,0.36-0.78-0.18-0.24-0.78c1.68-1.86,3.06-2.94,2.76-4.32c-0.66-0.78-3.66-1.92-3.66-3.18
				C790.24,50.49,793.72,48.15,794.26,48.15z"/>
			
				<linearGradient id="SVGID_00000088827066908415236290000006084858077346020029_" gradientUnits="userSpaceOnUse" x1="635.5872" y1="49.1131" x2="1017.2173" y2="49.1131">
				<stop  offset="0" style="stop-color:#4C5FBF"/>
				<stop  offset="0.3" style="stop-color:#4889D1"/>
				<stop  offset="0.5" style="stop-color:#47AADD"/>
				<stop  offset="1" style="stop-color:#FE9934"/>
			</linearGradient>
			<path style="fill:url(#SVGID_00000088827066908415236290000006084858077346020029_);" d="M822.64,32.13
				c5.52,0,9.6,3.78,10.86,5.34c0.24,0.3-0.3,0.6-0.48,0.78c-1.02,0.84-2.28,2.22-3.12,3.36c-0.18,0.24-0.36,0.3-0.54,0
				c-1.2-2.4-4.68-7.56-8.52-7.56c-3.54,0-5.52,2.88-5.52,6.78v13.5c0,7.8-8.58,11.76-12.24,11.76c-1.02,0-0.78-0.42-0.3-0.54
				c3.66-1.02,7.32-5.16,7.32-9.66v-15C810.1,35.91,815.32,32.13,822.64,32.13z M810.1,53.25h-0.06H810.1z"/>
			
				<linearGradient id="SVGID_00000010999536524550122840000007395624365206776993_" gradientUnits="userSpaceOnUse" x1="635.5872" y1="49.1131" x2="1017.2173" y2="49.1131">
				<stop  offset="0" style="stop-color:#4C5FBF"/>
				<stop  offset="0.3" style="stop-color:#4889D1"/>
				<stop  offset="0.5" style="stop-color:#47AADD"/>
				<stop  offset="1" style="stop-color:#FE9934"/>
			</linearGradient>
			<path style="fill:url(#SVGID_00000010999536524550122840000007395624365206776993_);" d="M855.64,32.13
				c5.52,0,9.6,3.78,10.86,5.34c0.24,0.3-0.3,0.6-0.48,0.78c-1.02,0.84-2.28,2.22-3.12,3.36c-0.18,0.24-0.36,0.3-0.54,0
				c-1.2-2.4-4.68-7.56-8.52-7.56c-3.54,0-5.52,2.88-5.52,6.78v7.98c3-1.68,5.28-3.9,5.28-4.8c0-0.24-1.02-0.66,0-0.9
				c1.98-0.42,3.18-0.6,4.98-1.02c1.32-0.3,0.48,2.04-1.26,3.78c-2.16,2.16-5.94,3.48-9,4.08v4.38c0,1.08-0.18,2.16-0.48,3.06
				c3.24-1.68,5.76-4.08,5.76-5.04c0-0.24-1.02-0.66,0-0.9c1.98-0.42,3.18-0.6,4.98-1.02c1.32-0.3,0.48,2.04-1.26,3.78
				c-2.4,2.34-6.72,3.78-9.9,4.2c-2.22,5.1-8.4,7.68-11.34,7.68c-1.02,0-0.78-0.42-0.3-0.54c3.66-1.02,7.32-5.16,7.32-9.66v-15
				C843.1,35.91,848.32,32.13,855.64,32.13z M843.1,53.25h-0.06H843.1z"/>
			
				<linearGradient id="SVGID_00000180363413041591709010000007617069661200319116_" gradientUnits="userSpaceOnUse" x1="635.5872" y1="43.6397" x2="1017.2173" y2="43.6397">
				<stop  offset="0" style="stop-color:#4C5FBF"/>
				<stop  offset="0.3" style="stop-color:#4889D1"/>
				<stop  offset="0.5" style="stop-color:#47AADD"/>
				<stop  offset="1" style="stop-color:#FE9934"/>
			</linearGradient>
			<path style="fill:url(#SVGID_00000180363413041591709010000007617069661200319116_);" d="M871.66,51.57
				c-4.5-5.82-1.68-11.76,1.68-15.3c3.54-3.96,8.1-5.58,13.62-2.58c4.86,2.7,7.38,9.54,2.22,16.32
				C883.48,57.51,874.78,55.65,871.66,51.57z M884.2,37.83c-3.48-2.64-7.5-2.94-9.3-1.08c-2.34,2.46-1.62,7.8,0.36,10.8
				c2.52-1.62,4.26-3.42,4.26-4.2c0-0.24-1.02-0.66,0-0.9c1.98-0.42,3.18-0.6,4.98-1.02c1.32-0.3,0.48,2.04-1.26,3.78
				c-1.68,1.68-4.38,2.88-6.9,3.6c2.94,2.76,8.1,3.96,10.02,2.1C889.9,47.43,887.38,40.35,884.2,37.83z"/>
			<path class="st291" d="M898.66,48.15c0.3,0,0.96,0.72,1.86,1.44c1.02,0.72,2.04,0.9,2.04,1.74c0,2.52-2.16,5.76-6.78,8.1
				c-0.72,0.36-0.78-0.18-0.24-0.78c1.68-1.86,3.06-2.94,2.76-4.32c-0.66-0.78-3.66-1.92-3.66-3.18
				C894.64,50.49,898.12,48.15,898.66,48.15z"/>
			
				<linearGradient id="SVGID_00000111908744035872153670000001726061709453278607_" gradientUnits="userSpaceOnUse" x1="635.5872" y1="49.3147" x2="1017.2173" y2="49.3147">
				<stop  offset="0" style="stop-color:#4C5FBF"/>
				<stop  offset="0.3" style="stop-color:#4889D1"/>
				<stop  offset="0.5" style="stop-color:#47AADD"/>
				<stop  offset="1" style="stop-color:#FE9934"/>
			</linearGradient>
			<path style="fill:url(#SVGID_00000111908744035872153670000001726061709453278607_);" d="M933.4,49.47c2.7,0,7.02,1.44,7.02,6.54
				c0,3.9-5.16,9.24-8.82,9.24c-2.22,0-4.32-0.72-5.82-2.04l-2.88,1.56c-0.18,0.12-1.38,0.9-1.56,1.08
				c-0.48,0.42-0.54,0.42-0.48,0.12c0.06-0.18,0.12-1.38,0.12-1.98v-6.54c0-6.66-7.38-5.16-11.28-1.92c-1.14,0.96-0.9,0-0.48-0.54
				c3.96-4.98,8.4-6,11.76-5.22v-0.78c0-6.66-7.38-5.16-11.28-1.92c-1.14,0.96-0.9,0-0.48-0.54c3.96-4.98,8.4-6,11.76-5.22v-0.96
				c0-6.66-7.38-5.16-11.28-1.92c-1.14,0.96-0.9,0-0.48-0.54c7.56-9.48,16.98-4.56,16.98-0.42v16.74
				C926.2,54.21,931.48,49.47,933.4,49.47z M932.44,63.39c1.8,0,3.06-1.32,3.06-3.54c0-6.3-3.9-7.32-4.86-6.6l-4.44,3.18v0.48
				C926.2,59.85,931.36,63.39,932.44,63.39z"/>
			
				<linearGradient id="SVGID_00000068670775242563719890000009760513338879663784_" gradientUnits="userSpaceOnUse" x1="635.5872" y1="49.3147" x2="1017.2173" y2="49.3147">
				<stop  offset="0" style="stop-color:#4C5FBF"/>
				<stop  offset="0.3" style="stop-color:#4889D1"/>
				<stop  offset="0.5" style="stop-color:#47AADD"/>
				<stop  offset="1" style="stop-color:#FE9934"/>
			</linearGradient>
			<path style="fill:url(#SVGID_00000068670775242563719890000009760513338879663784_);" d="M963.4,37.47v16.74
				c0,0,5.28-4.74,7.2-4.74c2.7,0,7.02,1.44,7.02,6.54c0,3.9-5.16,9.24-8.82,9.24c-2.22,0-4.32-0.72-5.82-2.04l-2.88,1.56
				c-0.18,0.12-1.38,0.9-1.56,1.08c-0.48,0.42-0.54,0.42-0.48,0.12c0.06-0.18,0.12-1.38,0.12-1.98V40.35
				c0-6.66-7.38-5.16-11.28-1.92c-1.14,0.96-0.9,0-0.48-0.54C953.98,28.41,963.4,33.33,963.4,37.47z M969.64,63.39
				c1.8,0,3.06-1.32,3.06-3.54c0-6.3-3.9-7.32-4.86-6.6l-4.44,3.18v0.48C963.4,59.85,968.56,63.39,969.64,63.39z"/>
			
				<linearGradient id="SVGID_00000172428057566080114520000006678635253996096435_" gradientUnits="userSpaceOnUse" x1="635.5872" y1="44.4632" x2="1017.2173" y2="44.4632">
				<stop  offset="0" style="stop-color:#4C5FBF"/>
				<stop  offset="0.3" style="stop-color:#4889D1"/>
				<stop  offset="0.5" style="stop-color:#47AADD"/>
				<stop  offset="1" style="stop-color:#FE9934"/>
			</linearGradient>
			<path style="fill:url(#SVGID_00000172428057566080114520000006678635253996096435_);" d="M982.06,57.15h0.06H982.06z
				 M1002.34,45.39c7.56-3.12,6.3-13.56-0.36-13.62c-2.82,0-4.74,2.04-7.14,5.7l-12.72,19.68h19.38l0.12-0.12
				c0.84-0.78,3.12-3.06,3.54-3.36c0.66-0.48,0.42-0.54-1.62-0.18c-0.78,0.12-5.58,0.3-6.3,0.3h-10.08l9.48-14.7
				c2.04-3.18,2.7-3.72,4.02-3.72c3.84,0,3.9,6.06,1.56,9.48C1001.8,45.45,1002.16,45.45,1002.34,45.39z"/>
			<path class="st291" d="M641.86,103.17c0,7.86-7.68,11.04-13.68,11.34v5.58l-3.3,1.8c-0.18,0.12-1.38,0.9-1.56,1.08
				c-0.48,0.42-0.54,0.42-0.48,0.12c0.06-0.18,0.12-1.38,0.12-1.98v-15.72l-3.72,0.24c-2.04,0.36-2.28,0.3-1.62-0.18
				c0.42-0.3,2.7-2.58,3.54-3.36l0.12-0.12h4.74c0.72,0,5.52-0.18,6.3-0.3c2.04-0.36,2.28-0.3,1.62,0.18
				c-0.42,0.3-2.7,2.58-3.54,3.36l-0.12,0.12h-2.1v8.16c4.62-1.62,8.1-3.72,8.1-9c0-10.44-10.14-11.76-12.3-9
				c-0.18,0.18-2.04-1.44-2.22-1.62c-0.54-0.54,0.6-1.62,7.32-1.62C637.24,92.25,641.86,97.83,641.86,103.17z"/>
			
				<linearGradient id="SVGID_00000070812514728765383470000005070123499316171180_" gradientUnits="userSpaceOnUse" x1="635.5872" y1="107.5833" x2="1017.2173" y2="107.5833">
				<stop  offset="0" style="stop-color:#4C5FBF"/>
				<stop  offset="0.3" style="stop-color:#4889D1"/>
				<stop  offset="0.5" style="stop-color:#47AADD"/>
				<stop  offset="1" style="stop-color:#FE9934"/>
			</linearGradient>
			<path style="fill:url(#SVGID_00000070812514728765383470000005070123499316171180_);" d="M656.98,95.37
				c-2.58,0-6.48,1.38-10.5,4.5c-0.6,0.48-1.32,0.06-0.9-0.48c1.62-2.1,5.28-7.14,13.98-7.14c5.76,0,9.42,2.52,9.42,4.98v17.52
				c0,5.82,4.74,6.9,7.2,7.44c0.42,0.12,0.3,0.42-0.06,0.42c-5.4,0-12.36-0.66-12.36-8.94v-6.18c-5.76,3.06-10.38,5.7-11.34,9.9
				c-0.42,1.92,0,2.58,1.38,3.36c0.42,0.24,0.42,0.36,0,0.42c-1.44,0.18-4.38,1.26-5.64,1.74c-0.9-0.42-1.92-1.2-1.92-3.24
				c0-3.72,6.3-7.98,17.52-14.28v-5.52C663.76,97.23,660.94,95.37,656.98,95.37z"/>
			<path class="st291" d="M681.46,108.15c0.3,0,0.96,0.72,1.86,1.44c1.02,0.72,2.04,0.9,2.04,1.74c0,2.52-2.16,5.76-6.78,8.1
				c-0.72,0.36-0.78-0.18-0.24-0.78c1.68-1.86,3.06-2.94,2.76-4.32c-0.66-0.78-3.66-1.92-3.66-3.18
				C677.44,110.49,680.92,108.15,681.46,108.15z"/>
			
				<linearGradient id="SVGID_00000005226767539768168690000000730483460895968185_" gradientUnits="userSpaceOnUse" x1="635.5872" y1="109.3147" x2="1017.2173" y2="109.3147">
				<stop  offset="0" style="stop-color:#4C5FBF"/>
				<stop  offset="0.3" style="stop-color:#4889D1"/>
				<stop  offset="0.5" style="stop-color:#47AADD"/>
				<stop  offset="1" style="stop-color:#FE9934"/>
			</linearGradient>
			<path style="fill:url(#SVGID_00000005226767539768168690000000730483460895968185_);" d="M706.66,97.47v16.74
				c0,0,5.28-4.74,7.2-4.74c2.7,0,7.02,1.44,7.02,6.54c0,3.9-5.16,9.24-8.82,9.24c-2.22,0-4.32-0.72-5.82-2.04l-2.88,1.56
				c-0.18,0.12-1.38,0.9-1.56,1.08c-0.48,0.42-0.54,0.42-0.48,0.12c0.06-0.18,0.12-1.38,0.12-1.98v-23.64
				c0-6.66-7.38-5.16-11.28-1.92c-1.14,0.96-0.9,0-0.48-0.54C697.24,88.41,706.66,93.33,706.66,97.47z M712.9,123.39
				c1.8,0,3.06-1.32,3.06-3.54c0-6.3-3.9-7.32-4.86-6.6l-4.44,3.18v0.48C706.66,119.85,711.82,123.39,712.9,123.39z"/>
			
				<linearGradient id="SVGID_00000059310492304494093270000014949624787202742167_" gradientUnits="userSpaceOnUse" x1="635.5872" y1="109.3147" x2="1017.2173" y2="109.3147">
				<stop  offset="0" style="stop-color:#4C5FBF"/>
				<stop  offset="0.3" style="stop-color:#4889D1"/>
				<stop  offset="0.5" style="stop-color:#47AADD"/>
				<stop  offset="1" style="stop-color:#FE9934"/>
			</linearGradient>
			<path style="fill:url(#SVGID_00000059310492304494093270000014949624787202742167_);" d="M746.86,109.47
				c2.7,0,7.02,1.44,7.02,6.54c0,3.9-5.16,9.24-8.82,9.24c-2.22,0-4.32-0.72-5.82-2.04l-2.88,1.56c-0.18,0.12-1.38,0.9-1.56,1.08
				c-0.48,0.42-0.54,0.42-0.48,0.12c0.06-0.18,0.12-1.38,0.12-1.98v-15c0-6.66-7.38-5.16-11.28-1.92c-1.14,0.96-0.9,0-0.48-0.54
				c3.96-4.98,8.4-6,11.76-5.22v-0.96c0-6.66-7.38-5.16-11.28-1.92c-1.14,0.96-0.9,0-0.48-0.54c7.56-9.48,16.98-4.56,16.98-0.42
				v16.74C739.66,114.21,744.94,109.47,746.86,109.47z M745.9,123.39c1.8,0,3.06-1.32,3.06-3.54c0-6.3-3.9-7.32-4.86-6.6l-4.44,3.18
				v0.48C739.66,119.85,744.82,123.39,745.9,123.39z"/>
			
				<linearGradient id="SVGID_00000008827324342464291490000018003794841103673739_" gradientUnits="userSpaceOnUse" x1="635.5872" y1="109.3147" x2="1017.2173" y2="109.3147">
				<stop  offset="0" style="stop-color:#4C5FBF"/>
				<stop  offset="0.3" style="stop-color:#4889D1"/>
				<stop  offset="0.5" style="stop-color:#47AADD"/>
				<stop  offset="1" style="stop-color:#FE9934"/>
			</linearGradient>
			<path style="fill:url(#SVGID_00000008827324342464291490000018003794841103673739_);" d="M779.86,109.47
				c2.7,0,7.02,1.44,7.02,6.54c0,3.9-5.16,9.24-8.82,9.24c-2.22,0-4.32-0.72-5.82-2.04l-2.88,1.56c-0.18,0.12-1.38,0.9-1.56,1.08
				c-0.48,0.42-0.54,0.42-0.48,0.12c0.06-0.18,0.12-1.38,0.12-1.98v-6.54c0-6.66-7.38-5.16-11.28-1.92c-1.14,0.96-0.9,0-0.48-0.54
				c3.96-4.98,8.4-6,11.76-5.22v-0.78c0-6.66-7.38-5.16-11.28-1.92c-1.14,0.96-0.9,0-0.48-0.54c3.96-4.98,8.4-6,11.76-5.22v-0.96
				c0-6.66-7.38-5.16-11.28-1.92c-1.14,0.96-0.9,0-0.48-0.54c7.56-9.48,16.98-4.56,16.98-0.42v16.74
				C772.66,114.21,777.94,109.47,779.86,109.47z M778.9,123.39c1.8,0,3.06-1.32,3.06-3.54c0-6.3-3.9-7.32-4.86-6.6l-4.44,3.18v0.48
				C772.66,119.85,777.82,123.39,778.9,123.39z"/>
			<path class="st291" d="M792.46,108.15c0.3,0,0.96,0.72,1.86,1.44c1.02,0.72,2.04,0.9,2.04,1.74c0,2.52-2.16,5.76-6.78,8.1
				c-0.72,0.36-0.78-0.18-0.24-0.78c1.68-1.86,3.06-2.94,2.76-4.32c-0.66-0.78-3.66-1.92-3.66-3.18
				C788.44,110.49,791.92,108.15,792.46,108.15z"/>
			
				<linearGradient id="SVGID_00000093135247165365774550000002597337341067455904_" gradientUnits="userSpaceOnUse" x1="635.5872" y1="109.1131" x2="1017.2173" y2="109.1131">
				<stop  offset="0" style="stop-color:#4C5FBF"/>
				<stop  offset="0.3" style="stop-color:#4889D1"/>
				<stop  offset="0.5" style="stop-color:#47AADD"/>
				<stop  offset="1" style="stop-color:#FE9934"/>
			</linearGradient>
			<path style="fill:url(#SVGID_00000093135247165365774550000002597337341067455904_);" d="M820.84,92.13
				c5.52,0,9.6,3.78,10.86,5.34c0.24,0.3-0.3,0.6-0.48,0.78c-1.02,0.84-2.28,2.22-3.12,3.36c-0.18,0.24-0.36,0.3-0.54,0
				c-1.2-2.4-4.68-7.56-8.52-7.56c-3.54,0-5.52,2.88-5.52,6.78v13.5c0,7.8-8.58,11.76-12.24,11.76c-1.02,0-0.78-0.42-0.3-0.54
				c3.66-1.02,7.32-5.16,7.32-9.66v-15C808.3,95.91,813.52,92.13,820.84,92.13z M808.3,113.25h-0.06H808.3z"/>
			
				<linearGradient id="SVGID_00000173869287648969228090000016422017054479134854_" gradientUnits="userSpaceOnUse" x1="635.5872" y1="109.1131" x2="1017.2173" y2="109.1131">
				<stop  offset="0" style="stop-color:#4C5FBF"/>
				<stop  offset="0.3" style="stop-color:#4889D1"/>
				<stop  offset="0.5" style="stop-color:#47AADD"/>
				<stop  offset="1" style="stop-color:#FE9934"/>
			</linearGradient>
			<path style="fill:url(#SVGID_00000173869287648969228090000016422017054479134854_);" d="M853.84,92.13
				c5.52,0,9.6,3.78,10.86,5.34c0.24,0.3-0.3,0.6-0.48,0.78c-1.02,0.84-2.28,2.22-3.12,3.36c-0.18,0.24-0.36,0.3-0.54,0
				c-1.2-2.4-4.68-7.56-8.52-7.56c-3.54,0-5.52,2.88-5.52,6.78v7.98c3-1.68,5.28-3.9,5.28-4.8c0-0.24-1.02-0.66,0-0.9
				c1.98-0.42,3.18-0.6,4.98-1.02c1.32-0.3,0.48,2.04-1.26,3.78c-2.16,2.16-5.94,3.48-9,4.08v4.38c0,1.08-0.18,2.16-0.48,3.06
				c3.24-1.68,5.76-4.08,5.76-5.04c0-0.24-1.02-0.66,0-0.9c1.98-0.42,3.18-0.6,4.98-1.02c1.32-0.3,0.48,2.04-1.26,3.78
				c-2.4,2.34-6.72,3.78-9.9,4.2c-2.22,5.1-8.4,7.68-11.34,7.68c-1.02,0-0.78-0.42-0.3-0.54c3.66-1.02,7.32-5.16,7.32-9.66v-15
				C841.3,95.91,846.52,92.13,853.84,92.13z M841.3,113.25h-0.06H841.3z"/>
			
				<linearGradient id="SVGID_00000112602035283849218510000004183983938480712855_" gradientUnits="userSpaceOnUse" x1="635.5872" y1="103.6397" x2="1017.2173" y2="103.6397">
				<stop  offset="0" style="stop-color:#4C5FBF"/>
				<stop  offset="0.3" style="stop-color:#4889D1"/>
				<stop  offset="0.5" style="stop-color:#47AADD"/>
				<stop  offset="1" style="stop-color:#FE9934"/>
			</linearGradient>
			<path style="fill:url(#SVGID_00000112602035283849218510000004183983938480712855_);" d="M873.34,111.57
				c-4.5-5.82-1.68-11.76,1.68-15.3c3.54-3.96,8.1-5.58,13.62-2.58c4.86,2.7,7.38,9.54,2.22,16.32
				C885.16,117.51,876.46,115.65,873.34,111.57z M885.88,97.83c-3.48-2.64-7.5-2.94-9.3-1.08c-2.34,2.46-1.62,7.8,0.36,10.8
				c2.52-1.62,4.26-3.42,4.26-4.2c0-0.24-1.02-0.66,0-0.9c1.98-0.42,3.18-0.6,4.98-1.02c1.32-0.3,0.48,2.04-1.26,3.78
				c-1.68,1.68-4.38,2.88-6.9,3.6c2.94,2.76,8.1,3.96,10.02,2.1C891.58,107.43,889.06,100.35,885.88,97.83z"/>
			<path class="st291" d="M903.46,108.15c0.3,0,0.96,0.72,1.86,1.44c1.02,0.72,2.04,0.9,2.04,1.74c0,2.52-2.16,5.76-6.78,8.1
				c-0.72,0.36-0.78-0.18-0.24-0.78c1.68-1.86,3.06-2.94,2.76-4.32c-0.66-0.78-3.66-1.92-3.66-3.18
				C899.44,110.49,902.92,108.15,903.46,108.15z"/>
			
				<linearGradient id="SVGID_00000051346650948335175350000002266824054884057521_" gradientUnits="userSpaceOnUse" x1="635.5872" y1="109.3147" x2="1017.2173" y2="109.3147">
				<stop  offset="0" style="stop-color:#4C5FBF"/>
				<stop  offset="0.3" style="stop-color:#4889D1"/>
				<stop  offset="0.5" style="stop-color:#47AADD"/>
				<stop  offset="1" style="stop-color:#FE9934"/>
			</linearGradient>
			<path style="fill:url(#SVGID_00000051346650948335175350000002266824054884057521_);" d="M935.86,109.47
				c2.7,0,7.02,1.44,7.02,6.54c0,3.9-5.16,9.24-8.82,9.24c-2.22,0-4.32-0.72-5.82-2.04l-2.88,1.56c-0.18,0.12-1.38,0.9-1.56,1.08
				c-0.48,0.42-0.54,0.42-0.48,0.12c0.06-0.18,0.12-1.38,0.12-1.98v-6.54c0-6.66-7.38-5.16-11.28-1.92c-1.14,0.96-0.9,0-0.48-0.54
				c3.96-4.98,8.4-6,11.76-5.22v-0.78c0-6.66-7.38-5.16-11.28-1.92c-1.14,0.96-0.9,0-0.48-0.54c3.96-4.98,8.4-6,11.76-5.22v-0.96
				c0-6.66-7.38-5.16-11.28-1.92c-1.14,0.96-0.9,0-0.48-0.54c7.56-9.48,16.98-4.56,16.98-0.42v16.74
				C928.66,114.21,933.94,109.47,935.86,109.47z M934.9,123.39c1.8,0,3.06-1.32,3.06-3.54c0-6.3-3.9-7.32-4.86-6.6l-4.44,3.18v0.48
				C928.66,119.85,933.82,123.39,934.9,123.39z"/>
			
				<linearGradient id="SVGID_00000030451115967671391230000009061135671381403814_" gradientUnits="userSpaceOnUse" x1="635.5872" y1="109.3147" x2="1017.2173" y2="109.3147">
				<stop  offset="0" style="stop-color:#4C5FBF"/>
				<stop  offset="0.3" style="stop-color:#4889D1"/>
				<stop  offset="0.5" style="stop-color:#47AADD"/>
				<stop  offset="1" style="stop-color:#FE9934"/>
			</linearGradient>
			<path style="fill:url(#SVGID_00000030451115967671391230000009061135671381403814_);" d="M961.66,97.47v16.74
				c0,0,5.28-4.74,7.2-4.74c2.7,0,7.02,1.44,7.02,6.54c0,3.9-5.16,9.24-8.82,9.24c-2.22,0-4.32-0.72-5.82-2.04l-2.88,1.56
				c-0.18,0.12-1.38,0.9-1.56,1.08c-0.48,0.42-0.54,0.42-0.48,0.12c0.06-0.18,0.12-1.38,0.12-1.98v-23.64
				c0-6.66-7.38-5.16-11.28-1.92c-1.14,0.96-0.9,0-0.48-0.54C952.24,88.41,961.66,93.33,961.66,97.47z M967.9,123.39
				c1.8,0,3.06-1.32,3.06-3.54c0-6.3-3.9-7.32-4.86-6.6l-4.44,3.18v0.48C961.66,119.85,966.82,123.39,967.9,123.39z"/>
			
				<linearGradient id="SVGID_00000022522202598590379100000002456709940815962766_" gradientUnits="userSpaceOnUse" x1="635.5872" y1="104.4632" x2="1017.2173" y2="104.4632">
				<stop  offset="0" style="stop-color:#4C5FBF"/>
				<stop  offset="0.3" style="stop-color:#4889D1"/>
				<stop  offset="0.5" style="stop-color:#47AADD"/>
				<stop  offset="1" style="stop-color:#FE9934"/>
			</linearGradient>
			<path style="fill:url(#SVGID_00000022522202598590379100000002456709940815962766_);" d="M980.26,117.15h0.06H980.26z
				 M1000.54,105.39c7.56-3.12,6.3-13.56-0.36-13.62c-2.82,0-4.74,2.04-7.14,5.7l-12.72,19.68h19.38l0.12-0.12
				c0.84-0.78,3.12-3.06,3.54-3.36c0.66-0.48,0.42-0.54-1.62-0.18c-0.78,0.12-5.58,0.3-6.3,0.3h-10.08l9.48-14.7
				c2.04-3.18,2.7-3.72,4.02-3.72c3.84,0,3.9,6.06,1.56,9.48C1000,105.45,1000.36,105.45,1000.54,105.39z"/>
		</g>
	</g>
</g>
<g id="Editable" class="st0">
</g>
</svg>
