<svg id="图层_1" data-name="图层 1" xmlns="http://www.w3.org/2000/svg" xmlns:xlink="http://www.w3.org/1999/xlink" viewBox="0 0 1125 357"><defs><style>.cls-1{fill:url(#未命名的渐变_37);}.cls-2{fill:url(#未命名的渐变_37-2);}.cls-3{fill:url(#未命名的渐变_37-3);}.cls-4{fill:url(#未命名的渐变_37-4);}.cls-5{fill:url(#未命名的渐变_37-5);}.cls-6{fill:url(#未命名的渐变_37-6);}.cls-7{fill:url(#未命名的渐变_37-8);}.cls-8{fill:url(#未命名的渐变_37-10);}.cls-9{fill:url(#未命名的渐变_37-11);}.cls-10{fill:url(#未命名的渐变_37-12);}.cls-11{fill:url(#未命名的渐变_37-13);}.cls-12{fill:url(#未命名的渐变_37-15);}.cls-13{fill:url(#未命名的渐变_37-16);}.cls-14{fill:url(#未命名的渐变_37-17);}.cls-15{fill:url(#未命名的渐变_37-18);}.cls-16{fill:url(#未命名的渐变_37-19);}.cls-17{fill:url(#未命名的渐变_37-20);}.cls-18{fill:url(#未命名的渐变_37-21);}.cls-19{fill:url(#未命名的渐变_37-22);}.cls-20{fill:url(#未命名的渐变_37-23);}.cls-21{fill:url(#未命名的渐变_37-24);}.cls-22{fill:url(#未命名的渐变_37-25);}.cls-23{fill:url(#未命名的渐变_37-26);}.cls-24{fill:url(#未命名的渐变_37-27);}.cls-25{fill:url(#未命名的渐变_37-28);}.cls-26{fill:url(#未命名的渐变_37-29);}.cls-27{fill:url(#未命名的渐变_37-30);}.cls-28{fill:url(#未命名的渐变_37-31);}.cls-29{fill:url(#未命名的渐变_37-32);}.cls-30{fill:url(#未命名的渐变_37-34);}.cls-31{fill:url(#未命名的渐变_37-35);}.cls-32{fill:url(#未命名的渐变_37-36);}.cls-33{fill:url(#未命名的渐变_37-37);}.cls-34{fill:url(#未命名的渐变_37-38);}.cls-35{fill:url(#未命名的渐变_37-39);}.cls-36{fill:url(#未命名的渐变_37-40);}.cls-37{fill:url(#未命名的渐变_37-41);}.cls-38{fill:url(#未命名的渐变_37-42);}.cls-39{fill:url(#未命名的渐变_37-43);}.cls-40{fill:url(#未命名的渐变_37-44);}.cls-41{fill:url(#未命名的渐变_37-45);}.cls-42{fill:url(#未命名的渐变_37-46);}.cls-43{fill:url(#未命名的渐变_37-47);}.cls-44{fill:url(#未命名的渐变_37-48);}.cls-45{fill:url(#未命名的渐变_37-50);}.cls-46{fill:url(#未命名的渐变_37-51);}.cls-47{fill:url(#未命名的渐变_37-52);}.cls-48{fill:url(#未命名的渐变_37-53);}.cls-49{fill:url(#未命名的渐变_37-54);}.cls-50{fill:url(#未命名的渐变_37-57);}.cls-51{fill:url(#未命名的渐变_37-58);}.cls-52{fill:url(#未命名的渐变_37-59);}.cls-53{fill:url(#未命名的渐变_37-60);}.cls-54{fill:url(#未命名的渐变_37-63);}.cls-55{fill:url(#未命名的渐变_37-64);}.cls-56{fill:url(#未命名的渐变_37-65);}.cls-57{fill:url(#未命名的渐变_37-66);}.cls-58{fill:url(#未命名的渐变_37-67);}.cls-59{fill:url(#未命名的渐变_37-69);}.cls-60{fill:url(#未命名的渐变_37-70);}.cls-61{fill:url(#未命名的渐变_37-71);}.cls-62{fill:url(#未命名的渐变_37-72);}.cls-63{fill:url(#未命名的渐变_37-75);}.cls-64{fill:url(#未命名的渐变_37-76);}.cls-65{fill:url(#未命名的渐变_37-77);}.cls-66{fill:url(#未命名的渐变_37-78);}.cls-67{fill:url(#未命名的渐变_37-79);}.cls-68{fill:url(#未命名的渐变_37-81);}.cls-69{fill:url(#未命名的渐变_37-84);}</style><linearGradient id="未命名的渐变_37" x1="21" y1="58.54" x2="1095.67" y2="58.54" gradientUnits="userSpaceOnUse"><stop offset="0" stop-color="#4c5fbf"/><stop offset="0.3" stop-color="#4889d1"/><stop offset="0.5" stop-color="#47aadd"/><stop offset="1" stop-color="#fe9934"/></linearGradient><linearGradient id="未命名的渐变_37-2" y1="57.58" x2="1095.67" y2="57.58" xlink:href="#未命名的渐变_37"/><linearGradient id="未命名的渐变_37-3" y1="58.18" x2="1095.67" y2="58.18" xlink:href="#未命名的渐变_37"/><linearGradient id="未命名的渐变_37-4" y1="57.86" x2="1095.67" y2="57.86" xlink:href="#未命名的渐变_37"/><linearGradient id="未命名的渐变_37-5" y1="56.49" x2="1095.67" y2="56.49" xlink:href="#未命名的渐变_37"/><linearGradient id="未命名的渐变_37-6" y1="58.4" x2="1095.67" y2="58.4" xlink:href="#未命名的渐变_37"/><linearGradient id="未命名的渐变_37-8" y1="58.68" x2="1095.67" y2="58.68" xlink:href="#未命名的渐变_37"/><linearGradient id="未命名的渐变_37-10" y1="57.61" x2="1095.67" y2="57.61" xlink:href="#未命名的渐变_37"/><linearGradient id="未命名的渐变_37-11" y1="58.67" x2="1095.67" y2="58.67" xlink:href="#未命名的渐变_37"/><linearGradient id="未命名的渐变_37-12" y1="58.2" x2="1095.67" y2="58.2" xlink:href="#未命名的渐变_37"/><linearGradient id="未命名的渐变_37-13" y1="57.48" x2="1095.67" y2="57.48" xlink:href="#未命名的渐变_37"/><linearGradient id="未命名的渐变_37-15" y1="57.83" x2="1095.67" y2="57.83" xlink:href="#未命名的渐变_37"/><linearGradient id="未命名的渐变_37-16" y1="57.55" x2="1095.67" y2="57.55" xlink:href="#未命名的渐变_37"/><linearGradient id="未命名的渐变_37-17" y1="58.72" x2="1095.67" y2="58.72" xlink:href="#未命名的渐变_37"/><linearGradient id="未命名的渐变_37-18" y1="58.33" x2="1095.67" y2="58.33" xlink:href="#未命名的渐变_37"/><linearGradient id="未命名的渐变_37-19" y1="58.68" x2="1095.67" y2="58.68" xlink:href="#未命名的渐变_37"/><linearGradient id="未命名的渐变_37-20" y1="58.82" x2="1095.67" y2="58.82" xlink:href="#未命名的渐变_37"/><linearGradient id="未命名的渐变_37-21" y1="57.72" x2="1095.67" y2="57.72" xlink:href="#未命名的渐变_37"/><linearGradient id="未命名的渐变_37-22" y1="58.31" x2="1095.67" y2="58.31" xlink:href="#未命名的渐变_37"/><linearGradient id="未命名的渐变_37-23" y1="58.41" x2="1095.67" y2="58.41" xlink:href="#未命名的渐变_37"/><linearGradient id="未命名的渐变_37-24" y1="58.17" x2="1095.67" y2="58.17" xlink:href="#未命名的渐变_37"/><linearGradient id="未命名的渐变_37-25" y1="59.15" x2="1095.67" y2="59.15" xlink:href="#未命名的渐变_37"/><linearGradient id="未命名的渐变_37-26" y1="58.15" x2="1095.67" y2="58.15" xlink:href="#未命名的渐变_37"/><linearGradient id="未命名的渐变_37-27" y1="145.87" x2="1095.67" y2="145.87" xlink:href="#未命名的渐变_37"/><linearGradient id="未命名的渐变_37-28" y1="134.17" x2="1095.67" y2="134.17" xlink:href="#未命名的渐变_37"/><linearGradient id="未命名的渐变_37-29" y1="146.76" x2="1095.67" y2="146.76" xlink:href="#未命名的渐变_37"/><linearGradient id="未命名的渐变_37-30" y1="134.21" x2="1095.67" y2="134.21" xlink:href="#未命名的渐变_37"/><linearGradient id="未命名的渐变_37-31" y1="140.03" x2="1095.67" y2="140.03" xlink:href="#未命名的渐变_37"/><linearGradient id="未命名的渐变_37-32" y1="146.27" x2="1095.67" y2="146.27" xlink:href="#未命名的渐变_37"/><linearGradient id="未命名的渐变_37-34" y1="136.69" x2="1095.67" y2="136.69" xlink:href="#未命名的渐变_37"/><linearGradient id="未命名的渐变_37-35" y1="140.35" x2="1095.67" y2="140.35" xlink:href="#未命名的渐变_37"/><linearGradient id="未命名的渐变_37-36" y1="135.68" x2="1095.67" y2="135.68" xlink:href="#未命名的渐变_37"/><linearGradient id="未命名的渐变_37-37" y1="147.3" x2="1095.67" y2="147.3" xlink:href="#未命名的渐变_37"/><linearGradient id="未命名的渐变_37-38" y1="136.83" x2="1095.67" y2="136.83" xlink:href="#未命名的渐变_37"/><linearGradient id="未命名的渐变_37-39" y1="139.92" x2="1095.67" y2="139.92" xlink:href="#未命名的渐变_37"/><linearGradient id="未命名的渐变_37-40" y1="140.43" x2="1095.67" y2="140.43" xlink:href="#未命名的渐变_37"/><linearGradient id="未命名的渐变_37-41" y1="139.83" x2="1095.67" y2="139.83" xlink:href="#未命名的渐变_37"/><linearGradient id="未命名的渐变_37-42" y1="146.66" x2="1095.67" y2="146.66" xlink:href="#未命名的渐变_37"/><linearGradient id="未命名的渐变_37-43" y1="147.17" x2="1095.67" y2="147.17" xlink:href="#未命名的渐变_37"/><linearGradient id="未命名的渐变_37-44" y1="146.99" x2="1095.67" y2="146.99" xlink:href="#未命名的渐变_37"/><linearGradient id="未命名的渐变_37-45" y1="140.29" x2="1095.67" y2="140.29" xlink:href="#未命名的渐变_37"/><linearGradient id="未命名的渐变_37-46" y1="146.52" x2="1095.67" y2="146.52" xlink:href="#未命名的渐变_37"/><linearGradient id="未命名的渐变_37-47" y1="140.18" x2="1095.67" y2="140.18" xlink:href="#未命名的渐变_37"/><linearGradient id="未命名的渐变_37-48" y1="140.23" x2="1095.67" y2="140.23" xlink:href="#未命名的渐变_37"/><linearGradient id="未命名的渐变_37-50" y1="139.97" x2="1095.67" y2="139.97" xlink:href="#未命名的渐变_37"/><linearGradient id="未命名的渐变_37-51" y1="146.14" x2="1095.67" y2="146.14" xlink:href="#未命名的渐变_37"/><linearGradient id="未命名的渐变_37-52" y1="139.89" x2="1095.67" y2="139.89" xlink:href="#未命名的渐变_37"/><linearGradient id="未命名的渐变_37-53" y1="213.83" x2="1095.67" y2="213.83" xlink:href="#未命名的渐变_37"/><linearGradient id="未命名的渐变_37-54" y1="216.38" x2="1095.67" y2="216.38" xlink:href="#未命名的渐变_37"/><linearGradient id="未命名的渐变_37-57" y1="214.73" x2="1095.67" y2="214.73" xlink:href="#未命名的渐变_37"/><linearGradient id="未命名的渐变_37-58" y1="215.75" x2="1095.67" y2="215.75" xlink:href="#未命名的渐变_37"/><linearGradient id="未命名的渐变_37-59" y1="214.77" x2="1095.67" y2="214.77" xlink:href="#未命名的渐变_37"/><linearGradient id="未命名的渐变_37-60" y1="214.99" x2="1095.67" y2="214.99" xlink:href="#未命名的渐变_37"/><linearGradient id="未命名的渐变_37-63" y1="307.73" x2="1095.67" y2="307.73" xlink:href="#未命名的渐变_37"/><linearGradient id="未命名的渐变_37-64" y1="304.9" x2="1095.67" y2="304.9" xlink:href="#未命名的渐变_37"/><linearGradient id="未命名的渐变_37-65" y1="298.6" x2="1095.67" y2="298.6" xlink:href="#未命名的渐变_37"/><linearGradient id="未命名的渐变_37-66" y1="301.08" x2="1095.67" y2="301.08" xlink:href="#未命名的渐变_37"/><linearGradient id="未命名的渐变_37-67" y1="293.98" x2="1095.67" y2="293.98" xlink:href="#未命名的渐变_37"/><linearGradient id="未命名的渐变_37-69" y1="289.03" x2="1095.67" y2="289.03" xlink:href="#未命名的渐变_37"/><linearGradient id="未命名的渐变_37-70" y1="288.48" x2="1095.67" y2="288.48" xlink:href="#未命名的渐变_37"/><linearGradient id="未命名的渐变_37-71" y1="276.16" x2="1095.67" y2="276.16" xlink:href="#未命名的渐变_37"/><linearGradient id="未命名的渐变_37-72" y1="276.23" x2="1095.67" y2="276.23" xlink:href="#未命名的渐变_37"/><linearGradient id="未命名的渐变_37-75" y1="295.68" x2="1095.67" y2="295.68" xlink:href="#未命名的渐变_37"/><linearGradient id="未命名的渐变_37-76" y1="295.67" x2="1095.67" y2="295.67" xlink:href="#未命名的渐变_37"/><linearGradient id="未命名的渐变_37-77" y1="295.89" x2="1095.67" y2="295.89" xlink:href="#未命名的渐变_37"/><linearGradient id="未命名的渐变_37-78" y1="295.88" x2="1095.67" y2="295.88" xlink:href="#未命名的渐变_37"/><linearGradient id="未命名的渐变_37-79" y1="296.59" x2="1095.67" y2="296.59" xlink:href="#未命名的渐变_37"/><linearGradient id="未命名的渐变_37-81" y1="294.17" x2="1095.67" y2="294.17" xlink:href="#未命名的渐变_37"/><linearGradient id="未命名的渐变_37-84" y1="292.21" x2="1095.67" y2="292.21" xlink:href="#未命名的渐变_37"/></defs><path class="cls-1" d="M40.13,44.77a16.83,16.83,0,0,0-2.59-.21c-.63,0-.63-.35-.35-.49a68,68,0,0,0,8.75-4.83c1.54-.91,2.52,1.12,2.52,2.87v7c3.85-4.34,9.87-9.87,17-9.87a15.39,15.39,0,0,1,9.59,3.15c.42.35,0,.35-.28.49a17.58,17.58,0,0,0-4.27,4.27.35.35,0,0,1-.56.14,13.57,13.57,0,0,0-9.1-3.15c-4.83,0-8.19,2.87-12.39,6.93v9c4-1.75,12.25-7.21,15.4-7.21,5.88,0,11.76,5.6,11.76,11.55,0,6.3-9.66,11.83-15.19,11.83s-9.94-5.32-11.69-5.32h-.28v3.43l-3.85,2.1c-.21.14-1.61,1-1.82,1.26-.56.49-.63.49-.56.14a17.52,17.52,0,0,0,.14-2.31v-28C42.37,45.82,41.88,45.12,40.13,44.77ZM61.9,72.14c6.09,0,7.7-2.8,5.25-8.61-1.26-2.94-4.13-6.3-7.07-6.3-2.31,0-7.63,3.64-11.2,5.18C52.1,66.19,57.21,72.14,61.9,72.14Z"/><path class="cls-2" d="M105.44,38.4c5.39,0,11.06,4.69,11.06,10.43,0,9-8.89,16.59-21.14,16.59V43.37a6.09,6.09,0,0,0-.77.63c-3.36,3.08-8,9.52-8,16.1,0,5.32,2.66,12,10.36,12,4.69,0,9.24-1.54,14.49-6.23,1.19-1,1.61-2,1.82-2s.63.56-.49,1.82c-2,2.38-11.76,11.06-21.07,11.06-5.6,0-11.9-2.45-11.9-11.27C79.82,52,93.82,38.4,105.44,38.4Zm4.2,11.9c0-4.9-2.87-9.59-7.35-9.59h-.84V63C107.12,61.29,109.64,56.25,109.64,50.3Z"/><path class="cls-3" d="M151.57,74.31c-1.89.77-3.5,3-8.19,3-7.63,0-22.68-5.18-22.68-16,0-14.21,25.48-20.51,30.8-22.33ZM145.41,73V43.09C138.27,46,128.68,52.68,128.68,60S137.78,71,145.41,73Z"/><path class="cls-4" d="M184.68,38.4c5.32,0,11.13,6.3,13.16,10.92.07.21-.07.49-.42.7a20.78,20.78,0,0,0-4.83,5.18c-.28.49-.63.63-.7.14-.35-4.41-3.08-13.86-9.24-13.86h-.49l.07,32.83c-1.54.77-4.55,3-6.51,3-6.58,0-18.55-1-18.55-11.06C157.17,53.73,179.15,38.4,184.68,38.4Zm-8.61,35.07V44.77c-5.6,4.48-11.83,12.88-11.83,19.67C164.24,70.32,170,72.42,176.07,73.47Z"/><path class="cls-5" d="M204.49,72.84c-.35-.35.14-.49.84-.91a42.31,42.31,0,0,0,3.43-2.66c.21-.21.63-.91,1.4-.28,2.87,2.31,6.86,5.39,12.46,5.39,6.16,0,10.08-5.18,10.5-14.91H216.67c-.84,0-6.44.21-7.35.35-2.38.42-2.66.35-1.89-.21.49-.35,3.15-3,4.13-3.92l.14-.14h17.64l3.5-.14C231.79,50.3,228.08,43,222.62,43c-5.74,0-10.22,4.62-16,4.62-5.46,0-5.32-3.85-5.32-6.3,0-.42.14-.63.35-.7,2-.91,6.65-4.27,7.07-4.41.21-.07.63-.28.7,0s-2.31,1.47-2.31,3.78c0,2.52,1.33,3.5,3.22,3.5,4.41,0,9.1-3.5,15.33-3.5,7.56,0,15.47,8.12,15.47,17.57,0,11.9-9.73,19.32-20.86,19.32C214.29,76.9,208.27,75.92,204.49,72.84Z"/><path class="cls-6" d="M263.78,38.75a19.49,19.49,0,0,1,14.28,6.51c.28.28.07.42-.14.56a18.39,18.39,0,0,0-4.62,4.69c-.28.42-.49.56-.7.07-1.33-2.94-5.32-8.68-12-8.68-3.29,0-7.63,2-7.63,6.58V74.31l-3.85,2.1c-.21.14-1.61,1-1.82,1.26-.56.49-.63.49-.56.14a17.52,17.52,0,0,0,.14-2.31V48.55C246.91,43.72,253.7,38.75,263.78,38.75Z"/><path class="cls-3" d="M317.61,55c2.38-.42,2.66-.35,1.89.21-.49.35-3.15,3-4.13,3.92l-.14.14h-5.81V74.31c-1.89.77-3.5,3-8.19,3-7.63,0-22.68-5.18-22.68-16,0-14.21,25.48-20.51,30.8-22.33V55.34h.91C311.1,55.34,316.7,55.13,317.61,55ZM303.26,73V59.26H302c-.84,0-6.44.21-7.35.35-2.38.42-2.66.35-1.89-.21.49-.35,3.15-3,4.13-3.92l.14-.14h6.23V43.09C296.12,46,286.53,52.68,286.53,60S295.63,71,303.26,73Z"/><path class="cls-7" d="M323.35,44.7a16.83,16.83,0,0,0-2.59-.21c-.63,0-.63-.35-.35-.49a68,68,0,0,0,8.75-4.83c1.54-.91,2.52,1.12,2.52,2.87V55.76A44.6,44.6,0,0,0,342,49.67c4.27-3.92,4-5.6,3.78-6.44C345.47,42,343.37,42,343,41.62s1.47-.63,2.87-.91a25.64,25.64,0,0,1,5.11-.7,2.53,2.53,0,0,1,2.52,2.38c0,3.15-3.57,5-7.77,7.56,8.05.42,11.69,4.41,11.69,10.29,0,8-8,13.16-16.59,18-.84.49-1-.07-.42-.49,3.36-2.8,8.89-9.52,8.89-15.47,0-2.94-.42-8.54-8.89-9.1-3.08,1.75-6.93,3.57-8.68,5.32V74.24l-3.85,2.1c-.21.14-1.61,1-1.82,1.26-.56.49-.63.49-.56.14a17.52,17.52,0,0,0,.14-2.31v-28C325.59,45.75,325.1,45.05,323.35,44.7Z"/><path class="cls-1" d="M363.67,44.77a16.83,16.83,0,0,0-2.59-.21c-.63,0-.63-.35-.35-.49a68,68,0,0,0,8.75-4.83c1.54-.91,2.52,1.12,2.52,2.87v32.2l-3.85,2.1c-.21.14-1.61,1-1.82,1.26-.56.49-.63.49-.56.14a17.52,17.52,0,0,0,.14-2.31v-28C365.91,45.82,365.42,45.12,363.67,44.77Z"/><path class="cls-8" d="M410.29,55.13c2.38-.42,2.66-.35,1.89.21-.49.35-3.15,3-4.13,3.92l-.14.14H388.73V61c0,5.88,1.19,10.36,10.57,10.36,7.35,0,11.2-3.57,14.91-6.37.56-.42.91-.28.56.35-1.47,2.59-7.56,11.27-17.22,11.27-8.33,0-14.91-4.2-14.91-11.76V47.08c0-1.68-.49-2.38-2.24-2.73a16.83,16.83,0,0,0-2.59-.21c-.63,0-.63-.35-.35-.49a68,68,0,0,0,8.75-4.83c1.54-.91,2.52,1.12,2.52,2.87V55.48h14.21C403.78,55.48,409.38,55.27,410.29,55.13Z"/><path class="cls-9" d="M440.6,39.38c7.07,0,10.78,2.87,10.78,8.61,0,9.24-9.31,12.67-13.23,13.37v6.79c0,7.63-10.85,9.8-14.91,9.8-1.19,0-.91-.49-.35-.63,4.34-1.4,9.17-4.34,9.17-9.17V61.43c0-1-.07-2.24-.49-2.52s-.77-.49-.49-.56a51.81,51.81,0,0,0,6-2.31c.91-.42,1-.42,1,.91v.35c3-.07,6.23-1.47,6.23-7.14,0-3.08-2.38-7-6.58-7-5,0-11.06,5.74-11.06,8.47v6.51l-3.85,2.1c-.21.14-1.61,1-1.82,1.26-.56.49-.63.49-.56.14a17.52,17.52,0,0,0,.14-2.31V47.92c0-1.68-.49-2.38-2.24-2.73a16.83,16.83,0,0,0-2.59-.21c-.63,0-.63-.35-.35-.49a68,68,0,0,0,8.75-4.83c1.54-.91,2.52,1.12,2.52,2.87V45.4C426.74,48.48,431.85,39.38,440.6,39.38Z"/><path class="cls-10" d="M483.79,68.36c1.4-1.47,1.4-.84.91-.14-1.4,2.1-7.7,8.54-9.45,8.54H459.92c-.84,0-6.44.21-7.35.35-2.38.42-2.66.35-1.89-.21.49-.35,3.15-3,4.13-3.92l.14-.14h9.52V47.5c0-1.68-.49-2.38-2.24-2.73a16.83,16.83,0,0,0-2.59-.21c-.63,0-.63-.35-.35-.49A68,68,0,0,0,468,39.24c1.54-.91,2.52,1.12,2.52,2.87V72.84h5.53C479.17,72.84,482.39,69.83,483.79,68.36Z"/><path class="cls-11" d="M490.58,65.28V44.21c0-1.68,2.94-6,7.42-6,2.52,0,4.2,1.82,6.37,5.32,1-2,2-5.32,6.51-5.32,4.76,0,7.21,5,11.62,13.58s9.1,19.53,13.44,19.53a6.33,6.33,0,0,0,4.27-1.4c.49-.42.84-.28.56.35-.7,1.61-3.43,6.37-7.42,6.37-2.52,0-4.83-1.68-6.93-4.48-1.33,2-3.57,4.48-6.44,4.48-3.15,0-6-3.22-8.54-7.21-2,3.15-5.74,7.21-11.06,7.21C494.43,76.69,490.58,72.28,490.58,65.28Zm13,6.16A11,11,0,0,0,511,68.78c-1.68-2.66-3.15-5.53-4.41-7.91-5.18-9.66-8.12-15.19-10.29-17v20.3C496.25,69.34,499.47,71.44,503.6,71.44ZM510,53.66c3.85,6.79,9.38,17.71,12.53,17.71a6.53,6.53,0,0,0,2.87-.56c-2.66-3.85-5.25-9.38-8.19-15.54-3.22-6.72-6.72-12.11-9.17-12.11a3.81,3.81,0,0,0-3.15,1.33C506.33,46.87,507.94,50,510,53.66Z"/><path class="cls-1" d="M566.88,44.28c.63.28,10.64,3.5,10.64,16.59,0,4.41-1.19,12.18-11.2,12.18C552.81,73.05,552,60.1,552,65.77v8.54l-3.85,2.1c-.21.14-1.61,1-1.82,1.26-.56.49-.63.49-.56.14a17.52,17.52,0,0,0,.14-2.31v-28c0-1.68-.49-2.38-2.24-2.73a16.83,16.83,0,0,0-2.59-.21c-.63,0-.63-.35-.35-.49a68,68,0,0,0,8.75-4.83c1.54-.91,2.52,1.12,2.52,2.87V53.73c0,8,4.69,12.67,11.27,12.67,3.5,0,8.68-2,8.68-9.24,0-5.67-3.92-9.73-6.44-11.34a4.88,4.88,0,0,0-3.5-.63c-1.61.49-2,.07-.63-1.19l.42-.42h0l4-3.92h6.93c.84,0,6.44-.21,7.35-.35,2.38-.42,2.66-.35,1.89.21-.49.35-3.15,3-4.13,3.92l-.14.14h-9.87C566,43.58,566.25,44,566.88,44.28Z"/><path class="cls-12" d="M587.25,71.23c-6.79-8.75-2.8-19.81,2.87-25.69,6-6.72,14.28-9.1,23-4.34,8.89,4.9,11.9,16.52,3.71,28.21S592,77.32,587.25,71.23Zm5.88-5c5.39,7,16,7.77,19.39,4.41,6.72-6.58,3.36-18-3.15-23C603.84,43.37,595,42.88,592,46.1,587.39,51.07,588.86,60.66,593.13,66.26Z"/><path class="cls-13" d="M661.59,39.94c.35.07.07.28-.63.84a33.94,33.94,0,0,0-3.78,4.27c-.35.49-.42.28-.7,0-2.1-2.17-5.18-3.57-10.78-3.57-8,0-13.09,8.75-13.09,16.73,0,5.81,3.92,13,9.87,15.19V55.83c0-1-.14-1.19-.42-1.19-.84,0-1.12-.42-.28-.77s10.57-4.13,12.32-5a2.19,2.19,0,0,1,2,.14c3.57,1.75,8.33,3.64,8.33,11.06,0,12.11-15.54,16.52-19.6,16.52-6.58,0-19-2.59-19-16.52,0-14.91,14.21-21.63,22.19-21.63A61.87,61.87,0,0,1,661.59,39.94Zm-4.27,21.63c0-5-5.88-8.19-8.12-8.19a1.94,1.94,0,0,0-.63.07V73.82C656.83,72.42,657.32,64.16,657.32,61.57Z"/><path class="cls-14" d="M699.11,46.59V74.24l-3.85,2.1c-.21.14-1.61,1-1.82,1.26-.56.49-.63.49-.56.14a17.52,17.52,0,0,0,.14-2.31V49.6c0-4.06-4.62-7.56-8.82-7.56a8.18,8.18,0,0,0-8.61,8.4,5.41,5.41,0,0,0,3.71,5.39,5.83,5.83,0,0,0,1.05.28,28.55,28.55,0,0,0,3.57-1.61c.56-.35.56-.07.56.56V69c0,5.46-7.7,8.82-12.67,8.82-2.24,0-2.66-.21-1.47-.7s8.19-2.66,8.19-8.12V62.27c-2.31-.7-9.94-2.66-9.94-10.22,0-7.91,9-12.6,16.1-12.6C692.46,39.45,699.11,43,699.11,46.59Z"/><path class="cls-15" d="M707.5,44.77a16.83,16.83,0,0,0-2.59-.21c-.63,0-.63-.35-.35-.49a68.08,68.08,0,0,0,8.76-4.83c1.54-.91,2.52,1.12,2.52,2.87v.21a1.91,1.91,0,0,0,.63.07c1.12,0,8.54-3.78,12.39-3.78S739,41.27,739,47.08c0,5.11-3.64,8.89-9,9.73V72.63a31.39,31.39,0,0,0,8.33-3.43c2.31-1.33,2.31-.77,1.47-.14-2.31,1.89-13,7.7-15.89,7.7V56.53c-.42-.14-.84-.21-1.26-.35-.63-.21-.63-.42-.14-.56,1.82-.49,9.17-2.66,9.17-7.56s-3.15-6.58-6.44-6.58c-2.66,0-7.7,4.2-9.45,6.51V74.31L712,76.41c-.21.14-1.61,1-1.82,1.26-.56.49-.63.49-.56.14a19.46,19.46,0,0,0,.14-2.31v-28C709.75,45.82,709.25,45.12,707.5,44.77Z"/><path class="cls-16" d="M770.3,66.05c0-5.74-2.17-9.24-6.16-9.24-3.08,0-9.1,3.92-12,5.74V74.31l-3.85,2.1c-.21.14-1.61,1-1.82,1.26-.56.49-.63.49-.56.14a17.52,17.52,0,0,0,.14-2.31V49c0-4,8-9.73,15.69-9.73a29.76,29.76,0,0,1,15.33,4.9c1.33.91.63,1,.28,1.26a23.46,23.46,0,0,0-4.13,4.2c-.56.77-.7,1-1.19.28-2-2.73-7.07-7.21-12.18-7.21s-7.71,2-7.71,5.95V59.61c3.15-1.19,9.46-6.3,13.1-6.3,6.58,0,12.46,4.41,12.46,10.78,0,8-10.22,12.32-15.33,13.86-1,.28-1.19-.07-.7-.35C764.63,76,770.3,72.77,770.3,66.05Z"/><path class="cls-17" d="M798,39.59c7.28,0,12.81,2.52,12.81,5.39V74.31L807,76.41c-.21.14-1.61,1-1.82,1.26-.56.49-.63.49-.56.14a17.52,17.52,0,0,0,.14-2.31V49.25c0-4.27-5.74-6-9.39-6s-8.82,1.68-13.37,5.25c-.63.49-1.26,0-.84-.63C782.75,45.47,787.58,39.59,798,39.59Z"/><path class="cls-18" d="M823,39.45a4.54,4.54,0,0,1,3.43-.84c2.17.49,4,1.33,4,4.9,0,4.9-7.56,9.73-7.56,18.55,0,6.09,3.08,9.87,10.51,11V45c.76-.77,9.38-6.09,10.85-6.09s2-.21,4.76,1.19,9,5.11,9,13.72c0,13.51-13.58,23.1-23.45,23.1-8,0-18.07-5-18.07-13.44,0-7.91,8.68-13.79,8.68-16.17,0-2-2.1-3-3.5-3a3.42,3.42,0,0,0-2.45.7c-.49.49-1.19.28-.91-.28C819.08,43,821.88,40.43,823,39.45Zm27.8,16.87c0-9.31-7.91-11.9-11.34-12.18V73.33C847.37,72.63,850.8,61.43,850.8,56.32Z"/><path class="cls-19" d="M887.76,45c-2.8,0-6.93,2.52-7.56,2.52-.42,0-.49-.35-.28-.49,3.85-2.1,8.4-5,11.69-7.14,1.82-1.19,6.58.42,8.4,3.71,6.58,12-8.4,19-33.54,34V47.5c0-1.68-.49-2.38-2.24-2.73a16.83,16.83,0,0,0-2.59-.21c-.63,0-.63-.35-.35-.49A68,68,0,0,0,870,39.24c1.54-.91,2.52,1.12,2.52,2.87v29a106.63,106.63,0,0,0,19.05-13c3.36-2.94,3.36-6.93,1.82-9.31C891.75,46.24,889.51,45,887.76,45Z"/><path class="cls-20" d="M925.34,45c-2,0-5.74,2.52-6.3,2.52s-.49-.35-.21-.49c3.43-2.1,7.63-5,10.58-7.14,1.67-1.19,6,.42,8.4,5.11,2.66-1.75,5.32-3.64,7.42-5.11,1.68-1.19,6,.42,8.47,5.18,4.55,8.82-7.63,16.66-11.69,19.88-7.77,6.09-13.45,10.64-14.84,11.55-1.9,1.26-2.39.77-1.34-.28,1.34-1.33,13.73-12.18,17.58-16s5.6-8,3.5-11.41c-1.75-2.94-3.5-3.85-5.74-3.85a7.8,7.8,0,0,0-2.94.91c2.59,6-2.17,11.13-9.6,17.15-5,4.13-11.48,9-17.64,13.86l-.91.91V47.5c0-1.68-.49-2.38-2.24-2.73a16.83,16.83,0,0,0-2.59-.21c-.63,0-.63-.35-.35-.49a68,68,0,0,0,8.75-4.83c1.54-.91,2.52,1.12,2.52,2.87V70.46a135.78,135.78,0,0,0,10.36-9.17c4.48-4.41,6.66-9,4.55-12.46C929.33,45.89,927.58,45,925.34,45Z"/><path class="cls-21" d="M999.76,38.89c1.61-.49,3.08.07,3.08,3.08,0,4.2-6,8.61-18.34,15.26,6,7.42,11.41,14.7,14.49,14.7a4.44,4.44,0,0,0,3.36-1.4c.42-.35.77-.21.56.21-.91,1.61-3.64,6-6.86,6-3.64,0-7.14-4.76-16.95-16.38-6.79,4.27-9.73,7.84-11,10.29s0,3.29,1.75,4.27c.49.28.49.56,0,.56-2.1,0-6.93,1.54-8.54,2.17a4.08,4.08,0,0,1-2.45-4.06c0-3.43,8.4-8.68,19-14.7-.84-1.05-1.75-2.1-2.73-3.22-2.1-2.38-8.75-12-12.53-12a3.45,3.45,0,0,0-2.94,1.82c-.42.7-.77.49-.42-.42.77-1.89,4.06-5.81,7.14-5.81,4.27,0,10.22,8.26,15.68,14.91.42.49.84,1,1.26,1.54,10.16-6.37,10.65-9.87,10.79-11.55a2,2,0,0,0-2.1-2.45c-.91,0-.77-.49.21-.7C993.74,40.64,998.36,39.31,999.76,38.89Z"/><path class="cls-22" d="M1009.27,44.77a16.83,16.83,0,0,0-2.59-.21c-.63,0-.63-.35-.35-.49a68,68,0,0,0,8.75-4.83c1.54-.91,2.52,1.12,2.52,2.87V66.26a122.54,122.54,0,0,1,13.93-10.92c4.69-3.15,6.23-6.09,4.69-9-1.12-2.17-3.08-3.64-5-3.64-1.75,0-5,2-5.53,2s-.42-.28-.14-.42c3-1.61,6.65-3.85,9-5.32,1.68-1,6.3.35,8.62,4.83,3.36,6.51-8.06,12.25-13.17,15.89-7.14,5.11-11.13,9.31-11.69,14.42-.07.49-.28.49-.63.63a25.75,25.75,0,0,0-8.47,5c-.35.28-.35,0-.35-.49,0-1.89,1-4.06,2.66-6.3V47.5C1011.51,45.82,1011,45.12,1009.27,44.77Z"/><path class="cls-23" d="M1071.29,57.72c-4.55,5.39-9.1,10.78-13.65,16.24-2.45,2.94-3.5,3.5-4.9,3.5-2.31,0-8.26-.84-8.26-8.26,0-9.94,16.38-18,22.12-18a28.48,28.48,0,0,1,5.68.56l6.72-7.91h-19.75c-.84,0-6.44.28-7.35.42-2.38.49-2.66.42-1.89-.28.49-.42,3.08-3.43,4.13-4.69l.14-.14h28.5a16.28,16.28,0,0,0,3.57-.28c1.19-.21.49.42.07.91-3.64,4.34-7.28,8.61-10.85,13,1.26.56,2.1,1.33,2.1,2.17V73.4a31.7,31.7,0,0,0,7-2.94c2.1-1.26,2.1-.7,1.33-.07-2.1,1.68-11.76,7-14.42,7V59.26A3.56,3.56,0,0,0,1071.29,57.72ZM1056,71l13.09-15.47a14.89,14.89,0,0,0-5.39-.77c-5.46,0-11.69,5.67-11.69,12S1054.77,72.42,1056,71Z"/><path class="cls-24" d="M131.2,132.08a16.83,16.83,0,0,0-2.59-.21c-.63,0-.63-.35-.35-.49a68,68,0,0,0,8.75-4.83c1.54-.91,2.52,1.12,2.52,2.87V133c2.87-3.08,6.72-6.16,11.83-6.16,3.64,0,6.65,1.4,7.7,2.66a33.29,33.29,0,0,0-3.92,3.85,10.4,10.4,0,0,0-7.42-2.59c-3.43,0-5.39,2.1-8.19,4.9v6.58c3.43-1.89,8.61-5.32,10.78-5.32,4.69,0,8.75,3,8.75,8.12,0,5.67-7.07,7.84-11.48,7.84-3.71,0-6.44-2.17-8.05-2.87v.56c0,5-10.15,14.07-11.55,14.77-.42.21-.77,0-.35-.42,1.26-1.12,5.81-9,5.81-13.44V134.81C133.44,133.13,133,132.43,131.2,132.08Zm18.27,18.13c2.8,0,3.43-.21,3.43-3.36,0-3.85-3.29-6.44-5.53-6.44-2,0-4.76,2.52-7.21,3.64C142.61,147,146.46,150.21,149.47,150.21Z"/><path class="cls-25" d="M173.41,120.67a16.83,16.83,0,0,0-2.59-.21c-.63,0-.63-.35-.35-.49a68,68,0,0,0,8.75-4.83c1.54-.91,2.52,1.12,2.52,2.87v9.38a16,16,0,0,1,3.15-.28c5,0,8.75,3.43,8.75,8,0,5.46-7.49,10.5-18,10.5V130.75l-.63.42c-2.87,2.1-6.65,6.51-6.65,10.92,0,3.64,2.17,8.19,8.75,8.19,4.83,0,7.84-1.68,12.74-4.9.77-.49.91-.07.35.7-1.75,2.52-9.66,7.35-17.57,7.35-4.9,0-10.08-1.61-10.08-7.7s5.95-12.88,13.09-16.31v-6C175.65,121.72,175.16,121,173.41,120.67ZM188,135.44a6.52,6.52,0,0,0-6.3-6.16V143C186.08,141.88,188,139.08,188,135.44Z"/><path class="cls-26" d="M224.16,150l-3.85,2.1c-.21.14-1.61,1.05-1.82,1.26-.56.49-.63.49-.56.14a17.52,17.52,0,0,0,.14-2.31V130.26c-6.72,1.26-14.14,6.44-14.14,17.29,0,11.34,11.48,16.87,14.14,18.48.63.42,1,1.19-.14,1-4.9-.91-20.79-4.41-20.79-17.43,0-15.12,19.46-23.1,27-23.1Z"/><path class="cls-27" d="M245.23,129.77v-6.3c0-1.68-.49-2.38-2.24-2.73a16.83,16.83,0,0,0-2.59-.21c-.63,0-.63-.35-.35-.49a68,68,0,0,0,8.75-4.83c1.54-.91,2.52,1.12,2.52,2.87v10.08A18.63,18.63,0,0,1,262.17,130c.14.07.07.07-.14.28a35.25,35.25,0,0,0-3.57,3.64c-.21.28-.35.56-.49.42a13.35,13.35,0,0,0-6.65-3.5v19l-1.47.77c-1.75,1.12-4.34,2.87-5.6,2.87-4.9,0-14.49-2.31-14.49-8.54S239.91,131.94,245.23,129.77Zm0,19.25V131.31c-4.13,2-8,7.35-8,11.9C237.18,146.64,240.82,148.18,245.23,149Z"/><path class="cls-28" d="M277.15,126.83c9.52,0,14.28,6.23,14.28,12.46,0,9.66-11.41,13.51-17.08,13.93-.84.07-.7-.49,0-.77,5.53-2.38,9.38-4.69,9.87-10.29h-8.68c-.84,0-6.44.21-7.35.35-2.38.42-2.66.35-1.89-.21.49-.35,3.15-3,4.13-3.92l.14-.14h13.58c-.84-6.44-4.62-9.17-8.33-9.17-5,0-8.26,3.15-8.26,5.46,0,.56-.14.77-.35.84a13.12,13.12,0,0,0-4.34,2.24c-.35.28-.84.56-.56-.28C263.08,135.23,266.79,126.83,277.15,126.83Z"/><path class="cls-29" d="M310.4,126.41c6.44,0,11.2,4.41,12.67,6.23.28.35-.35.7-.56.91a24.4,24.4,0,0,0-3.64,3.92c-.21.28-.42.35-.63,0-1.4-2.8-5.46-8.82-9.94-8.82-4.13,0-6.44,3.36-6.44,7.91v25.83l-3.85,2.1c-.21.14-1.61,1-1.82,1.26-.56.49-.63.49-.56.14a17.52,17.52,0,0,0,.14-2.31v-27C295.77,132.57,301.86,126.41,310.4,126.41Z"/><path class="cls-26" d="M347.71,138H349c.84,0,6.44-.21,7.35-.35,2.38-.42,2.66-.35,1.89.21-.49.35-3.15,3-4.13,3.92l-.14.14h-6.3V150l-3.85,2.1c-.21.14-1.61,1.05-1.82,1.26-.56.49-.63.49-.56.14a17.52,17.52,0,0,0,.14-2.31V142c-2,.07-4.9.21-5.53.28-2.38.42-2.66.35-1.89-.21.49-.35,3.15-3,4.13-3.92l.14-.14h3.15v-7.7c-6.72,1.26-14.14,6.44-14.14,17.29,0,11.34,11.48,16.87,14.14,18.48.63.42,1,1.19-.14,1-4.9-.91-20.79-4.41-20.79-17.43,0-15.12,19.46-23.1,27-23.1Z"/><path class="cls-30" d="M359.68,122.7a16.83,16.83,0,0,0-2.59-.21c-.63,0-.63-.35-.35-.49a68,68,0,0,0,8.75-4.83c1.54-.91,2.52,1.12,2.52,2.87v19.25a22.49,22.49,0,0,0,6.09-2.45c3.5-1.82,4.62-3.92,5-5.46s-1.05-2.24-1.68-2.66c-.42-.21-.49-.63.28-.63a25.55,25.55,0,0,0,6.51-.84c.7-.14.84.07.84,1.33,0,4.9-3.15,5.74-7.07,8,6.65.28,11.27,2.45,11.27,7.49,0,5.74-8.4,10.57-13.79,12.25-.7.21-.84-.07-.35-.42,3.08-2,7.35-6.3,7.35-10.5,0-2.59-1.61-6.3-8.12-6.72-2.66,1.47-5,2.52-6.3,3.22v10.29l-3.85,2.1c-.21.14-1.61,1-1.82,1.26-.56.49-.63.49-.56.14a17.52,17.52,0,0,0,.14-2.31v-28C361.92,123.75,361.43,123.05,359.68,122.7Z"/><path class="cls-31" d="M395.52,132.64a16.83,16.83,0,0,0-2.59-.21c-.63,0-.63-.35-.35-.49a68,68,0,0,0,8.75-4.83c1.54-.91,2.52,1.12,2.52,2.87v20.09l-3.85,2.1c-.21.14-1.61,1.05-1.82,1.26-.56.49-.63.49-.56.14a17.52,17.52,0,0,0,.14-2.31V135.37C397.76,133.69,397.27,133,395.52,132.64Z"/><path class="cls-32" d="M435,137.68c2.38-.42,2.66-.35,1.89.21-.49.35-3.15,3-4.13,3.92l-.14.14H419.25c.21,4.83,1.47,8.4,8.12,8.4,5.74,0,9.31-2.66,12-5.18.35-.35.7.14.42.63-1.05,2-5.46,8.54-12.88,8.54-9.24,0-13.79-2.94-13.79-11.34V125.5c0-1.68-.49-2.38-2.24-2.73a16.83,16.83,0,0,0-2.59-.21c-.63,0-.63-.35-.35-.49a68,68,0,0,0,8.75-4.83c1.54-.91,2.52,1.12,2.52,2.87V138h8.47C428.49,138,434.09,137.82,435,137.68Z"/><path class="cls-33" d="M441.93,132.36a16.83,16.83,0,0,0-2.59-.21c-.63,0-.63-.35-.35-.49a68,68,0,0,0,8.75-4.83c1.54-.91,2.52,1.12,2.52,2.87v2.73c.56,1.54,4.2-5.46,11.62-5.46,6,0,8.75,4.06,8.75,9,0,8.47-6.79,11.34-10.78,11.9v3.78c0,7.63-8.4,14.35-12.88,16.31-.63.28-.7-.28-.28-.7,2.94-3,7.07-8.26,7.07-15.19v-3.85c0-1-.07-2.45-.42-2.73s-.63-.42-.42-.49a53.61,53.61,0,0,0,6-2.1c.77-.42.91-.42.91.77v.7c2.31-.56,4.27-3.15,4.27-6.93,0-3-2.73-6.37-5.67-6.37-3.22,0-7.56,3.29-8.19,6.23v7.28l-3.85,2.1c-.21.14-1.61,1.05-1.82,1.26-.56.49-.63.49-.56.14a17.52,17.52,0,0,0,.14-2.31V135.09C444.17,133.41,443.68,132.71,441.93,132.36Z"/><path class="cls-34" d="M474.83,122.77a16.83,16.83,0,0,0-2.59-.21c-.63,0-.63-.35-.35-.49a68,68,0,0,0,8.75-4.83c1.54-.91,2.52,1.12,2.52,2.87v32.62h2.59c.84,0,6.44-.21,7.35-.35,2.38-.42,2.66-.35,1.89.21-.49.35-3.15,3-4.13,3.92l-.14.14H477.07V125.5C477.07,123.82,476.58,123.12,474.83,122.77Z"/><path class="cls-35" d="M497.79,145V130.82c0-2.38,1.82-4.06,6.37-4.06,2.73,0,4.76,1.61,6.72,4.62.77-1.47,2.59-4.62,6.51-4.62,3.57,0,4.83,1,9.52,8.4,4.27,6.58,7.91,14.49,10.5,14.49,2,0,3.08-2.1,3.78-2.73.42-.42.91,0,.7.42-.63,1-3.57,5.74-6.51,5.74-3.57,0-5.32-1.19-7.7-4.83-.77,1.47-2.38,4.83-6.3,4.83-3.08,0-5.53-2.1-7.56-5-1.26,2.1-2.31,5-7.63,5C501.08,153.08,497.79,149.72,497.79,145Zm10.64,4.55a8,8,0,0,0,4.83-2.24,70.6,70.6,0,0,1-4.2-7.35c-1.82-3.43-3.15-10.22-5-10.22a1.94,1.94,0,0,0-.63.07v14.35C503.39,147.76,504.93,149.58,508.43,149.58Zm5.88-12.39c2.52,4.55,7.14,12.46,9.87,12.46,1.12,0,2.24-1.4,2.94-2.17-1.4-2.17-3-5-5.32-8.89-3.57-6.23-5.18-8.33-7.28-8.33-1.33,0-2.17,1.68-2.87,2.31C512.49,133.9,513.33,135.44,514.31,137.19Z"/><path class="cls-36" d="M572.83,142.09c0,7.35-4.41,10.64-8.89,10.64-10.22,0-11.2-8.82-11.2-5.81v3.64l-3.85,2.1c-.21.14-1.61,1.05-1.82,1.26-.56.49-.63.49-.56.14a17.52,17.52,0,0,0,.14-2.31V135.23c0-1.68-.49-2.38-2.24-2.73a16.83,16.83,0,0,0-2.59-.21c-.63,0-.63-.35-.35-.49a68,68,0,0,0,8.75-4.83c1.54-.91,2.52,1.12,2.52,2.87v9.31c0,5,2.38,8,8.4,8,2.87,0,6.86-1.33,6.86-7.28,0-5-1.82-6.58-4.83-8.26a4.18,4.18,0,0,0-2.8-.35c-.84.21-1.19.14-1.12-.14a3.7,3.7,0,0,1,.63-.77l3.43-3.15h4.83c.84,0,6.44-.21,7.35-.35,2.38-.42,2.66-.35,1.89.21-.49.35-3.15,3-4.13,3.92l-.14.14h-5.67C563.94,131.1,572.83,132.29,572.83,142.09Z"/><path class="cls-37" d="M580.81,149.09c-5.25-6.79-2-13.72,2-17.85,4.13-4.62,9.45-6.51,15.89-3,5.67,3.15,8.61,11.13,2.59,19C594.6,156,584.45,153.85,580.81,149.09Zm4.55-4.27c3.08,4,10.15,5.88,12.6,3.5,4.13-4.06,1.19-12.32-2.52-15.26-4.06-3.08-8.75-3.43-10.85-1.26C581.72,134.81,582.77,141.46,585.36,144.82Z"/><path class="cls-38" d="M638.14,128.86c.28,0,.07.28-.56.77a29.08,29.08,0,0,0-2.94,3.29c-.28.56-.35.28-.56,0a11.37,11.37,0,0,0-8.82-3.78c-6.3,0-11.06,5.81-11.06,11.41,0,5.25,1.33,9.87,7.49,10.78V140.9c0-.63-.84-.56-1.05-.56-.63,0-.84-.21-.21-.49s9.73-2.94,11.13-3.5a2.35,2.35,0,0,1,1.54.07c2.87,1.19,6.23,2.24,6.23,5.81,0,7.14-6.79,9.66-11.76,10.43-1.19,6.09-8.33,10.92-12.32,13.65-.63.42-1.12,0-.7-.42a22.38,22.38,0,0,0,7-13c-5.39-.63-12.81-3.5-12.81-11,0-9.45,10.29-15,17.78-15A41.1,41.1,0,0,1,638.14,128.86Zm-4.76,16c0-3.36-3.71-4.76-5.6-5v11.2C632.82,149.86,633.38,146.29,633.38,144.82Z"/><path class="cls-39" d="M669.29,133.34v17l-3.85,2.1c-.21.14-1.61,1.05-1.82,1.26-.56.49-.63.49-.56.14a17.52,17.52,0,0,0,.14-2.31v-16c0-3.85-3.5-6.65-7.14-6.65a7.41,7.41,0,0,0-7.77,7.28,5.86,5.86,0,0,0,2,4.9,15.8,15.8,0,0,0,5.53-1.68c.49-.28.49-.07.49.42V150c0,5.88-9.31,15.33-13,17.29-.63.35-.7,0-.28-.42,2.94-3.57,7.14-10.64,7.14-15.75v-2.45l.49-.14h-.49v-1.4c-4.62-.21-7.35-3.08-7.35-8.82,0-6,6.37-11.41,13.79-11.41C663.48,126.9,669.29,131.17,669.29,133.34Z"/><path class="cls-40" d="M677.69,132.29a16.83,16.83,0,0,0-2.59-.21c-.64,0-.64-.35-.35-.49a68,68,0,0,0,8.75-4.83c1.54-.91,2.52,1.12,2.52,2.87v2.73c2.8-3.15,8.05-5.88,11.13-5.88,3.36,0,8.89,3.15,8.89,8.19,0,3.85-3.15,6.79-7.07,7.91v12.74c0,6.3,1.75,8.61,4.62,8.61a7.32,7.32,0,0,0,5.39-2.87c.35-.42.77.07.56.56-1,2.24-4.55,5.88-7.91,5.88-5.53,0-8.75-3.57-8.75-10.64v-14a6.55,6.55,0,0,1-1.12-.28c-.91-.28-1.19-.91,0-1.12,1.54-.28,7.14-.63,7.14-5.81,0-3.22-2-6-5.53-6-2.31,0-5.81,2.94-7.35,4.83v15.61l-3.85,2.1c-.21.14-1.61,1.05-1.82,1.26-.56.49-.63.49-.56.14a17.52,17.52,0,0,0,.14-2.31V135C679.93,133.34,679.44,132.64,677.69,132.29Z"/><path class="cls-41" d="M732.71,145.73c0-3.15-2.1-5-5.67-5-2.24,0-6.09,3.15-8,4.41v5l-3.86,2.1c-.2.14-1.6,1.05-1.82,1.26-.56.49-.62.49-.56.14a15.92,15.92,0,0,0,.14-2.31V135.65c0-2.73,7.36-9,13.31-9s10.36,2.31,12.32,4.2c.77.77.56.77.28,1a18.27,18.27,0,0,0-3,3.15c-.42.7-.56.84-.91.21-1.61-2.31-4-5.6-9.1-5.6-4.34,0-6.79,2.87-6.79,4.13v8.89c2.52-1.05,7.21-4.62,11-4.62,5.46,0,9.24,2,9.24,6.93,0,5.39-7.77,7.91-12.6,8.89-.56.14-.84-.07-.42-.28C728.51,152.31,732.71,150,732.71,145.73Z"/><path class="cls-42" d="M758.12,126.76c6.72,0,11,2.94,11,5.81v30l-3.85,2.1c-.21.14-1.61,1.05-1.82,1.26-.56.49-.63.49-.56.14a17.52,17.52,0,0,0,.14-2.31V135.65c0-3.08-3.29-5.25-7.91-5.25-3,0-7.57,1.61-12.26,5.25-.7.56-1.54.07-1.05-.56C743.69,132.64,748,126.76,758.12,126.76Z"/><path class="cls-43" d="M779.88,127.18a4.74,4.74,0,0,1,2.81-.56c1.75.28,3.22.91,3.22,3.43,0,3.5-5.53,6.23-5.53,13.09,0,3.43,1.33,6.65,7.28,7.77V132.08l1.33-.56c3.29-1.54,7.07-4.69,8.33-4.69,3.57,0,10.78,2.24,10.78,9.45,0,10.71-9.8,17.5-18.9,17.5-6.79,0-14.49-1.54-14.49-9.52,0-5.6,5.67-7.28,5.46-11.41-.14-2.59-3.09-2.24-4.06-1.61-.43.28-.91.07-.78-.14A45,45,0,0,1,779.88,127.18Zm22.41,11.9c0-5.88-5.25-7.28-8.54-7.49v19.6C800.05,150.28,802.29,142.72,802.29,139.08Z"/><path class="cls-44" d="M828.4,131.73c-.7.56-1.19,0-.49-.7a18.73,18.73,0,0,1,6.86-4.13c1.4-.49,5.46-.28,7.14,2.59,5.46,9.38-12.11,16-26,24.29V135.16c0-1.68-.49-2.38-2.24-2.73a16.83,16.83,0,0,0-2.59-.21c-.63,0-.63-.35-.35-.49a68,68,0,0,0,8.75-4.83C821,126,822,128,822,129.77v18.55c2.59-1.4,6.23-3.71,10.64-6.65,7.07-4.83,2.94-10.36.63-10.78A7,7,0,0,0,828.4,131.73Z"/><path class="cls-44" d="M862.77,132.36c-.63.56-1-.21-.35-.77a27.53,27.53,0,0,1,6.16-4.48c1.26-.56,4.41,0,6.44,2.59a6.8,6.8,0,0,1,1.05,1.75,50.68,50.68,0,0,1,6.58-4.34c1.26-.56,4.41,0,6.44,2.59,6.51,8.61-8.26,12.81-23.24,23.59-.7.49-1.05-.49.84-1.89,3.22-2.45,7.84-5.18,12.95-9.66,6.23-5.53,3.92-9.8,1.68-10.64-1.26-.56-3.57.14-5,1.05,2,7.21-12.67,13.65-24.79,21.63V135.16c0-1.68-.49-2.38-2.24-2.73a16.83,16.83,0,0,0-2.59-.21c-.63,0-.63-.35-.35-.49a68,68,0,0,0,8.75-4.83c1.55-.91,2.52,1.12,2.52,2.87v18.48a61.21,61.21,0,0,0,9.11-6.58c6.37-4.76,2.8-9.73.56-10.57C865.85,130.47,863.75,131.59,862.77,132.36Z"/><path class="cls-45" d="M923,126.48c1.12-.42,2.31.42,2.31,2.45,0,3.71-6.37,7.14-12.74,10.5,2.94,4.76,5.81,9,8.26,9,2.73,0,3.22-.77,3.78-1.26.21-.21.63.21.49.42-.63,1-4.48,5.32-7.28,5.32-3.5,0-7.21-5.25-10.58-10.64-3.57,2-6.44,4.06-7.07,6.16a2.69,2.69,0,0,0,1.12,3.22c.28.21.28.42,0,.42a26.14,26.14,0,0,0-6,1.47,2.71,2.71,0,0,1-1.75-2.8c0-4.13,6.16-7.42,12.47-10.57-3-4.9-5.67-9.31-7.64-9.31a6.76,6.76,0,0,0-4.06,2c-.42.42-1,.28-.7-.28.49-1.33,4.76-5.88,7.63-5.88,3.23,0,6.73,5.32,10.09,10.71,4.06-2.31,7.35-4.62,7.63-7.28.14-1.4-.84-1.47-1.33-1.47s-.56-.35.14-.49C918.84,128,922.06,126.69,923,126.48Z"/><path class="cls-46" d="M931.22,132.22a16.83,16.83,0,0,0-2.59-.21c-.63,0-.63-.35-.35-.49a68.75,68.75,0,0,0,8.76-4.83c1.54-.91,2.52,1.12,2.52,2.87v21.56c7.7-6.86,16.73-13.09,14.56-17.78-1-2.1-2.73-3.57-4.48-3.57s-3.43,1.82-4.48,2.17c-.56.21-.84-.42-.63-.63a33.85,33.85,0,0,1,8.12-5c1.61-.7,5.39.35,7.7,4.55,4.83,8.82-22.34,16.73-22.34,30.31,0,.42-.21.42-.55.56a19.8,19.8,0,0,0-7.5,4.41c-.35.28-.35,0-.35-.49,0-2.8,1.54-5.67,3.85-8.4V135C933.46,133.27,933,132.57,931.22,132.22Z"/><path class="cls-47" d="M981.91,141c-3.16,2.8-6.24,5.67-9.11,8.54-1.47,1.47-4.2,3.64-4.83,3.64-1.75,0-5-.91-5-5.32,0-5.88,10.36-13.16,17.65-13.16a11.3,11.3,0,0,1,4,.7l5.11-4.76H976.17c-.84,0-6.45.21-7.36.35-2.38.42-2.66.35-1.89-.21.49-.35,3.15-3,4.13-3.92l.14-.14H993.6a20.21,20.21,0,0,0,2.8-.14c.84-.21.35.21,0,.56-3,3.29-6.3,6.37-9.59,9.45a2.77,2.77,0,0,1,1.33,2V149a33.29,33.29,0,0,0,6.58-2.31c.91-.35,1.19-.14.56.42-4.83,4.27-11.06,5.88-13.16,5.88V142.58A5.46,5.46,0,0,0,981.91,141Zm-10.3,6.65,9.11-8.54a5.59,5.59,0,0,0-3.93-1.19c-3.5,0-7.84,3.78-7.84,7.84C969,150.14,970.63,148.67,971.61,147.69Z"/><path class="cls-48" d="M369.3,227.23c-6.79-8.75-2.8-19.81,2.87-25.69,6-6.72,14.28-9.1,23-4.34,8.9,4.9,11.91,16.52,3.72,28.21S374.06,233.32,369.3,227.23Zm4.9-6.37c4.41-2.66,7.63-5.88,7.63-7.21,0-.35-1.61-1,0-1.4,3.15-.63,5-.91,7.84-1.61,2.1-.49.77,3.22-2,6-3,2.94-7.91,5-12.25,6,5.46,6.65,15.75,7.35,19.11,4.06,6.73-6.58,3.37-18-3.15-23-5.53-4.27-14.35-4.76-17.36-1.54C369.79,206.65,370.7,215.12,374.2,220.86Z"/><path class="cls-49" d="M428.88,194.75a19.49,19.49,0,0,1,14.28,6.51c.28.28.07.42-.14.56a18.39,18.39,0,0,0-4.62,4.69c-.28.42-.49.56-.7.07-1.33-2.94-5.32-8.68-12-8.68-3.29,0-7.63,2-7.63,6.58v23.73c0,8.4-11.83,9.8-16.1,9.8-1.19,0-.91-.49-.35-.63,4.27-1.19,10.36-5.46,10.36-9.17V204.55C412,198,418.79,194.75,428.88,194.75ZM412,226.25h0Z"/><path class="cls-49" d="M465.42,194.75a19.49,19.49,0,0,1,14.28,6.51c.28.28.07.42-.14.56a18.39,18.39,0,0,0-4.62,4.69c-.28.42-.49.56-.7.07-1.33-2.94-5.32-8.68-12-8.68-3.29,0-7.64,2-7.64,6.58v13c4.56-2.59,8.41-5.81,8.41-7.14,0-.35-1.61-1,0-1.4,1.82-.49,4.41-1.26,5.95-1.61,2.1-.49.7,3.36-2.17,6a29.52,29.52,0,0,1-12.19,6.3v8.61c0,8.4-11.83,9.8-16.1,9.8-1.19,0-.91-.49-.35-.63,4.27-1.19,10.36-5.46,10.36-9.17V204.55C448.54,198,455.33,194.75,465.42,194.75Zm-16.88,31.5h0Z"/><path class="cls-49" d="M502,194.75a19.49,19.49,0,0,1,14.28,6.51c.28.28.07.42-.14.56a18.39,18.39,0,0,0-4.62,4.69c-.28.42-.49.56-.7.07-1.33-2.94-5.32-8.68-12-8.68-3.29,0-7.64,2-7.64,6.58v13c4.56-2.59,8.41-5.81,8.41-7.14,0-.35-1.61-1,0-1.4,1.82-.49,4.41-1.26,5.95-1.61,2.1-.49.7,3.36-2.17,6a29.46,29.46,0,0,1-12.19,6.3v8.68c4.56-2.59,8.41-5.81,8.41-7.14,0-.35-1.61-1,0-1.4,1.82-.49,4.41-1.26,5.95-1.61,2.1-.49.7,3.36-2.17,6a29,29,0,0,1-12.47,6.37c-1.89,6.44-12,7.56-15.82,7.56-1.19,0-.91-.49-.35-.63,4.27-1.19,10.36-5.46,10.36-9.17V204.55C485.08,198,491.87,194.75,502,194.75Zm-16.88,31.5h0Z"/><path class="cls-50" d="M533.24,196.08c9.8,0,24,32.27,24.23,32.06a10.87,10.87,0,0,0-2.45,1.68c-1.4,1.19-1.47,1.68-2.8,2.94H530.93c-.84,0-6.44.21-7.35.35-2.38.42-2.66.35-1.89-.21.49-.35,3.15-3,4.13-3.92l.14-.14h24.37c-4.35-8.68-15.13-29-20-29-2.38,0-5,4-5,6.23a4.53,4.53,0,0,0,2.38,4.41c.42.35-.21,1.19-.35,1.33a21.21,21.21,0,0,0-2.94,5.25c-.21.35-.35.63-.91.35-1.12-.49-2.66-3.85-2.66-6C520.92,202.73,528,196.08,533.24,196.08Z"/><path class="cls-51" d="M580.77,195.59c7.28,0,12.81,2.52,12.81,5.39V226.6c0,6.79,5.54,8.05,8.41,8.68.49.14.35.49-.07.49-6.3,0-14.43-.77-14.43-10.43v-10c-9.31,5.11-14.14,9-15.19,13.58-.56,2.45,0,3.29,1.75,4.27.49.28.49.56,0,.56-2.1,0-6.16,1.54-7.77,2.17a4.08,4.08,0,0,1-2.45-4.06c0-5.6,8.54-10.92,23.66-19.25v-7.35c0-4.27-5.74-6-9.38-6s-8.82,1.68-13.37,5.25c-.63.49-1.26,0-.84-.63C565.51,201.47,570.34,195.59,580.77,195.59Zm6.72,28.63h0Z"/><path class="cls-52" d="M634.12,228.49c2.38-.42,2.66-.35,1.89.21-.49.35-3.15,3-4.13,3.92l-.15.14H601.91l.07-.07h-.42l19.53-30.24c2.66-4.06,5.88-5.67,10-5.67,2.94,0,6.52,3.08,6.52,7.35,0,6.23-4.7,9.87-7.42,12.39-.36.28-.78.07-.22-.84,1.75-2.52,3.44-6.93,1.12-10.57a6.3,6.3,0,0,0-5.32-3.08c-1,0-2,.42-3.57,2.8l-15.47,24h20C627.6,228.84,633.21,228.63,634.12,228.49Z"/><path class="cls-53" d="M664.14,201.89v18.34s6.16-5.53,8.4-5.53c3.16,0,8.2,1.68,8.2,7.63,0,4.55-6,10.78-10.3,10.78a10.58,10.58,0,0,1-6.93-2.45l-3.22,1.75c-.21.14-1.61,1.05-1.82,1.26-.56.49-.63.49-.56.14a17.52,17.52,0,0,0,.14-2.31V205.25c0-7.77-8.75-7.42-14.56-2.24-1.33,1.19-1,0-.56-.63C650.7,191.32,664.14,196.71,664.14,201.89Zm7.28,29.05c2.1,0,3.57-1.54,3.57-4.13,0-7.35-4.55-8.54-5.67-7.7l-5.18,3.71v.56C664.14,226.81,670.16,230.94,671.42,230.94Z"/><path class="cls-53" d="M702.36,201.89v18.34s6.16-5.53,8.4-5.53c3.15,0,8.2,1.68,8.2,7.63,0,4.55-6,10.78-10.3,10.78a10.58,10.58,0,0,1-6.93-2.45l-3.22,1.75c-.21.14-1.61,1.05-1.82,1.26-.56.49-.63.49-.56.14a17.52,17.52,0,0,0,.14-2.31V214.28c0-7.77-8.75-7.42-14.56-2.24-1.33,1.19-1.05,0-.56-.63,4.41-6.23,10.57-7.21,15.12-6v-.14c0-7.77-8.75-7.42-14.56-2.24-1.33,1.19-1.05,0-.56-.63C688.92,191.32,702.36,196.71,702.36,201.89Zm7.28,29.05c2.1,0,3.57-1.54,3.57-4.13,0-7.35-4.55-8.54-5.67-7.7l-5.18,3.71v.56C702.36,226.81,708.38,230.94,709.64,230.94Z"/><path class="cls-53" d="M740.58,201.89v18.34s6.16-5.53,8.4-5.53c3.15,0,8.19,1.68,8.19,7.63,0,4.55-6,10.78-10.29,10.78a10.58,10.58,0,0,1-6.93-2.45l-3.22,1.75c-.21.14-1.61,1.05-1.82,1.26-.56.49-.63.49-.56.14a17.52,17.52,0,0,0,.14-2.31v-7.91c0-7.77-8.75-7.42-14.56-2.24-1.33,1.19-1,0-.56-.63,4.41-6.23,10.57-7.21,15.12-6v-.42c0-7.77-8.75-7.42-14.56-2.24-1.33,1.19-1,0-.56-.63,4.41-6.23,10.57-7.21,15.12-6v-.14c0-7.77-8.75-7.42-14.56-2.24-1.33,1.19-1,0-.56-.63C727.14,191.32,740.58,196.71,740.58,201.89Zm7.28,29.05c2.1,0,3.57-1.54,3.57-4.13,0-7.35-4.55-8.54-5.67-7.7l-5.18,3.71v.56C740.58,226.81,746.6,230.94,747.86,230.94Z"/><path class="cls-54" d="M300.15,312.86c2.52-2,3.36-4.83.28-6a1.7,1.7,0,0,1-.56-2.94,8.69,8.69,0,0,1,4.55-2.24c1.12,0,4.27,2.45,4.27,4.41,0,2.94-4.9,7.28-8.26,7.7C299.58,313.91,299.38,313.49,300.15,312.86Z"/><path class="cls-55" d="M313.52,305.44c-1.48-2.1,3.36-5,4.9-4.41,2,.7,3.15,2.38,2.66,4.06-.63,2.24-1.33,3.29-3.5,3.71C316.18,309.08,315.2,307.82,313.52,305.44Z"/><path class="cls-56" d="M326,292.84c-1.47-2.1,3.36-5,4.9-4.41,2,.7,3.15,2.38,2.66,4.06-.63,2.24-1.33,3.29-3.5,3.71C328.7,296.48,327.72,295.22,326,292.84Zm4.9,8.19c2,.7,3.15,2.38,2.66,4.06-.63,2.24-1.33,3.29-3.5,3.71-1.4.28-2.38-1-4.06-3.36C324.57,303.34,329.4,300.47,330.94,301Z"/><path class="cls-57" d="M338.57,292.84c-1.47-2.1,3.36-5,4.9-4.41,2,.7,3.15,2.38,2.66,4.06-.63,2.24-1.33,3.29-3.5,3.71C341.23,296.48,340.25,295.22,338.57,292.84Zm.91,14c3.08,1.19,2.24,4-.28,6-.77.63-.56,1.05.28.91,3.36-.42,8.26-4.76,8.26-7.7,0-2-3.15-4.41-4.27-4.41a8.69,8.69,0,0,0-4.55,2.24A1.71,1.71,0,0,0,339.48,306.84Z"/><path class="cls-58" d="M355.3,294.52c-1.47-2.1,3.36-5,4.9-4.41,2,.7,3.15,2.38,2.66,4.06-.63,2.24-1.33,3.29-3.5,3.71C358,298.16,357,296.9,355.3,294.52Z"/><path class="cls-55" d="M368.25,305.44c-1.47-2.1,3.36-5,4.9-4.41,2,.7,3.15,2.38,2.66,4.06-.63,2.24-1.33,3.29-3.5,3.71C370.91,309.08,369.93,307.82,368.25,305.44Zm17.5-4.41c2,.7,3.15,2.38,2.66,4.06-.63,2.24-1.33,3.29-3.5,3.71-1.4.28-2.38-1-4.06-3.36C379.38,303.34,384.21,300.47,385.75,301Zm12.12,0c2,.7,3.15,2.38,2.66,4.06-.63,2.24-1.33,3.29-3.51,3.71-1.4.28-2.38-1-4.06-3.36C391.49,303.34,396.32,300.47,397.87,301Z"/><path class="cls-59" d="M404.16,271c1.12-.28,6.09-1.33,6.93-1.54,1.12-.28,1.54.07,1.4,1.19-.63,4.27-.63,20.23-2.87,27.44-1.47,4.69-2.1,2.31-2.1.14,0-7.77-2.45-23-3.08-25C404.09,272.19,403.46,271.21,404.16,271Zm4.76,37.66c1.61-.28,2.17-1.12,2.59-2.8.42-1.26-.49-2.52-2-3-1.19-.42-4.76,1.75-3.71,3.29C407.1,308,407.87,308.87,408.92,308.66Z"/><path class="cls-60" d="M429.29,268.27c5.74,0,9.17,2.1,9.17,8.33s-7.77,12.46-10.64,21.56c-.35,1.12-1.68,3.78-1.68-.91,0-6.79,8.47-14,5.67-21.91-2.52-7.07-11.9-4.34-10,3.15a1,1,0,0,1-.56,1.26,15.87,15.87,0,0,0-3.5,2.8c-.56.7-1.05,1.33-1.05,0C416.69,269.11,426.14,268.27,429.29,268.27ZM424,306.14c-1.05-1.54,2.52-3.71,3.71-3.29,1.47.49,2.38,1.75,2,3-.42,1.68-1,2.52-2.59,2.8C426.07,308.87,425.3,308,424,306.14Z"/><path class="cls-61" d="M456.8,271.07c-2.87,2.94-3.36,4.69-.28,5.88a1.82,1.82,0,0,1,.56,3.08,8.69,8.69,0,0,1-4.55,2.24c-1.12,0-4.27-2.45-4.27-4.41,0-1.54,5.11-6.23,8.26-7.7C457.36,269.81,457.57,270.3,456.8,271.07Zm2.87,6.79c0-1.54,5.11-6.23,8.26-7.7.84-.35,1.05.14.28.91-2.87,2.94-3.36,4.69-.28,5.88a1.82,1.82,0,0,1,.56,3.08,8.69,8.69,0,0,1-4.55,2.24C462.82,282.27,459.67,279.82,459.67,277.86Z"/><path class="cls-62" d="M472.13,281.36c2.52-2,3.36-5.6.28-6.79-1.61-.63-1.33-1.47-.56-2.17a8.69,8.69,0,0,1,4.55-2.24c1.12,0,4.27,2.45,4.27,4.41,0,2.94-4.9,7.28-8.26,7.7C471.57,282.41,471.36,282,472.13,281.36Zm11.13-9a8.69,8.69,0,0,1,4.55-2.24c1.12,0,4.27,2.45,4.27,4.41,0,2.94-4.9,7.28-8.26,7.7-.84.14-1.05-.28-.28-.91,2.52-2,3.36-5.6.28-6.79C482.21,273.94,482.49,273.1,483.26,272.4Z"/><path class="cls-61" d="M514.62,271.07c-2.87,2.94-3.36,4.69-.28,5.88a1.82,1.82,0,0,1,.56,3.08,8.69,8.69,0,0,1-4.55,2.24c-1.12,0-4.27-2.45-4.27-4.41,0-1.54,5.11-6.23,8.26-7.7C515.18,269.81,515.39,270.3,514.62,271.07Z"/><path class="cls-62" d="M518.54,281.36c2.52-2,3.36-5.6.28-6.79-1.61-.63-1.33-1.47-.56-2.17a8.69,8.69,0,0,1,4.55-2.24c1.12,0,4.27,2.45,4.27,4.41,0,2.94-4.9,7.28-8.26,7.7C518,282.41,517.77,282,518.54,281.36Z"/><path class="cls-63" d="M551.44,271.63c-2.87,2.94-4.69,10.36-4.69,23.94,0,18.2,3.36,21.49,5,23.87,1.33,1.89-.07,1.4-1,.63-6.44-5.46-9.73-12.39-9.73-24.08,0-17.15,6.93-23.8,10.08-25.27C552,270.37,552.21,270.86,551.44,271.63Z"/><path class="cls-64" d="M556.76,319.72c2.87-2.94,4.69-10.36,4.69-23.94,0-18.2-3.36-21.49-5-23.87-1.33-1.89.07-1.4,1-.63,6.44,5.46,9.73,12.39,9.73,24.08,0,17.15-6.93,23.8-10.08,25.27C556.2,321,556,320.49,556.76,319.72Z"/><path class="cls-65" d="M595.54,271.14c2.38-.42,2.66-.35,1.89.21-.49.35-3.15,3-4.13,3.92l-.14.14h-5.81l.28,41.58h.56c.84,0,6.44-.21,7.35-.35,2.38-.42,2.66-.35,1.89.21-.49.35-3.15,3-4.13,3.92l-.14.14H581.54V275.83c0-.56-.63-1-.28-1.12a23.24,23.24,0,0,0,4.2-3.22c.56-.49.77,0,2.38,0h.35C589,271.49,594.63,271.28,595.54,271.14Z"/><path class="cls-66" d="M603.52,320.63c-2.38.42-2.66.35-1.89-.21.49-.35,3.15-3,4.13-3.92l.14-.14h5.81l-.28-41.58h-.56c-.84,0-6.44.21-7.35.35-2.38.42-2.66.35-1.89-.21.49-.35,3.15-3,4.13-3.92l.14-.14h11.62v45.08c0,.56.63,1,.28,1.12a23.24,23.24,0,0,0-4.2,3.22c-.56.49-.77,0-2.38,0h-.35C610,320.28,604.43,320.49,603.52,320.63Z"/><path class="cls-67" d="M651.33,273.59l-20.93,46H626l20.93-46Z"/><path class="cls-67" d="M678.77,319.58h-4.41l-20.93-46h4.41Z"/><path class="cls-68" d="M706.77,291.86c2.38-.42,2.66-.35,1.89.21-.49.35-3.15,3-4.13,3.92l-.14.14H691.16c-.84,0-6.44.21-7.35.35-2.38.42-2.66.35-1.89-.21.49-.35,3.15-3,4.13-3.92l.14-.14h13.23C700.26,292.21,705.86,292,706.77,291.86Z"/><path class="cls-68" d="M745.27,291.86c2.38-.42,2.66-.35,1.89.21-.49.35-3.15,3-4.13,3.92l-.14.14H722.1c-.84,0-6.44.21-7.35.35-2.38.42-2.66.35-1.89-.21.49-.35,3.15-3,4.13-3.92l.14-.14h20.79C738.76,292.21,744.36,292,745.27,291.86Z"/><path class="cls-68" d="M792.87,291.86c2.38-.42,2.66-.35,1.89.21-.49.35-3.15,3-4.13,3.92l-.14.14H760.6c-.84,0-6.44.21-7.35.35-2.38.42-2.66.35-1.89-.21.49-.35,3.15-3,4.13-3.92l.14-.14h29.89C786.36,292.21,792,292,792.87,291.86Z"/><path class="cls-69" d="M800.36,272.75h23v38.92h-23Zm20.16,37.52V274.15H803.16v36.12Zm-8-28.07c2.87,0,5.18,1.05,5.18,4.13s-4.13,6.23-5.6,10.78c-.14.56-1.4,1.89-1.4-.42,0-3.43,4.48-7,3.08-11-1.26-3.5-5.95-2.17-5,1.61,0,.28,0,.49-.28.63a18.9,18.9,0,0,0-2.31,1.4c-.28.35-.56.63-.56,0C805.68,282.62,811,282.2,812.54,282.2ZM810,301.1c-.63-.84,1.33-2,2-1.82a1.44,1.44,0,0,1,1,1.68c-.28.84-.56,1.26-1.4,1.47C811.07,302.5,810.65,302,810,301.1Z"/></svg>