<svg xmlns="http://www.w3.org/2000/svg" xmlns:xlink="http://www.w3.org/1999/xlink" viewBox="0 0 1125 110.6"><defs><style>.a{filter:url(#a);}.b{fill:#fff;}.c{fill:url(#b);}.d{fill:url(#c);}.e{fill:url(#d);}.f{fill:url(#e);}.g{fill:url(#f);}.h{fill:url(#g);}.i{fill:url(#i);}.j{fill:url(#j);}.k{fill:url(#m);}.l{fill:url(#o);}.m{fill:url(#p);}.n{fill:url(#q);}.o{fill:url(#r);}.p{fill:url(#s);}</style><filter id="a" name="AI_Glow_00000098931084555454345100000012269539372359233195_"><feFlood result="0e2c6604-012e-4ee9-9320-56c6578cfca8" flood-color="#f6f6f6"/><feMorphology result="a38f926e-37b2-43b5-ada5-8260bf546902" operator="dilate" radius="1" in="SourceAlpha"/><feGaussianBlur result="7058078c-b35d-40ca-a44f-4dd30c688913" stdDeviation="2" in="a38f926e-37b2-43b5-ada5-8260bf546902"/><feComposite result="77e3cdc4-e17c-4d6d-a54c-b3e94af41aa9" operator="in" in="0e2c6604-012e-4ee9-9320-56c6578cfca8" in2="7058078c-b35d-40ca-a44f-4dd30c688913"/><feComposite result="390d450e-aa65-44c9-9c64-93d3f9c2e342" in="SourceGraphic" in2="77e3cdc4-e17c-4d6d-a54c-b3e94af41aa9"/></filter><linearGradient id="b" x1="273.05" y1="50.7" x2="875.89" y2="50.7" gradientUnits="userSpaceOnUse"><stop offset="0" stop-color="#4c5fbf"/><stop offset="0.3" stop-color="#4889d1"/><stop offset="0.5" stop-color="#47aadd"/><stop offset="1" stop-color="#fe9934"/></linearGradient><linearGradient id="c" x1="273.05" y1="53.98" x2="875.89" y2="53.98" xlink:href="#b"/><linearGradient id="d" x1="273.05" y1="54.5" x2="875.89" y2="54.5" xlink:href="#b"/><linearGradient id="e" x1="273.05" y1="59.71" x2="875.89" y2="59.71" xlink:href="#b"/><linearGradient id="f" x1="273.05" y1="59.16" x2="875.89" y2="59.16" xlink:href="#b"/><linearGradient id="g" x1="273.05" y1="54.43" x2="875.89" y2="54.43" xlink:href="#b"/><linearGradient id="i" x1="273.05" y1="54.06" x2="875.89" y2="54.06" xlink:href="#b"/><linearGradient id="j" x1="273.05" y1="54.15" x2="875.89" y2="54.15" xlink:href="#b"/><linearGradient id="m" x1="273.05" y1="50.34" x2="875.89" y2="50.34" xlink:href="#b"/><linearGradient id="o" x1="273.05" y1="59.39" x2="875.89" y2="59.39" xlink:href="#b"/><linearGradient id="p" x1="273.05" y1="51.28" x2="875.89" y2="51.28" xlink:href="#b"/><linearGradient id="q" x1="273.05" y1="52.74" x2="875.89" y2="52.74" xlink:href="#b"/><linearGradient id="r" x1="273.05" y1="51.4" x2="875.89" y2="51.4" xlink:href="#b"/><linearGradient id="s" x1="273.05" y1="51.54" x2="875.89" y2="51.54" xlink:href="#b"/></defs><g class="a"><path class="b" d="M307.42,64.68c-1.62.66-3,2.58-7,2.58-6.54,0-19.44-4.44-19.44-13.68C281,41.4,302.8,36,307.36,34.44Zm-5.28-1.14V37.92C296,40.44,287.8,46.14,287.8,52.38S295.6,61.86,302.14,63.54Z"/><path class="c" d="M307.36,34.44l.06,30.24c-1.62.66-3,2.58-7,2.58-6.54,0-19.44-4.44-19.44-13.68C281,41.4,302.8,36,307.36,34.44m-5.22,29.1V37.92C296,40.44,287.8,46.14,287.8,52.38s7.8,9.48,14.34,11.16m6-30.15-1,.34-1.82.58c-6.86,2.12-25.08,7.75-25.08,19.27,0,9.61,12.94,14.43,20.19,14.43a10,10,0,0,0,6.06-1.92,8,8,0,0,1,1.24-.72l.47-.19v-.5l-.06-30.24v-1Zm-6.71,29.17c-6.07-1.68-12.84-4.76-12.84-10.18s7.33-10.8,12.84-13.32v23.5Z"/><path class="b" d="M315.16,61.92c-4.5-5.82-1.68-11.76,1.68-15.3,3.54-4,8.1-5.58,13.62-2.58,4.86,2.7,7.38,9.54,2.22,16.32C327,67.86,318.28,66,315.16,61.92Zm3.9-3.66c2.64,3.42,8.7,5,10.8,3,3.54-3.48,1-10.56-2.16-13.08-3.48-2.64-7.5-2.94-9.3-1.08C315.94,49.68,316.84,55.38,319.06,58.26Z"/><path class="d" d="M324.93,42.49A11.55,11.55,0,0,1,330.46,44c4.86,2.7,7.38,9.54,2.22,16.32a12,12,0,0,1-9.6,5.12,10.13,10.13,0,0,1-7.92-3.56c-4.5-5.82-1.68-11.76,1.68-15.3,2.28-2.55,5-4.13,8.09-4.13m2.15,19.67a4,4,0,0,0,2.78-.9c3.54-3.48,1-10.56-2.16-13.08a10.37,10.37,0,0,0-6-2.27,4.43,4.43,0,0,0-3.26,1.19c-2.46,2.58-1.56,8.28.66,11.16a11,11,0,0,0,8,3.9m-2.15-20.42h0c-3.14,0-6.05,1.47-8.65,4.38-1.84,1.93-7.43,8.87-1.72,16.26a10.82,10.82,0,0,0,8.52,3.85,12.72,12.72,0,0,0,10.19-5.42c3.21-4.21,3.28-8,2.78-10.34a10.61,10.61,0,0,0-5.23-7.09,12.37,12.37,0,0,0-5.89-1.64Zm2.15,19.67a10.3,10.3,0,0,1-7.43-3.61c-2.1-2.72-2.84-7.95-.71-10.18a3.7,3.7,0,0,1,2.72-1,9.59,9.59,0,0,1,5.58,2.12,11.18,11.18,0,0,1,3.58,7.47,5.74,5.74,0,0,1-1.49,4.47,3.23,3.23,0,0,1-2.25.69Z"/><path class="b" d="M365.26,55.92c0,6.3-3.78,9.12-7.62,9.12-8.76,0-9.6-7.56-9.6-5v3.12l-3.3,1.8c-.18.12-1.38.9-1.56,1.08-.48.42-.54.42-.48.12a15,15,0,0,0,.12-2V50c0-1.44-.42-2-1.92-2.34a14.42,14.42,0,0,0-2.22-.18c-.54,0-.54-.3-.3-.42a58.27,58.27,0,0,0,7.5-4.14c1.32-.78,2.16,1,2.16,2.46v8c0,4.26,2,6.84,7.2,6.84,2.46,0,5.88-1.14,5.88-6.24,0-4.32-1.56-5.64-4.14-7.08a3.58,3.58,0,0,0-2.4-.3c-.72.18-1,.12-1-.12a3.17,3.17,0,0,1,.54-.66l2.94-2.7h4.14c.72,0,5.52-.18,6.3-.3,2-.36,2.27-.3,1.61.18-.42.3-2.69,2.58-3.53,3.36l-.12.12h-4.86C357.64,46.5,365.26,47.52,365.26,55.92Z"/><path class="e" d="M369.24,42.61c.38,0,.29.13-.09.41s-2.69,2.58-3.53,3.36l-.12.12h-4.86c-3,0,4.62,1,4.62,9.42,0,6.3-3.78,9.12-7.62,9.12-7.49,0-9.19-5.52-9.53-5.52-.06,0-.07.16-.07.54v3.12l-3.3,1.8c-.18.12-1.38.9-1.56,1.08s-.4.33-.46.33-.05-.07,0-.21a15,15,0,0,0,.12-2V50c0-1.44-.42-2-1.92-2.34a14.42,14.42,0,0,0-2.22-.18c-.54,0-.54-.3-.3-.42a58.27,58.27,0,0,0,7.5-4.14,1.23,1.23,0,0,1,.63-.19c.95,0,1.53,1.4,1.53,2.65v8c0,4.26,2,6.84,7.2,6.84,2.46,0,5.88-1.14,5.88-6.24,0-4.32-1.56-5.64-4.14-7.08a3.38,3.38,0,0,0-1.62-.39,3.09,3.09,0,0,0-.78.09,3,3,0,0,1-.66.1c-.24,0-.34-.08-.3-.22a3.17,3.17,0,0,1,.54-.66l2.94-2.7h4.14c.72,0,5.52-.18,6.3-.3a11.33,11.33,0,0,1,1.7-.23m0-.75h0a12.38,12.38,0,0,0-1.83.24c-.69.11-5.43.29-6.17.29H356.8l-.21.2-2.94,2.7a3.65,3.65,0,0,0-.71.88l0,.07,0,.08a.9.9,0,0,0,.16.78,1,1,0,0,0,.87.37,3.82,3.82,0,0,0,.84-.12,2.13,2.13,0,0,1,.6-.07,2.58,2.58,0,0,1,1.24.29C359,48.88,360.37,50,360.37,54c0,4.77-3.22,5.49-5.13,5.49-4.4,0-6.45-1.94-6.45-6.09v-8c0-1.67-.86-3.4-2.28-3.4a2.08,2.08,0,0,0-1,.29c-.68.4-1.32.79-1.93,1.17a39.3,39.3,0,0,1-5.47,2.93h0a1,1,0,0,0-.54,1.07,1.06,1.06,0,0,0,1.18.77,14.65,14.65,0,0,1,2.07.16c1.11.23,1.32.48,1.32,1.61V64.2A16.41,16.41,0,0,1,342,66a1,1,0,0,0,.14.86l.23.28h.38a1.5,1.5,0,0,0,.95-.52h0l0,0c.06-.06.35-.27,1.3-.9l.11-.07,3.27-1.78.4-.22V61.83c1.34,1.71,3.95,4,8.85,4,4.16,0,8.37-3.05,8.37-9.87a10.51,10.51,0,0,0-4-8.67h3.79L366,47l.12-.12,1.34-1.29c.75-.73,1.88-1.83,2.1-2s.8-.58.6-1.19a.88.88,0,0,0-.95-.58Z"/><path class="b" d="M385.36,42.78c5.75,0,9.41,2.52,9.41,5V73.44l-3.29,1.8c-.18.12-1.38.9-1.56,1.08-.48.42-.54.42-.48.12a15,15,0,0,0,.12-2V50.4c0-2.64-2.83-4.5-6.78-4.5-2.58,0-6.48,1.38-10.5,4.5-.6.48-1.32.06-.9-.48A16.16,16.16,0,0,1,385.36,42.78Z"/><path class="f" d="M385.36,42.78c5.75,0,9.41,2.52,9.41,5V73.44l-3.29,1.8c-.18.12-1.38.9-1.56,1.08s-.4.33-.46.33,0-.07,0-.21a15,15,0,0,0,.12-2V50.4c0-2.64-2.83-4.5-6.78-4.5-2.58,0-6.48,1.38-10.5,4.5a.89.89,0,0,1-.56.21c-.38,0-.64-.32-.34-.69a16.16,16.16,0,0,1,14-7.14m0-.75A16.93,16.93,0,0,0,370.9,49.3l-.12.16a1.18,1.18,0,0,0-.17,1.25,1.21,1.21,0,0,0,1.11.65,1.59,1.59,0,0,0,1-.38c4.12-3.19,7.89-4.33,10-4.33,3.49,0,6,1.58,6,3.75V74.46a16.41,16.41,0,0,1-.1,1.79,1,1,0,0,0,.14.86l.22.28h.39a1.5,1.5,0,0,0,1-.52h0l0,0c.06-.06.35-.27,1.3-.9l.11-.07,3.27-1.78.39-.22V47.76c0-2.82-3.8-5.73-10.16-5.73Z"/><path class="b" d="M402.81,47.34a14.2,14.2,0,0,0-2.21-.18c-.54,0-.54-.3-.3-.42a58.27,58.27,0,0,0,7.5-4.14c1.31-.78,2.15,1,2.15,2.46v3.06c2.46-2.64,5.76-5.28,10.14-5.28,3.12,0,5.7,1.2,6.6,2.28a28.53,28.53,0,0,0-3.36,3.3A8.89,8.89,0,0,0,417,46.2c-3,0-4.62,1.8-7,4.2V56c2.95-1.62,7.38-4.56,9.24-4.56,4,0,7.5,2.58,7.5,7,0,4.86-6.06,6.72-9.83,6.72-3.18,0-5.53-1.86-6.91-2.46v.48c0,4.26-8.69,12.06-9.89,12.66-.36.18-.66,0-.3-.36,1.08-1,5-7.68,5-11.52V49.68C404.73,48.24,404.31,47.64,402.81,47.34Zm15.67,15.54c2.39,0,2.93-.18,2.93-2.88,0-3.3-2.82-5.52-4.74-5.52-1.68,0-4.07,2.16-6.18,3.12C412.6,60.12,415.9,62.88,418.48,62.88Z"/><path class="g" d="M408.43,42.41c.95,0,1.52,1.4,1.52,2.65v3.06c2.46-2.64,5.76-5.28,10.14-5.28,3.12,0,5.7,1.2,6.6,2.28a28.53,28.53,0,0,0-3.36,3.3A8.89,8.89,0,0,0,417,46.2c-3,0-4.62,1.8-7,4.2V56c2.95-1.62,7.38-4.56,9.24-4.56,4,0,7.5,2.58,7.5,7,0,4.86-6.06,6.72-9.83,6.72-3.18,0-5.53-1.86-6.91-2.46v.48c0,4.26-8.69,12.06-9.89,12.66a.6.6,0,0,1-.27.07c-.21,0-.3-.17,0-.43,1.08-1,5-7.68,5-11.52V49.68c0-1.44-.42-2-1.92-2.34a14.2,14.2,0,0,0-2.21-.18c-.54,0-.54-.3-.3-.42a58.27,58.27,0,0,0,7.5-4.14,1.23,1.23,0,0,1,.63-.19m10.05,20.47c2.39,0,2.93-.18,2.93-2.88,0-3.3-2.82-5.52-4.74-5.52-1.68,0-4.07,2.16-6.18,3.12,2.11,2.52,5.41,5.28,8,5.28M408.43,41.66h0a2.08,2.08,0,0,0-1,.29l-1.93,1.16A37.8,37.8,0,0,1,400,46.05H400a.93.93,0,0,0-.54,1.07,1.06,1.06,0,0,0,1.18.77,14.77,14.77,0,0,1,2.07.16c1.11.23,1.31.48,1.31,1.61V64c0,3.64-3.83,10.16-4.72,11a1,1,0,0,0-.35,1.18.93.93,0,0,0,.88.56,1.33,1.33,0,0,0,.6-.15c1.18-.59,9.44-7.81,10.25-12.61l.09.05a12.39,12.39,0,0,0,6.13,2c4.09,0,10.58-2,10.58-7.47,0-4.47-3.47-7.71-8.25-7.71-1.62,0-4.53,1.7-7.34,3.35l-1.15.67v-4l.06-.06C413,48.42,414.46,47,417,47a8,8,0,0,1,5.82,2l.67.66.5-.79a29.09,29.09,0,0,1,3.13-3.07l.75-.45-.58-.66c-1-1.27-3.86-2.55-7.18-2.55a13.72,13.72,0,0,0-9.39,4.2V45.06c0-1.67-.85-3.4-2.27-3.4Zm3.26,16.17c.54-.31,1.09-.66,1.63-1,1.24-.79,2.52-1.6,3.35-1.6,1.41,0,4,1.81,4,4.77,0,2.13,0,2.13-2.18,2.13s-4.75-2.06-6.79-4.3Z"/><path class="b" d="M432.1,47.82a14.42,14.42,0,0,0-2.22-.18c-.54,0-.54-.3-.3-.42a58.94,58.94,0,0,0,7.5-4.14c1.32-.78,2.15,1,2.15,2.46V62.76l-3.29,1.8c-.18.12-1.38.9-1.56,1.08-.48.42-.54.42-.48.12a15,15,0,0,0,.12-2V50.16C434,48.72,433.6,48.12,432.1,47.82Z"/><path class="h" d="M437.71,42.89c1,0,1.52,1.4,1.52,2.65V62.76l-3.29,1.8c-.18.12-1.38.9-1.56,1.08s-.4.33-.46.33-.05-.07,0-.21a15,15,0,0,0,.12-2V50.16c0-1.44-.42-2-1.92-2.34a14.42,14.42,0,0,0-2.22-.18c-.54,0-.54-.3-.3-.42a58.94,58.94,0,0,0,7.5-4.14,1.23,1.23,0,0,1,.63-.19m0-.75h0a2.08,2.08,0,0,0-1,.29c-.68.4-1.32.79-1.93,1.17a39.3,39.3,0,0,1-5.47,2.93h-.05a.93.93,0,0,0-.54,1.07,1.06,1.06,0,0,0,1.18.77,14.65,14.65,0,0,1,2.07.16c1.11.23,1.32.48,1.32,1.61V63.78a16.41,16.41,0,0,1-.1,1.79,1,1,0,0,0,.14.86l.22.28h.39a1.5,1.5,0,0,0,.95-.52h0l0,0c.06-.06.35-.27,1.3-.9l.11-.07,3.27-1.78.39-.22V45.54c0-1.67-.85-3.4-2.27-3.4Z"/><path class="b" d="M470.79,55.92c0,6.3-3.78,9.12-7.62,9.12-8.76,0-9.6-7.56-9.6-5v3.12l-3.3,1.8c-.17.12-1.37.9-1.55,1.08-.49.42-.54.42-.49.12a13.17,13.17,0,0,0,.13-2V50c0-1.44-.42-2-1.92-2.34a14.42,14.42,0,0,0-2.22-.18c-.54,0-.54-.3-.3-.42a58.94,58.94,0,0,0,7.5-4.14c1.31-.78,2.15,1,2.15,2.46v8c0,4.26,2,6.84,7.2,6.84,2.46,0,5.88-1.14,5.88-6.24,0-4.32-1.56-5.64-4.14-7.08a3.58,3.58,0,0,0-2.4-.3c-.71.18-1,.12-1-.12a3.56,3.56,0,0,1,.54-.66l2.94-2.7h4.14c.72,0,5.52-.18,6.3-.3,2-.36,2.28-.3,1.62.18-.42.3-2.7,2.58-3.54,3.36l-.12.12h-4.86C463.17,46.5,470.79,47.52,470.79,55.92Z"/><path class="e" d="M474.78,42.61c.37,0,.29.13-.09.41s-2.7,2.58-3.54,3.36l-.12.12h-4.86c-3,0,4.62,1,4.62,9.42,0,6.3-3.78,9.12-7.62,9.12-7.48,0-9.18-5.52-9.52-5.52-.06,0-.08.16-.08.54v3.12l-3.3,1.8c-.17.12-1.37.9-1.55,1.08s-.4.33-.46.33-.05-.07,0-.21a13.17,13.17,0,0,0,.13-2V50c0-1.44-.42-2-1.92-2.34a14.42,14.42,0,0,0-2.22-.18c-.54,0-.54-.3-.3-.42a58.94,58.94,0,0,0,7.5-4.14,1.23,1.23,0,0,1,.63-.19c.95,0,1.52,1.4,1.52,2.65v8c0,4.26,2,6.84,7.2,6.84,2.46,0,5.88-1.14,5.88-6.24,0-4.32-1.56-5.64-4.14-7.08a3.32,3.32,0,0,0-1.61-.39,3.24,3.24,0,0,0-.79.09,2.85,2.85,0,0,1-.65.1c-.25,0-.34-.08-.31-.22a3.56,3.56,0,0,1,.54-.66l2.94-2.7h4.14c.72,0,5.52-.18,6.3-.3a11.57,11.57,0,0,1,1.71-.23m0-.75h0a12.61,12.61,0,0,0-1.84.24c-.68.11-5.42.29-6.17.29h-4.43l-.21.2-2.94,2.7a3.65,3.65,0,0,0-.71.88l0,.07,0,.08a.9.9,0,0,0,.15.78,1.07,1.07,0,0,0,.88.37,3.9,3.9,0,0,0,.84-.12,2.13,2.13,0,0,1,.6-.07,2.58,2.58,0,0,1,1.24.29c2.35,1.31,3.76,2.39,3.76,6.43,0,4.77-3.21,5.49-5.13,5.49-4.4,0-6.45-1.94-6.45-6.09v-8c0-1.67-.85-3.4-2.27-3.4a2.08,2.08,0,0,0-1,.29c-.68.4-1.32.79-1.93,1.17a39.3,39.3,0,0,1-5.47,2.93h-.05A1,1,0,0,0,443,47.5a1.06,1.06,0,0,0,1.18.77,14.77,14.77,0,0,1,2.07.16c1.11.23,1.32.48,1.32,1.61V64.2a16.41,16.41,0,0,1-.1,1.79,1,1,0,0,0,.14.86l.22.28h.39a1.5,1.5,0,0,0,.95-.52h0l0,0c.06-.06.35-.27,1.3-.9l.11-.07,3.27-1.78.39-.22V61.83c1.35,1.71,4,4,8.85,4,4.17,0,8.37-3.05,8.37-9.87a10.5,10.5,0,0,0-4-8.67h3.79l.22-.22.12-.12L473,45.62c.75-.73,1.88-1.83,2.1-2s.8-.58.6-1.19a.88.88,0,0,0-1-.58Z"/><path class="b" d="M477.69,58.44V46.26c0-2,1.56-3.48,5.46-3.48,2.34,0,4.08,1.38,5.76,4,.66-1.26,2.22-4,5.58-4,3.06,0,4.14.9,8.16,7.2,3.66,5.64,6.78,12.42,9,12.42,1.68,0,2.64-1.8,3.24-2.34.36-.36.78,0,.6.36-.54.9-3.06,4.92-5.58,4.92-3.06,0-4.56-1-6.6-4.14-.66,1.26-2,4.14-5.4,4.14-2.64,0-4.74-1.8-6.48-4.26-1.08,1.8-2,4.26-6.53,4.26C480.52,65.34,477.69,62.46,477.69,58.44Zm9.12,3.9A6.87,6.87,0,0,0,491,60.42a58.66,58.66,0,0,1-3.59-6.3c-1.57-2.94-2.71-8.76-4.33-8.76a1.69,1.69,0,0,0-.54.06v12.3C482.49,60.78,483.81,62.34,486.81,62.34Zm5-10.62C494,55.62,498,62.4,500.31,62.4c1,0,1.92-1.2,2.52-1.86-1.2-1.86-2.58-4.32-4.56-7.62-3.06-5.34-4.44-7.14-6.24-7.14-1.14,0-1.86,1.44-2.46,2C490.29,48.9,491,50.22,491.85,51.72Z"/><path class="i" d="M494.49,42.78c3.06,0,4.14.9,8.16,7.2,3.66,5.64,6.78,12.42,9,12.42,1.68,0,2.64-1.8,3.24-2.34a.45.45,0,0,1,.32-.15.33.33,0,0,1,.28.51c-.54.9-3.06,4.92-5.58,4.92-3.06,0-4.56-1-6.6-4.14-.66,1.26-2,4.14-5.4,4.14-2.64,0-4.74-1.8-6.48-4.26-1.08,1.8-2,4.26-6.53,4.26-4.38,0-7.21-2.88-7.21-6.9V46.26c0-2,1.56-3.48,5.46-3.48,2.34,0,4.08,1.38,5.76,4,.66-1.26,2.22-4,5.58-4m-7.68,19.56A6.87,6.87,0,0,0,491,60.42a58.66,58.66,0,0,1-3.59-6.3c-1.57-2.94-2.71-8.76-4.33-8.76a1.69,1.69,0,0,0-.54.06v12.3c0,3.06,1.32,4.62,4.32,4.62m13.5.06c1,0,1.92-1.2,2.52-1.86-1.2-1.86-2.58-4.32-4.56-7.62-3.06-5.34-4.44-7.14-6.24-7.14-1.14,0-1.86,1.44-2.46,2,.72,1.14,1.44,2.46,2.28,4C494,55.62,498,62.4,500.31,62.4M494.49,42a6.58,6.58,0,0,0-5.64,3.31c-1.72-2.28-3.51-3.31-5.7-3.31-5.4,0-6.21,2.65-6.21,4.23V58.44c0,4.5,3.27,7.65,8,7.65,4.17,0,5.64-2,6.62-3.66,2,2.46,4.07,3.66,6.39,3.66a6.31,6.31,0,0,0,5.48-3.47c1.91,2.6,3.62,3.47,6.52,3.47s5.27-3.7,6.23-5.29v0a1.07,1.07,0,0,0,0-1.08,1.06,1.06,0,0,0-.91-.51,1.2,1.2,0,0,0-.85.37,6,6,0,0,0-.53.6c-.56.68-1.25,1.52-2.18,1.52-1.16,0-3.51-4-5.39-7.19-.95-1.62-1.94-3.29-3-4.89-4.13-6.48-5.37-7.54-8.79-7.54Zm-7.68,19.56c-2.5,0-3.57-1.16-3.57-3.87V46.26a17.8,17.8,0,0,1,1.84,4.2,31.25,31.25,0,0,0,1.61,4l.46.86a56.27,56.27,0,0,0,2.8,4.94,5.38,5.38,0,0,1-3.14,1.32Zm3.7-13.74.18-.23c.39-.48.88-1.09,1.34-1.09,1.33,0,2.59,1.52,5.59,6.76.77,1.28,1.44,2.41,2,3.44.83,1.42,1.57,2.67,2.24,3.73-.46.5-1.13,1.19-1.59,1.19-.63,0-2.65-1-7.8-10.29l-.4-.73c-.58-1-1.09-2-1.6-2.78Z"/><path class="b" d="M530.14,42.84c8.15,0,12.23,5.34,12.23,10.68,0,8.28-9.77,11.58-14.64,11.94-.71.06-.59-.42,0-.66,4.75-2,8-4,8.46-8.82h-7.43c-.73,0-5.53.18-6.3.3-2,.36-2.28.3-1.62-.18.42-.3,2.7-2.58,3.54-3.36l.12-.12h11.64c-.73-5.52-4-7.86-7.15-7.86-4.31,0-7.07,2.7-7.07,4.68,0,.48-.12.66-.3.72a11.25,11.25,0,0,0-3.72,1.92c-.3.24-.72.48-.48-.24C518.08,50,521.26,42.84,530.14,42.84Z"/><path class="j" d="M530.14,42.84c8.15,0,12.23,5.34,12.23,10.68,0,8.28-9.77,11.58-14.64,11.94h-.11c-.59,0-.45-.44.11-.66,4.75-2,8-4,8.46-8.82h-7.43c-.73,0-5.53.18-6.3.3a13.21,13.21,0,0,1-1.71.23c-.38,0-.29-.14.09-.41s2.7-2.58,3.54-3.36l.12-.12h11.64c-.73-5.52-4-7.86-7.15-7.86-4.31,0-7.07,2.7-7.07,4.68,0,.48-.12.66-.3.72a11.25,11.25,0,0,0-3.72,1.92,1,1,0,0,1-.45.24c-.11,0-.15-.12,0-.48.66-1.8,3.84-9,12.72-9m0-.75a14,14,0,0,0-13.43,9.49,1.22,1.22,0,0,0,0,1.14.84.84,0,0,0,.69.35,1.48,1.48,0,0,0,.91-.41,10.64,10.64,0,0,1,3.5-1.79c.53-.18.81-.66.81-1.43,0-1.6,2.46-3.93,6.32-3.93,2.5,0,5.37,1.69,6.27,6.36H524.18l-.21.22-.12.12c-.3.27-.81.76-1.35,1.29-.75.73-1.88,1.83-2.1,2s-.8.58-.6,1.19a.89.89,0,0,0,1,.58,12.61,12.61,0,0,0,1.84-.24c.68-.11,5.42-.29,6.17-.29h6.58c-.62,3.61-3.22,5.36-7.9,7.38a1.25,1.25,0,0,0-.93,1.32,1,1,0,0,0,1.11.78h.18c5.92-.44,15.32-4.28,15.32-12.69,0-5.51-4.06-11.43-13-11.43Z"/><path class="b" d="M572.13,55.92c0,6.3-3.78,9.12-7.62,9.12-8.76,0-9.6-7.56-9.6-5v3.12l-3.3,1.8c-.18.12-1.38.9-1.56,1.08-.48.42-.54.42-.48.12a15,15,0,0,0,.12-2V50c0-1.44-.42-2-1.92-2.34a14.42,14.42,0,0,0-2.22-.18c-.54,0-.54-.3-.3-.42a58.27,58.27,0,0,0,7.5-4.14c1.32-.78,2.16,1,2.16,2.46v8c0,4.26,2,6.84,7.2,6.84,2.46,0,5.88-1.14,5.88-6.24,0-4.32-1.56-5.64-4.14-7.08a3.58,3.58,0,0,0-2.4-.3c-.72.18-1,.12-1-.12a3.17,3.17,0,0,1,.54-.66l2.94-2.7h4.14c.72,0,5.52-.18,6.3-.3,2-.36,2.28-.3,1.62.18-.42.3-2.7,2.58-3.54,3.36l-.12.12h-4.86C564.51,46.5,572.13,47.52,572.13,55.92Z"/><path class="e" d="M576.11,42.61c.38,0,.3.13-.08.41s-2.7,2.58-3.54,3.36l-.12.12h-4.86c-3,0,4.62,1,4.62,9.42,0,6.3-3.78,9.12-7.62,9.12-7.48,0-9.18-5.52-9.52-5.52-.06,0-.08.16-.08.54v3.12l-3.3,1.8c-.18.12-1.38.9-1.56,1.08s-.39.33-.45.33-.05-.07,0-.21a15,15,0,0,0,.12-2V50c0-1.44-.42-2-1.92-2.34a14.42,14.42,0,0,0-2.22-.18c-.54,0-.54-.3-.3-.42a58.27,58.27,0,0,0,7.5-4.14,1.29,1.29,0,0,1,.64-.19c1,0,1.52,1.4,1.52,2.65v8c0,4.26,2,6.84,7.2,6.84,2.46,0,5.88-1.14,5.88-6.24,0-4.32-1.56-5.64-4.14-7.08a3.32,3.32,0,0,0-1.61-.39,3.24,3.24,0,0,0-.79.09,2.85,2.85,0,0,1-.66.1c-.24,0-.33-.08-.3-.22a3.17,3.17,0,0,1,.54-.66l2.94-2.7h4.14c.72,0,5.52-.18,6.3-.3a11.66,11.66,0,0,1,1.7-.23m0-.75h0a12.71,12.71,0,0,0-1.83.24c-.68.11-5.42.29-6.17.29h-4.43l-.21.2-2.94,2.7a3.65,3.65,0,0,0-.71.88l0,.07,0,.08a.9.9,0,0,0,.15.78,1,1,0,0,0,.87.37,3.9,3.9,0,0,0,.85-.12,2.06,2.06,0,0,1,.6-.07,2.58,2.58,0,0,1,1.24.29c2.34,1.31,3.76,2.39,3.76,6.43,0,4.77-3.21,5.49-5.13,5.49-4.4,0-6.45-1.94-6.45-6.09v-8c0-1.67-.85-3.4-2.27-3.4a2.08,2.08,0,0,0-1,.29c-.68.4-1.32.79-1.93,1.17A39.3,39.3,0,0,1,545,46.41h-.05a1,1,0,0,0-.55,1.07,1.08,1.08,0,0,0,1.18.77,14.91,14.91,0,0,1,2.08.16c1.1.23,1.31.48,1.31,1.61V64.2a17,17,0,0,1-.09,1.79,1,1,0,0,0,.14.86l.22.28h.39a1.5,1.5,0,0,0,.95-.52h0v0c.07-.06.36-.27,1.31-.9l.11-.07,3.27-1.78.39-.22V61.83c1.35,1.71,4,4,8.85,4,4.17,0,8.37-3.05,8.37-9.87a10.5,10.5,0,0,0-4-8.67h3.79l.22-.22.12-.12,1.35-1.3c.74-.73,1.87-1.83,2.09-2s.8-.58.6-1.19a.89.89,0,0,0-1-.58Z"/><path class="b" d="M592.23,42.78c5.76,0,9.42,2.52,9.42,5V73.44l-3.3,1.8c-.18.12-1.38.9-1.56,1.08-.48.42-.54.42-.48.12a15,15,0,0,0,.12-2V50.4c0-2.64-2.82-4.5-6.78-4.5-2.58,0-6.48,1.38-10.5,4.5-.6.48-1.32.06-.9-.48A16.16,16.16,0,0,1,592.23,42.78Z"/><path class="f" d="M592.23,42.78c5.76,0,9.42,2.52,9.42,5V73.44l-3.3,1.8c-.18.12-1.38.9-1.56,1.08s-.39.33-.45.33-.05-.07,0-.21a15,15,0,0,0,.12-2V50.4c0-2.64-2.82-4.5-6.78-4.5-2.58,0-6.48,1.38-10.5,4.5a.87.87,0,0,1-.55.21c-.38,0-.64-.32-.35-.69a16.16,16.16,0,0,1,14-7.14m0-.75a16.89,16.89,0,0,0-14.45,7.27l-.12.16a1.16,1.16,0,0,0-.17,1.25,1.2,1.2,0,0,0,1.11.65,1.59,1.59,0,0,0,1-.38c4.12-3.19,7.88-4.33,10-4.33,3.5,0,6,1.58,6,3.75V74.46a17,17,0,0,1-.09,1.79,1,1,0,0,0,.14.86l.22.28h.39a1.5,1.5,0,0,0,.95-.52h0v0c.07-.06.35-.27,1.31-.9l.11-.07L602,74.1l.39-.22V47.76c0-2.82-3.8-5.73-10.17-5.73Z"/><path class="b" d="M644,33.9c4.62,0,9.48,4,9.48,8.94,0,7.74-7.62,14.22-18.12,14.22V38.16a5.22,5.22,0,0,0-.66.54c-2.88,2.64-6.84,8.16-6.84,13.8,0,4.56,2.28,10.32,8.88,10.32,4,0,7.92-1.32,12.42-5.34,1-.9,1.38-1.74,1.56-1.74s.54.48-.42,1.56c-1.74,2-10.08,9.48-18.06,9.48-4.8,0-10.2-2.1-10.2-9.66C622.05,45.54,634.05,33.9,644,33.9Zm3.6,10.2c0-4.2-2.46-8.22-6.3-8.22h-.72V55C645.45,53.52,647.61,49.2,647.61,44.1Z"/><path class="k" d="M644,33.9c4.62,0,9.48,4,9.48,8.94,0,7.74-7.62,14.22-18.12,14.22V38.16a5.22,5.22,0,0,0-.66.54c-2.88,2.64-6.84,8.16-6.84,13.8,0,4.56,2.28,10.32,8.88,10.32,4,0,7.92-1.32,12.42-5.34,1-.9,1.38-1.74,1.56-1.74s.54.48-.42,1.56c-1.74,2-10.08,9.48-18.06,9.48-4.8,0-10.2-2.1-10.2-9.66,0-11.58,12-23.22,22-23.22M640.59,55c4.86-1.44,7-5.76,7-10.86,0-4.2-2.46-8.22-6.3-8.22h-.72V55M644,33.15c-9.91,0-22.71,11.62-22.71,24,0,6.52,4.1,10.41,11,10.41,8.49,0,17-7.81,18.63-9.75,1-1.06.93-1.78.74-2.2a1,1,0,0,0-.89-.59c-.45,0-.68.32-1,.68a8,8,0,0,1-1.1,1.25c-4,3.56-7.67,5.15-11.93,5.15-6,0-8.13-5.16-8.13-9.57,0-5.25,3.53-10.18,6-12.67v18h.75c10.58,0,18.87-6.58,18.87-15,0-5.55-5.4-9.69-10.23-9.69ZM641.34,53.9V36.63c3.46,0,5.52,3.81,5.52,7.47,0,2.88-.74,7.83-5.52,9.8Z"/><path class="b" d="M659.73,47.34a14.42,14.42,0,0,0-2.22-.18c-.54,0-.54-.3-.3-.42a58.27,58.27,0,0,0,7.5-4.14c1.32-.78,2.16,1,2.16,2.46v3.06c2.46-2.64,5.76-5.28,10.14-5.28,3.12,0,5.7,1.2,6.6,2.28a28.53,28.53,0,0,0-3.36,3.3,8.92,8.92,0,0,0-6.36-2.22c-2.94,0-4.62,1.8-7,4.2V56c2.94-1.62,7.38-4.56,9.24-4.56,4,0,7.5,2.58,7.5,7,0,4.86-6.06,6.72-9.84,6.72-3.18,0-5.52-1.86-6.9-2.46v.48c0,4.26-8.7,12.06-9.9,12.66-.36.18-.66,0-.3-.36,1.08-1,5-7.68,5-11.52V49.68C661.65,48.24,661.23,47.64,659.73,47.34Zm15.66,15.54c2.4,0,2.94-.18,2.94-2.88,0-3.3-2.82-5.52-4.74-5.52-1.68,0-4.08,2.16-6.18,3.12C669.51,60.12,672.81,62.88,675.39,62.88Z"/><path class="g" d="M665.35,42.41c.95,0,1.52,1.4,1.52,2.65v3.06c2.46-2.64,5.76-5.28,10.14-5.28,3.12,0,5.7,1.2,6.6,2.28a28.53,28.53,0,0,0-3.36,3.3,8.92,8.92,0,0,0-6.36-2.22c-2.94,0-4.62,1.8-7,4.2V56c2.94-1.62,7.38-4.56,9.24-4.56,4,0,7.5,2.58,7.5,7,0,4.86-6.06,6.72-9.84,6.72-3.18,0-5.52-1.86-6.9-2.46v.48c0,4.26-8.7,12.06-9.9,12.66a.56.56,0,0,1-.26.07c-.21,0-.3-.17,0-.43,1.08-1,5-7.68,5-11.52V49.68c0-1.44-.42-2-1.92-2.34a14.42,14.42,0,0,0-2.22-.18c-.54,0-.54-.3-.3-.42a58.27,58.27,0,0,0,7.5-4.14,1.29,1.29,0,0,1,.64-.19m10,20.47c2.4,0,2.94-.18,2.94-2.88,0-3.3-2.82-5.52-4.74-5.52-1.68,0-4.08,2.16-6.18,3.12,2.1,2.52,5.4,5.28,8,5.28m-10-21.22h0a2.08,2.08,0,0,0-1,.29l-1.93,1.16a38.33,38.33,0,0,1-5.47,2.94h0a1,1,0,0,0-.55,1.07,1.08,1.08,0,0,0,1.18.77,14.91,14.91,0,0,1,2.08.16c1.1.23,1.31.48,1.31,1.61V64c0,3.64-3.83,10.16-4.72,11a1,1,0,0,0-.35,1.18.93.93,0,0,0,.88.56,1.33,1.33,0,0,0,.6-.15c1.18-.59,9.44-7.81,10.25-12.61l.09.05a12.38,12.38,0,0,0,6.12,2c4.1,0,10.59-2,10.59-7.47,0-4.47-3.47-7.71-8.25-7.71-1.62,0-4.53,1.7-7.34,3.35l-1.15.67v-4l.06-.06c2.22-2.23,3.7-3.7,6.21-3.7a8,8,0,0,1,5.83,2l.66.66.51-.79A29.09,29.09,0,0,1,684,45.75l.75-.45-.58-.66c-1.06-1.27-3.86-2.55-7.18-2.55a13.7,13.7,0,0,0-9.39,4.2V45.06c0-1.67-.85-3.4-2.27-3.4Zm3.26,16.17c.54-.31,1.09-.66,1.62-1,1.24-.79,2.53-1.6,3.36-1.6,1.41,0,4,1.81,4,4.77,0,2.13,0,2.13-2.19,2.13s-4.74-2.06-6.78-4.3Z"/><path class="b" d="M689.31,47.46a14.42,14.42,0,0,0-2.22-.18c-.54,0-.54-.3-.3-.42a58.27,58.27,0,0,0,7.5-4.14c1.32-.78,2.16,1,2.16,2.46V63.66c6.6-5.88,14.34-11.22,12.48-15.24-.84-1.8-2.34-3.06-3.84-3.06s-2.94,1.56-3.84,1.86c-.48.18-.72-.36-.54-.54a29,29,0,0,1,7-4.32c1.38-.6,4.62.3,6.6,3.9,4.14,7.56-19.14,14.34-19.14,26,0,.36-.18.36-.48.48a17,17,0,0,0-6.42,3.78c-.3.24-.3,0-.3-.42,0-2.4,1.32-4.86,3.3-7.2V49.8C691.23,48.36,690.81,47.76,689.31,47.46Z"/><path class="l" d="M708.62,42.19c1.59,0,4,1.14,5.65,4.07,4.14,7.56-19.14,14.34-19.14,26,0,.36-.18.36-.48.48a17,17,0,0,0-6.42,3.78.36.36,0,0,1-.18.09c-.12,0-.12-.21-.12-.51,0-2.4,1.32-4.86,3.3-7.2V49.8c0-1.44-.42-2-1.92-2.34a14.42,14.42,0,0,0-2.22-.18c-.54,0-.54-.3-.3-.42a58.27,58.27,0,0,0,7.5-4.14,1.29,1.29,0,0,1,.64-.19c1,0,1.52,1.41,1.52,2.65V63.66c6.6-5.88,14.34-11.22,12.48-15.24-.84-1.8-2.34-3.06-3.84-3.06s-2.94,1.56-3.84,1.86a.62.62,0,0,1-.18,0c-.36,0-.51-.42-.36-.57a29,29,0,0,1,7-4.32,2.44,2.44,0,0,1,1-.17m0-.75a3.24,3.24,0,0,0-1.25.23,29.59,29.59,0,0,0-7.14,4.43l0,0,0,0a1,1,0,0,0-.19,1.13,1.16,1.16,0,0,0,1.08.72,1.19,1.19,0,0,0,.45-.08,6.51,6.51,0,0,0,1.35-.77,5.11,5.11,0,0,1,2.22-1c1.16,0,2.43,1,3.16,2.63,1.29,2.77-3.54,6.87-8.65,11.21l-2.4,2V45.18c0-1.67-.85-3.4-2.27-3.4a2.08,2.08,0,0,0-1,.29L692,43.23a38.33,38.33,0,0,1-5.47,2.94h0a1,1,0,0,0-.55,1.07,1.08,1.08,0,0,0,1.18.77,14.91,14.91,0,0,1,2.08.16c1.1.23,1.31.48,1.31,1.61V68.61c-2.19,2.64-3.3,5.16-3.3,7.47a2.53,2.53,0,0,0,0,.49.85.85,0,0,0,.84.77,1.05,1.05,0,0,0,.65-.26l0,0,0,0a16,16,0,0,1,6.15-3.61l.12,0a1.12,1.12,0,0,0,.85-1.14c0-5.57,5.92-10.14,11.15-14.17s10.24-7.9,7.9-12.17c-1.81-3.29-4.53-4.46-6.31-4.46Z"/><path class="b" d="M755.43,57.6c0-4.92-1.86-7.92-5.28-7.92-2.64,0-7.8,3.36-10.26,4.92V64.68l-3.3,1.8c-.18.12-1.38.9-1.56,1.08-.48.42-.54.42-.48.12a15,15,0,0,0,.12-2V43c0-3.42,6.84-8.34,13.44-8.34a25.51,25.51,0,0,1,13.14,4.2c1.14.78.54.84.24,1.08a20.11,20.11,0,0,0-3.54,3.6c-.48.66-.6.84-1,.24-1.68-2.34-6.06-6.18-10.44-6.18s-6.6,1.68-6.6,5.1v9.36c2.7-1,8.1-5.4,11.22-5.4,5.64,0,10.68,3.78,10.68,9.24,0,6.84-8.76,10.56-13.14,11.88-.84.24-1-.06-.6-.3C750.57,66.12,755.43,63.36,755.43,57.6Z"/><path class="m" d="M748.11,34.68a25.51,25.51,0,0,1,13.14,4.2c1.14.78.54.84.24,1.08a20.11,20.11,0,0,0-3.54,3.6c-.28.38-.43.6-.6.6s-.24-.11-.42-.36c-1.68-2.34-6.06-6.18-10.44-6.18s-6.6,1.68-6.6,5.1v9.36c2.7-1,8.1-5.4,11.22-5.4,5.64,0,10.68,3.78,10.68,9.24,0,6.84-8.76,10.56-13.14,11.88a2.09,2.09,0,0,1-.52.09c-.37,0-.39-.21-.08-.39,2.52-1.38,7.38-4.14,7.38-9.9,0-4.92-1.86-7.92-5.28-7.92-2.64,0-7.8,3.36-10.26,4.92V64.68l-3.3,1.8c-.18.12-1.38.9-1.56,1.08s-.39.33-.46.33,0-.07,0-.21a15,15,0,0,0,.12-2V43c0-3.42,6.84-8.34,13.44-8.34m0-.75c-7,0-14.19,5.29-14.19,9.09V65.7a17.18,17.18,0,0,1-.09,1.79,1,1,0,0,0,.14.86l.22.28h.38c.35,0,.59-.2,1-.52a13.87,13.87,0,0,1,1.36-.94l.09-.06,3.27-1.78.39-.22V55h0c2.34-1.49,7.2-4.58,9.5-4.58,4.09,0,4.53,5,4.53,7.17,0,5.41-4.72,8-7,9.24a1,1,0,0,0-.58,1.12,1,1,0,0,0,1,.68,2.64,2.64,0,0,0,.73-.12c3.22-1,13.68-4.74,13.68-12.6,0-5.6-5-10-11.43-10-2.19,0-5.18,1.82-7.82,3.43-.95.58-1.87,1.14-2.65,1.55V42.72c0-2.93,1.92-4.35,5.85-4.35s8.08,3.43,9.83,5.87a1.33,1.33,0,0,0,1,.67c.54,0,.84-.41,1.19-.89a19.48,19.48,0,0,1,3.39-3.45l.12-.08a1.1,1.1,0,0,0,.62-.89c0-.6-.5-1-1-1.34a26.39,26.39,0,0,0-13.57-4.33Z"/><path class="b" d="M788.37,34.2a16.7,16.7,0,0,1,12.24,5.58c.24.24.06.36-.12.48a15.76,15.76,0,0,0-4,4c-.24.36-.42.48-.6.06-1.14-2.52-4.56-7.44-10.26-7.44-2.82,0-6.54,1.74-6.54,5.64V62.88c0,7.2-10.14,8.4-13.8,8.4-1,0-.78-.42-.3-.54,3.66-1,8.88-4.68,8.88-7.86V42.6C773.91,37,779.73,34.2,788.37,34.2Zm-14.46,27h0Z"/><path class="n" d="M788.37,34.2a16.7,16.7,0,0,1,12.24,5.58c.24.24.06.36-.12.48a15.76,15.76,0,0,0-4,4c-.13.2-.25.33-.35.33s-.17-.08-.25-.27c-1.14-2.52-4.56-7.44-10.26-7.44-2.82,0-6.54,1.74-6.54,5.64V62.88c0,7.2-10.14,8.4-13.8,8.4-1,0-.78-.42-.3-.54,3.66-1,8.88-4.68,8.88-7.86V42.6c0-5.64,5.82-8.4,14.46-8.4m-14.46,27h0m14.46-27.75c-9.66,0-15.21,3.33-15.21,9.15V62.88c0,2.59-4.58,6.09-8.33,7.14a1.08,1.08,0,0,0-1,1.13c0,.4.34.88,1.45.88,5.41,0,14.55-1.93,14.55-9.15V42.54c0-3.56,3.55-4.89,5.79-4.89,6.23,0,9.25,6.28,9.58,7a1,1,0,0,0,.93.71,1.24,1.24,0,0,0,1-.67,15,15,0,0,1,3.7-3.78h0l0,0a1.07,1.07,0,0,0,.56-.8,1,1,0,0,0-.33-.83,17.23,17.23,0,0,0-12.77-5.8Z"/><path class="b" d="M817.11,34.92c6.24,0,11,2.16,11,4.62V64.68l-3.3,1.8c-.18.12-1.38.9-1.56,1.08-.48.42-.54.42-.48.12a15,15,0,0,0,.12-2V43.2c0-3.66-4.92-5.16-8-5.16s-7.56,1.44-11.46,4.5c-.54.42-1.08,0-.72-.54C804,40,808.17,34.92,817.11,34.92Z"/><path class="o" d="M817.11,34.92c6.24,0,11,2.16,11,4.62V64.68l-3.3,1.8c-.18.12-1.38.9-1.56,1.08s-.4.33-.46.33,0-.07,0-.21a15,15,0,0,0,.12-2V43.2c0-3.66-4.92-5.16-8-5.16s-7.56,1.44-11.46,4.5a.7.7,0,0,1-.44.17c-.33,0-.54-.32-.28-.71,1.38-2,5.52-7.08,14.46-7.08m0-.75c-8.76,0-13.21,4.64-15.08,7.41a1.24,1.24,0,0,0-.11,1.29,1.14,1.14,0,0,0,1,.59,1.43,1.43,0,0,0,.9-.33,19,19,0,0,1,11-4.34c2.94,0,7.29,1.4,7.29,4.41V65.7c0,.6-.06,1.6-.09,1.79a.94.94,0,0,0,.14.86l.22.28h.38a1.54,1.54,0,0,0,1-.52,12.39,12.39,0,0,1,1.34-.92l.11-.08,3.27-1.78.39-.22V39.54c0-3-5.15-5.37-11.73-5.37Z"/><path class="b" d="M852,40.32V56s5.28-4.74,7.2-4.74c2.7,0,7,1.44,7,6.54,0,3.9-5.16,9.24-8.82,9.24a9.07,9.07,0,0,1-5.94-2.1l-2.76,1.5c-.18.12-1.38.9-1.56,1.08-.48.42-.54.42-.48.12a15,15,0,0,0,.12-2V43.2c0-6.66-7.5-6.36-12.48-1.92-1.14,1-.9,0-.48-.54C840.51,31.26,852,35.88,852,40.32Zm6.24,24.9c1.8,0,3.06-1.32,3.06-3.54,0-6.3-3.9-7.32-4.86-6.6L852,58.26v.48C852,61.68,857.19,65.22,858.27,65.22Z"/><path class="p" d="M843.83,35.2c4.45,0,8.2,2.59,8.2,5.12V56s5.28-4.74,7.2-4.74c2.7,0,7,1.44,7,6.54,0,3.9-5.16,9.24-8.82,9.24a9.07,9.07,0,0,1-5.94-2.1l-2.76,1.5c-.18.12-1.38.9-1.56,1.08s-.4.33-.46.33-.05-.07,0-.21a15,15,0,0,0,.12-2V43.2c0-3.58-2.16-5.15-4.93-5.15a12,12,0,0,0-7.55,3.23c-.35.31-.57.43-.69.43-.28,0-.08-.6.21-1a12,12,0,0,1,10-5.54m14.44,30c1.8,0,3.06-1.32,3.06-3.54,0-5.2-2.65-6.8-4.12-6.8a1.23,1.23,0,0,0-.74.2L852,58.26v.48c0,2.94,5.16,6.48,6.24,6.48M843.83,34.45h0a12.81,12.81,0,0,0-10.59,5.86c-.06.07-.73,1-.39,1.67a.87.87,0,0,0,.79.48,1.87,1.87,0,0,0,1.19-.62,11.36,11.36,0,0,1,7-3c1.56,0,4.18.58,4.18,4.4V65.7c0,.61-.06,1.6-.09,1.79a.91.91,0,0,0,.14.86l.22.28h.38a1.5,1.5,0,0,0,.95-.52h0l0,0c.07-.06.35-.27,1.31-.9l.11-.07,2.29-1.24a10,10,0,0,0,6,2c4.12,0,9.57-5.7,9.57-10,0-5.76-4.88-7.29-7.77-7.29-1.59,0-4.65,2.35-6.45,3.85V40.32c0-3.07-4.27-5.87-8.95-5.87Zm8.95,24.19,4.13-3a.6.6,0,0,1,.3-.06c1.3,0,3.37,1.64,3.37,6,0,1.74-.86,2.78-2.3,2.79-.92-.11-5.5-3.29-5.5-5.73v-.1Z"/><path d="M307.41,64.7c-1.62.66-3,2.58-7,2.58-6.54,0-19.44-4.44-19.44-13.68,0-12.18,21.84-17.58,26.4-19.14Zm-5.28-1.14V37.94c-6.12,2.52-14.34,8.22-14.34,14.46S295.59,61.88,302.13,63.56Z"/><path d="M315.15,61.94c-4.5-5.82-1.68-11.76,1.68-15.3,3.54-4,8.1-5.58,13.62-2.58,4.86,2.7,7.38,9.54,2.22,16.32C327,67.88,318.27,66,315.15,61.94Zm3.9-3.66c2.64,3.42,8.7,5,10.8,3,3.54-3.48,1-10.56-2.16-13.08-3.48-2.64-7.5-2.94-9.3-1.08C315.93,49.7,316.83,55.4,319.05,58.28Z"/><path d="M364.65,55.94c0,6.3-3.78,9.12-7.62,9.12-8.76,0-9.6-7.56-9.6-5V63.2l-3.3,1.8c-.18.12-1.38.9-1.56,1.08-.48.42-.54.42-.48.12a15,15,0,0,0,.12-2V50.06c0-1.44-.42-2-1.92-2.34a14.42,14.42,0,0,0-2.22-.18c-.54,0-.54-.3-.3-.42a58.27,58.27,0,0,0,7.5-4.14c1.32-.78,2.16,1,2.16,2.46v8c0,4.26,2,6.84,7.2,6.84,2.46,0,5.88-1.14,5.88-6.24,0-4.32-1.56-5.64-4.14-7.08a3.58,3.58,0,0,0-2.4-.3c-.72.18-1,.12-1-.12a3.17,3.17,0,0,1,.54-.66l2.94-2.7h4.14c.72,0,5.52-.18,6.3-.3,2-.36,2.28-.3,1.62.18-.42.3-2.7,2.58-3.54,3.36l-.12.12H360C357,46.52,364.65,47.54,364.65,55.94Z"/><path d="M383,42.8c5.76,0,9.42,2.52,9.42,5V73.46l-3.3,1.8c-.18.12-1.38.9-1.56,1.08-.48.42-.54.42-.48.12a15,15,0,0,0,.12-2V50.42c0-2.64-2.82-4.5-6.78-4.5-2.58,0-6.48,1.38-10.5,4.5-.6.48-1.32.06-.9-.48A16.16,16.16,0,0,1,383,42.8Z"/><path d="M399.21,47.36a14.42,14.42,0,0,0-2.22-.18c-.54,0-.54-.3-.3-.42a58.27,58.27,0,0,0,7.5-4.14c1.32-.78,2.16,1,2.16,2.46v3.06c2.46-2.64,5.76-5.28,10.14-5.28,3.12,0,5.7,1.2,6.6,2.28a28.53,28.53,0,0,0-3.36,3.3,8.92,8.92,0,0,0-6.36-2.22c-2.94,0-4.62,1.8-7,4.2v5.64c2.94-1.62,7.38-4.56,9.24-4.56,4,0,7.5,2.58,7.5,7,0,4.86-6.06,6.72-9.84,6.72-3.18,0-5.52-1.86-6.9-2.46v.48c0,4.26-8.7,12.06-9.9,12.66-.36.18-.66,0-.3-.36,1.08-1,5-7.68,5-11.52V49.7C401.13,48.26,400.71,47.66,399.21,47.36ZM414.87,62.9c2.4,0,2.94-.18,2.94-2.88,0-3.3-2.82-5.52-4.74-5.52-1.68,0-4.08,2.16-6.18,3.12C409,60.14,412.29,62.9,414.87,62.9Z"/><path d="M427.89,47.84a14.42,14.42,0,0,0-2.22-.18c-.54,0-.54-.3-.3-.42a58.27,58.27,0,0,0,7.5-4.14c1.32-.78,2.16,1,2.16,2.46V62.78l-3.3,1.8c-.18.12-1.38.9-1.56,1.08-.48.42-.54.42-.48.12a15,15,0,0,0,.12-2V50.18C429.81,48.74,429.39,48.14,427.89,47.84Z"/><path d="M466.59,55.94c0,6.3-3.78,9.12-7.62,9.12-8.76,0-9.6-7.56-9.6-5V63.2l-3.3,1.8c-.18.12-1.38.9-1.56,1.08-.48.42-.54.42-.48.12a15,15,0,0,0,.12-2V50.06c0-1.44-.42-2-1.92-2.34a14.42,14.42,0,0,0-2.22-.18c-.54,0-.54-.3-.3-.42a58.27,58.27,0,0,0,7.5-4.14c1.32-.78,2.16,1,2.16,2.46v8c0,4.26,2,6.84,7.2,6.84,2.46,0,5.88-1.14,5.88-6.24,0-4.32-1.56-5.64-4.14-7.08a3.58,3.58,0,0,0-2.4-.3c-.72.18-1,.12-1-.12a3.17,3.17,0,0,1,.54-.66l2.94-2.7h4.14c.72,0,5.52-.18,6.3-.3,2-.36,2.28-.3,1.62.18-.42.3-2.7,2.58-3.54,3.36l-.12.12H462C459,46.52,466.59,47.54,466.59,55.94Z"/><path d="M471.69,58.46V46.28c0-2,1.56-3.48,5.46-3.48,2.34,0,4.08,1.38,5.76,4,.66-1.26,2.22-4,5.58-4,3.06,0,4.14.9,8.16,7.2,3.66,5.64,6.78,12.42,9,12.42,1.68,0,2.64-1.8,3.24-2.34.36-.36.78,0,.6.36-.54.9-3.06,4.92-5.58,4.92-3.06,0-4.56-1-6.6-4.14-.66,1.26-2,4.14-5.4,4.14-2.64,0-4.74-1.8-6.48-4.26-1.08,1.8-2,4.26-6.54,4.26C474.51,65.36,471.69,62.48,471.69,58.46Zm9.12,3.9A6.87,6.87,0,0,0,485,60.44a60.52,60.52,0,0,1-3.6-6.3c-1.56-2.94-2.7-8.76-4.32-8.76a1.66,1.66,0,0,0-.54.06v12.3C476.49,60.8,477.81,62.36,480.81,62.36Zm5-10.62c2.16,3.9,6.12,10.68,8.46,10.68,1,0,1.92-1.2,2.52-1.86-1.2-1.86-2.58-4.32-4.56-7.62-3.06-5.34-4.44-7.14-6.24-7.14-1.14,0-1.86,1.44-2.46,2C484.29,48.92,485,50.24,485.85,51.74Z"/><path d="M518.13,42.86c8.16,0,12.24,5.34,12.24,10.68,0,8.28-9.78,11.58-14.64,11.94-.72.06-.6-.42,0-.66,4.74-2,8-4,8.46-8.82h-7.44c-.72,0-5.52.18-6.3.3-2,.36-2.28.3-1.62-.18.42-.3,2.7-2.58,3.54-3.36l.12-.12h11.64c-.72-5.52-4-7.86-7.14-7.86-4.32,0-7.08,2.7-7.08,4.68,0,.48-.12.66-.3.72a11.25,11.25,0,0,0-3.72,1.92c-.3.24-.72.48-.48-.24C506.07,50.06,509.25,42.86,518.13,42.86Z"/><path d="M559.53,55.94c0,6.3-3.78,9.12-7.62,9.12-8.76,0-9.6-7.56-9.6-5V63.2L539,65c-.18.12-1.38.9-1.56,1.08-.48.42-.54.42-.48.12a15,15,0,0,0,.12-2V50.06c0-1.44-.42-2-1.92-2.34a14.42,14.42,0,0,0-2.22-.18c-.54,0-.54-.3-.3-.42a58.27,58.27,0,0,0,7.5-4.14c1.32-.78,2.16,1,2.16,2.46v8c0,4.26,2,6.84,7.2,6.84,2.46,0,5.88-1.14,5.88-6.24,0-4.32-1.56-5.64-4.14-7.08a3.58,3.58,0,0,0-2.4-.3c-.72.18-1,.12-1-.12a3.17,3.17,0,0,1,.54-.66l2.94-2.7h4.14c.72,0,5.52-.18,6.3-.3,2-.36,2.28-.3,1.62.18-.42.3-2.7,2.58-3.54,3.36l-.12.12h-4.86C551.91,46.52,559.53,47.54,559.53,55.94Z"/><path d="M577.83,42.8c5.76,0,9.42,2.52,9.42,5V73.46l-3.3,1.8c-.18.12-1.38.9-1.56,1.08-.48.42-.54.42-.48.12a15,15,0,0,0,.12-2V50.42c0-2.64-2.82-4.5-6.78-4.5-2.58,0-6.48,1.38-10.5,4.5-.6.48-1.32.06-.9-.48A16.16,16.16,0,0,1,577.83,42.8Z"/><path d="M629.61,33.92c4.62,0,9.48,4,9.48,8.94,0,7.74-7.62,14.22-18.12,14.22V38.18a5.22,5.22,0,0,0-.66.54c-2.88,2.64-6.84,8.16-6.84,13.8,0,4.56,2.28,10.32,8.88,10.32,4,0,7.92-1.32,12.42-5.34,1-.9,1.38-1.74,1.56-1.74s.54.48-.42,1.56c-1.74,2-10.08,9.48-18.06,9.48-4.8,0-10.2-2.1-10.2-9.66C607.65,45.56,619.65,33.92,629.61,33.92Zm3.6,10.2c0-4.2-2.46-8.22-6.3-8.22h-.72V55C631.05,53.54,633.21,49.22,633.21,44.12Z"/><path d="M642.93,47.36a14.42,14.42,0,0,0-2.22-.18c-.54,0-.54-.3-.3-.42a58.27,58.27,0,0,0,7.5-4.14c1.32-.78,2.16,1,2.16,2.46v3.06c2.46-2.64,5.76-5.28,10.14-5.28,3.12,0,5.7,1.2,6.6,2.28a28.53,28.53,0,0,0-3.36,3.3,8.92,8.92,0,0,0-6.36-2.22c-2.94,0-4.62,1.8-7,4.2v5.64c2.94-1.62,7.38-4.56,9.24-4.56,4,0,7.5,2.58,7.5,7,0,4.86-6.06,6.72-9.84,6.72-3.18,0-5.52-1.86-6.9-2.46v.48c0,4.26-8.7,12.06-9.9,12.66-.36.18-.66,0-.3-.36,1.08-1,5-7.68,5-11.52V49.7C644.85,48.26,644.43,47.66,642.93,47.36ZM658.59,62.9c2.4,0,2.94-.18,2.94-2.88,0-3.3-2.82-5.52-4.74-5.52-1.68,0-4.08,2.16-6.18,3.12C652.71,60.14,656,62.9,658.59,62.9Z"/><path d="M671.91,47.48a14.42,14.42,0,0,0-2.22-.18c-.54,0-.54-.3-.3-.42a58.27,58.27,0,0,0,7.5-4.14c1.32-.78,2.16,1,2.16,2.46V63.68c6.6-5.88,14.34-11.22,12.48-15.24-.84-1.8-2.34-3.06-3.84-3.06s-2.94,1.56-3.84,1.86c-.48.18-.72-.36-.54-.54a29,29,0,0,1,7-4.32c1.38-.6,4.62.3,6.6,3.9,4.14,7.56-19.14,14.34-19.14,26,0,.36-.18.36-.48.48a17,17,0,0,0-6.42,3.78c-.3.24-.3,0-.3-.42,0-2.4,1.32-4.86,3.3-7.2V49.82C673.83,48.38,673.41,47.78,671.91,47.48Z"/><path d="M738,57.62c0-4.92-1.86-7.92-5.28-7.92-2.64,0-7.8,3.36-10.26,4.92V64.7l-3.3,1.8c-.18.12-1.38.9-1.56,1.08-.48.42-.54.42-.48.12a15,15,0,0,0,.12-2V43c0-3.42,6.84-8.34,13.44-8.34a25.51,25.51,0,0,1,13.14,4.2c1.14.78.54.84.24,1.08a20.11,20.11,0,0,0-3.54,3.6c-.48.66-.6.84-1,.24-1.68-2.34-6.06-6.18-10.44-6.18s-6.6,1.68-6.6,5.1V52.1c2.7-1,8.1-5.4,11.22-5.4,5.64,0,10.68,3.78,10.68,9.24,0,6.84-8.76,10.56-13.14,11.88-.84.24-1-.06-.6-.3C733.17,66.14,738,63.38,738,57.62Z"/><path d="M766.17,34.23a16.7,16.7,0,0,1,12.24,5.57c.24.24.06.36-.12.48a15.76,15.76,0,0,0-4,4c-.24.36-.42.48-.6.06-1.14-2.52-4.56-7.44-10.26-7.44-2.82,0-6.54,1.74-6.54,5.64V62.9c0,7.2-10.14,8.4-13.8,8.4-1,0-.78-.42-.3-.54,3.66-1,8.88-4.68,8.88-7.86V42.62C751.71,37,757.53,34.23,766.17,34.23Zm-14.46,27h0Z"/><path d="M794.91,34.94c6.24,0,11,2.17,11,4.62V64.7l-3.3,1.8c-.18.12-1.38.9-1.56,1.08-.48.42-.54.42-.48.12a15,15,0,0,0,.12-2V43.22c0-3.66-4.92-5.16-8-5.16s-7.56,1.44-11.46,4.5c-.54.42-1.08,0-.72-.54C781.83,40,786,34.94,794.91,34.94Z"/><path d="M829.83,40.34V56.06s5.28-4.74,7.2-4.74c2.7,0,7,1.44,7,6.54,0,3.9-5.16,9.24-8.82,9.24a9.07,9.07,0,0,1-5.94-2.1l-2.76,1.5c-.18.12-1.38.9-1.56,1.08-.48.42-.54.42-.48.12a15,15,0,0,0,.12-2V43.22c0-6.66-7.5-6.36-12.48-1.92-1.14,1-.9,0-.48-.54C818.31,31.29,829.83,35.9,829.83,40.34Zm6.24,24.9c1.8,0,3.06-1.32,3.06-3.54,0-6.3-3.9-7.32-4.86-6.6l-4.44,3.18v.48C829.83,61.7,835,65.24,836.07,65.24Z"/></g></svg>