<svg id="图层_1" data-name="图层 1" xmlns="http://www.w3.org/2000/svg" xmlns:xlink="http://www.w3.org/1999/xlink" viewBox="0 0 1125 110.6"><defs><style>.cls-1{fill:url(#未命名的渐变_37);}.cls-2{fill:url(#未命名的渐变_37-2);}.cls-3{fill:url(#未命名的渐变_37-3);}.cls-4{fill:url(#未命名的渐变_37-4);}.cls-5{fill:url(#未命名的渐变_37-5);}.cls-6{fill:url(#未命名的渐变_37-6);}.cls-7{fill:url(#未命名的渐变_37-8);}.cls-8{fill:url(#未命名的渐变_37-9);}.cls-9{fill:url(#未命名的渐变_37-12);}.cls-10{fill:url(#未命名的渐变_37-14);}.cls-11{fill:url(#未命名的渐变_37-15);}.cls-12{fill:url(#未命名的渐变_37-16);}.cls-13{fill:url(#未命名的渐变_37-17);}.cls-14{fill:url(#未命名的渐变_37-18);}</style><linearGradient id="未命名的渐变_37" x1="273.27" y1="52.57" x2="900.31" y2="52.57" gradientUnits="userSpaceOnUse"><stop offset="0" stop-color="#4c5fbf"/><stop offset="0.3" stop-color="#4889d1"/><stop offset="0.5" stop-color="#47aadd"/><stop offset="1" stop-color="#fe9934"/></linearGradient><linearGradient id="未命名的渐变_37-2" x1="273.27" y1="55.81" x2="900.31" y2="55.81" xlink:href="#未命名的渐变_37"/><linearGradient id="未命名的渐变_37-3" x1="273.27" y1="56.32" x2="900.31" y2="56.32" xlink:href="#未命名的渐变_37"/><linearGradient id="未命名的渐变_37-4" x1="273.27" y1="61.54" x2="900.31" y2="61.54" xlink:href="#未命名的渐变_37"/><linearGradient id="未命名的渐变_37-5" x1="273.27" y1="60.98" x2="900.31" y2="60.98" xlink:href="#未命名的渐变_37"/><linearGradient id="未命名的渐变_37-6" x1="273.27" y1="56.25" x2="900.31" y2="56.25" xlink:href="#未命名的渐变_37"/><linearGradient id="未命名的渐变_37-8" x1="273.27" y1="55.88" x2="900.31" y2="55.88" xlink:href="#未命名的渐变_37"/><linearGradient id="未命名的渐变_37-9" x1="273.27" y1="55.97" x2="900.31" y2="55.97" xlink:href="#未命名的渐变_37"/><linearGradient id="未命名的渐变_37-12" x1="273.27" y1="52.16" x2="900.31" y2="52.16" xlink:href="#未命名的渐变_37"/><linearGradient id="未命名的渐变_37-14" x1="273.27" y1="61.21" x2="900.31" y2="61.21" xlink:href="#未命名的渐变_37"/><linearGradient id="未命名的渐变_37-15" x1="273.27" y1="53.11" x2="900.31" y2="53.11" xlink:href="#未命名的渐变_37"/><linearGradient id="未命名的渐变_37-16" x1="273.27" y1="54.56" x2="900.31" y2="54.56" xlink:href="#未命名的渐变_37"/><linearGradient id="未命名的渐变_37-17" x1="273.27" y1="53.23" x2="900.31" y2="53.23" xlink:href="#未命名的渐变_37"/><linearGradient id="未命名的渐变_37-18" x1="273.27" y1="53.36" x2="900.31" y2="53.36" xlink:href="#未命名的渐变_37"/></defs><path class="cls-1" d="M307.33,36.26l.06,30.24c-1.62.66-3,2.58-7,2.58-6.54,0-19.44-4.44-19.44-13.68,0-12.18,21.84-17.58,26.4-19.14m-5.22,29.1V39.74C296,42.26,287.77,48,287.77,54.2s7.8,9.48,14.34,11.16m5.71-29.8-.66.23c-.45.15-1.07.35-1.83.58-6.81,2.11-24.9,7.7-24.9,19,0,9.44,12.78,14.18,19.94,14.18a9.63,9.63,0,0,0,5.92-1.88,8,8,0,0,1,1.28-.74l.32-.12V66.5l-.06-30.24v-.7Zm-6.21,29.15c-6.24-1.68-13.34-4.84-13.34-10.51,0-5.46,6.78-10.84,13.34-13.7V64.71Z"/><path class="cls-2" d="M324.9,44.31a11.55,11.55,0,0,1,5.53,1.55c4.85,2.7,7.37,9.54,2.22,16.32a12,12,0,0,1-9.6,5.12,10.1,10.1,0,0,1-7.92-3.56c-4.5-5.82-1.68-11.76,1.68-15.3,2.28-2.55,5-4.13,8.09-4.13M327,64a3.94,3.94,0,0,0,2.79-.9c3.53-3.48,1-10.56-2.16-13.08a10.37,10.37,0,0,0-6-2.27,4.43,4.43,0,0,0-3.26,1.19c-2.46,2.58-1.56,8.28.66,11.16a11,11,0,0,0,8,3.9M324.9,43.81h0c-3.07,0-5.92,1.45-8.47,4.3-1.8,1.9-7.29,8.7-1.7,15.94a10.69,10.69,0,0,0,8.32,3.75,12.51,12.51,0,0,0,10-5.32c3.15-4.13,3.22-7.79,2.73-10.14a10.33,10.33,0,0,0-5.1-6.92,12.11,12.11,0,0,0-5.77-1.61ZM327,63.48a10.51,10.51,0,0,1-7.62-3.71c-2.15-2.79-2.9-8.19-.69-10.5a4,4,0,0,1,2.9-1,9.86,9.86,0,0,1,5.73,2.17A11.28,11.28,0,0,1,331,58.06a5.9,5.9,0,0,1-1.56,4.66,3.38,3.38,0,0,1-2.43.76Z"/><path class="cls-3" d="M369.21,44.43c.37,0,.29.14-.09.41s-2.7,2.58-3.54,3.36l-.12.12H360.6c-3,0,4.62,1,4.62,9.42,0,6.3-3.78,9.12-7.62,9.12-7.48,0-9.18-5.52-9.52-5.52-.06,0-.07.16-.07.54V65l-3.31,1.8c-.17.12-1.38.9-1.55,1.08s-.4.33-.46.33-.05-.07,0-.21a15.38,15.38,0,0,0,.11-2V51.86c0-1.44-.42-2-1.92-2.34a14.2,14.2,0,0,0-2.21-.18c-.54,0-.54-.3-.3-.42a57.51,57.51,0,0,0,7.49-4.14,1.29,1.29,0,0,1,.64-.19c.95,0,1.53,1.41,1.53,2.65v8c0,4.26,2,6.84,7.19,6.84,2.46,0,5.88-1.14,5.88-6.24,0-4.32-1.56-5.64-4.14-7.08a3.7,3.7,0,0,0-2.4-.3,3,3,0,0,1-.65.11c-.25,0-.34-.08-.31-.23a3.17,3.17,0,0,1,.54-.66l2.94-2.7h4.14c.72,0,5.52-.18,6.3-.3a13.21,13.21,0,0,1,1.71-.23m0-.5h0a12.24,12.24,0,0,0-1.79.24c-.73.11-5.45.29-6.22.29h-4.33l-.14.13-2.94,2.7a3.64,3.64,0,0,0-.65.81l0,0v.05a.67.67,0,0,0,.11.57.82.82,0,0,0,.68.28,3.45,3.45,0,0,0,.78-.12,2.57,2.57,0,0,1,.66-.07,2.89,2.89,0,0,1,1.37.31c2.42,1.36,3.88,2.48,3.88,6.65,0,5-3.37,5.74-5.38,5.74-4.57,0-6.69-2-6.69-6.34v-8c0-1.55-.76-3.15-2-3.15a1.78,1.78,0,0,0-.89.26l-1.93,1.16a38.75,38.75,0,0,1-5.51,3,.71.71,0,0,0-.44.81c0,.13.19.57.94.57a14.08,14.08,0,0,1,2.12.17c1.22.25,1.51.61,1.51,1.85V66c0,.64-.06,1.67-.09,1.84a.76.76,0,0,0,.08.66l.15.18h.27c.24,0,.42-.14.78-.45a13.62,13.62,0,0,1,1.37-1l.14-.09,3.26-1.78.27-.14V62.88c1.15,1.69,3.7,4.48,9.09,4.48,4,0,8.12-3,8.12-9.62a10.32,10.32,0,0,0-4.48-8.92h4.43l.15-.15.12-.12c.3-.27.8-.76,1.34-1.29.8-.78,1.9-1.84,2.13-2s.66-.48.51-.91c-.08-.27-.33-.41-.71-.41Z"/><path class="cls-4" d="M385.32,44.6c5.76,0,9.42,2.52,9.42,5V75.26l-3.3,1.8c-.18.12-1.38.9-1.56,1.08s-.39.33-.45.33-.05-.07,0-.21a15,15,0,0,0,.12-2V52.22c0-2.64-2.82-4.5-6.78-4.5-2.58,0-6.48,1.38-10.5,4.5a.87.87,0,0,1-.55.21c-.38,0-.64-.32-.35-.69a16.16,16.16,0,0,1,14-7.14m0-.5a16.65,16.65,0,0,0-14.25,7.18l-.12.16a.9.9,0,0,0-.15,1,1,1,0,0,0,.89.51,1.4,1.4,0,0,0,.87-.32c4.17-3.23,8-4.39,10.18-4.39,3.7,0,6.28,1.65,6.28,4V76.28a16.68,16.68,0,0,1-.1,1.84.76.76,0,0,0,.09.66l.15.18h.27c.24,0,.42-.14.78-.45a14,14,0,0,1,1.38-1l.13-.08L395,75.7l.26-.14v-26c0-2.69-3.71-5.48-9.92-5.48Z"/><path class="cls-5" d="M408.4,44.23c1,0,1.52,1.41,1.52,2.65v3.06c2.46-2.64,5.76-5.28,10.14-5.28,3.12,0,5.7,1.2,6.6,2.28a28.53,28.53,0,0,0-3.36,3.3A8.92,8.92,0,0,0,416.94,48c-2.94,0-4.62,1.8-7,4.2v5.64c2.94-1.62,7.38-4.56,9.24-4.56,4,0,7.5,2.58,7.5,7,0,4.86-6.06,6.72-9.84,6.72-3.18,0-5.52-1.86-6.9-2.46V65c0,4.26-8.7,12.06-9.89,12.66a.6.6,0,0,1-.27.07c-.21,0-.3-.17,0-.43,1.08-1,5-7.68,5-11.52V51.5c0-1.44-.42-2-1.92-2.34a14.42,14.42,0,0,0-2.22-.18c-.53,0-.53-.3-.3-.42a58.27,58.27,0,0,0,7.5-4.14,1.29,1.29,0,0,1,.64-.19m10,20.47c2.4,0,2.94-.18,2.94-2.88,0-3.3-2.82-5.52-4.74-5.52-1.68,0-4.08,2.16-6.18,3.12,2.1,2.52,5.4,5.28,8,5.28m-10-21h0a1.76,1.76,0,0,0-.89.26l-1.93,1.16a38.75,38.75,0,0,1-5.51,3,.71.71,0,0,0-.44.81c0,.13.19.57.93.57a14.1,14.1,0,0,1,2.13.17c1.22.25,1.51.61,1.51,1.85V65.78c0,3.7-3.89,10.33-4.81,11.15a.8.8,0,0,0-.28.9.67.67,0,0,0,.65.4,1.11,1.11,0,0,0,.49-.12c1.15-.58,9.76-8.19,10.16-12.78l.41.22a12,12,0,0,0,6,1.93c4,0,10.34-2,10.34-7.22,0-4.9-4-7.46-8-7.46-1.55,0-4.43,1.69-7.21,3.32l-1.53.89V52.43l.13-.13c2.19-2.19,3.77-3.78,6.39-3.78a8.29,8.29,0,0,1,6,2.07l.44.45.34-.53a28.42,28.42,0,0,1,3.2-3.14l.46-.31-.34-.44c-1-1.22-3.75-2.46-7-2.46-4.27,0-7.45,2.39-9.64,4.55V46.88c0-1.55-.75-3.15-2-3.15Zm2.86,15.85c.63-.33,1.27-.74,1.89-1.14,1.27-.8,2.58-1.64,3.49-1.64,1.69,0,4.24,2,4.24,5,0,2.38-.27,2.38-2.44,2.38s-5.08-2.25-7.18-4.62Z"/><path class="cls-6" d="M437.68,44.71c.95,0,1.52,1.41,1.52,2.65V64.58l-3.3,1.8c-.18.12-1.38.9-1.56,1.08s-.39.33-.45.33-.05-.07,0-.21a15,15,0,0,0,.12-2V52c0-1.44-.42-2-1.92-2.34a14.42,14.42,0,0,0-2.22-.18c-.54,0-.54-.3-.3-.42A58.27,58.27,0,0,0,437,44.9a1.29,1.29,0,0,1,.64-.19m0-.5h0a1.76,1.76,0,0,0-.89.26l-1.93,1.16a38.75,38.75,0,0,1-5.51,2.95.71.71,0,0,0-.44.81c0,.13.19.57.93.57a14.1,14.1,0,0,1,2.13.17c1.22.24,1.51.61,1.51,1.85V65.6a16.68,16.68,0,0,1-.1,1.84.76.76,0,0,0,.09.66l.15.18h.27c.24,0,.42-.14.78-.45a13.62,13.62,0,0,1,1.37-1l.14-.09L439.44,65l.26-.14V47.36c0-1.55-.75-3.15-2-3.15Z"/><path class="cls-3" d="M474.75,44.43c.37,0,.29.14-.09.41s-2.7,2.58-3.54,3.36l-.12.12h-4.86c-3,0,4.62,1,4.62,9.42,0,6.3-3.78,9.12-7.62,9.12-7.48,0-9.18-5.52-9.52-5.52-.06,0-.08.16-.08.54V65l-3.3,1.8c-.18.12-1.38.9-1.56,1.08s-.39.33-.45.33-.05-.07,0-.21a15,15,0,0,0,.12-2V51.86c0-1.44-.42-2-1.92-2.34a14.42,14.42,0,0,0-2.22-.18c-.54,0-.54-.3-.3-.42a58.27,58.27,0,0,0,7.5-4.14,1.29,1.29,0,0,1,.64-.19c1,0,1.52,1.41,1.52,2.65v8c0,4.26,2,6.84,7.2,6.84,2.46,0,5.88-1.14,5.88-6.24,0-4.32-1.56-5.64-4.14-7.08a3.7,3.7,0,0,0-2.4-.3,3,3,0,0,1-.66.11c-.24,0-.33-.08-.3-.23a3.17,3.17,0,0,1,.54-.66L462.6,45h4.14c.72,0,5.52-.18,6.3-.3a13.21,13.21,0,0,1,1.71-.23m0-.5h0a12.24,12.24,0,0,0-1.79.24c-.73.11-5.45.29-6.22.29h-4.33l-.14.13-2.94,2.7a3.64,3.64,0,0,0-.65.81l0,0v.05a.67.67,0,0,0,.11.57.81.81,0,0,0,.67.28,3.3,3.3,0,0,0,.78-.12,2.7,2.7,0,0,1,.67-.07,2.89,2.89,0,0,1,1.37.31c2.42,1.36,3.88,2.48,3.88,6.65,0,5-3.37,5.74-5.38,5.74-4.57,0-6.7-2-6.7-6.34v-8c0-1.55-.75-3.15-2-3.15a1.76,1.76,0,0,0-.89.26l-1.93,1.16a38.75,38.75,0,0,1-5.51,3,.71.71,0,0,0-.44.81c0,.13.19.57.93.57a14.1,14.1,0,0,1,2.13.17c1.22.25,1.51.61,1.51,1.85V66a16.68,16.68,0,0,1-.1,1.84.76.76,0,0,0,.09.66l.15.18h.27c.24,0,.42-.14.78-.45a13.62,13.62,0,0,1,1.37-1l.14-.09,3.26-1.78.26-.14V62.88c1.15,1.69,3.71,4.48,9.1,4.48,4.05,0,8.12-3,8.12-9.62a10.32,10.32,0,0,0-4.48-8.92h4.43l.15-.15.12-.12c.29-.27.8-.76,1.34-1.29.8-.78,1.9-1.84,2.13-2s.65-.48.51-.91c-.08-.27-.33-.41-.71-.41Z"/><path class="cls-7" d="M494.46,44.6c3.06,0,4.14.9,8.16,7.2,3.66,5.64,6.78,12.42,9,12.42,1.68,0,2.64-1.8,3.24-2.34a.45.45,0,0,1,.32-.15.34.34,0,0,1,.28.51c-.54.9-3.06,4.92-5.58,4.92-3.06,0-4.56-1-6.6-4.14-.66,1.26-2,4.14-5.4,4.14-2.64,0-4.74-1.8-6.48-4.26-1.08,1.8-2,4.26-6.54,4.26-4.38,0-7.2-2.88-7.2-6.9V48.08c0-2,1.56-3.48,5.46-3.48,2.34,0,4.08,1.38,5.76,4,.66-1.26,2.22-4,5.58-4m-7.68,19.56a6.87,6.87,0,0,0,4.14-1.92,60.52,60.52,0,0,1-3.6-6.3c-1.56-2.94-2.7-8.76-4.32-8.76a1.66,1.66,0,0,0-.54.06v12.3c0,3.06,1.32,4.62,4.32,4.62m13.5.06c1,0,1.92-1.2,2.52-1.86-1.2-1.86-2.58-4.32-4.56-7.62-3.06-5.34-4.44-7.14-6.24-7.14-1.14,0-1.86,1.44-2.46,2,.72,1.14,1.44,2.46,2.28,4,2.16,3.9,6.12,10.68,8.46,10.68M494.46,44.1a6.48,6.48,0,0,0-5.62,3.51c-1.74-2.42-3.52-3.51-5.72-3.51-5.18,0-6,2.49-6,4V60.26c0,4.36,3.17,7.4,7.7,7.4,4.31,0,5.6-2.1,6.59-3.85,2,2.59,4.11,3.85,6.43,3.85,3.09,0,4.63-2.19,5.46-3.67,2,2.79,3.59,3.67,6.54,3.67,2.63,0,5.08-3.61,6-5.16a.86.86,0,0,0,0-.88.82.82,0,0,0-.7-.39,1,1,0,0,0-.67.3,5.53,5.53,0,0,0-.52.58c-.56.68-1.32,1.61-2.37,1.61-1.31,0-3.49-3.72-5.61-7.31-.95-1.62-1.93-3.28-3-4.88-4.07-6.39-5.27-7.43-8.58-7.43ZM483,47.68h0c.68,0,1.65,2.72,2.28,4.52a31.48,31.48,0,0,0,1.6,4l.47.89a54.61,54.61,0,0,0,2.9,5.09,5.8,5.8,0,0,1-3.47,1.51c-2.64,0-3.82-1.27-3.82-4.12V47.68Zm7.21,2,.3-.35c.44-.56.95-1.19,1.53-1.19,1.46,0,2.71,1.48,5.81,6.89.76,1.26,1.42,2.39,2,3.42.87,1.49,1.64,2.8,2.34,3.9-.5.56-1.28,1.41-1.9,1.41-.84,0-3-1.35-8-10.42l-.39-.71c-.62-1.1-1.16-2.06-1.7-3Z"/><path class="cls-8" d="M530.1,44.66c8.16,0,12.24,5.34,12.24,10.68,0,8.28-9.78,11.58-14.64,11.94h-.11c-.59,0-.45-.43.11-.66,4.74-2,8-4,8.46-8.82h-7.44c-.72,0-5.52.18-6.3.3a12.92,12.92,0,0,1-1.7.23c-.38,0-.29-.14.08-.41s2.7-2.58,3.54-3.36l.12-.12H536.1c-.72-5.52-4-7.86-7.14-7.86-4.32,0-7.08,2.7-7.08,4.68,0,.48-.12.66-.3.72a11.25,11.25,0,0,0-3.72,1.92,1,1,0,0,1-.44.24c-.11,0-.16-.12,0-.48.66-1.8,3.84-9,12.72-9m0-.5a13.8,13.8,0,0,0-13.19,9.33,1,1,0,0,0,0,.91.62.62,0,0,0,.49.24,1.3,1.3,0,0,0,.76-.35,10.86,10.86,0,0,1,3.57-1.84c.63-.21.63-1,.63-1.19,0-1.7,2.57-4.18,6.58-4.18,2.65,0,5.71,1.82,6.56,6.86H524.26l-.15.15-.12.12c-.3.27-.81.77-1.35,1.29-.8.78-1.89,1.85-2.13,2s-.65.48-.51.91c.09.27.33.41.72.41a12.24,12.24,0,0,0,1.79-.24c.72-.11,5.44-.29,6.21-.29h6.88c-.55,3.92-3.2,5.75-8.09,7.86-.56.22-.87.63-.79,1,0,.13.17.57.87.57h.16c5.83-.43,15.09-4.19,15.09-12.44,0-5.38-4-11.18-12.74-11.18Z"/><path class="cls-3" d="M576.08,44.43c.38,0,.3.14-.08.41s-2.7,2.58-3.54,3.36l-.12.12h-4.86c-3,0,4.62,1,4.62,9.42,0,6.3-3.78,9.12-7.62,9.12-7.48,0-9.18-5.52-9.52-5.52-.06,0-.08.16-.08.54V65l-3.3,1.8c-.18.12-1.38.9-1.56,1.08s-.39.33-.46.33,0-.07,0-.21a15,15,0,0,0,.12-2V51.86c0-1.44-.42-2-1.92-2.34a14.42,14.42,0,0,0-2.22-.18c-.54,0-.54-.3-.3-.42a58.27,58.27,0,0,0,7.5-4.14,1.29,1.29,0,0,1,.64-.19c.95,0,1.52,1.41,1.52,2.65v8c0,4.26,2,6.84,7.2,6.84,2.46,0,5.88-1.14,5.88-6.24,0-4.32-1.56-5.64-4.14-7.08a3.7,3.7,0,0,0-2.4-.3,3,3,0,0,1-.66.11c-.24,0-.33-.08-.3-.23a3.17,3.17,0,0,1,.54-.66l2.94-2.7h4.14c.72,0,5.52-.18,6.3-.3a13.36,13.36,0,0,1,1.7-.23m0-.5h0a12.59,12.59,0,0,0-1.79.24c-.72.11-5.44.29-6.21.29h-4.33l-.15.13-2.94,2.7a3.53,3.53,0,0,0-.64.81l0,0v.05a.64.64,0,0,0,.11.57.81.81,0,0,0,.67.28,3.3,3.3,0,0,0,.78-.12,2.7,2.7,0,0,1,.67-.07,2.85,2.85,0,0,1,1.36.31c2.42,1.36,3.89,2.48,3.89,6.65,0,5-3.37,5.74-5.38,5.74-4.57,0-6.7-2-6.7-6.34v-8c0-1.55-.76-3.15-2-3.15a1.76,1.76,0,0,0-.89.26l-1.93,1.16a38.75,38.75,0,0,1-5.51,3,.71.71,0,0,0-.44.81c0,.13.19.57.93.57a14.1,14.1,0,0,1,2.13.17c1.21.25,1.51.61,1.51,1.85V66a16.68,16.68,0,0,1-.1,1.84.76.76,0,0,0,.09.66l.15.18h.26c.25,0,.43-.14.79-.45a13.62,13.62,0,0,1,1.37-1l.14-.09,3.26-1.78.26-.14V62.88c1.15,1.69,3.71,4.48,9.1,4.48,4,0,8.12-3,8.12-9.62a10.32,10.32,0,0,0-4.48-8.92h4.43l.15-.15.12-.12,1.33-1.28c.81-.78,1.91-1.85,2.14-2s.65-.48.51-.91c-.09-.27-.33-.41-.72-.41Z"/><path class="cls-4" d="M592.2,44.6c5.76,0,9.42,2.52,9.42,5V75.26l-3.3,1.8c-.18.12-1.38.9-1.56,1.08s-.39.33-.46.33,0-.07,0-.21a15,15,0,0,0,.12-2V52.22c0-2.64-2.82-4.5-6.78-4.5-2.58,0-6.48,1.38-10.5,4.5a.87.87,0,0,1-.55.21c-.38,0-.64-.32-.35-.69a16.16,16.16,0,0,1,14-7.14m0-.5A16.65,16.65,0,0,0,578,51.28l-.12.16a.9.9,0,0,0-.15,1,1,1,0,0,0,.89.51,1.4,1.4,0,0,0,.87-.32c4.16-3.23,8-4.39,10.18-4.39,3.7,0,6.28,1.65,6.28,4V76.28a16.68,16.68,0,0,1-.1,1.84.73.73,0,0,0,.09.66L596,79h.26c.25,0,.43-.14.79-.45a13.49,13.49,0,0,1,1.39-1l.12-.07,3.26-1.78.26-.14v-26c0-2.69-3.71-5.48-9.92-5.48Z"/><path class="cls-9" d="M644,35.72c4.62,0,9.48,4,9.48,8.94,0,7.74-7.62,14.22-18.12,14.22V40a5.22,5.22,0,0,0-.66.54c-2.88,2.64-6.84,8.16-6.84,13.8,0,4.56,2.28,10.32,8.88,10.32,4,0,7.92-1.32,12.42-5.34,1-.9,1.38-1.74,1.56-1.74s.54.48-.42,1.56c-1.74,2-10.08,9.48-18.06,9.48-4.8,0-10.2-2.1-10.2-9.66,0-11.58,12-23.22,22-23.22m-3.42,21.06c4.86-1.44,7-5.76,7-10.86,0-4.2-2.46-8.22-6.3-8.22h-.72V56.78M644,35.22c-9.8,0-22.46,11.5-22.46,23.72,0,9.17,7.49,10.16,10.7,10.16,8.39,0,16.81-7.74,18.44-9.66.86-1,.86-1.59.7-1.93a.71.71,0,0,0-.66-.45c-.33,0-.5.24-.75.58a7.56,7.56,0,0,1-1.14,1.29c-4,3.6-7.76,5.21-12.09,5.21-6.18,0-8.38-5.29-8.38-9.82,0-5.63,4-10.9,6.5-13.26V59.38h.5c10.44,0,18.62-6.47,18.62-14.72,0-5.4-5.27-9.44-10-9.44Zm-2.92,3h.22c3.63,0,5.8,3.93,5.8,7.72,0,5.07-2.18,8.73-6,10.17V38.2Z"/><path class="cls-5" d="M665.31,44.23c1,0,1.53,1.41,1.53,2.65v3.06c2.46-2.64,5.76-5.28,10.14-5.28,3.12,0,5.7,1.2,6.6,2.28a28.53,28.53,0,0,0-3.36,3.3A8.92,8.92,0,0,0,673.86,48c-2.94,0-4.62,1.8-7,4.2v5.64c2.94-1.62,7.38-4.56,9.24-4.56,4,0,7.5,2.58,7.5,7,0,4.86-6.06,6.72-9.84,6.72-3.18,0-5.52-1.86-6.9-2.46V65c0,4.26-8.7,12.06-9.9,12.66a.56.56,0,0,1-.26.07c-.21,0-.3-.17,0-.43,1.08-1,5-7.68,5-11.52V51.5c0-1.44-.42-2-1.92-2.34a14.42,14.42,0,0,0-2.22-.18c-.54,0-.54-.3-.3-.42a58.27,58.27,0,0,0,7.5-4.14,1.29,1.29,0,0,1,.63-.19M675.36,64.7c2.4,0,2.94-.18,2.94-2.88,0-3.3-2.82-5.52-4.74-5.52-1.68,0-4.08,2.16-6.18,3.12,2.1,2.52,5.4,5.28,8,5.28m-10.05-21h0a1.75,1.75,0,0,0-.88.26l-1.93,1.16a38.75,38.75,0,0,1-5.51,3,.71.71,0,0,0-.44.81c0,.13.19.57.93.57a13.87,13.87,0,0,1,2.12.17c1.22.25,1.52.61,1.52,1.85V65.78c0,3.7-3.9,10.33-4.81,11.15a.78.78,0,0,0-.28.9.67.67,0,0,0,.65.4,1.14,1.14,0,0,0,.49-.12c1.15-.58,9.76-8.18,10.16-12.78l.41.22a12,12,0,0,0,6,1.93c4,0,10.34-2,10.34-7.22,0-4.9-4-7.46-8-7.46-1.56,0-4.43,1.69-7.22,3.32l-1.52.89V52.43l.13-.13c2.19-2.19,3.77-3.78,6.39-3.78a8.31,8.31,0,0,1,6,2.07l.44.45.33-.53a30.21,30.21,0,0,1,3.2-3.14l.47-.31-.34-.44c-1-1.22-3.75-2.46-7-2.46-4.27,0-7.45,2.39-9.64,4.55V46.88c0-1.55-.76-3.15-2-3.15Zm2.87,15.85c.63-.33,1.27-.74,1.89-1.14,1.27-.8,2.58-1.64,3.49-1.64,1.69,0,4.24,2,4.24,5,0,2.38-.28,2.38-2.44,2.38s-5.08-2.25-7.18-4.62Z"/><path class="cls-10" d="M708.59,44c1.59,0,4,1.14,5.65,4.07,4.14,7.56-19.14,14.34-19.14,26,0,.36-.18.36-.48.48a17,17,0,0,0-6.42,3.78.29.29,0,0,1-.18.09c-.12,0-.12-.21-.12-.51,0-2.4,1.32-4.86,3.3-7.2V51.62c0-1.44-.42-2-1.92-2.34a14.42,14.42,0,0,0-2.22-.18c-.54,0-.54-.3-.3-.42a58.27,58.27,0,0,0,7.5-4.14,1.29,1.29,0,0,1,.63-.19c1,0,1.53,1.41,1.53,2.65V65.48c6.6-5.88,14.34-11.22,12.48-15.24-.84-1.8-2.34-3.06-3.84-3.06s-2.94,1.56-3.84,1.86a.46.46,0,0,1-.19,0c-.35,0-.5-.42-.35-.58a29,29,0,0,1,7-4.32,2.44,2.44,0,0,1,1-.17m0-.5a2.91,2.91,0,0,0-1.15.21,29.44,29.44,0,0,0-7.08,4.4.79.79,0,0,0-.17.89.92.92,0,0,0,.84.57,1.21,1.21,0,0,0,.37-.07,6.76,6.76,0,0,0,1.3-.74,5.13,5.13,0,0,1,2.36-1.09c1.25,0,2.61,1.11,3.39,2.77,1.36,2.95-3.54,7.11-8.72,11.52-.93.78-1.87,1.59-2.81,2.4V47c0-1.55-.76-3.15-2-3.15a1.76,1.76,0,0,0-.89.26l-1.93,1.16a38.29,38.29,0,0,1-5.51,2.95.71.71,0,0,0-.44.81c0,.13.19.57.93.57a14,14,0,0,1,2.12.17c1.22.24,1.52.61,1.52,1.85v18.9c-2.19,2.63-3.3,5.11-3.3,7.38a3.1,3.1,0,0,0,0,.45.6.6,0,0,0,.6.56.82.82,0,0,0,.5-.2l0,0,0,0A16.21,16.21,0,0,1,694.79,75l.13-.05a.86.86,0,0,0,.68-.9c0-5.69,6-10.3,11.24-14.37s10.07-7.77,7.84-11.85c-1.65-3-4.25-4.33-6.09-4.33Z"/><path class="cls-11" d="M748.08,36.5a25.51,25.51,0,0,1,13.14,4.2c1.14.78.54.84.24,1.08a20.11,20.11,0,0,0-3.54,3.6c-.28.38-.44.61-.6.61s-.24-.12-.42-.37c-1.68-2.34-6.06-6.18-10.44-6.18s-6.6,1.68-6.6,5.1V53.9c2.7-1,8.1-5.4,11.22-5.4,5.64,0,10.68,3.78,10.68,9.24,0,6.84-8.76,10.56-13.14,11.88a2.09,2.09,0,0,1-.52.09c-.37,0-.39-.21-.08-.39,2.52-1.38,7.38-4.14,7.38-9.9,0-4.92-1.86-7.92-5.28-7.92-2.64,0-7.8,3.36-10.26,4.92V66.5l-3.3,1.8c-.18.12-1.38.9-1.56,1.08s-.39.33-.46.33,0-.07,0-.21a15,15,0,0,0,.12-2V44.84c0-3.42,6.84-8.34,13.44-8.34m0-.5c-6.91,0-13.94,5.14-13.94,8.84V67.52a16.68,16.68,0,0,1-.1,1.84.73.73,0,0,0,.09.66l.15.18h.26c.25,0,.43-.14.79-.45a13.62,13.62,0,0,1,1.37-1l.14-.09,3.26-1.78.26-.14V56.7l.12-.08c2.36-1.5,7.27-4.62,9.64-4.62,3,0,4.78,2.7,4.78,7.42,0,5.56-4.81,8.2-7.12,9.46-.55.32-.49.72-.46.84a.72.72,0,0,0,.78.49,2.52,2.52,0,0,0,.66-.11c3.17-1,13.5-4.67,13.5-12.36,0-5.46-4.91-9.74-11.18-9.74-2.12,0-5.08,1.8-7.69,3.39-1.11.68-2.17,1.32-3,1.74V44.54c0-3.09,2-4.6,6.1-4.6s8.26,3.49,10,6a1.11,1.11,0,0,0,.83.58c.42,0,.66-.34,1-.79a19.78,19.78,0,0,1,3.44-3.51.63.63,0,0,1,.14-.09.84.84,0,0,0,.5-.69c0-.42-.35-.75-.89-1.12A26,26,0,0,0,748.08,36Z"/><path class="cls-12" d="M788.34,36a16.7,16.7,0,0,1,12.24,5.58c.24.24.06.36-.12.48a15.76,15.76,0,0,0-4,4c-.13.2-.25.33-.35.33s-.17-.08-.25-.27c-1.14-2.52-4.56-7.44-10.26-7.44-2.82,0-6.54,1.74-6.54,5.64V64.7c0,7.2-10.14,8.4-13.8,8.4-1,0-.78-.42-.3-.54,3.66-1,8.88-4.68,8.88-7.86V44.42c0-5.64,5.82-8.4,14.46-8.4M773.88,63h0m14.46-27.5c-9.51,0-15,3.25-15,8.9V64.7c0,2.9-5.08,6.42-8.51,7.38-.51.12-.82.47-.78.86s.46.66,1.21.66c5.31,0,14.3-1.87,14.3-8.9V44.36c0-3.74,3.71-5.14,6-5.14,6.39,0,9.47,6.42,9.81,7.15a.76.76,0,0,0,.7.56c.4,0,.65-.37.77-.55a14.84,14.84,0,0,1,3.79-3.86.88.88,0,0,0,.48-.64.72.72,0,0,0-.26-.63,17,17,0,0,0-12.59-5.73Z"/><path class="cls-13" d="M817.08,36.74c6.24,0,11,2.16,11,4.62V66.5l-3.3,1.8c-.18.12-1.38.9-1.56,1.08s-.4.33-.46.33,0-.07,0-.21a15,15,0,0,0,.12-2V45c0-3.66-4.92-5.16-8-5.16s-7.56,1.44-11.46,4.5a.72.72,0,0,1-.44.17c-.33,0-.54-.32-.28-.71,1.38-2,5.52-7.08,14.46-7.08m0-.5c-8.64,0-13,4.57-14.87,7.3a1,1,0,0,0-.1,1,.87.87,0,0,0,.79.46,1.21,1.21,0,0,0,.75-.27,19.3,19.3,0,0,1,11.15-4.4c3,0,7.54,1.48,7.54,4.66v22.5a16.68,16.68,0,0,1-.1,1.84.73.73,0,0,0,.09.66l.15.18h.26c.24,0,.43-.14.79-.45a13.62,13.62,0,0,1,1.37-1l.14-.09,3.26-1.78.26-.14V41.36c0-2.87-5-5.12-11.48-5.12Z"/><path class="cls-14" d="M843.8,37c4.45,0,8.2,2.59,8.2,5.12V57.86s5.28-4.74,7.2-4.74c2.7,0,7,1.44,7,6.54,0,3.9-5.16,9.24-8.82,9.24a9.07,9.07,0,0,1-5.94-2.1l-2.76,1.5c-.18.12-1.38.9-1.56,1.08s-.4.33-.46.33,0-.07,0-.21a15,15,0,0,0,.12-2V45c0-3.57-2.16-5.14-4.93-5.14a12,12,0,0,0-7.55,3.22c-.35.32-.57.44-.7.44s-.07-.61.22-1a12,12,0,0,1,10-5.54m14.44,30c1.8,0,3.06-1.32,3.06-3.54,0-5.19-2.65-6.8-4.12-6.8a1.23,1.23,0,0,0-.74.2L852,60.08v.48c0,2.94,5.16,6.48,6.24,6.48M843.8,36.52h0a12.59,12.59,0,0,0-10.39,5.75s-.65.85-.37,1.42a.62.62,0,0,0,.56.35,1.65,1.65,0,0,0,1-.57,11.44,11.44,0,0,1,7.22-3.09c2.81,0,4.43,1.69,4.43,4.64v22.5a16.68,16.68,0,0,1-.1,1.84.73.73,0,0,0,.09.66l.15.18h.26c.24,0,.43-.14.79-.45a13.62,13.62,0,0,1,1.37-1l.14-.09,2.42-1.32a9.63,9.63,0,0,0,6,2c4,0,9.32-5.55,9.32-9.74,0-5.56-4.73-7-7.52-7-1.63,0-5.07,2.76-6.7,4.14V42.14c0-2.94-4.15-5.62-8.7-5.62Zm8.7,23.82,4.23-3a.72.72,0,0,1,.45-.11c1,0,3.62,1.13,3.62,6.3,0,1.88-1,3-2.56,3-.8,0-5.74-3.34-5.74-6v-.22Z"/><path d="M307.41,66.5c-1.62.66-3,2.58-7,2.58-6.54,0-19.44-4.44-19.44-13.68,0-12.18,21.84-17.58,26.4-19.14Zm-5.28-1.14V39.74C296,42.26,287.79,48,287.79,54.2S295.59,63.68,302.13,65.36Z"/><path d="M315.15,63.74c-4.5-5.82-1.68-11.76,1.68-15.3,3.54-4,8.1-5.58,13.62-2.58,4.86,2.7,7.38,9.54,2.22,16.32C327,69.68,318.27,67.82,315.15,63.74Zm3.9-3.66c2.64,3.42,8.7,5,10.8,3,3.54-3.48,1-10.56-2.16-13.08-3.48-2.64-7.5-2.94-9.3-1.08C315.93,51.5,316.83,57.2,319.05,60.08Z"/><path d="M364.65,57.74c0,6.3-3.78,9.12-7.62,9.12-8.76,0-9.6-7.56-9.6-5V65l-3.3,1.8c-.18.12-1.38.9-1.56,1.08-.48.42-.54.42-.48.12a15,15,0,0,0,.12-2V51.86c0-1.44-.42-2-1.92-2.34a14.42,14.42,0,0,0-2.22-.18c-.54,0-.54-.3-.3-.42a58.27,58.27,0,0,0,7.5-4.14c1.32-.78,2.16,1,2.16,2.46v8c0,4.26,2,6.84,7.2,6.84,2.46,0,5.88-1.14,5.88-6.24,0-4.32-1.56-5.64-4.14-7.08a3.58,3.58,0,0,0-2.4-.3c-.72.18-1,.12-1-.12a3.17,3.17,0,0,1,.54-.66l2.94-2.7h4.14c.72,0,5.52-.18,6.3-.3,2-.36,2.28-.3,1.62.18-.42.3-2.7,2.58-3.54,3.36l-.12.12H360C357,48.32,364.65,49.34,364.65,57.74Z"/><path d="M383,44.6c5.76,0,9.42,2.52,9.42,5V75.26l-3.3,1.8c-.18.12-1.38.9-1.56,1.08-.48.42-.54.42-.48.12a15,15,0,0,0,.12-2V52.22c0-2.64-2.82-4.5-6.78-4.5-2.58,0-6.48,1.38-10.5,4.5-.6.48-1.32.06-.9-.48A16.16,16.16,0,0,1,383,44.6Z"/><path d="M399.21,49.16A14.42,14.42,0,0,0,397,49c-.54,0-.54-.3-.3-.42a58.27,58.27,0,0,0,7.5-4.14c1.32-.78,2.16,1,2.16,2.46v3.06c2.46-2.64,5.76-5.28,10.14-5.28,3.12,0,5.7,1.2,6.6,2.28a28.53,28.53,0,0,0-3.36,3.3A8.92,8.92,0,0,0,413.37,48c-2.94,0-4.62,1.8-7,4.2v5.64c2.94-1.62,7.38-4.56,9.24-4.56,4,0,7.5,2.58,7.5,7,0,4.86-6.06,6.72-9.84,6.72-3.18,0-5.52-1.86-6.9-2.46V65c0,4.26-8.7,12.06-9.9,12.66-.36.18-.66,0-.3-.36,1.08-1,5-7.68,5-11.52V51.5C401.13,50.06,400.71,49.46,399.21,49.16ZM414.87,64.7c2.4,0,2.94-.18,2.94-2.88,0-3.3-2.82-5.52-4.74-5.52-1.68,0-4.08,2.16-6.18,3.12C409,61.94,412.29,64.7,414.87,64.7Z"/><path d="M427.89,49.64a14.42,14.42,0,0,0-2.22-.18c-.54,0-.54-.3-.3-.42a58.27,58.27,0,0,0,7.5-4.14c1.32-.78,2.16,1,2.16,2.46V64.58l-3.3,1.8c-.18.12-1.38.9-1.56,1.08-.48.42-.54.42-.48.12a15,15,0,0,0,.12-2V52C429.81,50.54,429.39,49.94,427.89,49.64Z"/><path d="M466.59,57.74c0,6.3-3.78,9.12-7.62,9.12-8.76,0-9.6-7.56-9.6-5V65l-3.3,1.8c-.18.12-1.38.9-1.56,1.08-.48.42-.54.42-.48.12a15,15,0,0,0,.12-2V51.86c0-1.44-.42-2-1.92-2.34a14.42,14.42,0,0,0-2.22-.18c-.54,0-.54-.3-.3-.42a58.27,58.27,0,0,0,7.5-4.14c1.32-.78,2.16,1,2.16,2.46v8c0,4.26,2,6.84,7.2,6.84,2.46,0,5.88-1.14,5.88-6.24,0-4.32-1.56-5.64-4.14-7.08a3.58,3.58,0,0,0-2.4-.3c-.72.18-1,.12-1-.12a3.17,3.17,0,0,1,.54-.66l2.94-2.7h4.14c.72,0,5.52-.18,6.3-.3,2-.36,2.28-.3,1.62.18-.42.3-2.7,2.58-3.54,3.36l-.12.12H462C459,48.32,466.59,49.34,466.59,57.74Z"/><path d="M471.69,60.26V48.08c0-2,1.56-3.48,5.46-3.48,2.34,0,4.08,1.38,5.76,4,.66-1.26,2.22-4,5.58-4,3.06,0,4.14.9,8.16,7.2,3.66,5.64,6.78,12.42,9,12.42,1.68,0,2.64-1.8,3.24-2.34.36-.36.78,0,.6.36-.54.9-3.06,4.92-5.58,4.92-3.06,0-4.56-1-6.6-4.14-.66,1.26-2,4.14-5.4,4.14-2.64,0-4.74-1.8-6.48-4.26-1.08,1.8-2,4.26-6.54,4.26C474.51,67.16,471.69,64.28,471.69,60.26Zm9.12,3.9A6.87,6.87,0,0,0,485,62.24a60.52,60.52,0,0,1-3.6-6.3c-1.56-2.94-2.7-8.76-4.32-8.76a1.66,1.66,0,0,0-.54.06v12.3C476.49,62.6,477.81,64.16,480.81,64.16Zm5-10.62c2.16,3.9,6.12,10.68,8.46,10.68,1,0,1.92-1.2,2.52-1.86-1.2-1.86-2.58-4.32-4.56-7.62-3.06-5.34-4.44-7.14-6.24-7.14-1.14,0-1.86,1.44-2.46,2C484.29,50.72,485,52,485.85,53.54Z"/><path d="M518.13,44.66c8.16,0,12.24,5.34,12.24,10.68,0,8.28-9.78,11.58-14.64,11.94-.72.06-.6-.42,0-.66,4.74-2,8-4,8.46-8.82h-7.44c-.72,0-5.52.18-6.3.3-2,.36-2.28.3-1.62-.18.42-.3,2.7-2.58,3.54-3.36l.12-.12h11.64c-.72-5.52-4-7.86-7.14-7.86-4.32,0-7.08,2.7-7.08,4.68,0,.48-.12.66-.3.72a11.25,11.25,0,0,0-3.72,1.92c-.3.24-.72.48-.48-.24C506.07,51.86,509.25,44.66,518.13,44.66Z"/><path d="M559.53,57.74c0,6.3-3.78,9.12-7.62,9.12-8.76,0-9.6-7.56-9.6-5V65L539,66.8c-.18.12-1.38.9-1.56,1.08-.48.42-.54.42-.48.12a15,15,0,0,0,.12-2V51.86c0-1.44-.42-2-1.92-2.34a14.42,14.42,0,0,0-2.22-.18c-.54,0-.54-.3-.3-.42a58.27,58.27,0,0,0,7.5-4.14c1.32-.78,2.16,1,2.16,2.46v8c0,4.26,2,6.84,7.2,6.84,2.46,0,5.88-1.14,5.88-6.24,0-4.32-1.56-5.64-4.14-7.08a3.58,3.58,0,0,0-2.4-.3c-.72.18-1,.12-1-.12a3.17,3.17,0,0,1,.54-.66l2.94-2.7h4.14c.72,0,5.52-.18,6.3-.3,2-.36,2.28-.3,1.62.18-.42.3-2.7,2.58-3.54,3.36l-.12.12h-4.86C551.91,48.32,559.53,49.34,559.53,57.74Z"/><path d="M577.83,44.6c5.76,0,9.42,2.52,9.42,5V75.26l-3.3,1.8c-.18.12-1.38.9-1.56,1.08-.48.42-.54.42-.48.12a15,15,0,0,0,.12-2V52.22c0-2.64-2.82-4.5-6.78-4.5-2.58,0-6.48,1.38-10.5,4.5-.6.48-1.32.06-.9-.48A16.16,16.16,0,0,1,577.83,44.6Z"/><path d="M629.61,35.72c4.62,0,9.48,4,9.48,8.94,0,7.74-7.62,14.22-18.12,14.22V40a5.22,5.22,0,0,0-.66.54c-2.88,2.64-6.84,8.16-6.84,13.8,0,4.56,2.28,10.32,8.88,10.32,4,0,7.92-1.32,12.42-5.34,1-.9,1.38-1.74,1.56-1.74s.54.48-.42,1.56c-1.74,2-10.08,9.48-18.06,9.48-4.8,0-10.2-2.1-10.2-9.66C607.65,47.36,619.65,35.72,629.61,35.72Zm3.6,10.2c0-4.2-2.46-8.22-6.3-8.22h-.72V56.78C631.05,55.34,633.21,51,633.21,45.92Z"/><path d="M642.93,49.16a14.42,14.42,0,0,0-2.22-.18c-.54,0-.54-.3-.3-.42a58.27,58.27,0,0,0,7.5-4.14c1.32-.78,2.16,1,2.16,2.46v3.06c2.46-2.64,5.76-5.28,10.14-5.28,3.12,0,5.7,1.2,6.6,2.28a28.53,28.53,0,0,0-3.36,3.3A8.92,8.92,0,0,0,657.09,48c-2.94,0-4.62,1.8-7,4.2v5.64c2.94-1.62,7.38-4.56,9.24-4.56,4,0,7.5,2.58,7.5,7,0,4.86-6.06,6.72-9.84,6.72-3.18,0-5.52-1.86-6.9-2.46V65c0,4.26-8.7,12.06-9.9,12.66-.36.18-.66,0-.3-.36,1.08-1,5-7.68,5-11.52V51.5C644.85,50.06,644.43,49.46,642.93,49.16ZM658.59,64.7c2.4,0,2.94-.18,2.94-2.88,0-3.3-2.82-5.52-4.74-5.52-1.68,0-4.08,2.16-6.18,3.12C652.71,61.94,656,64.7,658.59,64.7Z"/><path d="M671.91,49.28a14.42,14.42,0,0,0-2.22-.18c-.54,0-.54-.3-.3-.42a58.27,58.27,0,0,0,7.5-4.14c1.32-.78,2.16,1,2.16,2.46V65.48c6.6-5.88,14.34-11.22,12.48-15.24-.84-1.8-2.34-3.06-3.84-3.06s-2.94,1.56-3.84,1.86c-.48.18-.72-.36-.54-.54a29,29,0,0,1,7-4.32c1.38-.6,4.62.3,6.6,3.9,4.14,7.56-19.14,14.34-19.14,26,0,.36-.18.36-.48.48a17,17,0,0,0-6.42,3.78c-.3.24-.3,0-.3-.42,0-2.4,1.32-4.86,3.3-7.2V51.62C673.83,50.18,673.41,49.58,671.91,49.28Z"/><path d="M738,59.42c0-4.92-1.86-7.92-5.28-7.92-2.64,0-7.8,3.36-10.26,4.92V66.5l-3.3,1.8c-.18.12-1.38.9-1.56,1.08-.48.42-.54.42-.48.12a15,15,0,0,0,.12-2V44.84c0-3.42,6.84-8.34,13.44-8.34a25.51,25.51,0,0,1,13.14,4.2c1.14.78.54.84.24,1.08a20.11,20.11,0,0,0-3.54,3.6c-.48.66-.6.84-1,.24-1.68-2.34-6.06-6.18-10.44-6.18s-6.6,1.68-6.6,5.1V53.9c2.7-1,8.1-5.4,11.22-5.4,5.64,0,10.68,3.78,10.68,9.24,0,6.84-8.76,10.56-13.14,11.88-.84.24-1-.06-.6-.3C733.17,67.94,738,65.18,738,59.42Z"/><path d="M766.17,36a16.7,16.7,0,0,1,12.24,5.58c.24.24.06.36-.12.48a15.76,15.76,0,0,0-4,4c-.24.36-.42.48-.6.06-1.14-2.52-4.56-7.44-10.26-7.44-2.82,0-6.54,1.74-6.54,5.64V64.7c0,7.2-10.14,8.4-13.8,8.4-1,0-.78-.42-.3-.54,3.66-1,8.88-4.68,8.88-7.86V44.42C751.71,38.78,757.53,36,766.17,36ZM751.71,63h0Z"/><path d="M794.91,36.74c6.24,0,11,2.16,11,4.62V66.5l-3.3,1.8c-.18.12-1.38.9-1.56,1.08-.48.42-.54.42-.48.12a15,15,0,0,0,.12-2V45c0-3.66-4.92-5.16-8-5.16s-7.56,1.44-11.46,4.5c-.54.42-1.08,0-.72-.54C781.83,41.78,786,36.74,794.91,36.74Z"/><path d="M829.83,42.14V57.86s5.28-4.74,7.2-4.74c2.7,0,7,1.44,7,6.54,0,3.9-5.16,9.24-8.82,9.24a9.07,9.07,0,0,1-5.94-2.1l-2.76,1.5c-.18.12-1.38.9-1.56,1.08-.48.42-.54.42-.48.12a15,15,0,0,0,.12-2V45c0-6.66-7.5-6.36-12.48-1.92-1.14,1-.9,0-.48-.54C818.31,33.08,829.83,37.7,829.83,42.14ZM836.07,67c1.8,0,3.06-1.32,3.06-3.54,0-6.3-3.9-7.32-4.86-6.6l-4.44,3.18v.48C829.83,63.5,835,67,836.07,67Z"/></svg>