<svg xmlns="http://www.w3.org/2000/svg" xmlns:xlink="http://www.w3.org/1999/xlink" viewBox="0 0 1125 197"><defs><style>.a{filter:url(#a);}.b{fill:url(#b);}</style><filter id="a" name="AI_Glow_00000098931084555454345100000012269539372359233195_"><feFlood result="0e2c6604-012e-4ee9-9320-56c6578cfca8" flood-color="#f6f6f6"/><feMorphology result="a38f926e-37b2-43b5-ada5-8260bf546902" operator="dilate" radius="1" in="SourceAlpha"/><feGaussianBlur result="7058078c-b35d-40ca-a44f-4dd30c688913" stdDeviation="2" in="a38f926e-37b2-43b5-ada5-8260bf546902"/><feComposite result="77e3cdc4-e17c-4d6d-a54c-b3e94af41aa9" operator="in" in="0e2c6604-012e-4ee9-9320-56c6578cfca8" in2="7058078c-b35d-40ca-a44f-4dd30c688913"/><feComposite result="390d450e-aa65-44c9-9c64-93d3f9c2e342" in="SourceGraphic" in2="77e3cdc4-e17c-4d6d-a54c-b3e94af41aa9"/></filter><linearGradient id="b" x1="669" y1="133.31" x2="713.5" y2="133.31" gradientUnits="userSpaceOnUse"><stop offset="0" stop-color="#4c5fbf"/><stop offset="0.3" stop-color="#4889d1"/><stop offset="0.5" stop-color="#47aadd"/><stop offset="1" stop-color="#fe9934"/></linearGradient></defs><g class="a"><path d="M304.44,53.17c6.24,0,11,2.16,11,4.62V82.93l-3.3,1.8c-.18.12-1.38.9-1.56,1.08-.48.42-.54.42-.48.12a15,15,0,0,0,.12-2V61.45c0-3.66-4.92-5.16-8-5.16s-7.56,1.44-11.46,4.5c-.54.42-1.08,0-.72-.54C291.36,58.21,295.5,53.17,304.44,53.17Z"/><path d="M321.42,57.55a14.42,14.42,0,0,0-2.22-.18c-.54,0-.54-.3-.3-.42a58.27,58.27,0,0,0,7.5-4.14c1.32-.78,2.16,1,2.16,2.46v16.5a19.28,19.28,0,0,0,5.22-2.1c3-1.56,4-3.36,4.26-4.68s-.9-1.92-1.44-2.28c-.36-.18-.42-.54.24-.54a21.9,21.9,0,0,0,5.58-.72c.6-.12.72.06.72,1.14,0,4.2-2.7,4.92-6.06,6.9,5.7.24,9.66,2.1,9.66,6.42,0,4.92-7.2,9.06-11.82,10.5-.6.18-.72-.06-.3-.36,2.64-1.68,6.3-5.4,6.3-9,0-2.22-1.38-5.4-7-5.76-2.28,1.26-4.26,2.16-5.4,2.76v8.82l-3.3,1.8c-.18.12-1.38.9-1.56,1.08-.48.42-.54.42-.48.12a15,15,0,0,0,.12-2v-24C323.34,58.45,322.92,57.85,321.42,57.55Z"/><path d="M361.62,61.09c8.16,0,12.24,5.34,12.24,10.68,0,8.28-9.78,11.58-14.64,11.94-.72.06-.6-.42,0-.66,4.74-2,8-4,8.46-8.82h-7.44c-.72,0-5.52.18-6.3.3-2,.36-2.28.3-1.62-.18.42-.3,2.7-2.58,3.54-3.36l.12-.12h11.64c-.72-5.52-4-7.86-7.14-7.86-4.32,0-7.08,2.7-7.08,4.68,0,.48-.12.66-.3.72a11.25,11.25,0,0,0-3.72,1.92c-.3.24-.72.48-.48-.24C349.56,68.29,352.74,61.09,361.62,61.09Z"/><path d="M408.24,52.45A16.7,16.7,0,0,1,420.48,58c.24.24.06.36-.12.48a15.76,15.76,0,0,0-4,4c-.24.36-.42.48-.6.06-1.14-2.52-4.56-7.44-10.26-7.44-2.82,0-6.54,1.74-6.54,5.64V82.93l-3.3,1.8c-.18.12-1.38.9-1.56,1.08-.48.42-.54.42-.48.12a15,15,0,0,0,.12-2V60.85C393.78,56.71,399.6,52.45,408.24,52.45Z"/><path d="M420.3,66.07a14.42,14.42,0,0,0-2.22-.18c-.54,0-.54-.3-.3-.42a58.27,58.27,0,0,0,7.5-4.14c1.32-.78,2.16,1,2.16,2.46V81l-3.3,1.8c-.18.12-1.38.9-1.56,1.08-.48.42-.54.42-.48.12a15,15,0,0,0,.12-2V68.41C422.22,67,421.8,66.37,420.3,66.07Z"/><path d="M449.94,77.29c0-2.7-1.8-4.26-4.86-4.26-1.92,0-5.22,2.7-6.9,3.78v4.32l-3.3,1.8c-.18.12-1.38.9-1.56,1.08-.48.42-.54.42-.48.12a15,15,0,0,0,.12-2V68.65c0-2.34,6.3-7.74,11.4-7.74s8.88,2,10.56,3.6c.66.66.48.66.24.84a15.66,15.66,0,0,0-2.58,2.7c-.36.6-.48.72-.78.18-1.38-2-3.42-4.8-7.8-4.8-3.72,0-5.82,2.46-5.82,3.54v7.62c2.16-.9,6.18-4,9.42-4,4.68,0,7.92,1.68,7.92,5.94,0,4.62-6.66,6.78-10.8,7.62-.48.12-.72-.06-.36-.24C446.34,82.93,449.94,81,449.94,77.29Z"/><path d="M471.72,61c5.76,0,9.42,2.52,9.42,5V91.69l-3.3,1.8c-.18.12-1.38.9-1.56,1.08-.48.42-.54.42-.48.12a15,15,0,0,0,.12-2V68.65c0-2.64-2.82-4.5-6.78-4.5-2.58,0-6.48,1.38-10.5,4.5-.6.48-1.32.06-.9-.48A16.16,16.16,0,0,1,471.72,61Z"/><path d="M503.88,80.17c-4.5-5.82-1.68-11.76,1.68-15.3,3.54-4,8.1-5.58,13.62-2.58,4.86,2.7,7.38,9.54,2.22,16.32C515.7,86.11,507,84.25,503.88,80.17Zm3.9-3.66c2.64,3.42,8.7,5,10.8,3,3.54-3.48,1-10.56-2.16-13.08-3.48-2.64-7.5-2.94-9.3-1.08C504.66,67.93,505.56,73.63,507.78,76.51Z"/><path d="M540.48,60.73c5.52,0,9.6,3.78,10.86,5.34.24.3-.3.6-.48.78a20.91,20.91,0,0,0-3.12,3.36c-.18.24-.36.3-.54,0-1.2-2.4-4.68-7.56-8.52-7.56-3.54,0-5.52,2.88-5.52,6.78V91.57l-3.3,1.8c-.18.12-1.38.9-1.56,1.08-.48.42-.54.42-.48.12a15,15,0,0,0,.12-2V69.49C527.94,66,533.16,60.73,540.48,60.73Z"/><path d="M582.3,61c5.76,0,9.42,2.52,9.42,5V91.69l-3.3,1.8c-.18.12-1.38.9-1.56,1.08-.48.42-.54.42-.48.12a15,15,0,0,0,.12-2V68.65c0-2.64-2.82-4.5-6.78-4.5-2.58,0-6.48,1.38-10.5,4.5-.6.48-1.32.06-.9-.48A16.16,16.16,0,0,1,582.3,61Z"/><path d="M597.72,57.55a14.42,14.42,0,0,0-2.22-.18c-.54,0-.54-.3-.3-.42a58.27,58.27,0,0,0,7.5-4.14c1.32-.78,2.16,1,2.16,2.46v16.5a19.28,19.28,0,0,0,5.22-2.1c3-1.56,4-3.36,4.26-4.68s-.9-1.92-1.44-2.28c-.36-.18-.42-.54.24-.54a21.9,21.9,0,0,0,5.58-.72c.6-.12.72.06.72,1.14,0,4.2-2.7,4.92-6.06,6.9,5.7.24,9.66,2.1,9.66,6.42,0,4.92-7.2,9.06-11.82,10.5-.6.18-.72-.06-.3-.36,2.64-1.68,6.3-5.4,6.3-9,0-2.22-1.38-5.4-7-5.76-2.28,1.26-4.26,2.16-5.4,2.76v8.82l-3.3,1.8c-.18.12-1.38.9-1.56,1.08-.48.42-.54.42-.48.12a15,15,0,0,0,.12-2v-24C599.64,58.45,599.22,57.85,597.72,57.55Z"/><path d="M637.92,61.09c8.16,0,12.24,5.34,12.24,10.68,0,8.28-9.78,11.58-14.64,11.94-.72.06-.6-.42,0-.66,4.74-2,8-4,8.46-8.82h-7.44c-.72,0-5.52.18-6.3.3-2,.36-2.28.3-1.62-.18.42-.3,2.7-2.58,3.54-3.36l.12-.12h11.64c-.72-5.52-4-7.86-7.14-7.86-4.32,0-7.08,2.7-7.08,4.68,0,.48-.12.66-.3.72a11.25,11.25,0,0,0-3.72,1.92c-.3.24-.72.48-.48-.24C625.86,68.29,629,61.09,637.92,61.09Z"/><path d="M684.54,52.45A16.7,16.7,0,0,1,696.78,58c.24.24.06.36-.12.48a15.76,15.76,0,0,0-4,4c-.24.36-.42.48-.6.06-1.14-2.52-4.56-7.44-10.26-7.44-2.82,0-6.54,1.74-6.54,5.64V82.93l-3.3,1.8c-.18.12-1.38.9-1.56,1.08-.48.42-.54.42-.48.12a15,15,0,0,0,.12-2V60.85C670.08,56.71,675.9,52.45,684.54,52.45Z"/><path d="M695,65.59a14.42,14.42,0,0,0-2.22-.18c-.54,0-.54-.3-.3-.42a58.27,58.27,0,0,0,7.5-4.14c1.32-.78,2.16,1,2.16,2.46v3.06c2.46-2.64,5.76-5.28,10.14-5.28,3.12,0,5.7,1.2,6.6,2.28a28.53,28.53,0,0,0-3.36,3.3,8.92,8.92,0,0,0-6.36-2.22c-2.94,0-4.62,1.8-7,4.2v5.64c2.94-1.62,7.38-4.56,9.24-4.56,4,0,7.5,2.58,7.5,7,0,4.86-6.06,6.72-9.84,6.72-3.18,0-5.52-1.86-6.9-2.46v.48c0,4.26-8.7,12.06-9.9,12.66-.36.18-.66,0-.3-.36,1.08-1,5-7.68,5-11.52V67.93C697,66.49,696.54,65.89,695,65.59ZM710.7,81.13c2.4,0,2.94-.18,2.94-2.88,0-3.3-2.82-5.52-4.74-5.52-1.68,0-4.08,2.16-6.18,3.12C704.82,78.37,708.12,81.13,710.7,81.13Z"/><path d="M735.12,61c5.76,0,9.42,2.52,9.42,5V91.69l-3.3,1.8c-.18.12-1.38.9-1.56,1.08-.48.42-.54.42-.48.12a15,15,0,0,0,.12-2V68.65c0-2.64-2.82-4.5-6.78-4.5-2.58,0-6.48,1.38-10.5,4.5-.6.48-1.32.06-.9-.48A16.16,16.16,0,0,1,735.12,61Z"/><path d="M750.54,57.55a14.42,14.42,0,0,0-2.22-.18c-.54,0-.54-.3-.3-.42a58.27,58.27,0,0,0,7.5-4.14c1.32-.78,2.16,1,2.16,2.46v16.5a19.28,19.28,0,0,0,5.22-2.1c3-1.56,4-3.36,4.26-4.68s-.9-1.92-1.44-2.28c-.36-.18-.42-.54.24-.54a21.9,21.9,0,0,0,5.58-.72c.6-.12.72.06.72,1.14,0,4.2-2.7,4.92-6.06,6.9,5.7.24,9.66,2.1,9.66,6.42,0,4.92-7.2,9.06-11.82,10.5-.6.18-.72-.06-.3-.36,2.64-1.68,6.3-5.4,6.3-9,0-2.22-1.38-5.4-7-5.76-2.28,1.26-4.26,2.16-5.4,2.76v8.82l-3.3,1.8c-.18.12-1.38.9-1.56,1.08-.48.42-.54.42-.48.12a15,15,0,0,0,.12-2v-24C752.46,58.45,752,57.85,750.54,57.55Z"/><path d="M790.74,61.09c8.16,0,12.24,5.34,12.24,10.68,0,8.28-9.78,11.58-14.64,11.94-.72.06-.6-.42,0-.66,4.74-2,8-4,8.46-8.82h-7.44c-.72,0-5.52.18-6.3.3-2,.36-2.28.3-1.62-.18.42-.3,2.7-2.58,3.54-3.36l.12-.12h11.64c-.72-5.52-4-7.86-7.14-7.86-4.32,0-7.08,2.7-7.08,4.68,0,.48-.12.66-.3.72a11.25,11.25,0,0,0-3.72,1.92c-.3.24-.72.48-.48-.24C778.68,68.29,781.86,61.09,790.74,61.09Z"/><path d="M807.78,65.77a14.42,14.42,0,0,0-2.22-.18c-.54,0-.54-.3-.3-.42a58.27,58.27,0,0,0,7.5-4.14c1.32-.78,2.16,1,2.16,2.46v2.34c2.4-2.7,6.9-5,9.54-5,2.88,0,7.62,2.7,7.62,7,0,3.3-2.7,5.82-6.06,6.78V85.51c0,5.4,1.5,7.38,4,7.38a6.27,6.27,0,0,0,4.62-2.46c.3-.36.66.06.48.48-.9,1.92-3.9,5-6.78,5-4.74,0-7.5-3.06-7.5-9.12v-12a5.62,5.62,0,0,1-1-.24c-.78-.24-1-.78,0-1,1.32-.24,6.12-.54,6.12-5,0-2.76-1.68-5.16-4.74-5.16-2,0-5,2.52-6.3,4.14V81l-3.3,1.8c-.18.12-1.38.9-1.56,1.08-.48.42-.54.42-.48.12a15,15,0,0,0,.12-2V68.11C809.7,66.67,809.28,66.07,807.78,65.77Z"/><path d="M304.44,113.17c6.24,0,11,2.16,11,4.62v25.14l-3.3,1.8c-.18.12-1.38.9-1.56,1.08-.48.42-.54.42-.48.12a15,15,0,0,0,.12-2v-22.5c0-3.66-4.92-5.16-8-5.16s-7.56,1.44-11.46,4.5c-.54.42-1.08,0-.72-.54C291.36,118.21,295.5,113.17,304.44,113.17Z"/><path d="M321.42,117.55a14.42,14.42,0,0,0-2.22-.18c-.54,0-.54-.3-.3-.42a58.27,58.27,0,0,0,7.5-4.14c1.32-.78,2.16,1,2.16,2.46v16.5a19.28,19.28,0,0,0,5.22-2.1c3-1.56,4-3.36,4.26-4.68s-.9-1.92-1.44-2.28c-.36-.18-.42-.54.24-.54a21.9,21.9,0,0,0,5.58-.72c.6-.12.72.06.72,1.14,0,4.2-2.7,4.92-6.06,6.9,5.7.24,9.66,2.1,9.66,6.42,0,4.92-7.2,9.06-11.82,10.5-.6.18-.72-.06-.3-.36,2.64-1.68,6.3-5.4,6.3-9,0-2.22-1.38-5.4-7-5.76-2.28,1.26-4.26,2.16-5.4,2.76v8.82l-3.3,1.8c-.18.12-1.38.9-1.56,1.08-.48.42-.54.42-.48.12a15,15,0,0,0,.12-2v-24C323.34,118.45,322.92,117.85,321.42,117.55Z"/><path d="M361.62,121.09c8.16,0,12.24,5.34,12.24,10.68,0,8.28-9.78,11.58-14.64,11.94-.72.06-.6-.42,0-.66,4.74-2,8-4,8.46-8.82h-7.44c-.72,0-5.52.18-6.3.3-2,.36-2.28.3-1.62-.18.42-.3,2.7-2.58,3.54-3.36l.12-.12h11.64c-.72-5.52-4-7.86-7.14-7.86-4.32,0-7.08,2.7-7.08,4.68,0,.48-.12.66-.3.72a11.25,11.25,0,0,0-3.72,1.92c-.3.24-.72.48-.48-.24C349.56,128.29,352.74,121.09,361.62,121.09Z"/><path d="M408.24,112.45A16.7,16.7,0,0,1,420.48,118c.24.24.06.36-.12.48a15.76,15.76,0,0,0-4,4c-.24.36-.42.48-.6.06-1.14-2.52-4.56-7.44-10.26-7.44-2.82,0-6.54,1.74-6.54,5.64v22.14l-3.3,1.8c-.18.12-1.38.9-1.56,1.08-.48.42-.54.42-.48.12a15,15,0,0,0,.12-2v-23.1C393.78,116.71,399.6,112.45,408.24,112.45Z"/><path d="M420.3,126.07a14.42,14.42,0,0,0-2.22-.18c-.54,0-.54-.3-.3-.42a58.27,58.27,0,0,0,7.5-4.14c1.32-.78,2.16,1,2.16,2.46V141l-3.3,1.8c-.18.12-1.38.9-1.56,1.08-.48.42-.54.42-.48.12a15,15,0,0,0,.12-2V128.41C422.22,127,421.8,126.37,420.3,126.07Z"/><path d="M449.94,137.29c0-2.7-1.8-4.26-4.86-4.26-1.92,0-5.22,2.7-6.9,3.78v4.32l-3.3,1.8c-.18.12-1.38.9-1.56,1.08-.48.42-.54.42-.48.12a15,15,0,0,0,.12-2v-13.5c0-2.34,6.3-7.74,11.4-7.74s8.88,2,10.56,3.6c.66.66.48.66.24.84a15.66,15.66,0,0,0-2.58,2.7c-.36.6-.48.72-.78.18-1.38-2-3.42-4.8-7.8-4.8-3.72,0-5.82,2.46-5.82,3.54v7.62c2.16-.9,6.18-4,9.42-4,4.68,0,7.92,1.68,7.92,5.94,0,4.62-6.66,6.78-10.8,7.62-.48.12-.72-.06-.36-.24C446.34,142.93,449.94,141,449.94,137.29Z"/><path d="M471.72,121c5.76,0,9.42,2.52,9.42,5v25.68l-3.3,1.8c-.18.12-1.38.9-1.56,1.08-.48.42-.54.42-.48.12a15,15,0,0,0,.12-2V128.65c0-2.64-2.82-4.5-6.78-4.5-2.58,0-6.48,1.38-10.5,4.5-.6.48-1.32.06-.9-.48A16.16,16.16,0,0,1,471.72,121Z"/><path d="M503.88,140.17c-4.5-5.82-1.68-11.76,1.68-15.3,3.54-4,8.1-5.58,13.62-2.58,4.86,2.7,7.38,9.54,2.22,16.32C515.7,146.11,507,144.25,503.88,140.17Zm3.9-3.66c2.64,3.42,8.7,5,10.8,3,3.54-3.48,1-10.56-2.16-13.08-3.48-2.64-7.5-2.94-9.3-1.08C504.66,127.93,505.56,133.63,507.78,136.51Z"/><path d="M540.48,120.73c5.52,0,9.6,3.78,10.86,5.34.24.3-.3.6-.48.78a20.91,20.91,0,0,0-3.12,3.36c-.18.24-.36.3-.54,0-1.2-2.4-4.68-7.56-8.52-7.56-3.54,0-5.52,2.88-5.52,6.78v22.14l-3.3,1.8c-.18.12-1.38.9-1.56,1.08-.48.42-.54.42-.48.12a15,15,0,0,0,.12-2v-23.1C527.94,126,533.16,120.73,540.48,120.73Z"/><path d="M582.3,121c5.76,0,9.42,2.52,9.42,5v25.68l-3.3,1.8c-.18.12-1.38.9-1.56,1.08-.48.42-.54.42-.48.12a15,15,0,0,0,.12-2V128.65c0-2.64-2.82-4.5-6.78-4.5-2.58,0-6.48,1.38-10.5,4.5-.6.48-1.32.06-.9-.48A16.16,16.16,0,0,1,582.3,121Z"/><path d="M597.72,117.55a14.42,14.42,0,0,0-2.22-.18c-.54,0-.54-.3-.3-.42a58.27,58.27,0,0,0,7.5-4.14c1.32-.78,2.16,1,2.16,2.46v16.5a19.28,19.28,0,0,0,5.22-2.1c3-1.56,4-3.36,4.26-4.68s-.9-1.92-1.44-2.28c-.36-.18-.42-.54.24-.54a21.9,21.9,0,0,0,5.58-.72c.6-.12.72.06.72,1.14,0,4.2-2.7,4.92-6.06,6.9,5.7.24,9.66,2.1,9.66,6.42,0,4.92-7.2,9.06-11.82,10.5-.6.18-.72-.06-.3-.36,2.64-1.68,6.3-5.4,6.3-9,0-2.22-1.38-5.4-7-5.76-2.28,1.26-4.26,2.16-5.4,2.76v8.82l-3.3,1.8c-.18.12-1.38.9-1.56,1.08-.48.42-.54.42-.48.12a15,15,0,0,0,.12-2v-24C599.64,118.45,599.22,117.85,597.72,117.55Z"/><path d="M637.92,121.09c8.16,0,12.24,5.34,12.24,10.68,0,8.28-9.78,11.58-14.64,11.94-.72.06-.6-.42,0-.66,4.74-2,8-4,8.46-8.82h-7.44c-.72,0-5.52.18-6.3.3-2,.36-2.28.3-1.62-.18.42-.3,2.7-2.58,3.54-3.36l.12-.12h11.64c-.72-5.52-4-7.86-7.14-7.86-4.32,0-7.08,2.7-7.08,4.68,0,.48-.12.66-.3.72a11.25,11.25,0,0,0-3.72,1.92c-.3.24-.72.48-.48-.24C625.86,128.29,629,121.09,637.92,121.09Z"/><path class="b" d="M685.5,112.45c5.46,0,11.82,1,11.82,8.64v5.34c2.46-2.64,5.76-5.34,10.2-5.34,3.12,0,5.7,1.2,6.6,2.28a28.53,28.53,0,0,0-3.36,3.3,8.92,8.92,0,0,0-6.36-2.22c-2.94,0-4.68,1.8-7.08,4.26l.06,5.58c2.94-1.62,7.38-4.56,9.24-4.56,4,0,7.5,2.58,7.5,7,0,4.86-6.06,6.72-9.84,6.72-3.18,0-5.52-1.86-6.9-2.46v.48c0,4.26-8.7,12.06-9.9,12.66-.36.18-.66,0-.3-.36,1.08-1,5-7.68,5-11.52V142l-.06-18.84c0-7.2-5.64-8-10-8-4,0-6.84,2.22-6.84,4.86v22.92l-3.3,1.8c-.18.12-1.38.9-1.56,1.08-.48.42-.54.42-.48.12a15,15,0,0,0,.12-2V121.33C670.08,117,678.42,112.45,685.5,112.45Zm20.4,28.68c2.4,0,2.94-.18,2.94-2.88,0-3.3-2.82-5.52-4.74-5.52-1.68,0-4.08,2.16-6.18,3.12C700,138.37,703.32,141.13,705.9,141.13Z"/><path d="M730.32,121c5.76,0,9.42,2.52,9.42,5v25.68l-3.3,1.8c-.18.12-1.38.9-1.56,1.08-.48.42-.54.42-.48.12a15,15,0,0,0,.12-2V128.65c0-2.64-2.82-4.5-6.78-4.5-2.58,0-6.48,1.38-10.5,4.5-.6.48-1.32.06-.9-.48A16.16,16.16,0,0,1,730.32,121Z"/><path d="M745.74,117.55a14.42,14.42,0,0,0-2.22-.18c-.54,0-.54-.3-.3-.42a58.27,58.27,0,0,0,7.5-4.14c1.32-.78,2.16,1,2.16,2.46v16.5a19.28,19.28,0,0,0,5.22-2.1c3-1.56,4-3.36,4.26-4.68s-.9-1.92-1.44-2.28c-.36-.18-.42-.54.24-.54a21.9,21.9,0,0,0,5.58-.72c.6-.12.72.06.72,1.14,0,4.2-2.7,4.92-6.06,6.9,5.7.24,9.66,2.1,9.66,6.42,0,4.92-7.2,9.06-11.82,10.5-.6.18-.72-.06-.3-.36,2.64-1.68,6.3-5.4,6.3-9,0-2.22-1.38-5.4-7-5.76-2.28,1.26-4.26,2.16-5.4,2.76v8.82l-3.3,1.8c-.18.12-1.38.9-1.56,1.08-.48.42-.54.42-.48.12a15,15,0,0,0,.12-2v-24C747.66,118.45,747.24,117.85,745.74,117.55Z"/><path d="M785.94,121.09c8.16,0,12.24,5.34,12.24,10.68,0,8.28-9.78,11.58-14.64,11.94-.72.06-.6-.42,0-.66,4.74-2,8-4,8.46-8.82h-7.44c-.72,0-5.52.18-6.3.3-2,.36-2.28.3-1.62-.18.42-.3,2.7-2.58,3.54-3.36l.12-.12h11.64c-.72-5.52-4-7.86-7.14-7.86-4.32,0-7.08,2.7-7.08,4.68,0,.48-.12.66-.3.72a11.25,11.25,0,0,0-3.72,1.92c-.3.24-.72.48-.48-.24C773.88,128.29,777.06,121.09,785.94,121.09Z"/><path d="M803,125.77a14.42,14.42,0,0,0-2.22-.18c-.54,0-.54-.3-.3-.42A58.27,58.27,0,0,0,808,121c1.32-.78,2.16,1,2.16,2.46v2.34c2.4-2.7,6.9-5,9.54-5,2.88,0,7.62,2.7,7.62,7,0,3.3-2.7,5.82-6.06,6.78v10.92c0,5.4,1.5,7.38,4,7.38a6.27,6.27,0,0,0,4.62-2.46c.3-.36.66.06.48.48-.9,1.92-3.9,5-6.78,5-4.74,0-7.5-3.06-7.5-9.12v-12a5.62,5.62,0,0,1-1-.24c-.78-.24-1-.78,0-1,1.32-.24,6.12-.54,6.12-5,0-2.76-1.68-5.16-4.74-5.16-2,0-5,2.52-6.3,4.14V141l-3.3,1.8c-.18.12-1.38.9-1.56,1.08-.48.42-.54.42-.48.12a15,15,0,0,0,.12-2V128.11C804.9,126.67,804.48,126.07,803,125.77Z"/></g></svg>