<?xml version="1.0" encoding="utf-8"?>
<!-- Generator: Adobe Illustrator 25.4.1, SVG Export Plug-In . SVG Version: 6.00 Build 0)  -->
<svg version="1.1" xmlns="http://www.w3.org/2000/svg" xmlns:xlink="http://www.w3.org/1999/xlink" x="0px" y="0px"
	 viewBox="0 0 1125 150" style="enable-background:new 0 0 1125 150;" xml:space="preserve">
<style type="text/css">
	.st0{display:none;}
	.st1{display:inline;}
	.st2{fill:url(#SVGID_1_);}
	.st3{fill:url(#SVGID_00000025406575054550694950000014148027778109634997_);}
	.st4{fill:url(#SVGID_00000155852799714054720400000014254110311171809930_);}
	.st5{fill:url(#SVGID_00000168096063147243112720000003877157680254688692_);}
	.st6{fill:url(#SVGID_00000006698877660325967120000000243309247563502254_);}
	.st7{fill:url(#SVGID_00000137837969732707652510000014886271808164340101_);}
	.st8{fill:url(#SVGID_00000041997111311735341090000010931654077581872303_);}
	.st9{fill:url(#SVGID_00000083803572284681153200000018054169314378196364_);}
	.st10{fill:url(#SVGID_00000021094935773159475500000000838575073670728337_);}
	.st11{fill:url(#SVGID_00000078011548353782212320000006512224153435126407_);}
	.st12{fill:url(#SVGID_00000182496102247609652460000015706869166217012374_);}
	.st13{fill:url(#SVGID_00000150822761130933679800000002276135181020500383_);}
	.st14{fill:url(#SVGID_00000000940243665811986220000009319890885101042093_);}
	.st15{fill:url(#SVGID_00000170269326515636628010000004066674590789831854_);}
	.st16{fill:url(#SVGID_00000155123353819316060510000008578426255970268821_);}
	.st17{fill:url(#SVGID_00000042698796803309422730000007566491083684894625_);}
	.st18{fill:url(#SVGID_00000064324108036420659680000005007393315435448208_);}
	.st19{fill:url(#SVGID_00000066511917580923760640000007543058742261659829_);}
	.st20{fill:url(#SVGID_00000004531514107617337010000015351813001920192440_);}
	.st21{fill:url(#SVGID_00000044858003630380079730000005209005621493468345_);}
	.st22{fill:url(#SVGID_00000173860292631836269240000009781605197662298789_);}
	.st23{fill:url(#SVGID_00000088125022307150349060000012800180258276121018_);}
	.st24{fill:url(#SVGID_00000056416782972591941950000001896713024472877744_);}
	.st25{fill:url(#SVGID_00000103223471892780860750000018207523431065448121_);}
	.st26{fill:url(#SVGID_00000152947343174138562960000013930754529641159609_);}
	.st27{fill:url(#SVGID_00000023965146288289834200000008680510882524443296_);}
	.st28{fill:url(#SVGID_00000028317839770075626080000004723462276991437980_);}
	.st29{fill:url(#SVGID_00000147219355287573589830000018401124671760321423_);}
	.st30{fill:url(#SVGID_00000084512096361885813230000014007304903478314940_);}
	.st31{fill:url(#SVGID_00000173153137460555717040000009194005212440863134_);}
	.st32{fill:url(#SVGID_00000090282627666844719190000007292816046978149051_);}
	.st33{fill:url(#SVGID_00000017494956306210437750000010266876961787568768_);}
	.st34{fill:url(#SVGID_00000029005476872198699320000010938210791411236237_);}
	.st35{fill:url(#SVGID_00000041280800292336648370000008727220730437631164_);}
	.st36{fill:url(#SVGID_00000067930141582748346330000012012816947768669108_);}
	.st37{fill:url(#SVGID_00000114032003726285704620000011969240798867412632_);}
	.st38{fill:url(#SVGID_00000122722265157774206610000006958023126288608129_);}
	.st39{fill:url(#SVGID_00000173847612227155039200000015312811568442814644_);}
	.st40{fill:url(#SVGID_00000152970364497622121350000001297503460370871731_);}
	.st41{fill:url(#SVGID_00000070103640836261881580000004418345528767273867_);}
	.st42{fill:url(#SVGID_00000173148110337618952480000005749857255567662237_);}
	.st43{fill:url(#SVGID_00000056400480528183175470000013968696565214852793_);}
	.st44{fill:url(#SVGID_00000013169673663032261910000007533595578864527245_);}
	.st45{fill:url(#SVGID_00000043446761027334122010000008074633944180414911_);}
	.st46{fill:url(#SVGID_00000075149132502210018580000010620796082643976089_);}
	.st47{fill:url(#SVGID_00000155856040622050002410000013650914112237293728_);}
	.st48{fill:url(#SVGID_00000003098459869422403390000009648184003851334025_);}
	.st49{fill:url(#SVGID_00000145761978570281986250000016948717184293580684_);}
	.st50{fill:url(#SVGID_00000150079369872682031400000007536923927766570121_);}
	.st51{fill:url(#SVGID_00000049908841172245363770000011259170719225163454_);}
	.st52{fill:url(#SVGID_00000076605491453763581350000015151350571805104777_);}
	.st53{fill:url(#SVGID_00000085215534267867316250000011679160217193228453_);}
	.st54{fill:url(#SVGID_00000164516210104646874120000002615183453340508047_);}
	.st55{fill:url(#SVGID_00000034056170531960146830000009792836668934804608_);}
	.st56{fill:url(#SVGID_00000011004169672663004580000016518372376639139241_);}
	.st57{fill:url(#SVGID_00000105403239998066884410000011180852797927963536_);}
	.st58{fill:url(#SVGID_00000060725660712337184950000014555309494656801666_);}
	.st59{fill:url(#SVGID_00000158004450088711073450000007466500042434104728_);}
	.st60{fill:url(#SVGID_00000143607230904532559000000007150769140636945282_);}
	.st61{fill:url(#SVGID_00000159472228852111301640000015508468320974191271_);}
	.st62{fill:url(#SVGID_00000052079459259326818300000017875160601525774010_);}
	.st63{fill:url(#SVGID_00000170992095393288506440000013439566514534095258_);}
	.st64{fill:url(#SVGID_00000098187931305675320550000012894342647357359764_);}
	.st65{fill:url(#SVGID_00000109012558965484641080000000504671218304193715_);}
	.st66{fill:url(#SVGID_00000162338032707295762420000015668599360186854278_);}
	.st67{fill:url(#SVGID_00000093134778449566591650000002087636250922745752_);}
	.st68{fill:url(#SVGID_00000034060473599814142590000006566828510749215157_);}
	.st69{fill:url(#SVGID_00000022536862801115571960000004283664264683969162_);}
	.st70{fill:url(#SVGID_00000149352639332172782560000004192665977876657801_);}
	.st71{fill:url(#SVGID_00000111171520875617055380000010225871950790087314_);}
	.st72{fill:url(#SVGID_00000127024440799727662810000018236918990487057075_);}
	.st73{fill:url(#SVGID_00000142161460185986844630000002917228998238463127_);}
	.st74{fill:url(#SVGID_00000021097943269142086840000010172396593243511487_);}
	.st75{fill:url(#SVGID_00000065794491650376560640000017943473577675122055_);}
	.st76{fill:url(#SVGID_00000173160912557320975170000007469371002635250593_);}
	.st77{fill:url(#SVGID_00000183940439914016941850000014276506496762663573_);}
	.st78{fill:url(#SVGID_00000062899332997221982600000006790241152613589419_);}
	.st79{fill:url(#SVGID_00000133529374771514351900000011916891748685365638_);}
	.st80{fill:url(#SVGID_00000161621341178747176340000016139374016831043736_);}
	.st81{fill:url(#SVGID_00000090997185574618106440000000524299764272393397_);}
	.st82{fill:url(#SVGID_00000055675483790065671940000006914518213868354489_);}
	.st83{fill:url(#SVGID_00000101084924973542405120000000618782639022163122_);}
	.st84{fill:url(#SVGID_00000101811536453942727020000018075556080293654203_);}
	.st85{fill:url(#SVGID_00000147927842862796724200000016297596602675040418_);}
	.st86{fill:url(#SVGID_00000021826659771524127070000017580170037712160669_);}
	.st87{fill:url(#SVGID_00000110464292475288217120000008785756062056773004_);}
	.st88{fill:url(#SVGID_00000067198254146711466270000004480795291024474809_);}
	.st89{fill:url(#SVGID_00000101078620789917522000000003656488694923268758_);}
	.st90{fill:url(#SVGID_00000029736793505745201490000014663913116950559676_);}
	.st91{fill:url(#SVGID_00000074433064339315222510000008963613508063073723_);}
	.st92{fill:url(#SVGID_00000147217073206859099680000004330333684177865404_);}
	.st93{fill:url(#SVGID_00000099652130630063866690000017660070749072754583_);}
	.st94{fill:url(#SVGID_00000101077637024255069840000015370287841861505203_);}
	.st95{fill:url(#SVGID_00000163056309420988029190000008744222339443033257_);}
	.st96{fill:url(#SVGID_00000101825244905020025600000008525622398018700176_);}
	.st97{fill:url(#SVGID_00000147179352323343955370000010855621040827929731_);}
	.st98{fill:url(#SVGID_00000178194872972030746140000005516928718325444268_);}
	.st99{fill:url(#SVGID_00000004508980305242176920000012428730212459493813_);}
	.st100{fill:url(#SVGID_00000049918684821765567390000016485741371465721001_);}
	.st101{fill:url(#SVGID_00000002347490709729964470000012772931581092982690_);}
	.st102{fill:url(#SVGID_00000108993355376926995720000007081352597071065517_);}
	.st103{fill:url(#SVGID_00000048463423420193404450000000120571770996269195_);}
	.st104{fill:url(#SVGID_00000172424880648079244260000000760386874815056558_);}
	.st105{fill:url(#SVGID_00000119117095220998581390000000490913241490319524_);}
	.st106{fill:url(#SVGID_00000182527986894343608560000008664300820193122980_);}
	.st107{fill:url(#SVGID_00000090985208523189930340000012435759981876349586_);}
	.st108{fill:url(#SVGID_00000169517849664925974600000006400132500186008494_);}
	.st109{fill:url(#SVGID_00000142177608301245791290000015423541376461332623_);}
	.st110{fill:url(#SVGID_00000167398235489977790770000000069676827164349101_);}
	.st111{fill:url(#SVGID_00000038408208472455356210000007761543351861533339_);}
	.st112{fill:url(#SVGID_00000106112611936676907550000016824032391267574704_);}
	.st113{fill:url(#SVGID_00000159449791592427884680000005262829641857677450_);}
	.st114{fill:url(#SVGID_00000147220707232386547040000004047449949065968522_);}
	.st115{fill:url(#SVGID_00000065757566991668483940000004899019980553776823_);}
	.st116{fill:url(#SVGID_00000072241042617959373980000005011754684309899199_);}
	.st117{fill:url(#SVGID_00000146500400440190812180000005821462842455346847_);}
	.st118{fill:url(#SVGID_00000049221238929887723550000002740525703769703868_);}
	.st119{fill:url(#SVGID_00000059300796895140785670000003897946314198234290_);}
	.st120{fill:url(#SVGID_00000112595421999478776850000007379047266685330844_);}
	.st121{fill:url(#SVGID_00000083074718622466440060000000112861877905777802_);}
	.st122{fill:url(#SVGID_00000179642843085292171850000016207282141639904933_);}
	.st123{fill:#FFFFFF;}
	.st124{fill:url(#SVGID_00000096022202277938308080000008712548608986838165_);}
	.st125{fill:url(#SVGID_00000182488547424786567010000015316465324747721355_);}
	.st126{fill:url(#SVGID_00000003075334914649249850000013901937349057318018_);}
	.st127{fill:url(#SVGID_00000023275425775472337260000017964600602323809445_);}
	.st128{fill:url(#SVGID_00000134968242990824969070000004943059108292401585_);}
	.st129{fill:url(#SVGID_00000116952406145436905480000002877822612407952527_);}
	.st130{fill:url(#SVGID_00000116944529859516436470000017992130134340707257_);}
	.st131{fill:url(#SVGID_00000020366454362605445650000015019196111793669780_);}
	.st132{fill:url(#SVGID_00000054224701821807248560000003324514792006193311_);}
	.st133{fill:url(#SVGID_00000139290946613727053990000001259443152464373651_);}
	.st134{fill:url(#SVGID_00000138561957267971243200000016014785024790753460_);}
	.st135{fill:url(#SVGID_00000011712475081820879480000017552151571798069181_);}
	.st136{fill:url(#SVGID_00000124141038574485884110000017433550604644265882_);}
	.st137{fill:url(#SVGID_00000139292404307809192150000000508633271070674366_);}
	.st138{fill:url(#SVGID_00000018938929897573658820000002303422651484632974_);}
	.st139{fill:url(#SVGID_00000116953085476898510290000000356195094632884869_);}
	.st140{fill:url(#SVGID_00000165913118537704635430000014464230161339135617_);}
	.st141{fill:url(#SVGID_00000106111171172499564870000014585573726476771732_);}
	.st142{fill:url(#SVGID_00000063596664719460689990000009685637376086167729_);}
	.st143{fill:url(#SVGID_00000169547958703929550060000000787996786427485322_);}
	.st144{fill:url(#SVGID_00000002344910174114712870000007702590566352230560_);}
	.st145{fill:url(#SVGID_00000071541615229291384700000009757211892384959930_);}
	.st146{fill:url(#SVGID_00000084509774558157622780000012439646384829135528_);}
	.st147{fill:url(#SVGID_00000179621605924399942280000015258400945736947863_);}
	.st148{fill:url(#SVGID_00000037682729471639805450000003995149161991189688_);}
	.st149{fill:url(#SVGID_00000072960967255666667730000016954460059395731075_);}
	.st150{fill:url(#SVGID_00000001633650550185672520000017874412295003768997_);}
	.st151{fill:url(#SVGID_00000175317044909707270130000011996571872351603343_);}
	.st152{fill:url(#SVGID_00000093864604849216600550000002943111199425528746_);}
	.st153{fill:url(#SVGID_00000009559556841008856100000003707640588430082710_);}
	.st154{fill:url(#SVGID_00000057118865588159260680000009805896056637058222_);}
	.st155{fill:url(#SVGID_00000104682920475623183500000011980840022808870296_);}
	.st156{fill:url(#SVGID_00000054233072117815212790000006749335791888998795_);}
	.st157{fill:url(#SVGID_00000077312119351219816290000014508792488478371230_);}
	.st158{fill:url(#SVGID_00000008121034693694072050000017310937263772524221_);}
	.st159{fill:url(#SVGID_00000077304227412425842600000006760416540714897039_);}
	.st160{fill:url(#SVGID_00000017512531971102460710000000224261450315390393_);}
	.st161{fill:url(#SVGID_00000054988445273437609150000002589981722001832862_);}
	.st162{fill:url(#SVGID_00000130608672384543642030000001857819194874252195_);}
	.st163{fill:url(#SVGID_00000093135398522024038410000006846375447080988074_);}
	.st164{fill:url(#SVGID_00000155839205446647513520000017153965759653031854_);}
	.st165{fill:url(#SVGID_00000039834850385561183180000007309861404720061364_);}
	.st166{fill:url(#SVGID_00000143610208473329077790000016842328316275902379_);}
	.st167{fill:url(#SVGID_00000114778076588396017610000013704938445952928185_);}
	.st168{fill:url(#SVGID_00000025420834940144614390000014594141397466167939_);}
	.st169{fill:url(#SVGID_00000127021356291834998100000005450766825794730140_);}
	.st170{fill:url(#SVGID_00000005955916889210955780000008825198309815659956_);}
	.st171{fill:url(#SVGID_00000140719108910719245050000009269025347607901074_);}
	.st172{fill:url(#SVGID_00000072997401994823109750000010782878800873350274_);}
	.st173{fill:url(#SVGID_00000108296241796290825920000006741214634551703715_);}
	.st174{fill:url(#SVGID_00000076567989743827541580000011377687604894123687_);}
	.st175{fill:url(#SVGID_00000133528355946326113570000018026131700065958066_);}
	.st176{fill:url(#SVGID_00000008856013385626528760000010159604647682041742_);}
	.st177{fill:url(#SVGID_00000138558116332821927100000016724131224393804221_);}
	.st178{fill:url(#SVGID_00000075859430905280231590000010411977079870560173_);}
	.st179{fill:url(#SVGID_00000064335911407873997590000015509893124372668558_);}
	.st180{fill:url(#SVGID_00000059310690021268875300000006814106435255020954_);}
	.st181{fill:url(#SVGID_00000175297513667018260100000013326513034144731780_);}
	.st182{fill:url(#SVGID_00000098200076024507509590000000045807476688031396_);}
	.st183{fill:url(#SVGID_00000087398757262489978280000013517244563154779543_);}
	.st184{fill:url(#SVGID_00000062873209663231103980000001928386339194989211_);}
	.st185{fill:url(#SVGID_00000137128680374549938280000014796050947835146889_);}
	.st186{fill:url(#SVGID_00000093859752272199303430000001185717308753107605_);}
	.st187{fill:url(#SVGID_00000062154802033573211610000013307932951939246256_);}
	.st188{fill:url(#SVGID_00000150787554043311575450000009639720564912676030_);}
	.st189{fill:url(#SVGID_00000127036760077970027800000017015035454618176162_);}
	.st190{fill:url(#SVGID_00000089536874289946928600000010687537815776434581_);}
	.st191{fill:url(#SVGID_00000047742662622976716300000014579187523416959147_);}
	.st192{fill:url(#SVGID_00000136408874436531020020000002577849484500329646_);}
	.st193{fill:url(#SVGID_00000122716893585774907760000008651829289243087248_);}
	.st194{fill:url(#SVGID_00000072986060850724398400000005729374754080166591_);}
	.st195{fill:url(#SVGID_00000130624562880838170120000003120620870065587902_);}
	.st196{fill:url(#SVGID_00000151529504172255637840000003119544669871049617_);}
	.st197{fill:url(#SVGID_00000031895726579125424220000007052149925679884959_);}
	.st198{fill:url(#SVGID_00000059306727812696183390000006548698175285343365_);}
	.st199{fill:url(#SVGID_00000171722211128268851230000005533592037696906157_);}
	.st200{fill:url(#SVGID_00000163031969104733322960000009188340285822039215_);}
	.st201{fill:url(#SVGID_00000021798973161123742740000000643722277812660376_);}
	.st202{fill:url(#SVGID_00000140009456619232516700000002765586817877025931_);}
	.st203{fill:url(#SVGID_00000016067599383091937240000013939149875197864584_);}
	.st204{fill:url(#SVGID_00000151508323246836875000000008002883288470788003_);}
	.st205{fill:url(#SVGID_00000025409469985486609810000018234601296246671283_);}
	.st206{fill:url(#SVGID_00000103967695453729365320000003160353552568358828_);}
	.st207{fill:url(#SVGID_00000077287231228586154370000005885954374131991425_);}
	.st208{fill:url(#SVGID_00000063626241933256813070000011585698106865974156_);}
	.st209{fill:url(#SVGID_00000183230357305296909140000005108668689073747893_);}
	.st210{fill:url(#SVGID_00000120522452905629163730000010041684637412457361_);}
	.st211{fill:url(#SVGID_00000054260211956303089090000017527774012298274484_);}
	.st212{fill:url(#SVGID_00000044161612929293271480000006124352975300456601_);}
	.st213{fill:url(#SVGID_00000027570723980365019100000013878350074930325161_);}
	.st214{fill:url(#SVGID_00000009577506415755995690000006668394899548328876_);}
	.st215{fill:url(#SVGID_00000174594395006090436220000010580590731627769220_);}
	.st216{fill:url(#SVGID_00000018929619756897690740000018117377790013254022_);}
	.st217{fill:url(#SVGID_00000123410590660120923860000012288308733753005186_);}
	.st218{fill:url(#SVGID_00000158020067291666801570000007069867154268038328_);}
	.st219{fill:url(#SVGID_00000146459160033799314690000008912660830939255213_);}
	.st220{fill:url(#SVGID_00000051376176107807658360000012673343711164509368_);}
	.st221{fill:url(#SVGID_00000031900336349635631210000000196603862129353388_);}
	.st222{fill:url(#SVGID_00000072257746482577991900000014987622888949686159_);}
	.st223{fill:url(#SVGID_00000030453577960096318180000006887524014707851661_);}
	.st224{fill:url(#SVGID_00000152240485051947689670000011892611951877103250_);}
	.st225{fill:url(#SVGID_00000127737277523994595950000006218379661837131191_);}
	.st226{fill:url(#SVGID_00000145744136957054083310000004320624253968069250_);}
	.st227{fill:url(#SVGID_00000094620497374079230160000015358727600857063854_);}
	.st228{fill:url(#SVGID_00000045598213631325072410000001066912325611069837_);}
	.st229{fill:url(#SVGID_00000074403997664666186400000018280477922039798165_);}
	.st230{fill:url(#SVGID_00000179610848238311630980000009984552582323786890_);}
	.st231{fill:url(#SVGID_00000131343020474293653040000017033705267693926323_);}
	.st232{fill:url(#SVGID_00000087408973841729607450000006184442427846115729_);}
	.st233{fill:url(#SVGID_00000120527565706010066840000013106561283864702859_);}
	.st234{fill:url(#SVGID_00000011030980465762653050000014626736885054095542_);}
	.st235{fill:url(#SVGID_00000032619548822635636610000015846571716244536197_);}
	.st236{fill:url(#SVGID_00000032641150614085192400000015914921392130128548_);}
	.st237{fill:url(#SVGID_00000150786890641618896710000016799738759461715128_);}
	.st238{fill:url(#SVGID_00000122706995517103319150000008506601220213676469_);}
	.st239{fill:url(#SVGID_00000056403481306156271890000015465142530734296756_);}
	.st240{fill:url(#SVGID_00000104684088280914124880000016643733594258968481_);}
	.st241{fill:url(#SVGID_00000153689874882332227160000011656872690298980224_);}
	.st242{fill:url(#SVGID_00000080888603717960853710000014347552592353890492_);}
	.st243{fill:url(#SVGID_00000150077690975812132060000018192718256091564164_);}
	.st244{fill:url(#SVGID_00000085219957722730971050000005232263345085099413_);}
	.st245{fill:url(#SVGID_00000074399676254848298960000012646211332499945891_);}
	.st246{fill:url(#SVGID_00000118357927262850819080000017251721863352777371_);}
	.st247{fill:url(#SVGID_00000011027548678056867670000010125532834171944835_);}
	.st248{fill:url(#SVGID_00000000191352997156977510000009704826112043617410_);}
	.st249{fill:url(#SVGID_00000152233697992503746040000012471802976813252540_);}
	.st250{opacity:0.6;}
	.st251{fill:url(#SVGID_00000148628427862971901610000018185686775251924626_);}
	.st252{fill:url(#SVGID_00000155865118847295833930000002749852880389191326_);}
	.st253{fill:url(#SVGID_00000099662807240610160170000009901666936228243380_);}
	.st254{fill:url(#SVGID_00000072978086295516779390000011895063156181154210_);}
	.st255{fill:url(#SVGID_00000027605139946592964300000003023726554151822259_);}
	.st256{fill:url(#SVGID_00000128467285248342866000000005803001110487674788_);}
	.st257{fill:url(#SVGID_00000003086754460112740930000009867001217854420101_);}
	.st258{fill:url(#SVGID_00000086690064533836571050000015907005996505814934_);}
	.st259{fill:url(#SVGID_00000075842675433895620390000016383930867144487103_);}
	.st260{fill:url(#SVGID_00000176735362335451529770000013813506294012669111_);}
	.st261{fill:url(#SVGID_00000180331475534897689130000005032562224332217751_);}
	.st262{fill:url(#SVGID_00000124868265131357475010000012405325913355863718_);}
	.st263{fill:url(#SVGID_00000055681424036381589010000003043715250853736367_);}
	.st264{fill:url(#SVGID_00000046315182937125161350000016924722749572315063_);}
	.st265{fill:url(#SVGID_00000153665730564356074410000013327901143960105406_);}
	.st266{fill:url(#SVGID_00000173153442668339513190000018206595366260692640_);}
	.st267{fill:url(#SVGID_00000063595890789116803290000003758560088420324797_);}
	.st268{fill:url(#SVGID_00000051377915511619409460000004934016116660327095_);}
	.st269{fill:url(#SVGID_00000004517763225078397440000006886340992078708630_);}
	.st270{fill:url(#SVGID_00000022546734638306045130000004279172823784568472_);}
	.st271{fill:url(#SVGID_00000003093112793914906320000002537103922676713612_);}
	.st272{fill:url(#SVGID_00000018218590462707159840000004914785155497532815_);}
	.st273{fill:url(#SVGID_00000118378150129585528180000011797449413296991387_);}
	.st274{fill:url(#SVGID_00000065778699126158956190000005200579471143060105_);}
	.st275{fill:url(#SVGID_00000169532222084356890130000004834085270264477579_);}
	.st276{fill:url(#SVGID_00000173863375371366594650000017184487308911695004_);}
	.st277{fill:url(#SVGID_00000085963684563498025750000018224522137176049551_);}
	.st278{fill:url(#SVGID_00000063626497536677126670000005791145447434929322_);}
	.st279{fill:url(#SVGID_00000096741184397067143540000010277703186274359743_);}
	.st280{fill:url(#SVGID_00000057837042857116532460000014537117238265701288_);}
	.st281{fill:url(#SVGID_00000089555193890234093790000001974180773790037169_);}
	.st282{fill:url(#SVGID_00000021828532355060973960000009757753599879991173_);}
	.st283{fill:url(#SVGID_00000158011231314884743990000003035104128528357249_);}
	.st284{fill:url(#SVGID_00000095324082924474919440000006419848760847550383_);}
	.st285{fill:url(#SVGID_00000098941539212649151680000005009719196437830052_);}
	.st286{fill:url(#SVGID_00000180352500355253282970000001216666066356040856_);}
	.st287{fill:url(#SVGID_00000060015723969715323910000016275902519387996079_);}
	.st288{fill:url(#SVGID_00000000216328009499345320000017861354212798662534_);}
	.st289{fill:url(#SVGID_00000142175380500212107330000007105164078717840299_);}
	.st290{fill:url(#SVGID_00000141442187440936009550000017797265443972861350_);}
	.st291{fill:#1A1A1A;}
	.st292{fill:#231815;}
	.st293{fill:url(#SVGID_00000124846204432847904450000000416935338641176252_);}
	.st294{fill:url(#SVGID_00000016792800116490105110000000645382759619710121_);}
	.st295{fill:url(#SVGID_00000117678650453713282740000018142319413840259259_);}
	.st296{fill:url(#SVGID_00000045609470501531114120000014159225497089710741_);}
	.st297{fill:url(#SVGID_00000114781291486058532770000005400903525389283982_);}
	.st298{fill:url(#SVGID_00000038413269757876850200000002916409400466499259_);}
	.st299{fill:url(#SVGID_00000028305751668180776150000011050349658287542947_);}
	.st300{fill:url(#SVGID_00000033351205391294641010000016936403027262045855_);}
	.st301{fill:url(#SVGID_00000082330647889985722330000000931595613543510162_);}
	.st302{fill:url(#SVGID_00000096023052079026748860000000325866702190771879_);}
	.st303{fill:url(#SVGID_00000151511593391353845400000002593944139041523124_);}
	.st304{fill:url(#SVGID_00000010296701093337998580000009100833458340127146_);}
	.st305{fill:url(#SVGID_00000131347305590392970420000011419616542406056879_);}
	.st306{fill:url(#SVGID_00000176016844894739425970000012219901023412854413_);}
	.st307{fill:url(#SVGID_00000131342077236832050270000010841833877164380822_);}
	.st308{fill:url(#SVGID_00000044864288220306258210000009449998806433624737_);}
	.st309{fill:url(#SVGID_00000024687033954371798240000005111638705322359472_);}
	.st310{fill:url(#SVGID_00000106860642019381283880000016805753706402620046_);}
	.st311{fill:url(#SVGID_00000078729484088862946380000015037178034025937026_);}
	.st312{fill:url(#SVGID_00000168083431471579742680000008796990536283136160_);}
	.st313{fill:url(#SVGID_00000044877707943699771310000017120810943017983655_);}
	.st314{fill:url(#SVGID_00000036940532088968253240000013629281637424680600_);}
	.st315{fill:url(#SVGID_00000036940281015307443500000009921766834944282756_);}
	.st316{fill:url(#SVGID_00000113346051360002775990000009802002725790400180_);}
	.st317{fill:url(#SVGID_00000115491699358208145440000012409414198852528272_);}
	.st318{fill:url(#SVGID_00000090285780507591430930000000475208103800115085_);}
	.st319{fill:url(#SVGID_00000084493066987890781500000003570306464196093864_);}
	.st320{fill:url(#SVGID_00000149351938570926786550000011914981684140949167_);}
	.st321{fill:url(#SVGID_00000169527953625547081080000003743858518383785096_);}
	.st322{fill:url(#SVGID_00000100373375460505611290000000478996288830346667_);}
	.st323{fill:url(#SVGID_00000090280654887127009830000012241172884593070727_);}
	.st324{fill:url(#SVGID_00000170245481597882377970000001108156003424573074_);}
	.st325{fill:url(#SVGID_00000020366008066544372590000015982359260342509216_);}
	.st326{fill:url(#SVGID_00000026851025974932951300000017353001898947242389_);}
	.st327{fill:url(#SVGID_00000037685439231641791510000004963904667710521250_);}
	.st328{fill:url(#SVGID_00000001636077186836701710000005629252124431549593_);}
	.st329{fill:url(#SVGID_00000036239987625829129520000010151611155134604198_);}
	.st330{fill:url(#SVGID_00000047747426872852941130000013830026520705607564_);}
	.st331{fill:url(#SVGID_00000099649121869914863570000003419982151025529775_);}
	.st332{fill:url(#SVGID_00000047745551087246505410000018104527776255392134_);}
	.st333{fill:url(#SVGID_00000019666649968836864340000004464653474160632255_);}
	.st334{fill:url(#SVGID_00000009568686544338198190000015938716013044807849_);}
</style>
<g id="图层_1" class="st0">
	<g class="st1">
		<g>
			<path d="M304.44,29.67c6.24,0,10.98,2.16,10.98,4.62v25.14l-3.3,1.8c-0.18,0.12-1.38,0.9-1.56,1.08
				c-0.48,0.42-0.54,0.42-0.48,0.12c0.06-0.18,0.12-1.38,0.12-1.98v-22.5c0-3.66-4.92-5.16-8.04-5.16c-3.18,0-7.56,1.44-11.46,4.5
				c-0.54,0.42-1.08,0-0.72-0.54C291.36,34.71,295.5,29.67,304.44,29.67z"/>
			<path d="M321.42,34.05c-0.6-0.12-1.68-0.18-2.22-0.18s-0.54-0.3-0.3-0.42c2.76-1.14,4.74-2.52,7.5-4.14
				c1.32-0.78,2.16,0.96,2.16,2.46v16.5c1.14-0.18,2.64-0.78,5.22-2.1c3-1.56,3.96-3.36,4.26-4.68c0.3-1.32-0.9-1.92-1.44-2.28
				c-0.36-0.18-0.42-0.54,0.24-0.54c1.5,0,3.66-0.18,5.58-0.72c0.6-0.12,0.72,0.06,0.72,1.14c0,4.2-2.7,4.92-6.06,6.9
				c5.7,0.24,9.66,2.1,9.66,6.42c0,4.92-7.2,9.06-11.82,10.5c-0.6,0.18-0.72-0.06-0.3-0.36c2.64-1.68,6.3-5.4,6.3-9
				c0-2.22-1.38-5.4-6.96-5.76c-2.28,1.26-4.26,2.16-5.4,2.76v8.82l-3.3,1.8c-0.18,0.12-1.38,0.9-1.56,1.08
				c-0.48,0.42-0.54,0.42-0.48,0.12c0.06-0.18,0.12-1.38,0.12-1.98v-24C323.34,34.95,322.92,34.35,321.42,34.05z"/>
			<path d="M361.62,37.59c8.16,0,12.24,5.34,12.24,10.68c0,8.28-9.78,11.58-14.64,11.94c-0.72,0.06-0.6-0.42,0-0.66
				c4.74-2.04,8.04-4.02,8.46-8.82h-7.44c-0.72,0-5.52,0.18-6.3,0.3c-2.04,0.36-2.28,0.3-1.62-0.18c0.42-0.3,2.7-2.58,3.54-3.36
				l0.12-0.12h11.64c-0.72-5.52-3.96-7.86-7.14-7.86c-4.32,0-7.08,2.7-7.08,4.68c0,0.48-0.12,0.66-0.3,0.72
				c-1.74,0.6-2.76,1.14-3.72,1.92c-0.3,0.24-0.72,0.48-0.48-0.24C349.56,44.79,352.74,37.59,361.62,37.59z"/>
			<path d="M408.24,28.95c6.42,0,10.5,3.72,12.24,5.58c0.24,0.24,0.06,0.36-0.12,0.48c-1.38,0.78-3.06,2.76-3.96,4.02
				c-0.24,0.36-0.42,0.48-0.6,0.06c-1.14-2.52-4.56-7.44-10.26-7.44c-2.82,0-6.54,1.74-6.54,5.64v22.14l-3.3,1.8
				c-0.18,0.12-1.38,0.9-1.56,1.08c-0.48,0.42-0.54,0.42-0.48,0.12c0.06-0.18,0.12-1.38,0.12-1.98v-23.1
				C393.78,33.21,399.6,28.95,408.24,28.95z"/>
			<path d="M420.3,42.57c-0.6-0.12-1.68-0.18-2.22-0.18s-0.54-0.3-0.3-0.42c2.76-1.14,4.74-2.52,7.5-4.14
				c1.32-0.78,2.16,0.96,2.16,2.46v17.22l-3.3,1.8c-0.18,0.12-1.38,0.9-1.56,1.08c-0.48,0.42-0.54,0.42-0.48,0.12
				c0.06-0.18,0.12-1.38,0.12-1.98V44.91C422.22,43.47,421.8,42.87,420.3,42.57z"/>
			<path d="M449.94,53.79c0-2.7-1.8-4.26-4.86-4.26c-1.92,0-5.22,2.7-6.9,3.78v4.32l-3.3,1.8c-0.18,0.12-1.38,0.9-1.56,1.08
				c-0.48,0.42-0.54,0.42-0.48,0.12c0.06-0.18,0.12-1.38,0.12-1.98v-13.5c0-2.34,6.3-7.74,11.4-7.74c5.04,0,8.88,1.98,10.56,3.6
				c0.66,0.66,0.48,0.66,0.24,0.84c-0.9,0.72-1.92,1.8-2.58,2.7c-0.36,0.6-0.48,0.72-0.78,0.18c-1.38-1.98-3.42-4.8-7.8-4.8
				c-3.72,0-5.82,2.46-5.82,3.54v7.62c2.16-0.9,6.18-3.96,9.42-3.96c4.68,0,7.92,1.68,7.92,5.94c0,4.62-6.66,6.78-10.8,7.62
				c-0.48,0.12-0.72-0.06-0.36-0.24C446.34,59.43,449.94,57.45,449.94,53.79z"/>
			<path d="M471.72,37.53c5.76,0,9.42,2.52,9.42,4.98v25.68l-3.3,1.8c-0.18,0.12-1.38,0.9-1.56,1.08c-0.48,0.42-0.54,0.42-0.48,0.12
				c0.06-0.18,0.12-1.38,0.12-1.98V45.15c0-2.64-2.82-4.5-6.78-4.5c-2.58,0-6.48,1.38-10.5,4.5c-0.6,0.48-1.32,0.06-0.9-0.48
				C459.36,42.57,463.02,37.53,471.72,37.53z"/>
			<path d="M503.88,56.67c-4.5-5.82-1.68-11.76,1.68-15.3c3.54-3.96,8.1-5.58,13.62-2.58c4.86,2.7,7.38,9.54,2.22,16.32
				C515.7,62.61,507,60.75,503.88,56.67z M507.78,53.01c2.64,3.42,8.7,5.04,10.8,3c3.54-3.48,1.02-10.56-2.16-13.08
				c-3.48-2.64-7.5-2.94-9.3-1.08C504.66,44.43,505.56,50.13,507.78,53.01z"/>
			<path d="M540.48,37.23c5.52,0,9.6,3.78,10.86,5.34c0.24,0.3-0.3,0.6-0.48,0.78c-1.02,0.84-2.28,2.22-3.12,3.36
				c-0.18,0.24-0.36,0.3-0.54,0c-1.2-2.4-4.68-7.56-8.52-7.56c-3.54,0-5.52,2.88-5.52,6.78v22.14l-3.3,1.8
				c-0.18,0.12-1.38,0.9-1.56,1.08c-0.48,0.42-0.54,0.42-0.48,0.12c0.06-0.18,0.12-1.38,0.12-1.98v-23.1
				C527.94,42.51,533.16,37.23,540.48,37.23z"/>
			<path d="M582.3,37.53c5.76,0,9.42,2.52,9.42,4.98v25.68l-3.3,1.8c-0.18,0.12-1.38,0.9-1.56,1.08c-0.48,0.42-0.54,0.42-0.48,0.12
				c0.06-0.18,0.12-1.38,0.12-1.98V45.15c0-2.64-2.82-4.5-6.78-4.5c-2.58,0-6.48,1.38-10.5,4.5c-0.6,0.48-1.32,0.06-0.9-0.48
				C569.94,42.57,573.6,37.53,582.3,37.53z"/>
			<path d="M597.72,34.05c-0.6-0.12-1.68-0.18-2.22-0.18s-0.54-0.3-0.3-0.42c2.76-1.14,4.74-2.52,7.5-4.14
				c1.32-0.78,2.16,0.96,2.16,2.46v16.5c1.14-0.18,2.64-0.78,5.22-2.1c3-1.56,3.96-3.36,4.26-4.68c0.3-1.32-0.9-1.92-1.44-2.28
				c-0.36-0.18-0.42-0.54,0.24-0.54c1.5,0,3.66-0.18,5.58-0.72c0.6-0.12,0.72,0.06,0.72,1.14c0,4.2-2.7,4.92-6.06,6.9
				c5.7,0.24,9.66,2.1,9.66,6.42c0,4.92-7.2,9.06-11.82,10.5c-0.6,0.18-0.72-0.06-0.3-0.36c2.64-1.68,6.3-5.4,6.3-9
				c0-2.22-1.38-5.4-6.96-5.76c-2.28,1.26-4.26,2.16-5.4,2.76v8.82l-3.3,1.8c-0.18,0.12-1.38,0.9-1.56,1.08
				c-0.48,0.42-0.54,0.42-0.48,0.12c0.06-0.18,0.12-1.38,0.12-1.98v-24C599.64,34.95,599.22,34.35,597.72,34.05z"/>
			<path d="M637.92,37.59c8.16,0,12.24,5.34,12.24,10.68c0,8.28-9.78,11.58-14.64,11.94c-0.72,0.06-0.6-0.42,0-0.66
				c4.74-2.04,8.04-4.02,8.46-8.82h-7.44c-0.72,0-5.52,0.18-6.3,0.3c-2.04,0.36-2.28,0.3-1.62-0.18c0.42-0.3,2.7-2.58,3.54-3.36
				l0.12-0.12h11.64c-0.72-5.52-3.96-7.86-7.14-7.86c-4.32,0-7.08,2.7-7.08,4.68c0,0.48-0.12,0.66-0.3,0.72
				c-1.74,0.6-2.76,1.14-3.72,1.92c-0.3,0.24-0.72,0.48-0.48-0.24C625.86,44.79,629.04,37.59,637.92,37.59z"/>
			<path d="M684.54,28.95c6.42,0,10.5,3.72,12.24,5.58c0.24,0.24,0.06,0.36-0.12,0.48c-1.38,0.78-3.06,2.76-3.96,4.02
				c-0.24,0.36-0.42,0.48-0.6,0.06c-1.14-2.52-4.56-7.44-10.26-7.44c-2.82,0-6.54,1.74-6.54,5.64v22.14l-3.3,1.8
				c-0.18,0.12-1.38,0.9-1.56,1.08c-0.48,0.42-0.54,0.42-0.48,0.12c0.06-0.18,0.12-1.38,0.12-1.98v-23.1
				C670.08,33.21,675.9,28.95,684.54,28.95z"/>
			<path d="M695.04,42.09c-0.6-0.12-1.68-0.18-2.22-0.18s-0.54-0.3-0.3-0.42c2.76-1.14,4.74-2.52,7.5-4.14
				c1.32-0.78,2.16,0.96,2.16,2.46v3.06c2.46-2.64,5.76-5.28,10.14-5.28c3.12,0,5.7,1.2,6.6,2.28c-0.3,0.18-2.94,2.64-3.36,3.3
				c-1.2-1.2-3.36-2.22-6.36-2.22c-2.94,0-4.62,1.8-7.02,4.2v5.64c2.94-1.62,7.38-4.56,9.24-4.56c4.02,0,7.5,2.58,7.5,6.96
				c0,4.86-6.06,6.72-9.84,6.72c-3.18,0-5.52-1.86-6.9-2.46v0.48c0,4.26-8.7,12.06-9.9,12.66c-0.36,0.18-0.66,0-0.3-0.36
				c1.08-0.96,4.98-7.68,4.98-11.52v-0.18c0-1.56,0-3.54,0-4.68v-9.42C696.96,42.99,696.54,42.39,695.04,42.09z M710.7,57.63
				c2.4,0,2.94-0.18,2.94-2.88c0-3.3-2.82-5.52-4.74-5.52c-1.68,0-4.08,2.16-6.18,3.12C704.82,54.87,708.12,57.63,710.7,57.63z"/>
			<path d="M735.12,37.53c5.76,0,9.42,2.52,9.42,4.98v25.68l-3.3,1.8c-0.18,0.12-1.38,0.9-1.56,1.08c-0.48,0.42-0.54,0.42-0.48,0.12
				c0.06-0.18,0.12-1.38,0.12-1.98V45.15c0-2.64-2.82-4.5-6.78-4.5c-2.58,0-6.48,1.38-10.5,4.5c-0.6,0.48-1.32,0.06-0.9-0.48
				C722.76,42.57,726.42,37.53,735.12,37.53z"/>
			<path d="M750.54,34.05c-0.6-0.12-1.68-0.18-2.22-0.18s-0.54-0.3-0.3-0.42c2.76-1.14,4.74-2.52,7.5-4.14
				c1.32-0.78,2.16,0.96,2.16,2.46v16.5c1.14-0.18,2.64-0.78,5.22-2.1c3-1.56,3.96-3.36,4.26-4.68c0.3-1.32-0.9-1.92-1.44-2.28
				c-0.36-0.18-0.42-0.54,0.24-0.54c1.5,0,3.66-0.18,5.58-0.72c0.6-0.12,0.72,0.06,0.72,1.14c0,4.2-2.7,4.92-6.06,6.9
				c5.7,0.24,9.66,2.1,9.66,6.42c0,4.92-7.2,9.06-11.82,10.5c-0.6,0.18-0.72-0.06-0.3-0.36c2.64-1.68,6.3-5.4,6.3-9
				c0-2.22-1.38-5.4-6.96-5.76c-2.28,1.26-4.26,2.16-5.4,2.76v8.82l-3.3,1.8c-0.18,0.12-1.38,0.9-1.56,1.08
				c-0.48,0.42-0.54,0.42-0.48,0.12c0.06-0.18,0.12-1.38,0.12-1.98v-24C752.46,34.95,752.04,34.35,750.54,34.05z"/>
			<path d="M790.74,37.59c8.16,0,12.24,5.34,12.24,10.68c0,8.28-9.78,11.58-14.64,11.94c-0.72,0.06-0.6-0.42,0-0.66
				c4.74-2.04,8.04-4.02,8.46-8.82h-7.44c-0.72,0-5.52,0.18-6.3,0.3c-2.04,0.36-2.28,0.3-1.62-0.18c0.42-0.3,2.7-2.58,3.54-3.36
				l0.12-0.12h11.64c-0.72-5.52-3.96-7.86-7.14-7.86c-4.32,0-7.08,2.7-7.08,4.68c0,0.48-0.12,0.66-0.3,0.72
				c-1.74,0.6-2.76,1.14-3.72,1.92c-0.3,0.24-0.72,0.48-0.48-0.24C778.68,44.79,781.86,37.59,790.74,37.59z"/>
			<path d="M807.78,42.27c-0.6-0.12-1.68-0.18-2.22-0.18s-0.54-0.3-0.3-0.42c2.76-1.14,4.74-2.52,7.5-4.14
				c1.32-0.78,2.16,0.96,2.16,2.46v2.34c2.4-2.7,6.9-5.04,9.54-5.04c2.88,0,7.62,2.7,7.62,7.02c0,3.3-2.7,5.82-6.06,6.78v10.92
				c0,5.4,1.5,7.38,3.96,7.38c1.74,0,3.42-1.02,4.62-2.46c0.3-0.36,0.66,0.06,0.48,0.48c-0.9,1.92-3.9,5.04-6.78,5.04
				c-4.74,0-7.5-3.06-7.5-9.12v-12c-0.3-0.06-0.66-0.12-0.96-0.24c-0.78-0.24-1.02-0.78,0-0.96c1.32-0.24,6.12-0.54,6.12-4.98
				c0-2.76-1.68-5.16-4.74-5.16c-1.98,0-4.98,2.52-6.3,4.14v13.38l-3.3,1.8c-0.18,0.12-1.38,0.9-1.56,1.08
				c-0.48,0.42-0.54,0.42-0.48,0.12c0.06-0.18,0.12-1.38,0.12-1.98V44.61C809.7,43.17,809.28,42.57,807.78,42.27z"/>
		</g>
		<g>
			<path d="M304.44,89.67c6.24,0,10.98,2.16,10.98,4.62v25.14l-3.3,1.8c-0.18,0.12-1.38,0.9-1.56,1.08
				c-0.48,0.42-0.54,0.42-0.48,0.12c0.06-0.18,0.12-1.38,0.12-1.98v-22.5c0-3.66-4.92-5.16-8.04-5.16c-3.18,0-7.56,1.44-11.46,4.5
				c-0.54,0.42-1.08,0-0.72-0.54C291.36,94.71,295.5,89.67,304.44,89.67z"/>
			<path d="M321.42,94.05c-0.6-0.12-1.68-0.18-2.22-0.18s-0.54-0.3-0.3-0.42c2.76-1.14,4.74-2.52,7.5-4.14
				c1.32-0.78,2.16,0.96,2.16,2.46v16.5c1.14-0.18,2.64-0.78,5.22-2.1c3-1.56,3.96-3.36,4.26-4.68c0.3-1.32-0.9-1.92-1.44-2.28
				c-0.36-0.18-0.42-0.54,0.24-0.54c1.5,0,3.66-0.18,5.58-0.72c0.6-0.12,0.72,0.06,0.72,1.14c0,4.2-2.7,4.92-6.06,6.9
				c5.7,0.24,9.66,2.1,9.66,6.42c0,4.92-7.2,9.06-11.82,10.5c-0.6,0.18-0.72-0.06-0.3-0.36c2.64-1.68,6.3-5.4,6.3-9
				c0-2.22-1.38-5.4-6.96-5.76c-2.28,1.26-4.26,2.16-5.4,2.76v8.82l-3.3,1.8c-0.18,0.12-1.38,0.9-1.56,1.08
				c-0.48,0.42-0.54,0.42-0.48,0.12c0.06-0.18,0.12-1.38,0.12-1.98v-24C323.34,94.95,322.92,94.35,321.42,94.05z"/>
			<path d="M361.62,97.59c8.16,0,12.24,5.34,12.24,10.68c0,8.28-9.78,11.58-14.64,11.94c-0.72,0.06-0.6-0.42,0-0.66
				c4.74-2.04,8.04-4.02,8.46-8.82h-7.44c-0.72,0-5.52,0.18-6.3,0.3c-2.04,0.36-2.28,0.3-1.62-0.18c0.42-0.3,2.7-2.58,3.54-3.36
				l0.12-0.12h11.64c-0.72-5.52-3.96-7.86-7.14-7.86c-4.32,0-7.08,2.7-7.08,4.68c0,0.48-0.12,0.66-0.3,0.72
				c-1.74,0.6-2.76,1.14-3.72,1.92c-0.3,0.24-0.72,0.48-0.48-0.24C349.56,104.79,352.74,97.59,361.62,97.59z"/>
			<path d="M408.24,88.95c6.42,0,10.5,3.72,12.24,5.58c0.24,0.24,0.06,0.36-0.12,0.48c-1.38,0.78-3.06,2.76-3.96,4.02
				c-0.24,0.36-0.42,0.48-0.6,0.06c-1.14-2.52-4.56-7.44-10.26-7.44c-2.82,0-6.54,1.74-6.54,5.64v22.14l-3.3,1.8
				c-0.18,0.12-1.38,0.9-1.56,1.08c-0.48,0.42-0.54,0.42-0.48,0.12c0.06-0.18,0.12-1.38,0.12-1.98v-23.1
				C393.78,93.21,399.6,88.95,408.24,88.95z"/>
			<path d="M420.3,102.57c-0.6-0.12-1.68-0.18-2.22-0.18s-0.54-0.3-0.3-0.42c2.76-1.14,4.74-2.52,7.5-4.14
				c1.32-0.78,2.16,0.96,2.16,2.46v17.22l-3.3,1.8c-0.18,0.12-1.38,0.9-1.56,1.08c-0.48,0.42-0.54,0.42-0.48,0.12
				c0.06-0.18,0.12-1.38,0.12-1.98v-13.62C422.22,103.47,421.8,102.87,420.3,102.57z"/>
			<path d="M449.94,113.79c0-2.7-1.8-4.26-4.86-4.26c-1.92,0-5.22,2.7-6.9,3.78v4.32l-3.3,1.8c-0.18,0.12-1.38,0.9-1.56,1.08
				c-0.48,0.42-0.54,0.42-0.48,0.12c0.06-0.18,0.12-1.38,0.12-1.98v-13.5c0-2.34,6.3-7.74,11.4-7.74c5.04,0,8.88,1.98,10.56,3.6
				c0.66,0.66,0.48,0.66,0.24,0.84c-0.9,0.72-1.92,1.8-2.58,2.7c-0.36,0.6-0.48,0.72-0.78,0.18c-1.38-1.98-3.42-4.8-7.8-4.8
				c-3.72,0-5.82,2.46-5.82,3.54v7.62c2.16-0.9,6.18-3.96,9.42-3.96c4.68,0,7.92,1.68,7.92,5.94c0,4.62-6.66,6.78-10.8,7.62
				c-0.48,0.12-0.72-0.06-0.36-0.24C446.34,119.43,449.94,117.45,449.94,113.79z"/>
			<path d="M471.72,97.53c5.76,0,9.42,2.52,9.42,4.98v25.68l-3.3,1.8c-0.18,0.12-1.38,0.9-1.56,1.08c-0.48,0.42-0.54,0.42-0.48,0.12
				c0.06-0.18,0.12-1.38,0.12-1.98v-24.06c0-2.64-2.82-4.5-6.78-4.5c-2.58,0-6.48,1.38-10.5,4.5c-0.6,0.48-1.32,0.06-0.9-0.48
				C459.36,102.57,463.02,97.53,471.72,97.53z"/>
			<path d="M503.88,116.67c-4.5-5.82-1.68-11.76,1.68-15.3c3.54-3.96,8.1-5.58,13.62-2.58c4.86,2.7,7.38,9.54,2.22,16.32
				C515.7,122.61,507,120.75,503.88,116.67z M507.78,113.01c2.64,3.42,8.7,5.04,10.8,3c3.54-3.48,1.02-10.56-2.16-13.08
				c-3.48-2.64-7.5-2.94-9.3-1.08C504.66,104.43,505.56,110.13,507.78,113.01z"/>
			<path d="M540.48,97.23c5.52,0,9.6,3.78,10.86,5.34c0.24,0.3-0.3,0.6-0.48,0.78c-1.02,0.84-2.28,2.22-3.12,3.36
				c-0.18,0.24-0.36,0.3-0.54,0c-1.2-2.4-4.68-7.56-8.52-7.56c-3.54,0-5.52,2.88-5.52,6.78v22.14l-3.3,1.8
				c-0.18,0.12-1.38,0.9-1.56,1.08c-0.48,0.42-0.54,0.42-0.48,0.12c0.06-0.18,0.12-1.38,0.12-1.98v-23.1
				C527.94,102.51,533.16,97.23,540.48,97.23z"/>
			<path d="M582.3,97.53c5.76,0,9.42,2.52,9.42,4.98v25.68l-3.3,1.8c-0.18,0.12-1.38,0.9-1.56,1.08c-0.48,0.42-0.54,0.42-0.48,0.12
				c0.06-0.18,0.12-1.38,0.12-1.98v-24.06c0-2.64-2.82-4.5-6.78-4.5c-2.58,0-6.48,1.38-10.5,4.5c-0.6,0.48-1.32,0.06-0.9-0.48
				C569.94,102.57,573.6,97.53,582.3,97.53z"/>
			<path d="M597.72,94.05c-0.6-0.12-1.68-0.18-2.22-0.18s-0.54-0.3-0.3-0.42c2.76-1.14,4.74-2.52,7.5-4.14
				c1.32-0.78,2.16,0.96,2.16,2.46v16.5c1.14-0.18,2.64-0.78,5.22-2.1c3-1.56,3.96-3.36,4.26-4.68c0.3-1.32-0.9-1.92-1.44-2.28
				c-0.36-0.18-0.42-0.54,0.24-0.54c1.5,0,3.66-0.18,5.58-0.72c0.6-0.12,0.72,0.06,0.72,1.14c0,4.2-2.7,4.92-6.06,6.9
				c5.7,0.24,9.66,2.1,9.66,6.42c0,4.92-7.2,9.06-11.82,10.5c-0.6,0.18-0.72-0.06-0.3-0.36c2.64-1.68,6.3-5.4,6.3-9
				c0-2.22-1.38-5.4-6.96-5.76c-2.28,1.26-4.26,2.16-5.4,2.76v8.82l-3.3,1.8c-0.18,0.12-1.38,0.9-1.56,1.08
				c-0.48,0.42-0.54,0.42-0.48,0.12c0.06-0.18,0.12-1.38,0.12-1.98v-24C599.64,94.95,599.22,94.35,597.72,94.05z"/>
			<path d="M637.92,97.59c8.16,0,12.24,5.34,12.24,10.68c0,8.28-9.78,11.58-14.64,11.94c-0.72,0.06-0.6-0.42,0-0.66
				c4.74-2.04,8.04-4.02,8.46-8.82h-7.44c-0.72,0-5.52,0.18-6.3,0.3c-2.04,0.36-2.28,0.3-1.62-0.18c0.42-0.3,2.7-2.58,3.54-3.36
				l0.12-0.12h11.64c-0.72-5.52-3.96-7.86-7.14-7.86c-4.32,0-7.08,2.7-7.08,4.68c0,0.48-0.12,0.66-0.3,0.72
				c-1.74,0.6-2.76,1.14-3.72,1.92c-0.3,0.24-0.72,0.48-0.48-0.24C625.86,104.79,629.04,97.59,637.92,97.59z"/>
			<linearGradient id="SVGID_1_" gradientUnits="userSpaceOnUse" x1="669" y1="109.8057" x2="713.5012" y2="109.8057">
				<stop  offset="0" style="stop-color:#4C5FBF"/>
				<stop  offset="0.3" style="stop-color:#4889D1"/>
				<stop  offset="0.5" style="stop-color:#47AADD"/>
				<stop  offset="1" style="stop-color:#FE9934"/>
			</linearGradient>
			<path class="st2" d="M685.5,88.95c5.46,0,11.82,0.96,11.82,8.64v5.34c2.46-2.64,5.76-5.34,10.2-5.34c3.12,0,5.7,1.2,6.6,2.28
				c-0.3,0.18-2.94,2.64-3.36,3.3c-1.2-1.2-3.36-2.22-6.36-2.22c-2.94,0-4.68,1.8-7.08,4.26l0.06,5.58
				c2.94-1.62,7.38-4.56,9.24-4.56c4.02,0,7.5,2.58,7.5,6.96c0,4.86-6.06,6.72-9.84,6.72c-3.18,0-5.52-1.86-6.9-2.46v0.48
				c0,4.26-8.7,12.06-9.9,12.66c-0.36,0.18-0.66,0-0.3-0.36c1.08-0.96,4.98-7.68,4.98-11.52v-0.18l-0.06-18.84
				c0-7.2-5.64-8.04-9.96-8.04c-4.02,0-6.84,2.22-6.84,4.86v22.92l-3.3,1.8c-0.18,0.12-1.38,0.9-1.56,1.08
				c-0.48,0.42-0.54,0.42-0.48,0.12c0.06-0.18,0.12-1.38,0.12-1.98V97.83C670.08,93.45,678.42,88.95,685.5,88.95z M705.9,117.63
				c2.4,0,2.94-0.18,2.94-2.88c0-3.3-2.82-5.52-4.74-5.52c-1.68,0-4.08,2.16-6.18,3.12C700.02,114.87,703.32,117.63,705.9,117.63z"
				/>
			<path d="M730.32,97.53c5.76,0,9.42,2.52,9.42,4.98v25.68l-3.3,1.8c-0.18,0.12-1.38,0.9-1.56,1.08c-0.48,0.42-0.54,0.42-0.48,0.12
				c0.06-0.18,0.12-1.38,0.12-1.98v-24.06c0-2.64-2.82-4.5-6.78-4.5c-2.58,0-6.48,1.38-10.5,4.5c-0.6,0.48-1.32,0.06-0.9-0.48
				C717.96,102.57,721.62,97.53,730.32,97.53z"/>
			<path d="M745.74,94.05c-0.6-0.12-1.68-0.18-2.22-0.18s-0.54-0.3-0.3-0.42c2.76-1.14,4.74-2.52,7.5-4.14
				c1.32-0.78,2.16,0.96,2.16,2.46v16.5c1.14-0.18,2.64-0.78,5.22-2.1c3-1.56,3.96-3.36,4.26-4.68c0.3-1.32-0.9-1.92-1.44-2.28
				c-0.36-0.18-0.42-0.54,0.24-0.54c1.5,0,3.66-0.18,5.58-0.72c0.6-0.12,0.72,0.06,0.72,1.14c0,4.2-2.7,4.92-6.06,6.9
				c5.7,0.24,9.66,2.1,9.66,6.42c0,4.92-7.2,9.06-11.82,10.5c-0.6,0.18-0.72-0.06-0.3-0.36c2.64-1.68,6.3-5.4,6.3-9
				c0-2.22-1.38-5.4-6.96-5.76c-2.28,1.26-4.26,2.16-5.4,2.76v8.82l-3.3,1.8c-0.18,0.12-1.38,0.9-1.56,1.08
				c-0.48,0.42-0.54,0.42-0.48,0.12c0.06-0.18,0.12-1.38,0.12-1.98v-24C747.66,94.95,747.24,94.35,745.74,94.05z"/>
			<path d="M785.94,97.59c8.16,0,12.24,5.34,12.24,10.68c0,8.28-9.78,11.58-14.64,11.94c-0.72,0.06-0.6-0.42,0-0.66
				c4.74-2.04,8.04-4.02,8.46-8.82h-7.44c-0.72,0-5.52,0.18-6.3,0.3c-2.04,0.36-2.28,0.3-1.62-0.18c0.42-0.3,2.7-2.58,3.54-3.36
				l0.12-0.12h11.64c-0.72-5.52-3.96-7.86-7.14-7.86c-4.32,0-7.08,2.7-7.08,4.68c0,0.48-0.12,0.66-0.3,0.72
				c-1.74,0.6-2.76,1.14-3.72,1.92c-0.3,0.24-0.72,0.48-0.48-0.24C773.88,104.79,777.06,97.59,785.94,97.59z"/>
			<path d="M802.98,102.27c-0.6-0.12-1.68-0.18-2.22-0.18s-0.54-0.3-0.3-0.42c2.76-1.14,4.74-2.52,7.5-4.14
				c1.32-0.78,2.16,0.96,2.16,2.46v2.34c2.4-2.7,6.9-5.04,9.54-5.04c2.88,0,7.62,2.7,7.62,7.02c0,3.3-2.7,5.82-6.06,6.78v10.92
				c0,5.4,1.5,7.38,3.96,7.38c1.74,0,3.42-1.02,4.62-2.46c0.3-0.36,0.66,0.06,0.48,0.48c-0.9,1.92-3.9,5.04-6.78,5.04
				c-4.74,0-7.5-3.06-7.5-9.12v-12c-0.3-0.06-0.66-0.12-0.96-0.24c-0.78-0.24-1.02-0.78,0-0.96c1.32-0.24,6.12-0.54,6.12-4.98
				c0-2.76-1.68-5.16-4.74-5.16c-1.98,0-4.98,2.52-6.3,4.14v13.38l-3.3,1.8c-0.18,0.12-1.38,0.9-1.56,1.08
				c-0.48,0.42-0.54,0.42-0.48,0.12c0.06-0.18,0.12-1.38,0.12-1.98v-13.92C804.9,103.17,804.48,102.57,802.98,102.27z"/>
		</g>
	</g>
</g>
<g id="图层_3">
	<g>
		<path class="st123" d="M465.91,62.32c-0.43,2.88,0.35,5.76,2.17,7.98c1.9,2.31,4.76,3.67,7.75,3.67c0,0,0,0,0,0
			c3.43,0,5.73-1.69,6.74-2.54c0.14-0.09,0.29-0.2,0.43-0.29l2.94-1.6c3.21-1.75,5.21-5.12,5.21-8.78V35.07
			c0-8.54-8.35-14.98-19.42-14.98c-5.79,0-10.26,1.53-13.63,3.49c-3.45-2.01-8.17-3.61-13.73-3.61c-3.52,0-7.42,1.22-10.92,3.23
			c-1.54-1.44-3.44-2.43-5.55-2.81c-0.06-0.06-0.1-0.13-0.16-0.19c-5.27-5.6-12.19-8.69-19.49-8.69c-13.72,0-24.46,8.08-24.46,18.4
			v9.19c-0.84-9.48-8.54-18.95-22.16-18.95c-4.66,0-8.59,1.2-11.84,3.1c-1.96-1.83-4.53-2.77-7.1-2.77c-0.74,0-1.47,0.07-2.23,0.23
			c-0.25,0.05-0.5,0.11-0.75,0.18c-0.4,0.11-0.94,0.21-1.5,0.27c-1.25-5.51-5.71-9.47-11.17-9.47c-1.99,0-3.97,0.55-5.69,1.57
			c-0.73,0.43-1.41,0.84-2.07,1.24c-0.49,0.3-0.93,0.56-1.36,0.82c-3.54-1.95-8.16-3.07-13.48-3.07c-9.52,0-17.81,4.18-22.79,11.54
			c-2.17,3.25-2.38,7.39-0.56,10.78c1.81,3.38,5.32,5.47,9.17,5.47c2.35,0,4.69-0.81,6.61-2.3c1.18-0.93,2.36-1.53,3.33-1.9v17.19
			c0,0.15-0.01,0.37-0.02,0.56c-0.43,2.88,0.35,5.76,2.16,7.97c1.9,2.31,4.76,3.67,7.76,3.67c0,0,0,0,0,0
			c3.34,0,5.59-1.59,6.64-2.47c1.8,1.53,4.1,2.41,6.5,2.41c2.31,0,4.1-0.76,5.34-1.52c1.7,1.22,3.78,1.91,6,1.91c0,0,0,0,0,0
			c1.06,0,2.15-0.16,3.21-0.48c0.04-0.01,0.07-0.02,0.11-0.03c3.61-1.13,8.52-3.46,12.41-6.98c1.84,2.9,5.08,4.74,8.79,4.74h0
			c0.29,0,0.6-0.01,0.86-0.03c11.07-0.82,22.8-8.14,23.82-20.2v10.47c0,0.15-0.01,0.37-0.02,0.56c-0.43,2.88,0.34,5.75,2.15,7.96
			c1.9,2.32,4.77,3.68,7.77,3.68c0,0,0,0,0,0c3.43,0,5.72-1.69,6.74-2.54c0.14-0.1,0.3-0.2,0.43-0.29l2.94-1.6
			c3.21-1.75,5.21-5.12,5.21-8.78V39.82c0.8,1.37,1.9,2.53,3.22,3.4v14.77c0,0.15-0.01,0.36-0.02,0.55
			c-0.43,2.88,0.35,5.76,2.16,7.97c1.9,2.31,4.76,3.67,7.76,3.67c0,0,0,0,0,0c3.43,0,5.72-1.69,6.73-2.54
			c0.14-0.1,0.3-0.2,0.43-0.29l2.94-1.6c1.23-0.67,2.28-1.59,3.12-2.66c1.41-0.36,2.53-0.97,3.34-1.52c1.65,1.1,3.63,1.73,5.76,1.73
			c0,0,0,0,0,0c0.8,0,1.6-0.09,2.4-0.26c16.86-3.47,18.68-13.31,18.68-17.39c0-0.18-0.02-0.36-0.03-0.54
			c0.14-0.1,0.29-0.22,0.43-0.31v16.98C465.92,61.92,465.92,62.13,465.91,62.32z"/>
		<path class="st123" d="M842.08,36.87c0-10.03-9.29-17.02-17.62-17.02c-2.03,0-4.15,0.44-6.2,1.19c-1.47-0.73-3.12-1.14-4.86-1.14
			c-1.99,0-3.97,0.55-5.69,1.57c-0.73,0.43-1.41,0.84-2.07,1.24c-0.69,0.42-1.29,0.78-1.87,1.11c-3.43-2.26-7.79-3.67-13.03-3.67
			c-4.66,0-8.59,1.2-11.84,3.1c-1.96-1.83-4.53-2.77-7.1-2.77c-0.74,0-1.47,0.07-2.23,0.23c-0.25,0.05-0.5,0.11-0.75,0.18
			c-0.4,0.11-0.94,0.21-1.5,0.27c-1.25-5.51-5.71-9.47-11.17-9.47c-1.99,0-3.97,0.55-5.69,1.57c-0.73,0.43-1.41,0.84-2.07,1.24
			c-1.64,1-2.83,1.72-4.19,2.28c-0.22,0.09-0.44,0.19-0.66,0.3c-1.63,0.81-2.95,2-3.92,3.41c-1.44-0.25-2.95-0.39-4.51-0.39
			c-5.08,0-9.13,1.18-12.33,2.78c-2.94-1.73-6.63-2.72-10.47-2.72c-2.15,0-4.25,0.33-6.29,0.98c-0.61-0.34-1.25-0.61-1.92-0.83
			c-0.03-0.03-0.05-0.07-0.08-0.1c-5.27-5.6-12.19-8.69-19.49-8.69c-13.71,0-24.46,8.08-24.46,18.4v9.19
			c-0.84-9.48-8.54-18.95-22.16-18.95c-4.66,0-8.59,1.2-11.84,3.1c-1.96-1.83-4.53-2.77-7.1-2.77c-0.74,0-1.47,0.07-2.23,0.23
			c-0.25,0.05-0.5,0.11-0.75,0.18c-0.4,0.11-0.94,0.21-1.5,0.27c-1.25-5.51-5.71-9.47-11.17-9.47c-1.99,0-3.97,0.55-5.69,1.57
			c-0.73,0.43-1.41,0.84-2.07,1.24c-1.64,1-2.83,1.72-4.19,2.28c-0.22,0.09-0.44,0.19-0.65,0.3c-1.63,0.81-2.95,2-3.92,3.41
			c-1.44-0.25-2.95-0.39-4.51-0.39c-13.42,0-19.72,8.2-21.79,10.89l-0.06,0.08c-0.35-0.79-0.8-1.54-1.33-2.22
			c-1.22-1.51-7.86-9.05-18.64-9.05c-5.24,0-10.19,1.67-14.11,4.38c-0.76-0.58-1.56-1.13-2.41-1.6c-3.38-1.83-6.84-2.76-10.3-2.76
			c-4.02,0-9.96,1.28-15.45,7.35c-8.01,8.53-8.9,19.58-2.27,28.15c3.59,4.69,9.52,7.49,15.86,7.49c0,0,0,0,0,0
			c2.12,0,4.17-0.31,6.13-0.9c0,0.1-0.01,0.21-0.01,0.31c-0.43,2.88,0.35,5.76,2.16,7.97c1.9,2.31,4.76,3.67,7.76,3.67
			c3.44,0,5.73-1.69,6.74-2.54c0.14-0.09,0.29-0.2,0.43-0.29l2.94-1.6c3.21-1.75,5.21-5.12,5.21-8.78l0-12.1
			c1.32,0.61,2.78,0.94,4.29,0.94c0,0,0,0,0,0c3.26,0,6.28-1.53,8.33-4.27c0.45-0.61,1.16-1.35,1.43-1.58
			c0.06-0.05,0.12-0.1,0.19-0.16c0.66-0.54,1.22-1.12,1.7-1.73c0.05,0.11,0.08,0.23,0.14,0.34c1.76,3.6,5.37,5.84,9.42,5.84
			c0,0,0,0,0,0c2.41,0,4.79-0.83,6.71-2.33c0.39-0.3,0.77-0.57,1.12-0.81v16.98c0,0.15-0.01,0.36-0.02,0.55
			c-0.43,2.88,0.35,5.76,2.17,7.98c1.9,2.31,4.76,3.67,7.76,3.67c3.43,0,5.73-1.69,6.74-2.54c0.14-0.1,0.3-0.2,0.43-0.29l2.94-1.6
			c1.87-1.02,3.32-2.6,4.21-4.46c1.75-0.2,3.14-0.82,4.16-1.45c1.7,1.22,3.78,1.91,6,1.91c1.06,0,2.15-0.16,3.21-0.48
			c0.04-0.01,0.07-0.02,0.11-0.03c3.61-1.13,8.52-3.46,12.42-6.98c1.84,2.9,5.08,4.74,8.79,4.74c0.29,0,0.6-0.01,0.86-0.03
			c11.07-0.82,22.8-8.14,23.82-20.2v10.47c0,0.15-0.01,0.37-0.02,0.56c-0.43,2.88,0.35,5.75,2.15,7.96c1.9,2.32,4.77,3.68,7.77,3.68
			c3.43,0,5.72-1.69,6.74-2.54c0.14-0.1,0.3-0.2,0.43-0.29l2.94-1.6c1.13-0.61,2.09-1.43,2.88-2.39c-1.36,2.65-1.55,5.76-0.38,8.57
			c0.8,1.93,2.14,3.51,3.82,4.6c-11.61,0.61-23.92,8.17-23.92,18.84v8.71c-0.84-9.48-8.54-18.95-22.16-18.95
			c-4.66,0-8.59,1.2-11.84,3.1c-1.96-1.83-4.53-2.77-7.1-2.77c-0.74,0-1.47,0.07-2.23,0.23c-0.25,0.05-0.5,0.11-0.75,0.18
			c-0.4,0.11-0.94,0.21-1.5,0.27c-1.25-5.51-5.71-9.47-11.17-9.47c-1.99,0-3.97,0.55-5.69,1.57c-0.73,0.43-1.41,0.84-2.06,1.24
			c-1.64,1-2.83,1.72-4.19,2.28c-0.22,0.09-0.44,0.19-0.66,0.3c-1.63,0.81-2.95,2-3.92,3.41c-1.44-0.25-2.95-0.39-4.51-0.39
			c-13.41,0-19.71,8.19-21.79,10.89l-0.06,0.08c-0.35-0.79-0.8-1.54-1.33-2.21c-1.22-1.51-7.86-9.06-18.64-9.06
			c-5.24,0-10.19,1.67-14.11,4.38c-0.76-0.58-1.56-1.13-2.41-1.6c-3.37-1.83-6.84-2.76-10.3-2.76c-4.02,0-9.96,1.28-15.45,7.35
			c-8.01,8.53-8.9,19.58-2.27,28.15c3.59,4.69,9.52,7.49,15.86,7.49c0,0,0,0,0,0c2.12,0,4.17-0.31,6.13-0.9
			c0,0.1-0.01,0.21-0.01,0.31c-0.43,2.88,0.35,5.76,2.16,7.97c1.9,2.31,4.76,3.67,7.76,3.67c3.44,0,5.73-1.69,6.74-2.54
			c0.14-0.09,0.29-0.2,0.43-0.29l2.94-1.6c3.21-1.75,5.21-5.12,5.21-8.78l0-12.1c1.32,0.61,2.78,0.94,4.29,0.94c0,0,0,0,0,0
			c3.27,0,6.29-1.54,8.33-4.27c0.45-0.61,1.16-1.35,1.43-1.58c0.06-0.05,0.12-0.1,0.18-0.15c0.66-0.54,1.22-1.12,1.7-1.73
			c0.05,0.11,0.08,0.23,0.14,0.34c1.76,3.6,5.37,5.84,9.42,5.84c2.41,0,4.79-0.83,6.7-2.33c0.39-0.3,0.77-0.57,1.13-0.81v16.98
			c0,0.15-0.01,0.36-0.02,0.55c-0.43,2.88,0.35,5.76,2.17,7.98c1.9,2.31,4.76,3.67,7.75,3.67h0c3.43,0,5.73-1.69,6.74-2.54
			c0.14-0.09,0.3-0.2,0.43-0.29l2.94-1.6c1.87-1.02,3.32-2.6,4.21-4.46c1.75-0.2,3.14-0.82,4.16-1.45c1.7,1.22,3.78,1.91,5.99,1.91
			c0,0,0,0,0,0c1.06,0,2.15-0.16,3.21-0.48c0.04-0.01,0.07-0.02,0.11-0.03c3.61-1.13,8.52-3.45,12.42-6.98
			c1.84,2.9,5.08,4.74,8.79,4.74c0,0,0,0,0,0c0.28,0,0.57-0.01,0.89-0.03c11.06-0.83,22.77-8.15,23.79-20.2v10.47
			c0,0.15-0.01,0.37-0.02,0.56c-0.43,2.88,0.35,5.75,2.15,7.96c1.9,2.32,4.77,3.68,7.77,3.68c3.43,0,5.72-1.69,6.74-2.54
			c0.1-0.07,0.21-0.14,0.32-0.21c-0.1,1.52,0.15,3.06,0.75,4.51c1.58,3.8,5.28,6.26,9.42,6.26c0,0,0,0,0,0
			c1.62,0,3.26-0.39,4.74-1.13c0.91-0.45,6.35-4.35,10.52-9.71c0.58,0.06,1.19,0.09,1.81,0.09c9.62,0,19.84-5.86,19.84-16.72
			c0-0.22-0.01-0.44-0.02-0.66c0.14-0.1,0.29-0.21,0.42-0.3v16.98c0,0.15-0.01,0.36-0.02,0.55c-0.43,2.88,0.35,5.76,2.17,7.98
			c1.9,2.31,4.76,3.67,7.75,3.67h0c3.43,0,5.73-1.69,6.74-2.54c0.14-0.09,0.3-0.2,0.43-0.29l2.94-1.6c1.87-1.02,3.32-2.6,4.21-4.46
			c1.75-0.2,3.14-0.82,4.16-1.45c1.7,1.22,3.78,1.91,5.99,1.91c0,0,0,0,0,0c1.06,0,2.15-0.16,3.21-0.48
			c0.04-0.01,0.07-0.02,0.11-0.03c3.61-1.13,8.52-3.45,12.42-6.98c1.84,2.9,5.08,4.74,8.79,4.74c0,0,0,0,0,0
			c0.28,0,0.57-0.01,0.89-0.03c3.55-0.27,7.16-1.2,10.47-2.75c-0.05,2.42,0.73,4.77,2.27,6.64c1.9,2.31,4.76,3.67,7.76,3.67
			c2.25,0,4.01-0.73,5.24-1.47c3.38,4.21,8.43,6.17,13.46,6.17c7.91,0,13.8-6.46,15.83-10.8c0.04-0.1,0.09-0.19,0.13-0.29
			c1.41-3.27,1.09-6.99-0.86-9.94c-1.68-2.55-4.37-4.2-7.35-4.56c3.76-3.17,6.02-7.67,6.02-12.56c0-10.03-9.29-17.02-17.62-17.02
			c-2.03,0-4.15,0.44-6.2,1.19c-1.47-0.73-3.12-1.14-4.86-1.14c-1.99,0-3.97,0.55-5.69,1.57c-0.73,0.43-1.41,0.84-2.06,1.24
			c-0.69,0.42-1.29,0.78-1.87,1.11c-3.43-2.26-7.79-3.67-13.03-3.67c-4.66,0-8.59,1.2-11.84,3.1c-1.96-1.83-4.53-2.77-7.1-2.77
			c-0.74,0-1.47,0.07-2.23,0.23c-0.25,0.05-0.5,0.11-0.75,0.18c-0.4,0.11-0.94,0.21-1.5,0.27c-1.25-5.51-5.71-9.47-11.17-9.47
			c-1.99,0-3.97,0.55-5.69,1.57c-0.73,0.43-1.41,0.84-2.06,1.24c-1.64,1-2.83,1.72-4.19,2.28c-0.22,0.09-0.44,0.19-0.66,0.3
			c-1.63,0.81-2.95,2-3.92,3.41c-1.44-0.25-2.95-0.39-4.51-0.39c-5.08,0-9.13,1.18-12.33,2.78c-2.94-1.73-6.63-2.72-10.47-2.72
			c-0.96,0-1.89,0.06-2.78,0.18c-1.94-3.29-5.34-6.4-11.2-7.89c0.27-0.11,0.54-0.21,0.8-0.35c0.91-0.45,6.35-4.35,10.52-9.71
			c0.58,0.06,1.19,0.09,1.81,0.09c9.62,0,19.84-5.86,19.84-16.72c0-0.22-0.01-0.44-0.02-0.66c0.14-0.1,0.29-0.21,0.42-0.3v16.98
			c0,0.15-0.01,0.36-0.02,0.55c-0.43,2.88,0.35,5.76,2.17,7.98c1.9,2.31,4.76,3.67,7.76,3.67c3.43,0,5.73-1.69,6.74-2.54
			c0.14-0.09,0.3-0.2,0.43-0.29l2.94-1.6c1.87-1.02,3.32-2.6,4.21-4.46c1.75-0.2,3.14-0.82,4.16-1.45c1.7,1.22,3.78,1.91,6,1.91
			c1.06,0,2.15-0.16,3.21-0.48c0.04-0.01,0.07-0.02,0.11-0.03c3.61-1.13,8.52-3.46,12.42-6.98c1.84,2.9,5.08,4.74,8.79,4.74
			c0,0,0,0,0,0c0.29,0,0.6-0.01,0.86-0.03c3.56-0.26,7.18-1.2,10.5-2.75c-0.05,2.42,0.73,4.77,2.27,6.64
			c1.9,2.31,4.76,3.67,7.76,3.67c2.25,0,4.01-0.73,5.24-1.47c3.38,4.21,8.43,6.17,13.46,6.17c7.91,0,13.8-6.46,15.83-10.8
			c0.04-0.1,0.09-0.19,0.13-0.29c1.41-3.27,1.09-6.99-0.86-9.94c-1.68-2.55-4.37-4.2-7.35-4.56
			C839.83,46.25,842.08,41.76,842.08,36.87z"/>
		<path class="st123" d="M302.59,113.56c-0.43,2.88,0.35,5.76,2.16,7.97c1.9,2.31,4.76,3.67,7.76,3.67c0,0,0,0,0,0
			c3.34,0,5.59-1.6,6.64-2.47c1.8,1.53,4.1,2.41,6.5,2.41c2.31,0,4.1-0.76,5.34-1.52c1.7,1.22,3.78,1.91,5.99,1.91c0,0,0,0,0,0
			c1.06,0,2.15-0.16,3.21-0.48c0.04-0.01,0.07-0.02,0.11-0.03c3.61-1.13,8.52-3.45,12.42-6.98c1.84,2.9,5.07,4.74,8.79,4.74
			c0,0,0,0,0,0c0.28,0,0.57-0.01,0.89-0.03c11.06-0.83,22.77-8.15,23.79-20.2v10.47c0,0.15-0.01,0.37-0.02,0.56
			c-0.43,2.88,0.35,5.75,2.15,7.96c1.9,2.32,4.77,3.68,7.77,3.68c3.43,0,5.73-1.69,6.74-2.54c0.14-0.09,0.29-0.2,0.43-0.28l2.94-1.6
			c3.21-1.75,5.21-5.12,5.21-8.78V99.82c0.8,1.37,1.9,2.53,3.22,3.4v14.77c0,0.15-0.01,0.36-0.02,0.55
			c-0.43,2.88,0.35,5.76,2.16,7.97c1.9,2.31,4.76,3.67,7.76,3.67c0,0,0,0,0,0c3.43,0,5.73-1.69,6.74-2.54
			c0.14-0.1,0.3-0.2,0.43-0.29l2.94-1.6c1.23-0.67,2.28-1.59,3.11-2.66c1.41-0.36,2.53-0.97,3.34-1.52c1.65,1.1,3.64,1.73,5.76,1.73
			c0.8,0,1.6-0.09,2.4-0.26c16.86-3.47,18.68-13.31,18.68-17.39c0-0.18-0.02-0.36-0.03-0.54c0.14-0.1,0.29-0.22,0.43-0.31v16.98
			c0,0.15-0.01,0.36-0.02,0.55c-0.43,2.88,0.35,5.76,2.17,7.98c1.9,2.31,4.76,3.67,7.75,3.67c0,0,0,0,0,0
			c3.43,0,5.73-1.69,6.74-2.54c0.14-0.09,0.29-0.2,0.43-0.29l2.94-1.6c3.21-1.75,5.21-5.12,5.21-8.78V95.07
			c0-8.54-8.35-14.98-19.42-14.98c-5.79,0-10.26,1.53-13.63,3.49c-3.45-2.01-8.17-3.61-13.73-3.61c-3.52,0-7.42,1.22-10.92,3.23
			c-1.54-1.44-3.44-2.43-5.55-2.81c-0.06-0.06-0.1-0.13-0.16-0.19c-5.27-5.6-12.19-8.69-19.49-8.69c-13.72,0-24.46,8.08-24.46,18.4
			v9.19c-0.84-9.48-8.54-18.95-22.16-18.95c-4.66,0-8.59,1.2-11.84,3.1c-1.96-1.83-4.53-2.77-7.1-2.77c-0.74,0-1.47,0.07-2.23,0.23
			c-0.25,0.05-0.5,0.11-0.75,0.18c-0.4,0.11-0.94,0.21-1.5,0.27c-1.25-5.51-5.71-9.47-11.17-9.47c-1.99,0-3.97,0.55-5.69,1.57
			c-0.73,0.43-1.41,0.84-2.06,1.24c-0.49,0.3-0.94,0.57-1.36,0.82c-3.54-1.95-8.16-3.07-13.48-3.07c-9.52,0-17.81,4.18-22.79,11.54
			c-2.17,3.25-2.38,7.38-0.56,10.78c1.81,3.37,5.32,5.47,9.17,5.47c2.35,0,4.69-0.81,6.61-2.3c1.18-0.93,2.36-1.53,3.33-1.89v17.18
			C302.6,113.16,302.6,113.38,302.59,113.56z"/>
	</g>
	<g>
		<path class="st291" d="M304.45,22.23c6.24,0,10.98,2.16,10.98,4.62v25.14l-3.3,1.8c-0.18,0.12-1.38,0.9-1.56,1.08
			c-0.48,0.42-0.54,0.42-0.48,0.12c0.06-0.18,0.12-1.38,0.12-1.98v-22.5c0-3.66-4.92-5.16-8.04-5.16c-3.18,0-7.56,1.44-11.46,4.5
			c-0.54,0.42-1.08,0-0.72-0.54C291.37,27.27,295.51,22.23,304.45,22.23z"/>
		<path class="st291" d="M321.43,26.61c-0.6-0.12-1.68-0.18-2.22-0.18s-0.54-0.3-0.3-0.42c2.76-1.14,4.74-2.52,7.5-4.14
			c1.32-0.78,2.16,0.96,2.16,2.46v16.5c1.14-0.18,2.64-0.78,5.22-2.1c3-1.56,3.96-3.36,4.26-4.68c0.3-1.32-0.9-1.92-1.44-2.28
			c-0.36-0.18-0.42-0.54,0.24-0.54c1.5,0,3.66-0.18,5.58-0.72c0.6-0.12,0.72,0.06,0.72,1.14c0,4.2-2.7,4.92-6.06,6.9
			c5.7,0.24,9.66,2.1,9.66,6.42c0,4.92-7.2,9.06-11.82,10.5c-0.6,0.18-0.72-0.06-0.3-0.36c2.64-1.68,6.3-5.4,6.3-9
			c0-2.22-1.38-5.4-6.96-5.76c-2.28,1.26-4.26,2.16-5.4,2.76v8.82l-3.3,1.8c-0.18,0.12-1.38,0.9-1.56,1.08
			c-0.48,0.42-0.54,0.42-0.48,0.12c0.06-0.18,0.12-1.38,0.12-1.98v-24C323.35,27.51,322.93,26.91,321.43,26.61z"/>
		<path class="st291" d="M361.63,30.15c8.16,0,12.24,5.34,12.24,10.68c0,8.28-9.78,11.58-14.64,11.94c-0.72,0.06-0.6-0.42,0-0.66
			c4.74-2.04,8.04-4.02,8.46-8.82h-7.44c-0.72,0-5.52,0.18-6.3,0.3c-2.04,0.36-2.28,0.3-1.62-0.18c0.42-0.3,2.7-2.58,3.54-3.36
			l0.12-0.12h11.64c-0.72-5.52-3.96-7.86-7.14-7.86c-4.32,0-7.08,2.7-7.08,4.68c0,0.48-0.12,0.66-0.3,0.72
			c-1.74,0.6-2.76,1.14-3.72,1.92c-0.3,0.24-0.72,0.48-0.48-0.24C349.57,37.35,352.75,30.15,361.63,30.15z"/>
		<path class="st291" d="M408.24,21.51c6.42,0,10.5,3.72,12.24,5.58c0.24,0.24,0.06,0.36-0.12,0.48c-1.38,0.78-3.06,2.76-3.96,4.02
			c-0.24,0.36-0.42,0.48-0.6,0.06c-1.14-2.52-4.56-7.44-10.26-7.44c-2.82,0-6.54,1.74-6.54,5.64v22.14l-3.3,1.8
			c-0.18,0.12-1.38,0.9-1.56,1.08c-0.48,0.42-0.54,0.42-0.48,0.12c0.06-0.18,0.12-1.38,0.12-1.98v-23.1
			C393.79,25.77,399.6,21.51,408.24,21.51z"/>
		<path class="st291" d="M420.31,35.13c-0.6-0.12-1.68-0.18-2.22-0.18s-0.54-0.3-0.3-0.42c2.76-1.14,4.74-2.52,7.5-4.14
			c1.32-0.78,2.16,0.96,2.16,2.46v24.12l-3.3,1.8c-0.18,0.12-1.38,0.9-1.56,1.08c-0.48,0.42-0.54,0.42-0.48,0.12
			c0.06-0.18,0.12-1.38,0.12-1.98V37.47C422.23,36.03,421.81,35.43,420.31,35.13z"/>
		<path class="st291" d="M449.95,46.35c0-2.7-1.8-4.26-4.86-4.26c-1.92,0-5.22,2.7-6.9,3.78v4.32l-3.3,1.8
			c-0.18,0.12-1.38,0.9-1.56,1.08c-0.48,0.42-0.54,0.42-0.48,0.12c0.06-0.18,0.12-1.38,0.12-1.98v-13.5c0-2.34,6.3-7.74,11.4-7.74
			c5.04,0,8.88,1.98,10.56,3.6c0.66,0.66,0.48,0.66,0.24,0.84c-0.9,0.72-1.92,1.8-2.58,2.7c-0.36,0.6-0.48,0.72-0.78,0.18
			c-1.38-1.98-3.42-4.8-7.8-4.8c-3.72,0-5.82,2.46-5.82,3.54v7.62c2.16-0.9,6.18-3.96,9.42-3.96c4.68,0,7.92,1.68,7.92,5.94
			c0,4.62-6.66,6.78-10.8,7.62c-0.48,0.12-0.72-0.06-0.36-0.24C446.35,51.99,449.95,50.01,449.95,46.35z"/>
		<path class="st291" d="M471.72,30.09c5.76,0,9.42,2.52,9.42,4.98v25.68l-3.3,1.8c-0.18,0.12-1.38,0.9-1.56,1.08
			c-0.48,0.42-0.54,0.42-0.48,0.12c0.06-0.18,0.12-1.38,0.12-1.98V37.71c0-2.64-2.82-4.5-6.78-4.5c-2.58,0-6.48,1.38-10.5,4.5
			c-0.6,0.48-1.32,0.06-0.9-0.48C459.37,35.13,463.03,30.09,471.72,30.09z"/>
		<path class="st291" d="M503.88,49.23c-4.5-5.82-1.68-11.76,1.68-15.3c3.54-3.96,8.1-5.58,13.62-2.58
			c4.86,2.7,7.38,9.54,2.22,16.32C515.7,55.17,507.01,53.31,503.88,49.23z M516.42,35.49c-3.48-2.64-7.5-2.94-9.3-1.08
			c-2.46,2.58-1.56,8.28,0.66,11.16c2.64,3.42,8.7,5.04,10.8,3C522.12,45.09,519.6,38.01,516.42,35.49z"/>
		<path class="st291" d="M540.48,29.79c5.52,0,9.6,3.78,10.86,5.34c0.24,0.3-0.3,0.6-0.48,0.78c-1.02,0.84-2.28,2.22-3.12,3.36
			c-0.18,0.24-0.36,0.3-0.54,0c-1.2-2.4-4.68-7.56-8.52-7.56c-3.54,0-5.52,2.88-5.52,6.78v22.14l-3.3,1.8
			c-0.18,0.12-1.38,0.9-1.56,1.08c-0.48,0.42-0.54,0.42-0.48,0.12c0.06-0.18,0.12-1.38,0.12-1.98v-23.1
			C527.94,35.07,533.16,29.79,540.48,29.79z"/>
		<path class="st291" d="M582.3,30.09c5.76,0,9.42,2.52,9.42,4.98v25.68l-3.3,1.8c-0.18,0.12-1.38,0.9-1.56,1.08
			c-0.48,0.42-0.54,0.42-0.48,0.12c0.06-0.18,0.12-1.38,0.12-1.98V37.71c0-2.64-2.82-4.5-6.78-4.5c-2.58,0-6.48,1.38-10.5,4.5
			c-0.6,0.48-1.32,0.06-0.9-0.48C569.94,35.13,573.6,30.09,582.3,30.09z"/>
		<path class="st291" d="M597.72,26.61c-0.6-0.12-1.68-0.18-2.22-0.18s-0.54-0.3-0.3-0.42c2.76-1.14,4.74-2.52,7.5-4.14
			c1.32-0.78,2.16,0.96,2.16,2.46v16.5c1.14-0.18,2.64-0.78,5.22-2.1c3-1.56,3.96-3.36,4.26-4.68c0.3-1.32-0.9-1.92-1.44-2.28
			c-0.36-0.18-0.42-0.54,0.24-0.54c1.5,0,3.66-0.18,5.58-0.72c0.6-0.12,0.72,0.06,0.72,1.14c0,4.2-2.7,4.92-6.06,6.9
			c5.7,0.24,9.66,2.1,9.66,6.42c0,4.92-7.2,9.06-11.82,10.5c-0.6,0.18-0.72-0.06-0.3-0.36c2.64-1.68,6.3-5.4,6.3-9
			c0-2.22-1.38-5.4-6.96-5.76c-2.28,1.26-4.26,2.16-5.4,2.76v8.82l-3.3,1.8c-0.18,0.12-1.38,0.9-1.56,1.08
			c-0.48,0.42-0.54,0.42-0.48,0.12c0.06-0.18,0.12-1.38,0.12-1.98v-24C599.64,27.51,599.22,26.91,597.72,26.61z"/>
		<path class="st291" d="M637.92,30.15c8.16,0,12.24,5.34,12.24,10.68c0,8.28-9.78,11.58-14.64,11.94c-0.72,0.06-0.6-0.42,0-0.66
			c4.74-2.04,8.04-4.02,8.46-8.82h-7.44c-0.72,0-5.52,0.18-6.3,0.3c-2.04,0.36-2.28,0.3-1.62-0.18c0.42-0.3,2.7-2.58,3.54-3.36
			l0.12-0.12h11.64c-0.72-5.52-3.96-7.86-7.14-7.86c-4.32,0-7.08,2.7-7.08,4.68c0,0.48-0.12,0.66-0.3,0.72
			c-1.74,0.6-2.76,1.14-3.72,1.92c-0.3,0.24-0.72,0.48-0.48-0.24C625.86,37.35,629.04,30.15,637.92,30.15z"/>
		<path class="st291" d="M684.54,21.51c6.42,0,10.5,3.72,12.24,5.58c0.24,0.24,0.06,0.36-0.12,0.48c-1.38,0.78-3.06,2.76-3.96,4.02
			c-0.24,0.36-0.42,0.48-0.6,0.06c-1.14-2.52-4.56-7.44-10.26-7.44c-2.82,0-6.54,1.74-6.54,5.64v22.14l-3.3,1.8
			c-0.18,0.12-1.38,0.9-1.56,1.08c-0.48,0.42-0.54,0.42-0.48,0.12c0.06-0.18,0.12-1.38,0.12-1.98v-23.1
			C670.08,25.77,675.9,21.51,684.54,21.51z"/>
		<path class="st291" d="M695.04,34.65c-0.6-0.12-1.68-0.18-2.22-0.18s-0.54-0.3-0.3-0.42c2.76-1.14,4.74-2.52,7.5-4.14
			c1.32-0.78,2.16,0.96,2.16,2.46v3.06c2.46-2.64,5.76-5.28,10.14-5.28c3.12,0,5.7,1.2,6.6,2.28c-0.3,0.18-2.94,2.64-3.36,3.3
			c-1.2-1.2-3.36-2.22-6.36-2.22c-2.94,0-4.62,1.8-7.02,4.2v5.64c2.94-1.62,7.38-4.56,9.24-4.56c4.02,0,7.5,2.58,7.5,6.96
			c0,4.86-6.06,6.72-9.84,6.72c-3.18,0-5.52-1.86-6.9-2.46v0.48c0,4.26-8.7,12.06-9.9,12.66c-0.36,0.18-0.66,0-0.3-0.36
			c1.08-0.96,4.98-7.68,4.98-11.52v-0.18v-4.68v-9.42C696.96,35.55,696.54,34.95,695.04,34.65z M710.7,50.19
			c2.4,0,2.94-0.18,2.94-2.88c0-3.3-2.82-5.52-4.74-5.52c-1.68,0-4.08,2.16-6.18,3.12C704.82,47.43,708.12,50.19,710.7,50.19z"/>
		<path class="st291" d="M735.12,30.09c5.76,0,9.42,2.52,9.42,4.98v25.68l-3.3,1.8c-0.18,0.12-1.38,0.9-1.56,1.08
			c-0.48,0.42-0.54,0.42-0.48,0.12c0.06-0.18,0.12-1.38,0.12-1.98V37.71c0-2.64-2.82-4.5-6.78-4.5c-2.58,0-6.48,1.38-10.5,4.5
			c-0.6,0.48-1.32,0.06-0.9-0.48C722.76,35.13,726.42,30.09,735.12,30.09z"/>
		<path class="st291" d="M750.54,26.61c-0.6-0.12-1.68-0.18-2.22-0.18s-0.54-0.3-0.3-0.42c2.76-1.14,4.74-2.52,7.5-4.14
			c1.32-0.78,2.16,0.96,2.16,2.46v16.5c1.14-0.18,2.64-0.78,5.22-2.1c3-1.56,3.96-3.36,4.26-4.68c0.3-1.32-0.9-1.92-1.44-2.28
			c-0.36-0.18-0.42-0.54,0.24-0.54c1.5,0,3.66-0.18,5.58-0.72c0.6-0.12,0.72,0.06,0.72,1.14c0,4.2-2.7,4.92-6.06,6.9
			c5.7,0.24,9.66,2.1,9.66,6.42c0,4.92-7.2,9.06-11.82,10.5c-0.6,0.18-0.72-0.06-0.3-0.36c2.64-1.68,6.3-5.4,6.3-9
			c0-2.22-1.38-5.4-6.96-5.76c-2.28,1.26-4.26,2.16-5.4,2.76v8.82l-3.3,1.8c-0.18,0.12-1.38,0.9-1.56,1.08
			c-0.48,0.42-0.54,0.42-0.48,0.12c0.06-0.18,0.12-1.38,0.12-1.98v-24C752.46,27.51,752.04,26.91,750.54,26.61z"/>
		<path class="st291" d="M790.74,30.15c8.16,0,12.24,5.34,12.24,10.68c0,8.28-9.78,11.58-14.64,11.94c-0.72,0.06-0.6-0.42,0-0.66
			c4.74-2.04,8.04-4.02,8.46-8.82h-7.44c-0.72,0-5.52,0.18-6.3,0.3c-2.04,0.36-2.28,0.3-1.62-0.18c0.42-0.3,2.7-2.58,3.54-3.36
			l0.12-0.12h11.64c-0.72-5.52-3.96-7.86-7.14-7.86c-4.32,0-7.08,2.7-7.08,4.68c0,0.48-0.12,0.66-0.3,0.72
			c-1.74,0.6-2.76,1.14-3.72,1.92c-0.3,0.24-0.72,0.48-0.48-0.24C778.68,37.35,781.86,30.15,790.74,30.15z"/>
		<path class="st291" d="M807.78,34.83c-0.6-0.12-1.68-0.18-2.22-0.18s-0.54-0.3-0.3-0.42c2.76-1.14,4.74-2.52,7.5-4.14
			c1.32-0.78,2.16,0.96,2.16,2.46v2.34c2.4-2.7,6.9-5.04,9.54-5.04c2.88,0,7.62,2.7,7.62,7.02c0,3.3-2.7,5.82-6.06,6.78v10.92
			c0,5.4,1.5,7.38,3.96,7.38c1.74,0,3.42-1.02,4.62-2.46c0.3-0.36,0.66,0.06,0.48,0.48c-0.9,1.92-3.9,5.04-6.78,5.04
			c-4.74,0-7.5-3.06-7.5-9.12v-12l-0.96-0.24c-0.78-0.24-1.02-0.78,0-0.96c1.32-0.24,6.12-0.54,6.12-4.98
			c0-2.76-1.68-5.16-4.74-5.16c-1.98,0-4.98,2.52-6.3,4.14v20.4l-3.3,1.8c-0.18,0.12-1.38,0.9-1.56,1.08
			c-0.48,0.42-0.54,0.42-0.48,0.12c0.06-0.18,0.12-1.38,0.12-1.98V37.17C809.7,35.73,809.28,35.13,807.78,34.83z"/>
		<path class="st291" d="M306.84,82.23c6.24,0,10.98,2.16,10.98,4.62v25.14l-3.3,1.8c-0.18,0.12-1.38,0.9-1.56,1.08
			c-0.48,0.42-0.54,0.42-0.48,0.12c0.06-0.18,0.12-1.38,0.12-1.98v-22.5c0-3.66-4.92-5.16-8.04-5.16c-3.18,0-7.56,1.44-11.46,4.5
			c-0.54,0.42-1.08,0-0.72-0.54C293.77,87.27,297.91,82.23,306.84,82.23z"/>
		<path class="st291" d="M323.83,86.61c-0.6-0.12-1.68-0.18-2.22-0.18s-0.54-0.3-0.3-0.42c2.76-1.14,4.74-2.52,7.5-4.14
			c1.32-0.78,2.16,0.96,2.16,2.46v16.5c1.14-0.18,2.64-0.78,5.22-2.1c3-1.56,3.96-3.36,4.26-4.68c0.3-1.32-0.9-1.92-1.44-2.28
			c-0.36-0.18-0.42-0.54,0.24-0.54c1.5,0,3.66-0.18,5.58-0.72c0.6-0.12,0.72,0.06,0.72,1.14c0,4.2-2.7,4.92-6.06,6.9
			c5.7,0.24,9.66,2.1,9.66,6.42c0,4.92-7.2,9.06-11.82,10.5c-0.6,0.18-0.72-0.06-0.3-0.36c2.64-1.68,6.3-5.4,6.3-9
			c0-2.22-1.38-5.4-6.96-5.76c-2.28,1.26-4.26,2.16-5.4,2.76v8.82l-3.3,1.8c-0.18,0.12-1.38,0.9-1.56,1.08
			c-0.48,0.42-0.54,0.42-0.48,0.12c0.06-0.18,0.12-1.38,0.12-1.98v-24C325.75,87.51,325.33,86.91,323.83,86.61z"/>
		<path class="st291" d="M364.03,90.15c8.16,0,12.24,5.34,12.24,10.68c0,8.28-9.78,11.58-14.64,11.94c-0.72,0.06-0.6-0.42,0-0.66
			c4.74-2.04,8.04-4.02,8.46-8.82h-7.44c-0.72,0-5.52,0.18-6.3,0.3c-2.04,0.36-2.28,0.3-1.62-0.18c0.42-0.3,2.7-2.58,3.54-3.36
			l0.12-0.12h11.64c-0.72-5.52-3.96-7.86-7.14-7.86c-4.32,0-7.08,2.7-7.08,4.68c0,0.48-0.12,0.66-0.3,0.72
			c-1.74,0.6-2.76,1.14-3.72,1.92c-0.3,0.24-0.72,0.48-0.48-0.24C351.97,97.35,355.15,90.15,364.03,90.15z"/>
		<path class="st291" d="M410.64,81.51c6.42,0,10.5,3.72,12.24,5.58c0.24,0.24,0.06,0.36-0.12,0.48c-1.38,0.78-3.06,2.76-3.96,4.02
			c-0.24,0.36-0.42,0.48-0.6,0.06c-1.14-2.52-4.56-7.44-10.26-7.44c-2.82,0-6.54,1.74-6.54,5.64v22.14l-3.3,1.8
			c-0.18,0.12-1.38,0.9-1.56,1.08c-0.48,0.42-0.54,0.42-0.48,0.12c0.06-0.18,0.12-1.38,0.12-1.98v-23.1
			C396.18,85.77,402,81.51,410.64,81.51z"/>
		<path class="st291" d="M422.71,95.13c-0.6-0.12-1.68-0.18-2.22-0.18s-0.54-0.3-0.3-0.42c2.76-1.14,4.74-2.52,7.5-4.14
			c1.32-0.78,2.16,0.96,2.16,2.46v24.12l-3.3,1.8c-0.18,0.12-1.38,0.9-1.56,1.08c-0.48,0.42-0.54,0.42-0.48,0.12
			c0.06-0.18,0.12-1.38,0.12-1.98V97.47C424.63,96.03,424.21,95.43,422.71,95.13z"/>
		<path class="st291" d="M452.34,106.35c0-2.7-1.8-4.26-4.86-4.26c-1.92,0-5.22,2.7-6.9,3.78v4.32l-3.3,1.8
			c-0.18,0.12-1.38,0.9-1.56,1.08c-0.48,0.42-0.54,0.42-0.48,0.12c0.06-0.18,0.12-1.38,0.12-1.98v-13.5c0-2.34,6.3-7.74,11.4-7.74
			c5.04,0,8.88,1.98,10.56,3.6c0.66,0.66,0.48,0.66,0.24,0.84c-0.9,0.72-1.92,1.8-2.58,2.7c-0.36,0.6-0.48,0.72-0.78,0.18
			c-1.38-1.98-3.42-4.8-7.8-4.8c-3.72,0-5.82,2.46-5.82,3.54v7.62c2.16-0.9,6.18-3.96,9.42-3.96c4.68,0,7.92,1.68,7.92,5.94
			c0,4.62-6.66,6.78-10.8,7.62c-0.48,0.12-0.72-0.06-0.36-0.24C448.75,111.99,452.34,110.01,452.34,106.35z"/>
		<path class="st291" d="M474.12,90.09c5.76,0,9.42,2.52,9.42,4.98v25.68l-3.3,1.8c-0.18,0.12-1.38,0.9-1.56,1.08
			c-0.48,0.42-0.54,0.42-0.48,0.12c0.06-0.18,0.12-1.38,0.12-1.98V97.71c0-2.64-2.82-4.5-6.78-4.5c-2.58,0-6.48,1.38-10.5,4.5
			c-0.6,0.48-1.32,0.06-0.9-0.48C461.76,95.13,465.42,90.09,474.12,90.09z"/>
		<path class="st291" d="M506.28,109.23c-4.5-5.82-1.68-11.76,1.68-15.3c3.54-3.96,8.1-5.58,13.62-2.58
			c4.86,2.7,7.38,9.54,2.22,16.32C518.1,115.17,509.4,113.31,506.28,109.23z M518.82,95.49c-3.48-2.64-7.5-2.94-9.3-1.08
			c-2.46,2.58-1.56,8.28,0.66,11.16c2.64,3.42,8.7,5.04,10.8,3C524.52,105.09,522,98.01,518.82,95.49z"/>
		<path class="st291" d="M542.88,89.79c5.52,0,9.6,3.78,10.86,5.34c0.24,0.3-0.3,0.6-0.48,0.78c-1.02,0.84-2.28,2.22-3.12,3.36
			c-0.18,0.24-0.36,0.3-0.54,0c-1.2-2.4-4.68-7.56-8.52-7.56c-3.54,0-5.52,2.88-5.52,6.78v22.14l-3.3,1.8
			c-0.18,0.12-1.38,0.9-1.56,1.08c-0.48,0.42-0.54,0.42-0.48,0.12c0.06-0.18,0.12-1.38,0.12-1.98v-23.1
			C530.34,95.07,535.56,89.79,542.88,89.79z"/>
		<path class="st291" d="M584.7,90.09c5.76,0,9.42,2.52,9.42,4.98v25.68l-3.3,1.8c-0.18,0.12-1.38,0.9-1.56,1.08
			c-0.48,0.42-0.54,0.42-0.48,0.12c0.06-0.18,0.12-1.38,0.12-1.98V97.71c0-2.64-2.82-4.5-6.78-4.5c-2.58,0-6.48,1.38-10.5,4.5
			c-0.6,0.48-1.32,0.06-0.9-0.48C572.34,95.13,576,90.09,584.7,90.09z"/>
		<path class="st291" d="M600.12,86.61c-0.6-0.12-1.68-0.18-2.22-0.18s-0.54-0.3-0.3-0.42c2.76-1.14,4.74-2.52,7.5-4.14
			c1.32-0.78,2.16,0.96,2.16,2.46v16.5c1.14-0.18,2.64-0.78,5.22-2.1c3-1.56,3.96-3.36,4.26-4.68c0.3-1.32-0.9-1.92-1.44-2.28
			c-0.36-0.18-0.42-0.54,0.24-0.54c1.5,0,3.66-0.18,5.58-0.72c0.6-0.12,0.72,0.06,0.72,1.14c0,4.2-2.7,4.92-6.06,6.9
			c5.7,0.24,9.66,2.1,9.66,6.42c0,4.92-7.2,9.06-11.82,10.5c-0.6,0.18-0.72-0.06-0.3-0.36c2.64-1.68,6.3-5.4,6.3-9
			c0-2.22-1.38-5.4-6.96-5.76c-2.28,1.26-4.26,2.16-5.4,2.76v8.82l-3.3,1.8c-0.18,0.12-1.38,0.9-1.56,1.08
			c-0.48,0.42-0.54,0.42-0.48,0.12c0.06-0.18,0.12-1.38,0.12-1.98v-24C602.04,87.51,601.62,86.91,600.12,86.61z"/>
		<path class="st291" d="M640.32,90.15c8.16,0,12.24,5.34,12.24,10.68c0,8.28-9.78,11.58-14.64,11.94c-0.72,0.06-0.6-0.42,0-0.66
			c4.74-2.04,8.04-4.02,8.46-8.82h-7.44c-0.72,0-5.52,0.18-6.3,0.3c-2.04,0.36-2.28,0.3-1.62-0.18c0.42-0.3,2.7-2.58,3.54-3.36
			l0.12-0.12h11.64c-0.72-5.52-3.96-7.86-7.14-7.86c-4.32,0-7.08,2.7-7.08,4.68c0,0.48-0.12,0.66-0.3,0.72
			c-1.74,0.6-2.76,1.14-3.72,1.92c-0.3,0.24-0.72,0.48-0.48-0.24C628.26,97.35,631.44,90.15,640.32,90.15z"/>
		
			<linearGradient id="SVGID_00000000936773376467539160000004120065818751529859_" gradientUnits="userSpaceOnUse" x1="672.343" y1="102.3647" x2="716.5207" y2="102.3647">
			<stop  offset="0" style="stop-color:#4C5FBF"/>
			<stop  offset="0.3" style="stop-color:#4889D1"/>
			<stop  offset="0.5" style="stop-color:#47AADD"/>
			<stop  offset="1" style="stop-color:#FE9934"/>
		</linearGradient>
		<path style="fill:url(#SVGID_00000000936773376467539160000004120065818751529859_);" d="M687.9,81.51
			c5.46,0,11.82,0.96,11.82,8.64v5.34c2.46-2.64,5.76-5.34,10.2-5.34c3.12,0,5.7,1.2,6.6,2.28c-0.3,0.18-2.94,2.64-3.36,3.3
			c-1.2-1.2-3.36-2.22-6.36-2.22c-2.94,0-4.68,1.8-7.08,4.26l0.06,5.58c2.94-1.62,7.38-4.56,9.24-4.56c4.02,0,7.5,2.58,7.5,6.96
			c0,4.86-6.06,6.72-9.84,6.72c-3.18,0-5.52-1.86-6.9-2.46v0.48c0,4.26-8.7,12.06-9.9,12.66c-0.36,0.18-0.66,0-0.3-0.36
			c1.08-0.96,4.98-7.68,4.98-11.52v-0.18l-0.06-18.84c0-7.2-5.64-8.04-9.96-8.04c-4.02,0-6.84,2.22-6.84,4.86v22.92l-3.3,1.8
			c-0.18,0.12-1.38,0.9-1.56,1.08c-0.48,0.42-0.54,0.42-0.48,0.12c0.06-0.18,0.12-1.38,0.12-1.98V90.39
			C672.48,86.01,680.82,81.51,687.9,81.51z M708.3,110.19c2.4,0,2.94-0.18,2.94-2.88c0-3.3-2.82-5.52-4.74-5.52
			c-1.68,0-4.08,2.16-6.18,3.12C702.42,107.43,705.72,110.19,708.3,110.19z"/>
		<path class="st291" d="M732.72,90.09c5.76,0,9.42,2.52,9.42,4.98v25.68l-3.3,1.8c-0.18,0.12-1.38,0.9-1.56,1.08
			c-0.48,0.42-0.54,0.42-0.48,0.12c0.06-0.18,0.12-1.38,0.12-1.98V97.71c0-2.64-2.82-4.5-6.78-4.5c-2.58,0-6.48,1.38-10.5,4.5
			c-0.6,0.48-1.32,0.06-0.9-0.48C720.36,95.13,724.02,90.09,732.72,90.09z"/>
		<path class="st291" d="M748.14,86.61c-0.6-0.12-1.68-0.18-2.22-0.18s-0.54-0.3-0.3-0.42c2.76-1.14,4.74-2.52,7.5-4.14
			c1.32-0.78,2.16,0.96,2.16,2.46v16.5c1.14-0.18,2.64-0.78,5.22-2.1c3-1.56,3.96-3.36,4.26-4.68c0.3-1.32-0.9-1.92-1.44-2.28
			c-0.36-0.18-0.42-0.54,0.24-0.54c1.5,0,3.66-0.18,5.58-0.72c0.6-0.12,0.72,0.06,0.72,1.14c0,4.2-2.7,4.92-6.06,6.9
			c5.7,0.24,9.66,2.1,9.66,6.42c0,4.92-7.2,9.06-11.82,10.5c-0.6,0.18-0.72-0.06-0.3-0.36c2.64-1.68,6.3-5.4,6.3-9
			c0-2.22-1.38-5.4-6.96-5.76c-2.28,1.26-4.26,2.16-5.4,2.76v8.82l-3.3,1.8c-0.18,0.12-1.38,0.9-1.56,1.08
			c-0.48,0.42-0.54,0.42-0.48,0.12c0.06-0.18,0.12-1.38,0.12-1.98v-24C750.06,87.51,749.64,86.91,748.14,86.61z"/>
		<path class="st291" d="M788.34,90.15c8.16,0,12.24,5.34,12.24,10.68c0,8.28-9.78,11.58-14.64,11.94c-0.72,0.06-0.6-0.42,0-0.66
			c4.74-2.04,8.04-4.02,8.46-8.82h-7.44c-0.72,0-5.52,0.18-6.3,0.3c-2.04,0.36-2.28,0.3-1.62-0.18c0.42-0.3,2.7-2.58,3.54-3.36
			l0.12-0.12h11.64c-0.72-5.52-3.96-7.86-7.14-7.86c-4.32,0-7.08,2.7-7.08,4.68c0,0.48-0.12,0.66-0.3,0.72
			c-1.74,0.6-2.76,1.14-3.72,1.92c-0.3,0.24-0.72,0.48-0.48-0.24C776.28,97.35,779.46,90.15,788.34,90.15z"/>
		<path class="st291" d="M805.38,94.83c-0.6-0.12-1.68-0.18-2.22-0.18s-0.54-0.3-0.3-0.42c2.76-1.14,4.74-2.52,7.5-4.14
			c1.32-0.78,2.16,0.96,2.16,2.46v2.34c2.4-2.7,6.9-5.04,9.54-5.04c2.88,0,7.62,2.7,7.62,7.02c0,3.3-2.7,5.82-6.06,6.78v10.92
			c0,5.4,1.5,7.38,3.96,7.38c1.74,0,3.42-1.02,4.62-2.46c0.3-0.36,0.66,0.06,0.48,0.48c-0.9,1.92-3.9,5.04-6.78,5.04
			c-4.74,0-7.5-3.06-7.5-9.12v-12l-0.96-0.24c-0.78-0.24-1.02-0.78,0-0.96c1.32-0.24,6.12-0.54,6.12-4.98
			c0-2.76-1.68-5.16-4.74-5.16c-1.98,0-4.98,2.52-6.3,4.14v20.4l-3.3,1.8c-0.18,0.12-1.38,0.9-1.56,1.08
			c-0.48,0.42-0.54,0.42-0.48,0.12c0.06-0.18,0.12-1.38,0.12-1.98V97.17C807.3,95.73,806.88,95.13,805.38,94.83z"/>
	</g>
</g>
<g id="Editable" class="st0">
</g>
</svg>
