<?xml version="1.0" encoding="utf-8"?>
<!-- Generator: Adobe Illustrator 25.4.1, SVG Export Plug-In . SVG Version: 6.00 Build 0)  -->
<svg version="1.1" id="图层_4" xmlns="http://www.w3.org/2000/svg" xmlns:xlink="http://www.w3.org/1999/xlink" x="0px" y="0px"
	 viewBox="0 0 1125 150" style="enable-background:new 0 0 1125 150;" xml:space="preserve">
<style type="text/css">
	.st0{fill:url(#SVGID_1_);}
	.st1{fill:url(#SVGID_00000142136742220110091680000004504585786056624295_);}
	.st2{fill:url(#SVGID_00000068662147538537634790000016019432062164139698_);}
	.st3{fill:url(#SVGID_00000144309677115199431600000006225598680216176813_);}
	.st4{fill:url(#SVGID_00000171700918782167515780000012471505533706163601_);}
	.st5{fill:url(#SVGID_00000080911557815934270480000014619031025627334051_);}
	.st6{fill:url(#SVGID_00000098900840992007405300000000067390112665084821_);}
	.st7{fill:url(#SVGID_00000147928633060362134350000012870588602090699925_);}
	.st8{fill:url(#SVGID_00000147902261261448822970000008933958831037480103_);}
	.st9{fill:url(#SVGID_00000119798786066368693800000015051322689266018973_);}
	.st10{fill:url(#SVGID_00000018234838781395429000000006959763761597491363_);}
	.st11{fill:url(#SVGID_00000019656640522157999850000017704453253641040549_);}
	.st12{fill:url(#SVGID_00000144303156171874482700000006867312587639544233_);}
	.st13{fill:url(#SVGID_00000035519170548117111840000002328693778296586141_);}
	.st14{fill:url(#SVGID_00000137113222646148708450000008252344873333067689_);}
	.st15{fill:url(#SVGID_00000143577580075860387930000013009098329235242404_);}
	.st16{fill:url(#SVGID_00000098221514298094099350000002718995156603658162_);}
	.st17{fill:url(#SVGID_00000039846304701216906120000003980366594638053513_);}
	.st18{fill:url(#SVGID_00000165927970680722115650000009170775501915505591_);}
	.st19{fill:url(#SVGID_00000018216594092002703930000005366531230149201561_);}
	.st20{fill:url(#SVGID_00000095315098621932253670000014776237971107485854_);}
	.st21{fill:url(#SVGID_00000121998266758054075670000000839997419161274779_);}
	.st22{fill:url(#SVGID_00000001650367077581243260000012287645196746884009_);}
	.st23{fill:url(#SVGID_00000063595260188966261560000010406180999556881593_);}
	.st24{fill:url(#SVGID_00000070833249575262708480000015020226197602368433_);}
	.st25{fill:url(#SVGID_00000050658331547298713890000015222114139489314228_);}
	.st26{fill:url(#SVGID_00000176006080191735977870000005101129579958878637_);}
	.st27{fill:url(#SVGID_00000103253383189122964270000002543903934563782281_);}
	.st28{fill:url(#SVGID_00000181053550143057516860000000089796123709743249_);}
	.st29{fill:url(#SVGID_00000114795661622413618880000004172469990153053625_);}
	.st30{fill:url(#SVGID_00000021824241887057537300000013330186435190630024_);}
	.st31{fill:url(#SVGID_00000180358057523872329600000004449835317780175802_);}
	.st32{fill:url(#SVGID_00000051384790248188186180000006947884774111025057_);}
	.st33{fill:url(#SVGID_00000052782986686337750920000013258046424917932458_);}
	.st34{fill:url(#SVGID_00000116951555060711980120000004666761815514060220_);}
	.st35{fill:url(#SVGID_00000006686043560731067040000000895047374069730703_);}
	.st36{fill:url(#SVGID_00000027579480791528685410000016365309978871299717_);}
	.st37{fill:url(#SVGID_00000093151943225237315580000017015107032275680134_);}
	.st38{fill:url(#SVGID_00000172427607067377683270000004762245562474503079_);}
	.st39{fill:url(#SVGID_00000086689840881830009970000005220818166620436888_);}
	.st40{fill:url(#SVGID_00000011030376187468627640000010927053719428095624_);}
	.st41{fill:url(#SVGID_00000085243934247363773460000005337493162376386201_);}
	.st42{fill:url(#SVGID_00000003090162258814861080000006393935826173094558_);}
	.st43{fill:url(#SVGID_00000065780252664845675280000013042651402320967315_);}
	.st44{fill:url(#SVGID_00000173152603321446889340000016280205093789206659_);}
	.st45{fill:url(#SVGID_00000113312581070549180090000009996270187523808418_);}
	.st46{fill:url(#SVGID_00000062161383732845996230000005287425799037143699_);}
	.st47{fill:url(#SVGID_00000160166168039419914280000007557793183471233207_);}
	.st48{fill:url(#SVGID_00000129902616257614901100000015972674816122815934_);}
	.st49{fill:url(#SVGID_00000098204543469628284350000000892093965760892065_);}
	.st50{fill:url(#SVGID_00000015321400196820823760000003214082326474999702_);}
	.st51{fill:url(#SVGID_00000115492984894936601430000016671474077678844839_);}
	.st52{fill:url(#SVGID_00000029016625615008798810000004241130819055411365_);}
	.st53{fill:url(#SVGID_00000087375410594658808480000008215814482368877463_);}
	.st54{fill:url(#SVGID_00000043425149787524081920000001562412096383174052_);}
	.st55{fill:url(#SVGID_00000049193303804967895200000015224135747901823894_);}
	.st56{fill:url(#SVGID_00000009555823463862397090000009703793383137722003_);}
	.st57{fill:url(#SVGID_00000111899863268248318370000012882194980049803914_);}
	.st58{fill:url(#SVGID_00000160190960618019454020000006530007778911409031_);}
	.st59{fill:url(#SVGID_00000117667950446726249990000011435186654472514976_);}
	.st60{fill:url(#SVGID_00000173122703350157753080000007372409603864434840_);}
	.st61{fill:url(#SVGID_00000150801446781366589590000018246427944092835991_);}
	.st62{fill:url(#SVGID_00000161633859086287326750000006400437260963604108_);}
	.st63{fill:url(#SVGID_00000012459935497606145430000010115935386810089658_);}
	.st64{fill:url(#SVGID_00000162350818124147017070000008845832627985960634_);}
	.st65{fill:url(#SVGID_00000132789213215318386650000002015916804358636976_);}
	.st66{fill:url(#SVGID_00000172409717788060504350000009858313710300610975_);}
	.st67{fill:url(#SVGID_00000000180172333603958430000018025222146841984419_);}
	.st68{fill:url(#SVGID_00000085220261356916430650000015006008046887047059_);}
	.st69{fill:url(#SVGID_00000026128627610123837280000013068410115071366569_);}
	.st70{fill:url(#SVGID_00000034810986718732476760000001486264507596370072_);}
	.st71{fill:url(#SVGID_00000025415633195391359040000012361116090687032757_);}
	.st72{fill:url(#SVGID_00000008835710083012163110000002736028410476751015_);}
	.st73{fill:url(#SVGID_00000164477464844569030400000001007530757732448136_);}
	.st74{fill:url(#SVGID_00000094601451779480600200000017222797639964621964_);}
	.st75{fill:url(#SVGID_00000047750209973654634000000010330520403754632881_);}
	.st76{fill:url(#SVGID_00000111885719941396866100000010102116760506841516_);}
	.st77{fill:url(#SVGID_00000160906417590316586190000014500145617085607606_);}
	.st78{fill:url(#SVGID_00000091015472489568504800000012138756869828234396_);}
	.st79{fill:url(#SVGID_00000019664535468979471470000011497369508141471131_);}
	.st80{fill:url(#SVGID_00000016764536188074637960000014200007873725893044_);}
	.st81{fill:url(#SVGID_00000179645147248068518320000014725254446293589650_);}
	.st82{fill:url(#SVGID_00000114766054808004116730000001456746503780351381_);}
	.st83{fill:url(#SVGID_00000015327441968915129900000009484014164695212189_);}
	.st84{fill:url(#SVGID_00000105417031395380863730000010812548463474801596_);}
	.st85{fill:url(#SVGID_00000103224018279413040780000000552421473254641541_);}
	.st86{fill:url(#SVGID_00000001628520297672101320000015882770451109120161_);}
	.st87{fill:url(#SVGID_00000098186822807247764650000008764513390671250560_);}
	.st88{fill:url(#SVGID_00000029767811009970943150000004977744763094060435_);}
	.st89{fill:url(#SVGID_00000119110154825404949700000006448061515372947612_);}
	.st90{fill:url(#SVGID_00000054254493102306068560000007706313118845642149_);}
	.st91{fill:url(#SVGID_00000108279403508011284610000012433405927746258361_);}
	.st92{fill:url(#SVGID_00000121266089358094733070000005050103202247437720_);}
	.st93{fill:url(#SVGID_00000013886499936647253830000010816021504892077990_);}
	.st94{fill:url(#SVGID_00000007415888136458691350000014776946057198096052_);}
	.st95{fill:url(#SVGID_00000012473514280667089740000004558947757009072536_);}
	.st96{fill:url(#SVGID_00000042706963639339733230000004205895123869966215_);}
	.st97{fill:url(#SVGID_00000175318159797104359830000004499019643644439982_);}
	.st98{fill:url(#SVGID_00000003824834264590327100000006713784503470392964_);}
	.st99{fill:url(#SVGID_00000091718856405051923700000016217342290369311143_);}
	.st100{fill:url(#SVGID_00000052810939433291517990000009663005456562237853_);}
	.st101{fill:url(#SVGID_00000161603260103408506120000007295522242330151101_);}
	.st102{fill:url(#SVGID_00000129909282214724203340000000926552202882837688_);}
	.st103{fill:url(#SVGID_00000135683012535162614170000016492212054102247588_);}
	.st104{fill:url(#SVGID_00000058555859912722200780000000752998508185409983_);}
	.st105{fill:url(#SVGID_00000005956714732622550280000016344164195416212888_);}
	.st106{fill:url(#SVGID_00000132085884329100947590000003917692644299711928_);}
	.st107{fill:url(#SVGID_00000011018849690994394710000006899179702970608012_);}
	.st108{fill:#FFFFFF;}
	.st109{fill:url(#SVGID_00000117650999320812617110000012663017706087458194_);}
	.st110{fill:url(#SVGID_00000135664865866888776000000002776118262964411031_);}
	.st111{fill:url(#SVGID_00000144338131209019953580000003368419085421013908_);}
	.st112{fill:url(#SVGID_00000021104393531114960990000013773403613177344134_);}
	.st113{fill:url(#SVGID_00000098180900784467876600000008845036159912371095_);}
	.st114{fill:url(#SVGID_00000121275507159432519000000008670178887398345656_);}
	.st115{fill:url(#SVGID_00000025420317408279359500000000224136725110566796_);}
	.st116{fill:url(#SVGID_00000107559079551496392990000010067387283902852235_);}
	.st117{fill:url(#SVGID_00000124866578074262001770000005462219403511821187_);}
	.st118{fill:url(#SVGID_00000032636797106154416010000014597242336433580453_);}
	.st119{fill:url(#SVGID_00000155109575976830738950000003976075709390949506_);}
	.st120{fill:url(#SVGID_00000168804825915568310420000002786934957253959081_);}
	.st121{fill:url(#SVGID_00000183223844581254705840000013306448795891143068_);}
	.st122{fill:url(#SVGID_00000169555315804366980290000016284583130571588509_);}
	.st123{fill:url(#SVGID_00000128473919577366629240000004183457801980715400_);}
	.st124{fill:url(#SVGID_00000049940762217120020880000016364348273053345209_);}
	.st125{fill:url(#SVGID_00000139283674084998822940000011450968363215571120_);}
	.st126{fill:url(#SVGID_00000122681956400223436770000003925149393231752852_);}
	.st127{fill:url(#SVGID_00000021090382016804152290000011048573473568952451_);}
	.st128{fill:url(#SVGID_00000169526978359599578800000004325105780085773724_);}
	.st129{fill:url(#SVGID_00000020368034669663954260000017787190753639300251_);}
	.st130{fill:url(#SVGID_00000067936679058807073190000011717346503357809841_);}
	.st131{fill:url(#SVGID_00000122715936152713536430000003973710609614937781_);}
	.st132{fill:url(#SVGID_00000041979606182780331990000014874048689109075073_);}
	.st133{fill:url(#SVGID_00000163070427464995656950000018019067685643884171_);}
	.st134{fill:url(#SVGID_00000045583116951857113980000012340774545825658781_);}
	.st135{fill:url(#SVGID_00000142873599489923091130000005576580736451748229_);}
	.st136{fill:url(#SVGID_00000165928872163161489240000017058222448693054390_);}
	.st137{fill:url(#SVGID_00000158747441476173816760000015323407212609387709_);}
	.st138{fill:url(#SVGID_00000139289706160848109260000010387485940021816472_);}
	.st139{fill:url(#SVGID_00000124847334060997947270000003840644694465354115_);}
	.st140{fill:url(#SVGID_00000054227738654836589500000002941304816044738462_);}
	.st141{fill:url(#SVGID_00000165202330918322021430000014994430450585649309_);}
	.st142{fill:url(#SVGID_00000094580470987737285090000018342335545505175467_);}
	.st143{fill:url(#SVGID_00000010268336091128205130000010082257028402444942_);}
	.st144{fill:url(#SVGID_00000055686945223410220020000015678181131788946078_);}
	.st145{fill:url(#SVGID_00000144324138920115065690000002591563395281876149_);}
	.st146{fill:url(#SVGID_00000181806517085432866110000000717415171795951512_);}
	.st147{fill:url(#SVGID_00000025424531077223291240000001811400505630449831_);}
	.st148{fill:url(#SVGID_00000050631967255462543870000013903944405074619062_);}
	.st149{fill:#1A1A1A;}
	.st150{fill:url(#SVGID_00000117639299481809724400000018289776453773940624_);}
	.st151{fill:url(#SVGID_00000043431735441497674420000003080444171269874832_);}
	.st152{fill:url(#SVGID_00000159436756580714418840000013650948687303437213_);}
	.st153{fill:url(#SVGID_00000163032393424438686300000008454683129538178434_);}
	.st154{fill:url(#SVGID_00000033329066648594395360000018122903966606785937_);}
	.st155{fill:url(#SVGID_00000106843744394787565930000013908928797848526764_);}
	.st156{fill:url(#SVGID_00000147919223090218831550000012605295472061279165_);}
	.st157{fill:url(#SVGID_00000152230846805401071810000009312381414692191372_);}
	.st158{fill:url(#SVGID_00000089574838688638277150000016597390133133638551_);}
	.st159{fill:url(#SVGID_00000034076910073128783960000016881714752801446039_);}
	.st160{fill:url(#SVGID_00000057149971560573164000000003175310914892428715_);}
	.st161{fill:url(#SVGID_00000096018354447007084640000015730929670585897407_);}
	.st162{fill:url(#SVGID_00000003100582246393989610000010234795447575839137_);}
	.st163{fill:url(#SVGID_00000173137852800511098970000012998090025680459164_);}
	.st164{fill:url(#SVGID_00000083072210437433266360000008215234596408384928_);}
	.st165{fill:url(#SVGID_00000090998840072220085360000013737720294902538429_);}
	.st166{fill:url(#SVGID_00000106131387550038982830000009911216377963239823_);}
	.st167{fill:url(#SVGID_00000169543997674279409360000009227712791917521831_);}
	.st168{fill:url(#SVGID_00000137099951811212019350000006747909536269388963_);}
	.st169{fill:url(#SVGID_00000163074151088237033550000006521140840108933309_);}
	.st170{fill:url(#SVGID_00000010277595674813419820000010368624389635200933_);}
	.st171{fill:url(#SVGID_00000020358500994237627350000012614967508625481903_);}
	.st172{fill:url(#SVGID_00000161617338779775883190000003292431886106657971_);}
	.st173{fill:url(#SVGID_00000094615062481010106610000012628598606783560366_);}
	.st174{fill:url(#SVGID_00000059290252824413816500000016513241817263223709_);}
	.st175{fill:url(#SVGID_00000028289682987892930930000005692715788937980835_);}
	.st176{fill:url(#SVGID_00000094620586461535103110000014111947554328714657_);}
	.st177{fill:url(#SVGID_00000166641923302360712170000007854740414971717032_);}
	.st178{fill:url(#SVGID_00000052096009885093907160000003333377592284019080_);}
	.st179{fill:url(#SVGID_00000117662319793349985260000006285828307897191342_);}
	.st180{fill:url(#SVGID_00000121238192498376358910000011722758800175967910_);}
	.st181{fill:url(#SVGID_00000105409209587837854030000003621446448544032661_);}
	.st182{fill:url(#SVGID_00000005972896954523603530000018262184027199803540_);}
	.st183{fill:url(#SVGID_00000090977831235029366360000009499910028784422034_);}
	.st184{fill:url(#SVGID_00000160158823854507527010000004829060433768150432_);}
	.st185{fill:url(#SVGID_00000167378126769700186550000003872867175760008073_);}
	.st186{fill:url(#SVGID_00000109714531314313805300000002675099437858626464_);}
	.st187{fill:url(#SVGID_00000144308184353821182260000015064846312913706686_);}
	.st188{fill:url(#SVGID_00000165207119390398022860000002177206161848813975_);}
	.st189{fill:url(#SVGID_00000129198132147005137280000008182469509006688439_);}
	.st190{fill:url(#SVGID_00000140725885971654047160000015538348756322055574_);}
	.st191{fill:url(#SVGID_00000124865768993215853840000014279136992050850699_);}
</style>
<g>
	<path class="st108" d="M304.45,23.97c6.24,0,10.98,2.16,10.98,4.62v25.14l-3.3,1.8c-0.18,0.12-1.38,0.9-1.56,1.08
		c-0.48,0.42-0.54,0.42-0.48,0.12c0.06-0.18,0.12-1.38,0.12-1.98v-22.5c0-3.66-4.92-5.16-8.04-5.16c-3.18,0-7.56,1.44-11.46,4.5
		c-0.54,0.42-1.08,0-0.72-0.54C291.37,29.01,295.51,23.97,304.45,23.97z"/>
	<path class="st108" d="M321.43,28.35c-0.6-0.12-1.68-0.18-2.22-0.18s-0.54-0.3-0.3-0.42c2.76-1.14,4.74-2.52,7.5-4.14
		c1.32-0.78,2.16,0.96,2.16,2.46v16.5c1.14-0.18,2.64-0.78,5.22-2.1c3-1.56,3.96-3.36,4.26-4.68c0.3-1.32-0.9-1.92-1.44-2.28
		c-0.36-0.18-0.42-0.54,0.24-0.54c1.5,0,3.66-0.18,5.58-0.72c0.6-0.12,0.72,0.06,0.72,1.14c0,4.2-2.7,4.92-6.06,6.9
		c5.7,0.24,9.66,2.1,9.66,6.42c0,4.92-7.2,9.06-11.82,10.5c-0.6,0.18-0.72-0.06-0.3-0.36c2.64-1.68,6.3-5.4,6.3-9
		c0-2.22-1.38-5.4-6.96-5.76c-2.28,1.26-4.26,2.16-5.4,2.76v8.82l-3.3,1.8c-0.18,0.12-1.38,0.9-1.56,1.08
		c-0.48,0.42-0.54,0.42-0.48,0.12c0.06-0.18,0.12-1.38,0.12-1.98v-24C323.35,29.25,322.93,28.65,321.43,28.35z"/>
	<path class="st108" d="M361.63,31.89c8.16,0,12.24,5.34,12.24,10.68c0,8.28-9.78,11.58-14.64,11.94c-0.72,0.06-0.6-0.42,0-0.66
		c4.74-2.04,8.04-4.02,8.46-8.82h-7.44c-0.72,0-5.52,0.18-6.3,0.3c-2.04,0.36-2.28,0.3-1.62-0.18c0.42-0.3,2.7-2.58,3.54-3.36
		l0.12-0.12h11.64c-0.72-5.52-3.96-7.86-7.14-7.86c-4.32,0-7.08,2.7-7.08,4.68c0,0.48-0.12,0.66-0.3,0.72
		c-1.74,0.6-2.76,1.14-3.72,1.92c-0.3,0.24-0.72,0.48-0.48-0.24C349.57,39.09,352.75,31.89,361.63,31.89z"/>
	<path class="st108" d="M408.24,23.25c6.42,0,10.5,3.72,12.24,5.58c0.24,0.24,0.06,0.36-0.12,0.48c-1.38,0.78-3.06,2.76-3.96,4.02
		c-0.24,0.36-0.42,0.48-0.6,0.06c-1.14-2.52-4.56-7.44-10.26-7.44c-2.82,0-6.54,1.74-6.54,5.64v22.14l-3.3,1.8
		c-0.18,0.12-1.38,0.9-1.56,1.08c-0.48,0.42-0.54,0.42-0.48,0.12c0.06-0.18,0.12-1.38,0.12-1.98v-23.1
		C393.79,27.51,399.6,23.25,408.24,23.25z"/>
	<path class="st108" d="M420.31,36.87c-0.6-0.12-1.68-0.18-2.22-0.18s-0.54-0.3-0.3-0.42c2.76-1.14,4.74-2.52,7.5-4.14
		c1.32-0.78,2.16,0.96,2.16,2.46v17.22l-3.3,1.8c-0.18,0.12-1.38,0.9-1.56,1.08c-0.48,0.42-0.54,0.42-0.48,0.12
		c0.06-0.18,0.12-1.38,0.12-1.98V39.21C422.23,37.77,421.81,37.17,420.31,36.87z"/>
	<path class="st108" d="M449.95,48.09c0-2.7-1.8-4.26-4.86-4.26c-1.92,0-5.22,2.7-6.9,3.78v4.32l-3.3,1.8
		c-0.18,0.12-1.38,0.9-1.56,1.08c-0.48,0.42-0.54,0.42-0.48,0.12c0.06-0.18,0.12-1.38,0.12-1.98v-13.5c0-2.34,6.3-7.74,11.4-7.74
		c5.04,0,8.88,1.98,10.56,3.6c0.66,0.66,0.48,0.66,0.24,0.84c-0.9,0.72-1.92,1.8-2.58,2.7c-0.36,0.6-0.48,0.72-0.78,0.18
		c-1.38-1.98-3.42-4.8-7.8-4.8c-3.72,0-5.82,2.46-5.82,3.54v7.62c2.16-0.9,6.18-3.96,9.42-3.96c4.68,0,7.92,1.68,7.92,5.94
		c0,4.62-6.66,6.78-10.8,7.62c-0.48,0.12-0.72-0.06-0.36-0.24C446.35,53.73,449.95,51.75,449.95,48.09z"/>
	<path class="st108" d="M471.72,31.83c5.76,0,9.42,2.52,9.42,4.98v25.68l-3.3,1.8c-0.18,0.12-1.38,0.9-1.56,1.08
		c-0.48,0.42-0.54,0.42-0.48,0.12c0.06-0.18,0.12-1.38,0.12-1.98V39.45c0-2.64-2.82-4.5-6.78-4.5c-2.58,0-6.48,1.38-10.5,4.5
		c-0.6,0.48-1.32,0.06-0.9-0.48C459.37,36.87,463.03,31.83,471.72,31.83z"/>
	<path class="st108" d="M503.88,50.97c-4.5-5.82-1.68-11.76,1.68-15.3c3.54-3.96,8.1-5.58,13.62-2.58c4.86,2.7,7.38,9.54,2.22,16.32
		C515.7,56.91,507.01,55.05,503.88,50.97z M516.42,37.23c-3.48-2.64-7.5-2.94-9.3-1.08c-2.46,2.58-1.56,8.28,0.66,11.16
		c2.64,3.42,8.7,5.04,10.8,3C522.12,46.83,519.6,39.75,516.42,37.23z"/>
	<path class="st108" d="M540.48,31.53c5.52,0,9.6,3.78,10.86,5.34c0.24,0.3-0.3,0.6-0.48,0.78c-1.02,0.84-2.28,2.22-3.12,3.36
		c-0.18,0.24-0.36,0.3-0.54,0c-1.2-2.4-4.68-7.56-8.52-7.56c-3.54,0-5.52,2.88-5.52,6.78v20.34l-3.3,1.8
		c-0.18,0.12-1.38,0.9-1.56,1.08c-0.48,0.42-0.54,0.42-0.48,0.12c0.06-0.18,0.12-1.38,0.12-1.98v-21.3
		C527.94,36.81,533.16,31.53,540.48,31.53z"/>
	<path class="st108" d="M582.3,31.83c5.76,0,9.42,2.52,9.42,4.98v25.68l-3.3,1.8c-0.18,0.12-1.38,0.9-1.56,1.08
		c-0.48,0.42-0.54,0.42-0.48,0.12c0.06-0.18,0.12-1.38,0.12-1.98V39.45c0-2.64-2.82-4.5-6.78-4.5c-2.58,0-6.48,1.38-10.5,4.5
		c-0.6,0.48-1.32,0.06-0.9-0.48C569.94,36.87,573.6,31.83,582.3,31.83z"/>
	<path class="st108" d="M597.72,28.35c-0.6-0.12-1.68-0.18-2.22-0.18s-0.54-0.3-0.3-0.42c2.76-1.14,4.74-2.52,7.5-4.14
		c1.32-0.78,2.16,0.96,2.16,2.46v16.5c1.14-0.18,2.64-0.78,5.22-2.1c3-1.56,3.96-3.36,4.26-4.68c0.3-1.32-0.9-1.92-1.44-2.28
		c-0.36-0.18-0.42-0.54,0.24-0.54c1.5,0,3.66-0.18,5.58-0.72c0.6-0.12,0.72,0.06,0.72,1.14c0,4.2-2.7,4.92-6.06,6.9
		c5.7,0.24,9.66,2.1,9.66,6.42c0,4.92-7.2,9.06-11.82,10.5c-0.6,0.18-0.72-0.06-0.3-0.36c2.64-1.68,6.3-5.4,6.3-9
		c0-2.22-1.38-5.4-6.96-5.76c-2.28,1.26-4.26,2.16-5.4,2.76v8.82l-3.3,1.8c-0.18,0.12-1.38,0.9-1.56,1.08
		c-0.48,0.42-0.54,0.42-0.48,0.12c0.06-0.18,0.12-1.38,0.12-1.98v-24C599.64,29.25,599.22,28.65,597.72,28.35z"/>
	<path class="st108" d="M637.92,31.89c8.16,0,12.24,5.34,12.24,10.68c0,8.28-9.78,11.58-14.64,11.94c-0.72,0.06-0.6-0.42,0-0.66
		c4.74-2.04,8.04-4.02,8.46-8.82h-7.44c-0.72,0-5.52,0.18-6.3,0.3c-2.04,0.36-2.28,0.3-1.62-0.18c0.42-0.3,2.7-2.58,3.54-3.36
		l0.12-0.12h11.64c-0.72-5.52-3.96-7.86-7.14-7.86c-4.32,0-7.08,2.7-7.08,4.68c0,0.48-0.12,0.66-0.3,0.72
		c-1.74,0.6-2.76,1.14-3.72,1.92c-0.3,0.24-0.72,0.48-0.48-0.24C625.86,39.09,629.04,31.89,637.92,31.89z"/>
	<path class="st108" d="M684.54,23.25c6.42,0,10.5,3.72,12.24,5.58c0.24,0.24,0.06,0.36-0.12,0.48c-1.38,0.78-3.06,2.76-3.96,4.02
		c-0.24,0.36-0.42,0.48-0.6,0.06c-1.14-2.52-4.56-7.44-10.26-7.44c-2.82,0-6.54,1.74-6.54,5.64v22.14l-3.3,1.8
		c-0.18,0.12-1.38,0.9-1.56,1.08c-0.48,0.42-0.54,0.42-0.48,0.12c0.06-0.18,0.12-1.38,0.12-1.98v-23.1
		C670.08,27.51,675.9,23.25,684.54,23.25z"/>
	<path class="st108" d="M695.04,36.39c-0.6-0.12-1.68-0.18-2.22-0.18s-0.54-0.3-0.3-0.42c2.76-1.14,4.74-2.52,7.5-4.14
		c1.32-0.78,2.16,0.96,2.16,2.46v3.06c2.46-2.64,5.76-5.28,10.14-5.28c3.12,0,5.7,1.2,6.6,2.28c-0.3,0.18-2.94,2.64-3.36,3.3
		c-1.2-1.2-3.36-2.22-6.36-2.22c-2.94,0-4.62,1.8-7.02,4.2v5.64c2.94-1.62,7.38-4.56,9.24-4.56c4.02,0,7.5,2.58,7.5,6.96
		c0,4.86-6.06,6.72-9.84,6.72c-3.18,0-5.52-1.86-6.9-2.46v0.48c0,4.26-8.7,12.06-9.9,12.66c-0.36,0.18-0.66,0-0.3-0.36
		c1.08-0.96,4.98-7.68,4.98-11.52v-0.18v-4.68v-9.42C696.96,37.29,696.54,36.69,695.04,36.39z M710.7,51.93
		c2.4,0,2.94-0.18,2.94-2.88c0-3.3-2.82-5.52-4.74-5.52c-1.68,0-4.08,2.16-6.18,3.12C704.82,49.17,708.12,51.93,710.7,51.93z"/>
	<path class="st108" d="M735.12,31.83c5.76,0,9.42,2.52,9.42,4.98v25.68l-3.3,1.8c-0.18,0.12-1.38,0.9-1.56,1.08
		c-0.48,0.42-0.54,0.42-0.48,0.12c0.06-0.18,0.12-1.38,0.12-1.98V39.45c0-2.64-2.82-4.5-6.78-4.5c-2.58,0-6.48,1.38-10.5,4.5
		c-0.6,0.48-1.32,0.06-0.9-0.48C722.76,36.87,726.42,31.83,735.12,31.83z"/>
	<path class="st108" d="M750.54,28.35c-0.6-0.12-1.68-0.18-2.22-0.18s-0.54-0.3-0.3-0.42c2.76-1.14,4.74-2.52,7.5-4.14
		c1.32-0.78,2.16,0.96,2.16,2.46v16.5c1.14-0.18,2.64-0.78,5.22-2.1c3-1.56,3.96-3.36,4.26-4.68c0.3-1.32-0.9-1.92-1.44-2.28
		c-0.36-0.18-0.42-0.54,0.24-0.54c1.5,0,3.66-0.18,5.58-0.72c0.6-0.12,0.72,0.06,0.72,1.14c0,4.2-2.7,4.92-6.06,6.9
		c5.7,0.24,9.66,2.1,9.66,6.42c0,4.92-7.2,9.06-11.82,10.5c-0.6,0.18-0.72-0.06-0.3-0.36c2.64-1.68,6.3-5.4,6.3-9
		c0-2.22-1.38-5.4-6.96-5.76c-2.28,1.26-4.26,2.16-5.4,2.76v8.82l-3.3,1.8c-0.18,0.12-1.38,0.9-1.56,1.08
		c-0.48,0.42-0.54,0.42-0.48,0.12c0.06-0.18,0.12-1.38,0.12-1.98v-24C752.46,29.25,752.04,28.65,750.54,28.35z"/>
	<path class="st108" d="M790.74,31.89c8.16,0,12.24,5.34,12.24,10.68c0,8.28-9.78,11.58-14.64,11.94c-0.72,0.06-0.6-0.42,0-0.66
		c4.74-2.04,8.04-4.02,8.46-8.82h-7.44c-0.72,0-5.52,0.18-6.3,0.3c-2.04,0.36-2.28,0.3-1.62-0.18c0.42-0.3,2.7-2.58,3.54-3.36
		l0.12-0.12h11.64c-0.72-5.52-3.96-7.86-7.14-7.86c-4.32,0-7.08,2.7-7.08,4.68c0,0.48-0.12,0.66-0.3,0.72
		c-1.74,0.6-2.76,1.14-3.72,1.92c-0.3,0.24-0.72,0.48-0.48-0.24C778.68,39.09,781.86,31.89,790.74,31.89z"/>
	<path class="st108" d="M807.78,36.57c-0.6-0.12-1.68-0.18-2.22-0.18s-0.54-0.3-0.3-0.42c2.76-1.14,4.74-2.52,7.5-4.14
		c1.32-0.78,2.16,0.96,2.16,2.46v2.34c2.4-2.7,6.9-5.04,9.54-5.04c2.88,0,7.62,2.7,7.62,7.02c0,3.3-2.7,5.82-6.06,6.78v10.92
		c0,5.4,1.5,7.38,3.96,7.38c1.74,0,3.42-1.02,4.62-2.46c0.3-0.36,0.66,0.06,0.48,0.48c-0.9,1.92-3.9,5.04-6.78,5.04
		c-4.74,0-7.5-3.06-7.5-9.12v-12l-0.96-0.24c-0.78-0.24-1.02-0.78,0-0.96c1.32-0.24,6.12-0.54,6.12-4.98c0-2.76-1.68-5.16-4.74-5.16
		c-1.98,0-4.98,2.52-6.3,4.14v13.38l-3.3,1.8c-0.18,0.12-1.38,0.9-1.56,1.08c-0.48,0.42-0.54,0.42-0.48,0.12
		c0.06-0.18,0.12-1.38,0.12-1.98V38.91C809.7,37.47,809.28,36.87,807.78,36.57z"/>
	<path class="st108" d="M306.84,83.97c6.24,0,10.98,2.16,10.98,4.62v25.14l-3.3,1.8c-0.18,0.12-1.38,0.9-1.56,1.08
		c-0.48,0.42-0.54,0.42-0.48,0.12c0.06-0.18,0.12-1.38,0.12-1.98v-22.5c0-3.66-4.92-5.16-8.04-5.16c-3.18,0-7.56,1.44-11.46,4.5
		c-0.54,0.42-1.08,0-0.72-0.54C293.77,89.01,297.91,83.97,306.84,83.97z"/>
	<path class="st108" d="M323.83,88.35c-0.6-0.12-1.68-0.18-2.22-0.18s-0.54-0.3-0.3-0.42c2.76-1.14,4.74-2.52,7.5-4.14
		c1.32-0.78,2.16,0.96,2.16,2.46v16.5c1.14-0.18,2.64-0.78,5.22-2.1c3-1.56,3.96-3.36,4.26-4.68c0.3-1.32-0.9-1.92-1.44-2.28
		c-0.36-0.18-0.42-0.54,0.24-0.54c1.5,0,3.66-0.18,5.58-0.72c0.6-0.12,0.72,0.06,0.72,1.14c0,4.2-2.7,4.92-6.06,6.9
		c5.7,0.24,9.66,2.1,9.66,6.42c0,4.92-7.2,9.06-11.82,10.5c-0.6,0.18-0.72-0.06-0.3-0.36c2.64-1.68,6.3-5.4,6.3-9
		c0-2.22-1.38-5.4-6.96-5.76c-2.28,1.26-4.26,2.16-5.4,2.76v8.82l-3.3,1.8c-0.18,0.12-1.38,0.9-1.56,1.08
		c-0.48,0.42-0.54,0.42-0.48,0.12c0.06-0.18,0.12-1.38,0.12-1.98v-24C325.75,89.25,325.33,88.65,323.83,88.35z"/>
	<path class="st108" d="M364.03,91.89c8.16,0,12.24,5.34,12.24,10.68c0,8.28-9.78,11.58-14.64,11.94c-0.72,0.06-0.6-0.42,0-0.66
		c4.74-2.04,8.04-4.02,8.46-8.82h-7.44c-0.72,0-5.52,0.18-6.3,0.3c-2.04,0.36-2.28,0.3-1.62-0.18c0.42-0.3,2.7-2.58,3.54-3.36
		l0.12-0.12h11.64c-0.72-5.52-3.96-7.86-7.14-7.86c-4.32,0-7.08,2.7-7.08,4.68c0,0.48-0.12,0.66-0.3,0.72
		c-1.74,0.6-2.76,1.14-3.72,1.92c-0.3,0.24-0.72,0.48-0.48-0.24C351.97,99.09,355.15,91.89,364.03,91.89z"/>
	<path class="st108" d="M410.64,83.25c6.42,0,10.5,3.72,12.24,5.58c0.24,0.24,0.06,0.36-0.12,0.48c-1.38,0.78-3.06,2.76-3.96,4.02
		c-0.24,0.36-0.42,0.48-0.6,0.06c-1.14-2.52-4.56-7.44-10.26-7.44c-2.82,0-6.54,1.74-6.54,5.64v22.14l-3.3,1.8
		c-0.18,0.12-1.38,0.9-1.56,1.08c-0.48,0.42-0.54,0.42-0.48,0.12c0.06-0.18,0.12-1.38,0.12-1.98v-23.1
		C396.18,87.51,402,83.25,410.64,83.25z"/>
	<path class="st108" d="M422.71,96.87c-0.6-0.12-1.68-0.18-2.22-0.18s-0.54-0.3-0.3-0.42c2.76-1.14,4.74-2.52,7.5-4.14
		c1.32-0.78,2.16,0.96,2.16,2.46v17.22l-3.3,1.8c-0.18,0.12-1.38,0.9-1.56,1.08c-0.48,0.42-0.54,0.42-0.48,0.12
		c0.06-0.18,0.12-1.38,0.12-1.98V99.21C424.63,97.77,424.21,97.17,422.71,96.87z"/>
	<path class="st108" d="M452.34,108.09c0-2.7-1.8-4.26-4.86-4.26c-1.92,0-5.22,2.7-6.9,3.78v4.32l-3.3,1.8
		c-0.18,0.12-1.38,0.9-1.56,1.08c-0.48,0.42-0.54,0.42-0.48,0.12c0.06-0.18,0.12-1.38,0.12-1.98v-13.5c0-2.34,6.3-7.74,11.4-7.74
		c5.04,0,8.88,1.98,10.56,3.6c0.66,0.66,0.48,0.66,0.24,0.84c-0.9,0.72-1.92,1.8-2.58,2.7c-0.36,0.6-0.48,0.72-0.78,0.18
		c-1.38-1.98-3.42-4.8-7.8-4.8c-3.72,0-5.82,2.46-5.82,3.54v7.62c2.16-0.9,6.18-3.96,9.42-3.96c4.68,0,7.92,1.68,7.92,5.94
		c0,4.62-6.66,6.78-10.8,7.62c-0.48,0.12-0.72-0.06-0.36-0.24C448.75,113.73,452.34,111.75,452.34,108.09z"/>
	<path class="st108" d="M474.12,91.83c5.76,0,9.42,2.52,9.42,4.98v25.68l-3.3,1.8c-0.18,0.12-1.38,0.9-1.56,1.08
		c-0.48,0.42-0.54,0.42-0.48,0.12c0.06-0.18,0.12-1.38,0.12-1.98V99.45c0-2.64-2.82-4.5-6.78-4.5c-2.58,0-6.48,1.38-10.5,4.5
		c-0.6,0.48-1.32,0.06-0.9-0.48C461.76,96.87,465.42,91.83,474.12,91.83z"/>
	<path class="st108" d="M506.28,110.97c-4.5-5.82-1.68-11.76,1.68-15.3c3.54-3.96,8.1-5.58,13.62-2.58
		c4.86,2.7,7.38,9.54,2.22,16.32C518.1,116.91,509.4,115.05,506.28,110.97z M518.82,97.23c-3.48-2.64-7.5-2.94-9.3-1.08
		c-2.46,2.58-1.56,8.28,0.66,11.16c2.64,3.42,8.7,5.04,10.8,3C524.52,106.83,522,99.75,518.82,97.23z"/>
	<path class="st108" d="M542.88,91.53c5.52,0,9.6,3.78,10.86,5.34c0.24,0.3-0.3,0.6-0.48,0.78c-1.02,0.84-2.28,2.22-3.12,3.36
		c-0.18,0.24-0.36,0.3-0.54,0c-1.2-2.4-4.68-7.56-8.52-7.56c-3.54,0-5.52,2.88-5.52,6.78v20.34l-3.3,1.8
		c-0.18,0.12-1.38,0.9-1.56,1.08c-0.48,0.42-0.54,0.42-0.48,0.12c0.06-0.18,0.12-1.38,0.12-1.98v-21.3
		C530.34,96.81,535.56,91.53,542.88,91.53z"/>
	<path class="st108" d="M584.7,91.83c5.76,0,9.42,2.52,9.42,4.98v25.68l-3.3,1.8c-0.18,0.12-1.38,0.9-1.56,1.08
		c-0.48,0.42-0.54,0.42-0.48,0.12c0.06-0.18,0.12-1.38,0.12-1.98V99.45c0-2.64-2.82-4.5-6.78-4.5c-2.58,0-6.48,1.38-10.5,4.5
		c-0.6,0.48-1.32,0.06-0.9-0.48C572.34,96.87,576,91.83,584.7,91.83z"/>
	<path class="st108" d="M600.12,88.35c-0.6-0.12-1.68-0.18-2.22-0.18s-0.54-0.3-0.3-0.42c2.76-1.14,4.74-2.52,7.5-4.14
		c1.32-0.78,2.16,0.96,2.16,2.46v16.5c1.14-0.18,2.64-0.78,5.22-2.1c3-1.56,3.96-3.36,4.26-4.68c0.3-1.32-0.9-1.92-1.44-2.28
		c-0.36-0.18-0.42-0.54,0.24-0.54c1.5,0,3.66-0.18,5.58-0.72c0.6-0.12,0.72,0.06,0.72,1.14c0,4.2-2.7,4.92-6.06,6.9
		c5.7,0.24,9.66,2.1,9.66,6.42c0,4.92-7.2,9.06-11.82,10.5c-0.6,0.18-0.72-0.06-0.3-0.36c2.64-1.68,6.3-5.4,6.3-9
		c0-2.22-1.38-5.4-6.96-5.76c-2.28,1.26-4.26,2.16-5.4,2.76v8.82l-3.3,1.8c-0.18,0.12-1.38,0.9-1.56,1.08
		c-0.48,0.42-0.54,0.42-0.48,0.12c0.06-0.18,0.12-1.38,0.12-1.98v-24C602.04,89.25,601.62,88.65,600.12,88.35z"/>
	<path class="st108" d="M640.32,91.89c8.16,0,12.24,5.34,12.24,10.68c0,8.28-9.78,11.58-14.64,11.94c-0.72,0.06-0.6-0.42,0-0.66
		c4.74-2.04,8.04-4.02,8.46-8.82h-7.44c-0.72,0-5.52,0.18-6.3,0.3c-2.04,0.36-2.28,0.3-1.62-0.18c0.42-0.3,2.7-2.58,3.54-3.36
		l0.12-0.12h11.64c-0.72-5.52-3.96-7.86-7.14-7.86c-4.32,0-7.08,2.7-7.08,4.68c0,0.48-0.12,0.66-0.3,0.72
		c-1.74,0.6-2.76,1.14-3.72,1.92c-0.3,0.24-0.72,0.48-0.48-0.24C628.26,99.09,631.44,91.89,640.32,91.89z"/>
	<path class="st108" d="M687.9,83.25c5.46,0,11.82,0.96,11.82,8.64v5.34c2.46-2.64,5.76-5.34,10.2-5.34c3.12,0,5.7,1.2,6.6,2.28
		c-0.3,0.18-2.94,2.64-3.36,3.3c-1.2-1.2-3.36-2.22-6.36-2.22c-2.94,0-4.68,1.8-7.08,4.26l0.06,5.58c2.94-1.62,7.38-4.56,9.24-4.56
		c4.02,0,7.5,2.58,7.5,6.96c0,4.86-6.06,6.72-9.84,6.72c-3.18,0-5.52-1.86-6.9-2.46v0.48c0,4.26-8.7,12.06-9.9,12.66
		c-0.36,0.18-0.66,0-0.3-0.36c1.08-0.96,4.98-7.68,4.98-11.52v-0.18l-0.06-18.84c0-7.2-5.64-8.04-9.96-8.04
		c-4.02,0-6.84,2.22-6.84,4.86v22.92l-3.3,1.8c-0.18,0.12-1.38,0.9-1.56,1.08c-0.48,0.42-0.54,0.42-0.48,0.12
		c0.06-0.18,0.12-1.38,0.12-1.98V92.13C672.48,87.75,680.82,83.25,687.9,83.25z M708.3,111.93c2.4,0,2.94-0.18,2.94-2.88
		c0-3.3-2.82-5.52-4.74-5.52c-1.68,0-4.08,2.16-6.18,3.12C702.42,109.17,705.72,111.93,708.3,111.93z"/>
	<path class="st108" d="M732.72,91.83c5.76,0,9.42,2.52,9.42,4.98v25.68l-3.3,1.8c-0.18,0.12-1.38,0.9-1.56,1.08
		c-0.48,0.42-0.54,0.42-0.48,0.12c0.06-0.18,0.12-1.38,0.12-1.98V99.45c0-2.64-2.82-4.5-6.78-4.5c-2.58,0-6.48,1.38-10.5,4.5
		c-0.6,0.48-1.32,0.06-0.9-0.48C720.36,96.87,724.02,91.83,732.72,91.83z"/>
	<path class="st108" d="M748.14,88.35c-0.6-0.12-1.68-0.18-2.22-0.18s-0.54-0.3-0.3-0.42c2.76-1.14,4.74-2.52,7.5-4.14
		c1.32-0.78,2.16,0.96,2.16,2.46v16.5c1.14-0.18,2.64-0.78,5.22-2.1c3-1.56,3.96-3.36,4.26-4.68c0.3-1.32-0.9-1.92-1.44-2.28
		c-0.36-0.18-0.42-0.54,0.24-0.54c1.5,0,3.66-0.18,5.58-0.72c0.6-0.12,0.72,0.06,0.72,1.14c0,4.2-2.7,4.92-6.06,6.9
		c5.7,0.24,9.66,2.1,9.66,6.42c0,4.92-7.2,9.06-11.82,10.5c-0.6,0.18-0.72-0.06-0.3-0.36c2.64-1.68,6.3-5.4,6.3-9
		c0-2.22-1.38-5.4-6.96-5.76c-2.28,1.26-4.26,2.16-5.4,2.76v8.82l-3.3,1.8c-0.18,0.12-1.38,0.9-1.56,1.08
		c-0.48,0.42-0.54,0.42-0.48,0.12c0.06-0.18,0.12-1.38,0.12-1.98v-24C750.06,89.25,749.64,88.65,748.14,88.35z"/>
	<path class="st108" d="M788.34,91.89c8.16,0,12.24,5.34,12.24,10.68c0,8.28-9.78,11.58-14.64,11.94c-0.72,0.06-0.6-0.42,0-0.66
		c4.74-2.04,8.04-4.02,8.46-8.82h-7.44c-0.72,0-5.52,0.18-6.3,0.3c-2.04,0.36-2.28,0.3-1.62-0.18c0.42-0.3,2.7-2.58,3.54-3.36
		l0.12-0.12h11.64c-0.72-5.52-3.96-7.86-7.14-7.86c-4.32,0-7.08,2.7-7.08,4.68c0,0.48-0.12,0.66-0.3,0.72
		c-1.74,0.6-2.76,1.14-3.72,1.92c-0.3,0.24-0.72,0.48-0.48-0.24C776.28,99.09,779.46,91.89,788.34,91.89z"/>
	<path class="st108" d="M805.38,96.57c-0.6-0.12-1.68-0.18-2.22-0.18s-0.54-0.3-0.3-0.42c2.76-1.14,4.74-2.52,7.5-4.14
		c1.32-0.78,2.16,0.96,2.16,2.46v2.34c2.4-2.7,6.9-5.04,9.54-5.04c2.88,0,7.62,2.7,7.62,7.02c0,3.3-2.7,5.82-6.06,6.78v10.92
		c0,5.4,1.5,7.38,3.96,7.38c1.74,0,3.42-1.02,4.62-2.46c0.3-0.36,0.66,0.06,0.48,0.48c-0.9,1.92-3.9,5.04-6.78,5.04
		c-4.74,0-7.5-3.06-7.5-9.12v-12l-0.96-0.24c-0.78-0.24-1.02-0.78,0-0.96c1.32-0.24,6.12-0.54,6.12-4.98c0-2.76-1.68-5.16-4.74-5.16
		c-1.98,0-4.98,2.52-6.3,4.14v13.38l-3.3,1.8c-0.18,0.12-1.38,0.9-1.56,1.08c-0.48,0.42-0.54,0.42-0.48,0.12
		c0.06-0.18,0.12-1.38,0.12-1.98V98.91C807.3,97.47,806.88,96.87,805.38,96.57z"/>
</g>
<g>
	<g>
		<g>
			<g>
				<path class="st108" d="M471.72,21.83c-5.79,0-10.26,1.53-13.63,3.49c-3.45-2.01-8.17-3.61-13.73-3.61
					c-3.52,0-7.42,1.22-10.92,3.23c-1.54-1.44-3.44-2.43-5.55-2.81c-0.06-0.06-0.1-0.13-0.16-0.19c-5.27-5.6-12.19-8.69-19.49-8.69
					c-13.72,0-24.46,8.08-24.46,18.4v9.19c-0.84-9.48-8.54-18.95-22.16-18.95c-4.66,0-8.59,1.2-11.84,3.1
					c-1.96-1.83-4.53-2.77-7.1-2.77c-0.74,0-1.47,0.07-2.23,0.23l-0.38,0.08l-0.37,0.1c-0.4,0.11-0.94,0.21-1.5,0.27
					c-1.25-5.51-5.71-9.47-11.17-9.47c-1.99,0-3.97,0.55-5.69,1.57c-0.73,0.43-1.41,0.84-2.07,1.24c-0.49,0.3-0.93,0.56-1.36,0.82
					c-3.54-1.95-8.16-3.07-13.48-3.07c-9.52,0-17.81,4.18-22.79,11.54c-2.17,3.25-2.38,7.39-0.56,10.78
					c1.81,3.38,5.32,5.47,9.17,5.47c2.35,0,4.69-0.81,6.61-2.3c1.18-0.93,2.36-1.53,3.33-1.9v17.18c0,0.15-0.01,0.37-0.02,0.56
					c-0.43,2.88,0.35,5.76,2.16,7.97l3.03,3.67l4.73,0c3.21,0,5.41-1.47,6.51-2.36l1.9,2.3h4.73c2.31,0,4.1-0.76,5.34-1.52
					c1.7,1.22,3.78,1.91,6,1.91c1.06,0,2.15-0.16,3.21-0.48l0.11-0.03c3.61-1.13,8.52-3.45,12.42-6.98c1.84,2.9,5.08,4.74,8.79,4.74
					c0.28,0,0.57-0.01,0.89-0.03c11.06-0.83,22.77-8.15,23.79-20.2v10.47c0,0.15-0.01,0.37-0.02,0.56
					c-0.43,2.88,0.35,5.75,2.15,7.96l3.03,3.68h4.74c3.43,0,5.73-1.69,6.74-2.54c0.14-0.09,0.29-0.2,0.43-0.28l8.15-4.45v-18.1
					c0.8,1.37,1.9,2.53,3.22,3.4v7.87c0,0.15-0.01,0.36-0.02,0.55c-0.43,2.88,0.35,5.76,2.16,7.97l3.03,3.67h4.73
					c2.04,0,3.67-0.6,4.87-1.26l1.14,1.38l4.73,0c2.63,0,4.59-0.99,5.81-1.84c1.65,1.1,3.64,1.73,5.76,1.73c0.8,0,1.6-0.09,2.4-0.26
					c16.86-3.47,18.68-13.31,18.68-17.39c0-0.18-0.02-0.36-0.03-0.54c0.14-0.1,0.29-0.22,0.43-0.31v16.98
					c0,0.15-0.01,0.36-0.02,0.55c-0.43,2.88,0.35,5.77,2.17,7.98l3.03,3.67l4.73,0c3.43,0,5.73-1.69,6.74-2.54
					c0.14-0.09,0.29-0.2,0.43-0.29l8.15-4.44V36.81C491.14,28.27,482.8,21.83,471.72,21.83z"/>
				<path class="st108" d="M842.08,38.61c0-10.03-9.29-17.02-17.62-17.02c-2.03,0-4.15,0.44-6.2,1.19
					c-1.47-0.73-3.12-1.14-4.87-1.14c-1.99,0-3.97,0.55-5.69,1.57c-0.73,0.43-1.41,0.84-2.07,1.24c-0.69,0.42-1.29,0.78-1.87,1.11
					c-3.43-2.26-7.79-3.67-13.03-3.67c-4.66,0-8.59,1.2-11.84,3.1c-1.96-1.83-4.53-2.77-7.1-2.77c-0.74,0-1.47,0.07-2.23,0.23
					l-0.38,0.08l-0.37,0.1c-0.4,0.11-0.94,0.21-1.5,0.27c-1.25-5.51-5.71-9.47-11.17-9.47c-1.99,0-3.97,0.55-5.69,1.57
					c-0.73,0.43-1.41,0.84-2.07,1.24c-1.64,1-2.83,1.72-4.19,2.28l-0.33,0.14l-0.32,0.16c-1.63,0.81-2.95,2-3.92,3.41
					c-1.44-0.25-2.95-0.39-4.51-0.39c-5.08,0-9.13,1.18-12.33,2.78c-2.94-1.73-6.63-2.72-10.47-2.72c-2.15,0-4.25,0.33-6.29,0.98
					c-0.61-0.34-1.25-0.61-1.92-0.83c-0.03-0.03-0.05-0.07-0.08-0.1c-5.27-5.6-12.19-8.69-19.49-8.69
					c-13.71,0-24.46,8.08-24.46,18.4v9.19c-0.84-9.48-8.54-18.95-22.16-18.95c-4.66,0-8.59,1.2-11.84,3.1
					c-1.96-1.83-4.53-2.77-7.1-2.77c-0.74,0-1.47,0.07-2.23,0.23l-0.38,0.08l-0.37,0.1c-0.4,0.11-0.94,0.21-1.5,0.27
					c-1.25-5.51-5.71-9.47-11.17-9.47c-1.99,0-3.97,0.55-5.69,1.57c-0.73,0.43-1.41,0.84-2.07,1.24c-1.64,1-2.83,1.72-4.19,2.28
					l-0.33,0.14l-0.32,0.16c-1.63,0.81-2.95,2-3.92,3.41c-1.44-0.25-2.95-0.39-4.51-0.39c-13.42,0-19.72,8.2-21.79,10.89l-0.06,0.08
					c-0.35-0.79-0.8-1.54-1.33-2.22c-1.22-1.51-7.86-9.05-18.64-9.05c-5.24,0-10.19,1.67-14.11,4.38c-0.76-0.58-1.56-1.13-2.41-1.6
					c-3.38-1.83-6.84-2.76-10.3-2.76c-4.02,0-9.96,1.28-15.45,7.35c-8.01,8.53-8.9,19.58-2.27,28.15c3.59,4.69,9.52,7.49,15.86,7.49
					c2.08,0,4.09-0.3,6.02-0.87c-0.01,2.36,0.77,4.63,2.27,6.45l3.03,3.67h4.73c3.43,0,5.73-1.69,6.74-2.54
					c0.14-0.1,0.29-0.2,0.43-0.29l8.15-4.44l0-16.24c1.32,0.61,2.78,0.94,4.29,0.94c0,0,0,0,0,0c3.27,0,6.29-1.54,8.33-4.27
					c0.45-0.61,1.16-1.35,1.43-1.58l0.37-0.31l0.05-0.05c0.56-0.48,1.04-1,1.46-1.53c0.05,0.11,0.08,0.23,0.14,0.35
					c1.76,3.6,5.37,5.84,9.42,5.84c2.41,0,4.79-0.83,6.71-2.33c0.39-0.3,0.77-0.57,1.12-0.81v16.98c0,0.15-0.01,0.36-0.02,0.55
					c-0.43,2.88,0.35,5.77,2.17,7.98l3.03,3.67l4.73,0c3.43,0,5.73-1.69,6.74-2.54c0.14-0.1,0.3-0.2,0.43-0.29l8.15-4.44v-1.79
					c1.29-0.28,2.35-0.78,3.16-1.28c1.7,1.22,3.78,1.91,6,1.91c1.06,0,2.15-0.16,3.21-0.48l0.11-0.03
					c3.61-1.13,8.52-3.45,12.42-6.98c1.84,2.9,5.08,4.74,8.79,4.74c0.28,0,0.57-0.01,0.89-0.03c11.06-0.83,22.77-8.15,23.79-20.2
					v10.47c0,0.15-0.01,0.37-0.02,0.56c-0.43,2.88,0.35,5.75,2.15,7.96l3.03,3.68h4.74c3.43,0,5.72-1.69,6.74-2.54
					c0.14-0.09,0.29-0.2,0.43-0.28l5.37-2.93c-0.91,2.4-0.93,5.07,0.08,7.51c0.8,1.93,2.14,3.51,3.82,4.6
					c-11.61,0.61-23.92,8.17-23.92,18.84v8.71c-0.84-9.48-8.54-18.95-22.16-18.95c-4.66,0-8.59,1.2-11.84,3.1
					c-1.96-1.83-4.53-2.77-7.1-2.77c-0.74,0-1.47,0.07-2.23,0.23l-0.38,0.08l-0.37,0.1c-0.4,0.11-0.94,0.21-1.5,0.27
					c-1.25-5.51-5.71-9.47-11.17-9.47c-1.99,0-3.97,0.55-5.69,1.57c-0.73,0.43-1.41,0.84-2.06,1.24c-1.64,1-2.83,1.72-4.19,2.28
					l-0.33,0.14l-0.32,0.16c-1.63,0.81-2.95,2-3.92,3.41c-1.44-0.25-2.95-0.39-4.51-0.39c-13.41,0-19.71,8.19-21.79,10.89
					l-0.06,0.08c-0.35-0.79-0.8-1.54-1.33-2.21c-1.22-1.51-7.86-9.06-18.64-9.06c-5.24,0-10.19,1.67-14.11,4.38
					c-0.76-0.58-1.56-1.13-2.41-1.6c-3.37-1.83-6.84-2.76-10.3-2.76c-4.02,0-9.96,1.28-15.45,7.35c-8.01,8.53-8.9,19.58-2.27,28.15
					c3.59,4.69,9.52,7.49,15.86,7.49c2.08,0,4.09-0.3,6.02-0.87c-0.01,2.36,0.77,4.63,2.27,6.45l3.03,3.67h4.73
					c3.43,0,5.73-1.69,6.74-2.54c0.14-0.1,0.29-0.2,0.43-0.29l8.15-4.44l0-16.24c1.32,0.61,2.78,0.94,4.29,0.94c0,0,0,0,0,0
					c3.27,0,6.29-1.54,8.33-4.27c0.45-0.61,1.16-1.35,1.43-1.58l0.37-0.3l0.05-0.05c0.56-0.48,1.04-1,1.46-1.53
					c0.05,0.11,0.08,0.23,0.14,0.34c1.76,3.6,5.37,5.84,9.42,5.84c2.41,0,4.79-0.83,6.7-2.33c0.39-0.3,0.77-0.57,1.13-0.81v16.98
					c0,0.15-0.01,0.36-0.02,0.55c-0.43,2.88,0.35,5.77,2.17,7.98l3.03,3.67l4.73,0c3.43,0,5.73-1.69,6.74-2.54
					c0.14-0.09,0.3-0.2,0.43-0.29l8.15-4.44v-1.79c1.29-0.28,2.35-0.78,3.16-1.28c1.7,1.22,3.78,1.91,6,1.91
					c1.06,0,2.15-0.16,3.21-0.48l0.11-0.03c3.61-1.13,8.52-3.45,12.42-6.98c1.84,2.9,5.08,4.74,8.79,4.74
					c0.28,0,0.57-0.01,0.89-0.03c11.06-0.83,22.77-8.15,23.79-20.2v10.47c0,0.15-0.01,0.37-0.02,0.56
					c-0.43,2.88,0.35,5.75,2.15,7.96l3.03,3.68h4.74c3.43,0,5.72-1.69,6.74-2.54c0.1-0.07,0.21-0.14,0.32-0.21
					c-0.1,1.52,0.15,3.06,0.75,4.52c1.58,3.8,5.28,6.26,9.42,6.26c1.62,0,3.26-0.39,4.74-1.13c0.91-0.45,6.35-4.35,10.52-9.71
					c0.58,0.06,1.19,0.09,1.81,0.09c9.62,0,19.84-5.86,19.84-16.72c0-0.22-0.02-0.43-0.03-0.65c0.14-0.1,0.3-0.22,0.43-0.31v16.98
					c0,0.15-0.01,0.36-0.02,0.55c-0.43,2.88,0.35,5.77,2.17,7.98l3.03,3.67l4.73,0c3.43,0,5.73-1.69,6.74-2.54
					c0.14-0.09,0.3-0.2,0.43-0.29l8.15-4.44v-1.79c1.29-0.28,2.35-0.78,3.16-1.28c1.7,1.22,3.78,1.91,6,1.91
					c1.06,0,2.15-0.16,3.21-0.48l0.11-0.03c3.61-1.13,8.52-3.45,12.42-6.98c1.84,2.9,5.08,4.74,8.79,4.74
					c0.28,0,0.57-0.01,0.89-0.03c4.22-0.32,8.54-1.58,12.32-3.69c0.14,0.19,0.27,0.38,0.42,0.57l3.03,3.67h4.73
					c0.8,0,1.54-0.09,2.21-0.24c2.55,8.21,9.54,11.97,16.49,11.97c7.91,0,13.8-6.46,15.83-10.8l0.13-0.29
					c1.41-3.27,1.09-6.99-0.86-9.94c-1.68-2.55-4.37-4.2-7.35-4.56c3.76-3.17,6.02-7.67,6.02-12.56c0-10.03-9.29-17.02-17.62-17.02
					c-2.03,0-4.15,0.44-6.2,1.19c-1.47-0.73-3.12-1.14-4.86-1.14c-1.99,0-3.97,0.55-5.69,1.57c-0.73,0.43-1.41,0.84-2.06,1.24
					c-0.69,0.42-1.29,0.78-1.87,1.11c-3.43-2.26-7.79-3.67-13.03-3.67c-4.66,0-8.59,1.2-11.84,3.1c-1.96-1.83-4.53-2.77-7.1-2.77
					c-0.74,0-1.47,0.07-2.23,0.23l-0.38,0.08l-0.37,0.1c-0.4,0.11-0.94,0.21-1.5,0.27c-1.25-5.51-5.71-9.47-11.17-9.47
					c-1.99,0-3.97,0.55-5.69,1.57c-0.73,0.43-1.41,0.84-2.06,1.24c-1.64,1-2.83,1.72-4.19,2.28l-0.33,0.14l-0.32,0.16
					c-1.63,0.81-2.95,2-3.92,3.41c-1.44-0.25-2.95-0.39-4.51-0.39c-5.08,0-9.13,1.18-12.33,2.78c-2.94-1.73-6.63-2.72-10.47-2.72
					c-0.96,0-1.89,0.06-2.78,0.18c-1.94-3.29-5.34-6.4-11.2-7.89c0.27-0.11,0.54-0.21,0.8-0.35c0.91-0.45,6.36-4.35,10.52-9.72
					c0.58,0.06,1.19,0.09,1.81,0.09c9.62,0,19.84-5.86,19.84-16.72c0-0.22-0.02-0.43-0.03-0.65c0.14-0.1,0.3-0.22,0.43-0.31v16.98
					c0,0.15-0.01,0.36-0.02,0.55c-0.43,2.88,0.35,5.77,2.17,7.98l3.03,3.67l4.73,0c3.43,0,5.73-1.69,6.74-2.54
					c0.14-0.09,0.3-0.2,0.43-0.29l8.15-4.44v-1.79c1.29-0.28,2.35-0.78,3.16-1.28c1.7,1.22,3.78,1.91,6,1.91
					c1.06,0,2.15-0.16,3.21-0.48l0.11-0.03c3.61-1.13,8.52-3.45,12.42-6.98c1.84,2.9,5.08,4.74,8.79,4.74
					c0.28,0,0.57-0.01,0.89-0.03c4.22-0.32,8.54-1.58,12.32-3.69c0.14,0.19,0.27,0.38,0.42,0.57l3.03,3.67h4.73
					c0.8,0,1.54-0.09,2.21-0.24c2.55,8.21,9.54,11.97,16.49,11.97c7.91,0,13.8-6.46,15.83-10.8l0.13-0.29
					c1.41-3.27,1.09-6.99-0.86-9.94c-1.68-2.55-4.37-4.2-7.35-4.56C839.83,47.99,842.08,43.5,842.08,38.61z M686.96,44.48v8.26
					c-0.18,0.87-0.95,2.57-1.66,3.88v-13.5C685.81,43.62,686.36,44.08,686.96,44.48z"/>
				<path class="st108" d="M474.12,81.83c-5.79,0-10.26,1.53-13.63,3.49c-3.45-2.01-8.17-3.61-13.73-3.61
					c-3.52,0-7.42,1.22-10.92,3.23c-1.54-1.44-3.44-2.43-5.55-2.81c-0.06-0.06-0.1-0.13-0.16-0.19c-5.27-5.6-12.19-8.69-19.49-8.69
					c-13.72,0-24.46,8.08-24.46,18.4v9.19c-0.84-9.48-8.54-18.95-22.16-18.95c-4.66,0-8.59,1.2-11.84,3.1
					c-1.96-1.83-4.53-2.77-7.1-2.77c-0.74,0-1.47,0.07-2.23,0.23l-0.38,0.08l-0.37,0.1c-0.4,0.11-0.94,0.21-1.5,0.27
					c-1.25-5.51-5.71-9.47-11.17-9.47c-1.99,0-3.97,0.55-5.69,1.57c-0.73,0.43-1.41,0.84-2.06,1.24c-0.49,0.3-0.94,0.57-1.36,0.82
					c-3.54-1.95-8.16-3.07-13.48-3.07c-9.52,0-17.81,4.18-22.79,11.54c-2.17,3.25-2.38,7.38-0.56,10.78
					c1.81,3.37,5.32,5.47,9.17,5.47c2.35,0,4.69-0.81,6.61-2.3c1.18-0.93,2.36-1.53,3.33-1.89v17.18c0,0.15-0.01,0.37-0.02,0.56
					c-0.43,2.88,0.35,5.76,2.16,7.97l3.03,3.67l4.73,0c3.21,0,5.41-1.47,6.51-2.36l1.9,2.3h4.73c2.31,0,4.1-0.76,5.34-1.52
					c1.7,1.22,3.78,1.91,6,1.91c1.06,0,2.15-0.16,3.21-0.48l0.11-0.03c3.61-1.13,8.52-3.45,12.42-6.98c1.84,2.9,5.08,4.74,8.79,4.74
					c0.28,0,0.57-0.01,0.89-0.03c11.06-0.83,22.77-8.15,23.79-20.2v10.47c0,0.15-0.01,0.37-0.02,0.56
					c-0.43,2.88,0.35,5.75,2.15,7.96l3.03,3.68h4.74c3.43,0,5.73-1.69,6.74-2.54c0.14-0.09,0.29-0.2,0.43-0.28l8.15-4.45v-18.11
					c0.8,1.37,1.9,2.53,3.22,3.4v7.87c0,0.15-0.01,0.36-0.02,0.55c-0.43,2.88,0.35,5.76,2.16,7.97l3.03,3.67h4.73
					c2.04,0,3.67-0.6,4.87-1.26l1.14,1.38l4.73,0c2.63,0,4.59-0.99,5.81-1.84c1.65,1.1,3.64,1.73,5.76,1.73c0.8,0,1.6-0.09,2.4-0.26
					c16.86-3.47,18.68-13.31,18.68-17.39c0-0.18-0.02-0.36-0.03-0.54c0.14-0.1,0.29-0.22,0.43-0.31v16.98
					c0,0.15-0.01,0.36-0.02,0.55c-0.43,2.88,0.35,5.77,2.17,7.98l3.03,3.67l4.73,0c3.43,0,5.73-1.69,6.74-2.54
					c0.14-0.09,0.29-0.2,0.43-0.29l8.15-4.44V96.81C493.54,88.27,485.2,81.83,474.12,81.83z"/>
			</g>
		</g>
	</g>
</g>
<g>
	<path class="st149" d="M304.45,23.97c6.24,0,10.98,2.16,10.98,4.62v25.14l-3.3,1.8c-0.18,0.12-1.38,0.9-1.56,1.08
		c-0.48,0.42-0.54,0.42-0.48,0.12c0.06-0.18,0.12-1.38,0.12-1.98v-22.5c0-3.66-4.92-5.16-8.04-5.16c-3.18,0-7.56,1.44-11.46,4.5
		c-0.54,0.42-1.08,0-0.72-0.54C291.37,29.01,295.51,23.97,304.45,23.97z"/>
	<path class="st149" d="M321.43,28.35c-0.6-0.12-1.68-0.18-2.22-0.18s-0.54-0.3-0.3-0.42c2.76-1.14,4.74-2.52,7.5-4.14
		c1.32-0.78,2.16,0.96,2.16,2.46v16.5c1.14-0.18,2.64-0.78,5.22-2.1c3-1.56,3.96-3.36,4.26-4.68c0.3-1.32-0.9-1.92-1.44-2.28
		c-0.36-0.18-0.42-0.54,0.24-0.54c1.5,0,3.66-0.18,5.58-0.72c0.6-0.12,0.72,0.06,0.72,1.14c0,4.2-2.7,4.92-6.06,6.9
		c5.7,0.24,9.66,2.1,9.66,6.42c0,4.92-7.2,9.06-11.82,10.5c-0.6,0.18-0.72-0.06-0.3-0.36c2.64-1.68,6.3-5.4,6.3-9
		c0-2.22-1.38-5.4-6.96-5.76c-2.28,1.26-4.26,2.16-5.4,2.76v8.82l-3.3,1.8c-0.18,0.12-1.38,0.9-1.56,1.08
		c-0.48,0.42-0.54,0.42-0.48,0.12c0.06-0.18,0.12-1.38,0.12-1.98v-24C323.35,29.25,322.93,28.65,321.43,28.35z"/>
	<path class="st149" d="M361.63,31.89c8.16,0,12.24,5.34,12.24,10.68c0,8.28-9.78,11.58-14.64,11.94c-0.72,0.06-0.6-0.42,0-0.66
		c4.74-2.04,8.04-4.02,8.46-8.82h-7.44c-0.72,0-5.52,0.18-6.3,0.3c-2.04,0.36-2.28,0.3-1.62-0.18c0.42-0.3,2.7-2.58,3.54-3.36
		l0.12-0.12h11.64c-0.72-5.52-3.96-7.86-7.14-7.86c-4.32,0-7.08,2.7-7.08,4.68c0,0.48-0.12,0.66-0.3,0.72
		c-1.74,0.6-2.76,1.14-3.72,1.92c-0.3,0.24-0.72,0.48-0.48-0.24C349.57,39.09,352.75,31.89,361.63,31.89z"/>
	<path class="st149" d="M408.24,23.25c6.42,0,10.5,3.72,12.24,5.58c0.24,0.24,0.06,0.36-0.12,0.48c-1.38,0.78-3.06,2.76-3.96,4.02
		c-0.24,0.36-0.42,0.48-0.6,0.06c-1.14-2.52-4.56-7.44-10.26-7.44c-2.82,0-6.54,1.74-6.54,5.64v22.14l-3.3,1.8
		c-0.18,0.12-1.38,0.9-1.56,1.08c-0.48,0.42-0.54,0.42-0.48,0.12c0.06-0.18,0.12-1.38,0.12-1.98v-23.1
		C393.79,27.51,399.6,23.25,408.24,23.25z"/>
	<path class="st149" d="M420.31,36.87c-0.6-0.12-1.68-0.18-2.22-0.18s-0.54-0.3-0.3-0.42c2.76-1.14,4.74-2.52,7.5-4.14
		c1.32-0.78,2.16,0.96,2.16,2.46v17.22l-3.3,1.8c-0.18,0.12-1.38,0.9-1.56,1.08c-0.48,0.42-0.54,0.42-0.48,0.12
		c0.06-0.18,0.12-1.38,0.12-1.98V39.21C422.23,37.77,421.81,37.17,420.31,36.87z"/>
	<path class="st149" d="M449.95,48.09c0-2.7-1.8-4.26-4.86-4.26c-1.92,0-5.22,2.7-6.9,3.78v4.32l-3.3,1.8
		c-0.18,0.12-1.38,0.9-1.56,1.08c-0.48,0.42-0.54,0.42-0.48,0.12c0.06-0.18,0.12-1.38,0.12-1.98v-13.5c0-2.34,6.3-7.74,11.4-7.74
		c5.04,0,8.88,1.98,10.56,3.6c0.66,0.66,0.48,0.66,0.24,0.84c-0.9,0.72-1.92,1.8-2.58,2.7c-0.36,0.6-0.48,0.72-0.78,0.18
		c-1.38-1.98-3.42-4.8-7.8-4.8c-3.72,0-5.82,2.46-5.82,3.54v7.62c2.16-0.9,6.18-3.96,9.42-3.96c4.68,0,7.92,1.68,7.92,5.94
		c0,4.62-6.66,6.78-10.8,7.62c-0.48,0.12-0.72-0.06-0.36-0.24C446.35,53.73,449.95,51.75,449.95,48.09z"/>
	<path class="st149" d="M471.72,31.83c5.76,0,9.42,2.52,9.42,4.98v25.68l-3.3,1.8c-0.18,0.12-1.38,0.9-1.56,1.08
		c-0.48,0.42-0.54,0.42-0.48,0.12c0.06-0.18,0.12-1.38,0.12-1.98V39.45c0-2.64-2.82-4.5-6.78-4.5c-2.58,0-6.48,1.38-10.5,4.5
		c-0.6,0.48-1.32,0.06-0.9-0.48C459.37,36.87,463.03,31.83,471.72,31.83z"/>
	<path class="st149" d="M503.88,50.97c-4.5-5.82-1.68-11.76,1.68-15.3c3.54-3.96,8.1-5.58,13.62-2.58c4.86,2.7,7.38,9.54,2.22,16.32
		C515.7,56.91,507.01,55.05,503.88,50.97z M516.42,37.23c-3.48-2.64-7.5-2.94-9.3-1.08c-2.46,2.58-1.56,8.28,0.66,11.16
		c2.64,3.42,8.7,5.04,10.8,3C522.12,46.83,519.6,39.75,516.42,37.23z"/>
	<path class="st149" d="M540.48,31.53c5.52,0,9.6,3.78,10.86,5.34c0.24,0.3-0.3,0.6-0.48,0.78c-1.02,0.84-2.28,2.22-3.12,3.36
		c-0.18,0.24-0.36,0.3-0.54,0c-1.2-2.4-4.68-7.56-8.52-7.56c-3.54,0-5.52,2.88-5.52,6.78v20.34l-3.3,1.8
		c-0.18,0.12-1.38,0.9-1.56,1.08c-0.48,0.42-0.54,0.42-0.48,0.12c0.06-0.18,0.12-1.38,0.12-1.98v-21.3
		C527.94,36.81,533.16,31.53,540.48,31.53z"/>
	<path class="st149" d="M582.3,31.83c5.76,0,9.42,2.52,9.42,4.98v25.68l-3.3,1.8c-0.18,0.12-1.38,0.9-1.56,1.08
		c-0.48,0.42-0.54,0.42-0.48,0.12c0.06-0.18,0.12-1.38,0.12-1.98V39.45c0-2.64-2.82-4.5-6.78-4.5c-2.58,0-6.48,1.38-10.5,4.5
		c-0.6,0.48-1.32,0.06-0.9-0.48C569.94,36.87,573.6,31.83,582.3,31.83z"/>
	<path class="st149" d="M597.72,28.35c-0.6-0.12-1.68-0.18-2.22-0.18s-0.54-0.3-0.3-0.42c2.76-1.14,4.74-2.52,7.5-4.14
		c1.32-0.78,2.16,0.96,2.16,2.46v16.5c1.14-0.18,2.64-0.78,5.22-2.1c3-1.56,3.96-3.36,4.26-4.68c0.3-1.32-0.9-1.92-1.44-2.28
		c-0.36-0.18-0.42-0.54,0.24-0.54c1.5,0,3.66-0.18,5.58-0.72c0.6-0.12,0.72,0.06,0.72,1.14c0,4.2-2.7,4.92-6.06,6.9
		c5.7,0.24,9.66,2.1,9.66,6.42c0,4.92-7.2,9.06-11.82,10.5c-0.6,0.18-0.72-0.06-0.3-0.36c2.64-1.68,6.3-5.4,6.3-9
		c0-2.22-1.38-5.4-6.96-5.76c-2.28,1.26-4.26,2.16-5.4,2.76v8.82l-3.3,1.8c-0.18,0.12-1.38,0.9-1.56,1.08
		c-0.48,0.42-0.54,0.42-0.48,0.12c0.06-0.18,0.12-1.38,0.12-1.98v-24C599.64,29.25,599.22,28.65,597.72,28.35z"/>
	<path class="st149" d="M637.92,31.89c8.16,0,12.24,5.34,12.24,10.68c0,8.28-9.78,11.58-14.64,11.94c-0.72,0.06-0.6-0.42,0-0.66
		c4.74-2.04,8.04-4.02,8.46-8.82h-7.44c-0.72,0-5.52,0.18-6.3,0.3c-2.04,0.36-2.28,0.3-1.62-0.18c0.42-0.3,2.7-2.58,3.54-3.36
		l0.12-0.12h11.64c-0.72-5.52-3.96-7.86-7.14-7.86c-4.32,0-7.08,2.7-7.08,4.68c0,0.48-0.12,0.66-0.3,0.72
		c-1.74,0.6-2.76,1.14-3.72,1.92c-0.3,0.24-0.72,0.48-0.48-0.24C625.86,39.09,629.04,31.89,637.92,31.89z"/>
	<path class="st149" d="M684.54,23.25c6.42,0,10.5,3.72,12.24,5.58c0.24,0.24,0.06,0.36-0.12,0.48c-1.38,0.78-3.06,2.76-3.96,4.02
		c-0.24,0.36-0.42,0.48-0.6,0.06c-1.14-2.52-4.56-7.44-10.26-7.44c-2.82,0-6.54,1.74-6.54,5.64v22.14l-3.3,1.8
		c-0.18,0.12-1.38,0.9-1.56,1.08c-0.48,0.42-0.54,0.42-0.48,0.12c0.06-0.18,0.12-1.38,0.12-1.98v-23.1
		C670.08,27.51,675.9,23.25,684.54,23.25z"/>
	<path class="st149" d="M695.04,36.39c-0.6-0.12-1.68-0.18-2.22-0.18s-0.54-0.3-0.3-0.42c2.76-1.14,4.74-2.52,7.5-4.14
		c1.32-0.78,2.16,0.96,2.16,2.46v3.06c2.46-2.64,5.76-5.28,10.14-5.28c3.12,0,5.7,1.2,6.6,2.28c-0.3,0.18-2.94,2.64-3.36,3.3
		c-1.2-1.2-3.36-2.22-6.36-2.22c-2.94,0-4.62,1.8-7.02,4.2v5.64c2.94-1.62,7.38-4.56,9.24-4.56c4.02,0,7.5,2.58,7.5,6.96
		c0,4.86-6.06,6.72-9.84,6.72c-3.18,0-5.52-1.86-6.9-2.46v0.48c0,4.26-8.7,12.06-9.9,12.66c-0.36,0.18-0.66,0-0.3-0.36
		c1.08-0.96,4.98-7.68,4.98-11.52v-0.18v-4.68v-9.42C696.96,37.29,696.54,36.69,695.04,36.39z M710.7,51.93
		c2.4,0,2.94-0.18,2.94-2.88c0-3.3-2.82-5.52-4.74-5.52c-1.68,0-4.08,2.16-6.18,3.12C704.82,49.17,708.12,51.93,710.7,51.93z"/>
	<path class="st149" d="M735.12,31.83c5.76,0,9.42,2.52,9.42,4.98v25.68l-3.3,1.8c-0.18,0.12-1.38,0.9-1.56,1.08
		c-0.48,0.42-0.54,0.42-0.48,0.12c0.06-0.18,0.12-1.38,0.12-1.98V39.45c0-2.64-2.82-4.5-6.78-4.5c-2.58,0-6.48,1.38-10.5,4.5
		c-0.6,0.48-1.32,0.06-0.9-0.48C722.76,36.87,726.42,31.83,735.12,31.83z"/>
	<path class="st149" d="M750.54,28.35c-0.6-0.12-1.68-0.18-2.22-0.18s-0.54-0.3-0.3-0.42c2.76-1.14,4.74-2.52,7.5-4.14
		c1.32-0.78,2.16,0.96,2.16,2.46v16.5c1.14-0.18,2.64-0.78,5.22-2.1c3-1.56,3.96-3.36,4.26-4.68c0.3-1.32-0.9-1.92-1.44-2.28
		c-0.36-0.18-0.42-0.54,0.24-0.54c1.5,0,3.66-0.18,5.58-0.72c0.6-0.12,0.72,0.06,0.72,1.14c0,4.2-2.7,4.92-6.06,6.9
		c5.7,0.24,9.66,2.1,9.66,6.42c0,4.92-7.2,9.06-11.82,10.5c-0.6,0.18-0.72-0.06-0.3-0.36c2.64-1.68,6.3-5.4,6.3-9
		c0-2.22-1.38-5.4-6.96-5.76c-2.28,1.26-4.26,2.16-5.4,2.76v8.82l-3.3,1.8c-0.18,0.12-1.38,0.9-1.56,1.08
		c-0.48,0.42-0.54,0.42-0.48,0.12c0.06-0.18,0.12-1.38,0.12-1.98v-24C752.46,29.25,752.04,28.65,750.54,28.35z"/>
	<path class="st149" d="M790.74,31.89c8.16,0,12.24,5.34,12.24,10.68c0,8.28-9.78,11.58-14.64,11.94c-0.72,0.06-0.6-0.42,0-0.66
		c4.74-2.04,8.04-4.02,8.46-8.82h-7.44c-0.72,0-5.52,0.18-6.3,0.3c-2.04,0.36-2.28,0.3-1.62-0.18c0.42-0.3,2.7-2.58,3.54-3.36
		l0.12-0.12h11.64c-0.72-5.52-3.96-7.86-7.14-7.86c-4.32,0-7.08,2.7-7.08,4.68c0,0.48-0.12,0.66-0.3,0.72
		c-1.74,0.6-2.76,1.14-3.72,1.92c-0.3,0.24-0.72,0.48-0.48-0.24C778.68,39.09,781.86,31.89,790.74,31.89z"/>
	<path class="st149" d="M807.78,36.57c-0.6-0.12-1.68-0.18-2.22-0.18s-0.54-0.3-0.3-0.42c2.76-1.14,4.74-2.52,7.5-4.14
		c1.32-0.78,2.16,0.96,2.16,2.46v2.34c2.4-2.7,6.9-5.04,9.54-5.04c2.88,0,7.62,2.7,7.62,7.02c0,3.3-2.7,5.82-6.06,6.78v10.92
		c0,5.4,1.5,7.38,3.96,7.38c1.74,0,3.42-1.02,4.62-2.46c0.3-0.36,0.66,0.06,0.48,0.48c-0.9,1.92-3.9,5.04-6.78,5.04
		c-4.74,0-7.5-3.06-7.5-9.12v-12l-0.96-0.24c-0.78-0.24-1.02-0.78,0-0.96c1.32-0.24,6.12-0.54,6.12-4.98c0-2.76-1.68-5.16-4.74-5.16
		c-1.98,0-4.98,2.52-6.3,4.14v13.38l-3.3,1.8c-0.18,0.12-1.38,0.9-1.56,1.08c-0.48,0.42-0.54,0.42-0.48,0.12
		c0.06-0.18,0.12-1.38,0.12-1.98V38.91C809.7,37.47,809.28,36.87,807.78,36.57z"/>
	<path class="st149" d="M306.84,83.97c6.24,0,10.98,2.16,10.98,4.62v25.14l-3.3,1.8c-0.18,0.12-1.38,0.9-1.56,1.08
		c-0.48,0.42-0.54,0.42-0.48,0.12c0.06-0.18,0.12-1.38,0.12-1.98v-22.5c0-3.66-4.92-5.16-8.04-5.16c-3.18,0-7.56,1.44-11.46,4.5
		c-0.54,0.42-1.08,0-0.72-0.54C293.77,89.01,297.91,83.97,306.84,83.97z"/>
	<path class="st149" d="M323.83,88.35c-0.6-0.12-1.68-0.18-2.22-0.18s-0.54-0.3-0.3-0.42c2.76-1.14,4.74-2.52,7.5-4.14
		c1.32-0.78,2.16,0.96,2.16,2.46v16.5c1.14-0.18,2.64-0.78,5.22-2.1c3-1.56,3.96-3.36,4.26-4.68c0.3-1.32-0.9-1.92-1.44-2.28
		c-0.36-0.18-0.42-0.54,0.24-0.54c1.5,0,3.66-0.18,5.58-0.72c0.6-0.12,0.72,0.06,0.72,1.14c0,4.2-2.7,4.92-6.06,6.9
		c5.7,0.24,9.66,2.1,9.66,6.42c0,4.92-7.2,9.06-11.82,10.5c-0.6,0.18-0.72-0.06-0.3-0.36c2.64-1.68,6.3-5.4,6.3-9
		c0-2.22-1.38-5.4-6.96-5.76c-2.28,1.26-4.26,2.16-5.4,2.76v8.82l-3.3,1.8c-0.18,0.12-1.38,0.9-1.56,1.08
		c-0.48,0.42-0.54,0.42-0.48,0.12c0.06-0.18,0.12-1.38,0.12-1.98v-24C325.75,89.25,325.33,88.65,323.83,88.35z"/>
	<path class="st149" d="M364.03,91.89c8.16,0,12.24,5.34,12.24,10.68c0,8.28-9.78,11.58-14.64,11.94c-0.72,0.06-0.6-0.42,0-0.66
		c4.74-2.04,8.04-4.02,8.46-8.82h-7.44c-0.72,0-5.52,0.18-6.3,0.3c-2.04,0.36-2.28,0.3-1.62-0.18c0.42-0.3,2.7-2.58,3.54-3.36
		l0.12-0.12h11.64c-0.72-5.52-3.96-7.86-7.14-7.86c-4.32,0-7.08,2.7-7.08,4.68c0,0.48-0.12,0.66-0.3,0.72
		c-1.74,0.6-2.76,1.14-3.72,1.92c-0.3,0.24-0.72,0.48-0.48-0.24C351.97,99.09,355.15,91.89,364.03,91.89z"/>
	<path class="st149" d="M410.64,83.25c6.42,0,10.5,3.72,12.24,5.58c0.24,0.24,0.06,0.36-0.12,0.48c-1.38,0.78-3.06,2.76-3.96,4.02
		c-0.24,0.36-0.42,0.48-0.6,0.06c-1.14-2.52-4.56-7.44-10.26-7.44c-2.82,0-6.54,1.74-6.54,5.64v22.14l-3.3,1.8
		c-0.18,0.12-1.38,0.9-1.56,1.08c-0.48,0.42-0.54,0.42-0.48,0.12c0.06-0.18,0.12-1.38,0.12-1.98v-23.1
		C396.18,87.51,402,83.25,410.64,83.25z"/>
	<path class="st149" d="M422.71,96.87c-0.6-0.12-1.68-0.18-2.22-0.18s-0.54-0.3-0.3-0.42c2.76-1.14,4.74-2.52,7.5-4.14
		c1.32-0.78,2.16,0.96,2.16,2.46v17.22l-3.3,1.8c-0.18,0.12-1.38,0.9-1.56,1.08c-0.48,0.42-0.54,0.42-0.48,0.12
		c0.06-0.18,0.12-1.38,0.12-1.98V99.21C424.63,97.77,424.21,97.17,422.71,96.87z"/>
	<path class="st149" d="M452.34,108.09c0-2.7-1.8-4.26-4.86-4.26c-1.92,0-5.22,2.7-6.9,3.78v4.32l-3.3,1.8
		c-0.18,0.12-1.38,0.9-1.56,1.08c-0.48,0.42-0.54,0.42-0.48,0.12c0.06-0.18,0.12-1.38,0.12-1.98v-13.5c0-2.34,6.3-7.74,11.4-7.74
		c5.04,0,8.88,1.98,10.56,3.6c0.66,0.66,0.48,0.66,0.24,0.84c-0.9,0.72-1.92,1.8-2.58,2.7c-0.36,0.6-0.48,0.72-0.78,0.18
		c-1.38-1.98-3.42-4.8-7.8-4.8c-3.72,0-5.82,2.46-5.82,3.54v7.62c2.16-0.9,6.18-3.96,9.42-3.96c4.68,0,7.92,1.68,7.92,5.94
		c0,4.62-6.66,6.78-10.8,7.62c-0.48,0.12-0.72-0.06-0.36-0.24C448.75,113.73,452.34,111.75,452.34,108.09z"/>
	<path class="st149" d="M474.12,91.83c5.76,0,9.42,2.52,9.42,4.98v25.68l-3.3,1.8c-0.18,0.12-1.38,0.9-1.56,1.08
		c-0.48,0.42-0.54,0.42-0.48,0.12c0.06-0.18,0.12-1.38,0.12-1.98V99.45c0-2.64-2.82-4.5-6.78-4.5c-2.58,0-6.48,1.38-10.5,4.5
		c-0.6,0.48-1.32,0.06-0.9-0.48C461.76,96.87,465.42,91.83,474.12,91.83z"/>
	<path class="st149" d="M506.28,110.97c-4.5-5.82-1.68-11.76,1.68-15.3c3.54-3.96,8.1-5.58,13.62-2.58
		c4.86,2.7,7.38,9.54,2.22,16.32C518.1,116.91,509.4,115.05,506.28,110.97z M518.82,97.23c-3.48-2.64-7.5-2.94-9.3-1.08
		c-2.46,2.58-1.56,8.28,0.66,11.16c2.64,3.42,8.7,5.04,10.8,3C524.52,106.83,522,99.75,518.82,97.23z"/>
	<path class="st149" d="M542.88,91.53c5.52,0,9.6,3.78,10.86,5.34c0.24,0.3-0.3,0.6-0.48,0.78c-1.02,0.84-2.28,2.22-3.12,3.36
		c-0.18,0.24-0.36,0.3-0.54,0c-1.2-2.4-4.68-7.56-8.52-7.56c-3.54,0-5.52,2.88-5.52,6.78v20.34l-3.3,1.8
		c-0.18,0.12-1.38,0.9-1.56,1.08c-0.48,0.42-0.54,0.42-0.48,0.12c0.06-0.18,0.12-1.38,0.12-1.98v-21.3
		C530.34,96.81,535.56,91.53,542.88,91.53z"/>
	<path class="st149" d="M584.7,91.83c5.76,0,9.42,2.52,9.42,4.98v25.68l-3.3,1.8c-0.18,0.12-1.38,0.9-1.56,1.08
		c-0.48,0.42-0.54,0.42-0.48,0.12c0.06-0.18,0.12-1.38,0.12-1.98V99.45c0-2.64-2.82-4.5-6.78-4.5c-2.58,0-6.48,1.38-10.5,4.5
		c-0.6,0.48-1.32,0.06-0.9-0.48C572.34,96.87,576,91.83,584.7,91.83z"/>
	<path class="st149" d="M600.12,88.35c-0.6-0.12-1.68-0.18-2.22-0.18s-0.54-0.3-0.3-0.42c2.76-1.14,4.74-2.52,7.5-4.14
		c1.32-0.78,2.16,0.96,2.16,2.46v16.5c1.14-0.18,2.64-0.78,5.22-2.1c3-1.56,3.96-3.36,4.26-4.68c0.3-1.32-0.9-1.92-1.44-2.28
		c-0.36-0.18-0.42-0.54,0.24-0.54c1.5,0,3.66-0.18,5.58-0.72c0.6-0.12,0.72,0.06,0.72,1.14c0,4.2-2.7,4.92-6.06,6.9
		c5.7,0.24,9.66,2.1,9.66,6.42c0,4.92-7.2,9.06-11.82,10.5c-0.6,0.18-0.72-0.06-0.3-0.36c2.64-1.68,6.3-5.4,6.3-9
		c0-2.22-1.38-5.4-6.96-5.76c-2.28,1.26-4.26,2.16-5.4,2.76v8.82l-3.3,1.8c-0.18,0.12-1.38,0.9-1.56,1.08
		c-0.48,0.42-0.54,0.42-0.48,0.12c0.06-0.18,0.12-1.38,0.12-1.98v-24C602.04,89.25,601.62,88.65,600.12,88.35z"/>
	<path class="st149" d="M640.32,91.89c8.16,0,12.24,5.34,12.24,10.68c0,8.28-9.78,11.58-14.64,11.94c-0.72,0.06-0.6-0.42,0-0.66
		c4.74-2.04,8.04-4.02,8.46-8.82h-7.44c-0.72,0-5.52,0.18-6.3,0.3c-2.04,0.36-2.28,0.3-1.62-0.18c0.42-0.3,2.7-2.58,3.54-3.36
		l0.12-0.12h11.64c-0.72-5.52-3.96-7.86-7.14-7.86c-4.32,0-7.08,2.7-7.08,4.68c0,0.48-0.12,0.66-0.3,0.72
		c-1.74,0.6-2.76,1.14-3.72,1.92c-0.3,0.24-0.72,0.48-0.48-0.24C628.26,99.09,631.44,91.89,640.32,91.89z"/>
	<linearGradient id="SVGID_1_" gradientUnits="userSpaceOnUse" x1="667.3251" y1="104.1048" x2="717.9532" y2="104.1048">
		<stop  offset="0" style="stop-color:#4C5FBF"/>
		<stop  offset="0.3" style="stop-color:#4889D1"/>
		<stop  offset="0.5" style="stop-color:#47AADD"/>
		<stop  offset="1" style="stop-color:#FE9934"/>
	</linearGradient>
	<path class="st0" d="M687.9,83.25c5.46,0,11.82,0.96,11.82,8.64v5.34c2.46-2.64,5.76-5.34,10.2-5.34c3.12,0,5.7,1.2,6.6,2.28
		c-0.3,0.18-2.94,2.64-3.36,3.3c-1.2-1.2-3.36-2.22-6.36-2.22c-2.94,0-4.68,1.8-7.08,4.26l0.06,5.58c2.94-1.62,7.38-4.56,9.24-4.56
		c4.02,0,7.5,2.58,7.5,6.96c0,4.86-6.06,6.72-9.84,6.72c-3.18,0-5.52-1.86-6.9-2.46v0.48c0,4.26-8.7,12.06-9.9,12.66
		c-0.36,0.18-0.66,0-0.3-0.36c1.08-0.96,4.98-7.68,4.98-11.52v-0.18l-0.06-18.84c0-7.2-5.64-8.04-9.96-8.04
		c-4.02,0-6.84,2.22-6.84,4.86v22.92l-3.3,1.8c-0.18,0.12-1.38,0.9-1.56,1.08c-0.48,0.42-0.54,0.42-0.48,0.12
		c0.06-0.18,0.12-1.38,0.12-1.98V92.13C672.48,87.75,680.82,83.25,687.9,83.25z M708.3,111.93c2.4,0,2.94-0.18,2.94-2.88
		c0-3.3-2.82-5.52-4.74-5.52c-1.68,0-4.08,2.16-6.18,3.12C702.42,109.17,705.72,111.93,708.3,111.93z"/>
	<path class="st149" d="M732.72,91.83c5.76,0,9.42,2.52,9.42,4.98v25.68l-3.3,1.8c-0.18,0.12-1.38,0.9-1.56,1.08
		c-0.48,0.42-0.54,0.42-0.48,0.12c0.06-0.18,0.12-1.38,0.12-1.98V99.45c0-2.64-2.82-4.5-6.78-4.5c-2.58,0-6.48,1.38-10.5,4.5
		c-0.6,0.48-1.32,0.06-0.9-0.48C720.36,96.87,724.02,91.83,732.72,91.83z"/>
	<path class="st149" d="M748.14,88.35c-0.6-0.12-1.68-0.18-2.22-0.18s-0.54-0.3-0.3-0.42c2.76-1.14,4.74-2.52,7.5-4.14
		c1.32-0.78,2.16,0.96,2.16,2.46v16.5c1.14-0.18,2.64-0.78,5.22-2.1c3-1.56,3.96-3.36,4.26-4.68c0.3-1.32-0.9-1.92-1.44-2.28
		c-0.36-0.18-0.42-0.54,0.24-0.54c1.5,0,3.66-0.18,5.58-0.72c0.6-0.12,0.72,0.06,0.72,1.14c0,4.2-2.7,4.92-6.06,6.9
		c5.7,0.24,9.66,2.1,9.66,6.42c0,4.92-7.2,9.06-11.82,10.5c-0.6,0.18-0.72-0.06-0.3-0.36c2.64-1.68,6.3-5.4,6.3-9
		c0-2.22-1.38-5.4-6.96-5.76c-2.28,1.26-4.26,2.16-5.4,2.76v8.82l-3.3,1.8c-0.18,0.12-1.38,0.9-1.56,1.08
		c-0.48,0.42-0.54,0.42-0.48,0.12c0.06-0.18,0.12-1.38,0.12-1.98v-24C750.06,89.25,749.64,88.65,748.14,88.35z"/>
	<path class="st149" d="M788.34,91.89c8.16,0,12.24,5.34,12.24,10.68c0,8.28-9.78,11.58-14.64,11.94c-0.72,0.06-0.6-0.42,0-0.66
		c4.74-2.04,8.04-4.02,8.46-8.82h-7.44c-0.72,0-5.52,0.18-6.3,0.3c-2.04,0.36-2.28,0.3-1.62-0.18c0.42-0.3,2.7-2.58,3.54-3.36
		l0.12-0.12h11.64c-0.72-5.52-3.96-7.86-7.14-7.86c-4.32,0-7.08,2.7-7.08,4.68c0,0.48-0.12,0.66-0.3,0.72
		c-1.74,0.6-2.76,1.14-3.72,1.92c-0.3,0.24-0.72,0.48-0.48-0.24C776.28,99.09,779.46,91.89,788.34,91.89z"/>
	<path class="st149" d="M805.38,96.57c-0.6-0.12-1.68-0.18-2.22-0.18s-0.54-0.3-0.3-0.42c2.76-1.14,4.74-2.52,7.5-4.14
		c1.32-0.78,2.16,0.96,2.16,2.46v2.34c2.4-2.7,6.9-5.04,9.54-5.04c2.88,0,7.62,2.7,7.62,7.02c0,3.3-2.7,5.82-6.06,6.78v10.92
		c0,5.4,1.5,7.38,3.96,7.38c1.74,0,3.42-1.02,4.62-2.46c0.3-0.36,0.66,0.06,0.48,0.48c-0.9,1.92-3.9,5.04-6.78,5.04
		c-4.74,0-7.5-3.06-7.5-9.12v-12l-0.96-0.24c-0.78-0.24-1.02-0.78,0-0.96c1.32-0.24,6.12-0.54,6.12-4.98c0-2.76-1.68-5.16-4.74-5.16
		c-1.98,0-4.98,2.52-6.3,4.14v13.38l-3.3,1.8c-0.18,0.12-1.38,0.9-1.56,1.08c-0.48,0.42-0.54,0.42-0.48,0.12
		c0.06-0.18,0.12-1.38,0.12-1.98V98.91C807.3,97.47,806.88,96.87,805.38,96.57z"/>
</g>
</svg>
