<svg id="图层_1" data-name="图层 1" xmlns="http://www.w3.org/2000/svg" xmlns:xlink="http://www.w3.org/1999/xlink" viewBox="0 0 1125 396.2"><defs><style>.cls-1{fill:url(#未命名的渐变_37);}.cls-2{fill:url(#未命名的渐变_37-2);}.cls-3{fill:url(#未命名的渐变_37-4);}.cls-4{fill:url(#未命名的渐变_37-5);}.cls-5{fill:url(#未命名的渐变_37-6);}.cls-6{fill:url(#未命名的渐变_37-9);}.cls-7{fill:url(#未命名的渐变_37-10);}.cls-8{fill:url(#未命名的渐变_37-11);}.cls-9{fill:url(#未命名的渐变_37-12);}</style><linearGradient id="未命名的渐变_37" x1="627.42" y1="133.06" x2="750.29" y2="133.06" gradientUnits="userSpaceOnUse"><stop offset="0" stop-color="#4c5fbf"/><stop offset="0.3" stop-color="#4889d1"/><stop offset="0.5" stop-color="#47aadd"/><stop offset="1" stop-color="#fe9934"/></linearGradient><linearGradient id="未命名的渐变_37-2" x1="627.42" y1="137.71" x2="750.29" y2="137.71" xlink:href="#未命名的渐变_37"/><linearGradient id="未命名的渐变_37-4" x1="627.42" y1="137.91" x2="750.29" y2="137.91" xlink:href="#未命名的渐变_37"/><linearGradient id="未命名的渐变_37-5" x1="399" y1="301.09" x2="717.04" y2="301.09" xlink:href="#未命名的渐变_37"/><linearGradient id="未命名的渐变_37-6" x1="399" y1="306.56" x2="717.04" y2="306.56" xlink:href="#未命名的渐变_37"/><linearGradient id="未命名的渐变_37-9" x1="399" y1="302.35" x2="717.04" y2="302.35" xlink:href="#未命名的渐变_37"/><linearGradient id="未命名的渐变_37-10" x1="399" y1="305.03" x2="717.04" y2="305.03" xlink:href="#未命名的渐变_37"/><linearGradient id="未命名的渐变_37-11" x1="399" y1="301.91" x2="717.04" y2="301.91" xlink:href="#未命名的渐变_37"/><linearGradient id="未命名的渐变_37-12" x1="399" y1="306.76" x2="717.04" y2="306.76" xlink:href="#未命名的渐变_37"/></defs><path d="M208.08,53.17c6.24,0,11,2.16,11,4.62V82.93l-3.3,1.8c-.18.12-1.38.9-1.56,1.08-.48.42-.54.42-.48.12a15,15,0,0,0,.12-2V61.45c0-3.66-4.92-5.16-8-5.16s-7.56,1.44-11.46,4.5c-.54.42-1.08,0-.72-.54C195,58.21,199.14,53.17,208.08,53.17Z"/><path d="M225.06,57.55a14.42,14.42,0,0,0-2.22-.18c-.54,0-.54-.3-.3-.42a58.27,58.27,0,0,0,7.5-4.14c1.32-.78,2.16,1,2.16,2.46v16.5a19.28,19.28,0,0,0,5.22-2.1c3-1.56,4-3.36,4.26-4.68s-.9-1.92-1.44-2.28c-.36-.18-.42-.54.24-.54a21.9,21.9,0,0,0,5.58-.72c.6-.12.72.06.72,1.14,0,4.2-2.7,4.92-6.06,6.9,5.7.24,9.66,2.1,9.66,6.42,0,4.92-7.2,9.06-11.82,10.5-.6.18-.72-.06-.3-.36,2.64-1.68,6.3-5.4,6.3-9,0-2.22-1.38-5.4-7-5.76-2.28,1.26-4.26,2.16-5.4,2.76v8.82l-3.3,1.8c-.18.12-1.38.9-1.56,1.08-.48.42-.54.42-.48.12a15,15,0,0,0,.12-2v-24C227,58.45,226.56,57.85,225.06,57.55Z"/><path d="M265.26,61.09c8.16,0,12.24,5.34,12.24,10.68,0,8.28-9.78,11.58-14.64,11.94-.72.06-.6-.42,0-.66,4.74-2,8-4,8.46-8.82h-7.44c-.72,0-5.52.18-6.3.3-2,.36-2.28.3-1.62-.18.42-.3,2.7-2.58,3.54-3.36l.12-.12h11.64c-.72-5.52-4-7.86-7.14-7.86-4.32,0-7.08,2.7-7.08,4.68,0,.48-.12.66-.3.72A11.25,11.25,0,0,0,253,70.33c-.3.24-.72.48-.48-.24C253.2,68.29,256.38,61.09,265.26,61.09Z"/><path d="M297.9,57.55a14.42,14.42,0,0,0-2.22-.18c-.54,0-.54-.3-.3-.42a58.27,58.27,0,0,0,7.5-4.14c1.32-.78,2.16,1,2.16,2.46V67a38.23,38.23,0,0,0,8.88-5.22c3.66-3.36,3.42-4.8,3.24-5.52-.3-1-2.1-1.08-2.46-1.38s1.26-.54,2.46-.78a22,22,0,0,1,4.38-.6,2.17,2.17,0,0,1,2.16,2c0,2.7-3.06,4.32-6.66,6.48,6.9.36,10,3.78,10,8.82,0,6.84-6.84,11.28-14.22,15.42-.72.42-.84-.06-.36-.42,2.88-2.4,7.62-8.16,7.62-13.26,0-2.52-.36-7.32-7.62-7.8-2.64,1.5-5.94,3.06-7.44,4.56v13.5l-3.3,1.8c-.18.12-1.38.9-1.56,1.08-.48.42-.54.42-.48.12a15,15,0,0,0,.12-2v-24C299.82,58.45,299.4,57.85,297.9,57.55Z"/><path d="M331.8,80.17c-4.5-5.82-1.68-11.76,1.68-15.3,3.54-4,8.1-5.58,13.62-2.58,4.86,2.7,7.38,9.54,2.22,16.32C343.62,86.11,334.92,84.25,331.8,80.17Zm3.9-3.66c2.64,3.42,8.7,5,10.8,3,3.54-3.48,1-10.56-2.16-13.08-3.48-2.64-7.5-2.94-9.3-1.08C332.58,67.93,333.48,73.63,335.7,76.51Z"/><path d="M356,57.61a14.42,14.42,0,0,0-2.22-.18c-.54,0-.54-.3-.3-.42a58.27,58.27,0,0,0,7.5-4.14c1.32-.78,2.16,1,2.16,2.46v28h2.22c.72,0,5.52-.18,6.3-.3,2-.36,2.28-.3,1.62.18-.42.3-2.7,2.58-3.54,3.36l-.12.12H358V60C358,58.51,357.54,57.91,356,57.61Z"/><path d="M378.66,80.17c-4.5-5.82-1.68-11.76,1.68-15.3,3.54-4,8.1-5.58,13.62-2.58,4.86,2.7,7.38,9.54,2.22,16.32C390.48,86.11,381.78,84.25,378.66,80.17Zm3.9-3.66c2.64,3.42,8.7,5,10.8,3,3.54-3.48,1-10.56-2.16-13.08-3.48-2.64-7.5-2.94-9.3-1.08C379.44,67.93,380.34,73.63,382.56,76.51Z"/><path d="M425.16,81l-3.3,1.8c-.18.12-1.38.9-1.56,1.08-.48.42-.54.42-.48.12a15,15,0,0,0,.12-2V64c-5.76,1.08-12.12,5.52-12.12,14.82,0,9.72,9.84,14.46,12.12,15.84.54.36.84,1-.12.84-4.2-.78-17.82-3.78-17.82-14.94,0-13,16.68-19.8,23.16-19.8Z"/><path d="M431.16,57.55a14.42,14.42,0,0,0-2.22-.18c-.54,0-.54-.3-.3-.42a58.27,58.27,0,0,0,7.5-4.14c1.32-.78,2.16,1,2.16,2.46v16.5a19.28,19.28,0,0,0,5.22-2.1c3-1.56,4-3.36,4.26-4.68s-.9-1.92-1.44-2.28c-.36-.18-.42-.54.24-.54a21.9,21.9,0,0,0,5.58-.72c.6-.12.72.06.72,1.14,0,4.2-2.7,4.92-6.06,6.9,5.7.24,9.66,2.1,9.66,6.42,0,4.92-7.2,9.06-11.82,10.5-.6.18-.72-.06-.3-.36,2.64-1.68,6.3-5.4,6.3-9,0-2.22-1.38-5.4-7-5.76-2.28,1.26-4.26,2.16-5.4,2.76v8.82l-3.3,1.8c-.18.12-1.38.9-1.56,1.08-.48.42-.54.42-.48.12a15,15,0,0,0,.12-2v-24C433.08,58.45,432.66,57.85,431.16,57.55Z"/><path d="M462.12,65.59a14.42,14.42,0,0,0-2.22-.18c-.54,0-.54-.3-.3-.42a58.27,58.27,0,0,0,7.5-4.14c1.32-.78,2.16,1,2.16,2.46v3.06c2.46-2.64,5.76-5.28,10.14-5.28,3.12,0,5.7,1.2,6.6,2.28a28.53,28.53,0,0,0-3.36,3.3,8.92,8.92,0,0,0-6.36-2.22c-2.94,0-4.62,1.8-7,4.2v5.64c2.94-1.62,7.38-4.56,9.24-4.56,4,0,7.5,2.58,7.5,7,0,4.86-6.06,6.72-9.84,6.72-3.18,0-5.52-1.86-6.9-2.46v.48c0,4.26-8.7,12.06-9.9,12.66-.36.18-.66,0-.3-.36,1.08-1,5-7.68,5-11.52V67.93C464,66.49,463.62,65.89,462.12,65.59Zm15.66,15.54c2.4,0,2.94-.18,2.94-2.88,0-3.3-2.82-5.52-4.74-5.52-1.68,0-4.08,2.16-6.18,3.12C471.9,78.37,475.2,81.13,477.78,81.13Z"/><path d="M490.8,65.77a14.42,14.42,0,0,0-2.22-.18c-.54,0-.54-.3-.3-.42a58.27,58.27,0,0,0,7.5-4.14c1.32-.78,2.16,1,2.16,2.46v2.34c2.4-2.7,6.9-5,9.54-5,2.88,0,7.62,2.7,7.62,7,0,3.3-2.7,5.82-6.06,6.78V85.51c0,5.4,1.5,7.38,4,7.38a6.27,6.27,0,0,0,4.62-2.46c.3-.36.66.06.48.48-.9,1.92-3.9,5-6.78,5-4.74,0-7.5-3.06-7.5-9.12v-12a5.62,5.62,0,0,1-1-.24c-.78-.24-1-.78,0-1,1.32-.24,6.12-.54,6.12-5,0-2.76-1.68-5.16-4.74-5.16-2,0-5,2.52-6.3,4.14V81l-3.3,1.8c-.18.12-1.38.9-1.56,1.08-.48.42-.54.42-.48.12a15,15,0,0,0,.12-2V68.11C492.72,66.67,492.3,66.07,490.8,65.77Z"/><path d="M532.26,61c5.76,0,9.42,2.52,9.42,5V91.69l-3.3,1.8c-.18.12-1.38.9-1.56,1.08-.48.42-.54.42-.48.12a15,15,0,0,0,.12-2V68.65c0-2.64-2.82-4.5-6.78-4.5-2.58,0-6.48,1.38-10.5,4.5-.6.48-1.32.06-.9-.48A16.16,16.16,0,0,1,532.26,61Z"/><path d="M564.18,77.29c0-2.7-1.8-4.26-4.86-4.26-1.92,0-5.22,2.7-6.9,3.78v4.32l-3.3,1.8c-.18.12-1.38.9-1.56,1.08-.48.42-.54.42-.48.12a15,15,0,0,0,.12-2V68.65c0-2.34,6.3-7.74,11.4-7.74s8.88,2,10.56,3.6c.66.66.48.66.24.84a15.66,15.66,0,0,0-2.58,2.7c-.36.6-.48.72-.78.18-1.38-2-3.42-4.8-7.8-4.8-3.72,0-5.82,2.46-5.82,3.54v7.62c2.16-.9,6.18-4,9.42-4,4.68,0,7.92,1.68,7.92,5.94,0,4.62-6.66,6.78-10.8,7.62-.48.12-.72-.06-.36-.24C560.58,82.93,564.18,81,564.18,77.29Z"/><path d="M609.66,68.83c2-.36,2.28-.3,1.62.18-.42.3-2.7,2.58-3.54,3.36l-.12.12H596.28c-.72,0-5.52.18-6.3.3-2,.36-2.28.3-1.62-.18.42-.3,2.7-2.58,3.54-3.36l.12-.12h11.34C604.08,69.13,608.88,69,609.66,68.83Z"/><path d="M657.78,81.37c2-.36,2.28-.3,1.62.18-.42.3-2.7,2.58-3.54,3.36l-.12.12H630.18l.06-.06h-.36l16.74-25.92c2.28-3.48,5-4.86,8.58-4.86,2.52,0,5.58,2.64,5.58,6.3,0,5.34-4,8.46-6.36,10.62-.3.24-.66.06-.18-.72,1.5-2.16,2.94-5.94,1-9.06a5.4,5.4,0,0,0-4.56-2.64c-.9,0-1.74.36-3.06,2.4L634.32,81.67h17.16C652.2,81.67,657,81.49,657.78,81.37Z"/><path d="M686.64,52.45A16.7,16.7,0,0,1,698.88,58c.24.24.06.36-.12.48a15.76,15.76,0,0,0-4,4c-.24.36-.42.48-.6.06-1.14-2.52-4.56-7.44-10.26-7.44-2.82,0-6.54,1.74-6.54,5.64V72c3.9-2.22,7.2-5,7.2-6.12,0-.3-1.38-.84,0-1.2,1.56-.42,3.78-1.08,5.1-1.38,1.8-.42.6,2.88-1.86,5.1a25.27,25.27,0,0,1-10.44,5.4v7.44c3.9-2.22,7.2-5,7.2-6.12,0-.3-1.38-.84,0-1.2,1.56-.42,3.78-1.08,5.1-1.38,1.8-.42.6,2.88-1.86,5.1a24.88,24.88,0,0,1-10.68,5.46c-1.62,5.52-10.26,6.48-13.56,6.48-1,0-.78-.42-.3-.54,3.66-1,8.88-4.68,8.88-7.86V60.85C672.18,55.21,678,52.45,686.64,52.45Zm-14.46,27h0Z"/><path d="M718,52.45A16.7,16.7,0,0,1,730.2,58c.24.24.06.36-.12.48a15.76,15.76,0,0,0-4,4c-.24.36-.42.48-.6.06-1.14-2.52-4.56-7.44-10.26-7.44-2.82,0-6.54,1.74-6.54,5.64V72c3.9-2.22,7.2-5,7.2-6.12,0-.3-1.38-.84,0-1.2,1.56-.42,3.78-1.08,5.1-1.38,1.8-.42.6,2.88-1.86,5.1a25.27,25.27,0,0,1-10.44,5.4v7.38c0,7.2-10.14,8.4-13.8,8.4-1,0-.78-.42-.3-.54,3.66-1,8.88-4.68,8.88-7.86V60.85C703.5,55.21,709.32,52.45,718,52.45Zm-14.46,27h0Z"/><path d="M751.56,58.57V74.29s5.28-4.74,7.2-4.74c2.7,0,7,1.44,7,6.54,0,3.9-5.16,9.24-8.82,9.24a9.07,9.07,0,0,1-5.94-2.1l-2.76,1.5c-.18.12-1.38.9-1.56,1.08-.48.42-.54.42-.48.12a15,15,0,0,0,.12-2V77.17c0-6.66-7.5-6.36-12.48-1.92-1.14,1-.9,0-.48-.54,3.78-5.34,9.06-6.18,13-5.16v-.36c0-6.66-7.5-6.36-12.48-1.92-1.14,1-.9,0-.48-.54,3.78-5.34,9.06-6.18,13-5.16v-.12c0-6.66-7.5-6.36-12.48-1.92-1.14,1-.9,0-.48-.54C740,49.51,751.56,54.13,751.56,58.57Zm6.24,24.9c1.8,0,3.06-1.32,3.06-3.54,0-6.3-3.9-7.32-4.86-6.6l-4.44,3.18V77C751.56,79.93,756.72,83.47,757.8,83.47Z"/><path d="M788,57.61a14.42,14.42,0,0,0-2.22-.18c-.54,0-.54-.3-.3-.42a58.27,58.27,0,0,0,7.5-4.14c1.32-.78,2.16,1,2.16,2.46V76a105,105,0,0,1,11.94-9.36c4-2.7,5.33-5.22,4-7.74a5.26,5.26,0,0,0-4.32-3.12c-1.5,0-4.32,1.68-4.74,1.68s-.36-.24-.12-.36c2.58-1.38,5.7-3.3,7.74-4.56,1.44-.9,5.4.3,7.38,4.14,2.87,5.58-6.9,10.5-11.28,13.62-6.12,4.38-9.54,8-10,12.36-.06.42-.24.42-.54.54a22.07,22.07,0,0,0-7.26,4.26c-.3.24-.3,0-.3-.42,0-1.62.9-3.48,2.28-5.4V60C789.9,58.51,789.48,57.91,788,57.61Z"/><path d="M820.8,65.59a14.42,14.42,0,0,0-2.22-.18c-.54,0-.54-.3-.3-.42a58.27,58.27,0,0,0,7.5-4.14c1.32-.78,2.16,1,2.16,2.46v3.06c2.46-2.64,5.76-5.28,10.14-5.28,3.12,0,5.7,1.2,6.6,2.28a28.53,28.53,0,0,0-3.36,3.3A8.92,8.92,0,0,0,835,64.45c-2.94,0-4.62,1.8-7,4.2v5.64c2.94-1.62,7.38-4.56,9.24-4.56,4,0,7.5,2.58,7.5,7,0,4.86-6.06,6.72-9.84,6.72-3.18,0-5.52-1.86-6.9-2.46v.48c0,4.26-8.7,12.06-9.9,12.66-.36.18-.66,0-.3-.36,1.08-1,5-7.68,5-11.52V67.93C822.72,66.49,822.3,65.89,820.8,65.59Zm15.66,15.54c2.4,0,2.94-.18,2.94-2.88,0-3.3-2.82-5.52-4.74-5.52-1.68,0-4.08,2.16-6.18,3.12C830.58,78.37,833.88,81.13,836.46,81.13Z"/><path d="M848.58,57.61a14.42,14.42,0,0,0-2.22-.18c-.54,0-.54-.3-.3-.42a58.27,58.27,0,0,0,7.5-4.14c1.32-.78,2.16,1,2.16,2.46v28h2.22c.72,0,5.52-.18,6.3-.3,2-.36,2.28-.3,1.62.18-.42.3-2.7,2.58-3.54,3.36l-.12.12H850.5V60C850.5,58.51,850.08,57.91,848.58,57.61Z"/><path d="M868.26,76.69V64.51c0-2,1.56-3.48,5.46-3.48,2.34,0,4.08,1.38,5.76,4,.66-1.26,2.22-4,5.58-4,3.06,0,4.14.9,8.16,7.2,3.66,5.64,6.78,12.42,9,12.42,1.68,0,2.64-1.8,3.24-2.34.36-.36.78,0,.6.36-.54.9-3.06,4.92-5.58,4.92-3.06,0-4.56-1-6.6-4.14-.66,1.26-2,4.14-5.4,4.14-2.64,0-4.74-1.8-6.48-4.26-1.08,1.8-2,4.26-6.54,4.26C871.08,83.59,868.26,80.71,868.26,76.69Zm9.12,3.9a6.87,6.87,0,0,0,4.14-1.92,60.52,60.52,0,0,1-3.6-6.3c-1.56-2.94-2.7-8.76-4.32-8.76a1.66,1.66,0,0,0-.54.06V76C873.06,79,874.38,80.59,877.38,80.59Zm5-10.62c2.16,3.9,6.12,10.68,8.46,10.68,1,0,1.92-1.2,2.52-1.86-1.2-1.86-2.58-4.32-4.56-7.62C885.78,65.83,884.4,64,882.6,64c-1.14,0-1.86,1.44-2.46,2C880.86,67.15,881.58,68.47,882.42,70Z"/><path d="M925.92,77.29c0-2.7-1.8-4.26-4.86-4.26-1.92,0-5.22,2.7-6.9,3.78v4.32l-3.3,1.8c-.18.12-1.38.9-1.56,1.08-.48.42-.54.42-.48.12a15,15,0,0,0,.12-2V68.65c0-2.34,6.3-7.74,11.4-7.74s8.88,2,10.56,3.6c.66.66.48.66.24.84a15.66,15.66,0,0,0-2.58,2.7c-.36.6-.48.72-.78.18-1.38-2-3.42-4.8-7.8-4.8-3.72,0-5.82,2.46-5.82,3.54v7.62c2.16-.9,6.18-4,9.42-4,4.68,0,7.92,1.68,7.92,5.94,0,4.62-6.66,6.78-10.8,7.62-.48.12-.72-.06-.36-.24C922.32,82.93,925.92,81,925.92,77.29Z"/><path d="M208.08,113.17c6.24,0,11,2.16,11,4.62v25.14l-3.3,1.8c-.18.12-1.38.9-1.56,1.08-.48.42-.54.42-.48.12a15,15,0,0,0,.12-2v-22.5c0-3.66-4.92-5.16-8-5.16s-7.56,1.44-11.46,4.5c-.54.42-1.08,0-.72-.54C195,118.21,199.14,113.17,208.08,113.17Z"/><path d="M225.06,117.55a14.42,14.42,0,0,0-2.22-.18c-.54,0-.54-.3-.3-.42a58.27,58.27,0,0,0,7.5-4.14c1.32-.78,2.16,1,2.16,2.46v16.5a19.28,19.28,0,0,0,5.22-2.1c3-1.56,4-3.36,4.26-4.68s-.9-1.92-1.44-2.28c-.36-.18-.42-.54.24-.54a21.9,21.9,0,0,0,5.58-.72c.6-.12.72.06.72,1.14,0,4.2-2.7,4.92-6.06,6.9,5.7.24,9.66,2.1,9.66,6.42,0,4.92-7.2,9.06-11.82,10.5-.6.18-.72-.06-.3-.36,2.64-1.68,6.3-5.4,6.3-9,0-2.22-1.38-5.4-7-5.76-2.28,1.26-4.26,2.16-5.4,2.76v8.82l-3.3,1.8c-.18.12-1.38.9-1.56,1.08-.48.42-.54.42-.48.12a15,15,0,0,0,.12-2v-24C227,118.45,226.56,117.85,225.06,117.55Z"/><path d="M265.26,121.09c8.16,0,12.24,5.34,12.24,10.68,0,8.28-9.78,11.58-14.64,11.94-.72.06-.6-.42,0-.66,4.74-2,8-4,8.46-8.82h-7.44c-.72,0-5.52.18-6.3.3-2,.36-2.28.3-1.62-.18.42-.3,2.7-2.58,3.54-3.36l.12-.12h11.64c-.72-5.52-4-7.86-7.14-7.86-4.32,0-7.08,2.7-7.08,4.68,0,.48-.12.66-.3.72a11.25,11.25,0,0,0-3.72,1.92c-.3.24-.72.48-.48-.24C253.2,128.29,256.38,121.09,265.26,121.09Z"/><path d="M297.9,117.55a14.42,14.42,0,0,0-2.22-.18c-.54,0-.54-.3-.3-.42a58.27,58.27,0,0,0,7.5-4.14c1.32-.78,2.16,1,2.16,2.46V127a38.23,38.23,0,0,0,8.88-5.22c3.66-3.36,3.42-4.8,3.24-5.52-.3-1-2.1-1.08-2.46-1.38s1.26-.54,2.46-.78a22,22,0,0,1,4.38-.6,2.17,2.17,0,0,1,2.16,2c0,2.7-3.06,4.32-6.66,6.48,6.9.36,10,3.78,10,8.82,0,6.84-6.84,11.28-14.22,15.42-.72.42-.84-.06-.36-.42,2.88-2.4,7.62-8.16,7.62-13.26,0-2.52-.36-7.32-7.62-7.8-2.64,1.5-5.94,3.06-7.44,4.56v13.5l-3.3,1.8c-.18.12-1.38.9-1.56,1.08-.48.42-.54.42-.48.12a15,15,0,0,0,.12-2v-24C299.82,118.45,299.4,117.85,297.9,117.55Z"/><path d="M331.8,140.17c-4.5-5.82-1.68-11.76,1.68-15.3,3.54-4,8.1-5.58,13.62-2.58,4.86,2.7,7.38,9.54,2.22,16.32C343.62,146.11,334.92,144.25,331.8,140.17Zm3.9-3.66c2.64,3.42,8.7,5,10.8,3,3.54-3.48,1-10.56-2.16-13.08-3.48-2.64-7.5-2.94-9.3-1.08C332.58,127.93,333.48,133.63,335.7,136.51Z"/><path d="M356,117.61a14.42,14.42,0,0,0-2.22-.18c-.54,0-.54-.3-.3-.42a58.27,58.27,0,0,0,7.5-4.14c1.32-.78,2.16,1,2.16,2.46v28h2.22c.72,0,5.52-.18,6.3-.3,2-.36,2.28-.3,1.62.18-.42.3-2.7,2.58-3.54,3.36l-.12.12H358V120C358,118.51,357.54,117.91,356,117.61Z"/><path d="M378.66,140.17c-4.5-5.82-1.68-11.76,1.68-15.3,3.54-4,8.1-5.58,13.62-2.58,4.86,2.7,7.38,9.54,2.22,16.32C390.48,146.11,381.78,144.25,378.66,140.17Zm3.9-3.66c2.64,3.42,8.7,5,10.8,3,3.54-3.48,1-10.56-2.16-13.08-3.48-2.64-7.5-2.94-9.3-1.08C379.44,127.93,380.34,133.63,382.56,136.51Z"/><path d="M425.16,141l-3.3,1.8c-.18.12-1.38.9-1.56,1.08-.48.42-.54.42-.48.12a15,15,0,0,0,.12-2V124c-5.76,1.08-12.12,5.52-12.12,14.82,0,9.72,9.84,14.46,12.12,15.84.54.36.84,1-.12.84-4.2-.78-17.82-3.78-17.82-14.94,0-13,16.68-19.8,23.16-19.8Z"/><path d="M431.16,117.55a14.42,14.42,0,0,0-2.22-.18c-.54,0-.54-.3-.3-.42a58.27,58.27,0,0,0,7.5-4.14c1.32-.78,2.16,1,2.16,2.46v16.5a19.28,19.28,0,0,0,5.22-2.1c3-1.56,4-3.36,4.26-4.68s-.9-1.92-1.44-2.28c-.36-.18-.42-.54.24-.54a21.9,21.9,0,0,0,5.58-.72c.6-.12.72.06.72,1.14,0,4.2-2.7,4.92-6.06,6.9,5.7.24,9.66,2.1,9.66,6.42,0,4.92-7.2,9.06-11.82,10.5-.6.18-.72-.06-.3-.36,2.64-1.68,6.3-5.4,6.3-9,0-2.22-1.38-5.4-7-5.76-2.28,1.26-4.26,2.16-5.4,2.76v8.82l-3.3,1.8c-.18.12-1.38.9-1.56,1.08-.48.42-.54.42-.48.12a15,15,0,0,0,.12-2v-24C433.08,118.45,432.66,117.85,431.16,117.55Z"/><path d="M462.12,125.59a14.42,14.42,0,0,0-2.22-.18c-.54,0-.54-.3-.3-.42a58.27,58.27,0,0,0,7.5-4.14c1.32-.78,2.16,1,2.16,2.46v3.06c2.46-2.64,5.76-5.28,10.14-5.28,3.12,0,5.7,1.2,6.6,2.28a28.53,28.53,0,0,0-3.36,3.3,8.92,8.92,0,0,0-6.36-2.22c-2.94,0-4.62,1.8-7,4.2v5.64c2.94-1.62,7.38-4.56,9.24-4.56,4,0,7.5,2.58,7.5,7,0,4.86-6.06,6.72-9.84,6.72-3.18,0-5.52-1.86-6.9-2.46v.48c0,4.26-8.7,12.06-9.9,12.66-.36.18-.66,0-.3-.36,1.08-1,5-7.68,5-11.52V127.93C464,126.49,463.62,125.89,462.12,125.59Zm15.66,15.54c2.4,0,2.94-.18,2.94-2.88,0-3.3-2.82-5.52-4.74-5.52-1.68,0-4.08,2.16-6.18,3.12C471.9,138.37,475.2,141.13,477.78,141.13Z"/><path d="M490.8,125.77a14.42,14.42,0,0,0-2.22-.18c-.54,0-.54-.3-.3-.42a58.27,58.27,0,0,0,7.5-4.14c1.32-.78,2.16,1,2.16,2.46v2.34c2.4-2.7,6.9-5,9.54-5,2.88,0,7.62,2.7,7.62,7,0,3.3-2.7,5.82-6.06,6.78v10.92c0,5.4,1.5,7.38,4,7.38a6.27,6.27,0,0,0,4.62-2.46c.3-.36.66.06.48.48-.9,1.92-3.9,5-6.78,5-4.74,0-7.5-3.06-7.5-9.12v-12a5.62,5.62,0,0,1-1-.24c-.78-.24-1-.78,0-1,1.32-.24,6.12-.54,6.12-5,0-2.76-1.68-5.16-4.74-5.16-2,0-5,2.52-6.3,4.14V141l-3.3,1.8c-.18.12-1.38.9-1.56,1.08-.48.42-.54.42-.48.12a15,15,0,0,0,.12-2V128.11C492.72,126.67,492.3,126.07,490.8,125.77Z"/><path d="M532.26,121c5.76,0,9.42,2.52,9.42,5v25.68l-3.3,1.8c-.18.12-1.38.9-1.56,1.08-.48.42-.54.42-.48.12a15,15,0,0,0,.12-2V128.65c0-2.64-2.82-4.5-6.78-4.5-2.58,0-6.48,1.38-10.5,4.5-.6.48-1.32.06-.9-.48A16.16,16.16,0,0,1,532.26,121Z"/><path d="M564.18,137.29c0-2.7-1.8-4.26-4.86-4.26-1.92,0-5.22,2.7-6.9,3.78v4.32l-3.3,1.8c-.18.12-1.38.9-1.56,1.08-.48.42-.54.42-.48.12a15,15,0,0,0,.12-2v-13.5c0-2.34,6.3-7.74,11.4-7.74s8.88,2,10.56,3.6c.66.66.48.66.24.84a15.66,15.66,0,0,0-2.58,2.7c-.36.6-.48.72-.78.18-1.38-2-3.42-4.8-7.8-4.8-3.72,0-5.82,2.46-5.82,3.54v7.62c2.16-.9,6.18-4,9.42-4,4.68,0,7.92,1.68,7.92,5.94,0,4.62-6.66,6.78-10.8,7.62-.48.12-.72-.06-.36-.24C560.58,142.93,564.18,141,564.18,137.29Z"/><path d="M609.66,128.83c2-.36,2.28-.3,1.62.18-.42.3-2.7,2.58-3.54,3.36l-.12.12H596.28c-.72,0-5.52.18-6.3.3-2,.36-2.28.3-1.62-.18.42-.3,2.7-2.58,3.54-3.36l.12-.12h11.34C604.08,129.13,608.88,129,609.66,128.83Z"/><path class="cls-1" d="M629.88,145.75h0ZM650.16,134c7.56-3.12,6.3-13.56-.36-13.62-2.82,0-4.74,2-7.14,5.7l-12.72,19.68h19.38l.12-.12c.84-.78,3.12-3.06,3.54-3.36.66-.48.42-.54-1.62-.18-.78.12-5.58.3-6.3.3H634.38l9.48-14.7c2-3.18,2.7-3.72,4-3.72,3.84,0,4.5,6.06,2.16,9.48C649.62,134.05,650,134.05,650.16,134Z"/><path class="cls-2" d="M676.5,120.73c5.52,0,9.6,3.78,10.86,5.34.24.3-.3.6-.48.78a20.91,20.91,0,0,0-3.12,3.36c-.18.24-.36.3-.54,0-1.2-2.4-4.68-7.56-8.52-7.56-3.54,0-5.52,2.88-5.52,6.78v8c3-1.68,5.28-3.9,5.28-4.8,0-.24-1-.66,0-.9,2-.42,3.18-.6,5-1,1.32-.3.48,2-1.26,3.78-2.16,2.16-5.94,3.48-9,4.08v4.38a9.91,9.91,0,0,1-.48,3.06c3.24-1.68,5.76-4.08,5.76-5,0-.24-1-.66,0-.9,2-.42,3.18-.6,5-1,1.32-.3.48,2-1.26,3.78-2.4,2.34-6.72,3.78-9.9,4.2-2.22,5.1-8.4,7.68-11.34,7.68-1,0-.78-.42-.3-.54a10.69,10.69,0,0,0,7.32-9.66v-15C664,124.51,669.18,120.73,676.5,120.73ZM664,141.85h0Z"/><path class="cls-2" d="M709.5,120.73c5.52,0,9.6,3.78,10.86,5.34.24.3-.3.6-.48.78a20.91,20.91,0,0,0-3.12,3.36c-.18.24-.36.3-.54,0-1.2-2.4-4.68-7.56-8.52-7.56-3.54,0-5.52,2.88-5.52,6.78v8c3-1.68,5.28-3.9,5.28-4.8,0-.24-1-.66,0-.9,2-.42,3.18-.6,5-1,1.32-.3.48,2-1.26,3.78-2.16,2.16-5.94,3.48-9,4.08v4.38c0,7.8-8.58,11.76-12.24,11.76-1,0-.78-.42-.3-.54a10.69,10.69,0,0,0,7.32-9.66v-15C697,124.51,702.18,120.73,709.5,120.73ZM697,141.85h0Z"/><path class="cls-3" d="M748.85,138.07c2.7,0,7,1.44,7,6.54,0,3.9-5.16,9.24-8.81,9.24a8.84,8.84,0,0,1-5.83-2l-2.88,1.56c-.17.12-1.38.9-1.55,1.08-.49.42-.54.42-.49.12a13.45,13.45,0,0,0,.12-2v-6.54c0-6.66-7.37-5.16-11.27-1.92-1.14,1-.9,0-.48-.54,4-5,8.4-6,11.75-5.22v-.78c0-6.66-7.37-5.16-11.27-1.92-1.14,1-.9,0-.48-.54,4-5,8.4-6,11.75-5.22v-1c0-6.66-7.37-5.16-11.27-1.92-1.14,1-.9,0-.48-.54,7.56-9.48,17-4.56,17-.42v16.74S746.93,138.07,748.85,138.07Zm-1,13.92c1.8,0,3.06-1.32,3.06-3.54,0-6.3-3.89-7.32-4.85-6.6L741.65,145v.48C741.65,148.45,746.81,152,747.89,152Z"/><path d="M778.07,117.61a14.42,14.42,0,0,0-2.22-.18c-.54,0-.54-.3-.29-.42a59.63,59.63,0,0,0,7.5-4.14c1.31-.78,2.15,1,2.15,2.46V136a105,105,0,0,1,11.94-9.36c4-2.7,5.34-5.22,4-7.74a5.25,5.25,0,0,0-4.32-3.12c-1.5,0-4.32,1.68-4.74,1.68s-.36-.24-.12-.36c2.58-1.38,5.7-3.3,7.74-4.56,1.44-.9,5.4.3,7.38,4.14,2.88,5.58-6.9,10.5-11.28,13.62-6.12,4.38-9.54,8-10,12.36-.06.42-.24.42-.54.54a22,22,0,0,0-7.25,4.26c-.3.24-.3,0-.3-.42a10,10,0,0,1,2.27-5.4V120C780,118.51,779.57,117.91,778.07,117.61Z"/><path d="M810.89,125.59a14.2,14.2,0,0,0-2.21-.18c-.54,0-.54-.3-.3-.42a58.27,58.27,0,0,0,7.5-4.14c1.31-.78,2.15,1,2.15,2.46v3.06c2.46-2.64,5.76-5.28,10.14-5.28,3.12,0,5.7,1.2,6.6,2.28a28.53,28.53,0,0,0-3.36,3.3,8.91,8.91,0,0,0-6.35-2.22c-2.95,0-4.63,1.8-7,4.2v5.64c2.94-1.62,7.38-4.56,9.24-4.56,4,0,7.5,2.58,7.5,7,0,4.86-6.06,6.72-9.84,6.72-3.17,0-5.51-1.86-6.9-2.46v.48c0,4.26-8.69,12.06-9.89,12.66-.36.18-.67,0-.3-.36,1.08-1,5-7.68,5-11.52V127.93C812.81,126.49,812.39,125.89,810.89,125.59Zm15.67,15.54c2.39,0,2.93-.18,2.93-2.88,0-3.3-2.82-5.52-4.74-5.52-1.68,0-4.07,2.16-6.18,3.12C820.68,138.37,824,141.13,826.56,141.13Z"/><path d="M838.68,117.61a14.42,14.42,0,0,0-2.22-.18c-.54,0-.54-.3-.3-.42a58.94,58.94,0,0,0,7.5-4.14c1.31-.78,2.15,1,2.15,2.46v28H848c.73,0,5.53-.18,6.3-.3,2-.36,2.28-.3,1.62.18-.42.3-2.69,2.58-3.54,3.36l-.11.12H840.6V120C840.6,118.51,840.18,117.91,838.68,117.61Z"/><path d="M858.36,136.69V124.51c0-2,1.56-3.48,5.46-3.48,2.34,0,4.08,1.38,5.76,4,.66-1.26,2.22-4,5.58-4,3.06,0,4.14.9,8.15,7.2,3.66,5.64,6.79,12.42,9,12.42,1.68,0,2.64-1.8,3.24-2.34.36-.36.78,0,.6.36-.54.9-3.06,4.92-5.58,4.92-3.05,0-4.55-1-6.6-4.14-.66,1.26-2,4.14-5.39,4.14-2.65,0-4.74-1.8-6.48-4.26-1.08,1.8-2,4.26-6.54,4.26C861.18,143.59,858.36,140.71,858.36,136.69Zm9.12,3.9a6.87,6.87,0,0,0,4.14-1.92,60.52,60.52,0,0,1-3.6-6.3c-1.56-2.94-2.7-8.76-4.32-8.76a1.66,1.66,0,0,0-.54.06V136C863.16,139,864.48,140.59,867.48,140.59Zm5-10.62c2.16,3.9,6.12,10.68,8.45,10.68,1,0,1.92-1.2,2.52-1.86-1.19-1.86-2.57-4.32-4.56-7.62-3-5.34-4.43-7.14-6.23-7.14-1.14,0-1.86,1.44-2.46,2C871,127.15,871.68,128.47,872.52,130Z"/><path d="M916,137.29c0-2.7-1.8-4.26-4.87-4.26-1.92,0-5.22,2.7-6.89,3.78v4.32l-3.3,1.8c-.18.12-1.38.9-1.56,1.08-.48.42-.54.42-.48.12a15,15,0,0,0,.12-2v-13.5c0-2.34,6.3-7.74,11.39-7.74s8.88,2,10.56,3.6c.66.66.48.66.24.84a15.66,15.66,0,0,0-2.58,2.7c-.36.6-.47.72-.78.18-1.38-2-3.42-4.8-7.79-4.8-3.73,0-5.82,2.46-5.82,3.54v7.62c2.16-.9,6.17-4,9.42-4,4.67,0,7.92,1.68,7.92,5.94,0,4.62-6.67,6.78-10.8,7.62-.49.12-.72-.06-.37-.24C912.42,142.93,916,141,916,137.29Z"/><path d="M397.8,249.14c-5.82-7.5-2.4-17,2.46-22,5.16-5.76,12.24-7.8,19.68-3.72,7.62,4.2,10.2,14.16,3.18,24.18S401.88,254.36,397.8,249.14Zm4.2-5.46c3.78-2.28,6.54-5,6.54-6.18,0-.3-1.38-.84,0-1.2,2.7-.54,4.32-.78,6.72-1.38,1.8-.42.66,2.76-1.68,5.1-2.58,2.52-6.78,4.26-10.5,5.16,4.68,5.7,13.5,6.3,16.38,3.48,5.76-5.64,2.88-15.42-2.7-19.74-4.74-3.66-12.3-4.08-14.88-1.32C398.22,231.5,399,238.76,402,243.68Z"/><path d="M448.86,221.3a16.7,16.7,0,0,1,12.24,5.58c.24.24.06.36-.12.48a15.76,15.76,0,0,0-4,4c-.24.36-.42.48-.6.06-1.14-2.52-4.56-7.44-10.26-7.44-2.82,0-6.54,1.74-6.54,5.64V250c0,7.2-10.14,8.4-13.8,8.4-1,0-.78-.42-.3-.54,3.66-1,8.88-4.68,8.88-7.86V229.7C434.4,224.06,440.22,221.3,448.86,221.3Zm-14.46,27h0Z"/><path d="M480.18,221.3a16.7,16.7,0,0,1,12.24,5.58c.24.24.06.36-.12.48a15.76,15.76,0,0,0-4,4c-.24.36-.42.48-.6.06-1.14-2.52-4.56-7.44-10.26-7.44-2.82,0-6.54,1.74-6.54,5.64V240.8c3.9-2.22,7.2-5,7.2-6.12,0-.3-1.38-.84,0-1.2,1.56-.42,3.78-1.08,5.1-1.38,1.8-.42.6,2.88-1.86,5.1a25.27,25.27,0,0,1-10.44,5.4V250c0,7.2-10.14,8.4-13.8,8.4-1,0-.78-.42-.3-.54,3.66-1,8.88-4.68,8.88-7.86V229.7C465.72,224.06,471.54,221.3,480.18,221.3Zm-14.46,27h0Z"/><path d="M511.5,221.3a16.7,16.7,0,0,1,12.24,5.58c.24.24.06.36-.12.48a15.76,15.76,0,0,0-4,4c-.24.36-.42.48-.6.06-1.14-2.52-4.56-7.44-10.26-7.44-2.82,0-6.54,1.74-6.54,5.64V240.8c3.9-2.22,7.2-5,7.2-6.12,0-.3-1.38-.84,0-1.2,1.56-.42,3.78-1.08,5.1-1.38,1.8-.42.6,2.88-1.86,5.1a25.27,25.27,0,0,1-10.44,5.4V250c3.9-2.22,7.2-5,7.2-6.12,0-.3-1.38-.84,0-1.2,1.56-.42,3.78-1.08,5.1-1.38,1.8-.42.6,2.88-1.86,5.1A24.88,24.88,0,0,1,502,251.9c-1.62,5.52-10.26,6.48-13.56,6.48-1,0-.78-.42-.3-.54,3.66-1,8.88-4.68,8.88-7.86V229.7C497,224.06,502.86,221.3,511.5,221.3ZM497,248.3h0Z"/><path d="M538.32,222.44c8.4,0,20.52,27.66,20.76,27.48a9.32,9.32,0,0,0-2.1,1.44c-1.2,1-1.26,1.44-2.4,2.52H536.34c-.72,0-5.52.18-6.3.3-2,.36-2.28.3-1.62-.18.42-.3,2.7-2.58,3.54-3.36l.12-.12H553c-3.72-7.44-13-24.84-17.1-24.84-2,0-4.26,3.42-4.26,5.34a3.88,3.88,0,0,0,2,3.78c.36.3-.18,1-.3,1.14a18.18,18.18,0,0,0-2.52,4.5c-.18.3-.3.54-.78.3-1-.42-2.28-3.3-2.28-5.1C527.76,228.14,533.82,222.44,538.32,222.44Z"/><path d="M579.06,222c6.24,0,11,2.16,11,4.62v22c0,5.82,4.74,6.9,7.2,7.44.42.12.3.42-.06.42-5.4,0-12.36-.66-12.36-8.94v-8.58c-8,4.38-12.12,7.74-13,11.64-.48,2.1,0,2.82,1.5,3.66.42.24.42.48,0,.48-1.8,0-5.28,1.32-6.66,1.86a3.49,3.49,0,0,1-2.1-3.48c0-4.8,7.32-9.36,20.28-16.5v-6.3c0-3.66-4.92-5.16-8-5.16s-7.56,1.44-11.46,4.5c-.54.42-1.08,0-.72-.54C566,227.06,570.12,222,579.06,222Zm5.76,24.54h0Z"/><path d="M624.78,250.22c2-.36,2.28-.3,1.62.18-.42.3-2.7,2.58-3.54,3.36l-.12.12H597.18l.06-.06h-.36l16.74-25.92c2.28-3.48,5-4.86,8.58-4.86,2.52,0,5.58,2.64,5.58,6.3,0,5.34-4,8.46-6.36,10.62-.3.24-.66.06-.18-.72,1.5-2.16,2.94-5.94,1-9.06a5.4,5.4,0,0,0-4.56-2.64c-.9,0-1.74.36-3.06,2.4l-13.26,20.58h17.16C619.2,250.52,624,250.34,624.78,250.22Z"/><path d="M650.52,227.42v15.72s5.28-4.74,7.2-4.74c2.7,0,7,1.44,7,6.54,0,3.9-5.16,9.24-8.82,9.24a9.07,9.07,0,0,1-5.94-2.1l-2.76,1.5c-.18.12-1.38.9-1.56,1.08-.48.42-.54.42-.48.12a15,15,0,0,0,.12-2V230.3c0-6.66-7.5-6.36-12.48-1.92-1.14,1-.9,0-.48-.54C639,218.36,650.52,223,650.52,227.42Zm6.24,24.9c1.8,0,3.06-1.32,3.06-3.54,0-6.3-3.9-7.32-4.86-6.6l-4.44,3.18v.48C650.52,248.78,655.68,252.32,656.76,252.32Z"/><path d="M683.28,227.42v15.72s5.28-4.74,7.2-4.74c2.7,0,7,1.44,7,6.54,0,3.9-5.16,9.24-8.82,9.24a9.07,9.07,0,0,1-5.94-2.1l-2.76,1.5c-.18.12-1.38.9-1.56,1.08-.48.42-.54.42-.48.12a15,15,0,0,0,.12-2V238c0-6.66-7.5-6.36-12.48-1.92-1.14,1-.9,0-.48-.54,3.78-5.34,9.06-6.18,13-5.16v-.12c0-6.66-7.5-6.36-12.48-1.92-1.14,1-.9,0-.48-.54C671.76,218.36,683.28,223,683.28,227.42Zm6.24,24.9c1.8,0,3.06-1.32,3.06-3.54,0-6.3-3.9-7.32-4.86-6.6l-4.44,3.18v.48C683.28,248.78,688.44,252.32,689.52,252.32Z"/><path d="M716,227.42v15.72s5.28-4.74,7.2-4.74c2.7,0,7,1.44,7,6.54,0,3.9-5.16,9.24-8.82,9.24a9.07,9.07,0,0,1-5.94-2.1l-2.76,1.5c-.18.12-1.38.9-1.56,1.08-.48.42-.54.42-.48.12a15,15,0,0,0,.12-2V246c0-6.66-7.5-6.36-12.48-1.92-1.14,1-.9,0-.48-.54,3.78-5.34,9.06-6.18,13-5.16V238c0-6.66-7.5-6.36-12.48-1.92-1.14,1-.9,0-.48-.54,3.78-5.34,9.06-6.18,13-5.16v-.12c0-6.66-7.5-6.36-12.48-1.92-1.14,1-.9,0-.48-.54C704.52,218.36,716,223,716,227.42Zm6.24,24.9c1.8,0,3.06-1.32,3.06-3.54,0-6.3-3.9-7.32-4.86-6.6L716,245.36v.48C716,248.78,721.2,252.32,722.28,252.32Z"/><path class="cls-4" d="M408.51,309c-4.5-5.82-1.68-11.76,1.68-15.3,3.54-4,8.1-5.58,13.62-2.58,4.86,2.7,7.38,9.54,2.22,16.32C420.33,315,411.63,313.1,408.51,309Zm3.6-4.08c2.46-1.56,4.2-3.36,4.2-4.14,0-.24-1-.66,0-.9,2-.42,3.18-.6,5-1,1.32-.3.48,2-1.26,3.78a16.18,16.18,0,0,1-6.84,3.54c2.88,2.82,8.1,4,10,2.16,3.54-3.48,1-10.56-2.16-13.08-3.48-2.64-7.5-2.94-9.3-1.08C409.41,296.66,410.13,301.94,412.11,304.94Z"/><path class="cls-5" d="M449.43,289.58c5.52,0,9.6,3.78,10.86,5.34.24.3-.3.6-.48.78a20.91,20.91,0,0,0-3.12,3.36c-.18.24-.36.3-.54,0-1.2-2.4-4.68-7.56-8.52-7.56-3.54,0-5.52,2.88-5.52,6.78v13.5c0,7.8-8.58,11.76-12.24,11.76-1,0-.78-.42-.3-.54a10.69,10.69,0,0,0,7.32-9.66v-15C436.89,293.36,442.11,289.58,449.43,289.58ZM436.89,310.7h0Z"/><path class="cls-5" d="M482.43,289.58c5.52,0,9.6,3.78,10.86,5.34.24.3-.3.6-.48.78a20.91,20.91,0,0,0-3.12,3.36c-.18.24-.36.3-.54,0-1.2-2.4-4.68-7.56-8.52-7.56-3.54,0-5.52,2.88-5.52,6.78v8c3-1.68,5.28-3.9,5.28-4.8,0-.24-1-.66,0-.9,2-.42,3.18-.6,5-1,1.32-.3.48,2-1.26,3.78-2.16,2.16-5.94,3.48-9,4.08v4.38c0,7.8-8.58,11.76-12.24,11.76-1,0-.78-.42-.3-.54a10.69,10.69,0,0,0,7.32-9.66v-15C469.89,293.36,475.11,289.58,482.43,289.58ZM469.89,310.7h0Z"/><path class="cls-5" d="M515.43,289.58c5.52,0,9.6,3.78,10.86,5.34.24.3-.3.6-.48.78a20.91,20.91,0,0,0-3.12,3.36c-.18.24-.36.3-.54,0-1.2-2.4-4.68-7.56-8.52-7.56-3.54,0-5.52,2.88-5.52,6.78v8c3-1.68,5.28-3.9,5.28-4.8,0-.24-1-.66,0-.9,2-.42,3.18-.6,5-1,1.32-.3.48,2-1.26,3.78-2.16,2.16-5.94,3.48-9,4.08v4.38a9.91,9.91,0,0,1-.48,3.06c3.24-1.68,5.76-4.08,5.76-5,0-.24-1-.66,0-.9,2-.42,3.18-.6,5-1,1.32-.3.48,2-1.26,3.78-2.4,2.34-6.72,3.78-9.9,4.2-2.22,5.1-8.4,7.68-11.34,7.68-1,0-.78-.42-.3-.54a10.69,10.69,0,0,0,7.32-9.66v-15C502.89,293.36,508.11,289.58,515.43,289.58ZM502.89,310.7h0Z"/><path class="cls-6" d="M538,289.58c6.54,0,15.6,18.12,17.46,21.66a10.73,10.73,0,0,0-2.22,1.26,22.37,22.37,0,0,0-2.46,2.1h-11.7c-.72,0-5.52.18-6.3.3-2,.36-2.28.3-1.62-.18.42-.3,2.7-2.58,3.54-3.36l.12-.12h14.94c-2-4.14-11-19.14-12.72-19.14-2.22,0-3.24,3.06-3.24,4.08a4.62,4.62,0,0,0,1,2.88c.24.42,0,.6-.24,1a14,14,0,0,0-1.86,3.42c-.12.24-.3.48-.66.24a5,5,0,0,1-1.8-4C530.25,294,534.93,289.58,538,289.58Z"/><path class="cls-7" d="M576.75,304.4c-5.76,3.12-10.38,6.24-11.34,10.44-.42,1.92,0,2.58,1.38,3.36.42.24.42.36,0,.42a34.24,34.24,0,0,0-5.64,1.74,3.17,3.17,0,0,1-1.92-3.24c0-3.72,6.3-8,17.52-14.28v-5.52c0-2.64-2.82-4.5-6.78-4.5-2.58,0-6.48,1.38-10.5,4.5-.6.48-1.32.06-.9-.48a16.16,16.16,0,0,1,14-7.14c5.76,0,9.42,2.52,9.42,5V312.2c0,5.82,4.74,6.9,7.2,7.44.42.12.3.42-.06.42-5.4,0-12.36-.66-12.36-8.94V304.4Zm0,4.68h0Z"/><path class="cls-8" d="M592.11,314.6h0Zm20.28-11.76c7.55-3.12,6.29-13.56-.37-13.62-2.81,0-4.73,2-7.13,5.7L592.17,314.6h19.38l.12-.12c.84-.78,3.12-3.06,3.54-3.36.65-.48.42-.54-1.62-.18-.78.12-5.58.3-6.3.3H596.61l9.48-14.7c2-3.18,2.7-3.72,4-3.72,3.84,0,4.5,6.06,2.17,9.48C611.85,302.9,612.21,302.9,612.39,302.84Z"/><path class="cls-9" d="M640.28,294.92v16.74s5.28-4.74,7.2-4.74c2.7,0,7,1.44,7,6.54,0,3.9-5.16,9.24-8.82,9.24a8.82,8.82,0,0,1-5.82-2L637,322.22c-.18.12-1.38.9-1.56,1.08-.48.42-.54.42-.48.12a15,15,0,0,0,.12-2V297.8c0-6.66-7.38-5.16-11.28-1.92-1.14,1-.9,0-.47-.54C630.86,285.86,640.28,290.78,640.28,294.92Zm6.24,25.92c1.8,0,3.06-1.32,3.06-3.54,0-6.3-3.9-7.32-4.86-6.6l-4.44,3.18v.48C640.28,317.3,645.44,320.84,646.52,320.84Z"/><path class="cls-9" d="M679.64,306.92c2.7,0,7,1.44,7,6.54,0,3.9-5.16,9.24-8.82,9.24a8.82,8.82,0,0,1-5.82-2l-2.88,1.56c-.18.12-1.38.9-1.56,1.08-.48.42-.54.42-.48.12a15,15,0,0,0,.12-2v-15c0-6.66-7.38-5.16-11.28-1.92-1.13,1-.9,0-.47-.54,3.95-5,8.39-6,11.75-5.22v-1c0-6.66-7.38-5.16-11.28-1.92-1.13,1-.9,0-.47-.54,7.55-9.48,17-4.56,17-.42v16.74S677.72,306.92,679.64,306.92Zm-1,13.92c1.8,0,3.06-1.32,3.06-3.54,0-6.3-3.9-7.32-4.86-6.6l-4.44,3.18v.48C672.44,317.3,677.6,320.84,678.68,320.84Z"/><path class="cls-9" d="M711.8,306.92c2.7,0,7,1.44,7,6.54,0,3.9-5.16,9.24-8.82,9.24a8.82,8.82,0,0,1-5.82-2l-2.88,1.56c-.18.12-1.38.9-1.56,1.08-.48.42-.54.42-.48.12a15,15,0,0,0,.12-2V314.9c0-6.66-7.38-5.16-11.28-1.92-1.14,1-.9,0-.48-.54,4-5,8.4-6,11.76-5.22v-.78c0-6.66-7.38-5.16-11.28-1.92-1.14,1-.9,0-.48-.54,4-5,8.4-6,11.76-5.22v-1c0-6.66-7.38-5.16-11.28-1.92-1.14,1-.9,0-.48-.54,7.56-9.48,17-4.56,17-.42v16.74S709.88,306.92,711.8,306.92Zm-1,13.92c1.8,0,3.06-1.32,3.06-3.54,0-6.3-3.9-7.32-4.86-6.6l-4.44,3.18v.48C704.6,317.3,709.76,320.84,710.84,320.84Z"/></svg>