<?xml version="1.0" encoding="utf-8"?>
<!-- Generator: Adobe Illustrator 25.4.1, SVG Export Plug-In . SVG Version: 6.00 Build 0)  -->
<svg version="1.1" id="图层_4" xmlns="http://www.w3.org/2000/svg" xmlns:xlink="http://www.w3.org/1999/xlink" x="0px" y="0px"
	 viewBox="0 0 1125 150" style="enable-background:new 0 0 1125 150;" xml:space="preserve">
<style type="text/css">
	.st0{fill:url(#SVGID_1_);}
	.st1{fill:url(#SVGID_00000067926637669516058810000015966499389754156455_);}
	.st2{fill:url(#SVGID_00000145769843963288642050000010569878203604352175_);}
	.st3{fill:url(#SVGID_00000121991032894528118390000013214686867542857623_);}
	.st4{fill:url(#SVGID_00000132078476307912070260000003609681801982851247_);}
	.st5{fill:url(#SVGID_00000063630794627841458620000010057614247092240792_);}
	.st6{fill:url(#SVGID_00000019675417816809249490000008301757364185563040_);}
	.st7{fill:url(#SVGID_00000164505622660936460140000013197877938762721717_);}
	.st8{fill:url(#SVGID_00000143610049919323429480000018421970691799434132_);}
	.st9{fill:url(#SVGID_00000121242179664065740040000003468769770354787508_);}
	.st10{fill:url(#SVGID_00000052089071414453376470000016568297768628586394_);}
	.st11{fill:url(#SVGID_00000077323946010954034380000006684323647999861681_);}
	.st12{fill:url(#SVGID_00000010288238212916778820000010268427741024566709_);}
	.st13{fill:url(#SVGID_00000135685355699758716660000013213847250037337991_);}
	.st14{fill:url(#SVGID_00000024687907407336750720000015026171314354794898_);}
	.st15{fill:url(#SVGID_00000022555335694825406890000014851728647773069455_);}
	.st16{fill:url(#SVGID_00000105384848097053531940000006825600970464743043_);}
	.st17{fill:url(#SVGID_00000183238802745868445460000013061027501144775358_);}
	.st18{fill:url(#SVGID_00000109018933817064740110000004769942760998587828_);}
	.st19{fill:url(#SVGID_00000009591030397808433480000000333993051260538526_);}
	.st20{fill:url(#SVGID_00000051341668169953494760000000096967559561994167_);}
	.st21{fill:url(#SVGID_00000083810009875710172130000015142421066891146424_);}
	.st22{fill:url(#SVGID_00000030458511506365590170000014702425010040683656_);}
	.st23{fill:url(#SVGID_00000119814650213886864000000004745012882749417893_);}
	.st24{fill:url(#SVGID_00000025431632290107368300000016035038374624040099_);}
	.st25{fill:url(#SVGID_00000024695029742922848900000012251548395915138958_);}
	.st26{fill:url(#SVGID_00000183223490894874289360000011556899095991427214_);}
	.st27{fill:url(#SVGID_00000045583792686446663500000008462995935520976041_);}
	.st28{fill:url(#SVGID_00000160879144895587848260000013045714357720647091_);}
	.st29{fill:url(#SVGID_00000102508639729370729330000014493479346239593135_);}
	.st30{fill:url(#SVGID_00000028296047022503882880000002297005003253774994_);}
	.st31{fill:url(#SVGID_00000026127516017438502880000003659471297772041356_);}
	.st32{fill:url(#SVGID_00000106135751600413148880000005386914885894007428_);}
	.st33{fill:url(#SVGID_00000066484174136311646660000008582184976423492512_);}
	.st34{fill:url(#SVGID_00000081626321716161958600000004109987802799876003_);}
	.st35{fill:url(#SVGID_00000072280972300521331650000010451301877959526548_);}
	.st36{fill:url(#SVGID_00000110468422891020967530000007822299272242897819_);}
	.st37{fill:url(#SVGID_00000111192408116325595990000002928338151636350344_);}
	.st38{fill:url(#SVGID_00000164509501893197077710000004802013100064222611_);}
	.st39{fill:url(#SVGID_00000182507158134538744480000017638471046387290257_);}
	.st40{fill:url(#SVGID_00000004510217196688627810000013198006892679976595_);}
	.st41{fill:url(#SVGID_00000019650489609007883550000011262075291632579475_);}
	.st42{fill:url(#SVGID_00000124868884732425891270000017139305998389358727_);}
	.st43{fill:url(#SVGID_00000030473923091369565470000001424437018598104985_);}
	.st44{fill:url(#SVGID_00000100371796282283227430000014494084747200490893_);}
	.st45{fill:url(#SVGID_00000113317717502987142990000011237274180590878900_);}
	.st46{fill:url(#SVGID_00000031168656658040043620000010332738972652254612_);}
	.st47{fill:url(#SVGID_00000079481992260937818210000005064144207655789961_);}
	.st48{fill:url(#SVGID_00000034789215296188078020000015240565429170499211_);}
	.st49{fill:url(#SVGID_00000039098901283812810240000008371680652346568638_);}
	.st50{fill:url(#SVGID_00000092419949151590099390000016519855082529677453_);}
	.st51{fill:url(#SVGID_00000124843659757123917380000017534883723854114190_);}
	.st52{fill:url(#SVGID_00000015345744295200510250000009170383407627776935_);}
	.st53{fill:url(#SVGID_00000051381909418830338500000004756395578715340447_);}
	.st54{fill:url(#SVGID_00000083065673903689969050000005200652354927009964_);}
	.st55{fill:url(#SVGID_00000169531988161858639920000006885308636232371898_);}
	.st56{fill:url(#SVGID_00000016041071168929985990000011789494345784381608_);}
	.st57{fill:url(#SVGID_00000100352621080280958530000001914849012819286453_);}
	.st58{fill:url(#SVGID_00000003800563983863977600000015216473780717095613_);}
	.st59{fill:url(#SVGID_00000158740960192997339300000013087490089401987479_);}
	.st60{fill:url(#SVGID_00000129919067367598986710000013706685970710676911_);}
	.st61{fill:url(#SVGID_00000181050172183551157990000003952300814117216667_);}
	.st62{fill:url(#SVGID_00000125571144148570483030000009001847329802385815_);}
	.st63{fill:url(#SVGID_00000169523965011534631120000018265511785417874084_);}
	.st64{fill:url(#SVGID_00000105413468985687072560000007391619657867736241_);}
	.st65{fill:url(#SVGID_00000061466941662036741670000012055127926312975494_);}
	.st66{fill:url(#SVGID_00000038395650969114003310000008969635872381692089_);}
	.st67{fill:url(#SVGID_00000167377635639314720510000005701948258341404596_);}
	.st68{fill:url(#SVGID_00000110441853920453429230000010854829781513756561_);}
	.st69{fill:url(#SVGID_00000179645438349704585020000000052401215463865785_);}
	.st70{fill:url(#SVGID_00000146468966807107788430000010048465823744121246_);}
	.st71{fill:url(#SVGID_00000145029798211737137730000004867566476077340818_);}
	.st72{fill:url(#SVGID_00000034082933274813451100000003376728552632765580_);}
	.st73{fill:url(#SVGID_00000127745720912685337940000008404354715147548571_);}
	.st74{fill:url(#SVGID_00000035521592293866680330000016353502785621044622_);}
	.st75{fill:url(#SVGID_00000074434378680333571000000017782059515667039398_);}
	.st76{fill:url(#SVGID_00000137105014702761849820000010072275044795866039_);}
	.st77{fill:url(#SVGID_00000089535923740848393250000008123663272225599113_);}
	.st78{fill:url(#SVGID_00000179620625246594084390000014649637123274819736_);}
	.st79{fill:url(#SVGID_00000020356736509277623840000002633291173272256932_);}
	.st80{fill:url(#SVGID_00000035503891840309202670000009036969049922310290_);}
	.st81{fill:url(#SVGID_00000083052906536440294840000008990571676651604665_);}
	.st82{fill:url(#SVGID_00000030459647863957190860000007751996998762251654_);}
	.st83{fill:url(#SVGID_00000114780593525333376120000006538666410619848380_);}
	.st84{fill:url(#SVGID_00000119801539767697837580000014093417715772396425_);}
	.st85{fill:url(#SVGID_00000127756615618829685510000012303703296291579798_);}
	.st86{fill:url(#SVGID_00000130617703999382912990000009331106725664721320_);}
	.st87{fill:url(#SVGID_00000165201874818046680680000017408883202052798854_);}
	.st88{fill:url(#SVGID_00000092430589122183040630000018127165957458775485_);}
	.st89{fill:url(#SVGID_00000150793546275930729450000005650877867129360010_);}
	.st90{fill:url(#SVGID_00000160908851843510278130000003979853836194527893_);}
	.st91{fill:url(#SVGID_00000085223208224841112140000004652839252617468314_);}
	.st92{fill:url(#SVGID_00000134938019224793418760000001340893365319166637_);}
	.st93{fill:url(#SVGID_00000049921589354629905180000008979685586907260291_);}
	.st94{fill:url(#SVGID_00000047757180232035500620000003096911578831479451_);}
	.st95{fill:url(#SVGID_00000067951253002643311690000000998560143934035079_);}
	.st96{fill:url(#SVGID_00000020364926940163817550000003656339066989593485_);}
	.st97{fill:url(#SVGID_00000183228939536046527610000001013061971312796586_);}
	.st98{fill:url(#SVGID_00000031182258343021942970000010415512227311876527_);}
	.st99{fill:url(#SVGID_00000086671078006127436150000008277476071213910933_);}
	.st100{fill:url(#SVGID_00000127756646274297663970000014295555568908516029_);}
	.st101{fill:url(#SVGID_00000024002938300305225810000016017039011659532941_);}
	.st102{fill:url(#SVGID_00000114037659325298891350000003379981693879472062_);}
	.st103{fill:url(#SVGID_00000168834510975528699160000015524986848303219387_);}
	.st104{fill:url(#SVGID_00000112609013757651089360000004996478917223434674_);}
	.st105{fill:url(#SVGID_00000107590307675682089990000016576876993517531792_);}
	.st106{fill:url(#SVGID_00000020361823364288051620000017374269598527426213_);}
	.st107{fill:url(#SVGID_00000033337971060383502300000016001994622972033924_);}
	.st108{fill:#FFFFFF;}
	.st109{fill:url(#SVGID_00000117653381857014744030000009283953763985140157_);}
	.st110{fill:url(#SVGID_00000157265847414924694920000001732562543859896493_);}
	.st111{fill:url(#SVGID_00000138538448006546256130000007424069707064009349_);}
	.st112{fill:url(#SVGID_00000076591601776512749920000005055614307148168867_);}
	.st113{fill:url(#SVGID_00000008859056378112239990000017849003921874653626_);}
	.st114{fill:url(#SVGID_00000066497263314350399730000000785499721880756365_);}
	.st115{fill:url(#SVGID_00000067915758475364494130000012138344904268521367_);}
	.st116{fill:url(#SVGID_00000047019663663874572280000008918884073201209255_);}
	.st117{fill:url(#SVGID_00000170980570337858172030000009666338675279748543_);}
	.st118{fill:url(#SVGID_00000073695473707743350840000000971876783970755218_);}
	.st119{fill:url(#SVGID_00000014596011023439630930000009321561198526871470_);}
	.st120{fill:url(#SVGID_00000159441289071450209910000014730927059281804170_);}
	.st121{fill:url(#SVGID_00000132082045495198298570000012564536094044966802_);}
	.st122{fill:url(#SVGID_00000017480808748441470920000006475311298206564274_);}
	.st123{fill:url(#SVGID_00000106141895368247107570000014357795897373983674_);}
	.st124{fill:url(#SVGID_00000104669143070959230670000013577820730094553230_);}
	.st125{fill:url(#SVGID_00000005231614240668041230000011359576452850390693_);}
	.st126{fill:url(#SVGID_00000119098782070115717730000003615723138859154859_);}
	.st127{fill:url(#SVGID_00000040565458450256155450000004729458919101288358_);}
	.st128{fill:url(#SVGID_00000091015552407891848440000017828681691435168643_);}
	.st129{fill:url(#SVGID_00000031209944158508626030000013024001996289162927_);}
	.st130{fill:url(#SVGID_00000038391443746488376910000001491841356680274092_);}
	.st131{fill:url(#SVGID_00000029736347537121804630000005692813791469837491_);}
	.st132{fill:url(#SVGID_00000010276757679837860870000000590133059056955010_);}
	.st133{fill:url(#SVGID_00000173119673620567257800000005112538833327008945_);}
	.st134{fill:url(#SVGID_00000026858959787388825720000001781883672985120670_);}
	.st135{fill:url(#SVGID_00000032624939207294231870000006540072803637243302_);}
	.st136{fill:url(#SVGID_00000176766240833269580110000002096259160871027111_);}
	.st137{fill:url(#SVGID_00000034785113011268020920000008969346991965272487_);}
	.st138{fill:url(#SVGID_00000114055562537855852880000000710579039540552621_);}
	.st139{fill:url(#SVGID_00000085213790868332447970000001586452991407106447_);}
	.st140{fill:url(#SVGID_00000013871435090259300620000015658320173237609395_);}
	.st141{fill:url(#SVGID_00000060712105047371563130000015144123970710765199_);}
	.st142{fill:url(#SVGID_00000178905390369204984250000010617925597625563560_);}
	.st143{fill:url(#SVGID_00000084523005571683289920000007115729788833032605_);}
	.st144{fill:url(#SVGID_00000178196711246251733750000011505719603217371576_);}
	.st145{fill:url(#SVGID_00000044895536563374778450000009978234302178883211_);}
	.st146{fill:url(#SVGID_00000015323866558392729530000011122550923307458737_);}
	.st147{fill:url(#SVGID_00000013905280837172886070000011867512600085366656_);}
	.st148{fill:url(#SVGID_00000003065857037476748210000010168016553787834758_);}
	.st149{fill:#1A1A1A;}
	.st150{fill:url(#SVGID_00000094612683676426132500000001375741849103159456_);}
	.st151{fill:url(#SVGID_00000078735380849152460530000010699071844075279010_);}
	.st152{fill:url(#SVGID_00000109752516737957808640000004410680007907125688_);}
	.st153{fill:url(#SVGID_00000034795110698823638300000013504727881300804501_);}
	.st154{fill:url(#SVGID_00000110438672422083928260000013400313738380543417_);}
	.st155{fill:url(#SVGID_00000143591046163253423910000005230264106957981841_);}
	.st156{fill:url(#SVGID_00000122690264701285597900000010399101484695200153_);}
	.st157{fill:url(#SVGID_00000175321577355595713900000008107901162446594980_);}
	.st158{fill:url(#SVGID_00000176044658183808327960000004875840280628549525_);}
	.st159{fill:url(#SVGID_00000107558186795926304530000014721680021039847094_);}
	.st160{fill:url(#SVGID_00000154422112498828501420000015617557250225800348_);}
	.st161{fill:url(#SVGID_00000115510769410533804600000003060240190914779038_);}
	.st162{fill:url(#SVGID_00000011008616746734136840000004841033373925980052_);}
	.st163{fill:url(#SVGID_00000079465770157813623570000005724496121597186203_);}
	.st164{fill:url(#SVGID_00000113354650228043889000000013589099361094442625_);}
	.st165{fill:url(#SVGID_00000045601458546013014120000012555923974461105068_);}
	.st166{fill:url(#SVGID_00000016069100880526030300000006174770848144821168_);}
	.st167{fill:url(#SVGID_00000011734108463015041300000008535663982463398285_);}
	.st168{fill:url(#SVGID_00000080181461386740707770000016967866948669235338_);}
	.st169{fill:url(#SVGID_00000004545361494263956170000008993319857584560051_);}
	.st170{fill:url(#SVGID_00000005250727263558684940000007213966522340477372_);}
	.st171{fill:url(#SVGID_00000114795090634353067940000016768443409969171855_);}
	.st172{fill:url(#SVGID_00000040570154803106392040000010073102890530428348_);}
	.st173{fill:url(#SVGID_00000039846681332282970680000000694802507731387292_);}
	.st174{fill:url(#SVGID_00000042016969244628572080000004861312476898642101_);}
	.st175{fill:url(#SVGID_00000010276554644786119650000008920109431540068778_);}
	.st176{fill:url(#SVGID_00000110432244046059017490000009252750060276745092_);}
	.st177{fill:url(#SVGID_00000163775108453469465400000005201196015123907235_);}
	.st178{fill:url(#SVGID_00000137103142797525759870000016793135440447390082_);}
	.st179{fill:url(#SVGID_00000034796930929505925000000013843647541506821787_);}
	.st180{fill:url(#SVGID_00000032623412677660746290000001768159926849917579_);}
	.st181{fill:url(#SVGID_00000165203314981023846270000004842657224035741069_);}
	.st182{fill:url(#SVGID_00000154389903717661047300000007750935705803864200_);}
	.st183{fill:url(#SVGID_00000070811744155213579630000002177863908230393022_);}
	.st184{fill:url(#SVGID_00000050631610176161371330000006016886137095147189_);}
	.st185{fill:url(#SVGID_00000059309055807006803320000001870796386989685943_);}
	.st186{fill:url(#SVGID_00000018943945504769720750000012130779977034486951_);}
	.st187{fill:url(#SVGID_00000142134071032784175930000011651073403878775190_);}
	.st188{fill:url(#SVGID_00000041985239047328344500000009072143427559662766_);}
	.st189{fill:url(#SVGID_00000123416788295241490650000012787843692205566623_);}
	.st190{fill:url(#SVGID_00000038414647623237066810000010414976396378008199_);}
	.st191{fill:url(#SVGID_00000062155716558242462900000012743045615372969863_);}
</style>
<g>
	<path class="st108" d="M481.92,43.92c3.54,2.4,6.3,5.64,7.92,7.5c0.66,0.78,0.78,0.96-0.18,0.96c-2.7,0-10.38-6.06-13.68-8.46
		c3.3-2.4,10.98-8.46,13.68-8.46c0.96,0,0.84,0.18,0.18,0.96C488.22,38.28,485.46,41.52,481.92,43.92z M491.82,43.92
		c3.54,2.4,6.3,5.64,7.92,7.5c0.66,0.78,0.78,0.96-0.18,0.96c-2.7,0-10.38-6.06-13.68-8.46c3.3-2.4,10.98-8.46,13.68-8.46
		c0.96,0,0.84,0.18,0.18,0.96C498.12,38.28,495.36,41.52,491.82,43.92z"/>
	<path class="st108" d="M519.12,37.02c-0.6-0.12-1.68-0.18-2.22-0.18c-0.54,0-0.54-0.3-0.3-0.42c2.76-1.14,4.74-2.52,7.5-4.14
		c1.32-0.78,2.16,0.96,2.16,2.46v3.06c2.46-2.64,5.76-5.28,10.14-5.28c3.12,0,5.7,1.2,6.6,2.28c-0.3,0.18-2.94,2.64-3.36,3.3
		c-1.2-1.2-3.36-2.22-6.36-2.22c-2.94,0-4.62,1.8-7.02,4.2v5.64c2.94-1.62,7.38-4.56,9.24-4.56c4.02,0,7.5,2.58,7.5,6.96
		c0,4.86-6.06,6.72-9.84,6.72c-3.18,0-5.52-3.6-6.9-5.04c0,5.94-6.66,13.14-11.22,13.14c-4.44,0-7.02-6.66-7.02-14.64
		c0-15.48,9.78-25.26,21.84-25.26c12.06,0,22.86,9.78,22.86,21.84s-10.74,21.78-22.8,21.84c-1.02,0-0.96-0.72,0.06-1.02
		c7.56-2.46,17.76-8.76,17.76-21.36c0-9.12-8.22-18.72-17.88-18.72S513,35.22,513,46.38c0,4.08,0.96,13.32,4.92,13.32
		c2.7,0,3.12-4.32,3.12-6.06V39.36C521.04,37.92,520.62,37.32,519.12,37.02z M534.78,52.56c2.4,0,2.94-0.18,2.94-2.88
		c0-3.3-2.82-5.52-4.74-5.52c-1.68,0-4.08,2.16-6.18,3.12C528.9,49.8,532.2,52.56,534.78,52.56z"/>
	<path class="st108" d="M561.54,28.8l1.32-3.72c0.24-0.6,1.98,1.5,3.42,2.58c0.24,0.18,0.48,0.3,0.66,0.42
		c0.24-0.06,0.48-0.24,0.72-0.42c-0.06,0.24-0.12,0.54-0.18,0.78c0.18,0.18,0.42,0.36,0.72,0.54c-0.3,0-0.6,0.06-0.84,0.12
		c-0.12,0.18-0.24,0.36-0.3,0.6l-0.24-0.48c-0.3-0.12-0.66-0.18-1.02-0.18c0.24-0.18,0.48-0.3,0.66-0.48c0-0.24-0.12-0.6-0.18-0.9
		c-0.54-1.74-1.92-4.08-1.26-4.08h3.96c0.66,0-0.78,2.34-1.32,4.08c1.44-1.02,3.24-3.18,3.48-2.58l1.32,3.66
		c0.18,0.66-2.46,0.18-4.26,0.24c1.5,0.96,4.08,1.92,3.6,2.34l-3,2.52c-0.54,0.42-1.02-2.52-1.74-4.14
		c-0.78,1.56-1.26,4.62-1.8,4.14l-3.06-2.52c-0.42-0.36,2.1-1.32,3.6-2.28C564,28.92,561.3,29.4,561.54,28.8z M566.64,28.38
		l0.36,0.3h-0.54v-0.12L566.64,28.38z M566.64,28.98l0.36-0.3l-0.18,0.54L566.64,28.98z M567.48,28.68H567l-0.18-0.54l0.12-0.06
		l0.24,0.12L567,28.68l0.42-0.36l0.06,0.12V28.68z M567.18,29.16L567,28.68l0.42,0.36l-0.06,0.06L567.18,29.16z"/>
	<path class="st108" d="M605.88,35.58c-0.96,0-1.98,0.12-3,0.3c1.44,1.56,2.22,3.6,2.22,5.88c0,8.34-10.08,13.5-15,13.5
		c-3.3,0-4.38-2.28-4.38-4.8c0-5.34,4.8-11.1,10.8-14.58c-1.32-1.08-3-1.44-4.62-1.44c-4.5,0-7.26,2.7-7.26,4.68
		c0,0.48-0.12,0.66-0.3,0.72c-1.74,0.6-2.76,1.14-3.72,1.92c-0.3,0.24-0.72,0.48-0.48-0.24c0.66-1.8,3.84-9,13.62-9
		c2.64,0,4.86,0.54,6.6,1.44c2.46-0.96,4.98-1.5,7.32-1.5c4.62,0,8.28,2.1,8.28,5.88v24.78l-3.3,1.8c-0.18,0.12-1.38,0.9-1.56,1.08
		c-0.48,0.42-0.54,0.42-0.48,0.12c0.06-0.18,0.12-1.38,0.12-1.98V41.1C610.74,36.54,608.94,35.58,605.88,35.58z M591.54,53.28
		c4.44,0,7.44-4.5,7.44-10.56c0-2.28-0.42-4.02-1.14-5.22c-5.46,2.46-10.02,7.08-10.02,11.88C587.82,51.72,588.9,53.28,591.54,53.28
		z"/>
	<path class="st108" d="M625.44,35.46c2.7,0,10.38,6.06,13.68,8.46c-3.3,2.4-10.98,8.46-13.68,8.46c-0.96,0-0.84-0.18-0.18-0.96
		c1.62-1.86,4.38-5.1,7.92-7.5c-3.54-2.4-6.3-5.64-7.92-7.5C624.6,35.64,624.48,35.46,625.44,35.46z M635.34,35.46
		c2.7,0,10.38,6.06,13.68,8.46c-3.3,2.4-10.98,8.46-13.68,8.46c-0.96,0-0.84-0.18-0.18-0.96c1.62-1.86,4.38-5.1,7.92-7.5
		c-3.54-2.4-6.3-5.64-7.92-7.5C634.5,35.64,634.38,35.46,635.34,35.46z"/>
	<path class="st108" d="M488.22,103.92c3.54,2.4,6.3,5.64,7.92,7.5c0.66,0.78,0.78,0.96-0.18,0.96c-2.7,0-10.38-6.06-13.68-8.46
		c3.3-2.4,10.98-8.46,13.68-8.46c0.96,0,0.84,0.18,0.18,0.96C494.52,98.28,491.76,101.52,488.22,103.92z M495.3,103.32
		c0-1.14,0.96-2.1,2.16-2.1c1.14,0,2.1,0.96,2.1,2.1c0,1.2-0.96,2.16-2.1,2.16C496.26,105.48,495.3,104.52,495.3,103.32z"/>
	<path class="st108" d="M535.08,95.04c4.5,0,9.84,4.98,9.84,10.2c0,5.58-6.06,9.6-9.84,9.6s-6.06-4.14-7.14-6.24
		c0,5.76-3.96,11.16-8.64,11.16c-4.08,0-8.7-4.14-8.7-11.94c0-11.22,10.56-22.08,24.84-22.08c12.6,0,19.02,7.86,19.02,19.62
		c0,22.5-23.52,21.6-24.84,21.6c-0.6,0-1.8-0.18-0.3-0.9c4.14-1.98,19.74-4.8,19.74-21.6c0-12.54-8.7-16.32-15.12-16.32
		c-7.26,0-17.94,5.58-17.94,19.56c0,6.24,1.38,8.82,3.54,8.82c2.7,0,3.42-4.14,3.42-9v-5.64c0-0.6-1.2-0.66-1.2-1.02
		C521.76,99.72,530.7,95.04,535.08,95.04z M528.06,103.74c0.06,3.06,5.34,8.82,8.64,8.82c2.04,0,2.94-2.28,2.94-5.76
		c0-7.14-3.3-8.76-7.74-8.76c-1.14,0-2.34,0.12-3.96,0.78L528.06,103.74z"/>
	<path class="st108" d="M563.34,89.94c-0.24-0.42,2.4-0.72,4.08-1.26l0.66-0.24l-0.12-0.66l0.54,0.42l0.54-0.42l-0.12,0.66
		l0.66,0.24l-0.66,0.24l0.12,0.66l-0.48-0.42l-0.54,0.42l0.12-0.66l-0.72-0.24c-1.68-0.54-4.32-0.78-4.08-1.2l1.5-2.64
		c0.24-0.48,1.86,1.8,3.12,2.94c-0.36-1.74-1.44-4.2-0.96-4.2h3c0.48,0-0.6,2.46-0.96,4.2c1.26-1.2,2.88-3.42,3.12-3l1.5,2.64
		c0.24,0.42-2.4,0.72-4.08,1.26c1.68,0.54,4.32,0.78,4.08,1.2l-1.5,2.64c-0.24,0.42-1.8-1.74-3.12-2.94c0.42,1.74,1.5,4.2,1.02,4.2
		H567c-0.48,0,0.6-2.46,1.02-4.2c-1.32,1.2-2.94,3.42-3.18,3L563.34,89.94z M568.32,89.04l-0.18-0.12v-0.24h-0.06v-0.24l0.24-0.12
		l0.18,0.36l-0.18-0.36l0.18-0.12l0.18,0.12l-0.18,0.36l0.24,0.36l-0.24-0.36l0.24-0.36l0.18,0.12v0.24v0.24l-0.18,0.12l-0.18,0.12
		L568.32,89.04z M568.32,89.04l0.18-0.36L568.32,89.04z"/>
	<path class="st108" d="M612.12,97.92c-0.36,1.56-2.4,4.2-2.88,4.2h-2.82c-0.3,3.54-2.04,6.96-4.98,9.42c3.96,2.64,7.86,4.5,9.9,4.5
		c1.2,0,1.5-0.66,2.04-1.14c0.42-0.42,0.66-0.42,0.24,0.36c-1.38,2.7-4.32,3.06-5.52,3.06c-2.64,0-6.48-1.8-10.32-4.44
		c-2.16,1.02-4.62,1.56-7.38,1.56c-6,0-9-2.7-9-5.94c0-3.06,2.76-5.94,4.62-6.78c-0.96-1.56-1.56-3-1.56-4.14
		c0-2.76,3.3-6.6,10.2-6.6c3.66,0,5.34,1.08,5.34,3.36c0,4.26-5.76,6.54-8.82,6.84c2.04,2.88,5.52,6,9.06,8.52
		c1.38-1.56,2.4-4.2,2.64-8.58h-3.3c-0.48,0,1.68-3.36,2.82-3.36h6.48C611.1,98.76,612.18,97.62,612.12,97.92z M593.58,113.04
		c0.84,0,1.74,0,2.7-0.18c-3.48-2.58-6.84-5.64-9.06-8.52c-0.54,0.6-1.02,1.8-1.02,2.82C586.2,110.46,591.06,113.04,593.58,113.04z
		 M590.4,100.98c3.12-0.12,5.34-2.4,5.34-4.92c0-1.98-1.32-2.16-2.28-2.16c-2.76,0-4.2,1.5-4.2,3.48
		C589.26,98.46,589.68,99.72,590.4,100.98z"/>
	<path class="st108" d="M622.68,103.32c0-1.14,0.96-2.1,2.1-2.1c1.2,0,2.16,0.96,2.16,2.1c0,1.2-0.96,2.16-2.16,2.16
		C623.64,105.48,622.68,104.52,622.68,103.32z M626.28,95.46c2.7,0,10.38,6.06,13.68,8.46c-3.3,2.4-10.98,8.46-13.68,8.46
		c-0.96,0-0.84-0.18-0.18-0.96c1.62-1.86,4.38-5.1,7.92-7.5c-3.54-2.4-6.3-5.64-7.92-7.5C625.44,95.64,625.32,95.46,626.28,95.46z"
		/>
</g>
<g>
	<g>
		<g>
			<g>
				<path class="st108" d="M600.72,64.7c-0.42,2.87,0.35,5.74,2.15,7.95l3.03,3.68h4.74c3.43,0,5.72-1.68,6.74-2.54
					c0.14-0.1,0.3-0.2,0.43-0.29l8.15-4.44v-6.7c1.49-0.06,2.96-0.37,4.54-0.99c1.3,0.61,2.9,1.01,4.84,1.01
					c4.85,0,9.27-2.71,17.99-9.21c0.59-0.44,1.13-0.84,1.58-1.17l11.11-8.09l-11.11-8.09c-0.45-0.33-0.99-0.73-1.58-1.17
					c-8.71-6.49-13.14-9.2-17.98-9.2c-1.94,0-3.54,0.41-4.84,1.01c-1.76-0.69-3.39-1.01-5.06-1.01c-2.07,0-3.75,0.46-5.1,1.14
					c-3.21-2.6-7.6-4.14-12.67-4.14c-2.32,0-4.69,0.31-7.08,0.93c-2.14-0.58-4.42-0.87-6.83-0.87c-4.66,0-8.62,1.08-11.9,2.81
					l-1.32-3.65l-0.11-0.3c-0.92-2.31-2.6-4.14-4.69-5.24c-1.83-1.64-4.23-2.57-6.76-2.57h-3.96c-2.53,0-4.92,0.93-6.76,2.56
					c-2.08,1.1-3.76,2.92-4.68,5.22l-0.07,0.19l-0.39,1.09c-6-5.89-14.28-9.6-23.26-9.6c-10.6,0-19.67,5.17-25.39,13.47
					c-1.31-0.63-2.93-1.05-4.91-1.05c-1.67,0-3.29,0.32-5.06,1.01c-1.3-0.61-2.9-1.01-4.84-1.01c-4.84,0-9.26,2.71-17.97,9.2
					c-0.6,0.45-1.14,0.85-1.59,1.18l-11.12,8.09l11.12,8.09c0.45,0.33,0.99,0.73,1.59,1.17c8.71,6.49,13.13,9.2,17.97,9.2
					c1.94,0,3.54-0.41,4.84-1.01c1.77,0.69,3.39,1.01,5.06,1.01c0.36,0,0.71-0.02,1.05-0.05c3.17,7.23,8.81,10.61,14.43,10.61
					c1.91,0,3.84-0.41,5.71-1.14c1.56,2.47,4.16,4.2,7.2,4.73c-9.31,1.96-17.34,7.47-22.25,14.84c-0.67-1.42-3.28-5.91-9.74-5.91
					c-4.84,0-9.26,2.71-17.97,9.2c-0.6,0.45-1.14,0.85-1.59,1.18l-11.12,8.09l11.12,8.09c0.45,0.33,0.99,0.73,1.59,1.17
					c8.71,6.49,13.13,9.2,17.97,9.2c3.54,0,5.91-1.34,7.46-2.79c3.46,6.43,9.61,10.09,15.67,10.17c1.22,3.71,4.81,7.2,10.56,7.2
					l0.62,0c15.78,0,34.2-8.28,34.2-31.6c0-0.53-0.01-1.06-0.03-1.58h5.63l2.44-0.02c-0.69,1.79-1.1,3.72-1.1,5.74
					c0,7.68,5.95,15.94,19,15.94c2.09,0,4.12-0.21,6.06-0.63c4.26,2.33,8.17,3.51,11.64,3.51c5.55,0,10.55-2.61,13.46-6.91
					c1.28,0.58,2.83,0.97,4.71,0.97c4.84,0,9.26-2.71,17.97-9.2c0.6-0.45,1.14-0.85,1.59-1.17l11.12-8.09l-11.12-8.09
					c-0.45-0.33-0.99-0.73-1.59-1.18c-8.71-6.48-13.13-9.2-17.97-9.2c-4.31,0-6.9,1.99-8.35,3.74l-1.1-1.33h-4.74
					c-1.64,0-2.95,0.39-3.88,0.77c-2.24-3.82-6.66-6.66-13.56-6.66c-4.33,0-8.05,1.01-11.09,2.64l-2.73-4.8
					c-0.96-1.68-2.37-3.02-4.03-3.9l-1.74-2.33H567l-5.15,0.04l-1.74,2.38c-1.66,0.9-3.05,2.27-4,3.98l-1.27,2.23
					c-4.49-3.79-10.4-6.05-17.38-6.41c14.28-3.45,25.26-16.23,25.26-30.92c0-0.45-0.02-0.91-0.04-1.36
					c0.87,0.24,1.78,0.37,2.69,0.37c0.54,0,1.11-0.04,1.69-0.13c0.56,0.08,1.1,0.12,1.62,0.12c0,0,0,0,0.01,0
					c0.52,0,1.05-0.05,1.56-0.13c0.27,1.45,0.84,2.84,1.73,4.07l3.08,4.18h0.72c0.68,7.77,6.49,13.26,14.31,13.26
					c3.28,0,7.05-0.95,10.64-2.72v1.59C600.74,64.29,600.73,64.51,600.72,64.7z"/>
			</g>
		</g>
	</g>
</g>
<g>
	<path class="st149" d="M481.92,43.92c3.54,2.4,6.3,5.64,7.92,7.5c0.66,0.78,0.78,0.96-0.18,0.96c-2.7,0-10.38-6.06-13.68-8.46
		c3.3-2.4,10.98-8.46,13.68-8.46c0.96,0,0.84,0.18,0.18,0.96C488.22,38.28,485.46,41.52,481.92,43.92z M491.82,43.92
		c3.54,2.4,6.3,5.64,7.92,7.5c0.66,0.78,0.78,0.96-0.18,0.96c-2.7,0-10.38-6.06-13.68-8.46c3.3-2.4,10.98-8.46,13.68-8.46
		c0.96,0,0.84,0.18,0.18,0.96C498.12,38.28,495.36,41.52,491.82,43.92z"/>
	<path class="st149" d="M519.12,37.02c-0.6-0.12-1.68-0.18-2.22-0.18c-0.54,0-0.54-0.3-0.3-0.42c2.76-1.14,4.74-2.52,7.5-4.14
		c1.32-0.78,2.16,0.96,2.16,2.46v3.06c2.46-2.64,5.76-5.28,10.14-5.28c3.12,0,5.7,1.2,6.6,2.28c-0.3,0.18-2.94,2.64-3.36,3.3
		c-1.2-1.2-3.36-2.22-6.36-2.22c-2.94,0-4.62,1.8-7.02,4.2v5.64c2.94-1.62,7.38-4.56,9.24-4.56c4.02,0,7.5,2.58,7.5,6.96
		c0,4.86-6.06,6.72-9.84,6.72c-3.18,0-5.52-3.6-6.9-5.04c0,5.94-6.66,13.14-11.22,13.14c-4.44,0-7.02-6.66-7.02-14.64
		c0-15.48,9.78-25.26,21.84-25.26c12.06,0,22.86,9.78,22.86,21.84s-10.74,21.78-22.8,21.84c-1.02,0-0.96-0.72,0.06-1.02
		c7.56-2.46,17.76-8.76,17.76-21.36c0-9.12-8.22-18.72-17.88-18.72S513,35.22,513,46.38c0,4.08,0.96,13.32,4.92,13.32
		c2.7,0,3.12-4.32,3.12-6.06V39.36C521.04,37.92,520.62,37.32,519.12,37.02z M534.78,52.56c2.4,0,2.94-0.18,2.94-2.88
		c0-3.3-2.82-5.52-4.74-5.52c-1.68,0-4.08,2.16-6.18,3.12C528.9,49.8,532.2,52.56,534.78,52.56z"/>
	<path class="st149" d="M561.54,28.8l1.32-3.72c0.24-0.6,1.98,1.5,3.42,2.58c0.24,0.18,0.48,0.3,0.66,0.42
		c0.24-0.06,0.48-0.24,0.72-0.42c-0.06,0.24-0.12,0.54-0.18,0.78c0.18,0.18,0.42,0.36,0.72,0.54c-0.3,0-0.6,0.06-0.84,0.12
		c-0.12,0.18-0.24,0.36-0.3,0.6l-0.24-0.48c-0.3-0.12-0.66-0.18-1.02-0.18c0.24-0.18,0.48-0.3,0.66-0.48c0-0.24-0.12-0.6-0.18-0.9
		c-0.54-1.74-1.92-4.08-1.26-4.08h3.96c0.66,0-0.78,2.34-1.32,4.08c1.44-1.02,3.24-3.18,3.48-2.58l1.32,3.66
		c0.18,0.66-2.46,0.18-4.26,0.24c1.5,0.96,4.08,1.92,3.6,2.34l-3,2.52c-0.54,0.42-1.02-2.52-1.74-4.14
		c-0.78,1.56-1.26,4.62-1.8,4.14l-3.06-2.52c-0.42-0.36,2.1-1.32,3.6-2.28C564,28.92,561.3,29.4,561.54,28.8z M566.64,28.38
		l0.36,0.3h-0.54v-0.12L566.64,28.38z M566.64,28.98l0.36-0.3l-0.18,0.54L566.64,28.98z M567.48,28.68H567l-0.18-0.54l0.12-0.06
		l0.24,0.12L567,28.68l0.42-0.36l0.06,0.12V28.68z M567.18,29.16L567,28.68l0.42,0.36l-0.06,0.06L567.18,29.16z"/>
	<path class="st149" d="M605.88,35.58c-0.96,0-1.98,0.12-3,0.3c1.44,1.56,2.22,3.6,2.22,5.88c0,8.34-10.08,13.5-15,13.5
		c-3.3,0-4.38-2.28-4.38-4.8c0-5.34,4.8-11.1,10.8-14.58c-1.32-1.08-3-1.44-4.62-1.44c-4.5,0-7.26,2.7-7.26,4.68
		c0,0.48-0.12,0.66-0.3,0.72c-1.74,0.6-2.76,1.14-3.72,1.92c-0.3,0.24-0.72,0.48-0.48-0.24c0.66-1.8,3.84-9,13.62-9
		c2.64,0,4.86,0.54,6.6,1.44c2.46-0.96,4.98-1.5,7.32-1.5c4.62,0,8.28,2.1,8.28,5.88v24.78l-3.3,1.8c-0.18,0.12-1.38,0.9-1.56,1.08
		c-0.48,0.42-0.54,0.42-0.48,0.12c0.06-0.18,0.12-1.38,0.12-1.98V41.1C610.74,36.54,608.94,35.58,605.88,35.58z M591.54,53.28
		c4.44,0,7.44-4.5,7.44-10.56c0-2.28-0.42-4.02-1.14-5.22c-5.46,2.46-10.02,7.08-10.02,11.88C587.82,51.72,588.9,53.28,591.54,53.28
		z"/>
	<path class="st149" d="M625.44,35.46c2.7,0,10.38,6.06,13.68,8.46c-3.3,2.4-10.98,8.46-13.68,8.46c-0.96,0-0.84-0.18-0.18-0.96
		c1.62-1.86,4.38-5.1,7.92-7.5c-3.54-2.4-6.3-5.64-7.92-7.5C624.6,35.64,624.48,35.46,625.44,35.46z M635.34,35.46
		c2.7,0,10.38,6.06,13.68,8.46c-3.3,2.4-10.98,8.46-13.68,8.46c-0.96,0-0.84-0.18-0.18-0.96c1.62-1.86,4.38-5.1,7.92-7.5
		c-3.54-2.4-6.3-5.64-7.92-7.5C634.5,35.64,634.38,35.46,635.34,35.46z"/>
	<linearGradient id="SVGID_1_" gradientUnits="userSpaceOnUse" x1="474.174" y1="103.917" x2="646.967" y2="103.917">
		<stop  offset="0" style="stop-color:#4C5FBF"/>
		<stop  offset="0.3" style="stop-color:#4889D1"/>
		<stop  offset="0.5" style="stop-color:#47AADD"/>
		<stop  offset="1" style="stop-color:#FE9934"/>
	</linearGradient>
	<path class="st0" d="M488.22,103.92c3.54,2.4,6.3,5.64,7.92,7.5c0.66,0.78,0.78,0.96-0.18,0.96c-2.7,0-10.38-6.06-13.68-8.46
		c3.3-2.4,10.98-8.46,13.68-8.46c0.96,0,0.84,0.18,0.18,0.96C494.52,98.28,491.76,101.52,488.22,103.92z M495.3,103.32
		c0-1.14,0.96-2.1,2.16-2.1c1.14,0,2.1,0.96,2.1,2.1c0,1.2-0.96,2.16-2.1,2.16C496.26,105.48,495.3,104.52,495.3,103.32z"/>
	
		<linearGradient id="SVGID_00000075847227198557936770000005737597090288888998_" gradientUnits="userSpaceOnUse" x1="474.174" y1="106.3496" x2="646.974" y2="106.3496">
		<stop  offset="0" style="stop-color:#4C5FBF"/>
		<stop  offset="0.3" style="stop-color:#4889D1"/>
		<stop  offset="0.5" style="stop-color:#47AADD"/>
		<stop  offset="1" style="stop-color:#FE9934"/>
	</linearGradient>
	<path style="fill:url(#SVGID_00000075847227198557936770000005737597090288888998_);" d="M535.08,95.04c4.5,0,9.84,4.98,9.84,10.2
		c0,5.58-6.06,9.6-9.84,9.6s-6.06-4.14-7.14-6.24c0,5.76-3.96,11.16-8.64,11.16c-4.08,0-8.7-4.14-8.7-11.94
		c0-11.22,10.56-22.08,24.84-22.08c12.6,0,19.02,7.86,19.02,19.62c0,22.5-23.52,21.6-24.84,21.6c-0.6,0-1.8-0.18-0.3-0.9
		c4.14-1.98,19.74-4.8,19.74-21.6c0-12.54-8.7-16.32-15.12-16.32c-7.26,0-17.94,5.58-17.94,19.56c0,6.24,1.38,8.82,3.54,8.82
		c2.7,0,3.42-4.14,3.42-9v-5.64c0-0.6-1.2-0.66-1.2-1.02C521.76,99.72,530.7,95.04,535.08,95.04z M528.06,103.74
		c0.06,3.06,5.34,8.82,8.64,8.82c2.04,0,2.94-2.28,2.94-5.76c0-7.14-3.3-8.76-7.74-8.76c-1.14,0-2.34,0.12-3.96,0.78L528.06,103.74z
		"/>
	
		<linearGradient id="SVGID_00000054979873970724185590000012299512398151302825_" gradientUnits="userSpaceOnUse" x1="474.174" y1="88.6777" x2="646.974" y2="88.6777">
		<stop  offset="0" style="stop-color:#4C5FBF"/>
		<stop  offset="0.3" style="stop-color:#4889D1"/>
		<stop  offset="0.5" style="stop-color:#47AADD"/>
		<stop  offset="1" style="stop-color:#FE9934"/>
	</linearGradient>
	<path style="fill:url(#SVGID_00000054979873970724185590000012299512398151302825_);" d="M563.34,89.94
		c-0.24-0.42,2.4-0.72,4.08-1.26l0.66-0.24l-0.12-0.66l0.54,0.42l0.54-0.42l-0.12,0.66l0.66,0.24l-0.66,0.24l0.12,0.66l-0.48-0.42
		l-0.54,0.42l0.12-0.66l-0.72-0.24c-1.68-0.54-4.32-0.78-4.08-1.2l1.5-2.64c0.24-0.48,1.86,1.8,3.12,2.94
		c-0.36-1.74-1.44-4.2-0.96-4.2h3c0.48,0-0.6,2.46-0.96,4.2c1.26-1.2,2.88-3.42,3.12-3l1.5,2.64c0.24,0.42-2.4,0.72-4.08,1.26
		c1.68,0.54,4.32,0.78,4.08,1.2l-1.5,2.64c-0.24,0.42-1.8-1.74-3.12-2.94c0.42,1.74,1.5,4.2,1.02,4.2H567c-0.48,0,0.6-2.46,1.02-4.2
		c-1.32,1.2-2.94,3.42-3.18,3L563.34,89.94z M568.32,89.04l-0.18-0.12v-0.24h-0.06v-0.24l0.24-0.12l0.18,0.36l-0.18-0.36l0.18-0.12
		l0.18,0.12l-0.18,0.36l0.24,0.36l-0.24-0.36l0.24-0.36l0.18,0.12v0.24v0.24l-0.18,0.12l-0.18,0.12L568.32,89.04z M568.32,89.04
		l0.18-0.36L568.32,89.04z"/>
	
		<linearGradient id="SVGID_00000110446635402436226000000005302585946143210421_" gradientUnits="userSpaceOnUse" x1="474.174" y1="105.1474" x2="646.974" y2="105.1474">
		<stop  offset="0" style="stop-color:#4C5FBF"/>
		<stop  offset="0.3" style="stop-color:#4889D1"/>
		<stop  offset="0.5" style="stop-color:#47AADD"/>
		<stop  offset="1" style="stop-color:#FE9934"/>
	</linearGradient>
	<path style="fill:url(#SVGID_00000110446635402436226000000005302585946143210421_);" d="M612.12,97.92
		c-0.36,1.56-2.4,4.2-2.88,4.2h-2.82c-0.3,3.54-2.04,6.96-4.98,9.42c3.96,2.64,7.86,4.5,9.9,4.5c1.2,0,1.5-0.66,2.04-1.14
		c0.42-0.42,0.66-0.42,0.24,0.36c-1.38,2.7-4.32,3.06-5.52,3.06c-2.64,0-6.48-1.8-10.32-4.44c-2.16,1.02-4.62,1.56-7.38,1.56
		c-6,0-9-2.7-9-5.94c0-3.06,2.76-5.94,4.62-6.78c-0.96-1.56-1.56-3-1.56-4.14c0-2.76,3.3-6.6,10.2-6.6c3.66,0,5.34,1.08,5.34,3.36
		c0,4.26-5.76,6.54-8.82,6.84c2.04,2.88,5.52,6,9.06,8.52c1.38-1.56,2.4-4.2,2.64-8.58h-3.3c-0.48,0,1.68-3.36,2.82-3.36h6.48
		C611.1,98.76,612.18,97.62,612.12,97.92z M593.58,113.04c0.84,0,1.74,0,2.7-0.18c-3.48-2.58-6.84-5.64-9.06-8.52
		c-0.54,0.6-1.02,1.8-1.02,2.82C586.2,110.46,591.06,113.04,593.58,113.04z M590.4,100.98c3.12-0.12,5.34-2.4,5.34-4.92
		c0-1.98-1.32-2.16-2.28-2.16c-2.76,0-4.2,1.5-4.2,3.48C589.26,98.46,589.68,99.72,590.4,100.98z"/>
	
		<linearGradient id="SVGID_00000073717931185940981420000003039078662351412877_" gradientUnits="userSpaceOnUse" x1="474.174" y1="103.917" x2="646.967" y2="103.917">
		<stop  offset="0" style="stop-color:#4C5FBF"/>
		<stop  offset="0.3" style="stop-color:#4889D1"/>
		<stop  offset="0.5" style="stop-color:#47AADD"/>
		<stop  offset="1" style="stop-color:#FE9934"/>
	</linearGradient>
	<path style="fill:url(#SVGID_00000073717931185940981420000003039078662351412877_);" d="M622.68,103.32c0-1.14,0.96-2.1,2.1-2.1
		c1.2,0,2.16,0.96,2.16,2.1c0,1.2-0.96,2.16-2.16,2.16C623.64,105.48,622.68,104.52,622.68,103.32z M626.28,95.46
		c2.7,0,10.38,6.06,13.68,8.46c-3.3,2.4-10.98,8.46-13.68,8.46c-0.96,0-0.84-0.18-0.18-0.96c1.62-1.86,4.38-5.1,7.92-7.5
		c-3.54-2.4-6.3-5.64-7.92-7.5C625.44,95.64,625.32,95.46,626.28,95.46z"/>
</g>
</svg>
