<?xml version="1.0" encoding="utf-8"?>
<!-- Generator: Adobe Illustrator 25.4.1, SVG Export Plug-In . SVG Version: 6.00 Build 0)  -->
<svg version="1.1" xmlns="http://www.w3.org/2000/svg" xmlns:xlink="http://www.w3.org/1999/xlink" x="0px" y="0px"
	 viewBox="0 0 1125 150" style="enable-background:new 0 0 1125 150;" xml:space="preserve">
<style type="text/css">
	.st0{display:none;}
	.st1{display:inline;}
	.st2{fill:url(#SVGID_1_);}
	.st3{fill:url(#SVGID_00000171722207154582351380000003550689935243561131_);}
	.st4{fill:url(#SVGID_00000111889066618475702730000003332725200250430617_);}
	.st5{fill:url(#SVGID_00000102502508018444454650000011288102897367599793_);}
	.st6{fill:url(#SVGID_00000115507142491852404770000012220267299165472146_);}
	.st7{fill:url(#SVGID_00000116915425793633795070000001724042540350525826_);}
	.st8{fill:url(#SVGID_00000127763044650011688860000003795552879895705229_);}
	.st9{fill:url(#SVGID_00000122691903502706438930000003961521278253496253_);}
	.st10{fill:url(#SVGID_00000177485610708597638670000017246097284632754879_);}
	.st11{fill:url(#SVGID_00000121238867861118260820000001426319703243500477_);}
	.st12{fill:url(#SVGID_00000132781661181135164500000016240769159361900974_);}
	.st13{fill:url(#SVGID_00000115516788218269278660000007142674868759244474_);}
	.st14{fill:url(#SVGID_00000090983327104277862030000009101304112365073822_);}
	.st15{fill:url(#SVGID_00000147917833660554052940000012263416461368061885_);}
	.st16{fill:url(#SVGID_00000134946628785836386290000007966469709013249974_);}
	.st17{fill:url(#SVGID_00000009556661969003659190000012564634197429436065_);}
	.st18{fill:url(#SVGID_00000124145783557104658370000007244598461605436058_);}
	.st19{fill:url(#SVGID_00000084523548202867742270000007140497823865903018_);}
	.st20{fill:url(#SVGID_00000095332030555411458700000003353755087225750461_);}
	.st21{fill:url(#SVGID_00000049923395233185331980000009479052153654539172_);}
	.st22{fill:url(#SVGID_00000084490306199908255410000007589321677597424306_);}
	.st23{fill:url(#SVGID_00000039856729631249546760000000377109646972731009_);}
	.st24{fill:url(#SVGID_00000019672579386373704440000002491665066655703709_);}
	.st25{fill:url(#SVGID_00000035491218184972198570000013928221143276095647_);}
	.st26{fill:url(#SVGID_00000134960464690358372210000005985681560624900539_);}
	.st27{fill:url(#SVGID_00000048495721098135853390000006434182861247826350_);}
	.st28{fill:url(#SVGID_00000105412393485703617030000014138651368170190769_);}
	.st29{fill:url(#SVGID_00000142883197862857722440000014748400263227929272_);}
	.st30{fill:url(#SVGID_00000098191267277984019850000011514059046364257952_);}
	.st31{fill:url(#SVGID_00000006687388028390538670000007267330931675449263_);}
	.st32{fill:url(#SVGID_00000138534963566522702420000005964168560022365100_);}
	.st33{fill:url(#SVGID_00000137818215163330418250000013319535848363450542_);}
	.st34{fill:url(#SVGID_00000111903891197946788870000000850893470731113381_);}
	.st35{fill:url(#SVGID_00000176746679858121533930000004112176597716212620_);}
	.st36{fill:url(#SVGID_00000027599300693382967260000008688791686803492746_);}
	.st37{fill:url(#SVGID_00000170275943887799637040000012526498991310054077_);}
	.st38{fill:url(#SVGID_00000155132925729706421890000011898719588907187640_);}
	.st39{fill:url(#SVGID_00000086657659171622292620000014936047294193852325_);}
	.st40{fill:url(#SVGID_00000026142263201087901400000012655889707695973761_);}
	.st41{fill:url(#SVGID_00000114067325756990866210000012434974747306239112_);}
	.st42{fill:url(#SVGID_00000136369883387221361370000017261395275900645506_);}
	.st43{fill:url(#SVGID_00000157285629721503101260000013966037221949440401_);}
	.st44{fill:url(#SVGID_00000175305387373110073180000015595058321092161179_);}
	.st45{fill:url(#SVGID_00000124881355909308211850000001516444252261681573_);}
	.st46{fill:url(#SVGID_00000138562483495841666330000017175376563691069841_);}
	.st47{fill:url(#SVGID_00000176026692427285491990000001304725147350129555_);}
	.st48{fill:url(#SVGID_00000036210805283484092990000007814051258782202769_);}
	.st49{fill:url(#SVGID_00000181770489080903703680000006919245163128356528_);}
	.st50{fill:url(#SVGID_00000015346290621574174980000018311278808124229807_);}
	.st51{fill:url(#SVGID_00000036214936467451008440000011321495221549790866_);}
	.st52{fill:url(#SVGID_00000009557982595560919650000012679811693703856529_);}
	.st53{fill:url(#SVGID_00000018234734298030352040000008774045313548141472_);}
	.st54{fill:url(#SVGID_00000157301164755405506840000005257202002314114973_);}
	.st55{fill:url(#SVGID_00000166655786605324437820000015522546441786092724_);}
	.st56{fill:url(#SVGID_00000138562879753753144170000014206309113601352348_);}
	.st57{fill:url(#SVGID_00000147934653384732315830000011147351206262491810_);}
	.st58{fill:url(#SVGID_00000005972447528782853600000009774718805250153608_);}
	.st59{fill:url(#SVGID_00000000915883290910622960000017999750603240443574_);}
	.st60{fill:url(#SVGID_00000040544880065683739470000014220442535803004596_);}
	.st61{fill:url(#SVGID_00000147930806083317033480000004184481404688773018_);}
	.st62{fill:url(#SVGID_00000092429264459529548320000017594446379123657397_);}
	.st63{fill:url(#SVGID_00000091694411103552829470000002620257296811860888_);}
	.st64{fill:url(#SVGID_00000041274340175448552790000009825904856535266730_);}
	.st65{fill:url(#SVGID_00000001631410572279548970000010380843513220805042_);}
	.st66{fill:url(#SVGID_00000086650636652931405650000011347751082481180055_);}
	.st67{fill:url(#SVGID_00000168831621705345305780000006223854576751870120_);}
	.st68{fill:url(#SVGID_00000168101303337839606960000012803618570672773296_);}
	.st69{fill:url(#SVGID_00000005246770973797648870000013982605940030751125_);}
	.st70{fill:url(#SVGID_00000142170398889999977330000018065401383552801977_);}
	.st71{fill:url(#SVGID_00000178902687469198019510000016608797963013176462_);}
	.st72{fill:url(#SVGID_00000082368155366249154240000004501491342140263338_);}
	.st73{fill:url(#SVGID_00000117670798330180778030000011418718537778996368_);}
	.st74{fill:url(#SVGID_00000024703223712331828020000004476791019955325103_);}
	.st75{fill:url(#SVGID_00000115513817222149724770000004012000321840069250_);}
	.st76{fill:url(#SVGID_00000114774663550447226960000017011546227301057192_);}
	.st77{fill:url(#SVGID_00000182493320233187028450000001138440972310578347_);}
	.st78{fill:url(#SVGID_00000156588219939753974350000006679180559727054730_);}
	.st79{fill:url(#SVGID_00000124136647945773338340000000245308725042772865_);}
	.st80{fill:url(#SVGID_00000108308644840451289760000015197390099439734936_);}
	.st81{fill:url(#SVGID_00000158018236161391653290000005760023044148853402_);}
	.st82{fill:url(#SVGID_00000031184937834864256350000011450469029923554445_);}
	.st83{fill:url(#SVGID_00000035527375202516403000000016911173425856158118_);}
	.st84{fill:url(#SVGID_00000112603034680165143550000007881770688287278467_);}
	.st85{fill:url(#SVGID_00000146464860352082152270000007897843396702989980_);}
	.st86{fill:url(#SVGID_00000149352527278096987520000000318144858655015557_);}
	.st87{fill:url(#SVGID_00000054962343907814899300000016521056922370413738_);}
	.st88{fill:url(#SVGID_00000093173151094357813930000010564763361212195237_);}
	.st89{fill:url(#SVGID_00000140701934384079671850000014884386943814205112_);}
	.st90{fill:url(#SVGID_00000170963508563862440410000010570139917314815369_);}
	.st91{fill:url(#SVGID_00000008861735772183123830000006141758702762850467_);}
	.st92{fill:url(#SVGID_00000160168244857375098480000018297706288928766886_);}
	.st93{fill:url(#SVGID_00000000201872136097781580000002890720908873634481_);}
	.st94{fill:url(#SVGID_00000124883867854027190040000015586103789646143420_);}
	.st95{fill:url(#SVGID_00000088119286246031144890000013992944830252366508_);}
	.st96{fill:url(#SVGID_00000007414265177274725020000008609222229921326252_);}
	.st97{fill:url(#SVGID_00000070812164720859171620000001557449512703470263_);}
	.st98{fill:url(#SVGID_00000145029643855446139340000003427505938342596009_);}
	.st99{fill:url(#SVGID_00000052072696225930102370000009752502519598792125_);}
	.st100{fill:url(#SVGID_00000147208887643635911790000016713873502015796124_);}
	.st101{fill:url(#SVGID_00000161626379388878158020000013581916230288635779_);}
	.st102{fill:url(#SVGID_00000072253575571001385230000006020683924349387700_);}
	.st103{fill:url(#SVGID_00000109723208373882575220000003295453715651170479_);}
	.st104{fill:url(#SVGID_00000032633185938645478780000011093515284003068048_);}
	.st105{fill:url(#SVGID_00000161631921763561283240000013083656626874470568_);}
	.st106{fill:url(#SVGID_00000067236811695283520140000017760344653397418162_);}
	.st107{fill:url(#SVGID_00000001629937228448676250000011947180503090674308_);}
	.st108{fill:url(#SVGID_00000158013646816109606110000007239510201405475468_);}
	.st109{fill:url(#SVGID_00000169556498220762608240000003754864817617540752_);}
	.st110{fill:url(#SVGID_00000074406629552289816890000006721508439444033955_);}
	.st111{fill:url(#SVGID_00000084513165107278861770000007643354516251976603_);}
	.st112{fill:url(#SVGID_00000037657671171330543650000003150008448663113624_);}
	.st113{fill:url(#SVGID_00000074423578109925122720000002620207673801310638_);}
	.st114{fill:url(#SVGID_00000149340415810238783490000011284681884248933038_);}
	.st115{fill:url(#SVGID_00000021841385430279167700000006360164288697137076_);}
	.st116{fill:url(#SVGID_00000155853862726249236400000013451377098636498353_);}
	.st117{fill:url(#SVGID_00000068650066045019733290000016235659652934593929_);}
	.st118{fill:url(#SVGID_00000029047419213935960400000018329879835531904646_);}
	.st119{fill:url(#SVGID_00000157275403808973349580000017743907597443621768_);}
	.st120{fill:url(#SVGID_00000042005864773304132420000016396637300662927779_);}
	.st121{fill:url(#SVGID_00000039852764313007737920000016103875505996022153_);}
	.st122{fill:url(#SVGID_00000131334263768006682060000014383119476333366459_);}
	.st123{fill:#FFFFFF;}
	.st124{fill:url(#SVGID_00000048480908783441410660000014342804640798511549_);}
	.st125{fill:url(#SVGID_00000036959939998947472160000005357684710509763508_);}
	.st126{fill:url(#SVGID_00000107587171335945095740000009663880230401108869_);}
	.st127{fill:url(#SVGID_00000005986600142345836980000010674536461266174106_);}
	.st128{fill:url(#SVGID_00000174598721587879120490000000604906628810206084_);}
	.st129{fill:url(#SVGID_00000120518597285831801490000006576063871463048592_);}
	.st130{fill:url(#SVGID_00000025405564518050707680000016017811047535847560_);}
	.st131{fill:url(#SVGID_00000062162973304117526360000001428217487036733360_);}
	.st132{fill:url(#SVGID_00000004541972300835123680000002772602158768160438_);}
	.st133{fill:url(#SVGID_00000146473822686304123160000010664574452740640943_);}
	.st134{fill:url(#SVGID_00000130647225831034168050000017670194630308122811_);}
	.st135{fill:url(#SVGID_00000121238575325278040170000007002059633422476160_);}
	.st136{fill:url(#SVGID_00000133487290599910158950000005663156815067383171_);}
	.st137{fill:url(#SVGID_00000029025406114065526470000012312151244384579724_);}
	.st138{fill:url(#SVGID_00000059286332486375586490000001132368612740039836_);}
	.st139{fill:url(#SVGID_00000160161817282471574470000001100108599124104350_);}
	.st140{fill:url(#SVGID_00000026881836828372760700000009228206342251455898_);}
	.st141{fill:url(#SVGID_00000049184636237880477020000013530261890129127601_);}
	.st142{fill:url(#SVGID_00000069399427885418757000000006315311815211543473_);}
	.st143{fill:url(#SVGID_00000153700497808065808640000008316857903563466913_);}
	.st144{fill:url(#SVGID_00000129189480415152681170000011689248410585611156_);}
	.st145{fill:url(#SVGID_00000063600198660777565420000008060299311546645400_);}
	.st146{fill:url(#SVGID_00000155832562931689969900000014636725632650507400_);}
	.st147{fill:url(#SVGID_00000062159547523242744050000012850606101267784634_);}
	.st148{fill:url(#SVGID_00000168088742429806158780000011752984316099506606_);}
	.st149{fill:url(#SVGID_00000138545335950140643900000002290130455461850764_);}
	.st150{fill:url(#SVGID_00000005962013249518139770000008307286013171832499_);}
	.st151{fill:url(#SVGID_00000179611588898093633090000008907135730642202287_);}
	.st152{fill:url(#SVGID_00000067222963195622337250000007006940149074755241_);}
	.st153{fill:url(#SVGID_00000169530336950827156550000007710296599494493057_);}
	.st154{fill:url(#SVGID_00000016777296729585407930000015661029153000320189_);}
	.st155{fill:url(#SVGID_00000013900145091229878100000016775731897252487869_);}
	.st156{fill:url(#SVGID_00000143612759934782586160000008785041490546129059_);}
	.st157{fill:url(#SVGID_00000060020790232996613440000010260500484765789615_);}
	.st158{fill:url(#SVGID_00000134968879212674218140000006048732646362587016_);}
	.st159{fill:url(#SVGID_00000055704496431419831120000007274984176882349207_);}
	.st160{fill:url(#SVGID_00000052069984421676469150000012051540752033268617_);}
	.st161{fill:url(#SVGID_00000009589173120839807930000011042247440119185311_);}
	.st162{fill:url(#SVGID_00000037666471827023813690000014488344804543161743_);}
	.st163{fill:url(#SVGID_00000013189849361401023370000000301492969447222199_);}
	.st164{fill:url(#SVGID_00000023258531474772602080000002857185244639548547_);}
	.st165{fill:url(#SVGID_00000180368697804452528650000012916044423530039962_);}
	.st166{fill:url(#SVGID_00000154391225626234297880000003618413612645787794_);}
	.st167{fill:url(#SVGID_00000031199324716241257840000016200675599417733804_);}
	.st168{fill:url(#SVGID_00000032628532174923001820000001572052804060084609_);}
	.st169{fill:url(#SVGID_00000166638227807601947640000011296245973393141935_);}
	.st170{fill:url(#SVGID_00000076582241164731156260000011224843073821793178_);}
	.st171{fill:url(#SVGID_00000115486400814940833200000005683167089939500216_);}
	.st172{fill:url(#SVGID_00000045587798674050783820000006050276662223827076_);}
	.st173{fill:url(#SVGID_00000056424269484158678450000001630664198584515734_);}
	.st174{fill:url(#SVGID_00000158022848487351550230000013270480052201525420_);}
	.st175{fill:url(#SVGID_00000127037210194464767140000013153215091304346767_);}
	.st176{fill:url(#SVGID_00000001641462808864592690000006449516754662966161_);}
	.st177{fill:url(#SVGID_00000155841801935308839630000009027215530166471823_);}
	.st178{fill:url(#SVGID_00000021803504773090750590000010201064106080492705_);}
	.st179{fill:url(#SVGID_00000145775340288991897020000006949462548576650627_);}
	.st180{fill:url(#SVGID_00000124153135938789038590000013271721182964809150_);}
	.st181{fill:url(#SVGID_00000161612175764784389630000008222968405197099924_);}
	.st182{fill:url(#SVGID_00000027578743441797906510000017244321958039252867_);}
	.st183{fill:url(#SVGID_00000138566654388867305760000012189317698620472961_);}
	.st184{fill:url(#SVGID_00000041293718978281308040000017556603452607068074_);}
	.st185{fill:url(#SVGID_00000132077067766514121150000002983351638605091735_);}
	.st186{fill:url(#SVGID_00000142141769393201891170000013770592187693967757_);}
	.st187{fill:url(#SVGID_00000132086017339173056520000011677611753168714671_);}
	.st188{fill:url(#SVGID_00000137120339978006385070000011013973693400608669_);}
	.st189{fill:url(#SVGID_00000043430951185394295860000017911973221500642474_);}
	.st190{fill:url(#SVGID_00000011739777831249679140000016863292803601984674_);}
	.st191{fill:url(#SVGID_00000178170538914347443740000015553803796855296930_);}
	.st192{fill:url(#SVGID_00000075864278608235556450000013579114875106611623_);}
	.st193{fill:url(#SVGID_00000108290647667469301080000001547199901575474102_);}
	.st194{fill:url(#SVGID_00000147212593421050365760000017711229339668237741_);}
	.st195{fill:url(#SVGID_00000096740863710502196160000006269980186176136347_);}
	.st196{fill:url(#SVGID_00000047753230353440581410000001330524543312994215_);}
	.st197{fill:url(#SVGID_00000092457383471710006480000017392547186257911718_);}
	.st198{fill:url(#SVGID_00000163795086221547822630000000805971289591780244_);}
	.st199{fill:url(#SVGID_00000049222221564568057350000016154879712742934400_);}
	.st200{fill:url(#SVGID_00000068676274080366038640000002695183339644018081_);}
	.st201{fill:url(#SVGID_00000077324539724623875970000014739192561983488387_);}
	.st202{fill:url(#SVGID_00000101782475522747891160000010422209674420123065_);}
	.st203{fill:url(#SVGID_00000166633347494451588010000007506955156808074415_);}
	.st204{fill:url(#SVGID_00000018202400342109587830000016517535893626778759_);}
	.st205{fill:url(#SVGID_00000052104397897359749630000007667595227561261729_);}
	.st206{fill:url(#SVGID_00000126281657095468198030000012028653189807953291_);}
	.st207{fill:url(#SVGID_00000168089664886940700340000013765608272534403732_);}
	.st208{fill:url(#SVGID_00000027603155424397064720000001650971018506621608_);}
	.st209{fill:url(#SVGID_00000042699514034485030730000005645624081503508620_);}
	.st210{fill:url(#SVGID_00000050634243949962881480000007774946512888707204_);}
	.st211{fill:url(#SVGID_00000032620434742171748520000012016541695686959785_);}
	.st212{fill:url(#SVGID_00000072966479518024651690000001631232701798797972_);}
	.st213{fill:url(#SVGID_00000034798576932685653630000002159339531313275011_);}
	.st214{fill:url(#SVGID_00000121251349418855671020000016499544245360182149_);}
	.st215{fill:url(#SVGID_00000070801600608825269930000011719378099706717620_);}
	.st216{fill:url(#SVGID_00000065059471342451245860000010806179691753609363_);}
	.st217{fill:url(#SVGID_00000016042782472558880160000003780932220954282406_);}
	.st218{fill:url(#SVGID_00000147925576089364513630000010428020433226769289_);}
	.st219{fill:url(#SVGID_00000047745874170113828960000011021664721108264625_);}
	.st220{fill:url(#SVGID_00000033340780095598152250000013279497259440841354_);}
	.st221{fill:url(#SVGID_00000076575733574123688540000008795410718499348616_);}
	.st222{fill:url(#SVGID_00000069374217460706711280000011360012642059763340_);}
	.st223{fill:url(#SVGID_00000074404490832857370240000000350596558199813003_);}
	.st224{fill:url(#SVGID_00000141424879681590683910000017667250299471552133_);}
	.st225{fill:url(#SVGID_00000026162122218156882080000005716619223961577383_);}
	.st226{fill:url(#SVGID_00000072973961342384697920000004595018999484621496_);}
	.st227{fill:url(#SVGID_00000075138074262732174730000006851340389777571204_);}
	.st228{fill:url(#SVGID_00000067956834912006033630000010310184656705667740_);}
	.st229{fill:url(#SVGID_00000106110572118977920510000002733362223287880068_);}
	.st230{fill:url(#SVGID_00000155859555837996928820000015598182039267566762_);}
	.st231{fill:url(#SVGID_00000164484047527216846900000010389301216860873629_);}
	.st232{fill:url(#SVGID_00000103986189776039338960000001345689367129448380_);}
	.st233{fill:url(#SVGID_00000114061928643131121470000009695813618703160960_);}
	.st234{fill:url(#SVGID_00000026139891668233799420000009684150947782721936_);}
	.st235{fill:url(#SVGID_00000052782391389264853740000005684458771547347081_);}
	.st236{fill:url(#SVGID_00000103987991123353056940000002968066491166645686_);}
	.st237{fill:url(#SVGID_00000142868593246705649450000005255959834141172380_);}
	.st238{fill:url(#SVGID_00000100345980031733176600000015274672336499459227_);}
	.st239{fill:url(#SVGID_00000152228656779669135330000012572905114353267072_);}
	.st240{fill:url(#SVGID_00000087381688385546455820000015197443541596765853_);}
	.st241{fill:url(#SVGID_00000023981681298079607170000013511212483217720967_);}
	.st242{fill:url(#SVGID_00000051352676979685929830000008182233937924739746_);}
	.st243{fill:url(#SVGID_00000173136581560424525930000004301691968903064509_);}
	.st244{fill:url(#SVGID_00000036966301129897383050000008808318712521404859_);}
	.st245{fill:url(#SVGID_00000178908665404882632870000010229052043427216301_);}
	.st246{fill:url(#SVGID_00000136405437462643498980000009626295548894691991_);}
	.st247{fill:url(#SVGID_00000152983712588260104760000008896487528133238424_);}
	.st248{fill:url(#SVGID_00000039127752337187381870000004019436416692316289_);}
	.st249{fill:url(#SVGID_00000098223100819467151220000008476334595735627963_);}
	.st250{opacity:0.6;}
	.st251{fill:url(#SVGID_00000090264409628745336050000007874641038425649046_);}
	.st252{fill:url(#SVGID_00000122002203523307927950000007618904890939222708_);}
	.st253{fill:url(#SVGID_00000052793923277047002650000017243977799163279254_);}
	.st254{fill:url(#SVGID_00000003788061176531227580000013305709395494362770_);}
	.st255{fill:url(#SVGID_00000115500896952062989570000000735365461548812946_);}
	.st256{fill:url(#SVGID_00000026141217040263931590000018175179385560100492_);}
	.st257{fill:url(#SVGID_00000183969859001541171750000009189552980801986193_);}
	.st258{fill:url(#SVGID_00000019669257047267949680000000748363400251083936_);}
	.st259{fill:url(#SVGID_00000013163594567156732250000017066781510961676959_);}
	.st260{fill:url(#SVGID_00000168117385485643739560000011575828300308827045_);}
	.st261{fill:url(#SVGID_00000146467720229679174660000007823628618562029725_);}
	.st262{fill:url(#SVGID_00000085931054492542048640000017713675457918428548_);}
	.st263{fill:url(#SVGID_00000148620105750162840430000012447650866193166500_);}
	.st264{fill:url(#SVGID_00000155119544056851886170000009624436318236081297_);}
	.st265{fill:url(#SVGID_00000098199878524259213280000009591289850318228381_);}
	.st266{fill:url(#SVGID_00000037679199119117121680000013874737478873486488_);}
	.st267{fill:url(#SVGID_00000014601219875314707950000003798444064247304606_);}
	.st268{fill:url(#SVGID_00000023242768251020341940000016386403000929116811_);}
	.st269{fill:url(#SVGID_00000011009299340704431170000013981643645674536855_);}
	.st270{fill:url(#SVGID_00000096061726617325816450000010469181569108152736_);}
	.st271{fill:url(#SVGID_00000089571940710082977620000002284034909767804299_);}
	.st272{fill:url(#SVGID_00000168823480637475879700000014801963028482111656_);}
	.st273{fill:url(#SVGID_00000169551397172670192760000013035881678260797875_);}
	.st274{fill:url(#SVGID_00000161603690068311768800000004668835935101885860_);}
	.st275{fill:url(#SVGID_00000036968378767099790810000018110465491077729699_);}
	.st276{fill:url(#SVGID_00000023242517543462219940000004251903075504977585_);}
	.st277{fill:url(#SVGID_00000059990986154867792130000010702955959936103590_);}
	.st278{fill:url(#SVGID_00000121266251575124383840000018434794404038185878_);}
	.st279{fill:url(#SVGID_00000145029792560799151930000006274034032172798136_);}
	.st280{fill:url(#SVGID_00000057115491337351357550000015921864977848282809_);}
	.st281{fill:url(#SVGID_00000076564226691764200210000001092291994496680870_);}
	.st282{fill:url(#SVGID_00000158712403621917326880000004314611908220073394_);}
	.st283{fill:url(#SVGID_00000112634589249527950390000014068147168379263633_);}
	.st284{fill:url(#SVGID_00000117652352741710127360000015166394140184243342_);}
	.st285{fill:url(#SVGID_00000154388619104571222350000003772544429410729406_);}
	.st286{fill:url(#SVGID_00000121996355692331915460000009884953526284509631_);}
	.st287{fill:url(#SVGID_00000003089304185156176490000000817277222336791426_);}
	.st288{fill:url(#SVGID_00000067201661836434228240000003899554987159828621_);}
	.st289{fill:url(#SVGID_00000105408704717171584590000014782231749762094000_);}
	.st290{fill:url(#SVGID_00000020381190134136479160000005966378401147569593_);}
	.st291{fill:#1A1A1A;}
	.st292{fill:#231815;}
	.st293{fill:url(#SVGID_00000004545430290182604700000012840154374726341287_);}
	.st294{fill:url(#SVGID_00000088820323990181032710000002770059173798693258_);}
	.st295{fill:url(#SVGID_00000130644988890905979590000012638467397786837686_);}
	.st296{fill:url(#SVGID_00000151505492767263253500000006422697875140928419_);}
	.st297{fill:url(#SVGID_00000005951249952922491570000007829311044835282842_);}
	.st298{fill:url(#SVGID_00000042697580846427768780000002367125634055042713_);}
	.st299{fill:url(#SVGID_00000061456835693491042350000003553682361830843822_);}
	.st300{fill:url(#SVGID_00000134228759704521504740000013358132008776741531_);}
	.st301{fill:url(#SVGID_00000049222119468741081300000013810942858536572810_);}
	.st302{fill:url(#SVGID_00000158715076908992721160000000657636416856929968_);}
	.st303{fill:url(#SVGID_00000044890867638551919410000009462862140483576739_);}
	.st304{fill:url(#SVGID_00000147220270978910522510000015372902133461288892_);}
	.st305{fill:url(#SVGID_00000116205985015503593040000001881692199745933738_);}
	.st306{fill:url(#SVGID_00000124125399590072682270000006736063978255357084_);}
	.st307{fill:url(#SVGID_00000156584490309278241270000015709917270504428419_);}
	.st308{fill:url(#SVGID_00000166653084432524966930000017417843140602309540_);}
	.st309{fill:url(#SVGID_00000060753153504976664740000007971812712918184634_);}
	.st310{fill:url(#SVGID_00000054266986496193783910000002076606332356282265_);}
	.st311{fill:url(#SVGID_00000015322632968038870610000009930875042881041301_);}
	.st312{fill:url(#SVGID_00000150064163307376062240000014626156741499079304_);}
	.st313{fill:url(#SVGID_00000017504574329016244090000015992250694666011549_);}
	.st314{fill:url(#SVGID_00000110429948056590160260000013392092131886888851_);}
	.st315{fill:url(#SVGID_00000076589635497714384920000000355586624100601276_);}
	.st316{fill:url(#SVGID_00000126283620339994799590000013380774531463140258_);}
	.st317{fill:url(#SVGID_00000084497981469308895850000017430940629818205113_);}
	.st318{fill:url(#SVGID_00000149358822396533399180000005160836946117677987_);}
	.st319{fill:url(#SVGID_00000021097205083593008490000013282252112954448519_);}
	.st320{fill:url(#SVGID_00000132774496462077060890000007867769896350476987_);}
	.st321{fill:url(#SVGID_00000147940398225578126960000013130148793259953056_);}
	.st322{fill:url(#SVGID_00000103973304302805225970000006968451187908269971_);}
	.st323{fill:url(#SVGID_00000114063121260795444420000012102243000193391516_);}
	.st324{fill:url(#SVGID_00000056405494506526677520000011338963889110121882_);}
	.st325{fill:url(#SVGID_00000101792360313361411030000004719393076808454792_);}
	.st326{fill:url(#SVGID_00000179640915315525802840000006291911138549843625_);}
	.st327{fill:url(#SVGID_00000099663414555638279040000001644119437702429862_);}
	.st328{fill:url(#SVGID_00000084525314430117163310000008906451708506530224_);}
	.st329{fill:url(#SVGID_00000094580096464382414080000016960126051518524323_);}
	.st330{fill:url(#SVGID_00000118371535959181422100000015439081951992990645_);}
	.st331{fill:url(#SVGID_00000078752287084685580420000011268234155210363040_);}
	.st332{fill:url(#SVGID_00000101062931502671180520000018142940674449860737_);}
	.st333{fill:url(#SVGID_00000176727540233303580450000003901113115434230441_);}
	.st334{fill:url(#SVGID_00000008847134767983556840000012009066851118690953_);}
</style>
<g id="图层_1" class="st0">
	<g class="st1">
		<g>
			<g>
				<path d="M425.16-10.82l-3.3,1.8c-0.18,0.12-1.38,0.9-1.56,1.08c-0.48,0.42-0.54,0.42-0.48,0.12c0.06-0.18,0.12-1.38,0.12-1.98
					v-17.94c-5.76,1.08-12.12,5.52-12.12,14.82c0,9.72,9.84,14.46,12.12,15.84c0.54,0.36,0.84,1.02-0.12,0.84
					C415.62,2.97,402-0.03,402-11.18c0-12.96,16.68-19.8,23.16-19.8V-10.82z"/>
				<path d="M462.12-26.18c-0.6-0.12-1.68-0.18-2.22-0.18s-0.54-0.3-0.3-0.42c2.76-1.14,4.74-2.52,7.5-4.14
					c1.32-0.78,2.16,0.96,2.16,2.46v3.06c2.46-2.64,5.76-5.28,10.14-5.28c3.12,0,5.7,1.2,6.6,2.28c-0.3,0.18-2.94,2.64-3.36,3.3
					c-1.2-1.2-3.36-2.22-6.36-2.22c-2.94,0-4.62,1.8-7.02,4.2v5.64c2.94-1.62,7.38-4.56,9.24-4.56c4.02,0,7.5,2.58,7.5,6.96
					c0,4.86-6.06,6.72-9.84,6.72c-3.18,0-5.52-1.86-6.9-2.46v0.48c0,4.26-8.7,12.06-9.9,12.66c-0.36,0.18-0.66,0-0.3-0.36
					c1.08-0.96,4.98-7.68,4.98-11.52v-0.18c0-1.56,0-3.54,0-4.68v-9.42C464.04-25.28,463.62-25.88,462.12-26.18z M477.78-10.64
					c2.4,0,2.94-0.18,2.94-2.88c0-3.3-2.82-5.52-4.74-5.52c-1.68,0-4.08,2.16-6.18,3.12C471.9-13.4,475.2-10.64,477.78-10.64z"/>
				<path d="M490.8-26c-0.6-0.12-1.68-0.18-2.22-0.18s-0.54-0.3-0.3-0.42c2.76-1.14,4.74-2.52,7.5-4.14
					c1.32-0.78,2.16,0.96,2.16,2.46v2.34c2.4-2.7,6.9-5.04,9.54-5.04c2.88,0,7.62,2.7,7.62,7.02c0,3.3-2.7,5.82-6.06,6.78v10.92
					c0,5.4,1.5,7.38,3.96,7.38c1.74,0,3.42-1.02,4.62-2.46c0.3-0.36,0.66,0.06,0.48,0.48c-0.9,1.92-3.9,5.04-6.78,5.04
					c-4.74,0-7.5-3.06-7.5-9.12v-12c-0.3-0.06-0.66-0.12-0.96-0.24c-0.78-0.24-1.02-0.78,0-0.96c1.32-0.24,6.12-0.54,6.12-4.98
					c0-2.76-1.68-5.16-4.74-5.16c-1.98,0-4.98,2.52-6.3,4.14v13.38l-3.3,1.8c-0.18,0.12-1.38,0.9-1.56,1.08
					c-0.48,0.42-0.54,0.42-0.48,0.12c0.06-0.18,0.12-1.38,0.12-1.98v-13.92C492.72-25.1,492.3-25.7,490.8-26z"/>
				<path d="M532.26-30.74c5.76,0,9.42,2.52,9.42,4.98v25.68l-3.3,1.8c-0.18,0.12-1.38,0.9-1.56,1.08
					c-0.48,0.42-0.54,0.42-0.48,0.12c0.06-0.18,0.12-1.38,0.12-1.98v-24.06c0-2.64-2.82-4.5-6.78-4.5c-2.58,0-6.48,1.38-10.5,4.5
					c-0.6,0.48-1.32,0.06-0.9-0.48C519.9-25.7,523.56-30.74,532.26-30.74z"/>
				<linearGradient id="SVGID_1_" gradientUnits="userSpaceOnUse" x1="627.4185" y1="-14.0648" x2="750.2941" y2="-14.0648">
					<stop  offset="0" style="stop-color:#4C5FBF"/>
					<stop  offset="0.3" style="stop-color:#4889D1"/>
					<stop  offset="0.5" style="stop-color:#47AADD"/>
					<stop  offset="1" style="stop-color:#FE9934"/>
				</linearGradient>
				<path class="st2" d="M676.5-31.04c5.52,0,9.6,3.78,10.86,5.34c0.24,0.3-0.3,0.6-0.48,0.78c-1.02,0.84-2.28,2.22-3.12,3.36
					c-0.18,0.24-0.36,0.3-0.54,0c-1.2-2.4-4.68-7.56-8.52-7.56c-3.54,0-5.52,2.88-5.52,6.78v7.98c3-1.68,5.28-3.9,5.28-4.8
					c0-0.24-1.02-0.66,0-0.9c1.98-0.42,3.18-0.6,4.98-1.02c1.32-0.3,0.48,2.04-1.26,3.78c-2.16,2.16-5.94,3.48-9,4.08v4.38
					c0,1.08-0.18,2.16-0.48,3.06c3.24-1.68,5.76-4.08,5.76-5.04c0-0.24-1.02-0.66,0-0.9c1.98-0.42,3.18-0.6,4.98-1.02
					c1.32-0.3,0.48,2.04-1.26,3.78c-2.4,2.34-6.72,3.78-9.9,4.2c-2.22,5.1-8.4,7.68-11.34,7.68c-1.02,0-0.78-0.42-0.3-0.54
					c3.66-1.02,7.32-5.16,7.32-9.66v-15C663.96-27.26,669.18-31.04,676.5-31.04z M663.96-9.93c-0.06,0-0.06,0-0.06,0H663.96z"/>
				
					<linearGradient id="SVGID_00000156557483296115707940000011314368528067276466_" gradientUnits="userSpaceOnUse" x1="627.4185" y1="-14.0648" x2="750.2941" y2="-14.0648">
					<stop  offset="0" style="stop-color:#4C5FBF"/>
					<stop  offset="0.3" style="stop-color:#4889D1"/>
					<stop  offset="0.5" style="stop-color:#47AADD"/>
					<stop  offset="1" style="stop-color:#FE9934"/>
				</linearGradient>
				<path style="fill:url(#SVGID_00000156557483296115707940000011314368528067276466_);" d="M709.5-31.04
					c5.52,0,9.6,3.78,10.86,5.34c0.24,0.3-0.3,0.6-0.48,0.78c-1.02,0.84-2.28,2.22-3.12,3.36c-0.18,0.24-0.36,0.3-0.54,0
					c-1.2-2.4-4.68-7.56-8.52-7.56c-3.54,0-5.52,2.88-5.52,6.78v7.98c3-1.68,5.28-3.9,5.28-4.8c0-0.24-1.02-0.66,0-0.9
					c1.98-0.42,3.18-0.6,4.98-1.02c1.32-0.3,0.48,2.04-1.26,3.78c-2.16,2.16-5.94,3.48-9,4.08v4.38c0,7.8-8.58,11.76-12.24,11.76
					c-1.02,0-0.78-0.42-0.3-0.54c3.66-1.02,7.32-5.16,7.32-9.66v-15C696.96-27.26,702.18-31.04,709.5-31.04z M696.96-9.93
					c-0.06,0-0.06,0-0.06,0H696.96z"/>
				
					<linearGradient id="SVGID_00000114763778535430822550000007780406383804557500_" gradientUnits="userSpaceOnUse" x1="627.4185" y1="-13.8636" x2="750.2941" y2="-13.8636">
					<stop  offset="0" style="stop-color:#4C5FBF"/>
					<stop  offset="0.3" style="stop-color:#4889D1"/>
					<stop  offset="0.5" style="stop-color:#47AADD"/>
					<stop  offset="1" style="stop-color:#FE9934"/>
				</linearGradient>
				<path style="fill:url(#SVGID_00000114763778535430822550000007780406383804557500_);" d="M748.85-13.7
					c2.7,0,7.02,1.44,7.02,6.54c0,3.9-5.16,9.24-8.82,9.24c-2.22,0-4.32-0.72-5.82-2.04l-2.88,1.56c-0.18,0.12-1.38,0.9-1.56,1.08
					c-0.48,0.42-0.54,0.42-0.48,0.12c0.06-0.18,0.12-1.38,0.12-1.98v-6.54c0-6.66-7.38-5.16-11.28-1.92c-1.14,0.96-0.9,0-0.48-0.54
					c3.96-4.98,8.4-6,11.76-5.22v-0.78c0-6.66-7.38-5.16-11.28-1.92c-1.14,0.96-0.9,0-0.48-0.54c3.96-4.98,8.4-6,11.76-5.22v-0.96
					c0-6.66-7.38-5.16-11.28-1.92c-1.14,0.96-0.9,0-0.48-0.54c7.56-9.48,16.98-4.56,16.98-0.42v16.74
					C741.65-8.97,746.93-13.7,748.85-13.7z M747.89,0.21c1.8,0,3.06-1.32,3.06-3.54c0-6.3-3.9-7.32-4.86-6.6l-4.44,3.18v0.48
					C741.65-3.33,746.81,0.21,747.89,0.21z"/>
				<path d="M810.89-26.18c-0.6-0.12-1.68-0.18-2.22-0.18s-0.54-0.3-0.3-0.42c2.76-1.14,4.74-2.52,7.5-4.14
					c1.32-0.78,2.16,0.96,2.16,2.46v3.06c2.46-2.64,5.76-5.28,10.14-5.28c3.12,0,5.7,1.2,6.6,2.28c-0.3,0.18-2.94,2.64-3.36,3.3
					c-1.2-1.2-3.36-2.22-6.36-2.22c-2.94,0-4.62,1.8-7.02,4.2v5.64c2.94-1.62,7.38-4.56,9.24-4.56c4.02,0,7.5,2.58,7.5,6.96
					c0,4.86-6.06,6.72-9.84,6.72c-3.18,0-5.52-1.86-6.9-2.46v0.48c0,4.26-8.7,12.06-9.9,12.66c-0.36,0.18-0.66,0-0.3-0.36
					c1.08-0.96,4.98-7.68,4.98-11.52v-0.18c0-1.56,0-3.54,0-4.68v-9.42C812.81-25.28,812.39-25.88,810.89-26.18z M826.56-10.64
					c2.4,0,2.94-0.18,2.94-2.88c0-3.3-2.82-5.52-4.74-5.52c-1.68,0-4.08,2.16-6.18,3.12C820.68-13.4,823.97-10.64,826.56-10.64z"/>
			</g>
		</g>
		<g>
			<path d="M397.8,97.36c-5.82-7.5-2.4-16.98,2.46-22.02c5.16-5.76,12.24-7.8,19.68-3.72c7.62,4.2,10.2,14.16,3.18,24.18
				C416.16,105.7,401.88,102.58,397.8,97.36z M402,91.9c3.78-2.28,6.54-5.04,6.54-6.18c0-0.3-1.38-0.84,0-1.2
				c2.7-0.54,4.32-0.78,6.72-1.38c1.8-0.42,0.66,2.76-1.68,5.1c-2.58,2.52-6.78,4.26-10.5,5.16c4.68,5.7,13.5,6.3,16.38,3.48
				c5.76-5.64,2.88-15.42-2.7-19.74c-4.74-3.66-12.3-4.08-14.88-1.32C398.22,79.73,399,86.98,402,91.9z"/>
			<path d="M448.86,69.53c6.42,0,10.5,3.72,12.24,5.58c0.24,0.24,0.06,0.36-0.12,0.48c-1.38,0.78-3.06,2.76-3.96,4.02
				c-0.24,0.36-0.42,0.48-0.6,0.06c-1.14-2.52-4.56-7.44-10.26-7.44c-2.82,0-6.54,1.74-6.54,5.64V98.2c0,7.2-10.14,8.4-13.8,8.4
				c-1.02,0-0.78-0.42-0.3-0.54c3.66-1.02,8.88-4.68,8.88-7.86V77.93C434.4,72.29,440.22,69.53,448.86,69.53z M434.4,96.53
				c-0.06,0-0.06,0-0.06,0H434.4z"/>
			<path d="M480.18,69.53c6.42,0,10.5,3.72,12.24,5.58c0.24,0.24,0.06,0.36-0.12,0.48c-1.38,0.78-3.06,2.76-3.96,4.02
				c-0.24,0.36-0.42,0.48-0.6,0.06c-1.14-2.52-4.56-7.44-10.26-7.44c-2.82,0-6.54,1.74-6.54,5.64v11.16c3.9-2.22,7.2-4.98,7.2-6.12
				c0-0.3-1.38-0.84,0-1.2c1.56-0.42,3.78-1.08,5.1-1.38c1.8-0.42,0.6,2.88-1.86,5.1c-3.06,2.7-6.84,4.5-10.44,5.4v7.38
				c0,7.2-10.14,8.4-13.8,8.4c-1.02,0-0.78-0.42-0.3-0.54c3.66-1.02,8.88-4.68,8.88-7.86V77.93
				C465.72,72.29,471.54,69.53,480.18,69.53z M465.72,96.53c-0.06,0-0.06,0-0.06,0H465.72z"/>
			<path d="M511.5,69.53c6.42,0,10.5,3.72,12.24,5.58c0.24,0.24,0.06,0.36-0.12,0.48c-1.38,0.78-3.06,2.76-3.96,4.02
				c-0.24,0.36-0.42,0.48-0.6,0.06c-1.14-2.52-4.56-7.44-10.26-7.44c-2.82,0-6.54,1.74-6.54,5.64v11.16c3.9-2.22,7.2-4.98,7.2-6.12
				c0-0.3-1.38-0.84,0-1.2c1.56-0.42,3.78-1.08,5.1-1.38c1.8-0.42,0.6,2.88-1.86,5.1c-3.06,2.7-6.84,4.5-10.44,5.4v7.38v0.06
				c3.9-2.22,7.2-4.98,7.2-6.12c0-0.3-1.38-0.84,0-1.2c1.56-0.42,3.78-1.08,5.1-1.38c1.8-0.42,0.6,2.88-1.86,5.1
				c-3.12,2.76-7.02,4.62-10.68,5.46c-1.62,5.52-10.26,6.48-13.56,6.48c-1.02,0-0.78-0.42-0.3-0.54c3.66-1.02,8.88-4.68,8.88-7.86
				V77.93C497.04,72.29,502.86,69.53,511.5,69.53z M497.04,96.53c-0.06,0-0.06,0-0.06,0H497.04z"/>
			<path d="M538.32,70.67c8.4,0,20.52,27.66,20.76,27.48c0,0-0.84,0.36-2.1,1.44c-1.2,1.02-1.26,1.44-2.4,2.52h-18.24
				c-0.72,0-5.52,0.18-6.3,0.3c-2.04,0.36-2.28,0.3-1.62-0.18c0.42-0.3,2.7-2.58,3.54-3.36l0.12-0.12h20.88
				c-3.72-7.44-12.96-24.84-17.1-24.84c-2.04,0-4.26,3.42-4.26,5.34c0,2.58,1.38,3.36,2.04,3.78c0.36,0.3-0.18,1.02-0.3,1.14
				c-1.08,1.26-2.1,3.42-2.52,4.5c-0.18,0.3-0.3,0.54-0.78,0.3c-0.96-0.42-2.28-3.3-2.28-5.1
				C527.76,76.37,533.82,70.67,538.32,70.67z"/>
			<path d="M579.06,70.25c6.24,0,10.98,2.16,10.98,4.62v21.96c0,5.82,4.74,6.9,7.2,7.44c0.42,0.12,0.3,0.42-0.06,0.42
				c-5.4,0-12.36-0.66-12.36-8.94v-0.96c0-1.08,0-0.96,0-1.68v-5.94c-7.98,4.38-12.12,7.74-13.02,11.64c-0.48,2.1,0,2.82,1.5,3.66
				c0.42,0.24,0.42,0.48,0,0.48c-1.8,0-5.28,1.32-6.66,1.86c-0.96-0.48-2.1-1.32-2.1-3.48c0-4.8,7.32-9.36,20.28-16.5v-6.3
				c0-3.66-4.92-5.16-8.04-5.16c-3.18,0-7.56,1.44-11.46,4.5c-0.54,0.42-1.08,0-0.72-0.54C565.98,75.29,570.12,70.25,579.06,70.25z
				 M584.82,94.78c-0.06,0-0.06,0-0.06,0H584.82z"/>
			<path d="M624.78,98.44c2.04-0.36,2.28-0.3,1.62,0.18c-0.42,0.3-2.7,2.58-3.54,3.36l-0.12,0.12h-25.5h-0.06c-0.06,0-0.06,0-0.06,0
				h0.06l0.06-0.06h-0.36l16.74-25.92c2.28-3.48,5.04-4.86,8.58-4.86c2.52,0,5.58,2.64,5.58,6.3c0,5.34-4.02,8.46-6.36,10.62
				c-0.3,0.24-0.66,0.06-0.18-0.72c1.5-2.16,2.94-5.94,0.96-9.06c-1.32-2.1-3.3-2.64-4.56-2.64c-0.9,0-1.74,0.36-3.06,2.4
				l-13.26,20.58h17.16C619.2,98.74,624,98.57,624.78,98.44z"/>
			<path d="M650.52,75.65v15.72c0,0,5.28-4.74,7.2-4.74c2.7,0,7.02,1.44,7.02,6.54c0,3.9-5.16,9.24-8.82,9.24
				c-2.28,0-4.44-0.78-5.94-2.1l-2.76,1.5c-0.18,0.12-1.38,0.9-1.56,1.08c-0.48,0.42-0.54,0.42-0.48,0.12
				c0.06-0.18,0.12-1.38,0.12-1.98v-22.5c0-6.66-7.5-6.36-12.48-1.92c-1.14,1.02-0.9,0-0.48-0.54
				C639,66.59,650.52,71.21,650.52,75.65z M656.76,100.54c1.8,0,3.06-1.32,3.06-3.54c0-6.3-3.9-7.32-4.86-6.6l-4.44,3.18v0.48
				C650.52,97,655.68,100.54,656.76,100.54z"/>
			<path d="M683.28,75.65v15.72c0,0,5.28-4.74,7.2-4.74c2.7,0,7.02,1.44,7.02,6.54c0,3.9-5.16,9.24-8.82,9.24
				c-2.28,0-4.44-0.78-5.94-2.1l-2.76,1.5c-0.18,0.12-1.38,0.9-1.56,1.08c-0.48,0.42-0.54,0.42-0.48,0.12
				c0.06-0.18,0.12-1.38,0.12-1.98V86.27c0-6.66-7.5-6.36-12.48-1.92c-1.14,1.02-0.9,0-0.48-0.54c3.78-5.34,9.06-6.18,12.96-5.16
				v-0.12c0-6.66-7.5-6.36-12.48-1.92c-1.14,1.02-0.9,0-0.48-0.54C671.76,66.59,683.28,71.21,683.28,75.65z M689.52,100.54
				c1.8,0,3.06-1.32,3.06-3.54c0-6.3-3.9-7.32-4.86-6.6l-4.44,3.18v0.48C683.28,97,688.44,100.54,689.52,100.54z"/>
			<path d="M716.04,75.65v15.72c0,0,5.28-4.74,7.2-4.74c2.7,0,7.02,1.44,7.02,6.54c0,3.9-5.16,9.24-8.82,9.24
				c-2.28,0-4.44-0.78-5.94-2.1l-2.76,1.5c-0.18,0.12-1.38,0.9-1.56,1.08c-0.48,0.42-0.54,0.42-0.48,0.12
				c0.06-0.18,0.12-1.38,0.12-1.98v-6.78c0-6.66-7.5-6.36-12.48-1.92c-1.14,1.02-0.9,0-0.48-0.54c3.78-5.34,9.06-6.18,12.96-5.16
				v-0.36c0-6.66-7.5-6.36-12.48-1.92c-1.14,1.02-0.9,0-0.48-0.54c3.78-5.34,9.06-6.18,12.96-5.16v-0.12c0-6.66-7.5-6.36-12.48-1.92
				c-1.14,1.02-0.9,0-0.48-0.54C704.52,66.59,716.04,71.21,716.04,75.65z M722.28,100.54c1.8,0,3.06-1.32,3.06-3.54
				c0-6.3-3.9-7.32-4.86-6.6l-4.44,3.18v0.48C716.04,97,721.2,100.54,722.28,100.54z"/>
		</g>
		<g>
			
				<linearGradient id="SVGID_00000008115447613361627540000005025839997716969094_" gradientUnits="userSpaceOnUse" x1="399" y1="149.3115" x2="717.0362" y2="149.3115">
				<stop  offset="0" style="stop-color:#4C5FBF"/>
				<stop  offset="0.3" style="stop-color:#4889D1"/>
				<stop  offset="0.5" style="stop-color:#47AADD"/>
				<stop  offset="1" style="stop-color:#FE9934"/>
			</linearGradient>
			<path style="fill:url(#SVGID_00000008115447613361627540000005025839997716969094_);" d="M408.51,157.24
				c-4.5-5.82-1.68-11.76,1.68-15.3c3.54-3.96,8.1-5.58,13.62-2.58c4.86,2.7,7.38,9.54,2.22,16.32
				C420.33,163.18,411.63,161.32,408.51,157.24z M412.11,153.16c2.46-1.56,4.2-3.36,4.2-4.14c0-0.24-1.02-0.66,0-0.9
				c1.98-0.42,3.18-0.6,4.98-1.02c1.32-0.3,0.48,2.04-1.26,3.78c-1.68,1.68-4.32,2.82-6.84,3.54c2.88,2.82,8.1,4.02,10.02,2.16
				c3.54-3.48,1.02-10.56-2.16-13.08c-3.48-2.64-7.5-2.94-9.3-1.08C409.41,144.89,410.13,150.16,412.11,153.16z"/>
			
				<linearGradient id="SVGID_00000152231391681387475240000015370165563196239752_" gradientUnits="userSpaceOnUse" x1="399" y1="154.7848" x2="717.0362" y2="154.7848">
				<stop  offset="0" style="stop-color:#4C5FBF"/>
				<stop  offset="0.3" style="stop-color:#4889D1"/>
				<stop  offset="0.5" style="stop-color:#47AADD"/>
				<stop  offset="1" style="stop-color:#FE9934"/>
			</linearGradient>
			<path style="fill:url(#SVGID_00000152231391681387475240000015370165563196239752_);" d="M449.43,137.81
				c5.52,0,9.6,3.78,10.86,5.34c0.24,0.3-0.3,0.6-0.48,0.78c-1.02,0.84-2.28,2.22-3.12,3.36c-0.18,0.24-0.36,0.3-0.54,0
				c-1.2-2.4-4.68-7.56-8.52-7.56c-3.54,0-5.52,2.88-5.52,6.78V160c0,7.8-8.58,11.76-12.24,11.76c-1.02,0-0.78-0.42-0.3-0.54
				c3.66-1.02,7.32-5.16,7.32-9.66v-15C436.89,141.59,442.11,137.81,449.43,137.81z M436.89,158.92c-0.06,0-0.06,0-0.06,0H436.89z"
				/>
			
				<linearGradient id="SVGID_00000139274505524552996700000004662366555501734816_" gradientUnits="userSpaceOnUse" x1="399" y1="154.7848" x2="717.0362" y2="154.7848">
				<stop  offset="0" style="stop-color:#4C5FBF"/>
				<stop  offset="0.3" style="stop-color:#4889D1"/>
				<stop  offset="0.5" style="stop-color:#47AADD"/>
				<stop  offset="1" style="stop-color:#FE9934"/>
			</linearGradient>
			<path style="fill:url(#SVGID_00000139274505524552996700000004662366555501734816_);" d="M482.43,137.81
				c5.52,0,9.6,3.78,10.86,5.34c0.24,0.3-0.3,0.6-0.48,0.78c-1.02,0.84-2.28,2.22-3.12,3.36c-0.18,0.24-0.36,0.3-0.54,0
				c-1.2-2.4-4.68-7.56-8.52-7.56c-3.54,0-5.52,2.88-5.52,6.78v7.98c3-1.68,5.28-3.9,5.28-4.8c0-0.24-1.02-0.66,0-0.9
				c1.98-0.42,3.18-0.6,4.98-1.02c1.32-0.3,0.48,2.04-1.26,3.78c-2.16,2.16-5.94,3.48-9,4.08V160c0,7.8-8.58,11.76-12.24,11.76
				c-1.02,0-0.78-0.42-0.3-0.54c3.66-1.02,7.32-5.16,7.32-9.66v-15C469.89,141.59,475.11,137.81,482.43,137.81z M469.89,158.92
				c-0.06,0-0.06,0-0.06,0H469.89z"/>
			
				<linearGradient id="SVGID_00000182494187865301306110000003240599403376874405_" gradientUnits="userSpaceOnUse" x1="399" y1="154.7848" x2="717.0362" y2="154.7848">
				<stop  offset="0" style="stop-color:#4C5FBF"/>
				<stop  offset="0.3" style="stop-color:#4889D1"/>
				<stop  offset="0.5" style="stop-color:#47AADD"/>
				<stop  offset="1" style="stop-color:#FE9934"/>
			</linearGradient>
			<path style="fill:url(#SVGID_00000182494187865301306110000003240599403376874405_);" d="M515.43,137.81
				c5.52,0,9.6,3.78,10.86,5.34c0.24,0.3-0.3,0.6-0.48,0.78c-1.02,0.84-2.28,2.22-3.12,3.36c-0.18,0.24-0.36,0.3-0.54,0
				c-1.2-2.4-4.68-7.56-8.52-7.56c-3.54,0-5.52,2.88-5.52,6.78v7.98c3-1.68,5.28-3.9,5.28-4.8c0-0.24-1.02-0.66,0-0.9
				c1.98-0.42,3.18-0.6,4.98-1.02c1.32-0.3,0.48,2.04-1.26,3.78c-2.16,2.16-5.94,3.48-9,4.08V160c0,1.08-0.18,2.16-0.48,3.06
				c3.24-1.68,5.76-4.08,5.76-5.04c0-0.24-1.02-0.66,0-0.9c1.98-0.42,3.18-0.6,4.98-1.02c1.32-0.3,0.48,2.04-1.26,3.78
				c-2.4,2.34-6.72,3.78-9.9,4.2c-2.22,5.1-8.4,7.68-11.34,7.68c-1.02,0-0.78-0.42-0.3-0.54c3.66-1.02,7.32-5.16,7.32-9.66v-15
				C502.89,141.59,508.11,137.81,515.43,137.81z M502.89,158.92c-0.06,0-0.06,0-0.06,0H502.89z"/>
			
				<linearGradient id="SVGID_00000036945442902888680480000005969718696643628173_" gradientUnits="userSpaceOnUse" x1="399" y1="150.5805" x2="717.0362" y2="150.5805">
				<stop  offset="0" style="stop-color:#4C5FBF"/>
				<stop  offset="0.3" style="stop-color:#4889D1"/>
				<stop  offset="0.5" style="stop-color:#47AADD"/>
				<stop  offset="1" style="stop-color:#FE9934"/>
			</linearGradient>
			<path style="fill:url(#SVGID_00000036945442902888680480000005969718696643628173_);" d="M537.99,137.81
				c6.54,0,15.6,18.12,17.46,21.66c0,0-1.2,0.48-2.22,1.26c-1.08,0.78-1.62,1.32-2.46,2.1h-11.7c-0.72,0-5.52,0.18-6.3,0.3
				c-2.04,0.36-2.28,0.3-1.62-0.18c0.42-0.3,2.7-2.58,3.54-3.36l0.12-0.12h14.94c-1.98-4.14-10.98-19.14-12.72-19.14
				c-2.22,0-3.24,3.06-3.24,4.08c0,1.56,0.6,2.16,1.02,2.88c0.24,0.42,0,0.6-0.24,0.96c-0.78,1.08-1.62,2.58-1.86,3.42
				c-0.12,0.24-0.3,0.48-0.66,0.24c-1.2-0.78-1.8-2.58-1.8-3.96C530.25,142.24,534.93,137.81,537.99,137.81z"/>
			
				<linearGradient id="SVGID_00000040547434848434632020000002569541827635540098_" gradientUnits="userSpaceOnUse" x1="399" y1="153.255" x2="717.0362" y2="153.255">
				<stop  offset="0" style="stop-color:#4C5FBF"/>
				<stop  offset="0.3" style="stop-color:#4889D1"/>
				<stop  offset="0.5" style="stop-color:#47AADD"/>
				<stop  offset="1" style="stop-color:#FE9934"/>
			</linearGradient>
			<path style="fill:url(#SVGID_00000040547434848434632020000002569541827635540098_);" d="M576.75,152.62
				c-5.76,3.12-10.38,6.24-11.34,10.44c-0.42,1.92,0,2.58,1.38,3.36c0.42,0.24,0.42,0.36,0,0.42c-1.44,0.18-4.38,1.26-5.64,1.74
				c-0.9-0.42-1.92-1.2-1.92-3.24c0-3.72,6.3-7.98,17.52-14.28v-5.52c0-2.64-2.82-4.5-6.78-4.5c-2.58,0-6.48,1.38-10.5,4.5
				c-0.6,0.48-1.32,0.06-0.9-0.48c1.62-2.1,5.28-7.14,13.98-7.14c5.76,0,9.42,2.52,9.42,4.98v17.52c0,5.82,4.74,6.9,7.2,7.44
				c0.42,0.12,0.3,0.42-0.06,0.42c-5.4,0-12.36-0.66-12.36-8.94v-2.04c0-0.12,0-0.3,0-0.6V152.62z M576.75,157.3
				c-0.06,0-0.06,0-0.06,0H576.75z"/>
			
				<linearGradient id="SVGID_00000121999201900518113090000001179606598288290489_" gradientUnits="userSpaceOnUse" x1="399" y1="150.1353" x2="717.0362" y2="150.1353">
				<stop  offset="0" style="stop-color:#4C5FBF"/>
				<stop  offset="0.3" style="stop-color:#4889D1"/>
				<stop  offset="0.5" style="stop-color:#47AADD"/>
				<stop  offset="1" style="stop-color:#FE9934"/>
			</linearGradient>
			<path style="fill:url(#SVGID_00000121999201900518113090000001179606598288290489_);" d="M592.11,162.82c0,0,0,0,0.06,0H592.11z
				 M612.39,151.07c7.56-3.12,6.3-13.56-0.36-13.62c-2.82,0-4.74,2.04-7.14,5.7l-12.72,19.68h19.38l0.12-0.12
				c0.84-0.78,3.12-3.06,3.54-3.36c0.66-0.48,0.42-0.54-1.62-0.18c-0.78,0.12-5.58,0.3-6.3,0.3h-10.68l9.48-14.7
				c2.04-3.18,2.7-3.72,4.02-3.72c3.84,0,4.5,6.06,2.16,9.48C611.85,151.12,612.21,151.12,612.39,151.07z"/>
			
				<linearGradient id="SVGID_00000115504867093388574730000011458595413777635460_" gradientUnits="userSpaceOnUse" x1="399" y1="154.986" x2="717.0362" y2="154.986">
				<stop  offset="0" style="stop-color:#4C5FBF"/>
				<stop  offset="0.3" style="stop-color:#4889D1"/>
				<stop  offset="0.5" style="stop-color:#47AADD"/>
				<stop  offset="1" style="stop-color:#FE9934"/>
			</linearGradient>
			<path style="fill:url(#SVGID_00000115504867093388574730000011458595413777635460_);" d="M640.28,143.15v16.74
				c0,0,5.28-4.74,7.2-4.74c2.7,0,7.02,1.44,7.02,6.54c0,3.9-5.16,9.24-8.82,9.24c-2.22,0-4.32-0.72-5.82-2.04l-2.88,1.56
				c-0.18,0.12-1.38,0.9-1.56,1.08c-0.48,0.42-0.54,0.42-0.48,0.12c0.06-0.18,0.12-1.38,0.12-1.98v-23.64
				c0-6.66-7.38-5.16-11.28-1.92c-1.14,0.96-0.9,0-0.48-0.54C630.86,134.09,640.28,139.01,640.28,143.15z M646.52,169.06
				c1.8,0,3.06-1.32,3.06-3.54c0-6.3-3.9-7.32-4.86-6.6l-4.44,3.18v0.48C640.28,165.52,645.44,169.06,646.52,169.06z"/>
			
				<linearGradient id="SVGID_00000101797952986968929290000013839419530362147490_" gradientUnits="userSpaceOnUse" x1="399" y1="154.986" x2="717.0362" y2="154.986">
				<stop  offset="0" style="stop-color:#4C5FBF"/>
				<stop  offset="0.3" style="stop-color:#4889D1"/>
				<stop  offset="0.5" style="stop-color:#47AADD"/>
				<stop  offset="1" style="stop-color:#FE9934"/>
			</linearGradient>
			<path style="fill:url(#SVGID_00000101797952986968929290000013839419530362147490_);" d="M679.64,155.15
				c2.7,0,7.02,1.44,7.02,6.54c0,3.9-5.16,9.24-8.82,9.24c-2.22,0-4.32-0.72-5.82-2.04l-2.88,1.56c-0.18,0.12-1.38,0.9-1.56,1.08
				c-0.48,0.42-0.54,0.42-0.48,0.12c0.06-0.18,0.12-1.38,0.12-1.98v-15c0-6.66-7.38-5.16-11.28-1.92c-1.14,0.96-0.9,0-0.48-0.54
				c3.96-4.98,8.4-6,11.76-5.22v-0.96c0-6.66-7.38-5.16-11.28-1.92c-1.14,0.96-0.9,0-0.48-0.54c7.56-9.48,16.98-4.56,16.98-0.42
				v16.74C672.44,159.88,677.72,155.15,679.64,155.15z M678.68,169.06c1.8,0,3.06-1.32,3.06-3.54c0-6.3-3.9-7.32-4.86-6.6
				l-4.44,3.18v0.48C672.44,165.52,677.6,169.06,678.68,169.06z"/>
			
				<linearGradient id="SVGID_00000034792688733366002820000013586136770696959130_" gradientUnits="userSpaceOnUse" x1="399" y1="154.986" x2="717.0362" y2="154.986">
				<stop  offset="0" style="stop-color:#4C5FBF"/>
				<stop  offset="0.3" style="stop-color:#4889D1"/>
				<stop  offset="0.5" style="stop-color:#47AADD"/>
				<stop  offset="1" style="stop-color:#FE9934"/>
			</linearGradient>
			<path style="fill:url(#SVGID_00000034792688733366002820000013586136770696959130_);" d="M711.8,155.15
				c2.7,0,7.02,1.44,7.02,6.54c0,3.9-5.16,9.24-8.82,9.24c-2.22,0-4.32-0.72-5.82-2.04l-2.88,1.56c-0.18,0.12-1.38,0.9-1.56,1.08
				c-0.48,0.42-0.54,0.42-0.48,0.12c0.06-0.18,0.12-1.38,0.12-1.98v-6.54c0-6.66-7.38-5.16-11.28-1.92c-1.14,0.96-0.9,0-0.48-0.54
				c3.96-4.98,8.4-6,11.76-5.22v-0.78c0-6.66-7.38-5.16-11.28-1.92c-1.14,0.96-0.9,0-0.48-0.54c3.96-4.98,8.4-6,11.76-5.22v-0.96
				c0-6.66-7.38-5.16-11.28-1.92c-1.14,0.96-0.9,0-0.48-0.54c7.56-9.48,16.98-4.56,16.98-0.42v16.74
				C704.6,159.88,709.88,155.15,711.8,155.15z M710.84,169.06c1.8,0,3.06-1.32,3.06-3.54c0-6.3-3.9-7.32-4.86-6.6l-4.44,3.18v0.48
				C704.6,165.52,709.76,169.06,710.84,169.06z"/>
		</g>
	</g>
</g>
<g id="图层_3">
	<g>
		<path class="st123" d="M654.9,35.83c-0.45-0.33-0.99-0.73-1.59-1.18c-8.71-6.48-13.13-9.19-17.97-9.19
			c-1.95,0-3.54,0.41-4.84,1.02c-1.76-0.69-3.39-1.02-5.06-1.02c-2.07,0-3.75,0.46-5.09,1.14c-3.21-2.6-7.6-4.14-12.67-4.14
			c-2.32,0-4.69,0.31-7.08,0.93c-2.14-0.58-4.42-0.87-6.83-0.87c-4.66,0-8.62,1.08-11.9,2.81l-1.32-3.64
			c-0.04-0.1-0.08-0.21-0.12-0.31c-0.94-2.36-2.68-4.22-4.83-5.31c-1.82-1.59-4.18-2.49-6.68-2.49h-3.9c-2.53,0-4.92,0.93-6.76,2.56
			c-2.08,1.1-3.76,2.92-4.68,5.22c-0.05,0.12-0.1,0.25-0.14,0.37l-0.32,0.9c-6-5.89-14.28-9.6-23.26-9.6
			c-10.6,0-19.67,5.17-25.39,13.47c-1.31-0.63-2.93-1.05-4.91-1.05c-1.67,0-3.29,0.33-5.06,1.02c-1.3-0.61-2.89-1.02-4.84-1.02
			c-4.84,0-9.26,2.71-17.97,9.19c-0.6,0.45-1.14,0.85-1.59,1.18c-2.59,1.88-4.12,4.89-4.12,8.09s1.53,6.21,4.12,8.09
			c0.45,0.33,0.99,0.73,1.59,1.17c8.71,6.49,13.13,9.2,17.98,9.2c1.95,0,3.54-0.41,4.84-1.02c1.76,0.69,3.39,1.02,5.06,1.02
			c0.36,0,0.71-0.02,1.05-0.05c3.17,7.23,8.81,10.61,14.43,10.61c1.91,0,3.84-0.41,5.71-1.14c1.56,2.48,4.16,4.2,7.2,4.73
			c-9.31,1.96-17.34,7.47-22.25,14.84c-0.67-1.42-3.28-5.91-9.74-5.91c-4.84,0-9.26,2.71-17.97,9.19c-0.6,0.45-1.14,0.85-1.59,1.18
			c-2.59,1.88-4.12,4.89-4.12,8.09s1.53,6.21,4.12,8.09c0.45,0.33,0.99,0.73,1.59,1.17c8.71,6.49,13.13,9.2,17.98,9.2
			c3.54,0,5.91-1.34,7.46-2.79c3.46,6.43,9.61,10.09,15.67,10.17c1.22,3.71,4.81,7.2,10.55,7.2c0,0,0.62,0,0.62,0
			c3.76,0,11.11-0.53,18.12-4.06c10.37-5.23,16.08-15.01,16.08-27.54c0-0.65-0.02-1.3-0.05-1.93c0.84,0.23,1.71,0.35,2.59,0.35h3.06
			c0.87,0,1.73-0.12,2.57-0.34c-0.77,1.88-1.23,3.92-1.23,6.06c0,7.68,5.95,15.94,19,15.94c2.09,0,4.12-0.21,6.06-0.63
			c4.26,2.33,8.17,3.51,11.64,3.51c5.55,0,10.55-2.61,13.47-6.91c1.28,0.58,2.83,0.97,4.72,0.97c4.84,0,9.27-2.71,17.98-9.2
			c0.6-0.45,1.13-0.85,1.59-1.17c2.59-1.88,4.12-4.89,4.12-8.09s-1.53-6.21-4.12-8.09c-0.45-0.33-0.99-0.73-1.59-1.18
			c-8.71-6.48-13.12-9.19-17.97-9.19c-4.61,0-7.25,2.28-8.64,4.1c-1.63-1.08-3.55-1.69-5.55-1.69c-1.64,0-2.95,0.39-3.88,0.77
			c-2.24-3.82-6.66-6.66-13.56-6.66c-4.46,0-8.28,1.07-11.36,2.79c-0.22-0.79-0.53-1.56-0.94-2.29l-1.51-2.67
			c-1.14-1.99-2.9-3.5-4.96-4.34c-1.7-1.21-3.77-1.9-5.88-1.9h-3c-2.17,0-4.28,0.72-6.01,1.99c-2.05,0.86-3.77,2.39-4.89,4.41
			l-1.27,2.23c-4.5-3.79-10.4-6.05-17.38-6.41c14.29-3.45,25.26-16.23,25.26-30.92c0-0.45-0.02-0.91-0.04-1.36
			c0.87,0.24,1.77,0.37,2.69,0.37c0,0,0,0,0,0c0.54,0,1.11-0.04,1.69-0.13c0.56,0.08,1.1,0.12,1.62,0.12c0.53,0,1.05-0.05,1.57-0.13
			c0.27,1.45,0.84,2.83,1.72,4.06c0.97,1.35,2.27,2.42,3.74,3.14c0.23,8.32,6.2,14.3,14.37,14.3c3.28,0,7.05-0.95,10.64-2.72v1.6
			c0,0.15-0.01,0.37-0.02,0.56c-0.43,2.88,0.35,5.75,2.15,7.96c1.9,2.32,4.77,3.68,7.77,3.68c0,0,0,0,0,0
			c3.43,0,5.72-1.69,6.74-2.54c0.14-0.1,0.29-0.2,0.43-0.29l2.94-1.6c3.21-1.75,5.21-5.12,5.21-8.78v-0.76
			c1.49-0.06,2.96-0.38,4.54-1c1.3,0.61,2.89,1.02,4.84,1.02c4.84,0,9.27-2.71,17.98-9.2c0.6-0.44,1.13-0.84,1.59-1.17
			c2.59-1.88,4.12-4.89,4.12-8.09S657.49,37.71,654.9,35.83z"/>
	</g>
	<g>
		<path class="st291" d="M481.92,43.92c3.54,2.4,6.3,5.64,7.92,7.5c0.66,0.78,0.78,0.96-0.18,0.96c-2.7,0-10.38-6.06-13.68-8.46
			c3.3-2.4,10.98-8.46,13.68-8.46c0.96,0,0.84,0.18,0.18,0.96C488.22,38.28,485.46,41.52,481.92,43.92z M491.82,43.92
			c3.54,2.4,6.3,5.64,7.92,7.5c0.66,0.78,0.78,0.96-0.18,0.96c-2.7,0-10.38-6.06-13.68-8.46c3.3-2.4,10.98-8.46,13.68-8.46
			c0.96,0,0.84,0.18,0.18,0.96C498.12,38.28,495.36,41.52,491.82,43.92z"/>
		<path class="st291" d="M519.12,37.02c-0.6-0.12-1.68-0.18-2.22-0.18s-0.54-0.3-0.3-0.42c2.76-1.14,4.74-2.52,7.5-4.14
			c1.32-0.78,2.16,0.96,2.16,2.46v3.06c2.46-2.64,5.76-5.28,10.14-5.28c3.12,0,5.7,1.2,6.6,2.28c-0.3,0.18-2.94,2.64-3.36,3.3
			c-1.2-1.2-3.36-2.22-6.36-2.22c-2.94,0-4.62,1.8-7.02,4.2v5.64c2.94-1.62,7.38-4.56,9.24-4.56c4.02,0,7.5,2.58,7.5,6.96
			c0,4.86-6.06,6.72-9.84,6.72c-3.18,0-5.52-3.6-6.9-5.04c0,5.94-6.66,13.14-11.22,13.14c-4.44,0-7.02-6.66-7.02-14.64
			c0-15.48,9.78-25.26,21.84-25.26s22.86,9.78,22.86,21.84s-10.74,21.78-22.8,21.84c-1.02,0-0.96-0.72,0.06-1.02
			c7.56-2.46,17.76-8.76,17.76-21.36c0-9.12-8.22-18.72-17.88-18.72c-9.66,0-16.86,9.6-16.86,20.76c0,4.08,0.96,13.32,4.92,13.32
			c2.7,0,3.12-4.32,3.12-6.06V39.36C521.04,37.92,520.62,37.32,519.12,37.02z M534.78,52.56c2.4,0,2.94-0.18,2.94-2.88
			c0-3.3-2.82-5.52-4.74-5.52c-1.68,0-4.08,2.16-6.18,3.12C528.9,49.8,532.2,52.56,534.78,52.56z"/>
		<path class="st291" d="M561.54,28.8l1.32-3.72c0.24-0.6,1.98,1.5,3.42,2.58c0.24,0.18,0.48,0.3,0.66,0.42
			c0.24-0.06,0.48-0.24,0.72-0.42c-0.06,0.3-0.12,0.54-0.18,0.78c0.18,0.18,0.42,0.36,0.72,0.54c-0.3,0-0.6,0.06-0.84,0.12
			c-0.12,0.18-0.24,0.36-0.3,0.6l-0.24-0.48c-0.3-0.12-0.66-0.18-1.02-0.18c0.24-0.18,0.48-0.3,0.66-0.48c0-0.24-0.12-0.6-0.18-0.9
			c-0.54-1.74-1.92-4.08-1.26-4.08h3.9c0.66,0-0.72,2.34-1.26,4.08c1.44-1.02,3.24-3.18,3.48-2.58l1.32,3.66
			c0.18,0.66-2.46,0.18-4.26,0.24c1.5,0.96,4.08,1.92,3.6,2.34l-3,2.52c-0.54,0.42-1.02-2.52-1.74-4.14
			c-0.78,1.56-1.26,4.62-1.8,4.14l-3.06-2.52c-0.42-0.36,2.1-1.32,3.6-2.28C564,28.92,561.3,29.4,561.54,28.8z M566.64,28.38
			l0.36,0.3h-0.54v-0.12L566.64,28.38z M566.64,28.98l0.36-0.3l-0.18,0.54L566.64,28.98z M567.48,28.68H567l-0.18-0.54l0.12-0.06
			l0.24,0.12L567,28.68l0.42-0.36l0.06,0.12V28.68z M567.18,29.16L567,28.68l0.42,0.36l-0.06,0.06L567.18,29.16z"/>
		<path class="st291" d="M605.88,35.58c-0.96,0-1.98,0.12-3,0.3c1.44,1.56,2.22,3.6,2.22,5.88c0,8.34-10.08,13.5-15,13.5
			c-3.3,0-4.38-2.28-4.38-4.8c0-5.34,4.8-11.1,10.8-14.58c-1.32-1.08-3-1.44-4.62-1.44c-4.5,0-7.26,2.7-7.26,4.68
			c0,0.48-0.12,0.66-0.3,0.72c-1.74,0.6-2.76,1.14-3.72,1.92c-0.3,0.24-0.72,0.48-0.48-0.24c0.66-1.8,3.84-9,13.62-9
			c2.64,0,4.86,0.54,6.6,1.44c2.46-0.96,4.98-1.5,7.32-1.5c4.62,0,8.28,2.1,8.28,5.88v24.78l-3.3,1.8c-0.18,0.12-1.38,0.9-1.56,1.08
			c-0.48,0.42-0.54,0.42-0.48,0.12c0.06-0.18,0.12-1.38,0.12-1.98V41.1C610.74,36.54,608.94,35.58,605.88,35.58z M591.54,53.28
			c4.44,0,7.44-4.5,7.44-10.56c0-2.28-0.42-4.02-1.14-5.22c-5.46,2.46-10.02,7.08-10.02,11.88
			C587.82,51.72,588.9,53.28,591.54,53.28z"/>
		<path class="st291" d="M625.44,35.46c2.7,0,10.38,6.06,13.68,8.46c-3.3,2.4-10.98,8.46-13.68,8.46c-0.96,0-0.84-0.18-0.18-0.96
			c1.62-1.86,4.38-5.1,7.92-7.5c-3.54-2.4-6.3-5.64-7.92-7.5C624.6,35.64,624.48,35.46,625.44,35.46z M635.34,35.46
			c2.7,0,10.38,6.06,13.68,8.46c-3.3,2.4-10.98,8.46-13.68,8.46c-0.96,0-0.84-0.18-0.18-0.96c1.62-1.86,4.38-5.1,7.92-7.5
			c-3.54-2.4-6.3-5.64-7.92-7.5C634.5,35.64,634.38,35.46,635.34,35.46z"/>
		
			<linearGradient id="SVGID_00000008869789071088288400000016151450125882031785_" gradientUnits="userSpaceOnUse" x1="470.5502" y1="103.9174" x2="643.3431" y2="103.9174">
			<stop  offset="0" style="stop-color:#4C5FBF"/>
			<stop  offset="0.3" style="stop-color:#4889D1"/>
			<stop  offset="0.5" style="stop-color:#47AADD"/>
			<stop  offset="1" style="stop-color:#FE9934"/>
		</linearGradient>
		<path style="fill:url(#SVGID_00000008869789071088288400000016151450125882031785_);" d="M488.22,103.92
			c3.54,2.4,6.3,5.64,7.92,7.5c0.66,0.78,0.78,0.96-0.18,0.96c-2.7,0-10.38-6.06-13.68-8.46c3.3-2.4,10.98-8.46,13.68-8.46
			c0.96,0,0.84,0.18,0.18,0.96C494.52,98.28,491.76,101.52,488.22,103.92z M495.3,103.32c0-1.14,0.96-2.1,2.16-2.1
			c1.14,0,2.1,0.96,2.1,2.1c0,1.2-0.96,2.16-2.1,2.16C496.26,105.48,495.3,104.52,495.3,103.32z"/>
		
			<linearGradient id="SVGID_00000180365128793142348170000008398583536723528860_" gradientUnits="userSpaceOnUse" x1="470.5502" y1="106.3501" x2="643.3576" y2="106.3501">
			<stop  offset="0" style="stop-color:#4C5FBF"/>
			<stop  offset="0.3" style="stop-color:#4889D1"/>
			<stop  offset="0.5" style="stop-color:#47AADD"/>
			<stop  offset="1" style="stop-color:#FE9934"/>
		</linearGradient>
		<path style="fill:url(#SVGID_00000180365128793142348170000008398583536723528860_);" d="M535.08,95.04c4.5,0,9.84,4.98,9.84,10.2
			c0,5.58-6.06,9.6-9.84,9.6c-3.78,0-6.06-4.14-7.14-6.24c0,5.76-3.96,11.16-8.64,11.16c-4.08,0-8.7-4.14-8.7-11.94
			c0-11.22,10.56-22.08,24.84-22.08c12.6,0,19.02,7.86,19.02,19.62c0,22.5-23.52,21.6-24.84,21.6c-0.6,0-1.8-0.18-0.3-0.9
			c4.14-1.98,19.74-4.8,19.74-21.6c0-12.54-8.7-16.32-15.12-16.32c-7.26,0-17.94,5.58-17.94,19.56c0,6.24,1.38,8.82,3.54,8.82
			c2.7,0,3.42-4.14,3.42-9v-5.64c0-0.6-1.2-0.66-1.2-1.02C521.76,99.72,530.7,95.04,535.08,95.04z M528.06,103.74
			c0.06,3.06,5.34,8.82,8.64,8.82c2.04,0,2.94-2.28,2.94-5.76c0-7.14-3.3-8.76-7.74-8.76c-1.14,0-2.34,0.12-3.96,0.78L528.06,103.74
			z"/>
		
			<linearGradient id="SVGID_00000001630710943249262440000014825868959245630133_" gradientUnits="userSpaceOnUse" x1="470.5502" y1="88.6782" x2="643.3576" y2="88.6782">
			<stop  offset="0" style="stop-color:#4C5FBF"/>
			<stop  offset="0.3" style="stop-color:#4889D1"/>
			<stop  offset="0.5" style="stop-color:#47AADD"/>
			<stop  offset="1" style="stop-color:#FE9934"/>
		</linearGradient>
		<path style="fill:url(#SVGID_00000001630710943249262440000014825868959245630133_);" d="M563.34,89.94
			c-0.24-0.42,2.4-0.72,4.08-1.26l0.66-0.24l-0.12-0.66l0.54,0.42l0.54-0.42l-0.12,0.66l0.66,0.24l-0.66,0.24l0.12,0.66l-0.48-0.42
			l-0.54,0.42l0.12-0.66l-0.72-0.24c-1.68-0.54-4.32-0.78-4.08-1.2l1.5-2.64c0.24-0.48,1.86,1.8,3.12,2.94
			c-0.36-1.74-1.44-4.2-0.96-4.2h3c0.48,0-0.6,2.46-0.96,4.2c1.26-1.2,2.88-3.42,3.12-3l1.5,2.64c0.24,0.42-2.4,0.72-4.08,1.26
			c1.68,0.54,4.32,0.78,4.08,1.2l-1.5,2.64c-0.24,0.42-1.8-1.74-3.12-2.94c0.42,1.74,1.5,4.2,1.02,4.2H567
			c-0.48,0,0.6-2.46,1.02-4.2c-1.32,1.2-2.94,3.42-3.18,3L563.34,89.94z M568.32,89.04l-0.18-0.12v-0.24h-0.06v-0.24l0.24-0.12
			l0.18,0.36l-0.18-0.36l0.18-0.12l0.18,0.12l-0.18,0.36l0.24,0.36l-0.24-0.36l0.24-0.36l0.18,0.12v0.24v0.24l-0.18,0.12l-0.18,0.12
			L568.32,89.04z M568.32,89.04l0.18-0.36L568.32,89.04z"/>
		
			<linearGradient id="SVGID_00000132048926131972009840000006771927360350929823_" gradientUnits="userSpaceOnUse" x1="470.5502" y1="105.1474" x2="643.3576" y2="105.1474">
			<stop  offset="0" style="stop-color:#4C5FBF"/>
			<stop  offset="0.3" style="stop-color:#4889D1"/>
			<stop  offset="0.5" style="stop-color:#47AADD"/>
			<stop  offset="1" style="stop-color:#FE9934"/>
		</linearGradient>
		<path style="fill:url(#SVGID_00000132048926131972009840000006771927360350929823_);" d="M612.12,97.92
			c-0.36,1.56-2.4,4.2-2.88,4.2h-2.82c-0.3,3.54-2.04,6.96-4.98,9.42c3.96,2.64,7.86,4.5,9.9,4.5c1.2,0,1.5-0.66,2.04-1.14
			c0.42-0.42,0.66-0.42,0.24,0.36c-1.38,2.7-4.32,3.06-5.52,3.06c-2.64,0-6.48-1.8-10.32-4.44c-2.16,1.02-4.62,1.56-7.38,1.56
			c-6,0-9-2.7-9-5.94c0-3.06,2.76-5.94,4.62-6.78c-0.96-1.56-1.56-3-1.56-4.14c0-2.76,3.3-6.6,10.2-6.6c3.66,0,5.34,1.08,5.34,3.36
			c0,4.26-5.76,6.54-8.82,6.84c2.04,2.88,5.52,6,9.06,8.52c1.38-1.56,2.4-4.2,2.64-8.58h-3.3c-0.48,0,1.68-3.36,2.82-3.36h6.48
			C611.1,98.76,612.18,97.62,612.12,97.92z M593.58,113.04c0.84,0,1.74,0,2.7-0.18c-3.48-2.58-6.84-5.64-9.06-8.52
			c-0.54,0.6-1.02,1.8-1.02,2.82C586.2,110.46,591.06,113.04,593.58,113.04z M590.4,100.98c3.12-0.12,5.34-2.4,5.34-4.92
			c0-1.98-1.32-2.16-2.28-2.16c-2.76,0-4.2,1.5-4.2,3.48C589.26,98.46,589.68,99.72,590.4,100.98z"/>
		
			<linearGradient id="SVGID_00000029749999500887046580000007466532893414898346_" gradientUnits="userSpaceOnUse" x1="470.5502" y1="103.9174" x2="643.3431" y2="103.9174">
			<stop  offset="0" style="stop-color:#4C5FBF"/>
			<stop  offset="0.3" style="stop-color:#4889D1"/>
			<stop  offset="0.5" style="stop-color:#47AADD"/>
			<stop  offset="1" style="stop-color:#FE9934"/>
		</linearGradient>
		<path style="fill:url(#SVGID_00000029749999500887046580000007466532893414898346_);" d="M622.68,103.32c0-1.14,0.96-2.1,2.1-2.1
			c1.2,0,2.16,0.96,2.16,2.1c0,1.2-0.96,2.16-2.16,2.16C623.64,105.48,622.68,104.52,622.68,103.32z M626.28,95.46
			c2.7,0,10.38,6.06,13.68,8.46c-3.3,2.4-10.98,8.46-13.68,8.46c-0.96,0-0.84-0.18-0.18-0.96c1.62-1.86,4.38-5.1,7.92-7.5
			c-3.54-2.4-6.3-5.64-7.92-7.5C625.44,95.64,625.32,95.46,626.28,95.46z"/>
	</g>
</g>
<g id="Editable" class="st0">
</g>
</svg>
