<svg id="图层_1" data-name="图层 1" xmlns="http://www.w3.org/2000/svg" xmlns:xlink="http://www.w3.org/1999/xlink" viewBox="0 0 1125 197"><defs><style>.cls-1{fill:url(#未命名的渐变_37);}.cls-2{fill:url(#未命名的渐变_37-2);}</style><linearGradient id="未命名的渐变_37" x1="255.8" y1="138.29" x2="316.73" y2="138.29" gradientUnits="userSpaceOnUse"><stop offset="0" stop-color="#4c5fbf"/><stop offset="0.3" stop-color="#4889d1"/><stop offset="0.5" stop-color="#47aadd"/><stop offset="1" stop-color="#fe9934"/></linearGradient><linearGradient id="未命名的渐变_37-2" x1="845.76" y1="138.34" x2="902.07" y2="138.34" xlink:href="#未命名的渐变_37"/></defs><path d="M166.53,82.93c-1.62.66-3,2.58-7,2.58-6.54,0-19.44-4.44-19.44-13.68,0-12.18,21.84-17.58,26.4-19.14Zm-5.28-1.14V56.17c-6.12,2.52-14.34,8.22-14.34,14.46S154.71,80.11,161.25,81.79Z"/><path d="M183.21,61.09c8.16,0,12.24,5.34,12.24,10.68,0,8.28-9.78,11.58-14.64,11.94-.72.06-.6-.42,0-.66,4.74-2,8-4,8.46-8.82h-7.44c-.72,0-5.52.18-6.3.3-2,.36-2.28.3-1.62-.18.42-.3,2.7-2.58,3.54-3.36l.12-.12h11.64c-.72-5.52-4-7.86-7.14-7.86-4.32,0-7.08,2.7-7.08,4.68,0,.48-.12.66-.3.72A11.25,11.25,0,0,0,171,70.33c-.3.24-.72.48-.48-.24C171.15,68.29,174.33,61.09,183.21,61.09Z"/><path d="M224.61,74.17c0,6.3-3.78,9.12-7.62,9.12-8.76,0-9.6-7.56-9.6-5v3.12l-3.3,1.8c-.18.12-1.38.9-1.56,1.08-.48.42-.54.42-.48.12a15,15,0,0,0,.12-2V68.29c0-1.44-.42-2-1.92-2.34a14.42,14.42,0,0,0-2.22-.18c-.54,0-.54-.3-.3-.42a58.27,58.27,0,0,0,7.5-4.14c1.32-.78,2.16,1,2.16,2.46v8c0,4.26,2,6.84,7.2,6.84,2.46,0,5.88-1.14,5.88-6.24,0-4.32-1.56-5.64-4.14-7.08a3.58,3.58,0,0,0-2.4-.3c-.72.18-1,.12-1-.12a3.17,3.17,0,0,1,.54-.66l2.94-2.7h4.14c.72,0,5.52-.18,6.3-.3,2-.36,2.28-.3,1.62.18-.42.3-2.7,2.58-3.54,3.36l-.12.12H220C217,64.75,224.61,65.77,224.61,74.17Z"/><path d="M242.91,61c5.76,0,9.42,2.52,9.42,5V91.69l-3.3,1.8c-.18.12-1.38.9-1.56,1.08-.48.42-.54.42-.48.12a15,15,0,0,0,.12-2V68.65c0-2.64-2.82-4.5-6.78-4.5-2.58,0-6.48,1.38-10.5,4.5-.6.48-1.32.06-.9-.48A16.16,16.16,0,0,1,242.91,61Z"/><path d="M259.53,65.77a14.42,14.42,0,0,0-2.22-.18c-.54,0-.54-.3-.3-.42a58.27,58.27,0,0,0,7.5-4.14c1.32-.78,2.16,1,2.16,2.46v2.34c2.4-2.7,6.9-5,9.54-5,2.88,0,7.62,2.7,7.62,7,0,3.3-2.7,5.82-6.06,6.78V85.51c0,5.4,1.5,7.38,4,7.38a6.27,6.27,0,0,0,4.62-2.46c.3-.36.66.06.48.48-.9,1.92-3.9,5-6.78,5-4.74,0-7.5-3.06-7.5-9.12v-12a5.62,5.62,0,0,1-1-.24c-.78-.24-1-.78,0-1,1.32-.24,6.12-.54,6.12-5,0-2.76-1.68-5.16-4.74-5.16-2,0-5,2.52-6.3,4.14V81l-3.3,1.8c-.18.12-1.38.9-1.56,1.08-.48.42-.54.42-.48.12a15,15,0,0,0,.12-2V68.11C261.45,66.67,261,66.07,259.53,65.77Z"/><path d="M291,65.59a14.42,14.42,0,0,0-2.22-.18c-.54,0-.54-.3-.3-.42a58.27,58.27,0,0,0,7.5-4.14c1.32-.78,2.16,1,2.16,2.46v3.06c2.46-2.64,5.76-5.28,10.14-5.28,3.12,0,5.7,1.2,6.6,2.28a28.53,28.53,0,0,0-3.36,3.3,8.92,8.92,0,0,0-6.36-2.22c-2.94,0-4.62,1.8-7,4.2v5.64c2.94-1.62,7.38-4.56,9.24-4.56,4,0,7.5,2.58,7.5,7,0,4.86-6.06,6.72-9.84,6.72-3.18,0-5.52-1.86-6.9-2.46v.48c0,4.26-8.7,12.06-9.9,12.66-.36.18-.66,0-.3-.36,1.08-1,5-7.68,5-11.52V67.93C293,66.49,292.53,65.89,291,65.59Zm15.66,15.54c2.4,0,2.94-.18,2.94-2.88,0-3.3-2.82-5.52-4.74-5.52-1.68,0-4.08,2.16-6.18,3.12C300.81,78.37,304.11,81.13,306.69,81.13Z"/><path d="M318.81,57.61a14.42,14.42,0,0,0-2.22-.18c-.54,0-.54-.3-.3-.42a58.27,58.27,0,0,0,7.5-4.14c1.32-.78,2.16,1,2.16,2.46v28h2.22c.72,0,5.52-.18,6.3-.3,2-.36,2.28-.3,1.62.18-.42.3-2.7,2.58-3.54,3.36l-.12.12h-11.7V60C320.73,58.51,320.31,57.91,318.81,57.61Z"/><path d="M367.77,53.17c6.24,0,11,2.16,11,4.62V82.93l-3.3,1.8c-.18.12-1.38.9-1.56,1.08-.48.42-.54.42-.48.12a15,15,0,0,0,.12-2V61.45c0-3.66-4.92-5.16-8-5.16s-7.56,1.44-11.46,4.5c-.54.42-1.08,0-.72-.54C354.69,58.21,358.83,53.17,367.77,53.17Z"/><path d="M384.75,57.55a14.42,14.42,0,0,0-2.22-.18c-.54,0-.54-.3-.3-.42a58.27,58.27,0,0,0,7.5-4.14c1.32-.78,2.16,1,2.16,2.46v16.5a19.28,19.28,0,0,0,5.22-2.1c3-1.56,4-3.36,4.26-4.68s-.9-1.92-1.44-2.28c-.36-.18-.42-.54.24-.54a21.9,21.9,0,0,0,5.58-.72c.6-.12.72.06.72,1.14,0,4.2-2.7,4.92-6.06,6.9,5.7.24,9.66,2.1,9.66,6.42,0,4.92-7.2,9.06-11.82,10.5-.6.18-.72-.06-.3-.36,2.64-1.68,6.3-5.4,6.3-9,0-2.22-1.38-5.4-7-5.76-2.28,1.26-4.26,2.16-5.4,2.76v8.82l-3.3,1.8c-.18.12-1.38.9-1.56,1.08-.48.42-.54.42-.48.12a15,15,0,0,0,.12-2v-24C386.67,58.45,386.25,57.85,384.75,57.55Z"/><path d="M415.71,65.59a14.42,14.42,0,0,0-2.22-.18c-.54,0-.54-.3-.3-.42a58.27,58.27,0,0,0,7.5-4.14c1.32-.78,2.16,1,2.16,2.46v3.06c2.46-2.64,5.76-5.28,10.14-5.28,3.12,0,5.7,1.2,6.6,2.28a28.53,28.53,0,0,0-3.36,3.3,8.92,8.92,0,0,0-6.36-2.22c-2.94,0-4.62,1.8-7,4.2v5.64c2.94-1.62,7.38-4.56,9.24-4.56,4,0,7.5,2.58,7.5,7,0,4.86-6.06,6.72-9.84,6.72-3.18,0-5.52-1.86-6.9-2.46v.48c0,4.26-8.7,12.06-9.9,12.66-.36.18-.66,0-.3-.36,1.08-1,5-7.68,5-11.52V67.93C417.63,66.49,417.21,65.89,415.71,65.59Zm15.66,15.54c2.4,0,2.94-.18,2.94-2.88,0-3.3-2.82-5.52-4.74-5.52-1.68,0-4.08,2.16-6.18,3.12C425.49,78.37,428.79,81.13,431.37,81.13Z"/><path d="M468.75,74.17c0,6.3-3.78,9.12-7.62,9.12-8.76,0-9.6-7.56-9.6-5v3.12l-3.3,1.8c-.18.12-1.38.9-1.56,1.08-.48.42-.54.42-.48.12a15,15,0,0,0,.12-2V68.29c0-1.44-.42-2-1.92-2.34a14.42,14.42,0,0,0-2.22-.18c-.54,0-.54-.3-.3-.42a58.27,58.27,0,0,0,7.5-4.14c1.32-.78,2.16,1,2.16,2.46v8c0,4.26,2,6.84,7.2,6.84,2.46,0,5.88-1.14,5.88-6.24,0-4.32-1.56-5.64-4.14-7.08a3.58,3.58,0,0,0-2.4-.3c-.72.18-1,.12-1-.12a3.17,3.17,0,0,1,.54-.66l2.94-2.7h4.14c.72,0,5.52-.18,6.3-.3,2-.36,2.28-.3,1.62.18-.42.3-2.7,2.58-3.54,3.36l-.12.12h-4.86C461.13,64.75,468.75,65.77,468.75,74.17Z"/><path d="M475.29,65.59a14.42,14.42,0,0,0-2.22-.18c-.54,0-.54-.3-.3-.42a58.27,58.27,0,0,0,7.5-4.14c1.32-.78,2.16,1,2.16,2.46v3.06c2.46-2.64,5.76-5.28,10.14-5.28,3.12,0,5.7,1.2,6.6,2.28a28.53,28.53,0,0,0-3.36,3.3,8.92,8.92,0,0,0-6.36-2.22c-2.94,0-4.62,1.8-7,4.2v5.64c2.94-1.62,7.38-4.56,9.24-4.56,4,0,7.5,2.58,7.5,7,0,4.86-6.06,6.72-9.84,6.72-3.18,0-5.52-1.86-6.9-2.46v.48c0,4.26-8.7,12.06-9.9,12.66-.36.18-.66,0-.3-.36,1.08-1,5-7.68,5-11.52V67.93C477.21,66.49,476.79,65.89,475.29,65.59ZM491,81.13c2.4,0,2.94-.18,2.94-2.88,0-3.3-2.82-5.52-4.74-5.52-1.68,0-4.08,2.16-6.18,3.12C485.07,78.37,488.37,81.13,491,81.13Z"/><path d="M503.07,57.61a14.42,14.42,0,0,0-2.22-.18c-.54,0-.54-.3-.3-.42a58.27,58.27,0,0,0,7.5-4.14c1.32-.78,2.16,1,2.16,2.46v28h2.22c.72,0,5.52-.18,6.3-.3,2-.36,2.28-.3,1.62.18-.42.3-2.7,2.58-3.54,3.36l-.12.12H505V60C505,58.51,504.57,57.91,503.07,57.61Z"/><path d="M523,65.59a14.42,14.42,0,0,0-2.22-.18c-.54,0-.54-.3-.3-.42a58.27,58.27,0,0,0,7.5-4.14c1.32-.78,2.16,1,2.16,2.46v3.06c2.46-2.64,5.76-5.28,10.14-5.28,3.12,0,5.7,1.2,6.6,2.28a28.53,28.53,0,0,0-3.36,3.3,8.92,8.92,0,0,0-6.36-2.22c-2.94,0-4.62,1.8-7,4.2v5.64c2.94-1.62,7.38-4.56,9.24-4.56,4,0,7.5,2.58,7.5,7,0,4.86-6.06,6.72-9.84,6.72-3.18,0-5.52-1.86-6.9-2.46v.48c0,4.26-8.7,12.06-9.9,12.66-.36.18-.66,0-.3-.36,1.08-1,5-7.68,5-11.52V67.93C524.91,66.49,524.49,65.89,523,65.59Zm15.66,15.54c2.4,0,2.94-.18,2.94-2.88,0-3.3-2.82-5.52-4.74-5.52-1.68,0-4.08,2.16-6.18,3.12C532.77,78.37,536.07,81.13,538.65,81.13Z"/><path d="M576,74.17c0,6.3-3.78,9.12-7.62,9.12-8.76,0-9.6-7.56-9.6-5v3.12l-3.3,1.8c-.18.12-1.38.9-1.56,1.08-.48.42-.54.42-.48.12a15,15,0,0,0,.12-2V68.29c0-1.44-.42-2-1.92-2.34a14.42,14.42,0,0,0-2.22-.18c-.54,0-.54-.3-.3-.42a58.27,58.27,0,0,0,7.5-4.14c1.32-.78,2.16,1,2.16,2.46v8c0,4.26,2,6.84,7.2,6.84,2.46,0,5.88-1.14,5.88-6.24,0-4.32-1.56-5.64-4.14-7.08a3.58,3.58,0,0,0-2.4-.3c-.72.18-1,.12-1-.12a3.17,3.17,0,0,1,.54-.66l2.94-2.7H572c.72,0,5.52-.18,6.3-.3,2-.36,2.28-.3,1.62.18-.42.3-2.7,2.58-3.54,3.36l-.12.12h-4.86C568.41,64.75,576,65.77,576,74.17Z"/><path d="M611.61,53.17c6.24,0,11,2.16,11,4.62V82.93l-3.3,1.8c-.18.12-1.38.9-1.56,1.08-.48.42-.54.42-.48.12a15,15,0,0,0,.12-2V61.45c0-3.66-4.92-5.16-8-5.16s-7.56,1.44-11.46,4.5c-.54.42-1.08,0-.72-.54C598.53,58.21,602.67,53.17,611.61,53.17Z"/><path d="M628.59,57.55a14.42,14.42,0,0,0-2.22-.18c-.54,0-.54-.3-.3-.42a58.27,58.27,0,0,0,7.5-4.14c1.32-.78,2.16,1,2.16,2.46v16.5a19.28,19.28,0,0,0,5.22-2.1c3-1.56,4-3.36,4.26-4.68s-.9-1.92-1.44-2.28c-.36-.18-.42-.54.24-.54a21.9,21.9,0,0,0,5.58-.72c.6-.12.72.06.72,1.14,0,4.2-2.7,4.92-6.06,6.9,5.7.24,9.66,2.1,9.66,6.42,0,4.92-7.2,9.06-11.82,10.5-.6.18-.72-.06-.3-.36,2.64-1.68,6.3-5.4,6.3-9,0-2.22-1.38-5.4-7-5.76-2.28,1.26-4.26,2.16-5.4,2.76v8.82l-3.3,1.8c-.18.12-1.38.9-1.56,1.08-.48.42-.54.42-.48.12a15,15,0,0,0,.12-2v-24C630.51,58.45,630.09,57.85,628.59,57.55Z"/><path d="M668.79,61.09C677,61.09,681,66.43,681,71.77c0,8.28-9.78,11.58-14.64,11.94-.72.06-.6-.42,0-.66,4.74-2,8-4,8.46-8.82h-7.44c-.72,0-5.52.18-6.3.3-2,.36-2.28.3-1.62-.18.42-.3,2.7-2.58,3.54-3.36l.12-.12h11.64c-.72-5.52-4-7.86-7.14-7.86-4.32,0-7.08,2.7-7.08,4.68,0,.48-.12.66-.3.72a11.25,11.25,0,0,0-3.72,1.92c-.3.24-.72.48-.48-.24C656.73,68.29,659.91,61.09,668.79,61.09Z"/><path d="M701.43,57.61a14.42,14.42,0,0,0-2.22-.18c-.54,0-.54-.3-.3-.42a58.27,58.27,0,0,0,7.5-4.14c1.32-.78,2.16,1,2.16,2.46v6c3.3-3.72,8.46-8.46,14.58-8.46a13.19,13.19,0,0,1,8.22,2.7c.36.3,0,.3-.24.42a15.07,15.07,0,0,0-3.66,3.66.3.3,0,0,1-.48.12,11.63,11.63,0,0,0-7.8-2.7c-4.14,0-7,2.46-10.62,5.94v7.68c3.42-1.5,10.5-6.18,13.2-6.18,5,0,10.08,4.8,10.08,9.9,0,5.4-8.28,10.14-13,10.14s-8.52-4.56-10-4.56h-.24v2.94l-3.3,1.8c-.18.12-1.38.9-1.56,1.08-.48.42-.54.42-.48.12a15,15,0,0,0,.12-2V60C703.35,58.51,702.93,57.91,701.43,57.61Zm18.66,23.46c5.22,0,6.6-2.4,4.5-7.38-1.08-2.52-3.54-5.4-6.06-5.4-2,0-6.54,3.12-9.6,4.44C711.69,76,716.07,81.07,720.09,81.07Z"/><path d="M747.33,61.09c8.16,0,12.24,5.34,12.24,10.68,0,8.28-9.78,11.58-14.64,11.94-.72.06-.6-.42,0-.66,4.74-2,8-4,8.46-8.82H746c-.72,0-5.52.18-6.3.3-2,.36-2.28.3-1.62-.18.42-.3,2.7-2.58,3.54-3.36l.12-.12h11.64c-.72-5.52-4-7.86-7.14-7.86-4.32,0-7.08,2.7-7.08,4.68,0,.48-.12.66-.3.72a11.25,11.25,0,0,0-3.72,1.92c-.3.24-.72.48-.48-.24C735.27,68.29,738.45,61.09,747.33,61.09Z"/><path d="M775.77,61c5.76,0,9.42,2.52,9.42,5V91.69l-3.3,1.8c-.18.12-1.38.9-1.56,1.08-.48.42-.54.42-.48.12a15,15,0,0,0,.12-2V68.65c0-2.64-2.82-4.5-6.78-4.5-2.58,0-6.48,1.38-10.5,4.5-.6.48-1.32.06-.9-.48A16.16,16.16,0,0,1,775.77,61Z"/><path d="M791.19,57.55a14.42,14.42,0,0,0-2.22-.18c-.54,0-.54-.3-.3-.42a58.27,58.27,0,0,0,7.5-4.14c1.32-.78,2.16,1,2.16,2.46v16.5a19.28,19.28,0,0,0,5.22-2.1c3-1.56,4-3.36,4.26-4.68s-.9-1.92-1.44-2.28c-.36-.18-.42-.54.24-.54a21.9,21.9,0,0,0,5.58-.72c.6-.12.72.06.72,1.14,0,4.2-2.7,4.92-6.06,6.9,5.7.24,9.66,2.1,9.66,6.42,0,4.92-7.2,9.06-11.82,10.5-.6.18-.72-.06-.3-.36,2.64-1.68,6.3-5.4,6.3-9,0-2.22-1.38-5.4-7-5.76-2.28,1.26-4.26,2.16-5.4,2.76v8.82l-3.3,1.8c-.18.12-1.38.9-1.56,1.08-.48.42-.54.42-.48.12a15,15,0,0,0,.12-2v-24C793.11,58.45,792.69,57.85,791.19,57.55Z"/><path d="M831.39,61.09c8.16,0,12.24,5.34,12.24,10.68,0,8.28-9.78,11.58-14.64,11.94-.72.06-.6-.42,0-.66,4.74-2,8-4,8.46-8.82H830c-.72,0-5.52.18-6.3.3-2,.36-2.28.3-1.62-.18.42-.3,2.7-2.58,3.54-3.36l.12-.12h11.64c-.72-5.52-4-7.86-7.14-7.86-4.32,0-7.08,2.7-7.08,4.68,0,.48-.12.66-.3.72a11.25,11.25,0,0,0-3.72,1.92c-.3.24-.72.48-.48-.24C819.33,68.29,822.51,61.09,831.39,61.09Z"/><path d="M848.43,65.77a14.42,14.42,0,0,0-2.22-.18c-.54,0-.54-.3-.3-.42a58.27,58.27,0,0,0,7.5-4.14c1.32-.78,2.16,1,2.16,2.46v2.34c2.4-2.7,6.9-5,9.54-5,2.88,0,7.62,2.7,7.62,7,0,3.3-2.7,5.82-6.06,6.78V85.51c0,5.4,1.5,7.38,4,7.38a6.27,6.27,0,0,0,4.62-2.46c.3-.36.66.06.48.48-.9,1.92-3.9,5-6.78,5-4.74,0-7.5-3.06-7.5-9.12v-12a5.62,5.62,0,0,1-1-.24c-.78-.24-1-.78,0-1,1.32-.24,6.12-.54,6.12-5,0-2.76-1.68-5.16-4.74-5.16-2,0-5,2.52-6.3,4.14V81l-3.3,1.8c-.18.12-1.38.9-1.56,1.08-.48.42-.54.42-.48.12a15,15,0,0,0,.12-2V68.11C850.35,66.67,849.93,66.07,848.43,65.77Z"/><path d="M891.15,60.73c5.52,0,9.6,3.78,10.86,5.34.24.3-.3.6-.48.78a20.91,20.91,0,0,0-3.12,3.36c-.18.24-.36.3-.54,0-1.2-2.4-4.68-7.56-8.52-7.56-3.54,0-5.52,2.88-5.52,6.78V91.57l-3.3,1.8c-.18.12-1.38.9-1.56,1.08-.48.42-.54.42-.48.12a15,15,0,0,0,.12-2V69.49C878.61,66,883.83,60.73,891.15,60.73Z"/><path d="M905.91,80.17c-4.5-5.82-1.68-11.76,1.68-15.3,3.54-4,8.1-5.58,13.62-2.58,4.86,2.7,7.38,9.54,2.22,16.32C917.73,86.11,909,84.25,905.91,80.17Zm3.9-3.66c2.64,3.42,8.7,5,10.8,3,3.54-3.48,1-10.56-2.16-13.08-3.48-2.64-7.5-2.94-9.3-1.08C906.69,67.93,907.59,73.63,909.81,76.51Z"/><path d="M955.41,74.17c0,6.3-3.78,9.12-7.62,9.12-8.76,0-9.6-7.56-9.6-5v3.12l-3.3,1.8c-.18.12-1.38.9-1.56,1.08-.48.42-.54.42-.48.12a15,15,0,0,0,.12-2V68.29c0-1.44-.42-2-1.92-2.34a14.42,14.42,0,0,0-2.22-.18c-.54,0-.54-.3-.3-.42a58.27,58.27,0,0,0,7.5-4.14c1.32-.78,2.16,1,2.16,2.46v8c0,4.26,2,6.84,7.2,6.84,2.46,0,5.88-1.14,5.88-6.24,0-4.32-1.56-5.64-4.14-7.08a3.58,3.58,0,0,0-2.4-.3c-.72.18-1,.12-1-.12a3.17,3.17,0,0,1,.54-.66l2.94-2.7h4.14c.72,0,5.52-.18,6.3-.3,2-.36,2.28-.3,1.62.18-.42.3-2.7,2.58-3.54,3.36l-.12.12h-4.86C947.79,64.75,955.41,65.77,955.41,74.17Z"/><path d="M973.71,61c5.76,0,9.42,2.52,9.42,5V91.69l-3.3,1.8c-.18.12-1.38.9-1.56,1.08-.48.42-.54.42-.48.12a15,15,0,0,0,.12-2V68.65c0-2.64-2.82-4.5-6.78-4.5-2.58,0-6.48,1.38-10.5,4.5-.6.48-1.32.06-.9-.48A16.16,16.16,0,0,1,973.71,61Z"/><path d="M166.53,142.93c-1.62.66-3,2.58-7,2.58-6.54,0-19.44-4.44-19.44-13.68,0-12.18,21.84-17.58,26.4-19.14Zm-5.28-1.14V116.17c-6.12,2.52-14.34,8.22-14.34,14.46S154.71,140.11,161.25,141.79Z"/><path d="M183.21,121.09c8.16,0,12.24,5.34,12.24,10.68,0,8.28-9.78,11.58-14.64,11.94-.72.06-.6-.42,0-.66,4.74-2,8-4,8.46-8.82h-7.44c-.72,0-5.52.18-6.3.3-2,.36-2.28.3-1.62-.18.42-.3,2.7-2.58,3.54-3.36l.12-.12h11.64c-.72-5.52-4-7.86-7.14-7.86-4.32,0-7.08,2.7-7.08,4.68,0,.48-.12.66-.3.72a11.25,11.25,0,0,0-3.72,1.92c-.3.24-.72.48-.48-.24C171.15,128.29,174.33,121.09,183.21,121.09Z"/><path d="M224.61,134.17c0,6.3-3.78,9.12-7.62,9.12-8.76,0-9.6-7.56-9.6-5v3.12l-3.3,1.8c-.18.12-1.38.9-1.56,1.08-.48.42-.54.42-.48.12a15,15,0,0,0,.12-2V128.29c0-1.44-.42-2-1.92-2.34a14.42,14.42,0,0,0-2.22-.18c-.54,0-.54-.3-.3-.42a58.27,58.27,0,0,0,7.5-4.14c1.32-.78,2.16,1,2.16,2.46v8c0,4.26,2,6.84,7.2,6.84,2.46,0,5.88-1.14,5.88-6.24,0-4.32-1.56-5.64-4.14-7.08a3.58,3.58,0,0,0-2.4-.3c-.72.18-1,.12-1-.12a3.17,3.17,0,0,1,.54-.66l2.94-2.7h4.14c.72,0,5.52-.18,6.3-.3,2-.36,2.28-.3,1.62.18-.42.3-2.7,2.58-3.54,3.36l-.12.12H220C217,124.75,224.61,125.77,224.61,134.17Z"/><path d="M242.91,121c5.76,0,9.42,2.52,9.42,5v25.68l-3.3,1.8c-.18.12-1.38.9-1.56,1.08-.48.42-.54.42-.48.12a15,15,0,0,0,.12-2V128.65c0-2.64-2.82-4.5-6.78-4.5-2.58,0-6.48,1.38-10.5,4.5-.6.48-1.32.06-.9-.48A16.16,16.16,0,0,1,242.91,121Z"/><path class="cls-1" d="M259.53,125.77a14.42,14.42,0,0,0-2.22-.18c-.54,0-.54-.3-.3-.42a58.27,58.27,0,0,0,7.5-4.14c1.32-.78,2.16,1,2.16,2.46v2.34c2.4-2.7,6.9-5,9.54-5,2.88,0,7.62,2.7,7.62,7,0,3.3-2.7,5.82-6.06,6.78v10.92c0,5.4,1.86,9.66,6.84,8.22s8.34-3.24,8.34-11.52V127.93c0-1.44-.42-2-1.92-2.34a14.42,14.42,0,0,0-2.22-.18c-.54,0-.54-.3-.3-.42a58.27,58.27,0,0,0,7.5-4.14c1.32-.78,2.16,1,2.16,2.46v3.06c2.46-2.64,5.76-5.28,10.14-5.28,3.12,0,5.7,1.2,6.6,2.28a28.53,28.53,0,0,0-3.36,3.3,8.92,8.92,0,0,0-6.36-2.22c-2.94,0-4.62,1.8-7,4.2v5.64c2.94-1.62,7.38-4.56,9.24-4.56,4,0,7.5,2.58,7.5,7,0,4.86-6.06,6.72-9.84,6.72-3.18,0-5.52-1.86-6.9-2.46v.48c0,7.38-9.78,13.2-16,14.28-6.9,1.2-9.66-2.82-9.66-8.88v-12a5.62,5.62,0,0,1-1-.24c-.78-.24-1-.78,0-1,1.32-.24,6.12-.54,6.12-5,0-2.76-1.68-5.16-4.74-5.16-2,0-5,2.52-6.3,4.14V141l-3.3,1.8c-.18.12-1.38.9-1.56,1.08-.48.42-.54.42-.48.12a15,15,0,0,0,.12-2V128.11C261.45,126.67,261,126.07,259.53,125.77Zm47.16,15.36c2.4,0,2.94-.18,2.94-2.88,0-3.3-2.82-5.52-4.74-5.52-1.68,0-4.08,2.16-6.18,3.12C300.81,138.37,304.11,141.13,306.69,141.13Z"/><path d="M318.81,117.61a14.42,14.42,0,0,0-2.22-.18c-.54,0-.54-.3-.3-.42a58.27,58.27,0,0,0,7.5-4.14c1.32-.78,2.16,1,2.16,2.46v28h2.22c.72,0,5.52-.18,6.3-.3,2-.36,2.28-.3,1.62.18-.42.3-2.7,2.58-3.54,3.36l-.12.12h-11.7V120C320.73,118.51,320.31,117.91,318.81,117.61Z"/><path d="M367.77,113.17c6.24,0,11,2.16,11,4.62v25.14l-3.3,1.8c-.18.12-1.38.9-1.56,1.08-.48.42-.54.42-.48.12a15,15,0,0,0,.12-2v-22.5c0-3.66-4.92-5.16-8-5.16s-7.56,1.44-11.46,4.5c-.54.42-1.08,0-.72-.54C354.69,118.21,358.83,113.17,367.77,113.17Z"/><path d="M384.75,117.55a14.42,14.42,0,0,0-2.22-.18c-.54,0-.54-.3-.3-.42a58.27,58.27,0,0,0,7.5-4.14c1.32-.78,2.16,1,2.16,2.46v16.5a19.28,19.28,0,0,0,5.22-2.1c3-1.56,4-3.36,4.26-4.68s-.9-1.92-1.44-2.28c-.36-.18-.42-.54.24-.54a21.9,21.9,0,0,0,5.58-.72c.6-.12.72.06.72,1.14,0,4.2-2.7,4.92-6.06,6.9,5.7.24,9.66,2.1,9.66,6.42,0,4.92-7.2,9.06-11.82,10.5-.6.18-.72-.06-.3-.36,2.64-1.68,6.3-5.4,6.3-9,0-2.22-1.38-5.4-7-5.76-2.28,1.26-4.26,2.16-5.4,2.76v8.82l-3.3,1.8c-.18.12-1.38.9-1.56,1.08-.48.42-.54.42-.48.12a15,15,0,0,0,.12-2v-24C386.67,118.45,386.25,117.85,384.75,117.55Z"/><path d="M415.71,125.59a14.42,14.42,0,0,0-2.22-.18c-.54,0-.54-.3-.3-.42a58.27,58.27,0,0,0,7.5-4.14c1.32-.78,2.16,1,2.16,2.46v3.06c2.46-2.64,5.76-5.28,10.14-5.28,3.12,0,5.7,1.2,6.6,2.28a28.53,28.53,0,0,0-3.36,3.3,8.92,8.92,0,0,0-6.36-2.22c-2.94,0-4.62,1.8-7,4.2v5.64c2.94-1.62,7.38-4.56,9.24-4.56,4,0,7.5,2.58,7.5,7,0,4.86-6.06,6.72-9.84,6.72-3.18,0-5.52-1.86-6.9-2.46v.48c0,4.26-8.7,12.06-9.9,12.66-.36.18-.66,0-.3-.36,1.08-1,5-7.68,5-11.52V127.93C417.63,126.49,417.21,125.89,415.71,125.59Zm15.66,15.54c2.4,0,2.94-.18,2.94-2.88,0-3.3-2.82-5.52-4.74-5.52-1.68,0-4.08,2.16-6.18,3.12C425.49,138.37,428.79,141.13,431.37,141.13Z"/><path d="M468.75,134.17c0,6.3-3.78,9.12-7.62,9.12-8.76,0-9.6-7.56-9.6-5v3.12l-3.3,1.8c-.18.12-1.38.9-1.56,1.08-.48.42-.54.42-.48.12a15,15,0,0,0,.12-2V128.29c0-1.44-.42-2-1.92-2.34a14.42,14.42,0,0,0-2.22-.18c-.54,0-.54-.3-.3-.42a58.27,58.27,0,0,0,7.5-4.14c1.32-.78,2.16,1,2.16,2.46v8c0,4.26,2,6.84,7.2,6.84,2.46,0,5.88-1.14,5.88-6.24,0-4.32-1.56-5.64-4.14-7.08a3.58,3.58,0,0,0-2.4-.3c-.72.18-1,.12-1-.12a3.17,3.17,0,0,1,.54-.66l2.94-2.7h4.14c.72,0,5.52-.18,6.3-.3,2-.36,2.28-.3,1.62.18-.42.3-2.7,2.58-3.54,3.36l-.12.12h-4.86C461.13,124.75,468.75,125.77,468.75,134.17Z"/><path d="M475.29,125.59a14.42,14.42,0,0,0-2.22-.18c-.54,0-.54-.3-.3-.42a58.27,58.27,0,0,0,7.5-4.14c1.32-.78,2.16,1,2.16,2.46v3.06c2.46-2.64,5.76-5.28,10.14-5.28,3.12,0,5.7,1.2,6.6,2.28a28.53,28.53,0,0,0-3.36,3.3,8.92,8.92,0,0,0-6.36-2.22c-2.94,0-4.62,1.8-7,4.2v5.64c2.94-1.62,7.38-4.56,9.24-4.56,4,0,7.5,2.58,7.5,7,0,4.86-6.06,6.72-9.84,6.72-3.18,0-5.52-1.86-6.9-2.46v.48c0,4.26-8.7,12.06-9.9,12.66-.36.18-.66,0-.3-.36,1.08-1,5-7.68,5-11.52V127.93C477.21,126.49,476.79,125.89,475.29,125.59ZM491,141.13c2.4,0,2.94-.18,2.94-2.88,0-3.3-2.82-5.52-4.74-5.52-1.68,0-4.08,2.16-6.18,3.12C485.07,138.37,488.37,141.13,491,141.13Z"/><path d="M503.07,117.61a14.42,14.42,0,0,0-2.22-.18c-.54,0-.54-.3-.3-.42a58.27,58.27,0,0,0,7.5-4.14c1.32-.78,2.16,1,2.16,2.46v28h2.22c.72,0,5.52-.18,6.3-.3,2-.36,2.28-.3,1.62.18-.42.3-2.7,2.58-3.54,3.36l-.12.12H505V120C505,118.51,504.57,117.91,503.07,117.61Z"/><path d="M523,125.59a14.42,14.42,0,0,0-2.22-.18c-.54,0-.54-.3-.3-.42a58.27,58.27,0,0,0,7.5-4.14c1.32-.78,2.16,1,2.16,2.46v3.06c2.46-2.64,5.76-5.28,10.14-5.28,3.12,0,5.7,1.2,6.6,2.28a28.53,28.53,0,0,0-3.36,3.3,8.92,8.92,0,0,0-6.36-2.22c-2.94,0-4.62,1.8-7,4.2v5.64c2.94-1.62,7.38-4.56,9.24-4.56,4,0,7.5,2.58,7.5,7,0,4.86-6.06,6.72-9.84,6.72-3.18,0-5.52-1.86-6.9-2.46v.48c0,4.26-8.7,12.06-9.9,12.66-.36.18-.66,0-.3-.36,1.08-1,5-7.68,5-11.52V127.93C524.91,126.49,524.49,125.89,523,125.59Zm15.66,15.54c2.4,0,2.94-.18,2.94-2.88,0-3.3-2.82-5.52-4.74-5.52-1.68,0-4.08,2.16-6.18,3.12C532.77,138.37,536.07,141.13,538.65,141.13Z"/><path d="M576,134.17c0,6.3-3.78,9.12-7.62,9.12-8.76,0-9.6-7.56-9.6-5v3.12l-3.3,1.8c-.18.12-1.38.9-1.56,1.08-.48.42-.54.42-.48.12a15,15,0,0,0,.12-2V128.29c0-1.44-.42-2-1.92-2.34a14.42,14.42,0,0,0-2.22-.18c-.54,0-.54-.3-.3-.42a58.27,58.27,0,0,0,7.5-4.14c1.32-.78,2.16,1,2.16,2.46v8c0,4.26,2,6.84,7.2,6.84,2.46,0,5.88-1.14,5.88-6.24,0-4.32-1.56-5.64-4.14-7.08a3.58,3.58,0,0,0-2.4-.3c-.72.18-1,.12-1-.12a3.17,3.17,0,0,1,.54-.66l2.94-2.7H572c.72,0,5.52-.18,6.3-.3,2-.36,2.28-.3,1.62.18-.42.3-2.7,2.58-3.54,3.36l-.12.12h-4.86C568.41,124.75,576,125.77,576,134.17Z"/><path d="M611.61,113.17c6.24,0,11,2.16,11,4.62v25.14l-3.3,1.8c-.18.12-1.38.9-1.56,1.08-.48.42-.54.42-.48.12a15,15,0,0,0,.12-2v-22.5c0-3.66-4.92-5.16-8-5.16s-7.56,1.44-11.46,4.5c-.54.42-1.08,0-.72-.54C598.53,118.21,602.67,113.17,611.61,113.17Z"/><path d="M628.59,117.55a14.42,14.42,0,0,0-2.22-.18c-.54,0-.54-.3-.3-.42a58.27,58.27,0,0,0,7.5-4.14c1.32-.78,2.16,1,2.16,2.46v16.5a19.28,19.28,0,0,0,5.22-2.1c3-1.56,4-3.36,4.26-4.68s-.9-1.92-1.44-2.28c-.36-.18-.42-.54.24-.54a21.9,21.9,0,0,0,5.58-.72c.6-.12.72.06.72,1.14,0,4.2-2.7,4.92-6.06,6.9,5.7.24,9.66,2.1,9.66,6.42,0,4.92-7.2,9.06-11.82,10.5-.6.18-.72-.06-.3-.36,2.64-1.68,6.3-5.4,6.3-9,0-2.22-1.38-5.4-7-5.76-2.28,1.26-4.26,2.16-5.4,2.76v8.82l-3.3,1.8c-.18.12-1.38.9-1.56,1.08-.48.42-.54.42-.48.12a15,15,0,0,0,.12-2v-24C630.51,118.45,630.09,117.85,628.59,117.55Z"/><path d="M668.79,121.09c8.16,0,12.24,5.34,12.24,10.68,0,8.28-9.78,11.58-14.64,11.94-.72.06-.6-.42,0-.66,4.74-2,8-4,8.46-8.82h-7.44c-.72,0-5.52.18-6.3.3-2,.36-2.28.3-1.62-.18.42-.3,2.7-2.58,3.54-3.36l.12-.12h11.64c-.72-5.52-4-7.86-7.14-7.86-4.32,0-7.08,2.7-7.08,4.68,0,.48-.12.66-.3.72a11.25,11.25,0,0,0-3.72,1.92c-.3.24-.72.48-.48-.24C656.73,128.29,659.91,121.09,668.79,121.09Z"/><path d="M701.43,117.61a14.42,14.42,0,0,0-2.22-.18c-.54,0-.54-.3-.3-.42a58.27,58.27,0,0,0,7.5-4.14c1.32-.78,2.16,1,2.16,2.46v6c3.3-3.72,8.46-8.46,14.58-8.46a13.19,13.19,0,0,1,8.22,2.7c.36.3,0,.3-.24.42a15.07,15.07,0,0,0-3.66,3.66.3.3,0,0,1-.48.12,11.63,11.63,0,0,0-7.8-2.7c-4.14,0-7,2.46-10.62,5.94v7.68c3.42-1.5,10.5-6.18,13.2-6.18,5,0,10.08,4.8,10.08,9.9,0,5.4-8.28,10.14-13,10.14s-8.52-4.56-10-4.56h-.24v2.94l-3.3,1.8c-.18.12-1.38.9-1.56,1.08-.48.42-.54.42-.48.12a15,15,0,0,0,.12-2V120C703.35,118.51,702.93,117.91,701.43,117.61Zm18.66,23.46c5.22,0,6.6-2.4,4.5-7.38-1.08-2.52-3.54-5.4-6.06-5.4-2,0-6.54,3.12-9.6,4.44C711.69,136,716.07,141.07,720.09,141.07Z"/><path d="M747.33,121.09c8.16,0,12.24,5.34,12.24,10.68,0,8.28-9.78,11.58-14.64,11.94-.72.06-.6-.42,0-.66,4.74-2,8-4,8.46-8.82H746c-.72,0-5.52.18-6.3.3-2,.36-2.28.3-1.62-.18.42-.3,2.7-2.58,3.54-3.36l.12-.12h11.64c-.72-5.52-4-7.86-7.14-7.86-4.32,0-7.08,2.7-7.08,4.68,0,.48-.12.66-.3.72a11.25,11.25,0,0,0-3.72,1.92c-.3.24-.72.48-.48-.24C735.27,128.29,738.45,121.09,747.33,121.09Z"/><path d="M775.77,121c5.76,0,9.42,2.52,9.42,5v25.68l-3.3,1.8c-.18.12-1.38.9-1.56,1.08-.48.42-.54.42-.48.12a15,15,0,0,0,.12-2V128.65c0-2.64-2.82-4.5-6.78-4.5-2.58,0-6.48,1.38-10.5,4.5-.6.48-1.32.06-.9-.48A16.16,16.16,0,0,1,775.77,121Z"/><path d="M791.19,117.55a14.42,14.42,0,0,0-2.22-.18c-.54,0-.54-.3-.3-.42a58.27,58.27,0,0,0,7.5-4.14c1.32-.78,2.16,1,2.16,2.46v16.5a19.28,19.28,0,0,0,5.22-2.1c3-1.56,4-3.36,4.26-4.68s-.9-1.92-1.44-2.28c-.36-.18-.42-.54.24-.54a21.9,21.9,0,0,0,5.58-.72c.6-.12.72.06.72,1.14,0,4.2-2.7,4.92-6.06,6.9,5.7.24,9.66,2.1,9.66,6.42,0,4.92-7.2,9.06-11.82,10.5-.6.18-.72-.06-.3-.36,2.64-1.68,6.3-5.4,6.3-9,0-2.22-1.38-5.4-7-5.76-2.28,1.26-4.26,2.16-5.4,2.76v8.82l-3.3,1.8c-.18.12-1.38.9-1.56,1.08-.48.42-.54.42-.48.12a15,15,0,0,0,.12-2v-24C793.11,118.45,792.69,117.85,791.19,117.55Z"/><path d="M831.39,121.09c8.16,0,12.24,5.34,12.24,10.68,0,8.28-9.78,11.58-14.64,11.94-.72.06-.6-.42,0-.66,4.74-2,8-4,8.46-8.82H830c-.72,0-5.52.18-6.3.3-2,.36-2.28.3-1.62-.18.42-.3,2.7-2.58,3.54-3.36l.12-.12h11.64c-.72-5.52-4-7.86-7.14-7.86-4.32,0-7.08,2.7-7.08,4.68,0,.48-.12.66-.3.72a11.25,11.25,0,0,0-3.72,1.92c-.3.24-.72.48-.48-.24C819.33,128.29,822.51,121.09,831.39,121.09Z"/><path class="cls-2" d="M848.43,125.77a14.42,14.42,0,0,0-2.22-.18c-.54,0-.54-.3-.3-.42a58.27,58.27,0,0,0,7.5-4.14c1.32-.78,2.16,1,2.16,2.46v2.34c2.4-2.7,6.9-5,9.54-5,2.88,0,7.62,2.7,7.62,7,0,3.3-2.7,5.82-6.06,6.78v10.92c0,5.4,2.58,8.94,5.94,8.94,2.76,0,6-1.56,6-9.12V129.49c0-3.48,5.22-8.76,12.54-8.76,5.52,0,9.6,3.78,10.86,5.34.24.3-.3.6-.48.78a20.91,20.91,0,0,0-3.12,3.36c-.18.24-.36.3-.54,0-1.2-2.4-4.68-7.56-8.52-7.56-3.54,0-5.52,2.88-5.52,6.78v16.86c0,7-7.86,9.66-12,9.66-6.36,0-10.38-3.06-10.38-9.12v-12a5.62,5.62,0,0,1-1-.24c-.78-.24-1-.78,0-1,1.32-.24,6.12-.54,6.12-5,0-2.76-1.68-5.16-4.74-5.16-2,0-5,2.52-6.3,4.14V141l-3.3,1.8c-.18.12-1.38.9-1.56,1.08-.48.42-.54.42-.48.12a15,15,0,0,0,.12-2V128.11C850.35,126.67,849.93,126.07,848.43,125.77Zm30.18,19.44h0Z"/><path d="M905.91,140.17c-4.5-5.82-1.68-11.76,1.68-15.3,3.54-4,8.1-5.58,13.62-2.58,4.86,2.7,7.38,9.54,2.22,16.32C917.73,146.11,909,144.25,905.91,140.17Zm3.9-3.66c2.64,3.42,8.7,5,10.8,3,3.54-3.48,1-10.56-2.16-13.08-3.48-2.64-7.5-2.94-9.3-1.08C906.69,127.93,907.59,133.63,909.81,136.51Z"/><path d="M955.41,134.17c0,6.3-3.78,9.12-7.62,9.12-8.76,0-9.6-7.56-9.6-5v3.12l-3.3,1.8c-.18.12-1.38.9-1.56,1.08-.48.42-.54.42-.48.12a15,15,0,0,0,.12-2V128.29c0-1.44-.42-2-1.92-2.34a14.42,14.42,0,0,0-2.22-.18c-.54,0-.54-.3-.3-.42a58.27,58.27,0,0,0,7.5-4.14c1.32-.78,2.16,1,2.16,2.46v8c0,4.26,2,6.84,7.2,6.84,2.46,0,5.88-1.14,5.88-6.24,0-4.32-1.56-5.64-4.14-7.08a3.58,3.58,0,0,0-2.4-.3c-.72.18-1,.12-1-.12a3.17,3.17,0,0,1,.54-.66l2.94-2.7h4.14c.72,0,5.52-.18,6.3-.3,2-.36,2.28-.3,1.62.18-.42.3-2.7,2.58-3.54,3.36l-.12.12h-4.86C947.79,124.75,955.41,125.77,955.41,134.17Z"/><path d="M973.71,121c5.76,0,9.42,2.52,9.42,5v25.68l-3.3,1.8c-.18.12-1.38.9-1.56,1.08-.48.42-.54.42-.48.12a15,15,0,0,0,.12-2V128.65c0-2.64-2.82-4.5-6.78-4.5-2.58,0-6.48,1.38-10.5,4.5-.6.48-1.32.06-.9-.48A16.16,16.16,0,0,1,973.71,121Z"/></svg>