<?xml version="1.0" encoding="utf-8"?>
<!-- Generator: Adobe Illustrator 25.4.1, SVG Export Plug-In . SVG Version: 6.00 Build 0)  -->
<svg version="1.1" id="图层_4" xmlns="http://www.w3.org/2000/svg" xmlns:xlink="http://www.w3.org/1999/xlink" x="0px" y="0px"
	 viewBox="0 0 1125 150" style="enable-background:new 0 0 1125 150;" xml:space="preserve">
<style type="text/css">
	.st0{fill:url(#SVGID_1_);}
	.st1{fill:url(#SVGID_00000101801421406275038170000000808982534769841067_);}
	.st2{fill:url(#SVGID_00000146473563096099169010000010713040033349469318_);}
	.st3{fill:url(#SVGID_00000046323684661885763690000006199460508354276530_);}
	.st4{fill:url(#SVGID_00000013908695911316081930000003337216160584890801_);}
	.st5{fill:url(#SVGID_00000096740447090477377210000017113132037841753240_);}
	.st6{fill:url(#SVGID_00000129164076196326993730000006570499826949705633_);}
	.st7{fill:url(#SVGID_00000115505167386457648550000008657770543811037340_);}
	.st8{fill:url(#SVGID_00000087371732488877729930000001476781535811145369_);}
	.st9{fill:url(#SVGID_00000161633878190825603010000018334941796190012338_);}
	.st10{fill:url(#SVGID_00000181781036008906334200000014929613887196199327_);}
	.st11{fill:url(#SVGID_00000172417599914741334440000007766565941685498013_);}
	.st12{fill:url(#SVGID_00000054264175260699700520000009638658753190805917_);}
	.st13{fill:url(#SVGID_00000176732150613677957000000011653172116156320384_);}
	.st14{fill:url(#SVGID_00000047776289926176335640000001667465478046901148_);}
	.st15{fill:url(#SVGID_00000033370220732467202190000003910313390611634827_);}
	.st16{fill:url(#SVGID_00000156569258247689118100000005105944628621385874_);}
	.st17{fill:url(#SVGID_00000160155009587644485820000009937772170434779778_);}
	.st18{fill:url(#SVGID_00000082357709438081799020000012946424758438729641_);}
	.st19{fill:url(#SVGID_00000145744664255208220010000001654007868317037955_);}
	.st20{fill:url(#SVGID_00000173162464563951164060000011042067531054714809_);}
	.st21{fill:url(#SVGID_00000083056350757444837520000006844856672059745714_);}
	.st22{fill:url(#SVGID_00000051361643837563699570000007609917946976495549_);}
	.st23{fill:url(#SVGID_00000062186151320566987060000002307906344726852013_);}
	.st24{fill:url(#SVGID_00000111870777289766391370000006096500240722754704_);}
	.st25{fill:url(#SVGID_00000113347418335281590890000007951838943903801528_);}
	.st26{fill:url(#SVGID_00000101096328638215109010000003212255835150541701_);}
	.st27{fill:url(#SVGID_00000055704983380397355460000018374723311578538641_);}
	.st28{fill:url(#SVGID_00000037686124076356247350000007931670133467521441_);}
	.st29{fill:url(#SVGID_00000152253025589927649580000008703151510963123622_);}
	.st30{fill:url(#SVGID_00000181047532756733266140000018056967290666009745_);}
	.st31{fill:url(#SVGID_00000112594121999366465040000016283227775863897739_);}
	.st32{fill:url(#SVGID_00000171717899985281617140000014487042642412685499_);}
	.st33{fill:url(#SVGID_00000152230683849935522410000015778049395361055422_);}
	.st34{fill:url(#SVGID_00000020373878404706954720000003485342520484701319_);}
	.st35{fill:url(#SVGID_00000075146926907888403210000003683865755402262169_);}
	.st36{fill:url(#SVGID_00000121979292002133924690000009624226463831043741_);}
	.st37{fill:url(#SVGID_00000027606906669385614950000018109116846107010975_);}
	.st38{fill:url(#SVGID_00000095303386122839759670000005274228250816488892_);}
	.st39{fill:url(#SVGID_00000020362217046543847990000005128594674214399396_);}
	.st40{fill:url(#SVGID_00000073685098582855238800000001852151747751983540_);}
	.st41{fill:url(#SVGID_00000000182125450874713690000004863692773516312708_);}
	.st42{fill:url(#SVGID_00000081622939841022437830000013614610073260842644_);}
	.st43{fill:url(#SVGID_00000047058954274812001360000005136897471551739049_);}
	.st44{fill:url(#SVGID_00000081621364184085076880000016679192694163547267_);}
	.st45{fill:url(#SVGID_00000133510870145092287880000002780878943231457699_);}
	.st46{fill:url(#SVGID_00000155846706729814332220000007334403864017468051_);}
	.st47{fill:url(#SVGID_00000010312258618809436740000001471583575392492715_);}
	.st48{fill:url(#SVGID_00000142891944627329281750000001035920313923137164_);}
	.st49{fill:url(#SVGID_00000021091880814118059200000012658879711090442668_);}
	.st50{fill:url(#SVGID_00000160897565362288661620000011658768389921183138_);}
	.st51{fill:url(#SVGID_00000006698505098397552640000003813135406732755328_);}
	.st52{fill:url(#SVGID_00000044880343894790154040000005830810836207093643_);}
	.st53{fill:url(#SVGID_00000009552113980571440920000016741406508681118105_);}
	.st54{fill:url(#SVGID_00000119825653798114518530000016528007242243503012_);}
	.st55{fill:url(#SVGID_00000017496159881994467530000009073820790898945194_);}
	.st56{fill:url(#SVGID_00000039845753422699709640000008295898945856915889_);}
	.st57{fill:url(#SVGID_00000041293326097098782450000015210223037934489790_);}
	.st58{fill:url(#SVGID_00000176037384495745910660000011519461043020119950_);}
	.st59{fill:url(#SVGID_00000049195852181483176780000016029941215042148992_);}
	.st60{fill:url(#SVGID_00000119816204398133133650000017316021353793214134_);}
	.st61{fill:url(#SVGID_00000083807292207704995270000000589957340234233255_);}
	.st62{fill:url(#SVGID_00000089562572582585263960000017142534761547875239_);}
	.st63{fill:url(#SVGID_00000088099520313650426430000014068872723745820827_);}
	.st64{fill:url(#SVGID_00000038387550227440318700000004926458235109526952_);}
	.st65{fill:url(#SVGID_00000026862421039712854300000001441192449243833528_);}
	.st66{fill:url(#SVGID_00000180331667787523199150000009802180765413304495_);}
	.st67{fill:url(#SVGID_00000139283889606770306320000006396724643254440097_);}
	.st68{fill:url(#SVGID_00000115500247065512483090000010497200700337798299_);}
	.st69{fill:url(#SVGID_00000111153337201207981150000007910777455169896633_);}
	.st70{fill:url(#SVGID_00000157282785105388039050000001860574288880707252_);}
	.st71{fill:url(#SVGID_00000019637693020849212290000002330119238517711545_);}
	.st72{fill:url(#SVGID_00000162354687721364470020000001781516617645392015_);}
	.st73{fill:url(#SVGID_00000118377331497934907390000015334059493210245054_);}
	.st74{fill:url(#SVGID_00000149380585288459836740000014297365335282786999_);}
	.st75{fill:url(#SVGID_00000119818162203867443920000001999846446011113376_);}
	.st76{fill:url(#SVGID_00000134207466634329071950000008294650655934150787_);}
	.st77{fill:url(#SVGID_00000094619459833855830880000012145191664505694367_);}
	.st78{fill:url(#SVGID_00000104690685338330018380000014093856282476906924_);}
	.st79{fill:url(#SVGID_00000002383201544069089560000002206647948136362164_);}
	.st80{fill:url(#SVGID_00000045591430186711507220000016193245859087721641_);}
	.st81{fill:url(#SVGID_00000096747835498376862590000008963231993543356803_);}
	.st82{fill:url(#SVGID_00000152973383180115533690000000922300118646905477_);}
	.st83{fill:url(#SVGID_00000034083852865882308660000004384053834704038825_);}
	.st84{fill:url(#SVGID_00000024722682968341071380000006071513647564490142_);}
	.st85{fill:url(#SVGID_00000080928510524553255290000013947452428106811280_);}
	.st86{fill:url(#SVGID_00000053512800614098219330000011977106310354626726_);}
	.st87{fill:url(#SVGID_00000052785563914034453080000013416545133730835644_);}
	.st88{fill:url(#SVGID_00000119101441113853712800000014984909344527281817_);}
	.st89{fill:url(#SVGID_00000148633209097992493290000012484179586170710148_);}
	.st90{fill:url(#SVGID_00000020373130741023317910000014541269058030622869_);}
	.st91{fill:url(#SVGID_00000139994808227515268610000014670403089069835191_);}
	.st92{fill:url(#SVGID_00000025423863442099873080000015225308007464241825_);}
	.st93{fill:url(#SVGID_00000117637500136543223300000001572120626099526557_);}
	.st94{fill:url(#SVGID_00000120553665316959692730000004849016812586499458_);}
	.st95{fill:url(#SVGID_00000081606197867463912410000010294294500104026809_);}
	.st96{fill:url(#SVGID_00000031173792544601925310000015347535773364600226_);}
	.st97{fill:url(#SVGID_00000072245512638757732890000013880769139518543275_);}
	.st98{fill:url(#SVGID_00000036245127773051354440000016826499091321775030_);}
	.st99{fill:url(#SVGID_00000061439521076151281040000001171854963413681280_);}
	.st100{fill:url(#SVGID_00000023265593134634503130000016199295733373603999_);}
	.st101{fill:url(#SVGID_00000010276342415638544860000001541924684424097156_);}
	.st102{fill:url(#SVGID_00000140004650485244541580000017105896551132841907_);}
	.st103{fill:url(#SVGID_00000131355017616106083980000012637628575903800236_);}
	.st104{fill:url(#SVGID_00000183967645468724997200000003254309319181144209_);}
	.st105{fill:url(#SVGID_00000147218582838078298820000002719117180686936713_);}
	.st106{fill:url(#SVGID_00000122707836007930569710000005929638040734453126_);}
	.st107{fill:url(#SVGID_00000119094746462097722490000012668093367426295694_);}
	.st108{fill:#FFFFFF;}
	.st109{fill:url(#SVGID_00000034793918737555987730000012500662102660679324_);}
	.st110{fill:url(#SVGID_00000130631330230371464710000013979585480584255373_);}
	.st111{fill:url(#SVGID_00000111167454202806615940000017114312627839938220_);}
	.st112{fill:url(#SVGID_00000116211832633171595500000010314701105785798043_);}
	.st113{fill:url(#SVGID_00000179613735961835427170000007898775974612459416_);}
	.st114{fill:url(#SVGID_00000128455164826521570910000016538279665974178204_);}
	.st115{fill:url(#SVGID_00000034808781678864658920000013894370099042414223_);}
	.st116{fill:url(#SVGID_00000181047780830753800600000012230744032797075080_);}
	.st117{fill:url(#SVGID_00000134972842118865657200000013091818399224523430_);}
	.st118{fill:url(#SVGID_00000169549861342937580460000000142346181789484417_);}
	.st119{fill:url(#SVGID_00000148632473201086301500000002529402756471245197_);}
	.st120{fill:url(#SVGID_00000161597595328038935100000012628782118963381691_);}
	.st121{fill:url(#SVGID_00000155145827443462834510000004586960845974199996_);}
	.st122{fill:url(#SVGID_00000077301990547736938900000008572375039752433302_);}
	.st123{fill:url(#SVGID_00000132088218566726679270000003173585206333596848_);}
	.st124{fill:url(#SVGID_00000022536474772454656530000008164319314679279247_);}
	.st125{fill:url(#SVGID_00000009559371055778873620000007576925116600825004_);}
	.st126{fill:url(#SVGID_00000116916344727575044420000015694214350845433261_);}
	.st127{fill:url(#SVGID_00000018236504161278882480000010303015731770145699_);}
	.st128{fill:url(#SVGID_00000153702049039813241190000007044020182586221195_);}
	.st129{fill:url(#SVGID_00000134954805177763340840000003309059389926978183_);}
	.st130{fill:url(#SVGID_00000003089330860575177050000017736873007824228026_);}
	.st131{fill:url(#SVGID_00000121254009328922081080000009457933051740275606_);}
	.st132{fill:url(#SVGID_00000043423930826567161190000002968962552056749503_);}
	.st133{fill:url(#SVGID_00000170958278706323181470000013963610477686749085_);}
	.st134{fill:url(#SVGID_00000008865047156080918470000007030619470172549512_);}
	.st135{fill:url(#SVGID_00000081646647814784715050000002255185827354427024_);}
	.st136{fill:url(#SVGID_00000080902462366369034690000005558008658038595232_);}
	.st137{fill:url(#SVGID_00000091723079785574323600000008702403396006492598_);}
	.st138{fill:url(#SVGID_00000071555446432879466770000001111216900799523236_);}
	.st139{fill:url(#SVGID_00000133504555424367569600000010055659788337985436_);}
	.st140{fill:url(#SVGID_00000083806419974252265750000000765547024887273890_);}
	.st141{fill:url(#SVGID_00000079450076404525383210000013533886556479048373_);}
	.st142{fill:url(#SVGID_00000127753319742383085340000002981611052448673440_);}
	.st143{fill:url(#SVGID_00000139980778109567597730000013624391727519296657_);}
	.st144{fill:url(#SVGID_00000145019511503853899450000005048041879392003767_);}
	.st145{fill:url(#SVGID_00000163074469851188071600000015358239505048354692_);}
	.st146{fill:url(#SVGID_00000008141804375924343750000017276556659008485042_);}
	.st147{fill:url(#SVGID_00000094583377600120075440000007494012705585024144_);}
	.st148{fill:url(#SVGID_00000062178586989678796610000009800687037274337452_);}
	.st149{fill:#1A1A1A;}
	.st150{fill:url(#SVGID_00000015330618885430338860000005482224366331145880_);}
	.st151{fill:url(#SVGID_00000093142552684007014280000007831788459577568401_);}
	.st152{fill:url(#SVGID_00000159428843464931922190000016530729813082233275_);}
	.st153{fill:url(#SVGID_00000098921314878953998210000016125694252730822278_);}
	.st154{fill:url(#SVGID_00000119810083898586562100000001279126183862352308_);}
	.st155{fill:url(#SVGID_00000112634980915118841870000009696857611393373861_);}
	.st156{fill:url(#SVGID_00000024688364299351219130000011443661648888781492_);}
	.st157{fill:url(#SVGID_00000067924441161222555170000011584477939346328459_);}
	.st158{fill:url(#SVGID_00000090986322610761104230000013931768891507781010_);}
	.st159{fill:url(#SVGID_00000131369910513933228400000013073469786597755055_);}
	.st160{fill:url(#SVGID_00000170957690160856596260000007909099757054661802_);}
	.st161{fill:url(#SVGID_00000065049821887437729040000007986003781113831844_);}
	.st162{fill:url(#SVGID_00000085241348700408918970000007551880177071468682_);}
	.st163{fill:url(#SVGID_00000099639305485232777030000011935231638365958312_);}
	.st164{fill:url(#SVGID_00000160887581289590439710000015878882954188503454_);}
	.st165{fill:url(#SVGID_00000183931964282123754530000010159943352632072323_);}
	.st166{fill:url(#SVGID_00000064312219044471441550000001819796744885024695_);}
	.st167{fill:url(#SVGID_00000039831082809816817950000012915673594498429077_);}
	.st168{fill:url(#SVGID_00000120536105149127656640000018421532041356490639_);}
	.st169{fill:url(#SVGID_00000094606576881250981720000010931991792602206101_);}
	.st170{fill:url(#SVGID_00000155829890389586147610000009244175369355824045_);}
	.st171{fill:url(#SVGID_00000014631650993505734890000018322413342710325911_);}
	.st172{fill:url(#SVGID_00000031928858301605853630000000768298355917977528_);}
	.st173{fill:url(#SVGID_00000130609030912214802920000005027758581108889531_);}
	.st174{fill:url(#SVGID_00000145767767769078119480000017221420864142879653_);}
	.st175{fill:url(#SVGID_00000035521882718966490870000005030098867545275034_);}
	.st176{fill:url(#SVGID_00000018929065208556355520000001366070415914701478_);}
	.st177{fill:url(#SVGID_00000014629758522086192380000006973169675717051524_);}
	.st178{fill:url(#SVGID_00000106868176281054528110000006170098099737857169_);}
	.st179{fill:url(#SVGID_00000057121966127649373930000016221139743296795827_);}
	.st180{fill:url(#SVGID_00000105413329467091156920000002093942541393410725_);}
	.st181{fill:url(#SVGID_00000074417553602297233970000017040537632082642080_);}
	.st182{fill:url(#SVGID_00000141433338460749266730000017105178223335620244_);}
	.st183{fill:url(#SVGID_00000067958744582881618780000000169117402023385533_);}
	.st184{fill:url(#SVGID_00000092423098586479593670000011304174458367610286_);}
	.st185{fill:url(#SVGID_00000005946428757211825540000014723981066288209816_);}
	.st186{fill:url(#SVGID_00000096780412823911725970000008536703622882189716_);}
	.st187{fill:url(#SVGID_00000013164129016978556030000004541144450371328650_);}
	.st188{fill:url(#SVGID_00000149368269119972484440000010551887554760426890_);}
	.st189{fill:url(#SVGID_00000124873473308782378880000007100395155109906082_);}
	.st190{fill:url(#SVGID_00000053518621452189361520000007425831471287061925_);}
	.st191{fill:url(#SVGID_00000020399973308872274280000013219652672140607621_);}
</style>
<g>
	<path class="st108" d="M167.43,53.65c-1.62,0.66-3,2.58-7.02,2.58c-6.54,0-19.44-4.44-19.44-13.68c0-12.18,21.84-17.58,26.4-19.14
		L167.43,53.65z M162.15,52.51V26.89c-6.12,2.52-14.34,8.22-14.34,14.46C147.81,47.59,155.61,50.83,162.15,52.51z"/>
	<path class="st108" d="M184.11,31.81c8.16,0,12.24,5.34,12.24,10.68c0,8.28-9.78,11.58-14.64,11.94c-0.72,0.06-0.6-0.42,0-0.66
		c4.74-2.04,8.04-4.02,8.46-8.82h-7.44c-0.72,0-5.52,0.18-6.3,0.3c-2.04,0.36-2.28,0.3-1.62-0.18c0.42-0.3,2.7-2.58,3.54-3.36
		l0.12-0.12h11.64c-0.72-5.52-3.96-7.86-7.14-7.86c-4.32,0-7.08,2.7-7.08,4.68c0,0.48-0.12,0.66-0.3,0.72
		c-1.74,0.6-2.76,1.14-3.72,1.92c-0.3,0.24-0.72,0.48-0.48-0.24C172.05,39.01,175.23,31.81,184.11,31.81z"/>
	<path class="st108" d="M225.51,44.89c0,6.3-3.78,9.12-7.62,9.12c-8.76,0-9.6-7.56-9.6-4.98v3.12l-3.3,1.8
		c-0.18,0.12-1.38,0.9-1.56,1.08c-0.48,0.42-0.54,0.42-0.48,0.12c0.06-0.18,0.12-1.38,0.12-1.98V39.01c0-1.44-0.42-2.04-1.92-2.34
		c-0.6-0.12-1.68-0.18-2.22-0.18s-0.54-0.3-0.3-0.42c2.76-1.14,4.74-2.52,7.5-4.14c1.32-0.78,2.16,0.96,2.16,2.46v7.98
		c0,4.26,2.04,6.84,7.2,6.84c2.46,0,5.88-1.14,5.88-6.24c0-4.32-1.56-5.64-4.14-7.08c-0.84-0.48-1.92-0.42-2.4-0.3
		c-0.72,0.18-1.02,0.12-0.96-0.12c0.06-0.12,0.24-0.36,0.54-0.66l2.94-2.7h4.14c0.72,0,5.52-0.18,6.3-0.3
		c2.04-0.36,2.28-0.3,1.62,0.18c-0.42,0.3-2.7,2.58-3.54,3.36l-0.12,0.12h-4.86C217.89,35.47,225.51,36.49,225.51,44.89z"/>
	<path class="st108" d="M243.81,31.75c5.76,0,9.42,2.52,9.42,4.98v25.68l-3.3,1.8c-0.18,0.12-1.38,0.9-1.56,1.08
		c-0.48,0.42-0.54,0.42-0.48,0.12c0.06-0.18,0.12-1.38,0.12-1.98V39.37c0-2.64-2.82-4.5-6.78-4.5c-2.58,0-6.48,1.38-10.5,4.5
		c-0.6,0.48-1.32,0.06-0.9-0.48C231.45,36.79,235.11,31.75,243.81,31.75z"/>
	<path class="st108" d="M260.43,36.49c-0.6-0.12-1.68-0.18-2.22-0.18s-0.54-0.3-0.3-0.42c2.76-1.14,4.74-2.52,7.5-4.14
		c1.32-0.78,2.16,0.96,2.16,2.46v2.34c2.4-2.7,6.9-5.04,9.54-5.04c2.88,0,7.62,2.7,7.62,7.02c0,3.3-2.7,5.82-6.06,6.78v10.92
		c0,5.4,1.5,7.38,3.96,7.38c1.74,0,3.42-1.02,4.62-2.46c0.3-0.36,0.66,0.06,0.48,0.48c-0.9,1.92-3.9,5.04-6.78,5.04
		c-4.74,0-7.5-3.06-7.5-9.12v-12l-0.96-0.24c-0.78-0.24-1.02-0.78,0-0.96c1.32-0.24,6.12-0.54,6.12-4.98c0-2.76-1.68-5.16-4.74-5.16
		c-1.98,0-4.98,2.52-6.3,4.14v13.38l-3.3,1.8c-0.18,0.12-1.38,0.9-1.56,1.08c-0.48,0.42-0.54,0.42-0.48,0.12
		c0.06-0.18,0.12-1.38,0.12-1.98V38.83C262.35,37.39,261.93,36.79,260.43,36.49z"/>
	<path class="st108" d="M291.93,36.31c-0.6-0.12-1.68-0.18-2.22-0.18s-0.54-0.3-0.3-0.42c2.76-1.14,4.74-2.52,7.5-4.14
		c1.32-0.78,2.16,0.96,2.16,2.46v3.06c2.46-2.64,5.76-5.28,10.14-5.28c3.12,0,5.7,1.2,6.6,2.28c-0.3,0.18-2.94,2.64-3.36,3.3
		c-1.2-1.2-3.36-2.22-6.36-2.22c-2.94,0-4.62,1.8-7.02,4.2v5.64c2.94-1.62,7.38-4.56,9.24-4.56c4.02,0,7.5,2.58,7.5,6.96
		c0,4.86-6.06,6.72-9.84,6.72c-3.18,0-5.52-1.86-6.9-2.46v0.48c0,4.26-8.7,12.06-9.9,12.66c-0.36,0.18-0.66,0-0.3-0.36
		c1.08-0.96,4.98-7.68,4.98-11.52v-0.18v-4.68v-9.42C293.85,37.21,293.43,36.61,291.93,36.31z M307.59,51.85
		c2.4,0,2.94-0.18,2.94-2.88c0-3.3-2.82-5.52-4.74-5.52c-1.68,0-4.08,2.16-6.18,3.12C301.71,49.09,305.01,51.85,307.59,51.85z"/>
	<path class="st108" d="M319.71,28.33c-0.6-0.12-1.68-0.18-2.22-0.18s-0.54-0.3-0.3-0.42c2.76-1.14,4.74-2.52,7.5-4.14
		c1.32-0.78,2.16,0.96,2.16,2.46v27.96h2.22c0.72,0,5.52-0.18,6.3-0.3c2.04-0.36,2.28-0.3,1.62,0.18c-0.42,0.3-2.7,2.58-3.54,3.36
		l-0.12,0.12h-11.64h-0.06h-0.06h0.06v-26.7C321.63,29.23,321.21,28.63,319.71,28.33z"/>
	<path class="st108" d="M368.67,23.89c6.24,0,10.98,2.16,10.98,4.62v25.14l-3.3,1.8c-0.18,0.12-1.38,0.9-1.56,1.08
		c-0.48,0.42-0.54,0.42-0.48,0.12c0.06-0.18,0.12-1.38,0.12-1.98v-22.5c0-3.66-4.92-5.16-8.04-5.16c-3.18,0-7.56,1.44-11.46,4.5
		c-0.54,0.42-1.08,0-0.72-0.54C355.59,28.93,359.73,23.89,368.67,23.89z"/>
	<path class="st108" d="M385.65,28.27c-0.6-0.12-1.68-0.18-2.22-0.18s-0.54-0.3-0.3-0.42c2.76-1.14,4.74-2.52,7.5-4.14
		c1.32-0.78,2.16,0.96,2.16,2.46v16.5c1.14-0.18,2.64-0.78,5.22-2.1c3-1.56,3.96-3.36,4.26-4.68c0.3-1.32-0.9-1.92-1.44-2.28
		c-0.36-0.18-0.42-0.54,0.24-0.54c1.5,0,3.66-0.18,5.58-0.72c0.6-0.12,0.72,0.06,0.72,1.14c0,4.2-2.7,4.92-6.06,6.9
		c5.7,0.24,9.66,2.1,9.66,6.42c0,4.92-7.2,9.06-11.82,10.5c-0.6,0.18-0.72-0.06-0.3-0.36c2.64-1.68,6.3-5.4,6.3-9
		c0-2.22-1.38-5.4-6.96-5.76c-2.28,1.26-4.26,2.16-5.4,2.76v8.82l-3.3,1.8c-0.18,0.12-1.38,0.9-1.56,1.08
		c-0.48,0.42-0.54,0.42-0.48,0.12c0.06-0.18,0.12-1.38,0.12-1.98v-24C387.57,29.17,387.15,28.57,385.65,28.27z"/>
	<path class="st108" d="M416.61,36.31c-0.6-0.12-1.68-0.18-2.22-0.18s-0.54-0.3-0.3-0.42c2.76-1.14,4.74-2.52,7.5-4.14
		c1.32-0.78,2.16,0.96,2.16,2.46v3.06c2.46-2.64,5.76-5.28,10.14-5.28c3.12,0,5.7,1.2,6.6,2.28c-0.3,0.18-2.94,2.64-3.36,3.3
		c-1.2-1.2-3.36-2.22-6.36-2.22c-2.94,0-4.62,1.8-7.02,4.2v5.64c2.94-1.62,7.38-4.56,9.24-4.56c4.02,0,7.5,2.58,7.5,6.96
		c0,4.86-6.06,6.72-9.84,6.72c-3.18,0-5.52-1.86-6.9-2.46v0.48c0,4.26-8.7,12.06-9.9,12.66c-0.36,0.18-0.66,0-0.3-0.36
		c1.08-0.96,4.98-7.68,4.98-11.52v-0.18v-4.68v-9.42C418.53,37.21,418.11,36.61,416.61,36.31z M432.27,51.85
		c2.4,0,2.94-0.18,2.94-2.88c0-3.3-2.82-5.52-4.74-5.52c-1.68,0-4.08,2.16-6.18,3.12C426.39,49.09,429.69,51.85,432.27,51.85z"/>
	<path class="st108" d="M469.65,44.89c0,6.3-3.78,9.12-7.62,9.12c-8.76,0-9.6-7.56-9.6-4.98v3.12l-3.3,1.8
		c-0.18,0.12-1.38,0.9-1.56,1.08c-0.48,0.42-0.54,0.42-0.48,0.12c0.06-0.18,0.12-1.38,0.12-1.98V39.01c0-1.44-0.42-2.04-1.92-2.34
		c-0.6-0.12-1.68-0.18-2.22-0.18s-0.54-0.3-0.3-0.42c2.76-1.14,4.74-2.52,7.5-4.14c1.32-0.78,2.16,0.96,2.16,2.46v7.98
		c0,4.26,2.04,6.84,7.2,6.84c2.46,0,5.88-1.14,5.88-6.24c0-4.32-1.56-5.64-4.14-7.08c-0.84-0.48-1.92-0.42-2.4-0.3
		c-0.72,0.18-1.02,0.12-0.96-0.12c0.06-0.12,0.24-0.36,0.54-0.66l2.94-2.7h4.14c0.72,0,5.52-0.18,6.3-0.3
		c2.04-0.36,2.28-0.3,1.62,0.18c-0.42,0.3-2.7,2.58-3.54,3.36l-0.12,0.12h-4.86C462.03,35.47,469.65,36.49,469.65,44.89z"/>
	<path class="st108" d="M476.19,36.31c-0.6-0.12-1.68-0.18-2.22-0.18s-0.54-0.3-0.3-0.42c2.76-1.14,4.74-2.52,7.5-4.14
		c1.32-0.78,2.16,0.96,2.16,2.46v3.06c2.46-2.64,5.76-5.28,10.14-5.28c3.12,0,5.7,1.2,6.6,2.28c-0.3,0.18-2.94,2.64-3.36,3.3
		c-1.2-1.2-3.36-2.22-6.36-2.22c-2.94,0-4.62,1.8-7.02,4.2v5.64c2.94-1.62,7.38-4.56,9.24-4.56c4.02,0,7.5,2.58,7.5,6.96
		c0,4.86-6.06,6.72-9.84,6.72c-3.18,0-5.52-1.86-6.9-2.46v0.48c0,4.26-8.7,12.06-9.9,12.66c-0.36,0.18-0.66,0-0.3-0.36
		c1.08-0.96,4.98-7.68,4.98-11.52v-0.18v-4.68v-9.42C478.11,37.21,477.69,36.61,476.19,36.31z M491.85,51.85
		c2.4,0,2.94-0.18,2.94-2.88c0-3.3-2.82-5.52-4.74-5.52c-1.68,0-4.08,2.16-6.18,3.12C485.97,49.09,489.27,51.85,491.85,51.85z"/>
	<path class="st108" d="M503.97,28.33c-0.6-0.12-1.68-0.18-2.22-0.18s-0.54-0.3-0.3-0.42c2.76-1.14,4.74-2.52,7.5-4.14
		c1.32-0.78,2.16,0.96,2.16,2.46v27.96h2.22c0.72,0,5.52-0.18,6.3-0.3c2.04-0.36,2.28-0.3,1.62,0.18c-0.42,0.3-2.7,2.58-3.54,3.36
		l-0.12,0.12h-11.64h-0.06h-0.06h0.06v-26.7C505.89,29.23,505.47,28.63,503.97,28.33z"/>
	<path class="st108" d="M523.89,36.31c-0.6-0.12-1.68-0.18-2.22-0.18s-0.54-0.3-0.3-0.42c2.76-1.14,4.74-2.52,7.5-4.14
		c1.32-0.78,2.16,0.96,2.16,2.46v3.06c2.46-2.64,5.76-5.28,10.14-5.28c3.12,0,5.7,1.2,6.6,2.28c-0.3,0.18-2.94,2.64-3.36,3.3
		c-1.2-1.2-3.36-2.22-6.36-2.22c-2.94,0-4.62,1.8-7.02,4.2v5.64c2.94-1.62,7.38-4.56,9.24-4.56c4.02,0,7.5,2.58,7.5,6.96
		c0,4.86-6.06,6.72-9.84,6.72c-3.18,0-5.52-1.86-6.9-2.46v0.48c0,4.26-8.7,12.06-9.9,12.66c-0.36,0.18-0.66,0-0.3-0.36
		c1.08-0.96,4.98-7.68,4.98-11.52v-0.18v-4.68v-9.42C525.81,37.21,525.39,36.61,523.89,36.31z M539.55,51.85
		c2.4,0,2.94-0.18,2.94-2.88c0-3.3-2.82-5.52-4.74-5.52c-1.68,0-4.08,2.16-6.18,3.12C533.67,49.09,536.97,51.85,539.55,51.85z"/>
	<path class="st108" d="M576.93,44.89c0,6.3-3.78,9.12-7.62,9.12c-8.76,0-9.6-7.56-9.6-4.98v3.12l-3.3,1.8
		c-0.18,0.12-1.38,0.9-1.56,1.08c-0.48,0.42-0.54,0.42-0.48,0.12c0.06-0.18,0.12-1.38,0.12-1.98V39.01c0-1.44-0.42-2.04-1.92-2.34
		c-0.6-0.12-1.68-0.18-2.22-0.18s-0.54-0.3-0.3-0.42c2.76-1.14,4.74-2.52,7.5-4.14c1.32-0.78,2.16,0.96,2.16,2.46v7.98
		c0,4.26,2.04,6.84,7.2,6.84c2.46,0,5.88-1.14,5.88-6.24c0-4.32-1.56-5.64-4.14-7.08c-0.84-0.48-1.92-0.42-2.4-0.3
		c-0.72,0.18-1.02,0.12-0.96-0.12c0.06-0.12,0.24-0.36,0.54-0.66l2.94-2.7h4.14c0.72,0,5.52-0.18,6.3-0.3
		c2.04-0.36,2.28-0.3,1.62,0.18c-0.42,0.3-2.7,2.58-3.54,3.36l-0.12,0.12h-4.86C569.31,35.47,576.93,36.49,576.93,44.89z"/>
	<path class="st108" d="M612.51,23.89c6.24,0,10.98,2.16,10.98,4.62v25.14l-3.3,1.8c-0.18,0.12-1.38,0.9-1.56,1.08
		c-0.48,0.42-0.54,0.42-0.48,0.12c0.06-0.18,0.12-1.38,0.12-1.98v-22.5c0-3.66-4.92-5.16-8.04-5.16c-3.18,0-7.56,1.44-11.46,4.5
		c-0.54,0.42-1.08,0-0.72-0.54C599.43,28.93,603.57,23.89,612.51,23.89z"/>
	<path class="st108" d="M629.49,28.27c-0.6-0.12-1.68-0.18-2.22-0.18s-0.54-0.3-0.3-0.42c2.76-1.14,4.74-2.52,7.5-4.14
		c1.32-0.78,2.16,0.96,2.16,2.46v16.5c1.14-0.18,2.64-0.78,5.22-2.1c3-1.56,3.96-3.36,4.26-4.68c0.3-1.32-0.9-1.92-1.44-2.28
		c-0.36-0.18-0.42-0.54,0.24-0.54c1.5,0,3.66-0.18,5.58-0.72c0.6-0.12,0.72,0.06,0.72,1.14c0,4.2-2.7,4.92-6.06,6.9
		c5.7,0.24,9.66,2.1,9.66,6.42c0,4.92-7.2,9.06-11.82,10.5c-0.6,0.18-0.72-0.06-0.3-0.36c2.64-1.68,6.3-5.4,6.3-9
		c0-2.22-1.38-5.4-6.96-5.76c-2.28,1.26-4.26,2.16-5.4,2.76v8.82l-3.3,1.8c-0.18,0.12-1.38,0.9-1.56,1.08
		c-0.48,0.42-0.54,0.42-0.48,0.12c0.06-0.18,0.12-1.38,0.12-1.98v-24C631.41,29.17,630.99,28.57,629.49,28.27z"/>
	<path class="st108" d="M669.69,31.81c8.16,0,12.24,5.34,12.24,10.68c0,8.28-9.78,11.58-14.64,11.94c-0.72,0.06-0.6-0.42,0-0.66
		c4.74-2.04,8.04-4.02,8.46-8.82h-7.44c-0.72,0-5.52,0.18-6.3,0.3c-2.04,0.36-2.28,0.3-1.62-0.18c0.42-0.3,2.7-2.58,3.54-3.36
		l0.12-0.12h11.64c-0.72-5.52-3.96-7.86-7.14-7.86c-4.32,0-7.08,2.7-7.08,4.68c0,0.48-0.12,0.66-0.3,0.72
		c-1.74,0.6-2.76,1.14-3.72,1.92c-0.3,0.24-0.72,0.48-0.48-0.24C657.63,39.01,660.81,31.81,669.69,31.81z"/>
	<path class="st108" d="M702.33,28.33c-0.6-0.12-1.68-0.18-2.22-0.18s-0.54-0.3-0.3-0.42c2.76-1.14,4.74-2.52,7.5-4.14
		c1.32-0.78,2.16,0.96,2.16,2.46v6c3.3-3.72,8.46-8.46,14.58-8.46c3.72,0,6.6,1.38,8.22,2.7c0.36,0.3,0,0.3-0.24,0.42
		c-1.08,0.6-2.64,2.28-3.66,3.66c-0.06,0.12-0.24,0.3-0.48,0.12c-1.62-1.44-4.26-2.7-7.8-2.7c-4.14,0-7.02,2.46-10.62,5.94v7.68
		c3.42-1.5,10.5-6.18,13.2-6.18c5.04,0,10.08,4.8,10.08,9.9c0,5.4-8.28,10.14-13.02,10.14c-4.8,0-8.52-4.56-10.02-4.56h-0.24v2.94
		l-3.3,1.8c-0.18,0.12-1.38,0.9-1.56,1.08c-0.48,0.42-0.54,0.42-0.48,0.12c0.06-0.18,0.12-1.38,0.12-1.98v-24
		C704.25,29.23,703.83,28.63,702.33,28.33z M720.99,51.79c5.22,0,6.6-2.4,4.5-7.38c-1.08-2.52-3.54-5.4-6.06-5.4
		c-1.98,0-6.54,3.12-9.6,4.44C712.59,46.69,716.97,51.79,720.99,51.79z"/>
	<path class="st108" d="M748.23,31.81c8.16,0,12.24,5.34,12.24,10.68c0,8.28-9.78,11.58-14.64,11.94c-0.72,0.06-0.6-0.42,0-0.66
		c4.74-2.04,8.04-4.02,8.46-8.82h-7.44c-0.72,0-5.52,0.18-6.3,0.3c-2.04,0.36-2.28,0.3-1.62-0.18c0.42-0.3,2.7-2.58,3.54-3.36
		l0.12-0.12h11.64c-0.72-5.52-3.96-7.86-7.14-7.86c-4.32,0-7.08,2.7-7.08,4.68c0,0.48-0.12,0.66-0.3,0.72
		c-1.74,0.6-2.76,1.14-3.72,1.92c-0.3,0.24-0.72,0.48-0.48-0.24C736.17,39.01,739.35,31.81,748.23,31.81z"/>
	<path class="st108" d="M776.67,31.75c5.76,0,9.42,2.52,9.42,4.98v25.68l-3.3,1.8c-0.18,0.12-1.38,0.9-1.56,1.08
		c-0.48,0.42-0.54,0.42-0.48,0.12c0.06-0.18,0.12-1.38,0.12-1.98V39.37c0-2.64-2.82-4.5-6.78-4.5c-2.58,0-6.48,1.38-10.5,4.5
		c-0.6,0.48-1.32,0.06-0.9-0.48C764.31,36.79,767.97,31.75,776.67,31.75z"/>
	<path class="st108" d="M792.09,28.27c-0.6-0.12-1.68-0.18-2.22-0.18s-0.54-0.3-0.3-0.42c2.76-1.14,4.74-2.52,7.5-4.14
		c1.32-0.78,2.16,0.96,2.16,2.46v16.5c1.14-0.18,2.64-0.78,5.22-2.1c3-1.56,3.96-3.36,4.26-4.68c0.3-1.32-0.9-1.92-1.44-2.28
		c-0.36-0.18-0.42-0.54,0.24-0.54c1.5,0,3.66-0.18,5.58-0.72c0.6-0.12,0.72,0.06,0.72,1.14c0,4.2-2.7,4.92-6.06,6.9
		c5.7,0.24,9.66,2.1,9.66,6.42c0,4.92-7.2,9.06-11.82,10.5c-0.6,0.18-0.72-0.06-0.3-0.36c2.64-1.68,6.3-5.4,6.3-9
		c0-2.22-1.38-5.4-6.96-5.76c-2.28,1.26-4.26,2.16-5.4,2.76v8.82l-3.3,1.8c-0.18,0.12-1.38,0.9-1.56,1.08
		c-0.48,0.42-0.54,0.42-0.48,0.12c0.06-0.18,0.12-1.38,0.12-1.98v-24C794.01,29.17,793.59,28.57,792.09,28.27z"/>
	<path class="st108" d="M832.29,31.81c8.16,0,12.24,5.34,12.24,10.68c0,8.28-9.78,11.58-14.64,11.94c-0.72,0.06-0.6-0.42,0-0.66
		c4.74-2.04,8.04-4.02,8.46-8.82h-7.44c-0.72,0-5.52,0.18-6.3,0.3c-2.04,0.36-2.28,0.3-1.62-0.18c0.42-0.3,2.7-2.58,3.54-3.36
		l0.12-0.12h11.64c-0.72-5.52-3.96-7.86-7.14-7.86c-4.32,0-7.08,2.7-7.08,4.68c0,0.48-0.12,0.66-0.3,0.72
		c-1.74,0.6-2.76,1.14-3.72,1.92c-0.3,0.24-0.72,0.48-0.48-0.24C820.23,39.01,823.41,31.81,832.29,31.81z"/>
	<path class="st108" d="M849.33,36.49c-0.6-0.12-1.68-0.18-2.22-0.18s-0.54-0.3-0.3-0.42c2.76-1.14,4.74-2.52,7.5-4.14
		c1.32-0.78,2.16,0.96,2.16,2.46v2.34c2.4-2.7,6.9-5.04,9.54-5.04c2.88,0,7.62,2.7,7.62,7.02c0,3.3-2.7,5.82-6.06,6.78v10.92
		c0,5.4,1.5,7.38,3.96,7.38c1.74,0,3.42-1.02,4.62-2.46c0.3-0.36,0.66,0.06,0.48,0.48c-0.9,1.92-3.9,5.04-6.78,5.04
		c-4.74,0-7.5-3.06-7.5-9.12v-12l-0.96-0.24c-0.78-0.24-1.02-0.78,0-0.96c1.32-0.24,6.12-0.54,6.12-4.98c0-2.76-1.68-5.16-4.74-5.16
		c-1.98,0-4.98,2.52-6.3,4.14v13.38l-3.3,1.8c-0.18,0.12-1.38,0.9-1.56,1.08c-0.48,0.42-0.54,0.42-0.48,0.12
		c0.06-0.18,0.12-1.38,0.12-1.98V38.83C851.25,37.39,850.83,36.79,849.33,36.49z"/>
	<path class="st108" d="M892.05,31.45c5.52,0,9.6,3.78,10.86,5.34c0.24,0.3-0.3,0.6-0.48,0.78c-1.02,0.84-2.28,2.22-3.12,3.36
		c-0.18,0.24-0.36,0.3-0.54,0c-1.2-2.4-4.68-7.56-8.52-7.56c-3.54,0-5.52,2.88-5.52,6.78v20.34l-3.3,1.8
		c-0.18,0.12-1.38,0.9-1.56,1.08c-0.48,0.42-0.54,0.42-0.48,0.12c0.06-0.18,0.12-1.38,0.12-1.98v-21.3
		C879.51,36.73,884.73,31.45,892.05,31.45z"/>
	<path class="st108" d="M906.81,50.89c-4.5-5.82-1.68-11.76,1.68-15.3c3.54-3.96,8.1-5.58,13.62-2.58c4.86,2.7,7.38,9.54,2.22,16.32
		C918.63,56.83,909.93,54.97,906.81,50.89z M919.35,37.15c-3.48-2.64-7.5-2.94-9.3-1.08c-2.46,2.58-1.56,8.28,0.66,11.16
		c2.64,3.42,8.7,5.04,10.8,3C925.05,46.75,922.53,39.67,919.35,37.15z"/>
	<path class="st108" d="M956.31,44.89c0,6.3-3.78,9.12-7.62,9.12c-8.76,0-9.6-7.56-9.6-4.98v3.12l-3.3,1.8
		c-0.18,0.12-1.38,0.9-1.56,1.08c-0.48,0.42-0.54,0.42-0.48,0.12c0.06-0.18,0.12-1.38,0.12-1.98V39.01c0-1.44-0.42-2.04-1.92-2.34
		c-0.6-0.12-1.68-0.18-2.22-0.18s-0.54-0.3-0.3-0.42c2.76-1.14,4.74-2.52,7.5-4.14c1.32-0.78,2.16,0.96,2.16,2.46v7.98
		c0,4.26,2.04,6.84,7.2,6.84c2.46,0,5.88-1.14,5.88-6.24c0-4.32-1.56-5.64-4.14-7.08c-0.84-0.48-1.92-0.42-2.4-0.3
		c-0.72,0.18-1.02,0.12-0.96-0.12c0.06-0.12,0.24-0.36,0.54-0.66l2.94-2.7h4.14c0.72,0,5.52-0.18,6.3-0.3
		c2.04-0.36,2.28-0.3,1.62,0.18c-0.42,0.3-2.7,2.58-3.54,3.36l-0.12,0.12h-4.86C948.69,35.47,956.31,36.49,956.31,44.89z"/>
	<path class="st108" d="M974.61,31.75c5.76,0,9.42,2.52,9.42,4.98v25.68l-3.3,1.8c-0.18,0.12-1.38,0.9-1.56,1.08
		c-0.48,0.42-0.54,0.42-0.48,0.12c0.06-0.18,0.12-1.38,0.12-1.98V39.37c0-2.64-2.82-4.5-6.78-4.5c-2.58,0-6.48,1.38-10.5,4.5
		c-0.6,0.48-1.32,0.06-0.9-0.48C962.25,36.79,965.91,31.75,974.61,31.75z"/>
	<path class="st108" d="M167.43,113.65c-1.62,0.66-3,2.58-7.02,2.58c-6.54,0-19.44-4.44-19.44-13.68c0-12.18,21.84-17.58,26.4-19.14
		L167.43,113.65z M162.15,112.51V86.89c-6.12,2.52-14.34,8.22-14.34,14.46C147.81,107.59,155.61,110.83,162.15,112.51z"/>
	<path class="st108" d="M184.11,91.81c8.16,0,12.24,5.34,12.24,10.68c0,8.28-9.78,11.58-14.64,11.94c-0.72,0.06-0.6-0.42,0-0.66
		c4.74-2.04,8.04-4.02,8.46-8.82h-7.44c-0.72,0-5.52,0.18-6.3,0.3c-2.04,0.36-2.28,0.3-1.62-0.18c0.42-0.3,2.7-2.58,3.54-3.36
		l0.12-0.12h11.64c-0.72-5.52-3.96-7.86-7.14-7.86c-4.32,0-7.08,2.7-7.08,4.68c0,0.48-0.12,0.66-0.3,0.72
		c-1.74,0.6-2.76,1.14-3.72,1.92c-0.3,0.24-0.72,0.48-0.48-0.24C172.05,99.01,175.23,91.81,184.11,91.81z"/>
	<path class="st108" d="M225.51,104.89c0,6.3-3.78,9.12-7.62,9.12c-8.76,0-9.6-7.56-9.6-4.98v3.12l-3.3,1.8
		c-0.18,0.12-1.38,0.9-1.56,1.08c-0.48,0.42-0.54,0.42-0.48,0.12c0.06-0.18,0.12-1.38,0.12-1.98V99.01c0-1.44-0.42-2.04-1.92-2.34
		c-0.6-0.12-1.68-0.18-2.22-0.18s-0.54-0.3-0.3-0.42c2.76-1.14,4.74-2.52,7.5-4.14c1.32-0.78,2.16,0.96,2.16,2.46v7.98
		c0,4.26,2.04,6.84,7.2,6.84c2.46,0,5.88-1.14,5.88-6.24c0-4.32-1.56-5.64-4.14-7.08c-0.84-0.48-1.92-0.42-2.4-0.3
		c-0.72,0.18-1.02,0.12-0.96-0.12c0.06-0.12,0.24-0.36,0.54-0.66l2.94-2.7h4.14c0.72,0,5.52-0.18,6.3-0.3
		c2.04-0.36,2.28-0.3,1.62,0.18c-0.42,0.3-2.7,2.58-3.54,3.36l-0.12,0.12h-4.86C217.89,95.47,225.51,96.49,225.51,104.89z"/>
	<path class="st108" d="M243.81,91.75c5.76,0,9.42,2.52,9.42,4.98v25.68l-3.3,1.8c-0.18,0.12-1.38,0.9-1.56,1.08
		c-0.48,0.42-0.54,0.42-0.48,0.12c0.06-0.18,0.12-1.38,0.12-1.98V99.37c0-2.64-2.82-4.5-6.78-4.5c-2.58,0-6.48,1.38-10.5,4.5
		c-0.6,0.48-1.32,0.06-0.9-0.48C231.45,96.79,235.11,91.75,243.81,91.75z"/>
	<path class="st108" d="M260.43,96.49c-0.6-0.12-1.68-0.18-2.22-0.18s-0.54-0.3-0.3-0.42c2.76-1.14,4.74-2.52,7.5-4.14
		c1.32-0.78,2.16,0.96,2.16,2.46v2.34c2.4-2.7,6.9-5.04,9.54-5.04c2.88,0,7.62,2.7,7.62,7.02c0,3.3-2.7,5.82-6.06,6.78v10.92
		c0,5.4,1.86,9.66,6.84,8.22c4.98-1.44,8.34-3.24,8.34-11.52v-0.18v-4.68v-9.42c0-1.44-0.42-2.04-1.92-2.34
		c-0.6-0.12-1.68-0.18-2.22-0.18s-0.54-0.3-0.3-0.42c2.76-1.14,4.74-2.52,7.5-4.14c1.32-0.78,2.16,0.96,2.16,2.46v3.06
		c2.46-2.64,5.76-5.28,10.14-5.28c3.12,0,5.7,1.2,6.6,2.28c-0.3,0.18-2.94,2.64-3.36,3.3c-1.2-1.2-3.36-2.22-6.36-2.22
		c-2.94,0-4.62,1.8-7.02,4.2v5.64c2.94-1.62,7.38-4.56,9.24-4.56c4.02,0,7.5,2.58,7.5,6.96c0,4.86-6.06,6.72-9.84,6.72
		c-3.18,0-5.52-1.86-6.9-2.46v0.48c0,7.38-9.78,13.2-15.96,14.28c-6.9,1.2-9.66-2.82-9.66-8.88v-12l-0.96-0.24
		c-0.78-0.24-1.02-0.78,0-0.96c1.32-0.24,6.12-0.54,6.12-4.98c0-2.76-1.68-5.16-4.74-5.16c-1.98,0-4.98,2.52-6.3,4.14v20.4l-3.3,1.8
		c-0.18,0.12-1.38,0.9-1.56,1.08c-0.48,0.42-0.54,0.42-0.48,0.12c0.06-0.18,0.12-1.38,0.12-1.98V98.83
		C262.35,97.39,261.93,96.79,260.43,96.49z M307.59,111.85c2.4,0,2.94-0.18,2.94-2.88c0-3.3-2.82-5.52-4.74-5.52
		c-1.68,0-4.08,2.16-6.18,3.12C301.71,109.09,305.01,111.85,307.59,111.85z"/>
	<path class="st108" d="M319.71,88.33c-0.6-0.12-1.68-0.18-2.22-0.18s-0.54-0.3-0.3-0.42c2.76-1.14,4.74-2.52,7.5-4.14
		c1.32-0.78,2.16,0.96,2.16,2.46v27.96h2.22c0.72,0,5.52-0.18,6.3-0.3c2.04-0.36,2.28-0.3,1.62,0.18c-0.42,0.3-2.7,2.58-3.54,3.36
		l-0.12,0.12h-11.64h-0.06h-0.06h0.06v-26.7C321.63,89.23,321.21,88.63,319.71,88.33z"/>
	<path class="st108" d="M368.67,83.89c6.24,0,10.98,2.16,10.98,4.62v25.14l-3.3,1.8c-0.18,0.12-1.38,0.9-1.56,1.08
		c-0.48,0.42-0.54,0.42-0.48,0.12c0.06-0.18,0.12-1.38,0.12-1.98v-22.5c0-3.66-4.92-5.16-8.04-5.16c-3.18,0-7.56,1.44-11.46,4.5
		c-0.54,0.42-1.08,0-0.72-0.54C355.59,88.93,359.73,83.89,368.67,83.89z"/>
	<path class="st108" d="M385.65,88.27c-0.6-0.12-1.68-0.18-2.22-0.18s-0.54-0.3-0.3-0.42c2.76-1.14,4.74-2.52,7.5-4.14
		c1.32-0.78,2.16,0.96,2.16,2.46v16.5c1.14-0.18,2.64-0.78,5.22-2.1c3-1.56,3.96-3.36,4.26-4.68c0.3-1.32-0.9-1.92-1.44-2.28
		c-0.36-0.18-0.42-0.54,0.24-0.54c1.5,0,3.66-0.18,5.58-0.72c0.6-0.12,0.72,0.06,0.72,1.14c0,4.2-2.7,4.92-6.06,6.9
		c5.7,0.24,9.66,2.1,9.66,6.42c0,4.92-7.2,9.06-11.82,10.5c-0.6,0.18-0.72-0.06-0.3-0.36c2.64-1.68,6.3-5.4,6.3-9
		c0-2.22-1.38-5.4-6.96-5.76c-2.28,1.26-4.26,2.16-5.4,2.76v8.82l-3.3,1.8c-0.18,0.12-1.38,0.9-1.56,1.08
		c-0.48,0.42-0.54,0.42-0.48,0.12c0.06-0.18,0.12-1.38,0.12-1.98v-24C387.57,89.17,387.15,88.57,385.65,88.27z"/>
	<path class="st108" d="M416.61,96.31c-0.6-0.12-1.68-0.18-2.22-0.18s-0.54-0.3-0.3-0.42c2.76-1.14,4.74-2.52,7.5-4.14
		c1.32-0.78,2.16,0.96,2.16,2.46v3.06c2.46-2.64,5.76-5.28,10.14-5.28c3.12,0,5.7,1.2,6.6,2.28c-0.3,0.18-2.94,2.64-3.36,3.3
		c-1.2-1.2-3.36-2.22-6.36-2.22c-2.94,0-4.62,1.8-7.02,4.2v5.64c2.94-1.62,7.38-4.56,9.24-4.56c4.02,0,7.5,2.58,7.5,6.96
		c0,4.86-6.06,6.72-9.84,6.72c-3.18,0-5.52-1.86-6.9-2.46v0.48c0,4.26-8.7,12.06-9.9,12.66c-0.36,0.18-0.66,0-0.3-0.36
		c1.08-0.96,4.98-7.68,4.98-11.52v-0.18v-4.68v-9.42C418.53,97.21,418.11,96.61,416.61,96.31z M432.27,111.85
		c2.4,0,2.94-0.18,2.94-2.88c0-3.3-2.82-5.52-4.74-5.52c-1.68,0-4.08,2.16-6.18,3.12C426.39,109.09,429.69,111.85,432.27,111.85z"/>
	<path class="st108" d="M469.65,104.89c0,6.3-3.78,9.12-7.62,9.12c-8.76,0-9.6-7.56-9.6-4.98v3.12l-3.3,1.8
		c-0.18,0.12-1.38,0.9-1.56,1.08c-0.48,0.42-0.54,0.42-0.48,0.12c0.06-0.18,0.12-1.38,0.12-1.98V99.01c0-1.44-0.42-2.04-1.92-2.34
		c-0.6-0.12-1.68-0.18-2.22-0.18s-0.54-0.3-0.3-0.42c2.76-1.14,4.74-2.52,7.5-4.14c1.32-0.78,2.16,0.96,2.16,2.46v7.98
		c0,4.26,2.04,6.84,7.2,6.84c2.46,0,5.88-1.14,5.88-6.24c0-4.32-1.56-5.64-4.14-7.08c-0.84-0.48-1.92-0.42-2.4-0.3
		c-0.72,0.18-1.02,0.12-0.96-0.12c0.06-0.12,0.24-0.36,0.54-0.66l2.94-2.7h4.14c0.72,0,5.52-0.18,6.3-0.3
		c2.04-0.36,2.28-0.3,1.62,0.18c-0.42,0.3-2.7,2.58-3.54,3.36l-0.12,0.12h-4.86C462.03,95.47,469.65,96.49,469.65,104.89z"/>
	<path class="st108" d="M476.19,96.31c-0.6-0.12-1.68-0.18-2.22-0.18s-0.54-0.3-0.3-0.42c2.76-1.14,4.74-2.52,7.5-4.14
		c1.32-0.78,2.16,0.96,2.16,2.46v3.06c2.46-2.64,5.76-5.28,10.14-5.28c3.12,0,5.7,1.2,6.6,2.28c-0.3,0.18-2.94,2.64-3.36,3.3
		c-1.2-1.2-3.36-2.22-6.36-2.22c-2.94,0-4.62,1.8-7.02,4.2v5.64c2.94-1.62,7.38-4.56,9.24-4.56c4.02,0,7.5,2.58,7.5,6.96
		c0,4.86-6.06,6.72-9.84,6.72c-3.18,0-5.52-1.86-6.9-2.46v0.48c0,4.26-8.7,12.06-9.9,12.66c-0.36,0.18-0.66,0-0.3-0.36
		c1.08-0.96,4.98-7.68,4.98-11.52v-0.18v-4.68v-9.42C478.11,97.21,477.69,96.61,476.19,96.31z M491.85,111.85
		c2.4,0,2.94-0.18,2.94-2.88c0-3.3-2.82-5.52-4.74-5.52c-1.68,0-4.08,2.16-6.18,3.12C485.97,109.09,489.27,111.85,491.85,111.85z"/>
	<path class="st108" d="M503.97,88.33c-0.6-0.12-1.68-0.18-2.22-0.18s-0.54-0.3-0.3-0.42c2.76-1.14,4.74-2.52,7.5-4.14
		c1.32-0.78,2.16,0.96,2.16,2.46v27.96h2.22c0.72,0,5.52-0.18,6.3-0.3c2.04-0.36,2.28-0.3,1.62,0.18c-0.42,0.3-2.7,2.58-3.54,3.36
		l-0.12,0.12h-11.64h-0.06h-0.06h0.06v-26.7C505.89,89.23,505.47,88.63,503.97,88.33z"/>
	<path class="st108" d="M523.89,96.31c-0.6-0.12-1.68-0.18-2.22-0.18s-0.54-0.3-0.3-0.42c2.76-1.14,4.74-2.52,7.5-4.14
		c1.32-0.78,2.16,0.96,2.16,2.46v3.06c2.46-2.64,5.76-5.28,10.14-5.28c3.12,0,5.7,1.2,6.6,2.28c-0.3,0.18-2.94,2.64-3.36,3.3
		c-1.2-1.2-3.36-2.22-6.36-2.22c-2.94,0-4.62,1.8-7.02,4.2v5.64c2.94-1.62,7.38-4.56,9.24-4.56c4.02,0,7.5,2.58,7.5,6.96
		c0,4.86-6.06,6.72-9.84,6.72c-3.18,0-5.52-1.86-6.9-2.46v0.48c0,4.26-8.7,12.06-9.9,12.66c-0.36,0.18-0.66,0-0.3-0.36
		c1.08-0.96,4.98-7.68,4.98-11.52v-0.18v-4.68v-9.42C525.81,97.21,525.39,96.61,523.89,96.31z M539.55,111.85
		c2.4,0,2.94-0.18,2.94-2.88c0-3.3-2.82-5.52-4.74-5.52c-1.68,0-4.08,2.16-6.18,3.12C533.67,109.09,536.97,111.85,539.55,111.85z"/>
	<path class="st108" d="M576.93,104.89c0,6.3-3.78,9.12-7.62,9.12c-8.76,0-9.6-7.56-9.6-4.98v3.12l-3.3,1.8
		c-0.18,0.12-1.38,0.9-1.56,1.08c-0.48,0.42-0.54,0.42-0.48,0.12c0.06-0.18,0.12-1.38,0.12-1.98V99.01c0-1.44-0.42-2.04-1.92-2.34
		c-0.6-0.12-1.68-0.18-2.22-0.18s-0.54-0.3-0.3-0.42c2.76-1.14,4.74-2.52,7.5-4.14c1.32-0.78,2.16,0.96,2.16,2.46v7.98
		c0,4.26,2.04,6.84,7.2,6.84c2.46,0,5.88-1.14,5.88-6.24c0-4.32-1.56-5.64-4.14-7.08c-0.84-0.48-1.92-0.42-2.4-0.3
		c-0.72,0.18-1.02,0.12-0.96-0.12c0.06-0.12,0.24-0.36,0.54-0.66l2.94-2.7h4.14c0.72,0,5.52-0.18,6.3-0.3
		c2.04-0.36,2.28-0.3,1.62,0.18c-0.42,0.3-2.7,2.58-3.54,3.36l-0.12,0.12h-4.86C569.31,95.47,576.93,96.49,576.93,104.89z"/>
	<path class="st108" d="M612.51,83.89c6.24,0,10.98,2.16,10.98,4.62v25.14l-3.3,1.8c-0.18,0.12-1.38,0.9-1.56,1.08
		c-0.48,0.42-0.54,0.42-0.48,0.12c0.06-0.18,0.12-1.38,0.12-1.98v-22.5c0-3.66-4.92-5.16-8.04-5.16c-3.18,0-7.56,1.44-11.46,4.5
		c-0.54,0.42-1.08,0-0.72-0.54C599.43,88.93,603.57,83.89,612.51,83.89z"/>
	<path class="st108" d="M629.49,88.27c-0.6-0.12-1.68-0.18-2.22-0.18s-0.54-0.3-0.3-0.42c2.76-1.14,4.74-2.52,7.5-4.14
		c1.32-0.78,2.16,0.96,2.16,2.46v16.5c1.14-0.18,2.64-0.78,5.22-2.1c3-1.56,3.96-3.36,4.26-4.68c0.3-1.32-0.9-1.92-1.44-2.28
		c-0.36-0.18-0.42-0.54,0.24-0.54c1.5,0,3.66-0.18,5.58-0.72c0.6-0.12,0.72,0.06,0.72,1.14c0,4.2-2.7,4.92-6.06,6.9
		c5.7,0.24,9.66,2.1,9.66,6.42c0,4.92-7.2,9.06-11.82,10.5c-0.6,0.18-0.72-0.06-0.3-0.36c2.64-1.68,6.3-5.4,6.3-9
		c0-2.22-1.38-5.4-6.96-5.76c-2.28,1.26-4.26,2.16-5.4,2.76v8.82l-3.3,1.8c-0.18,0.12-1.38,0.9-1.56,1.08
		c-0.48,0.42-0.54,0.42-0.48,0.12c0.06-0.18,0.12-1.38,0.12-1.98v-24C631.41,89.17,630.99,88.57,629.49,88.27z"/>
	<path class="st108" d="M669.69,91.81c8.16,0,12.24,5.34,12.24,10.68c0,8.28-9.78,11.58-14.64,11.94c-0.72,0.06-0.6-0.42,0-0.66
		c4.74-2.04,8.04-4.02,8.46-8.82h-7.44c-0.72,0-5.52,0.18-6.3,0.3c-2.04,0.36-2.28,0.3-1.62-0.18c0.42-0.3,2.7-2.58,3.54-3.36
		l0.12-0.12h11.64c-0.72-5.52-3.96-7.86-7.14-7.86c-4.32,0-7.08,2.7-7.08,4.68c0,0.48-0.12,0.66-0.3,0.72
		c-1.74,0.6-2.76,1.14-3.72,1.92c-0.3,0.24-0.72,0.48-0.48-0.24C657.63,99.01,660.81,91.81,669.69,91.81z"/>
	<path class="st108" d="M702.33,88.33c-0.6-0.12-1.68-0.18-2.22-0.18s-0.54-0.3-0.3-0.42c2.76-1.14,4.74-2.52,7.5-4.14
		c1.32-0.78,2.16,0.96,2.16,2.46v6c3.3-3.72,8.46-8.46,14.58-8.46c3.72,0,6.6,1.38,8.22,2.7c0.36,0.3,0,0.3-0.24,0.42
		c-1.08,0.6-2.64,2.28-3.66,3.66c-0.06,0.12-0.24,0.3-0.48,0.12c-1.62-1.44-4.26-2.7-7.8-2.7c-4.14,0-7.02,2.46-10.62,5.94v7.68
		c3.42-1.5,10.5-6.18,13.2-6.18c5.04,0,10.08,4.8,10.08,9.9c0,5.4-8.28,10.14-13.02,10.14c-4.8,0-8.52-4.56-10.02-4.56h-0.24v2.94
		l-3.3,1.8c-0.18,0.12-1.38,0.9-1.56,1.08c-0.48,0.42-0.54,0.42-0.48,0.12c0.06-0.18,0.12-1.38,0.12-1.98v-24
		C704.25,89.23,703.83,88.63,702.33,88.33z M720.99,111.79c5.22,0,6.6-2.4,4.5-7.38c-1.08-2.52-3.54-5.4-6.06-5.4
		c-1.98,0-6.54,3.12-9.6,4.44C712.59,106.69,716.97,111.79,720.99,111.79z"/>
	<path class="st108" d="M748.23,91.81c8.16,0,12.24,5.34,12.24,10.68c0,8.28-9.78,11.58-14.64,11.94c-0.72,0.06-0.6-0.42,0-0.66
		c4.74-2.04,8.04-4.02,8.46-8.82h-7.44c-0.72,0-5.52,0.18-6.3,0.3c-2.04,0.36-2.28,0.3-1.62-0.18c0.42-0.3,2.7-2.58,3.54-3.36
		l0.12-0.12h11.64c-0.72-5.52-3.96-7.86-7.14-7.86c-4.32,0-7.08,2.7-7.08,4.68c0,0.48-0.12,0.66-0.3,0.72
		c-1.74,0.6-2.76,1.14-3.72,1.92c-0.3,0.24-0.72,0.48-0.48-0.24C736.17,99.01,739.35,91.81,748.23,91.81z"/>
	<path class="st108" d="M776.67,91.75c5.76,0,9.42,2.52,9.42,4.98v25.68l-3.3,1.8c-0.18,0.12-1.38,0.9-1.56,1.08
		c-0.48,0.42-0.54,0.42-0.48,0.12c0.06-0.18,0.12-1.38,0.12-1.98V99.37c0-2.64-2.82-4.5-6.78-4.5c-2.58,0-6.48,1.38-10.5,4.5
		c-0.6,0.48-1.32,0.06-0.9-0.48C764.31,96.79,767.97,91.75,776.67,91.75z"/>
	<path class="st108" d="M792.09,88.27c-0.6-0.12-1.68-0.18-2.22-0.18s-0.54-0.3-0.3-0.42c2.76-1.14,4.74-2.52,7.5-4.14
		c1.32-0.78,2.16,0.96,2.16,2.46v16.5c1.14-0.18,2.64-0.78,5.22-2.1c3-1.56,3.96-3.36,4.26-4.68c0.3-1.32-0.9-1.92-1.44-2.28
		c-0.36-0.18-0.42-0.54,0.24-0.54c1.5,0,3.66-0.18,5.58-0.72c0.6-0.12,0.72,0.06,0.72,1.14c0,4.2-2.7,4.92-6.06,6.9
		c5.7,0.24,9.66,2.1,9.66,6.42c0,4.92-7.2,9.06-11.82,10.5c-0.6,0.18-0.72-0.06-0.3-0.36c2.64-1.68,6.3-5.4,6.3-9
		c0-2.22-1.38-5.4-6.96-5.76c-2.28,1.26-4.26,2.16-5.4,2.76v8.82l-3.3,1.8c-0.18,0.12-1.38,0.9-1.56,1.08
		c-0.48,0.42-0.54,0.42-0.48,0.12c0.06-0.18,0.12-1.38,0.12-1.98v-24C794.01,89.17,793.59,88.57,792.09,88.27z"/>
	<path class="st108" d="M832.29,91.81c8.16,0,12.24,5.34,12.24,10.68c0,8.28-9.78,11.58-14.64,11.94c-0.72,0.06-0.6-0.42,0-0.66
		c4.74-2.04,8.04-4.02,8.46-8.82h-7.44c-0.72,0-5.52,0.18-6.3,0.3c-2.04,0.36-2.28,0.3-1.62-0.18c0.42-0.3,2.7-2.58,3.54-3.36
		l0.12-0.12h11.64c-0.72-5.52-3.96-7.86-7.14-7.86c-4.32,0-7.08,2.7-7.08,4.68c0,0.48-0.12,0.66-0.3,0.72
		c-1.74,0.6-2.76,1.14-3.72,1.92c-0.3,0.24-0.72,0.48-0.48-0.24C820.23,99.01,823.41,91.81,832.29,91.81z"/>
	<path class="st108" d="M849.33,96.49c-0.6-0.12-1.68-0.18-2.22-0.18s-0.54-0.3-0.3-0.42c2.76-1.14,4.74-2.52,7.5-4.14
		c1.32-0.78,2.16,0.96,2.16,2.46v2.34c2.4-2.7,6.9-5.04,9.54-5.04c2.88,0,7.62,2.7,7.62,7.02c0,3.3-2.7,5.82-6.06,6.78v10.92
		c0,5.4,2.58,8.94,5.94,8.94c2.76,0,6-1.56,6-9.12v-15.84c0-3.48,5.22-8.76,12.54-8.76c5.52,0,9.6,3.78,10.86,5.34
		c0.24,0.3-0.3,0.6-0.48,0.78c-1.02,0.84-2.28,2.22-3.12,3.36c-0.18,0.24-0.36,0.3-0.54,0c-1.2-2.4-4.68-7.56-8.52-7.56
		c-3.54,0-5.52,2.88-5.52,6.78v16.86c0,7.02-7.86,9.66-12,9.66c-6.36,0-10.38-3.06-10.38-9.12v-12l-0.96-0.24
		c-0.78-0.24-1.02-0.78,0-0.96c1.32-0.24,6.12-0.54,6.12-4.98c0-2.76-1.68-5.16-4.74-5.16c-1.98,0-4.98,2.52-6.3,4.14v20.4l-3.3,1.8
		c-0.18,0.12-1.38,0.9-1.56,1.08c-0.48,0.42-0.54,0.42-0.48,0.12c0.06-0.18,0.12-1.38,0.12-1.98V98.83
		C851.25,97.39,850.83,96.79,849.33,96.49z M879.51,115.93h-0.06H879.51z"/>
	<path class="st108" d="M906.81,110.89c-4.5-5.82-1.68-11.76,1.68-15.3c3.54-3.96,8.1-5.58,13.62-2.58
		c4.86,2.7,7.38,9.54,2.22,16.32C918.63,116.83,909.93,114.97,906.81,110.89z M919.35,97.15c-3.48-2.64-7.5-2.94-9.3-1.08
		c-2.46,2.58-1.56,8.28,0.66,11.16c2.64,3.42,8.7,5.04,10.8,3C925.05,106.75,922.53,99.67,919.35,97.15z"/>
	<path class="st108" d="M956.31,104.89c0,6.3-3.78,9.12-7.62,9.12c-8.76,0-9.6-7.56-9.6-4.98v3.12l-3.3,1.8
		c-0.18,0.12-1.38,0.9-1.56,1.08c-0.48,0.42-0.54,0.42-0.48,0.12c0.06-0.18,0.12-1.38,0.12-1.98V99.01c0-1.44-0.42-2.04-1.92-2.34
		c-0.6-0.12-1.68-0.18-2.22-0.18s-0.54-0.3-0.3-0.42c2.76-1.14,4.74-2.52,7.5-4.14c1.32-0.78,2.16,0.96,2.16,2.46v7.98
		c0,4.26,2.04,6.84,7.2,6.84c2.46,0,5.88-1.14,5.88-6.24c0-4.32-1.56-5.64-4.14-7.08c-0.84-0.48-1.92-0.42-2.4-0.3
		c-0.72,0.18-1.02,0.12-0.96-0.12c0.06-0.12,0.24-0.36,0.54-0.66l2.94-2.7h4.14c0.72,0,5.52-0.18,6.3-0.3
		c2.04-0.36,2.28-0.3,1.62,0.18c-0.42,0.3-2.7,2.58-3.54,3.36l-0.12,0.12h-4.86C948.69,95.47,956.31,96.49,956.31,104.89z"/>
	<path class="st108" d="M974.61,91.75c5.76,0,9.42,2.52,9.42,4.98v25.68l-3.3,1.8c-0.18,0.12-1.38,0.9-1.56,1.08
		c-0.48,0.42-0.54,0.42-0.48,0.12c0.06-0.18,0.12-1.38,0.12-1.98V99.37c0-2.64-2.82-4.5-6.78-4.5c-2.58,0-6.48,1.38-10.5,4.5
		c-0.6,0.48-1.32,0.06-0.9-0.48C962.25,96.79,965.91,91.75,974.61,91.75z"/>
</g>
<g>
	<g>
		<g>
			<g>
				<path class="st108" d="M270.91,22.69c-1.47-0.73-3.12-1.14-4.86-1.14c-1.99,0-3.97,0.55-5.69,1.57
					c-0.73,0.43-1.41,0.84-2.07,1.24c-0.59,0.36-1.12,0.67-1.62,0.97c-3.38-2.25-7.83-3.58-12.85-3.58c-3.4,0-6.34,0.53-8.87,1.36
					c-1.59-0.98-3.46-1.53-5.45-1.53c-0.96,0-1.88,0.12-3.07,0.32c-1.06,0.08-4.29,0.21-4.93,0.21h-8.04l-1.2,1.1
					c-1.62-0.95-3.49-1.48-5.49-1.48c-1.99,0-3.97,0.55-5.69,1.57c-0.73,0.43-1.41,0.84-2.06,1.24c-0.63,0.39-1.19,0.72-1.73,1.03
					c-3.46-2.32-7.86-3.76-13.17-3.76c-2.45,0-4.69,0.34-6.74,0.93l-0.03-13.31l-13.21,4.52c-0.39,0.13-0.92,0.29-1.56,0.49
					c-8.64,2.67-31.6,9.77-31.6,28.11c0,15.45,17.1,23.68,29.44,23.68c5.87,0,9.41-2.31,11.12-3.42c0.04-0.02,0.07-0.05,0.11-0.07
					l2.74-1.12c1.87,1.77,4.41,2.82,7.22,2.82c0.29,0,0.6-0.01,0.85-0.03c4.15-0.31,8.39-1.53,12.13-3.57
					c0.2,0.3,0.41,0.59,0.64,0.87l3.03,3.67l4.73,0c3.43,0,5.72-1.69,6.74-2.54c0.09-0.06,0.19-0.13,0.29-0.2
					c2.77,1.06,5.52,1.39,7.89,1.39c7.92,0,15.9-5.39,17.36-15.7c0.57-0.3,1.12-0.65,1.63-1.05c0.39-0.3,0.77-0.57,1.12-0.81v16.98
					c0,0.15-0.01,0.36-0.02,0.55c-0.43,2.88,0.35,5.76,2.16,7.97l3.03,3.67l4.73,0c3.43,0,5.72-1.69,6.74-2.54
					c0.14-0.1,0.3-0.2,0.43-0.29l8.15-4.44v-3.46c0.43-0.04,0.84-0.1,1.23-0.19c2.55,8.21,9.55,11.97,16.49,11.97
					c2.62,0,5.01-0.72,7.12-1.82c0.28,0.02,0.55,0.04,0.83,0.04c1.63,0,3.26-0.39,4.74-1.13c0.91-0.45,6.35-4.35,10.51-9.71
					c0.58,0.06,1.19,0.09,1.81,0.09c1.9,0,3.83-0.23,5.7-0.69l0.02,3.92h25.78l2.93-2.93c0.35-0.33,0.85-0.81,1.37-1.32
					c0.55-0.53,1.13-1.1,1.5-1.44c4.22-3.33,4.57-8.09,3.55-11.22c-1.36-4.17-5.28-6.98-9.75-6.98c-0.07,0-0.15,0-0.22,0V26.05
					c0-7.09-5.06-12.65-11.53-12.65c-1.99,0-3.97,0.55-5.69,1.57c-0.73,0.43-1.41,0.84-2.06,1.24c-1.64,1-2.83,1.72-4.19,2.28
					l-0.33,0.14l-0.32,0.16c-1.48,0.74-2.7,1.79-3.63,3.03c-2.11,0.01-4.17,0.34-6.17,0.97c-1.6-0.9-3.42-1.41-5.38-1.41
					c-1.99,0-3.96,0.55-5.69,1.57c-0.73,0.43-1.4,0.84-2.05,1.23c-0.71,0.43-1.32,0.8-1.91,1.14c-3.18-2.42-7.07-3.8-10.78-3.8
					C275.08,21.51,272.96,21.95,270.91,22.69z"/>
				<path class="st108" d="M608.25,55.22c-0.43,2.88,0.35,5.76,2.17,7.97l3.03,3.67l4.73,0c3.21,0,5.41-1.47,6.51-2.36l1.9,2.3h4.73
					c2.31,0,4.1-0.76,5.33-1.52c1.7,1.22,3.78,1.91,6,1.91c1.06,0,2.14-0.16,3.21-0.48l0.11-0.03c3.61-1.13,8.52-3.46,12.42-6.98
					c1.84,2.9,5.08,4.74,8.79,4.74c0.29,0,0.6-0.01,0.85-0.03c11.59-0.86,23.9-8.83,23.9-21.91c0-10.03-7.79-20.68-22.24-20.68
					c-4.66,0-8.59,1.2-11.84,3.1c-1.96-1.83-4.53-2.77-7.1-2.77c-0.74,0-1.47,0.07-2.23,0.23l-0.38,0.08l-0.37,0.1
					c-0.4,0.11-0.94,0.21-1.5,0.27c-1.25-5.51-5.71-9.47-11.17-9.47c-1.99,0-3.97,0.55-5.69,1.57c-0.73,0.43-1.42,0.84-2.07,1.24
					c-0.49,0.3-0.93,0.56-1.35,0.81c-3.54-1.95-8.16-3.07-13.48-3.07c-9.52,0-17.81,4.18-22.79,11.54
					c-0.12,0.18-0.22,0.38-0.33,0.57c-1.86-2.72-5-4.42-8.49-4.42c-0.96,0-1.88,0.12-3.07,0.32c-1.06,0.08-4.29,0.21-4.93,0.21
					h-8.04l-1.2,1.1c-1.62-0.95-3.49-1.48-5.49-1.48c-1.99,0-3.97,0.55-5.69,1.57c-0.51,0.3-0.99,0.59-1.46,0.88
					c-2.83-1.51-6.28-2.37-9.86-2.37c-2.15,0-4.25,0.33-6.29,0.98c-1.6-0.9-3.42-1.41-5.38-1.41c-1.99,0-3.96,0.55-5.69,1.57
					c-0.73,0.43-1.4,0.84-2.05,1.23c-0.26,0.16-0.48,0.29-0.72,0.44c-0.63-6.39-5.43-11.22-11.45-11.22c-1.99,0-3.97,0.55-5.69,1.57
					c-0.73,0.43-1.41,0.84-2.06,1.24c-1.64,1-2.83,1.72-4.19,2.28l-0.33,0.14l-0.32,0.16c-1.48,0.74-2.7,1.79-3.63,3.03
					c-2.11,0.01-4.17,0.34-6.17,0.97c-1.6-0.9-3.42-1.41-5.38-1.41c-1.5,0-3,0.32-4.39,0.91c-1.18-0.46-2.46-0.71-3.78-0.71
					c-0.96,0-1.88,0.12-3.07,0.32c-1.06,0.08-4.29,0.21-4.93,0.21h-8.04l-1.2,1.1c-1.62-0.95-3.49-1.48-5.49-1.48
					c-1.99,0-3.97,0.55-5.69,1.57c-0.51,0.3-0.99,0.59-1.46,0.88c-2.83-1.51-6.28-2.37-9.86-2.37c-2.15,0-4.25,0.33-6.29,0.98
					c-1.6-0.9-3.42-1.41-5.38-1.41c-1.99,0-3.96,0.55-5.69,1.57c-0.73,0.43-1.4,0.84-2.05,1.23c-0.27,0.17-0.52,0.31-0.77,0.46
					c-1.91-1.65-4.36-2.5-6.79-2.5c-0.74,0-1.47,0.07-2.23,0.23l-0.38,0.08l-0.37,0.1c-0.4,0.11-0.94,0.21-1.5,0.27
					c-1.25-5.51-5.71-9.47-11.17-9.47c-1.99,0-3.97,0.55-5.69,1.57c-0.73,0.43-1.42,0.84-2.07,1.24c-0.49,0.3-0.93,0.56-1.35,0.81
					c-3.54-1.95-8.16-3.07-13.48-3.07c-9.52,0-17.81,4.18-22.79,11.54c-2.17,3.25-2.38,7.38-0.56,10.78
					c1.81,3.37,5.32,5.47,9.17,5.47c2.35,0,4.69-0.81,6.61-2.3c1.18-0.93,2.36-1.53,3.33-1.89v17.18c0,0.15-0.01,0.37-0.02,0.56
					c-0.43,2.88,0.35,5.76,2.16,7.97l3.03,3.67l4.73,0c3.21,0,5.41-1.47,6.51-2.36l1.9,2.3h4.73c2.31,0,4.1-0.76,5.34-1.52
					c1.7,1.22,3.78,1.91,6,1.91c1.06,0,2.15-0.16,3.21-0.48l0.11-0.03c0.45-0.14,0.91-0.3,1.39-0.47c0.12,0.81,0.32,1.62,0.64,2.41
					c1.58,3.81,5.28,6.27,9.43,6.27c1.63,0,3.26-0.39,4.74-1.13c0.91-0.45,6.35-4.35,10.51-9.71c0.58,0.06,1.19,0.09,1.81,0.09
					c3.13,0,6.32-0.62,9.2-1.83l2.53,3.07l4.73,0c3.43,0,5.72-1.69,6.74-2.54c0.09-0.06,0.19-0.13,0.29-0.2
					c2.77,1.06,5.52,1.39,7.89,1.39c0.33,0,0.66-0.03,0.99-0.05c-0.12,1.56,0.1,3.15,0.72,4.65c1.58,3.81,5.28,6.27,9.43,6.27
					c1.63,0,3.26-0.39,4.74-1.13c0.91-0.45,6.35-4.35,10.51-9.71c0.58,0.06,1.19,0.09,1.81,0.09c1.9,0,3.83-0.23,5.7-0.69l0.02,3.93
					h15.08c0.11,0.42,0.24,0.84,0.41,1.24c1.58,3.81,5.28,6.27,9.43,6.27c1.63,0,3.26-0.39,4.74-1.13
					c0.91-0.45,6.35-4.35,10.51-9.71c0.58,0.06,1.19,0.09,1.81,0.09c3.13,0,6.32-0.62,9.2-1.83l2.53,3.07l4.73,0
					c3.43,0,5.72-1.69,6.74-2.54c0.09-0.06,0.19-0.13,0.29-0.2c2.77,1.06,5.52,1.39,7.89,1.39c8.76,0,17.62-6.57,17.62-19.12
					c0-1.38-0.12-2.91-0.46-4.51c0.25-0.24,0.47-0.45,0.64-0.61c1.08-0.86,1.91-1.81,2.52-2.8c1.9,2.92,5.15,4.71,8.69,4.71
					c2.35,0,4.69-0.81,6.61-2.3c1.18-0.93,2.36-1.53,3.33-1.89v17.18C608.27,54.81,608.26,55.03,608.25,55.22z"/>
				<path class="st108" d="M994.03,36.73c0-8.54-8.35-14.98-19.42-14.98c-3.4,0-6.34,0.53-8.87,1.36c-1.59-0.98-3.46-1.53-5.45-1.53
					c-0.96,0-1.88,0.12-3.07,0.32c-1.06,0.08-4.29,0.21-4.93,0.21h-8.04l-1.2,1.1c-1.62-0.95-3.49-1.48-5.49-1.48
					c-1.99,0-3.97,0.55-5.69,1.57c-0.73,0.43-1.41,0.84-2.06,1.24c-0.44,0.27-0.84,0.51-1.23,0.74c-0.54-0.38-1.1-0.74-1.69-1.06
					c-3.38-1.83-6.84-2.76-10.3-2.76c-3.11,0-7.36,0.78-11.67,3.93c-3.16-2.07-7.5-3.94-12.86-3.94c-5.36,0-10.42,1.75-14.39,4.57
					c-3.33-2.85-7.6-4.51-11.65-4.51c-2.03,0-4.15,0.44-6.2,1.19c-1.47-0.73-3.12-1.14-4.86-1.14c-1.99,0-3.97,0.55-5.69,1.57
					c-0.73,0.43-1.41,0.84-2.07,1.24c-0.69,0.42-1.29,0.78-1.87,1.11c-3.43-2.26-7.79-3.67-13.03-3.67c-4.66,0-8.59,1.2-11.84,3.1
					c-1.96-1.83-4.53-2.77-7.1-2.77c-0.74,0-1.47,0.07-2.23,0.23l-0.38,0.08l-0.37,0.1c-0.4,0.11-0.94,0.21-1.5,0.27
					c-1.25-5.51-5.71-9.47-11.17-9.47c-1.99,0-3.97,0.55-5.69,1.57c-0.73,0.43-1.42,0.84-2.07,1.24c-1.64,1-2.83,1.72-4.19,2.28
					l-0.33,0.14l-0.32,0.16c-1.63,0.81-2.95,2-3.92,3.41c-1.44-0.25-2.95-0.39-4.51-0.39c-6.47,0-11.27,1.91-14.75,4.18
					c-3.53-2.53-8.11-4.12-13.69-4.12c-2.38,0-4.56,0.32-6.56,0.87c-0.63-1.54-1.63-2.94-2.99-4.07l-0.09-0.07
					c-3.86-3.14-9.16-4.95-14.54-4.95c-3.2,0-6.36,0.69-9.45,2.07c-1.87-1.43-4.16-2.26-6.66-2.26c-1.99,0-3.97,0.55-5.69,1.57
					c-0.73,0.43-1.41,0.84-2.06,1.24c-1.64,1-2.83,1.72-4.19,2.28l-0.33,0.14l-0.32,0.16c-4.28,2.14-6.5,6.86-5.41,11.47
					c0.61,2.6,2.19,4.76,4.32,6.16v18.25c0,0.15-0.01,0.36-0.02,0.55c-0.43,2.88,0.35,5.76,2.16,7.97l3.03,3.67h4.73
					c3.43,0,5.73-1.69,6.74-2.54c0.14-0.1,0.3-0.2,0.43-0.29l0.76-0.42c2.16,0.94,4.72,1.66,7.64,1.66c5.12,0,11.7-2.51,16.52-6.83
					c1.63,3.62,5.24,6,9.47,6c0.29,0,0.6-0.01,0.85-0.03c10.15-0.75,20.85-6.96,23.35-17.28c0.33-0.25,0.65-0.48,0.95-0.68v16.98
					c0,0.15-0.01,0.36-0.02,0.55c-0.43,2.88,0.35,5.76,2.16,7.97l3.03,3.67l4.73,0c3.43,0,5.72-1.69,6.74-2.54
					c0.14-0.1,0.3-0.2,0.43-0.29l8.15-4.44v-1.79c1.29-0.28,2.35-0.78,3.16-1.28c1.7,1.22,3.78,1.91,6,1.91
					c1.06,0,2.14-0.16,3.21-0.48l0.11-0.03c3.61-1.13,8.52-3.46,12.42-6.98c1.84,2.9,5.08,4.74,8.79,4.74c0.29,0,0.6-0.01,0.85-0.03
					c4.23-0.31,8.56-1.58,12.35-3.7c0.14,0.19,0.27,0.38,0.42,0.57l3.03,3.67h4.73c0.8,0,1.54-0.09,2.21-0.24
					c2.55,8.21,9.55,11.97,16.49,11.97c3.44,0,6.51-1.23,9.03-2.97h0.53c3.43,0,5.73-1.69,6.74-2.54c0.14-0.1,0.3-0.2,0.43-0.29
					l8.15-4.44l0-16.24c0.22,0.1,0.45,0.18,0.68,0.27c0.73,2.26,1.87,4.45,3.46,6.5c3.59,4.69,9.52,7.49,15.86,7.49
					c3.97,0,7.71-1.08,11.03-3.1c0.09,0.11,0.16,0.23,0.25,0.34l3.03,3.67l4.73,0c3.43,0,5.72-1.69,6.74-2.54
					c0.09-0.06,0.2-0.13,0.29-0.2c2.77,1.06,5.52,1.39,7.89,1.39c7.92,0,15.9-5.39,17.36-15.7c0.57-0.3,1.12-0.65,1.63-1.05
					c0.39-0.3,0.77-0.57,1.12-0.81v16.98c0,0.15-0.01,0.36-0.02,0.55c-0.43,2.88,0.35,5.76,2.16,7.97l3.03,3.67l4.73,0
					c3.43,0,5.72-1.69,6.74-2.54c0.14-0.1,0.3-0.2,0.43-0.29l8.15-4.44V36.73z"/>
				<path class="st108" d="M237.99,123.98c-0.43,2.88,0.35,5.76,2.16,7.97l3.03,3.67l4.73,0c3.43,0,5.72-1.69,6.74-2.54
					c0.14-0.1,0.3-0.2,0.43-0.29l2.16-1.18l0.29,0.35h4.73c2.24,0,4-0.72,5.23-1.46c3.15,3.97,7.86,6.14,13.33,6.14
					c1.29,0,2.64-0.12,4.01-0.36c6.5-1.14,15.08-5.43,20.1-12.18c0.34,0.02,0.69,0.03,1.04,0.03c1.9,0,3.83-0.23,5.7-0.69l0.02,3.93
					h25.78l2.93-2.93c0.35-0.33,0.85-0.81,1.37-1.32c0.55-0.53,1.13-1.1,1.5-1.44c4.22-3.33,4.57-8.09,3.55-11.22
					c-1.36-4.17-5.28-6.98-9.75-6.98c-0.07,0-0.15,0-0.22,0V86.05c0-7.09-5.06-12.65-11.53-12.65c-1.99,0-3.97,0.55-5.69,1.57
					c-0.73,0.43-1.41,0.84-2.06,1.24c-1.64,1-2.83,1.72-4.19,2.28l-0.33,0.14l-0.32,0.16c-1.48,0.74-2.7,1.79-3.63,3.03
					c-2.11,0.01-4.17,0.34-6.17,0.97c-1.6-0.9-3.42-1.41-5.38-1.41c-1.99,0-3.96,0.55-5.69,1.57c-0.73,0.43-1.41,0.84-2.06,1.24
					c-0.7,0.42-1.31,0.8-1.89,1.13c-3.18-2.42-7.08-3.8-10.79-3.8c-2.03,0-4.15,0.44-6.2,1.19c-1.47-0.73-3.12-1.14-4.86-1.14
					c-1.99,0-3.97,0.55-5.69,1.57c-0.73,0.43-1.41,0.84-2.07,1.24c-0.59,0.36-1.12,0.67-1.62,0.97c-3.38-2.25-7.83-3.58-12.85-3.58
					c-3.4,0-6.34,0.53-8.87,1.36c-1.59-0.98-3.46-1.53-5.45-1.53c-0.96,0-1.88,0.12-3.07,0.32c-1.06,0.08-4.29,0.21-4.93,0.21h-8.04
					l-1.2,1.1c-1.62-0.95-3.49-1.48-5.49-1.48c-1.99,0-3.97,0.55-5.69,1.57c-0.73,0.43-1.41,0.84-2.06,1.24
					c-0.63,0.39-1.19,0.72-1.73,1.03c-3.46-2.32-7.86-3.76-13.17-3.76c-2.45,0-4.69,0.34-6.74,0.93l-0.03-13.31l-13.21,4.52
					c-0.39,0.13-0.92,0.29-1.56,0.49c-8.64,2.67-31.6,9.77-31.6,28.11c0,15.45,17.1,23.68,29.44,23.68c5.87,0,9.41-2.31,11.12-3.42
					c0.04-0.02,0.07-0.05,0.11-0.07l2.74-1.12c1.87,1.77,4.41,2.82,7.22,2.82c0.29,0,0.6-0.01,0.85-0.03
					c4.15-0.31,8.39-1.53,12.13-3.57c0.2,0.3,0.41,0.59,0.64,0.87l3.03,3.67l4.73,0c3.43,0,5.72-1.69,6.74-2.54
					c0.09-0.06,0.19-0.13,0.29-0.2c2.77,1.06,5.52,1.39,7.89,1.39c7.92,0,15.9-5.39,17.36-15.7c0.57-0.3,1.12-0.65,1.63-1.05
					c0.39-0.3,0.77-0.57,1.12-0.81v16.98C238.01,123.57,238,123.79,237.99,123.98z"/>
				<path class="st108" d="M608.25,115.22c-0.43,2.88,0.35,5.76,2.17,7.97l3.03,3.67l4.73,0c3.21,0,5.41-1.47,6.51-2.36l1.9,2.3
					h4.73c2.31,0,4.1-0.76,5.33-1.52c1.7,1.22,3.78,1.91,6,1.91c1.06,0,2.14-0.16,3.21-0.48l0.11-0.03
					c3.61-1.13,8.52-3.46,12.42-6.98c1.84,2.9,5.08,4.74,8.79,4.74c0.29,0,0.6-0.01,0.85-0.03c11.59-0.86,23.9-8.83,23.9-21.91
					c0-10.03-7.79-20.68-22.24-20.68c-4.66,0-8.59,1.2-11.84,3.1c-1.96-1.83-4.53-2.77-7.1-2.77c-0.74,0-1.47,0.07-2.23,0.23
					l-0.38,0.08l-0.37,0.1c-0.4,0.11-0.94,0.21-1.5,0.27c-1.25-5.51-5.71-9.47-11.17-9.47c-1.99,0-3.97,0.55-5.69,1.57
					c-0.73,0.43-1.42,0.84-2.07,1.24c-0.49,0.3-0.93,0.56-1.35,0.81c-3.54-1.95-8.16-3.07-13.48-3.07
					c-9.52,0-17.81,4.18-22.79,11.54c-0.12,0.18-0.22,0.38-0.33,0.57c-1.86-2.72-5-4.42-8.49-4.42c-0.96,0-1.88,0.12-3.07,0.32
					c-1.06,0.08-4.29,0.21-4.93,0.21h-8.04l-1.2,1.1c-1.62-0.95-3.49-1.48-5.49-1.48c-1.99,0-3.97,0.55-5.69,1.57
					c-0.51,0.3-0.99,0.59-1.46,0.88c-2.83-1.51-6.28-2.37-9.86-2.37c-2.15,0-4.25,0.33-6.29,0.98c-1.6-0.9-3.42-1.41-5.38-1.41
					c-1.99,0-3.96,0.55-5.69,1.57c-0.73,0.43-1.4,0.84-2.05,1.23c-0.26,0.16-0.48,0.29-0.72,0.44c-0.63-6.39-5.43-11.22-11.45-11.22
					c-1.99,0-3.97,0.55-5.69,1.57c-0.73,0.43-1.41,0.84-2.06,1.24c-1.64,1-2.83,1.72-4.19,2.28l-0.33,0.14l-0.32,0.16
					c-1.48,0.74-2.7,1.79-3.63,3.03c-2.11,0.01-4.17,0.34-6.17,0.97c-1.6-0.9-3.42-1.41-5.38-1.41c-1.5,0-3,0.32-4.39,0.91
					c-1.18-0.46-2.45-0.71-3.78-0.71c-0.96,0-1.88,0.12-3.07,0.32c-1.06,0.08-4.29,0.21-4.93,0.21h-8.04l-1.2,1.1
					c-1.62-0.95-3.49-1.48-5.49-1.48c-1.99,0-3.97,0.55-5.69,1.57c-0.51,0.3-0.99,0.59-1.46,0.88c-2.83-1.51-6.28-2.37-9.86-2.37
					c-2.15,0-4.25,0.33-6.29,0.98c-1.6-0.9-3.42-1.41-5.38-1.41c-1.99,0-3.96,0.55-5.69,1.57c-0.73,0.43-1.4,0.84-2.05,1.23
					c-0.27,0.17-0.52,0.31-0.77,0.46c-1.91-1.65-4.36-2.5-6.79-2.5c-0.74,0-1.47,0.07-2.23,0.23l-0.38,0.08l-0.37,0.1
					c-0.4,0.11-0.94,0.21-1.5,0.27c-1.25-5.51-5.71-9.47-11.17-9.47c-1.99,0-3.97,0.55-5.69,1.57c-0.73,0.43-1.42,0.84-2.07,1.24
					c-0.49,0.3-0.93,0.56-1.35,0.81c-3.54-1.95-8.16-3.07-13.48-3.07c-9.52,0-17.81,4.18-22.79,11.54
					c-2.17,3.25-2.38,7.38-0.56,10.78c1.81,3.37,5.32,5.47,9.17,5.47c2.35,0,4.69-0.81,6.61-2.3c1.18-0.93,2.36-1.53,3.33-1.89
					v17.18c0,0.15-0.01,0.37-0.02,0.56c-0.43,2.88,0.35,5.76,2.16,7.97l3.03,3.67l4.73,0c3.21,0,5.41-1.47,6.51-2.36l1.9,2.3h4.73
					c2.31,0,4.1-0.76,5.34-1.52c1.7,1.22,3.78,1.91,6,1.91c1.06,0,2.15-0.16,3.21-0.48l0.11-0.03c0.45-0.14,0.91-0.3,1.39-0.47
					c0.12,0.81,0.32,1.62,0.64,2.41c1.58,3.81,5.28,6.27,9.43,6.27c1.63,0,3.26-0.39,4.74-1.13c0.91-0.45,6.35-4.35,10.51-9.71
					c0.58,0.06,1.19,0.09,1.81,0.09c3.13,0,6.32-0.62,9.2-1.83l2.53,3.07l4.73,0c3.43,0,5.72-1.69,6.74-2.54
					c0.09-0.06,0.19-0.13,0.29-0.2c2.77,1.06,5.52,1.39,7.89,1.39c0.33,0,0.66-0.03,0.99-0.05c-0.12,1.56,0.1,3.15,0.72,4.65
					c1.58,3.81,5.28,6.27,9.43,6.27c1.63,0,3.26-0.39,4.74-1.13c0.91-0.45,6.35-4.35,10.51-9.71c0.58,0.06,1.19,0.09,1.81,0.09
					c1.9,0,3.83-0.23,5.7-0.69l0.02,3.92h15.08c0.11,0.42,0.24,0.84,0.41,1.24c1.58,3.81,5.28,6.27,9.43,6.27
					c1.63,0,3.26-0.39,4.74-1.13c0.91-0.45,6.35-4.35,10.51-9.71c0.58,0.06,1.19,0.09,1.81,0.09c3.13,0,6.32-0.62,9.2-1.83
					l2.53,3.07l4.73,0c3.43,0,5.72-1.69,6.74-2.54c0.09-0.06,0.19-0.13,0.29-0.2c2.77,1.06,5.52,1.39,7.89,1.39
					c8.76,0,17.62-6.57,17.62-19.12c0-1.38-0.12-2.91-0.46-4.51c0.25-0.24,0.47-0.45,0.64-0.61c1.08-0.86,1.91-1.81,2.52-2.8
					c1.9,2.92,5.15,4.71,8.69,4.71c2.35,0,4.69-0.81,6.61-2.3c1.18-0.93,2.36-1.53,3.33-1.89v17.18
					C608.27,114.81,608.26,115.03,608.25,115.22z"/>
				<path class="st108" d="M968.79,123.98c-0.43,2.88,0.35,5.76,2.16,7.97l3.03,3.67l4.73,0c3.43,0,5.72-1.69,6.74-2.54
					c0.14-0.1,0.3-0.2,0.43-0.29l8.15-4.44V96.73c0-8.54-8.35-14.98-19.42-14.98c-3.4,0-6.34,0.53-8.87,1.36
					c-1.59-0.98-3.46-1.53-5.45-1.53c-0.96,0-1.88,0.12-3.07,0.32c-1.06,0.08-4.29,0.21-4.93,0.21h-8.04l-1.2,1.1
					c-1.62-0.95-3.49-1.48-5.49-1.48c-1.99,0-3.97,0.55-5.69,1.57c-0.73,0.43-1.41,0.84-2.06,1.24c-0.44,0.27-0.84,0.51-1.23,0.74
					c-0.54-0.38-1.1-0.74-1.69-1.06c-3.38-1.83-6.84-2.76-10.3-2.76c-3.11,0-7.36,0.78-11.67,3.93c-3.16-2.07-7.5-3.94-12.87-3.94
					c-5.36,0-10.42,1.74-14.38,4.56c-3.33-2.85-7.6-4.5-11.65-4.5c-2.03,0-4.15,0.44-6.2,1.19c-1.47-0.73-3.12-1.14-4.86-1.14
					c-1.99,0-3.97,0.55-5.69,1.57c-0.73,0.43-1.41,0.84-2.07,1.24c-0.69,0.42-1.29,0.78-1.87,1.11c-3.43-2.26-7.79-3.67-13.03-3.67
					c-4.66,0-8.59,1.2-11.84,3.1c-1.96-1.83-4.53-2.77-7.1-2.77c-0.74,0-1.47,0.07-2.23,0.23l-0.38,0.08l-0.37,0.1
					c-0.4,0.11-0.94,0.21-1.5,0.27c-1.25-5.51-5.71-9.47-11.17-9.47c-1.99,0-3.97,0.55-5.69,1.57c-0.73,0.43-1.42,0.84-2.07,1.24
					c-1.64,1-2.83,1.72-4.19,2.28l-0.33,0.14l-0.32,0.16c-1.63,0.81-2.95,2-3.92,3.41c-1.44-0.25-2.95-0.39-4.51-0.39
					c-6.47,0-11.27,1.91-14.75,4.18c-3.53-2.53-8.11-4.12-13.69-4.12c-2.38,0-4.56,0.32-6.56,0.87c-0.63-1.54-1.63-2.94-2.99-4.07
					l-0.09-0.07c-3.86-3.14-9.16-4.95-14.54-4.95c-3.2,0-6.36,0.69-9.45,2.07c-1.87-1.43-4.16-2.26-6.66-2.26
					c-1.99,0-3.97,0.55-5.69,1.57c-0.73,0.43-1.41,0.84-2.06,1.24c-1.64,1-2.83,1.72-4.19,2.28l-0.33,0.14l-0.32,0.16
					c-4.28,2.14-6.5,6.86-5.41,11.47c0.61,2.6,2.19,4.76,4.32,6.16v18.25c0,0.15-0.01,0.36-0.02,0.55
					c-0.43,2.88,0.35,5.76,2.16,7.97l3.03,3.67h4.73c3.43,0,5.73-1.69,6.74-2.54c0.14-0.1,0.3-0.2,0.43-0.29l0.76-0.42
					c2.16,0.94,4.72,1.66,7.64,1.66c5.12,0,11.7-2.51,16.52-6.83c1.63,3.62,5.24,6,9.47,6c0.29,0,0.6-0.01,0.85-0.03
					c10.15-0.75,20.85-6.96,23.35-17.28c0.32-0.24,0.64-0.48,0.94-0.68v16.98c0,0.15-0.01,0.36-0.02,0.55
					c-0.43,2.88,0.35,5.76,2.16,7.97l3.03,3.67l4.73,0c3.43,0,5.72-1.69,6.74-2.54c0.14-0.1,0.3-0.2,0.43-0.29l8.15-4.44v-1.79
					c1.29-0.28,2.35-0.78,3.16-1.28c1.7,1.22,3.78,1.91,6,1.91c1.06,0,2.14-0.16,3.21-0.48l0.11-0.03
					c3.61-1.13,8.52-3.46,12.42-6.98c1.84,2.9,5.08,4.74,8.79,4.74c0.29,0,0.6-0.01,0.85-0.03c3.56-0.26,7.18-1.2,10.5-2.75
					c-0.05,2.42,0.73,4.77,2.27,6.64l3.03,3.67h4.73c2.53,0,4.44-0.92,5.67-1.74c3.58,4.07,9.12,6.45,15.9,6.45
					c10.81,0,22-7.35,22-19.66l0-6.82c0.22,0.1,0.45,0.19,0.68,0.27c0.73,2.26,1.87,4.45,3.46,6.5c3.59,4.69,9.52,7.49,15.86,7.49
					c3.97,0,7.71-1.08,11.03-3.1c0.09,0.11,0.16,0.23,0.25,0.34l3.03,3.67l4.73,0c3.43,0,5.72-1.69,6.74-2.54
					c0.09-0.06,0.2-0.13,0.29-0.2c2.77,1.06,5.52,1.39,7.89,1.39c7.92,0,15.9-5.39,17.36-15.7c0.57-0.3,1.12-0.65,1.63-1.05
					c0.39-0.3,0.77-0.57,1.12-0.81v16.98C968.81,123.57,968.8,123.79,968.79,123.98z"/>
			</g>
		</g>
	</g>
</g>
<g>
	<path class="st149" d="M167.43,53.65c-1.62,0.66-3,2.58-7.02,2.58c-6.54,0-19.44-4.44-19.44-13.68c0-12.18,21.84-17.58,26.4-19.14
		L167.43,53.65z M162.15,52.51V26.89c-6.12,2.52-14.34,8.22-14.34,14.46C147.81,47.59,155.61,50.83,162.15,52.51z"/>
	<path class="st149" d="M184.11,31.81c8.16,0,12.24,5.34,12.24,10.68c0,8.28-9.78,11.58-14.64,11.94c-0.72,0.06-0.6-0.42,0-0.66
		c4.74-2.04,8.04-4.02,8.46-8.82h-7.44c-0.72,0-5.52,0.18-6.3,0.3c-2.04,0.36-2.28,0.3-1.62-0.18c0.42-0.3,2.7-2.58,3.54-3.36
		l0.12-0.12h11.64c-0.72-5.52-3.96-7.86-7.14-7.86c-4.32,0-7.08,2.7-7.08,4.68c0,0.48-0.12,0.66-0.3,0.72
		c-1.74,0.6-2.76,1.14-3.72,1.92c-0.3,0.24-0.72,0.48-0.48-0.24C172.05,39.01,175.23,31.81,184.11,31.81z"/>
	<path class="st149" d="M225.51,44.89c0,6.3-3.78,9.12-7.62,9.12c-8.76,0-9.6-7.56-9.6-4.98v3.12l-3.3,1.8
		c-0.18,0.12-1.38,0.9-1.56,1.08c-0.48,0.42-0.54,0.42-0.48,0.12c0.06-0.18,0.12-1.38,0.12-1.98V39.01c0-1.44-0.42-2.04-1.92-2.34
		c-0.6-0.12-1.68-0.18-2.22-0.18s-0.54-0.3-0.3-0.42c2.76-1.14,4.74-2.52,7.5-4.14c1.32-0.78,2.16,0.96,2.16,2.46v7.98
		c0,4.26,2.04,6.84,7.2,6.84c2.46,0,5.88-1.14,5.88-6.24c0-4.32-1.56-5.64-4.14-7.08c-0.84-0.48-1.92-0.42-2.4-0.3
		c-0.72,0.18-1.02,0.12-0.96-0.12c0.06-0.12,0.24-0.36,0.54-0.66l2.94-2.7h4.14c0.72,0,5.52-0.18,6.3-0.3
		c2.04-0.36,2.28-0.3,1.62,0.18c-0.42,0.3-2.7,2.58-3.54,3.36l-0.12,0.12h-4.86C217.89,35.47,225.51,36.49,225.51,44.89z"/>
	<path class="st149" d="M243.81,31.75c5.76,0,9.42,2.52,9.42,4.98v25.68l-3.3,1.8c-0.18,0.12-1.38,0.9-1.56,1.08
		c-0.48,0.42-0.54,0.42-0.48,0.12c0.06-0.18,0.12-1.38,0.12-1.98V39.37c0-2.64-2.82-4.5-6.78-4.5c-2.58,0-6.48,1.38-10.5,4.5
		c-0.6,0.48-1.32,0.06-0.9-0.48C231.45,36.79,235.11,31.75,243.81,31.75z"/>
	<path class="st149" d="M260.43,36.49c-0.6-0.12-1.68-0.18-2.22-0.18s-0.54-0.3-0.3-0.42c2.76-1.14,4.74-2.52,7.5-4.14
		c1.32-0.78,2.16,0.96,2.16,2.46v2.34c2.4-2.7,6.9-5.04,9.54-5.04c2.88,0,7.62,2.7,7.62,7.02c0,3.3-2.7,5.82-6.06,6.78v10.92
		c0,5.4,1.5,7.38,3.96,7.38c1.74,0,3.42-1.02,4.62-2.46c0.3-0.36,0.66,0.06,0.48,0.48c-0.9,1.92-3.9,5.04-6.78,5.04
		c-4.74,0-7.5-3.06-7.5-9.12v-12l-0.96-0.24c-0.78-0.24-1.02-0.78,0-0.96c1.32-0.24,6.12-0.54,6.12-4.98c0-2.76-1.68-5.16-4.74-5.16
		c-1.98,0-4.98,2.52-6.3,4.14v13.38l-3.3,1.8c-0.18,0.12-1.38,0.9-1.56,1.08c-0.48,0.42-0.54,0.42-0.48,0.12
		c0.06-0.18,0.12-1.38,0.12-1.98V38.83C262.35,37.39,261.93,36.79,260.43,36.49z"/>
	<path class="st149" d="M291.93,36.31c-0.6-0.12-1.68-0.18-2.22-0.18s-0.54-0.3-0.3-0.42c2.76-1.14,4.74-2.52,7.5-4.14
		c1.32-0.78,2.16,0.96,2.16,2.46v3.06c2.46-2.64,5.76-5.28,10.14-5.28c3.12,0,5.7,1.2,6.6,2.28c-0.3,0.18-2.94,2.64-3.36,3.3
		c-1.2-1.2-3.36-2.22-6.36-2.22c-2.94,0-4.62,1.8-7.02,4.2v5.64c2.94-1.62,7.38-4.56,9.24-4.56c4.02,0,7.5,2.58,7.5,6.96
		c0,4.86-6.06,6.72-9.84,6.72c-3.18,0-5.52-1.86-6.9-2.46v0.48c0,4.26-8.7,12.06-9.9,12.66c-0.36,0.18-0.66,0-0.3-0.36
		c1.08-0.96,4.98-7.68,4.98-11.52v-0.18v-4.68v-9.42C293.85,37.21,293.43,36.61,291.93,36.31z M307.59,51.85
		c2.4,0,2.94-0.18,2.94-2.88c0-3.3-2.82-5.52-4.74-5.52c-1.68,0-4.08,2.16-6.18,3.12C301.71,49.09,305.01,51.85,307.59,51.85z"/>
	<path class="st149" d="M319.71,28.33c-0.6-0.12-1.68-0.18-2.22-0.18s-0.54-0.3-0.3-0.42c2.76-1.14,4.74-2.52,7.5-4.14
		c1.32-0.78,2.16,0.96,2.16,2.46v27.96h2.22c0.72,0,5.52-0.18,6.3-0.3c2.04-0.36,2.28-0.3,1.62,0.18c-0.42,0.3-2.7,2.58-3.54,3.36
		l-0.12,0.12h-11.64h-0.06h-0.06h0.06v-26.7C321.63,29.23,321.21,28.63,319.71,28.33z"/>
	<path class="st149" d="M368.67,23.89c6.24,0,10.98,2.16,10.98,4.62v25.14l-3.3,1.8c-0.18,0.12-1.38,0.9-1.56,1.08
		c-0.48,0.42-0.54,0.42-0.48,0.12c0.06-0.18,0.12-1.38,0.12-1.98v-22.5c0-3.66-4.92-5.16-8.04-5.16c-3.18,0-7.56,1.44-11.46,4.5
		c-0.54,0.42-1.08,0-0.72-0.54C355.59,28.93,359.73,23.89,368.67,23.89z"/>
	<path class="st149" d="M385.65,28.27c-0.6-0.12-1.68-0.18-2.22-0.18s-0.54-0.3-0.3-0.42c2.76-1.14,4.74-2.52,7.5-4.14
		c1.32-0.78,2.16,0.96,2.16,2.46v16.5c1.14-0.18,2.64-0.78,5.22-2.1c3-1.56,3.96-3.36,4.26-4.68c0.3-1.32-0.9-1.92-1.44-2.28
		c-0.36-0.18-0.42-0.54,0.24-0.54c1.5,0,3.66-0.18,5.58-0.72c0.6-0.12,0.72,0.06,0.72,1.14c0,4.2-2.7,4.92-6.06,6.9
		c5.7,0.24,9.66,2.1,9.66,6.42c0,4.92-7.2,9.06-11.82,10.5c-0.6,0.18-0.72-0.06-0.3-0.36c2.64-1.68,6.3-5.4,6.3-9
		c0-2.22-1.38-5.4-6.96-5.76c-2.28,1.26-4.26,2.16-5.4,2.76v8.82l-3.3,1.8c-0.18,0.12-1.38,0.9-1.56,1.08
		c-0.48,0.42-0.54,0.42-0.48,0.12c0.06-0.18,0.12-1.38,0.12-1.98v-24C387.57,29.17,387.15,28.57,385.65,28.27z"/>
	<path class="st149" d="M416.61,36.31c-0.6-0.12-1.68-0.18-2.22-0.18s-0.54-0.3-0.3-0.42c2.76-1.14,4.74-2.52,7.5-4.14
		c1.32-0.78,2.16,0.96,2.16,2.46v3.06c2.46-2.64,5.76-5.28,10.14-5.28c3.12,0,5.7,1.2,6.6,2.28c-0.3,0.18-2.94,2.64-3.36,3.3
		c-1.2-1.2-3.36-2.22-6.36-2.22c-2.94,0-4.62,1.8-7.02,4.2v5.64c2.94-1.62,7.38-4.56,9.24-4.56c4.02,0,7.5,2.58,7.5,6.96
		c0,4.86-6.06,6.72-9.84,6.72c-3.18,0-5.52-1.86-6.9-2.46v0.48c0,4.26-8.7,12.06-9.9,12.66c-0.36,0.18-0.66,0-0.3-0.36
		c1.08-0.96,4.98-7.68,4.98-11.52v-0.18v-4.68v-9.42C418.53,37.21,418.11,36.61,416.61,36.31z M432.27,51.85
		c2.4,0,2.94-0.18,2.94-2.88c0-3.3-2.82-5.52-4.74-5.52c-1.68,0-4.08,2.16-6.18,3.12C426.39,49.09,429.69,51.85,432.27,51.85z"/>
	<path class="st149" d="M469.65,44.89c0,6.3-3.78,9.12-7.62,9.12c-8.76,0-9.6-7.56-9.6-4.98v3.12l-3.3,1.8
		c-0.18,0.12-1.38,0.9-1.56,1.08c-0.48,0.42-0.54,0.42-0.48,0.12c0.06-0.18,0.12-1.38,0.12-1.98V39.01c0-1.44-0.42-2.04-1.92-2.34
		c-0.6-0.12-1.68-0.18-2.22-0.18s-0.54-0.3-0.3-0.42c2.76-1.14,4.74-2.52,7.5-4.14c1.32-0.78,2.16,0.96,2.16,2.46v7.98
		c0,4.26,2.04,6.84,7.2,6.84c2.46,0,5.88-1.14,5.88-6.24c0-4.32-1.56-5.64-4.14-7.08c-0.84-0.48-1.92-0.42-2.4-0.3
		c-0.72,0.18-1.02,0.12-0.96-0.12c0.06-0.12,0.24-0.36,0.54-0.66l2.94-2.7h4.14c0.72,0,5.52-0.18,6.3-0.3
		c2.04-0.36,2.28-0.3,1.62,0.18c-0.42,0.3-2.7,2.58-3.54,3.36l-0.12,0.12h-4.86C462.03,35.47,469.65,36.49,469.65,44.89z"/>
	<path class="st149" d="M476.19,36.31c-0.6-0.12-1.68-0.18-2.22-0.18s-0.54-0.3-0.3-0.42c2.76-1.14,4.74-2.52,7.5-4.14
		c1.32-0.78,2.16,0.96,2.16,2.46v3.06c2.46-2.64,5.76-5.28,10.14-5.28c3.12,0,5.7,1.2,6.6,2.28c-0.3,0.18-2.94,2.64-3.36,3.3
		c-1.2-1.2-3.36-2.22-6.36-2.22c-2.94,0-4.62,1.8-7.02,4.2v5.64c2.94-1.62,7.38-4.56,9.24-4.56c4.02,0,7.5,2.58,7.5,6.96
		c0,4.86-6.06,6.72-9.84,6.72c-3.18,0-5.52-1.86-6.9-2.46v0.48c0,4.26-8.7,12.06-9.9,12.66c-0.36,0.18-0.66,0-0.3-0.36
		c1.08-0.96,4.98-7.68,4.98-11.52v-0.18v-4.68v-9.42C478.11,37.21,477.69,36.61,476.19,36.31z M491.85,51.85
		c2.4,0,2.94-0.18,2.94-2.88c0-3.3-2.82-5.52-4.74-5.52c-1.68,0-4.08,2.16-6.18,3.12C485.97,49.09,489.27,51.85,491.85,51.85z"/>
	<path class="st149" d="M503.97,28.33c-0.6-0.12-1.68-0.18-2.22-0.18s-0.54-0.3-0.3-0.42c2.76-1.14,4.74-2.52,7.5-4.14
		c1.32-0.78,2.16,0.96,2.16,2.46v27.96h2.22c0.72,0,5.52-0.18,6.3-0.3c2.04-0.36,2.28-0.3,1.62,0.18c-0.42,0.3-2.7,2.58-3.54,3.36
		l-0.12,0.12h-11.64h-0.06h-0.06h0.06v-26.7C505.89,29.23,505.47,28.63,503.97,28.33z"/>
	<path class="st149" d="M523.89,36.31c-0.6-0.12-1.68-0.18-2.22-0.18s-0.54-0.3-0.3-0.42c2.76-1.14,4.74-2.52,7.5-4.14
		c1.32-0.78,2.16,0.96,2.16,2.46v3.06c2.46-2.64,5.76-5.28,10.14-5.28c3.12,0,5.7,1.2,6.6,2.28c-0.3,0.18-2.94,2.64-3.36,3.3
		c-1.2-1.2-3.36-2.22-6.36-2.22c-2.94,0-4.62,1.8-7.02,4.2v5.64c2.94-1.62,7.38-4.56,9.24-4.56c4.02,0,7.5,2.58,7.5,6.96
		c0,4.86-6.06,6.72-9.84,6.72c-3.18,0-5.52-1.86-6.9-2.46v0.48c0,4.26-8.7,12.06-9.9,12.66c-0.36,0.18-0.66,0-0.3-0.36
		c1.08-0.96,4.98-7.68,4.98-11.52v-0.18v-4.68v-9.42C525.81,37.21,525.39,36.61,523.89,36.31z M539.55,51.85
		c2.4,0,2.94-0.18,2.94-2.88c0-3.3-2.82-5.52-4.74-5.52c-1.68,0-4.08,2.16-6.18,3.12C533.67,49.09,536.97,51.85,539.55,51.85z"/>
	<path class="st149" d="M576.93,44.89c0,6.3-3.78,9.12-7.62,9.12c-8.76,0-9.6-7.56-9.6-4.98v3.12l-3.3,1.8
		c-0.18,0.12-1.38,0.9-1.56,1.08c-0.48,0.42-0.54,0.42-0.48,0.12c0.06-0.18,0.12-1.38,0.12-1.98V39.01c0-1.44-0.42-2.04-1.92-2.34
		c-0.6-0.12-1.68-0.18-2.22-0.18s-0.54-0.3-0.3-0.42c2.76-1.14,4.74-2.52,7.5-4.14c1.32-0.78,2.16,0.96,2.16,2.46v7.98
		c0,4.26,2.04,6.84,7.2,6.84c2.46,0,5.88-1.14,5.88-6.24c0-4.32-1.56-5.64-4.14-7.08c-0.84-0.48-1.92-0.42-2.4-0.3
		c-0.72,0.18-1.02,0.12-0.96-0.12c0.06-0.12,0.24-0.36,0.54-0.66l2.94-2.7h4.14c0.72,0,5.52-0.18,6.3-0.3
		c2.04-0.36,2.28-0.3,1.62,0.18c-0.42,0.3-2.7,2.58-3.54,3.36l-0.12,0.12h-4.86C569.31,35.47,576.93,36.49,576.93,44.89z"/>
	<path class="st149" d="M612.51,23.89c6.24,0,10.98,2.16,10.98,4.62v25.14l-3.3,1.8c-0.18,0.12-1.38,0.9-1.56,1.08
		c-0.48,0.42-0.54,0.42-0.48,0.12c0.06-0.18,0.12-1.38,0.12-1.98v-22.5c0-3.66-4.92-5.16-8.04-5.16c-3.18,0-7.56,1.44-11.46,4.5
		c-0.54,0.42-1.08,0-0.72-0.54C599.43,28.93,603.57,23.89,612.51,23.89z"/>
	<path class="st149" d="M629.49,28.27c-0.6-0.12-1.68-0.18-2.22-0.18s-0.54-0.3-0.3-0.42c2.76-1.14,4.74-2.52,7.5-4.14
		c1.32-0.78,2.16,0.96,2.16,2.46v16.5c1.14-0.18,2.64-0.78,5.22-2.1c3-1.56,3.96-3.36,4.26-4.68c0.3-1.32-0.9-1.92-1.44-2.28
		c-0.36-0.18-0.42-0.54,0.24-0.54c1.5,0,3.66-0.18,5.58-0.72c0.6-0.12,0.72,0.06,0.72,1.14c0,4.2-2.7,4.92-6.06,6.9
		c5.7,0.24,9.66,2.1,9.66,6.42c0,4.92-7.2,9.06-11.82,10.5c-0.6,0.18-0.72-0.06-0.3-0.36c2.64-1.68,6.3-5.4,6.3-9
		c0-2.22-1.38-5.4-6.96-5.76c-2.28,1.26-4.26,2.16-5.4,2.76v8.82l-3.3,1.8c-0.18,0.12-1.38,0.9-1.56,1.08
		c-0.48,0.42-0.54,0.42-0.48,0.12c0.06-0.18,0.12-1.38,0.12-1.98v-24C631.41,29.17,630.99,28.57,629.49,28.27z"/>
	<path class="st149" d="M669.69,31.81c8.16,0,12.24,5.34,12.24,10.68c0,8.28-9.78,11.58-14.64,11.94c-0.72,0.06-0.6-0.42,0-0.66
		c4.74-2.04,8.04-4.02,8.46-8.82h-7.44c-0.72,0-5.52,0.18-6.3,0.3c-2.04,0.36-2.28,0.3-1.62-0.18c0.42-0.3,2.7-2.58,3.54-3.36
		l0.12-0.12h11.64c-0.72-5.52-3.96-7.86-7.14-7.86c-4.32,0-7.08,2.7-7.08,4.68c0,0.48-0.12,0.66-0.3,0.72
		c-1.74,0.6-2.76,1.14-3.72,1.92c-0.3,0.24-0.72,0.48-0.48-0.24C657.63,39.01,660.81,31.81,669.69,31.81z"/>
	<path class="st149" d="M702.33,28.33c-0.6-0.12-1.68-0.18-2.22-0.18s-0.54-0.3-0.3-0.42c2.76-1.14,4.74-2.52,7.5-4.14
		c1.32-0.78,2.16,0.96,2.16,2.46v6c3.3-3.72,8.46-8.46,14.58-8.46c3.72,0,6.6,1.38,8.22,2.7c0.36,0.3,0,0.3-0.24,0.42
		c-1.08,0.6-2.64,2.28-3.66,3.66c-0.06,0.12-0.24,0.3-0.48,0.12c-1.62-1.44-4.26-2.7-7.8-2.7c-4.14,0-7.02,2.46-10.62,5.94v7.68
		c3.42-1.5,10.5-6.18,13.2-6.18c5.04,0,10.08,4.8,10.08,9.9c0,5.4-8.28,10.14-13.02,10.14c-4.8,0-8.52-4.56-10.02-4.56h-0.24v2.94
		l-3.3,1.8c-0.18,0.12-1.38,0.9-1.56,1.08c-0.48,0.42-0.54,0.42-0.48,0.12c0.06-0.18,0.12-1.38,0.12-1.98v-24
		C704.25,29.23,703.83,28.63,702.33,28.33z M720.99,51.79c5.22,0,6.6-2.4,4.5-7.38c-1.08-2.52-3.54-5.4-6.06-5.4
		c-1.98,0-6.54,3.12-9.6,4.44C712.59,46.69,716.97,51.79,720.99,51.79z"/>
	<path class="st149" d="M748.23,31.81c8.16,0,12.24,5.34,12.24,10.68c0,8.28-9.78,11.58-14.64,11.94c-0.72,0.06-0.6-0.42,0-0.66
		c4.74-2.04,8.04-4.02,8.46-8.82h-7.44c-0.72,0-5.52,0.18-6.3,0.3c-2.04,0.36-2.28,0.3-1.62-0.18c0.42-0.3,2.7-2.58,3.54-3.36
		l0.12-0.12h11.64c-0.72-5.52-3.96-7.86-7.14-7.86c-4.32,0-7.08,2.7-7.08,4.68c0,0.48-0.12,0.66-0.3,0.72
		c-1.74,0.6-2.76,1.14-3.72,1.92c-0.3,0.24-0.72,0.48-0.48-0.24C736.17,39.01,739.35,31.81,748.23,31.81z"/>
	<path class="st149" d="M776.67,31.75c5.76,0,9.42,2.52,9.42,4.98v25.68l-3.3,1.8c-0.18,0.12-1.38,0.9-1.56,1.08
		c-0.48,0.42-0.54,0.42-0.48,0.12c0.06-0.18,0.12-1.38,0.12-1.98V39.37c0-2.64-2.82-4.5-6.78-4.5c-2.58,0-6.48,1.38-10.5,4.5
		c-0.6,0.48-1.32,0.06-0.9-0.48C764.31,36.79,767.97,31.75,776.67,31.75z"/>
	<path class="st149" d="M792.09,28.27c-0.6-0.12-1.68-0.18-2.22-0.18s-0.54-0.3-0.3-0.42c2.76-1.14,4.74-2.52,7.5-4.14
		c1.32-0.78,2.16,0.96,2.16,2.46v16.5c1.14-0.18,2.64-0.78,5.22-2.1c3-1.56,3.96-3.36,4.26-4.68c0.3-1.32-0.9-1.92-1.44-2.28
		c-0.36-0.18-0.42-0.54,0.24-0.54c1.5,0,3.66-0.18,5.58-0.72c0.6-0.12,0.72,0.06,0.72,1.14c0,4.2-2.7,4.92-6.06,6.9
		c5.7,0.24,9.66,2.1,9.66,6.42c0,4.92-7.2,9.06-11.82,10.5c-0.6,0.18-0.72-0.06-0.3-0.36c2.64-1.68,6.3-5.4,6.3-9
		c0-2.22-1.38-5.4-6.96-5.76c-2.28,1.26-4.26,2.16-5.4,2.76v8.82l-3.3,1.8c-0.18,0.12-1.38,0.9-1.56,1.08
		c-0.48,0.42-0.54,0.42-0.48,0.12c0.06-0.18,0.12-1.38,0.12-1.98v-24C794.01,29.17,793.59,28.57,792.09,28.27z"/>
	<path class="st149" d="M832.29,31.81c8.16,0,12.24,5.34,12.24,10.68c0,8.28-9.78,11.58-14.64,11.94c-0.72,0.06-0.6-0.42,0-0.66
		c4.74-2.04,8.04-4.02,8.46-8.82h-7.44c-0.72,0-5.52,0.18-6.3,0.3c-2.04,0.36-2.28,0.3-1.62-0.18c0.42-0.3,2.7-2.58,3.54-3.36
		l0.12-0.12h11.64c-0.72-5.52-3.96-7.86-7.14-7.86c-4.32,0-7.08,2.7-7.08,4.68c0,0.48-0.12,0.66-0.3,0.72
		c-1.74,0.6-2.76,1.14-3.72,1.92c-0.3,0.24-0.72,0.48-0.48-0.24C820.23,39.01,823.41,31.81,832.29,31.81z"/>
	<path class="st149" d="M849.33,36.49c-0.6-0.12-1.68-0.18-2.22-0.18s-0.54-0.3-0.3-0.42c2.76-1.14,4.74-2.52,7.5-4.14
		c1.32-0.78,2.16,0.96,2.16,2.46v2.34c2.4-2.7,6.9-5.04,9.54-5.04c2.88,0,7.62,2.7,7.62,7.02c0,3.3-2.7,5.82-6.06,6.78v10.92
		c0,5.4,1.5,7.38,3.96,7.38c1.74,0,3.42-1.02,4.62-2.46c0.3-0.36,0.66,0.06,0.48,0.48c-0.9,1.92-3.9,5.04-6.78,5.04
		c-4.74,0-7.5-3.06-7.5-9.12v-12l-0.96-0.24c-0.78-0.24-1.02-0.78,0-0.96c1.32-0.24,6.12-0.54,6.12-4.98c0-2.76-1.68-5.16-4.74-5.16
		c-1.98,0-4.98,2.52-6.3,4.14v13.38l-3.3,1.8c-0.18,0.12-1.38,0.9-1.56,1.08c-0.48,0.42-0.54,0.42-0.48,0.12
		c0.06-0.18,0.12-1.38,0.12-1.98V38.83C851.25,37.39,850.83,36.79,849.33,36.49z"/>
	<path class="st149" d="M892.05,31.45c5.52,0,9.6,3.78,10.86,5.34c0.24,0.3-0.3,0.6-0.48,0.78c-1.02,0.84-2.28,2.22-3.12,3.36
		c-0.18,0.24-0.36,0.3-0.54,0c-1.2-2.4-4.68-7.56-8.52-7.56c-3.54,0-5.52,2.88-5.52,6.78v20.34l-3.3,1.8
		c-0.18,0.12-1.38,0.9-1.56,1.08c-0.48,0.42-0.54,0.42-0.48,0.12c0.06-0.18,0.12-1.38,0.12-1.98v-21.3
		C879.51,36.73,884.73,31.45,892.05,31.45z"/>
	<path class="st149" d="M906.81,50.89c-4.5-5.82-1.68-11.76,1.68-15.3c3.54-3.96,8.1-5.58,13.62-2.58c4.86,2.7,7.38,9.54,2.22,16.32
		C918.63,56.83,909.93,54.97,906.81,50.89z M919.35,37.15c-3.48-2.64-7.5-2.94-9.3-1.08c-2.46,2.58-1.56,8.28,0.66,11.16
		c2.64,3.42,8.7,5.04,10.8,3C925.05,46.75,922.53,39.67,919.35,37.15z"/>
	<path class="st149" d="M956.31,44.89c0,6.3-3.78,9.12-7.62,9.12c-8.76,0-9.6-7.56-9.6-4.98v3.12l-3.3,1.8
		c-0.18,0.12-1.38,0.9-1.56,1.08c-0.48,0.42-0.54,0.42-0.48,0.12c0.06-0.18,0.12-1.38,0.12-1.98V39.01c0-1.44-0.42-2.04-1.92-2.34
		c-0.6-0.12-1.68-0.18-2.22-0.18s-0.54-0.3-0.3-0.42c2.76-1.14,4.74-2.52,7.5-4.14c1.32-0.78,2.16,0.96,2.16,2.46v7.98
		c0,4.26,2.04,6.84,7.2,6.84c2.46,0,5.88-1.14,5.88-6.24c0-4.32-1.56-5.64-4.14-7.08c-0.84-0.48-1.92-0.42-2.4-0.3
		c-0.72,0.18-1.02,0.12-0.96-0.12c0.06-0.12,0.24-0.36,0.54-0.66l2.94-2.7h4.14c0.72,0,5.52-0.18,6.3-0.3
		c2.04-0.36,2.28-0.3,1.62,0.18c-0.42,0.3-2.7,2.58-3.54,3.36l-0.12,0.12h-4.86C948.69,35.47,956.31,36.49,956.31,44.89z"/>
	<path class="st149" d="M974.61,31.75c5.76,0,9.42,2.52,9.42,4.98v25.68l-3.3,1.8c-0.18,0.12-1.38,0.9-1.56,1.08
		c-0.48,0.42-0.54,0.42-0.48,0.12c0.06-0.18,0.12-1.38,0.12-1.98V39.37c0-2.64-2.82-4.5-6.78-4.5c-2.58,0-6.48,1.38-10.5,4.5
		c-0.6,0.48-1.32,0.06-0.9-0.48C962.25,36.79,965.91,31.75,974.61,31.75z"/>
	<path class="st149" d="M167.43,113.65c-1.62,0.66-3,2.58-7.02,2.58c-6.54,0-19.44-4.44-19.44-13.68c0-12.18,21.84-17.58,26.4-19.14
		L167.43,113.65z M162.15,112.51V86.89c-6.12,2.52-14.34,8.22-14.34,14.46C147.81,107.59,155.61,110.83,162.15,112.51z"/>
	<path class="st149" d="M184.11,91.81c8.16,0,12.24,5.34,12.24,10.68c0,8.28-9.78,11.58-14.64,11.94c-0.72,0.06-0.6-0.42,0-0.66
		c4.74-2.04,8.04-4.02,8.46-8.82h-7.44c-0.72,0-5.52,0.18-6.3,0.3c-2.04,0.36-2.28,0.3-1.62-0.18c0.42-0.3,2.7-2.58,3.54-3.36
		l0.12-0.12h11.64c-0.72-5.52-3.96-7.86-7.14-7.86c-4.32,0-7.08,2.7-7.08,4.68c0,0.48-0.12,0.66-0.3,0.72
		c-1.74,0.6-2.76,1.14-3.72,1.92c-0.3,0.24-0.72,0.48-0.48-0.24C172.05,99.01,175.23,91.81,184.11,91.81z"/>
	<path class="st149" d="M225.51,104.89c0,6.3-3.78,9.12-7.62,9.12c-8.76,0-9.6-7.56-9.6-4.98v3.12l-3.3,1.8
		c-0.18,0.12-1.38,0.9-1.56,1.08c-0.48,0.42-0.54,0.42-0.48,0.12c0.06-0.18,0.12-1.38,0.12-1.98V99.01c0-1.44-0.42-2.04-1.92-2.34
		c-0.6-0.12-1.68-0.18-2.22-0.18s-0.54-0.3-0.3-0.42c2.76-1.14,4.74-2.52,7.5-4.14c1.32-0.78,2.16,0.96,2.16,2.46v7.98
		c0,4.26,2.04,6.84,7.2,6.84c2.46,0,5.88-1.14,5.88-6.24c0-4.32-1.56-5.64-4.14-7.08c-0.84-0.48-1.92-0.42-2.4-0.3
		c-0.72,0.18-1.02,0.12-0.96-0.12c0.06-0.12,0.24-0.36,0.54-0.66l2.94-2.7h4.14c0.72,0,5.52-0.18,6.3-0.3
		c2.04-0.36,2.28-0.3,1.62,0.18c-0.42,0.3-2.7,2.58-3.54,3.36l-0.12,0.12h-4.86C217.89,95.47,225.51,96.49,225.51,104.89z"/>
	<path class="st149" d="M243.81,91.75c5.76,0,9.42,2.52,9.42,4.98v25.68l-3.3,1.8c-0.18,0.12-1.38,0.9-1.56,1.08
		c-0.48,0.42-0.54,0.42-0.48,0.12c0.06-0.18,0.12-1.38,0.12-1.98V99.37c0-2.64-2.82-4.5-6.78-4.5c-2.58,0-6.48,1.38-10.5,4.5
		c-0.6,0.48-1.32,0.06-0.9-0.48C231.45,96.79,235.11,91.75,243.81,91.75z"/>
	<linearGradient id="SVGID_1_" gradientUnits="userSpaceOnUse" x1="260.643" y1="109.0056" x2="319.5531" y2="109.0056">
		<stop  offset="0" style="stop-color:#4C5FBF"/>
		<stop  offset="0.3" style="stop-color:#4889D1"/>
		<stop  offset="0.5" style="stop-color:#47AADD"/>
		<stop  offset="1" style="stop-color:#FE9934"/>
	</linearGradient>
	<path class="st0" d="M260.43,96.49c-0.6-0.12-1.68-0.18-2.22-0.18s-0.54-0.3-0.3-0.42c2.76-1.14,4.74-2.52,7.5-4.14
		c1.32-0.78,2.16,0.96,2.16,2.46v2.34c2.4-2.7,6.9-5.04,9.54-5.04c2.88,0,7.62,2.7,7.62,7.02c0,3.3-2.7,5.82-6.06,6.78v10.92
		c0,5.4,1.86,9.66,6.84,8.22c4.98-1.44,8.34-3.24,8.34-11.52v-0.18v-4.68v-9.42c0-1.44-0.42-2.04-1.92-2.34
		c-0.6-0.12-1.68-0.18-2.22-0.18s-0.54-0.3-0.3-0.42c2.76-1.14,4.74-2.52,7.5-4.14c1.32-0.78,2.16,0.96,2.16,2.46v3.06
		c2.46-2.64,5.76-5.28,10.14-5.28c3.12,0,5.7,1.2,6.6,2.28c-0.3,0.18-2.94,2.64-3.36,3.3c-1.2-1.2-3.36-2.22-6.36-2.22
		c-2.94,0-4.62,1.8-7.02,4.2v5.64c2.94-1.62,7.38-4.56,9.24-4.56c4.02,0,7.5,2.58,7.5,6.96c0,4.86-6.06,6.72-9.84,6.72
		c-3.18,0-5.52-1.86-6.9-2.46v0.48c0,7.38-9.78,13.2-15.96,14.28c-6.9,1.2-9.66-2.82-9.66-8.88v-12l-0.96-0.24
		c-0.78-0.24-1.02-0.78,0-0.96c1.32-0.24,6.12-0.54,6.12-4.98c0-2.76-1.68-5.16-4.74-5.16c-1.98,0-4.98,2.52-6.3,4.14v20.4l-3.3,1.8
		c-0.18,0.12-1.38,0.9-1.56,1.08c-0.48,0.42-0.54,0.42-0.48,0.12c0.06-0.18,0.12-1.38,0.12-1.98V98.83
		C262.35,97.39,261.93,96.79,260.43,96.49z M307.59,111.85c2.4,0,2.94-0.18,2.94-2.88c0-3.3-2.82-5.52-4.74-5.52
		c-1.68,0-4.08,2.16-6.18,3.12C301.71,109.09,305.01,111.85,307.59,111.85z"/>
	<path class="st149" d="M319.71,88.33c-0.6-0.12-1.68-0.18-2.22-0.18s-0.54-0.3-0.3-0.42c2.76-1.14,4.74-2.52,7.5-4.14
		c1.32-0.78,2.16,0.96,2.16,2.46v27.96h2.22c0.72,0,5.52-0.18,6.3-0.3c2.04-0.36,2.28-0.3,1.62,0.18c-0.42,0.3-2.7,2.58-3.54,3.36
		l-0.12,0.12h-11.64h-0.06h-0.06h0.06v-26.7C321.63,89.23,321.21,88.63,319.71,88.33z"/>
	<path class="st149" d="M368.67,83.89c6.24,0,10.98,2.16,10.98,4.62v25.14l-3.3,1.8c-0.18,0.12-1.38,0.9-1.56,1.08
		c-0.48,0.42-0.54,0.42-0.48,0.12c0.06-0.18,0.12-1.38,0.12-1.98v-22.5c0-3.66-4.92-5.16-8.04-5.16c-3.18,0-7.56,1.44-11.46,4.5
		c-0.54,0.42-1.08,0-0.72-0.54C355.59,88.93,359.73,83.89,368.67,83.89z"/>
	<path class="st149" d="M385.65,88.27c-0.6-0.12-1.68-0.18-2.22-0.18s-0.54-0.3-0.3-0.42c2.76-1.14,4.74-2.52,7.5-4.14
		c1.32-0.78,2.16,0.96,2.16,2.46v16.5c1.14-0.18,2.64-0.78,5.22-2.1c3-1.56,3.96-3.36,4.26-4.68c0.3-1.32-0.9-1.92-1.44-2.28
		c-0.36-0.18-0.42-0.54,0.24-0.54c1.5,0,3.66-0.18,5.58-0.72c0.6-0.12,0.72,0.06,0.72,1.14c0,4.2-2.7,4.92-6.06,6.9
		c5.7,0.24,9.66,2.1,9.66,6.42c0,4.92-7.2,9.06-11.82,10.5c-0.6,0.18-0.72-0.06-0.3-0.36c2.64-1.68,6.3-5.4,6.3-9
		c0-2.22-1.38-5.4-6.96-5.76c-2.28,1.26-4.26,2.16-5.4,2.76v8.82l-3.3,1.8c-0.18,0.12-1.38,0.9-1.56,1.08
		c-0.48,0.42-0.54,0.42-0.48,0.12c0.06-0.18,0.12-1.38,0.12-1.98v-24C387.57,89.17,387.15,88.57,385.65,88.27z"/>
	<path class="st149" d="M416.61,96.31c-0.6-0.12-1.68-0.18-2.22-0.18s-0.54-0.3-0.3-0.42c2.76-1.14,4.74-2.52,7.5-4.14
		c1.32-0.78,2.16,0.96,2.16,2.46v3.06c2.46-2.64,5.76-5.28,10.14-5.28c3.12,0,5.7,1.2,6.6,2.28c-0.3,0.18-2.94,2.64-3.36,3.3
		c-1.2-1.2-3.36-2.22-6.36-2.22c-2.94,0-4.62,1.8-7.02,4.2v5.64c2.94-1.62,7.38-4.56,9.24-4.56c4.02,0,7.5,2.58,7.5,6.96
		c0,4.86-6.06,6.72-9.84,6.72c-3.18,0-5.52-1.86-6.9-2.46v0.48c0,4.26-8.7,12.06-9.9,12.66c-0.36,0.18-0.66,0-0.3-0.36
		c1.08-0.96,4.98-7.68,4.98-11.52v-0.18v-4.68v-9.42C418.53,97.21,418.11,96.61,416.61,96.31z M432.27,111.85
		c2.4,0,2.94-0.18,2.94-2.88c0-3.3-2.82-5.52-4.74-5.52c-1.68,0-4.08,2.16-6.18,3.12C426.39,109.09,429.69,111.85,432.27,111.85z"/>
	<path class="st149" d="M469.65,104.89c0,6.3-3.78,9.12-7.62,9.12c-8.76,0-9.6-7.56-9.6-4.98v3.12l-3.3,1.8
		c-0.18,0.12-1.38,0.9-1.56,1.08c-0.48,0.42-0.54,0.42-0.48,0.12c0.06-0.18,0.12-1.38,0.12-1.98V99.01c0-1.44-0.42-2.04-1.92-2.34
		c-0.6-0.12-1.68-0.18-2.22-0.18s-0.54-0.3-0.3-0.42c2.76-1.14,4.74-2.52,7.5-4.14c1.32-0.78,2.16,0.96,2.16,2.46v7.98
		c0,4.26,2.04,6.84,7.2,6.84c2.46,0,5.88-1.14,5.88-6.24c0-4.32-1.56-5.64-4.14-7.08c-0.84-0.48-1.92-0.42-2.4-0.3
		c-0.72,0.18-1.02,0.12-0.96-0.12c0.06-0.12,0.24-0.36,0.54-0.66l2.94-2.7h4.14c0.72,0,5.52-0.18,6.3-0.3
		c2.04-0.36,2.28-0.3,1.62,0.18c-0.42,0.3-2.7,2.58-3.54,3.36l-0.12,0.12h-4.86C462.03,95.47,469.65,96.49,469.65,104.89z"/>
	<path class="st149" d="M476.19,96.31c-0.6-0.12-1.68-0.18-2.22-0.18s-0.54-0.3-0.3-0.42c2.76-1.14,4.74-2.52,7.5-4.14
		c1.32-0.78,2.16,0.96,2.16,2.46v3.06c2.46-2.64,5.76-5.28,10.14-5.28c3.12,0,5.7,1.2,6.6,2.28c-0.3,0.18-2.94,2.64-3.36,3.3
		c-1.2-1.2-3.36-2.22-6.36-2.22c-2.94,0-4.62,1.8-7.02,4.2v5.64c2.94-1.62,7.38-4.56,9.24-4.56c4.02,0,7.5,2.58,7.5,6.96
		c0,4.86-6.06,6.72-9.84,6.72c-3.18,0-5.52-1.86-6.9-2.46v0.48c0,4.26-8.7,12.06-9.9,12.66c-0.36,0.18-0.66,0-0.3-0.36
		c1.08-0.96,4.98-7.68,4.98-11.52v-0.18v-4.68v-9.42C478.11,97.21,477.69,96.61,476.19,96.31z M491.85,111.85
		c2.4,0,2.94-0.18,2.94-2.88c0-3.3-2.82-5.52-4.74-5.52c-1.68,0-4.08,2.16-6.18,3.12C485.97,109.09,489.27,111.85,491.85,111.85z"/>
	<path class="st149" d="M503.97,88.33c-0.6-0.12-1.68-0.18-2.22-0.18s-0.54-0.3-0.3-0.42c2.76-1.14,4.74-2.52,7.5-4.14
		c1.32-0.78,2.16,0.96,2.16,2.46v27.96h2.22c0.72,0,5.52-0.18,6.3-0.3c2.04-0.36,2.28-0.3,1.62,0.18c-0.42,0.3-2.7,2.58-3.54,3.36
		l-0.12,0.12h-11.64h-0.06h-0.06h0.06v-26.7C505.89,89.23,505.47,88.63,503.97,88.33z"/>
	<path class="st149" d="M523.89,96.31c-0.6-0.12-1.68-0.18-2.22-0.18s-0.54-0.3-0.3-0.42c2.76-1.14,4.74-2.52,7.5-4.14
		c1.32-0.78,2.16,0.96,2.16,2.46v3.06c2.46-2.64,5.76-5.28,10.14-5.28c3.12,0,5.7,1.2,6.6,2.28c-0.3,0.18-2.94,2.64-3.36,3.3
		c-1.2-1.2-3.36-2.22-6.36-2.22c-2.94,0-4.62,1.8-7.02,4.2v5.64c2.94-1.62,7.38-4.56,9.24-4.56c4.02,0,7.5,2.58,7.5,6.96
		c0,4.86-6.06,6.72-9.84,6.72c-3.18,0-5.52-1.86-6.9-2.46v0.48c0,4.26-8.7,12.06-9.9,12.66c-0.36,0.18-0.66,0-0.3-0.36
		c1.08-0.96,4.98-7.68,4.98-11.52v-0.18v-4.68v-9.42C525.81,97.21,525.39,96.61,523.89,96.31z M539.55,111.85
		c2.4,0,2.94-0.18,2.94-2.88c0-3.3-2.82-5.52-4.74-5.52c-1.68,0-4.08,2.16-6.18,3.12C533.67,109.09,536.97,111.85,539.55,111.85z"/>
	<path class="st149" d="M576.93,104.89c0,6.3-3.78,9.12-7.62,9.12c-8.76,0-9.6-7.56-9.6-4.98v3.12l-3.3,1.8
		c-0.18,0.12-1.38,0.9-1.56,1.08c-0.48,0.42-0.54,0.42-0.48,0.12c0.06-0.18,0.12-1.38,0.12-1.98V99.01c0-1.44-0.42-2.04-1.92-2.34
		c-0.6-0.12-1.68-0.18-2.22-0.18s-0.54-0.3-0.3-0.42c2.76-1.14,4.74-2.52,7.5-4.14c1.32-0.78,2.16,0.96,2.16,2.46v7.98
		c0,4.26,2.04,6.84,7.2,6.84c2.46,0,5.88-1.14,5.88-6.24c0-4.32-1.56-5.64-4.14-7.08c-0.84-0.48-1.92-0.42-2.4-0.3
		c-0.72,0.18-1.02,0.12-0.96-0.12c0.06-0.12,0.24-0.36,0.54-0.66l2.94-2.7h4.14c0.72,0,5.52-0.18,6.3-0.3
		c2.04-0.36,2.28-0.3,1.62,0.18c-0.42,0.3-2.7,2.58-3.54,3.36l-0.12,0.12h-4.86C569.31,95.47,576.93,96.49,576.93,104.89z"/>
	<path class="st149" d="M612.51,83.89c6.24,0,10.98,2.16,10.98,4.62v25.14l-3.3,1.8c-0.18,0.12-1.38,0.9-1.56,1.08
		c-0.48,0.42-0.54,0.42-0.48,0.12c0.06-0.18,0.12-1.38,0.12-1.98v-22.5c0-3.66-4.92-5.16-8.04-5.16c-3.18,0-7.56,1.44-11.46,4.5
		c-0.54,0.42-1.08,0-0.72-0.54C599.43,88.93,603.57,83.89,612.51,83.89z"/>
	<path class="st149" d="M629.49,88.27c-0.6-0.12-1.68-0.18-2.22-0.18s-0.54-0.3-0.3-0.42c2.76-1.14,4.74-2.52,7.5-4.14
		c1.32-0.78,2.16,0.96,2.16,2.46v16.5c1.14-0.18,2.64-0.78,5.22-2.1c3-1.56,3.96-3.36,4.26-4.68c0.3-1.32-0.9-1.92-1.44-2.28
		c-0.36-0.18-0.42-0.54,0.24-0.54c1.5,0,3.66-0.18,5.58-0.72c0.6-0.12,0.72,0.06,0.72,1.14c0,4.2-2.7,4.92-6.06,6.9
		c5.7,0.24,9.66,2.1,9.66,6.42c0,4.92-7.2,9.06-11.82,10.5c-0.6,0.18-0.72-0.06-0.3-0.36c2.64-1.68,6.3-5.4,6.3-9
		c0-2.22-1.38-5.4-6.96-5.76c-2.28,1.26-4.26,2.16-5.4,2.76v8.82l-3.3,1.8c-0.18,0.12-1.38,0.9-1.56,1.08
		c-0.48,0.42-0.54,0.42-0.48,0.12c0.06-0.18,0.12-1.38,0.12-1.98v-24C631.41,89.17,630.99,88.57,629.49,88.27z"/>
	<path class="st149" d="M669.69,91.81c8.16,0,12.24,5.34,12.24,10.68c0,8.28-9.78,11.58-14.64,11.94c-0.72,0.06-0.6-0.42,0-0.66
		c4.74-2.04,8.04-4.02,8.46-8.82h-7.44c-0.72,0-5.52,0.18-6.3,0.3c-2.04,0.36-2.28,0.3-1.62-0.18c0.42-0.3,2.7-2.58,3.54-3.36
		l0.12-0.12h11.64c-0.72-5.52-3.96-7.86-7.14-7.86c-4.32,0-7.08,2.7-7.08,4.68c0,0.48-0.12,0.66-0.3,0.72
		c-1.74,0.6-2.76,1.14-3.72,1.92c-0.3,0.24-0.72,0.48-0.48-0.24C657.63,99.01,660.81,91.81,669.69,91.81z"/>
	<path class="st149" d="M702.33,88.33c-0.6-0.12-1.68-0.18-2.22-0.18s-0.54-0.3-0.3-0.42c2.76-1.14,4.74-2.52,7.5-4.14
		c1.32-0.78,2.16,0.96,2.16,2.46v6c3.3-3.72,8.46-8.46,14.58-8.46c3.72,0,6.6,1.38,8.22,2.7c0.36,0.3,0,0.3-0.24,0.42
		c-1.08,0.6-2.64,2.28-3.66,3.66c-0.06,0.12-0.24,0.3-0.48,0.12c-1.62-1.44-4.26-2.7-7.8-2.7c-4.14,0-7.02,2.46-10.62,5.94v7.68
		c3.42-1.5,10.5-6.18,13.2-6.18c5.04,0,10.08,4.8,10.08,9.9c0,5.4-8.28,10.14-13.02,10.14c-4.8,0-8.52-4.56-10.02-4.56h-0.24v2.94
		l-3.3,1.8c-0.18,0.12-1.38,0.9-1.56,1.08c-0.48,0.42-0.54,0.42-0.48,0.12c0.06-0.18,0.12-1.38,0.12-1.98v-24
		C704.25,89.23,703.83,88.63,702.33,88.33z M720.99,111.79c5.22,0,6.6-2.4,4.5-7.38c-1.08-2.52-3.54-5.4-6.06-5.4
		c-1.98,0-6.54,3.12-9.6,4.44C712.59,106.69,716.97,111.79,720.99,111.79z"/>
	<path class="st149" d="M748.23,91.81c8.16,0,12.24,5.34,12.24,10.68c0,8.28-9.78,11.58-14.64,11.94c-0.72,0.06-0.6-0.42,0-0.66
		c4.74-2.04,8.04-4.02,8.46-8.82h-7.44c-0.72,0-5.52,0.18-6.3,0.3c-2.04,0.36-2.28,0.3-1.62-0.18c0.42-0.3,2.7-2.58,3.54-3.36
		l0.12-0.12h11.64c-0.72-5.52-3.96-7.86-7.14-7.86c-4.32,0-7.08,2.7-7.08,4.68c0,0.48-0.12,0.66-0.3,0.72
		c-1.74,0.6-2.76,1.14-3.72,1.92c-0.3,0.24-0.72,0.48-0.48-0.24C736.17,99.01,739.35,91.81,748.23,91.81z"/>
	<path class="st149" d="M776.67,91.75c5.76,0,9.42,2.52,9.42,4.98v25.68l-3.3,1.8c-0.18,0.12-1.38,0.9-1.56,1.08
		c-0.48,0.42-0.54,0.42-0.48,0.12c0.06-0.18,0.12-1.38,0.12-1.98V99.37c0-2.64-2.82-4.5-6.78-4.5c-2.58,0-6.48,1.38-10.5,4.5
		c-0.6,0.48-1.32,0.06-0.9-0.48C764.31,96.79,767.97,91.75,776.67,91.75z"/>
	<path class="st149" d="M792.09,88.27c-0.6-0.12-1.68-0.18-2.22-0.18s-0.54-0.3-0.3-0.42c2.76-1.14,4.74-2.52,7.5-4.14
		c1.32-0.78,2.16,0.96,2.16,2.46v16.5c1.14-0.18,2.64-0.78,5.22-2.1c3-1.56,3.96-3.36,4.26-4.68c0.3-1.32-0.9-1.92-1.44-2.28
		c-0.36-0.18-0.42-0.54,0.24-0.54c1.5,0,3.66-0.18,5.58-0.72c0.6-0.12,0.72,0.06,0.72,1.14c0,4.2-2.7,4.92-6.06,6.9
		c5.7,0.24,9.66,2.1,9.66,6.42c0,4.92-7.2,9.06-11.82,10.5c-0.6,0.18-0.72-0.06-0.3-0.36c2.64-1.68,6.3-5.4,6.3-9
		c0-2.22-1.38-5.4-6.96-5.76c-2.28,1.26-4.26,2.16-5.4,2.76v8.82l-3.3,1.8c-0.18,0.12-1.38,0.9-1.56,1.08
		c-0.48,0.42-0.54,0.42-0.48,0.12c0.06-0.18,0.12-1.38,0.12-1.98v-24C794.01,89.17,793.59,88.57,792.09,88.27z"/>
	<path class="st149" d="M832.29,91.81c8.16,0,12.24,5.34,12.24,10.68c0,8.28-9.78,11.58-14.64,11.94c-0.72,0.06-0.6-0.42,0-0.66
		c4.74-2.04,8.04-4.02,8.46-8.82h-7.44c-0.72,0-5.52,0.18-6.3,0.3c-2.04,0.36-2.28,0.3-1.62-0.18c0.42-0.3,2.7-2.58,3.54-3.36
		l0.12-0.12h11.64c-0.72-5.52-3.96-7.86-7.14-7.86c-4.32,0-7.08,2.7-7.08,4.68c0,0.48-0.12,0.66-0.3,0.72
		c-1.74,0.6-2.76,1.14-3.72,1.92c-0.3,0.24-0.72,0.48-0.48-0.24C820.23,99.01,823.41,91.81,832.29,91.81z"/>
	
		<linearGradient id="SVGID_00000153676761262794668720000013701067317488518529_" gradientUnits="userSpaceOnUse" x1="847.443" y1="109.056" x2="900.5828" y2="109.056">
		<stop  offset="0" style="stop-color:#4C5FBF"/>
		<stop  offset="0.3" style="stop-color:#4889D1"/>
		<stop  offset="0.5" style="stop-color:#47AADD"/>
		<stop  offset="1" style="stop-color:#FE9934"/>
	</linearGradient>
	<path style="fill:url(#SVGID_00000153676761262794668720000013701067317488518529_);" d="M849.33,96.49
		c-0.6-0.12-1.68-0.18-2.22-0.18s-0.54-0.3-0.3-0.42c2.76-1.14,4.74-2.52,7.5-4.14c1.32-0.78,2.16,0.96,2.16,2.46v2.34
		c2.4-2.7,6.9-5.04,9.54-5.04c2.88,0,7.62,2.7,7.62,7.02c0,3.3-2.7,5.82-6.06,6.78v10.92c0,5.4,2.58,8.94,5.94,8.94
		c2.76,0,6-1.56,6-9.12v-15.84c0-3.48,5.22-8.76,12.54-8.76c5.52,0,9.6,3.78,10.86,5.34c0.24,0.3-0.3,0.6-0.48,0.78
		c-1.02,0.84-2.28,2.22-3.12,3.36c-0.18,0.24-0.36,0.3-0.54,0c-1.2-2.4-4.68-7.56-8.52-7.56c-3.54,0-5.52,2.88-5.52,6.78v16.86
		c0,7.02-7.86,9.66-12,9.66c-6.36,0-10.38-3.06-10.38-9.12v-12l-0.96-0.24c-0.78-0.24-1.02-0.78,0-0.96
		c1.32-0.24,6.12-0.54,6.12-4.98c0-2.76-1.68-5.16-4.74-5.16c-1.98,0-4.98,2.52-6.3,4.14v20.4l-3.3,1.8
		c-0.18,0.12-1.38,0.9-1.56,1.08c-0.48,0.42-0.54,0.42-0.48,0.12c0.06-0.18,0.12-1.38,0.12-1.98V98.83
		C851.25,97.39,850.83,96.79,849.33,96.49z M879.51,115.93h-0.06H879.51z"/>
	<path class="st149" d="M906.81,110.89c-4.5-5.82-1.68-11.76,1.68-15.3c3.54-3.96,8.1-5.58,13.62-2.58
		c4.86,2.7,7.38,9.54,2.22,16.32C918.63,116.83,909.93,114.97,906.81,110.89z M919.35,97.15c-3.48-2.64-7.5-2.94-9.3-1.08
		c-2.46,2.58-1.56,8.28,0.66,11.16c2.64,3.42,8.7,5.04,10.8,3C925.05,106.75,922.53,99.67,919.35,97.15z"/>
	<path class="st149" d="M956.31,104.89c0,6.3-3.78,9.12-7.62,9.12c-8.76,0-9.6-7.56-9.6-4.98v3.12l-3.3,1.8
		c-0.18,0.12-1.38,0.9-1.56,1.08c-0.48,0.42-0.54,0.42-0.48,0.12c0.06-0.18,0.12-1.38,0.12-1.98V99.01c0-1.44-0.42-2.04-1.92-2.34
		c-0.6-0.12-1.68-0.18-2.22-0.18s-0.54-0.3-0.3-0.42c2.76-1.14,4.74-2.52,7.5-4.14c1.32-0.78,2.16,0.96,2.16,2.46v7.98
		c0,4.26,2.04,6.84,7.2,6.84c2.46,0,5.88-1.14,5.88-6.24c0-4.32-1.56-5.64-4.14-7.08c-0.84-0.48-1.92-0.42-2.4-0.3
		c-0.72,0.18-1.02,0.12-0.96-0.12c0.06-0.12,0.24-0.36,0.54-0.66l2.94-2.7h4.14c0.72,0,5.52-0.18,6.3-0.3
		c2.04-0.36,2.28-0.3,1.62,0.18c-0.42,0.3-2.7,2.58-3.54,3.36l-0.12,0.12h-4.86C948.69,95.47,956.31,96.49,956.31,104.89z"/>
	<path class="st149" d="M974.61,91.75c5.76,0,9.42,2.52,9.42,4.98v25.68l-3.3,1.8c-0.18,0.12-1.38,0.9-1.56,1.08
		c-0.48,0.42-0.54,0.42-0.48,0.12c0.06-0.18,0.12-1.38,0.12-1.98V99.37c0-2.64-2.82-4.5-6.78-4.5c-2.58,0-6.48,1.38-10.5,4.5
		c-0.6,0.48-1.32,0.06-0.9-0.48C962.25,96.79,965.91,91.75,974.61,91.75z"/>
</g>
</svg>
