<?xml version="1.0" encoding="utf-8"?>
<!-- Generator: Adobe Illustrator 25.4.1, SVG Export Plug-In . SVG Version: 6.00 Build 0)  -->
<svg version="1.1" id="图层_4" xmlns="http://www.w3.org/2000/svg" xmlns:xlink="http://www.w3.org/1999/xlink" x="0px" y="0px"
	 viewBox="0 0 1125 160" style="enable-background:new 0 0 1125 160;" xml:space="preserve">
<style type="text/css">
	.st0{fill:url(#SVGID_1_);}
	.st1{fill:url(#SVGID_00000152234667735154508690000009982812722122854311_);}
	.st2{fill:url(#SVGID_00000083084073787255366980000003821413234223064707_);}
	.st3{fill:url(#SVGID_00000111882537102013111090000004308095712868374145_);}
	.st4{fill:url(#SVGID_00000130645256850860635540000015579382969581800895_);}
	.st5{fill:url(#SVGID_00000023960704079917898700000001728285227125398927_);}
	.st6{fill:url(#SVGID_00000018958426971885545830000014087507137836378303_);}
	.st7{fill:url(#SVGID_00000144337581937001406860000014819762041613969340_);}
	.st8{fill:url(#SVGID_00000074421716734530497620000005615774333637591179_);}
	.st9{fill:url(#SVGID_00000010301179833003922620000009524118944358104216_);}
	.st10{fill:url(#SVGID_00000164504633920620656830000013645300583267126173_);}
	.st11{fill:url(#SVGID_00000037655575321271957400000001226471979710215090_);}
	.st12{fill:url(#SVGID_00000042730953277914524000000003321423926824668805_);}
	.st13{fill:url(#SVGID_00000178163479928778425330000012694204603305698223_);}
	.st14{fill:url(#SVGID_00000156558218512420184630000012383767716748926376_);}
	.st15{fill:url(#SVGID_00000028292891885780092190000014049074256815236737_);}
	.st16{fill:url(#SVGID_00000061433344864580582060000009393194515374020249_);}
	.st17{fill:url(#SVGID_00000132087765957866602700000012393865165798796684_);}
	.st18{fill:url(#SVGID_00000113332477025023258700000005395734545580942254_);}
	.st19{fill:url(#SVGID_00000091698818436372704340000000402361306222219187_);}
	.st20{fill:url(#SVGID_00000059273763489656077770000006258364316757572516_);}
	.st21{fill:url(#SVGID_00000175283592095823711900000007528974799299781267_);}
	.st22{fill:url(#SVGID_00000018942307643746342610000000519806145524020635_);}
	.st23{fill:url(#SVGID_00000110454223460097532540000012828073753148686750_);}
	.st24{fill:url(#SVGID_00000085954537031912360320000001880112582645936560_);}
	.st25{fill:url(#SVGID_00000010310308722905069980000011985197463626919593_);}
	.st26{fill:url(#SVGID_00000106863553150200676290000002399723975313402032_);}
	.st27{fill:url(#SVGID_00000121276356908758045030000000670693250534966162_);}
	.st28{fill:url(#SVGID_00000053507179438692805910000011232377840112031642_);}
	.st29{fill:url(#SVGID_00000147924615051305733650000008697831470691228078_);}
	.st30{fill:url(#SVGID_00000069397888958051968980000013557220626567738044_);}
	.st31{fill:url(#SVGID_00000101807052233897831310000015775474099536515225_);}
	.st32{fill:url(#SVGID_00000025421338124337330210000001275458707555312308_);}
	.st33{fill:url(#SVGID_00000079453738078500220740000014956999860086283184_);}
	.st34{fill:url(#SVGID_00000081608975644856248090000003517942579503276164_);}
	.st35{fill:url(#SVGID_00000104682622089114448600000010315586030806129803_);}
	.st36{fill:url(#SVGID_00000016053869584856238440000001166899561062210983_);}
	.st37{fill:url(#SVGID_00000173147500424152019180000013843623425932688787_);}
	.st38{fill:url(#SVGID_00000116201577630611069640000007873768472937440945_);}
	.st39{fill:url(#SVGID_00000016066974528588794080000015590943063646411446_);}
	.st40{fill:url(#SVGID_00000006670352455412467860000011975644597773480865_);}
	.st41{fill:url(#SVGID_00000150094146795171369550000008685964931519440023_);}
	.st42{fill:url(#SVGID_00000067231122424191226940000014578429365896309945_);}
	.st43{fill:url(#SVGID_00000005240739290976000540000015154049206633084803_);}
	.st44{fill:url(#SVGID_00000052089952235518293190000001178547052412639644_);}
	.st45{fill:url(#SVGID_00000060028968189407435340000002864831705363116705_);}
	.st46{fill:url(#SVGID_00000094604811157139768590000002275622483423185083_);}
	.st47{fill:url(#SVGID_00000004544272333714039530000013778091802063803325_);}
	.st48{fill:url(#SVGID_00000102530982312368081480000011483439043398203556_);}
	.st49{fill:url(#SVGID_00000064331594763687540970000006453744994094363830_);}
	.st50{fill:url(#SVGID_00000093894111323957713720000012459181583334146738_);}
	.st51{fill:url(#SVGID_00000095332533411519614750000004846484932627852439_);}
	.st52{fill:url(#SVGID_00000082329179552806137910000008172733087761736861_);}
	.st53{fill:url(#SVGID_00000052788805561590661130000008819570272680603831_);}
	.st54{fill:url(#SVGID_00000117673124088101884200000010040411817532937659_);}
	.st55{fill:url(#SVGID_00000157267035499784271070000015754661067496743816_);}
	.st56{fill:url(#SVGID_00000013898144573430600920000015389088208254642566_);}
	.st57{fill:url(#SVGID_00000150792325232765158750000009316132665911982766_);}
	.st58{fill:url(#SVGID_00000158745444034117449530000009866673818502772871_);}
	.st59{fill:url(#SVGID_00000003795984626541004000000009588692855102460544_);}
	.st60{fill:url(#SVGID_00000062176042905954175940000017090301680486982540_);}
	.st61{fill:url(#SVGID_00000043416894417964196680000011935184847867094194_);}
	.st62{fill:url(#SVGID_00000070839697501452568210000012452040045297183373_);}
	.st63{fill:url(#SVGID_00000003073202921381780390000006050575139226410136_);}
	.st64{fill:url(#SVGID_00000003807626374872893770000012107154662898301337_);}
	.st65{fill:url(#SVGID_00000010297594405536252050000016352977628732269230_);}
	.st66{fill:url(#SVGID_00000030465413676053362950000001169666890596529821_);}
	.st67{fill:url(#SVGID_00000115492244903559338990000006079624472345037488_);}
	.st68{fill:url(#SVGID_00000009565748909219627780000011943940018650523529_);}
	.st69{fill:url(#SVGID_00000118386208808695094070000004735381397896399544_);}
	.st70{fill:url(#SVGID_00000081614535120525059240000002267367769256788899_);}
	.st71{fill:url(#SVGID_00000011710900742174354790000010017998967963199388_);}
	.st72{fill:url(#SVGID_00000068655180356415360910000000492504083900822455_);}
	.st73{fill:url(#SVGID_00000018197930277617818630000018194634132438258855_);}
	.st74{fill:url(#SVGID_00000170982235019745703040000010456041464877235110_);}
	.st75{fill:url(#SVGID_00000095318538977381242700000009696872707819846303_);}
	.st76{fill:url(#SVGID_00000088096100078538847490000010867357195915308176_);}
	.st77{fill:url(#SVGID_00000047050409095046484360000011290332545495175581_);}
	.st78{fill:url(#SVGID_00000093899958085595262070000015766668746526338222_);}
	.st79{fill:url(#SVGID_00000067211124354787380230000011406988393801936785_);}
	.st80{fill:url(#SVGID_00000081611702187900314560000012496362669514836392_);}
	.st81{fill:url(#SVGID_00000053506948135006295450000006649379830583508670_);}
	.st82{fill:url(#SVGID_00000145059429876174100920000000774364311097922473_);}
	.st83{fill:url(#SVGID_00000049194886032606640720000008874080066092791201_);}
	.st84{fill:url(#SVGID_00000016789440256105460610000005333425826678286486_);}
	.st85{fill:url(#SVGID_00000077295338723643729720000001029216272079545770_);}
	.st86{fill:url(#SVGID_00000178177901101381386840000013266999155105375656_);}
	.st87{fill:url(#SVGID_00000168837523049614066470000014807436227713468572_);}
	.st88{fill:url(#SVGID_00000093885796555234949960000007643925304244504491_);}
	.st89{fill:url(#SVGID_00000101791962352899261810000004264837033229517754_);}
	.st90{fill:url(#SVGID_00000173850833935233696250000015026002432569458361_);}
	.st91{fill:url(#SVGID_00000173871229129345007640000011275593784160794762_);}
	.st92{fill:url(#SVGID_00000052095977674811507400000014724698905803513500_);}
	.st93{fill:url(#SVGID_00000087376455575693756230000016222907005990864773_);}
	.st94{fill:url(#SVGID_00000160879380959721410230000008834344970470746499_);}
	.st95{fill:url(#SVGID_00000014618099121651047110000017066347800197082797_);}
	.st96{fill:url(#SVGID_00000152237354033365391620000015852831530260533128_);}
	.st97{fill:url(#SVGID_00000050645921776369890270000003778063520885063350_);}
	.st98{fill:url(#SVGID_00000053520440077525788810000005549035847102963592_);}
	.st99{fill:url(#SVGID_00000183248691572986225710000014134648694160793737_);}
	.st100{fill:url(#SVGID_00000029735267151772526240000007081975742184819075_);}
	.st101{fill:url(#SVGID_00000054957831844276994390000010266167089400831617_);}
	.st102{fill:url(#SVGID_00000172416616975849380550000018026654779632246201_);}
	.st103{fill:url(#SVGID_00000119105728619239258270000004313919882893855415_);}
	.st104{fill:url(#SVGID_00000106125536640395313590000005030709845141931197_);}
	.st105{fill:url(#SVGID_00000162329951990411420100000009332197361582078880_);}
	.st106{fill:url(#SVGID_00000013879731948121368260000005730673152456799931_);}
	.st107{fill:url(#SVGID_00000178914553230592790750000015504695723840877740_);}
	.st108{fill:#FFFFFF;}
	.st109{fill:url(#SVGID_00000003073740364226034320000016483589041579263904_);}
	.st110{fill:url(#SVGID_00000021825725510365017510000005635499287341874357_);}
	.st111{fill:url(#SVGID_00000116941699973850547290000010888517378740696193_);}
	.st112{fill:url(#SVGID_00000127029893210188159040000000065608127808050339_);}
	.st113{fill:url(#SVGID_00000046298720859691392420000015268747852564193205_);}
	.st114{fill:url(#SVGID_00000132053366181018681050000000317205875950620584_);}
	.st115{fill:url(#SVGID_00000089551916181252308110000017396157609690197431_);}
	.st116{fill:url(#SVGID_00000125576827904690777700000001476491991636369820_);}
	.st117{fill:url(#SVGID_00000044148564012145516910000000795741331572486813_);}
	.st118{fill:url(#SVGID_00000085245362941874049840000005175711267802028467_);}
	.st119{fill:url(#SVGID_00000005947459705765549250000008777362391046191533_);}
	.st120{fill:url(#SVGID_00000062887081077534125750000015087917194985702814_);}
	.st121{fill:url(#SVGID_00000148643449157867441890000002540824419921179279_);}
	.st122{fill:url(#SVGID_00000153683466310222738710000014849078042805423764_);}
	.st123{fill:url(#SVGID_00000062164071095928998510000005616965426735113900_);}
	.st124{fill:url(#SVGID_00000137117824627292953510000016245766018790145432_);}
	.st125{fill:url(#SVGID_00000126302430423189846870000010014837340775345284_);}
	.st126{fill:url(#SVGID_00000160887311776903220720000011502692200321673125_);}
	.st127{fill:url(#SVGID_00000163762896314317321090000009257543050545648800_);}
	.st128{fill:url(#SVGID_00000152981641132088833380000015780901755098369213_);}
	.st129{fill:url(#SVGID_00000106859271555071881890000008816516578582117549_);}
	.st130{fill:url(#SVGID_00000104667481566652447270000004423881537858927528_);}
	.st131{fill:url(#SVGID_00000000185459035666155100000002174484403133936537_);}
	.st132{fill:url(#SVGID_00000013891130937354620640000006449497138208900257_);}
	.st133{fill:url(#SVGID_00000130616974689476420090000011274872497687443090_);}
	.st134{fill:url(#SVGID_00000060005091330080699540000018286275236877917598_);}
	.st135{fill:url(#SVGID_00000091735802924622443600000004300092699284576418_);}
	.st136{fill:url(#SVGID_00000157303766514129040040000007467870332966178188_);}
	.st137{fill:url(#SVGID_00000095301717443816974170000005849645482295676317_);}
	.st138{fill:url(#SVGID_00000118373277892541076990000000299985902794586815_);}
	.st139{fill:url(#SVGID_00000083067100641400967760000005912152900883751868_);}
	.st140{fill:url(#SVGID_00000145024112205263871840000004659767576673948305_);}
	.st141{fill:url(#SVGID_00000062899795922344859900000014950312516345479591_);}
	.st142{fill:url(#SVGID_00000017498821166003225190000013899255293701093545_);}
	.st143{fill:url(#SVGID_00000043433461569262611610000007582437686632263094_);}
	.st144{fill:url(#SVGID_00000140734411268948694510000006255131085943000759_);}
	.st145{fill:url(#SVGID_00000139251570700038519400000006388784971500669319_);}
	.st146{fill:url(#SVGID_00000163068923076442873790000008606947657887501756_);}
	.st147{fill:url(#SVGID_00000062889117918384209560000017827514037877838015_);}
	.st148{fill:url(#SVGID_00000026124863994510922940000010708611638137141904_);}
	.st149{fill:#1A1A1A;}
	.st150{fill:url(#SVGID_00000013159320235071150840000009915201128896076977_);}
	.st151{fill:url(#SVGID_00000056404999354909484270000015681576112371225278_);}
	.st152{fill:url(#SVGID_00000173129718731002418910000009139723305332542884_);}
	.st153{fill:url(#SVGID_00000070099208957971382650000018283975281474571189_);}
	.st154{fill:url(#SVGID_00000093169756102077970770000008629215070416254373_);}
	.st155{fill:url(#SVGID_00000047055814092872705330000001088906727883026836_);}
	.st156{fill:url(#SVGID_00000132055959437873033380000011927649134978198916_);}
	.st157{fill:url(#SVGID_00000039825723264742690890000000406822927236439431_);}
	.st158{fill:url(#SVGID_00000128448236147663432140000004927940067505747871_);}
	.st159{fill:url(#SVGID_00000067934332798696398980000012372440646733667988_);}
	.st160{fill:url(#SVGID_00000030470596834916154950000012615399731757558157_);}
	.st161{fill:url(#SVGID_00000000930833431912369850000010819912283304723344_);}
	.st162{fill:url(#SVGID_00000057112812040488802290000012404251949380608439_);}
	.st163{fill:url(#SVGID_00000109745297736222186410000005535111157876573336_);}
	.st164{fill:url(#SVGID_00000094600435582887633870000018426335860388820370_);}
	.st165{fill:url(#SVGID_00000024705258291188960900000008240306654808357277_);}
	.st166{fill:url(#SVGID_00000054224846674575488950000001623088843271268031_);}
	.st167{fill:url(#SVGID_00000176736924794652836270000010258780001456579464_);}
	.st168{fill:url(#SVGID_00000005982561438713064990000003469186282315490443_);}
	.st169{fill:url(#SVGID_00000044870814142528035330000004712726809624432564_);}
	.st170{fill:url(#SVGID_00000073697253427591599510000008133207024766538634_);}
	.st171{fill:url(#SVGID_00000176020896097703042140000008714703288411943561_);}
	.st172{fill:url(#SVGID_00000152261008220120144840000005785071151652160447_);}
	.st173{fill:url(#SVGID_00000022540367077662703780000016361986946290229913_);}
	.st174{fill:url(#SVGID_00000150089265535288208590000004844749941047607707_);}
	.st175{fill:url(#SVGID_00000000920048298806994930000008078815812995907990_);}
	.st176{fill:url(#SVGID_00000143585070450190349340000001377282516564134295_);}
	.st177{fill:url(#SVGID_00000101064825285174830890000007469239192806074763_);}
	.st178{fill:url(#SVGID_00000092447657922339693860000008174130510740903054_);}
	.st179{fill:url(#SVGID_00000163791048919551571810000016534159397839720592_);}
	.st180{fill:url(#SVGID_00000169544888180927487280000014446806608911207043_);}
	.st181{fill:url(#SVGID_00000078758839257949074600000003205377119584535973_);}
	.st182{fill:url(#SVGID_00000178883989748848028520000016499410882993505410_);}
	.st183{fill:url(#SVGID_00000172419935487466203270000012008416916647322778_);}
	.st184{fill:url(#SVGID_00000151523938806703202490000016740553187317888420_);}
	.st185{fill:url(#SVGID_00000016754724506978403170000014747377270029840817_);}
	.st186{fill:url(#SVGID_00000054958095531625253470000003133051117307848381_);}
	.st187{fill:url(#SVGID_00000063604389270406380820000001846173789348890023_);}
	.st188{fill:url(#SVGID_00000117636131940803894330000003550103474578529185_);}
	.st189{fill:url(#SVGID_00000097462552132438679020000003524872751094596484_);}
	.st190{fill:url(#SVGID_00000111888067781169912370000001157812438935718847_);}
	.st191{fill:url(#SVGID_00000087412780066751701450000003485789746321455265_);}
</style>
<g>
	<linearGradient id="SVGID_1_" gradientUnits="userSpaceOnUse" x1="40.9255" y1="73.9167" x2="1072.9283" y2="73.9167">
		<stop  offset="0" style="stop-color:#4C5FBF"/>
		<stop  offset="0.3" style="stop-color:#4889D1"/>
		<stop  offset="0.5" style="stop-color:#47AADD"/>
		<stop  offset="1" style="stop-color:#FE9934"/>
	</linearGradient>
	<path class="st0" d="M50.51,54.25c-1-0.2-2.8-0.3-3.7-0.3c-0.9,0-0.9-0.5-0.5-0.7c4.6-1.9,7.9-4.2,12.5-6.9
		c2.2-1.3,3.6,1.6,3.6,4.1v10c5.5-6.2,14.1-14.1,24.3-14.1c6.2,0,11,2.3,13.7,4.5c0.6,0.5,0,0.5-0.4,0.7c-1.8,1-4.4,3.8-6.1,6.1
		c-0.1,0.2-0.4,0.5-0.8,0.2c-2.7-2.4-7.1-4.5-13-4.5c-6.9,0-11.7,4.1-17.7,9.9v12.8c5.7-2.5,17.5-10.3,22-10.3
		c8.4,0,16.8,8,16.8,16.5c0,9-13.8,16.9-21.7,16.9c-8,0-14.2-7.6-16.7-7.6h-0.4v4.9l-5.5,3c-0.3,0.2-2.3,1.5-2.6,1.8
		c-0.8,0.7-0.9,0.7-0.8,0.2c0.1-0.3,0.2-2.3,0.2-3.3v-40C53.71,55.75,53.01,54.75,50.51,54.25z M81.61,93.35c8.7,0,11-4,7.5-12.3
		c-1.8-4.2-5.9-9-10.1-9c-3.3,0-10.9,5.2-16,7.4C67.61,84.85,74.91,93.35,81.61,93.35z"/>
	
		<linearGradient id="SVGID_00000129926662941256548230000014722202002371274168_" gradientUnits="userSpaceOnUse" x1="40.9255" y1="79.1207" x2="1072.9283" y2="79.1207">
		<stop  offset="0" style="stop-color:#4C5FBF"/>
		<stop  offset="0.3" style="stop-color:#4889D1"/>
		<stop  offset="0.5" style="stop-color:#47AADD"/>
		<stop  offset="1" style="stop-color:#FE9934"/>
	</linearGradient>
	<path style="fill:url(#SVGID_00000129926662941256548230000014722202002371274168_);" d="M113.61,60.55c1.1-0.7,3.1-1,4-0.8
		c2.5,0.4,4.6,1.3,4.6,4.9c0,5-7.9,8.9-7.9,18.7c0,4.9,1.9,9.5,10.4,11.1v-26.9l1.9-0.8c4.7-2.2,10.1-6.7,11.9-6.7
		c5.1,0,15.4,3.2,15.4,13.5c0,15.3-14,25-27,25c-9.7,0-20.7-2.2-20.7-13.6c0-8,8.1-10.4,7.8-16.3c-0.2-3.7-4.4-3.2-5.8-2.3
		c-0.6,0.4-1.3,0.1-1.1-0.2C107.61,65.35,112.41,61.45,113.61,60.55z M145.61,77.55c0-8.4-7.5-10.4-12.2-10.7v28
		C142.41,93.55,145.61,82.75,145.61,77.55z"/>
	
		<linearGradient id="SVGID_00000008113217791215890080000011261946756343823790_" gradientUnits="userSpaceOnUse" x1="40.9255" y1="88.5367" x2="1072.9283" y2="88.5367">
		<stop  offset="0" style="stop-color:#4C5FBF"/>
		<stop  offset="0.3" style="stop-color:#4889D1"/>
		<stop  offset="0.5" style="stop-color:#47AADD"/>
		<stop  offset="1" style="stop-color:#FE9934"/>
	</linearGradient>
	<path style="fill:url(#SVGID_00000008113217791215890080000011261946756343823790_);" d="M197.51,75.95h1.9c1.2,0,9.2-0.3,10.5-0.5
		c3.4-0.6,3.8-0.5,2.7,0.3c-0.7,0.5-4.5,4.3-5.9,5.6l-0.2,0.2h-9v11.6l-5.5,3c-0.3,0.2-2.3,1.5-2.6,1.8c-0.8,0.7-0.9,0.7-0.8,0.2
		c0.1-0.3,0.2-2.3,0.2-3.3v-13.2c-2.8,0.1-7,0.3-7.9,0.4c-3.4,0.6-3.8,0.5-2.7-0.3c0.7-0.5,4.5-4.3,5.9-5.6l0.2-0.2h4.5v-11
		c-9.6,1.8-20.2,9.2-20.2,24.7c0,16.2,16.4,24.1,20.2,26.4c1.7,1,1.4,1.7-0.2,1.4c-7-1.3-29.7-6.3-29.7-24.9c0-21.6,27.8-33,38.6-33
		V75.95z"/>
	
		<linearGradient id="SVGID_00000070103860311000339210000014740610539231767425_" gradientUnits="userSpaceOnUse" x1="40.9255" y1="78.751" x2="1072.9283" y2="78.751">
		<stop  offset="0" style="stop-color:#4C5FBF"/>
		<stop  offset="0.3" style="stop-color:#4889D1"/>
		<stop  offset="0.5" style="stop-color:#47AADD"/>
		<stop  offset="1" style="stop-color:#FE9934"/>
	</linearGradient>
	<path style="fill:url(#SVGID_00000070103860311000339210000014740610539231767425_);" d="M215.61,86.05v-20.3
		c0-3.4,2.6-5.8,9.1-5.8c3.9,0,6.8,2.3,9.6,6.6c1.1-2.1,3.7-6.6,9.3-6.6c5.1,0,6.9,1.5,13.6,12c6.1,9.4,11.3,20.7,15,20.7
		c2.8,0,4.4-3,5.4-3.9c0.6-0.6,1.3,0,1,0.6c-0.9,1.5-5.1,8.2-9.3,8.2c-5.1,0-7.6-1.7-11-6.9c-1.1,2.1-3.4,6.9-9,6.9
		c-4.4,0-7.9-3-10.8-7.1c-1.8,3-3.3,7.1-10.9,7.1C220.31,97.55,215.61,92.75,215.61,86.05z M230.81,92.55c2.8,0,5.4-1.9,6.9-3.2
		c-2.3-3.3-4.2-7.1-6-10.5c-2.6-4.9-4.5-14.6-7.2-14.6c-0.3,0-0.6,0-0.9,0.1v20.5C223.61,89.95,225.81,92.55,230.81,92.55z
		 M239.21,74.85c3.6,6.5,10.2,17.8,14.1,17.8c1.6,0,3.2-2,4.2-3.1c-2-3.1-4.3-7.2-7.6-12.7c-5.1-8.9-7.4-11.9-10.4-11.9
		c-1.9,0-3.1,2.4-4.1,3.3C236.61,70.15,237.81,72.35,239.21,74.85z"/>
	
		<linearGradient id="SVGID_00000091710383427133251350000003151102997165753229_" gradientUnits="userSpaceOnUse" x1="40.9255" y1="78.9054" x2="1072.9283" y2="78.9054">
		<stop  offset="0" style="stop-color:#4C5FBF"/>
		<stop  offset="0.3" style="stop-color:#4889D1"/>
		<stop  offset="0.5" style="stop-color:#47AADD"/>
		<stop  offset="1" style="stop-color:#FE9934"/>
	</linearGradient>
	<path style="fill:url(#SVGID_00000091710383427133251350000003151102997165753229_);" d="M293.01,60.05c13.6,0,20.4,8.9,20.4,17.8
		c0,13.8-16.3,19.3-24.4,19.9c-1.2,0.1-1-0.7,0-1.1c7.9-3.4,13.4-6.7,14.1-14.7h-12.4c-1.2,0-9.2,0.3-10.5,0.5
		c-3.4,0.6-3.8,0.5-2.7-0.3c0.7-0.5,4.5-4.3,5.9-5.6l0.2-0.2h19.4c-1.2-9.2-6.6-13.1-11.9-13.1c-7.2,0-11.8,4.5-11.8,7.8
		c0,0.8-0.2,1.1-0.5,1.2c-2.9,1-4.6,1.9-6.2,3.2c-0.5,0.4-1.2,0.8-0.8-0.4C272.91,72.05,278.21,60.05,293.01,60.05z"/>
	
		<linearGradient id="SVGID_00000049219541877114716000000015158568740008565916_" gradientUnits="userSpaceOnUse" x1="40.9255" y1="79.4847" x2="1072.9283" y2="79.4847">
		<stop  offset="0" style="stop-color:#4C5FBF"/>
		<stop  offset="0.3" style="stop-color:#4889D1"/>
		<stop  offset="0.5" style="stop-color:#47AADD"/>
		<stop  offset="1" style="stop-color:#FE9934"/>
	</linearGradient>
	<path style="fill:url(#SVGID_00000049219541877114716000000015158568740008565916_);" d="M362.01,81.85c0,10.5-6.3,15.2-12.7,15.2
		c-14.6,0-16-12.6-16-8.3v5.2l-5.5,3c-0.3,0.2-2.3,1.5-2.6,1.8c-0.8,0.7-0.9,0.7-0.8,0.2c0.1-0.3,0.2-2.3,0.2-3.3v-23.6
		c0-2.4-0.7-3.4-3.2-3.9c-1-0.2-2.8-0.3-3.7-0.3c-0.9,0-0.9-0.5-0.5-0.7c4.6-1.9,7.9-4.2,12.5-6.9c2.2-1.3,3.6,1.6,3.6,4.1v13.3
		c0,7.1,3.4,11.4,12,11.4c4.1,0,9.8-1.9,9.8-10.4c0-7.2-2.6-9.4-6.9-11.8c-1.4-0.8-3.2-0.7-4-0.5c-1.2,0.3-1.7,0.2-1.6-0.2
		c0.1-0.2,0.4-0.6,0.9-1.1l4.9-4.5h6.9c1.2,0,9.2-0.3,10.5-0.5c3.4-0.6,3.8-0.5,2.7,0.3c-0.7,0.5-4.5,4.3-5.9,5.6l-0.2,0.2h-8.1
		C349.31,66.15,362.01,67.85,362.01,81.85z"/>
	
		<linearGradient id="SVGID_00000171697673705767349170000002490043929351181711_" gradientUnits="userSpaceOnUse" x1="40.9255" y1="88.178" x2="1072.9283" y2="88.178">
		<stop  offset="0" style="stop-color:#4C5FBF"/>
		<stop  offset="0.3" style="stop-color:#4889D1"/>
		<stop  offset="0.5" style="stop-color:#47AADD"/>
		<stop  offset="1" style="stop-color:#FE9934"/>
	</linearGradient>
	<path style="fill:url(#SVGID_00000171697673705767349170000002490043929351181711_);" d="M392.51,59.95c9.6,0,15.7,4.2,15.7,8.3
		v42.8l-5.5,3c-0.3,0.2-2.3,1.5-2.6,1.8c-0.8,0.7-0.9,0.7-0.8,0.2c0.1-0.3,0.2-2.3,0.2-3.3v-40.1c0-4.4-4.7-7.5-11.3-7.5
		c-4.3,0-10.8,2.3-17.5,7.5c-1,0.8-2.2,0.1-1.5-0.8C371.91,68.35,378.01,59.95,392.51,59.95z"/>
	
		<linearGradient id="SVGID_00000179609988256729336460000001563889374093169069_" gradientUnits="userSpaceOnUse" x1="40.9255" y1="78.9054" x2="1072.9283" y2="78.9054">
		<stop  offset="0" style="stop-color:#4C5FBF"/>
		<stop  offset="0.3" style="stop-color:#4889D1"/>
		<stop  offset="0.5" style="stop-color:#47AADD"/>
		<stop  offset="1" style="stop-color:#FE9934"/>
	</linearGradient>
	<path style="fill:url(#SVGID_00000179609988256729336460000001563889374093169069_);" d="M436.01,60.05c13.6,0,20.4,8.9,20.4,17.8
		c0,13.8-16.3,19.3-24.4,19.9c-1.2,0.1-1-0.7,0-1.1c7.9-3.4,13.4-6.7,14.1-14.7h-12.4c-1.2,0-9.2,0.3-10.5,0.5
		c-3.4,0.6-3.8,0.5-2.7-0.3c0.7-0.5,4.5-4.3,5.9-5.6l0.2-0.2h19.4c-1.2-9.2-6.6-13.1-11.9-13.1c-7.2,0-11.8,4.5-11.8,7.8
		c0,0.8-0.2,1.1-0.5,1.2c-2.9,1-4.6,1.9-6.2,3.2c-0.5,0.4-1.2,0.8-0.8-0.4C415.91,72.05,421.21,60.05,436.01,60.05z"/>
	
		<linearGradient id="SVGID_00000081615231174611306180000002672953657255061680_" gradientUnits="userSpaceOnUse" x1="40.9255" y1="70.5898" x2="1072.9283" y2="70.5898">
		<stop  offset="0" style="stop-color:#4C5FBF"/>
		<stop  offset="0.3" style="stop-color:#4889D1"/>
		<stop  offset="0.5" style="stop-color:#47AADD"/>
		<stop  offset="1" style="stop-color:#FE9934"/>
	</linearGradient>
	<path style="fill:url(#SVGID_00000081615231174611306180000002672953657255061680_);" d="M483.51,64.25v-9c0-2.4-0.7-3.4-3.2-3.9
		c-1-0.2-2.8-0.3-3.7-0.3s-0.9-0.5-0.5-0.7c4.6-1.9,7.9-4.2,12.5-6.9c2.2-1.3,3.6,1.6,3.6,4.1v14.4c6.7-0.8,11.6,0.7,15.5,2.6
		c0.2,0.1,0.1,0.1-0.2,0.4c-1.3,1.1-3.9,3.7-5.1,5.2c-0.3,0.4-0.5,0.8-0.7,0.6c-2.2-2.1-5.2-4.1-9.5-5v27.1l-2.1,1.1
		c-2.5,1.6-6.2,4.1-8,4.1c-7,0-20.7-3.3-20.7-12.2C461.4,76.75,475.91,67.35,483.51,64.25z M483.51,91.75v-25.3
		c-5.9,2.8-11.5,10.5-11.5,17C472.01,88.35,477.21,90.55,483.51,91.75z"/>
	
		<linearGradient id="SVGID_00000028316235145108923710000016377376953230831748_" gradientUnits="userSpaceOnUse" x1="40.9255" y1="73.9167" x2="1072.9283" y2="73.9167">
		<stop  offset="0" style="stop-color:#4C5FBF"/>
		<stop  offset="0.3" style="stop-color:#4889D1"/>
		<stop  offset="0.5" style="stop-color:#47AADD"/>
		<stop  offset="1" style="stop-color:#FE9934"/>
	</linearGradient>
	<path style="fill:url(#SVGID_00000028316235145108923710000016377376953230831748_);" d="M573.51,53.55c0.9,0.4,15.2,5,15.2,23.7
		c0,6.3-1.7,17.4-16,17.4c-19.3,0-20.5-18.5-20.5-10.4v12.2l-5.5,3c-0.3,0.2-2.3,1.5-2.6,1.8c-0.8,0.7-0.9,0.7-0.8,0.2
		c0.1-0.3,0.2-2.3,0.2-3.3v-40c0-2.4-0.7-3.4-3.2-3.9c-1-0.2-2.8-0.3-3.7-0.3c-0.9,0-0.9-0.5-0.5-0.7c4.6-1.9,7.9-4.2,12.5-6.9
		c2.2-1.3,3.6,1.6,3.6,4.1v16.6c0,11.4,6.7,18.1,16.1,18.1c5,0,12.4-2.9,12.4-13.2c0-8.1-5.6-13.9-9.2-16.2c-1.7-1.1-4-1.2-5-0.9
		c-2.3,0.7-2.8,0.1-0.9-1.7l0.6-0.6l5.7-5.6h9.9c1.2,0,9.2-0.3,10.5-0.5c3.4-0.6,3.8-0.5,2.7,0.3c-0.7,0.5-4.5,4.3-5.9,5.6l-0.2,0.2
		h-14.1C572.21,52.55,572.61,53.15,573.51,53.55z M566.21,52.55h-0.1H566.21z"/>
	
		<linearGradient id="SVGID_00000180355718733331476390000006298784423336654505_" gradientUnits="userSpaceOnUse" x1="40.9255" y1="78.9054" x2="1072.9283" y2="78.9054">
		<stop  offset="0" style="stop-color:#4C5FBF"/>
		<stop  offset="0.3" style="stop-color:#4889D1"/>
		<stop  offset="0.5" style="stop-color:#47AADD"/>
		<stop  offset="1" style="stop-color:#FE9934"/>
	</linearGradient>
	<path style="fill:url(#SVGID_00000180355718733331476390000006298784423336654505_);" d="M618.3,60.05c13.6,0,20.4,8.9,20.4,17.8
		c0,13.8-16.3,19.3-24.4,19.9c-1.2,0.1-1-0.7,0-1.1c7.9-3.4,13.4-6.7,14.1-14.7H616c-1.2,0-9.2,0.3-10.5,0.5
		c-3.4,0.6-3.8,0.5-2.7-0.3c0.7-0.5,4.5-4.3,5.9-5.6l0.2-0.2h19.4c-1.2-9.2-6.6-13.1-11.9-13.1c-7.2,0-11.8,4.5-11.8,7.8
		c0,0.8-0.2,1.1-0.5,1.2c-2.9,1-4.6,1.9-6.2,3.2c-0.5,0.4-1.2,0.8-0.8-0.4C598.2,72.05,603.5,60.05,618.3,60.05z"/>
	
		<linearGradient id="SVGID_00000154390499947585115680000012155458228574866862_" gradientUnits="userSpaceOnUse" x1="40.9255" y1="78.6285" x2="1072.9283" y2="78.6285">
		<stop  offset="0" style="stop-color:#4C5FBF"/>
		<stop  offset="0.3" style="stop-color:#4889D1"/>
		<stop  offset="0.5" style="stop-color:#47AADD"/>
		<stop  offset="1" style="stop-color:#FE9934"/>
	</linearGradient>
	<path style="fill:url(#SVGID_00000154390499947585115680000012155458228574866862_);" d="M648.6,91.85c-7.5-9.7-2.8-19.6,2.8-25.5
		c5.9-6.6,13.5-9.3,22.7-4.3c8.1,4.5,12.3,15.9,3.7,27.2C668.3,101.75,653.8,98.65,648.6,91.85z M669.5,68.95
		c-5.8-4.4-12.5-4.9-15.5-1.8c-4.1,4.3-2.6,13.8,1.1,18.6c4.4,5.7,14.5,8.4,18,5C679.01,84.95,674.8,73.15,669.5,68.95z"/>
	
		<linearGradient id="SVGID_00000067237109132515002070000017172922806076175281_" gradientUnits="userSpaceOnUse" x1="40.9255" y1="76.251" x2="1072.9283" y2="76.251">
		<stop  offset="0" style="stop-color:#4C5FBF"/>
		<stop  offset="0.3" style="stop-color:#4889D1"/>
		<stop  offset="0.5" style="stop-color:#47AADD"/>
		<stop  offset="1" style="stop-color:#FE9934"/>
	</linearGradient>
	<path style="fill:url(#SVGID_00000067237109132515002070000017172922806076175281_);" d="M724,72.95c3.4-0.6,3.8-0.5,2.7,0.3
		c-0.7,0.5-4.5,4.3-5.9,5.6l-0.2,0.2h-18.9c-1.2,0-9.2,0.3-10.5,0.5c-3.4,0.6-3.8,0.5-2.7-0.3c0.7-0.5,4.5-4.3,5.9-5.6l0.2-0.2h18.9
		C714.7,73.45,722.7,73.15,724,72.95z"/>
	
		<linearGradient id="SVGID_00000117654066134439529430000007833405174091030684_" gradientUnits="userSpaceOnUse" x1="40.9255" y1="70.9995" x2="1072.9283" y2="70.9995">
		<stop  offset="0" style="stop-color:#4C5FBF"/>
		<stop  offset="0.3" style="stop-color:#4889D1"/>
		<stop  offset="0.5" style="stop-color:#47AADD"/>
		<stop  offset="1" style="stop-color:#FE9934"/>
	</linearGradient>
	<path style="fill:url(#SVGID_00000117654066134439529430000007833405174091030684_);" d="M737.2,94.35c-0.5-0.5,0.2-0.7,1.2-1.3
		c0.6-0.4,4-2.9,4.9-3.8c0.3-0.3,0.9-1.3,2-0.4c4.1,3.3,9.8,7.7,17.8,7.7c8.8,0,14.4-7.4,15-21.3h-23.5c-1.2,0-9.2,0.3-10.5,0.5
		c-3.4,0.6-3.8,0.5-2.7-0.3c0.7-0.5,4.5-4.3,5.9-5.6l0.2-0.2h25.2l5-0.2c-1.5-7.3-6.8-17.7-14.6-17.7c-8.2,0-14.6,6.6-22.8,6.6
		c-7.8,0-7.6-5.5-7.6-9c0-0.6,0.2-0.9,0.5-1c2.9-1.3,9.5-6.1,10.1-6.3c0.3-0.1,0.9-0.4,1,0c0.1,0.4-3.3,2.1-3.3,5.4
		c0,3.6,1.9,5,4.6,5c6.3,0,13-5,21.9-5c10.8,0,22.1,11.6,22.1,25.1c0,17-13.9,27.6-29.8,27.6C751.2,100.15,742.6,98.75,737.2,94.35z
		"/>
	
		<linearGradient id="SVGID_00000145776230333473667290000017077481648565950865_" gradientUnits="userSpaceOnUse" x1="40.9255" y1="78.6285" x2="1072.9283" y2="78.6285">
		<stop  offset="0" style="stop-color:#4C5FBF"/>
		<stop  offset="0.3" style="stop-color:#4889D1"/>
		<stop  offset="0.5" style="stop-color:#47AADD"/>
		<stop  offset="1" style="stop-color:#FE9934"/>
	</linearGradient>
	<path style="fill:url(#SVGID_00000145776230333473667290000017077481648565950865_);" d="M797.5,91.85c-7.5-9.7-2.8-19.6,2.8-25.5
		c5.9-6.6,13.5-9.3,22.7-4.3c8.1,4.5,12.3,15.9,3.7,27.2C817.2,101.75,802.7,98.65,797.5,91.85z M818.4,68.95
		c-5.8-4.4-12.5-4.9-15.5-1.8c-4.1,4.3-2.6,13.8,1.1,18.6c4.4,5.7,14.5,8.4,18,5C827.9,84.95,823.7,73.15,818.4,68.95z"/>
	
		<linearGradient id="SVGID_00000157274683873110732180000005858230568252950456_" gradientUnits="userSpaceOnUse" x1="40.9255" y1="88.8516" x2="1072.9283" y2="88.8516">
		<stop  offset="0" style="stop-color:#4C5FBF"/>
		<stop  offset="0.3" style="stop-color:#4889D1"/>
		<stop  offset="0.5" style="stop-color:#47AADD"/>
		<stop  offset="1" style="stop-color:#FE9934"/>
	</linearGradient>
	<path style="fill:url(#SVGID_00000157274683873110732180000005858230568252950456_);" d="M839.4,67.85c-1-0.2-2.8-0.3-3.7-0.3
		c-0.9,0-0.9-0.5-0.5-0.7c4.6-1.9,7.9-4.2,12.5-6.9c2.2-1.3,3.6,1.6,3.6,4.1v3.9c4-4.5,11.5-8.4,15.9-8.4c4.8,0,12.7,4.5,12.7,11.7
		c0,5.5-4.5,9.7-10.1,11.3v18.2c0,9,2.5,12.3,6.6,12.3c2.9,0,5.7-1.7,7.7-4.1c0.5-0.6,1.1,0.1,0.8,0.8c-1.5,3.2-6.5,8.4-11.3,8.4
		c-7.9,0-12.5-5.1-12.5-15.2v-20l-1.6-0.4c-1.3-0.4-1.7-1.3,0-1.6c2.2-0.4,10.2-0.9,10.2-8.3c0-4.6-2.8-8.6-7.9-8.6
		c-3.3,0-8.3,4.2-10.5,6.9v22.3l-5.5,3c-0.3,0.2-2.3,1.5-2.6,1.8c-0.8,0.7-0.9,0.7-0.8,0.2c0.1-0.3,0.2-2.3,0.2-3.3v-23.2
		C842.6,69.35,841.9,68.35,839.4,67.85z"/>
	
		<linearGradient id="SVGID_00000039833965956904894910000015089580474796684165_" gradientUnits="userSpaceOnUse" x1="40.9255" y1="78.7109" x2="1072.9283" y2="78.7109">
		<stop  offset="0" style="stop-color:#4C5FBF"/>
		<stop  offset="0.3" style="stop-color:#4889D1"/>
		<stop  offset="0.5" style="stop-color:#47AADD"/>
		<stop  offset="1" style="stop-color:#FE9934"/>
	</linearGradient>
	<path style="fill:url(#SVGID_00000039833965956904894910000015089580474796684165_);" d="M910.5,80.35c-4.5,4-8.9,8.1-13,12.2
		c-2.1,2.1-6,5.2-6.9,5.2c-2.5,0-7.1-1.3-7.1-7.6c0-8.4,14.8-18.8,25.2-18.8c2.2,0,4.1,0.4,5.7,1l7.3-6.8h-19.4
		c-1.2,0-9.2,0.3-10.5,0.5c-3.4,0.6-3.8,0.5-2.7-0.3c0.7-0.5,4.5-4.3,5.9-5.6l0.2-0.2h32c1.2,0,2.5,0,4-0.2c1.2-0.3,0.5,0.3,0,0.8
		c-4.3,4.7-9,9.1-13.7,13.5c1.2,0.9,1.9,1.9,1.9,2.8v14.8c4.2-0.9,7.8-2.6,9.4-3.3c1.3-0.5,1.7-0.2,0.8,0.6
		c-6.9,6.1-15.8,8.4-18.8,8.4v-14.8C910.8,81.75,910.7,81.05,910.5,80.35z M895.8,89.85l13-12.2c-1.2-1.1-3-1.7-5.6-1.7
		c-5,0-11.2,5.4-11.2,11.2C892,93.35,894.4,91.25,895.8,89.85z"/>
	
		<linearGradient id="SVGID_00000082355833274693073270000011981801448477769613_" gradientUnits="userSpaceOnUse" x1="40.9255" y1="78.9054" x2="1072.9283" y2="78.9054">
		<stop  offset="0" style="stop-color:#4C5FBF"/>
		<stop  offset="0.3" style="stop-color:#4889D1"/>
		<stop  offset="0.5" style="stop-color:#47AADD"/>
		<stop  offset="1" style="stop-color:#FE9934"/>
	</linearGradient>
	<path style="fill:url(#SVGID_00000082355833274693073270000011981801448477769613_);" d="M955.7,60.05c13.6,0,20.4,8.9,20.4,17.8
		c0,13.8-16.3,19.3-24.4,19.9c-1.2,0.1-1-0.7,0-1.1c7.9-3.4,13.4-6.7,14.1-14.7h-12.4c-1.2,0-9.2,0.3-10.5,0.5
		c-3.4,0.6-3.8,0.5-2.7-0.3c0.7-0.5,4.5-4.3,5.9-5.6l0.2-0.2h19.4c-1.2-9.2-6.6-13.1-11.9-13.1c-7.2,0-11.8,4.5-11.8,7.8
		c0,0.8-0.2,1.1-0.5,1.2c-2.9,1-4.6,1.9-6.2,3.2c-0.5,0.4-1.2,0.8-0.8-0.4C935.6,72.05,940.9,60.05,955.7,60.05z"/>
	
		<linearGradient id="SVGID_00000132785329905102014020000001068308386088665986_" gradientUnits="userSpaceOnUse" x1="40.9255" y1="87.2497" x2="1072.9283" y2="87.2497">
		<stop  offset="0" style="stop-color:#4C5FBF"/>
		<stop  offset="0.3" style="stop-color:#4889D1"/>
		<stop  offset="0.5" style="stop-color:#47AADD"/>
		<stop  offset="1" style="stop-color:#FE9934"/>
	</linearGradient>
	<path style="fill:url(#SVGID_00000132785329905102014020000001068308386088665986_);" d="M983.5,67.55c-1-0.2-2.8-0.3-3.7-0.3
		s-0.9-0.5-0.5-0.7c4.6-1.9,7.9-4.2,12.5-6.9c2.2-1.3,3.6,1.6,3.6,4.1v5.1c4.1-4.4,9.6-8.8,16.9-8.8c5.2,0,9.5,2,11,3.8
		c-0.5,0.3-4.9,4.4-5.6,5.5c-2-2-5.6-3.7-10.6-3.7c-4.9,0-7.7,3-11.7,7v9.4c4.9-2.7,12.3-7.6,15.4-7.6c6.7,0,12.5,4.3,12.5,11.6
		c0,8.1-10.1,11.2-16.4,11.2c-5.3,0-9.2-3.1-11.5-4.1v0.8c0,7.1-14.5,20.1-16.5,21.1c-0.6,0.3-1.1,0-0.5-0.6
		c1.8-1.6,8.3-12.8,8.3-19.2v-0.3v-7.8v-15.7C986.7,69.05,986,68.05,983.5,67.55z M1009.6,93.45c4,0,4.9-0.3,4.9-4.8
		c0-5.5-4.7-9.2-7.9-9.2c-2.8,0-6.8,3.6-10.3,5.2C999.8,88.85,1005.3,93.45,1009.6,93.45z"/>
	
		<linearGradient id="SVGID_00000070079049262576085090000002631502439000974236_" gradientUnits="userSpaceOnUse" x1="40.9255" y1="79.4847" x2="1072.9283" y2="79.4847">
		<stop  offset="0" style="stop-color:#4C5FBF"/>
		<stop  offset="0.3" style="stop-color:#4889D1"/>
		<stop  offset="0.5" style="stop-color:#47AADD"/>
		<stop  offset="1" style="stop-color:#FE9934"/>
	</linearGradient>
	<path style="fill:url(#SVGID_00000070079049262576085090000002631502439000974236_);" d="M1071.9,81.85c0,10.5-6.3,15.2-12.7,15.2
		c-14.6,0-16-12.6-16-8.3v5.2l-5.5,3c-0.3,0.2-2.3,1.5-2.6,1.8c-0.8,0.7-0.9,0.7-0.8,0.2c0.1-0.3,0.2-2.3,0.2-3.3v-23.6
		c0-2.4-0.7-3.4-3.2-3.9c-1-0.2-2.8-0.3-3.7-0.3c-0.9,0-0.9-0.5-0.5-0.7c4.6-1.9,7.9-4.2,12.5-6.9c2.2-1.3,3.6,1.6,3.6,4.1v13.3
		c0,7.1,3.4,11.4,12,11.4c4.1,0,9.8-1.9,9.8-10.4c0-7.2-2.6-9.4-6.9-11.8c-1.4-0.8-3.2-0.7-4-0.5c-1.2,0.3-1.7,0.2-1.6-0.2
		c0.1-0.2,0.4-0.6,0.9-1.1l4.9-4.5h6.9c1.2,0,9.2-0.3,10.5-0.5c3.4-0.6,3.8-0.5,2.7,0.3c-0.7,0.5-4.5,4.3-5.9,5.6l-0.2,0.2h-8.1
		C1059.2,66.15,1071.9,67.85,1071.9,81.85z"/>
</g>
</svg>
