<svg xmlns="http://www.w3.org/2000/svg" xmlns:xlink="http://www.w3.org/1999/xlink" viewBox="0 0 1125 161"><defs><style>.a{fill:url(#a);}.b{fill:url(#b);}.c{fill:url(#c);}.d{fill:url(#d);}.e{fill:url(#e);}.f{fill:url(#f);}.g{fill:url(#g);}.h{fill:url(#i);}.i{fill:url(#l);}.j{fill:url(#m);}.k{fill:url(#n);}.l{fill:url(#p);}.m{fill:url(#q);}.n{fill:url(#s);}</style><linearGradient id="a" x1="100.2" y1="81.86" x2="1011.01" y2="81.86" gradientUnits="userSpaceOnUse"><stop offset="0" stop-color="#4c5fbf"/><stop offset="0.3" stop-color="#4889d1"/><stop offset="0.5" stop-color="#47aadd"/><stop offset="1" stop-color="#fe9934"/></linearGradient><linearGradient id="b" x1="100.2" y1="86.55" x2="1011.01" y2="86.55" xlink:href="#a"/><linearGradient id="c" x1="100.2" y1="95.01" x2="1011.01" y2="95.01" xlink:href="#a"/><linearGradient id="d" x1="100.2" y1="86.22" x2="1011.01" y2="86.22" xlink:href="#a"/><linearGradient id="e" x1="100.2" y1="86.35" x2="1011.01" y2="86.35" xlink:href="#a"/><linearGradient id="f" x1="100.2" y1="86.88" x2="1011.01" y2="86.88" xlink:href="#a"/><linearGradient id="g" x1="100.2" y1="94.7" x2="1011.01" y2="94.7" xlink:href="#a"/><linearGradient id="i" x1="100.2" y1="78.87" x2="1011.01" y2="78.87" xlink:href="#a"/><linearGradient id="l" x1="100.2" y1="86.1" x2="1011.01" y2="86.1" xlink:href="#a"/><linearGradient id="m" x1="100.2" y1="83.97" x2="1011.01" y2="83.97" xlink:href="#a"/><linearGradient id="n" x1="100.2" y1="79.24" x2="1011.01" y2="79.24" xlink:href="#a"/><linearGradient id="p" x1="100.2" y1="95.3" x2="1011.01" y2="95.3" xlink:href="#a"/><linearGradient id="q" x1="100.2" y1="86.18" x2="1011.01" y2="86.18" xlink:href="#a"/><linearGradient id="s" x1="100.2" y1="93.86" x2="1011.01" y2="93.86" xlink:href="#a"/></defs><path class="a" d="M101.75,64.17a21.63,21.63,0,0,0-3.33-.27c-.81,0-.81-.45-.45-.63,4.14-1.71,7.11-3.78,11.25-6.21,2-1.17,3.24,1.44,3.24,3.69v9c5-5.58,12.69-12.69,21.87-12.69a19.79,19.79,0,0,1,12.33,4c.54.45,0,.45-.36.63a22.6,22.6,0,0,0-5.49,5.49.45.45,0,0,1-.72.18,17.45,17.45,0,0,0-11.7-4c-6.21,0-10.53,3.69-15.93,8.91V83.79c5.13-2.25,15.75-9.27,19.8-9.27,7.56,0,15.12,7.2,15.12,14.85,0,8.09-12.42,15.2-19.53,15.2s-12.78-6.84-15-6.84h-.36v4.41l-4.95,2.7c-.27.18-2.07,1.35-2.34,1.62-.72.63-.81.63-.72.18a22.52,22.52,0,0,0,.18-3v-36C104.63,65.52,104,64.62,101.75,64.17Zm28,35.18c7.83,0,9.9-3.6,6.75-11.06-1.62-3.78-5.31-8.1-9.09-8.1-3,0-9.81,4.68-14.4,6.66C117.14,91.71,123.71,99.35,129.74,99.35Z"/><path class="b" d="M158.54,69.84a6,6,0,0,1,3.6-.72c2.25.36,4.14,1.17,4.14,4.41,0,4.5-7.11,8-7.11,16.82,0,4.41,1.71,8.55,9.36,10V76.14l1.71-.72c4.23-2,9.09-6,10.71-6,4.59,0,13.86,2.88,13.86,12.15,0,13.76-12.6,22.49-24.3,22.49-8.73,0-18.63-2-18.63-12.24,0-7.19,7.29-9.35,7-14.66-.18-3.33-4-2.88-5.22-2.07-.54.36-1.17.09-1-.18A57.85,57.85,0,0,1,158.54,69.84Zm28.8,15.3c0-7.56-6.75-9.36-11-9.63V100.7C184.46,99.53,187.34,89.81,187.34,85.14Z"/><path class="c" d="M234.05,83.7h1.71c1.08,0,8.28-.27,9.45-.45,3-.54,3.41-.45,2.42.27-.63.45-4,3.87-5.3,5l-.18.17h-8.1V99.17l-5,2.7c-.27.18-2.07,1.35-2.34,1.62-.72.63-.81.63-.72.18a22.52,22.52,0,0,0,.18-3V88.83c-2.52.09-6.3.27-7.11.36-3.06.54-3.42.45-2.43-.27.63-.45,4-3.87,5.31-5l.18-.18h4.05V73.8C217.58,75.42,208,82.08,208,96c0,14.58,14.76,21.69,18.18,23.76.81.54,1.26,1.53-.18,1.26-6.3-1.17-26.73-5.67-26.73-22.41,0-19.43,25-29.69,34.74-29.69Z"/><path class="d" d="M250.34,92.78V74.52c0-3.06,2.34-5.22,8.19-5.22,3.51,0,6.12,2.07,8.64,5.94,1-1.89,3.33-5.94,8.37-5.94,4.59,0,6.21,1.35,12.24,10.8,5.49,8.46,10.17,18.62,13.49,18.62,2.52,0,4-2.7,4.86-3.51.54-.54,1.17,0,.9.54-.81,1.35-4.59,7.38-8.36,7.38-4.59,0-6.84-1.53-9.9-6.21-1,1.89-3.06,6.21-8.1,6.21-4,0-7.11-2.7-9.72-6.39-1.62,2.7-3,6.39-9.81,6.39C254.57,103.13,250.34,98.81,250.34,92.78ZM264,98.63c2.52,0,4.86-1.71,6.21-2.88a90.64,90.64,0,0,1-5.4-9.44c-2.34-4.41-4.05-13.14-6.48-13.14a2.49,2.49,0,0,0-.81.09V91.71C257.54,96.29,259.52,98.63,264,98.63Zm7.56-15.92c3.24,5.85,9.18,16,12.69,16,1.44,0,2.88-1.8,3.78-2.79-1.8-2.78-3.87-6.47-6.84-11.42-4.59-8-6.66-10.71-9.36-10.71-1.71,0-2.79,2.16-3.69,3C269.24,78.48,270.32,80.46,271.58,82.71Z"/><path class="e" d="M320,69.39c12.24,0,18.36,8,18.36,16,0,12.41-14.67,17.36-22,17.9-1.08.09-.9-.63,0-1,7.11-3.06,12.06-6,12.69-13.22H317.93c-1.08,0-8.28.27-9.45.44-3.06.54-3.42.46-2.43-.27.63-.44,4.05-3.86,5.31-5l.18-.18H329c-1.08-8.28-5.94-11.79-10.71-11.79-6.48,0-10.62,4-10.62,7,0,.72-.18,1-.45,1.08a16.87,16.87,0,0,0-5.58,2.88c-.45.36-1.08.72-.72-.36C301.91,80.19,306.68,69.39,320,69.39Z"/><path class="f" d="M382.1,89c0,9.45-5.67,13.68-11.43,13.68-13.14,0-14.4-11.33-14.4-7.47v4.68l-4.95,2.7c-.27.18-2.07,1.35-2.34,1.62-.72.63-.81.63-.72.18a22.52,22.52,0,0,0,.18-3V80.19c0-2.16-.63-3.06-2.88-3.51a21.63,21.63,0,0,0-3.33-.27c-.81,0-.81-.45-.45-.63,4.14-1.71,7.11-3.78,11.25-6.21,2-1.17,3.24,1.44,3.24,3.69v12c0,6.38,3.06,10.25,10.8,10.25,3.69,0,8.82-1.71,8.82-9.36,0-6.47-2.34-8.45-6.21-10.61a5.38,5.38,0,0,0-3.6-.45c-1.08.27-1.53.18-1.44-.18a4.76,4.76,0,0,1,.81-1l4.41-4h6.21c1.08,0,8.28-.27,9.45-.45,3.06-.54,3.42-.45,2.43.27-.63.45-4.05,3.87-5.31,5l-.18.18h-7.29C370.67,74.88,382.1,76.41,382.1,89Z"/><path class="g" d="M409.55,69.3c8.64,0,14.13,3.78,14.13,7.47v38.51l-4.95,2.7c-.27.18-2.07,1.35-2.34,1.62-.72.63-.81.63-.72.18a22.52,22.52,0,0,0,.18-3V80.73c0-4-4.23-6.75-10.17-6.75-3.87,0-9.72,2.07-15.75,6.75-.9.72-2,.09-1.35-.72C391,76.86,396.5,69.3,409.55,69.3Z"/><path class="e" d="M448.7,69.39c12.24,0,18.36,8,18.36,16,0,12.41-14.67,17.36-22,17.9-1.08.09-.9-.63,0-1,7.11-3.06,12.06-6,12.69-13.22H446.63c-1.08,0-8.28.27-9.45.44-3.06.54-3.42.46-2.43-.27.63-.44,4.05-3.86,5.31-5l.18-.18H457.7c-1.08-8.28-5.94-11.79-10.71-11.79-6.48,0-10.62,4-10.62,7,0,.72-.18,1-.45,1.08a16.87,16.87,0,0,0-5.58,2.88c-.45.36-1.08.72-.72-.36C430.61,80.19,435.38,69.39,448.7,69.39Z"/><path class="h" d="M491.45,73.17v-8.1c0-2.16-.63-3.06-2.88-3.51a21.63,21.63,0,0,0-3.33-.27c-.81,0-.81-.45-.45-.63,4.14-1.71,7.11-3.78,11.25-6.21,2-1.17,3.24,1.44,3.24,3.69v13a23.92,23.92,0,0,1,13.94,2.34c.18.09.09.09-.18.36a44.25,44.25,0,0,0-4.58,4.68c-.27.36-.46.72-.64.54a17.12,17.12,0,0,0-8.54-4.5V98.9l-1.89,1c-2.25,1.44-5.58,3.69-7.2,3.69-6.3,0-18.63-3-18.63-11C471.56,84.42,484.61,76,491.45,73.17Zm0,24.74V75.15c-5.31,2.52-10.35,9.45-10.35,15.29C481.1,94.85,485.78,96.83,491.45,97.91Z"/><path class="a" d="M572.44,63.54c.81.36,13.68,4.5,13.68,21.33,0,5.67-1.53,15.65-14.4,15.65-17.37,0-18.45-16.64-18.45-9.35v11l-4.94,2.7c-.27.18-2.07,1.35-2.34,1.62-.72.63-.81.63-.72.18a24.42,24.42,0,0,0,.18-3v-36c0-2.16-.63-3.06-2.88-3.51a21.63,21.63,0,0,0-3.33-.27c-.81,0-.81-.45-.45-.63,4.14-1.71,7.11-3.78,11.25-6.21,2-1.17,3.23,1.44,3.23,3.69V75.69c0,10.26,6,16.29,14.49,16.29,4.5,0,11.16-2.61,11.16-11.88,0-7.29-5-12.51-8.28-14.58a6.28,6.28,0,0,0-4.5-.81c-2.07.63-2.52.09-.81-1.53l.55-.54h0l5.12-5h8.91c1.08,0,8.28-.27,9.45-.45,3.06-.54,3.42-.45,2.43.27-.63.45-4,3.87-5.31,5l-.18.18H573.61C571.27,62.64,571.63,63.18,572.44,63.54Z"/><path class="e" d="M612.76,69.39c12.24,0,18.36,8,18.36,16,0,12.41-14.66,17.36-22,17.9-1.09.09-.9-.63,0-1,7.1-3.06,12.05-6,12.68-13.22H610.7c-1.08,0-8.28.27-9.45.44-3.06.54-3.42.46-2.43-.27.63-.44,4-3.86,5.3-5l.18-.18h17.46c-1.08-8.28-5.94-11.79-10.71-11.79-6.47,0-10.61,4-10.61,7,0,.72-.18,1-.45,1.08a16.87,16.87,0,0,0-5.58,2.88c-.45.36-1.08.72-.72-.36C594.68,80.19,599.45,69.39,612.76,69.39Z"/><path class="i" d="M640,98c-6.75-8.73-2.53-17.63,2.51-22.94,5.31-5.94,12.15-8.37,20.43-3.87,7.29,4,11.07,14.31,3.33,24.47C657.76,106.91,644.71,104.12,640,98Zm5.84-5.48c4,5.12,13,7.55,16.2,4.49,5.31-5.22,1.53-15.83-3.24-19.61-5.22-4-11.25-4.41-14-1.62C641.21,79.65,642.55,88.2,645.88,92.52Z"/><path class="j" d="M707.89,81c3.06-.54,3.42-.45,2.43.27-.63.45-4.05,3.87-5.31,5l-.18.18h-17c-1.08,0-8.28.27-9.45.45-3.06.54-3.42.45-2.43-.27.63-.45,4-3.87,5.31-5l.18-.18h17C699.52,81.45,706.72,81.18,707.89,81Z"/><path class="k" d="M719.77,100.25c-.45-.45.18-.63,1.08-1.17a54.4,54.4,0,0,0,4.41-3.42c.27-.26.81-1.17,1.8-.36,3.69,3,8.82,6.93,16,6.93,7.92,0,13-6.66,13.5-19.16H735.43c-1.08,0-8.28.27-9.45.45-3.06.54-3.42.45-2.43-.27.63-.45,4.05-3.87,5.31-5L729,78h22.68l4.5-.18c-1.35-6.57-6.12-15.93-13.14-15.93-7.38,0-13.14,5.94-20.52,5.94-7,0-6.84-5-6.84-8.1,0-.54.18-.81.45-.9,2.61-1.17,8.55-5.49,9.09-5.67.27-.09.81-.36.9,0s-3,1.89-3,4.86c0,3.24,1.71,4.5,4.14,4.5,5.67,0,11.7-4.5,19.71-4.5,9.72,0,19.89,10.44,19.89,22.59,0,15.29-12.51,24.83-26.82,24.83C732.37,105.47,724.63,104.21,719.77,100.25Z"/><path class="i" d="M774,98c-6.75-8.73-2.52-17.63,2.52-22.94,5.31-5.94,12.15-8.37,20.43-3.87,7.29,4,11.07,14.31,3.33,24.47C791.77,106.91,778.72,104.12,774,98Zm5.85-5.48c4,5.12,13.05,7.55,16.2,4.49,5.31-5.22,1.53-15.83-3.24-19.61-5.22-4-11.25-4.41-14-1.62C775.21,79.65,776.56,88.2,779.89,92.52Z"/><path class="l" d="M811.75,76.41a21.63,21.63,0,0,0-3.33-.27c-.81,0-.81-.45-.45-.63,4.14-1.71,7.11-3.78,11.25-6.21,2-1.17,3.24,1.44,3.24,3.69V76.5c3.6-4,10.35-7.56,14.31-7.56,4.32,0,11.43,4,11.43,10.53,0,5-4.05,8.73-9.09,10.17V106c0,8.1,2.25,11.07,5.94,11.07a9.41,9.41,0,0,0,6.93-3.69c.45-.54,1,.09.72.72-1.35,2.88-5.85,7.56-10.17,7.56-7.11,0-11.25-4.59-11.25-13.68V90a10.83,10.83,0,0,1-1.44-.36c-1.17-.37-1.53-1.17,0-1.44,2-.37,9.18-.81,9.18-7.47,0-4.14-2.52-7.74-7.11-7.74-3,0-7.47,3.78-9.45,6.21V99.26l-5,2.7c-.27.18-2.07,1.35-2.34,1.62-.72.63-.81.63-.72.18a22.52,22.52,0,0,0,.18-3V79.92C814.63,77.76,814,76.86,811.75,76.41Z"/><path class="m" d="M875.74,87.66c-4,3.59-8,7.28-11.7,11-1.89,1.89-5.4,4.68-6.21,4.68-2.25,0-6.39-1.17-6.39-6.84,0-7.55,13.32-16.91,22.68-16.91a14.52,14.52,0,0,1,5.13.9l6.57-6.12H868.36c-1.08,0-8.28.27-9.45.45-3.06.54-3.42.45-2.43-.27.63-.45,4-3.87,5.31-5l.18-.18h28.8a26,26,0,0,0,3.6-.18c1.08-.27.45.27,0,.72C890.5,74.07,886.27,78,882,82a3.56,3.56,0,0,1,1.71,2.52V97.82a42.8,42.8,0,0,0,8.46-3c1.17-.45,1.53-.18.72.55C886.72,100.88,878.71,103,876,103V89.64A7,7,0,0,0,875.74,87.66ZM862.51,96.2l11.7-11a7.18,7.18,0,0,0-5-1.53c-4.5,0-10.08,4.86-10.08,10.07C859.09,99.35,861.25,97.46,862.51,96.2Z"/><path class="e" d="M916.42,69.39c12.24,0,18.36,8,18.36,16,0,12.41-14.67,17.36-22,17.9-1.08.09-.9-.63,0-1,7.11-3.06,12.06-6,12.69-13.22H914.35c-1.08,0-8.28.27-9.45.44-3.06.54-3.42.46-2.43-.27.63-.44,4-3.86,5.31-5l.18-.18h17.46c-1.08-8.28-5.94-11.79-10.71-11.79-6.48,0-10.62,4-10.62,7,0,.72-.18,1-.45,1.08a16.87,16.87,0,0,0-5.58,2.88c-.45.36-1.08.72-.72-.36C898.33,80.19,903.1,69.39,916.42,69.39Z"/><path class="n" d="M941.44,76.14a21.63,21.63,0,0,0-3.33-.27c-.81,0-.81-.45-.45-.63,4.14-1.71,7.11-3.78,11.25-6.21,2-1.17,3.24,1.44,3.24,3.69v4.59c3.69-4,8.64-7.92,15.21-7.92,4.68,0,8.55,1.8,9.9,3.42a42.8,42.8,0,0,0-5,5c-1.8-1.8-5-3.33-9.54-3.33s-6.93,2.7-10.53,6.3v8.46c4.41-2.43,11.07-6.84,13.86-6.84,6,0,11.25,3.87,11.25,10.43,0,7.29-9.09,10.08-14.76,10.08-4.77,0-8.28-2.79-10.35-3.69v.72c0,6.39-13,18.09-14.85,19-.54.27-1,0-.45-.54,1.62-1.44,7.47-11.52,7.47-17.28V79.65C944.32,77.49,943.69,76.59,941.44,76.14Zm23.49,23.3c3.6,0,4.41-.27,4.41-4.32,0-5-4.23-8.27-7.11-8.27-2.52,0-6.12,3.23-9.27,4.67C956.11,95.3,961.06,99.44,964.93,99.44Z"/><path class="f" d="M1021,89c0,9.45-5.67,13.68-11.43,13.68-13.14,0-14.4-11.33-14.4-7.47v4.68l-4.95,2.7c-.27.18-2.07,1.35-2.34,1.62-.72.63-.81.63-.72.18a22.52,22.52,0,0,0,.18-3V80.19c0-2.16-.63-3.06-2.88-3.51a21.63,21.63,0,0,0-3.33-.27c-.81,0-.81-.45-.45-.63,4.14-1.71,7.11-3.78,11.25-6.21,2-1.17,3.24,1.44,3.24,3.69v12c0,6.38,3.06,10.25,10.8,10.25,3.69,0,8.82-1.71,8.82-9.36,0-6.47-2.34-8.45-6.21-10.61a5.38,5.38,0,0,0-3.6-.45c-1.08.27-1.53.18-1.44-.18a4.76,4.76,0,0,1,.81-1l4.41-4H1015c1.08,0,8.28-.27,9.45-.45,3.06-.54,3.42-.45,2.43.27-.63.45-4,3.87-5.31,5l-.18.18h-7.29C1009.57,74.88,1021,76.41,1021,89Z"/></svg>